<svg width="20" height="20" viewBox="0 0 20 20" fill="none" xmlns="http://www.w3.org/2000/svg">
<g clip-path="url(#clip0_1552_5822)">
<path d="M15.8333 0H4.16667C3.0616 0 2.00179 0.438987 1.22039 1.22039C0.438987 2.00179 0 3.0616 0 4.16667H0C0 4.82971 0.263392 5.46559 0.732233 5.93443C1.20107 6.40327 1.83696 6.66667 2.5 6.66667H17.5C18.1338 6.67441 18.7464 6.4387 19.2115 6.00814C19.6766 5.57758 19.9589 4.98499 20 4.3525C20.0245 3.79004 19.9349 3.22843 19.7366 2.70152C19.5382 2.17461 19.2353 1.69332 18.846 1.28663C18.4566 0.87994 17.989 0.556284 17.4713 0.335161C16.9535 0.114039 16.3963 2.81323e-05 15.8333 0V0Z" fill="#374957"/>
<path d="M18.3333 8.33331H1.66659C1.44557 8.33331 1.23361 8.42111 1.07733 8.57739C0.921049 8.73367 0.833252 8.94563 0.833252 9.16665V15.8333C0.834575 16.938 1.27399 17.997 2.0551 18.7781C2.83622 19.5592 3.89526 19.9987 4.99992 20H14.9999C16.1046 19.9987 17.1636 19.5592 17.9447 18.7781C18.7258 17.997 19.1653 16.938 19.1666 15.8333V9.16665C19.1666 8.94563 19.0788 8.73367 18.9225 8.57739C18.7662 8.42111 18.5543 8.33331 18.3333 8.33331ZM12.4999 12.5H7.49992C7.2789 12.5 7.06694 12.4122 6.91066 12.2559C6.75438 12.0996 6.66658 11.8877 6.66658 11.6666C6.66658 11.4456 6.75438 11.2337 6.91066 11.0774C7.06694 10.9211 7.2789 10.8333 7.49992 10.8333H12.4999C12.7209 10.8333 12.9329 10.9211 13.0892 11.0774C13.2455 11.2337 13.3333 11.4456 13.3333 11.6666C13.3333 11.8877 13.2455 12.0996 13.0892 12.2559C12.9329 12.4122 12.7209 12.5 12.4999 12.5Z" fill="#374957"/>
</g>
<defs>
<clipPath id="clip0_1552_5822">
<rect width="20" height="20" fill="white"/>
</clipPath>
</defs>
</svg>
