<svg width="20" height="20" viewBox="0 0 20 20" fill="none" xmlns="http://www.w3.org/2000/svg">
<g clip-path="url(#clip0_2295_13417)">
<path d="M19.9998 9.58335C19.9994 9.00866 19.8292 8.44691 19.5106 7.96863C19.192 7.49035 18.7392 7.11684 18.209 6.89501C17.8707 4.96365 16.8621 3.21344 15.3608 1.95224C13.8594 0.69104 11.9614 -0.000366211 10.0007 -0.000366211C8.03989 -0.000366211 6.1419 0.69104 4.64056 1.95224C3.13922 3.21344 2.13068 4.96365 1.79233 6.89501C1.18734 7.14954 0.685877 7.60069 0.36904 8.17552C0.0522035 8.75034 -0.0614857 9.41523 0.0463565 10.0627C0.154199 10.7101 0.477267 11.3022 0.963322 11.7433C1.44938 12.1844 2.07 12.4487 2.72483 12.4933C3.15524 13.4067 3.73897 14.2396 4.45067 14.9558C3.40782 16.0945 2.74599 17.53 2.55733 19.0625C2.54257 19.1797 2.55289 19.2988 2.58763 19.4117C2.62236 19.5246 2.68072 19.6289 2.75881 19.7175C2.83691 19.8062 2.93297 19.8772 3.04061 19.9259C3.14825 19.9746 3.26502 19.9999 3.38317 20H16.599C16.7171 20 16.8339 19.9748 16.9416 19.9262C17.0493 19.8776 17.1454 19.8067 17.2236 19.7181C17.3017 19.6295 17.3602 19.5253 17.395 19.4125C17.4299 19.2996 17.4403 19.1806 17.4257 19.0633C17.2383 17.5347 16.5798 16.1024 15.5415 14.965C16.2571 14.2466 16.844 13.4105 17.2765 12.4933C18.0149 12.4443 18.7071 12.1164 19.2127 11.5761C19.7184 11.0357 19.9998 10.3234 19.9998 9.58335ZM16.8732 10.8108C16.6788 10.7752 16.4781 10.8104 16.3074 10.9099C16.1366 11.0094 16.0072 11.1667 15.9423 11.3533C15.179 13.5183 12.6082 15.8333 9.99983 15.8333C7.3915 15.8333 4.82067 13.5167 4.05733 11.3517C3.99237 11.1651 3.86285 11.0079 3.69217 10.9084C3.52148 10.8089 3.32086 10.7737 3.1265 10.8092C3.05725 10.8228 2.98703 10.8308 2.9165 10.8333C2.60716 10.8297 2.31017 10.7114 2.08299 10.5014C1.8558 10.2914 1.71456 10.0046 1.68657 9.69653C1.65858 9.38843 1.74583 9.0809 1.93146 8.83341C2.11708 8.58593 2.38789 8.41606 2.6915 8.35668C2.86868 8.32456 3.03069 8.23592 3.15327 8.10402C3.27586 7.97212 3.35242 7.80407 3.3715 7.62501C3.49259 6.46833 3.91544 5.36376 4.5977 4.4219C5.27996 3.48005 6.1977 2.73396 7.259 2.25835C7.08347 2.70487 7.01969 3.18752 7.07322 3.66431C7.12674 4.1411 7.29594 4.5976 7.56611 4.99409C7.83627 5.39058 8.19922 5.71506 8.62337 5.93931C9.04753 6.16356 9.52005 6.28078 9.99983 6.28078C10.4796 6.28078 10.9521 6.16356 11.3763 5.93931C11.8005 5.71506 12.1634 5.39058 12.4336 4.99409C12.7037 4.5976 12.8729 4.1411 12.9265 3.66431C12.98 3.18752 12.9162 2.70487 12.7407 2.25835C13.802 2.73396 14.7197 3.48005 15.402 4.4219C16.0842 5.36376 16.5071 6.46833 16.6282 7.62501C16.6472 7.80407 16.7238 7.97212 16.8464 8.10402C16.969 8.23592 17.131 8.32456 17.3082 8.35668C17.6118 8.41606 17.8826 8.58593 18.0682 8.83341C18.2538 9.0809 18.3411 9.38843 18.3131 9.69653C18.2851 10.0046 18.1439 10.2914 17.9167 10.5014C17.6895 10.7114 17.3925 10.8297 17.0832 10.8333C17.0127 10.8314 16.9425 10.8239 16.8732 10.8108Z" fill="#A27070"/>
<path d="M7.91675 10.8334C8.6071 10.8334 9.16675 10.2737 9.16675 9.58337C9.16675 8.89302 8.6071 8.33337 7.91675 8.33337C7.22639 8.33337 6.66675 8.89302 6.66675 9.58337C6.66675 10.2737 7.22639 10.8334 7.91675 10.8334Z" fill="#A27070"/>
<path d="M12.0833 10.8334C12.7736 10.8334 13.3333 10.2737 13.3333 9.58337C13.3333 8.89302 12.7736 8.33337 12.0833 8.33337C11.3929 8.33337 10.8333 8.89302 10.8333 9.58337C10.8333 10.2737 11.3929 10.8334 12.0833 10.8334Z" fill="#A27070"/>
</g>
<defs>
<clipPath id="clip0_2295_13417">
<rect width="20" height="20" fill="white"/>
</clipPath>
</defs>
</svg>
