<svg width="34" height="34" viewBox="0 0 34 34" fill="none" xmlns="http://www.w3.org/2000/svg">
<g clip-path="url(#clip0_3790_9235)">
<path d="M26 0H8C3.58172 0 0 3.58172 0 8V26C0 30.4183 3.58172 34 8 34H26C30.4183 34 34 30.4183 34 26V8C34 3.58172 30.4183 0 26 0Z" fill="#FBF8F8" fill-opacity="0.2"/>
<path d="M26 0.5H8C3.85786 0.5 0.5 3.85786 0.5 8V26C0.5 30.1421 3.85786 33.5 8 33.5H26C30.1421 33.5 33.5 30.1421 33.5 26V8C33.5 3.85786 30.1421 0.5 26 0.5Z" stroke="#E3E7EB"/>
<path d="M13.4104 8.66603C13.5018 8.6655 13.5924 8.68302 13.677 8.71758C13.7616 8.75214 13.8386 8.80306 13.9035 8.86742L19.5771 14.541C19.9004 14.8636 20.157 15.2467 20.332 15.6686C20.5071 16.0904 20.5972 16.5427 20.5972 16.9994C20.5972 17.4561 20.5071 17.9083 20.332 18.3302C20.157 18.752 19.9004 19.1352 19.5771 19.4577L13.9035 25.1313C13.8387 25.1961 13.7618 25.2474 13.6772 25.2825C13.5926 25.3175 13.502 25.3355 13.4104 25.3355C13.3188 25.3355 13.2282 25.3175 13.1436 25.2825C13.059 25.2474 12.9821 25.1961 12.9174 25.1313C12.8526 25.0666 12.8012 24.9897 12.7662 24.9051C12.7312 24.8205 12.7131 24.7298 12.7131 24.6383C12.7131 24.5467 12.7312 24.456 12.7662 24.3714C12.8012 24.2868 12.8526 24.2099 12.9174 24.1452L18.591 18.4716C18.9811 18.081 19.2002 17.5515 19.2002 16.9994C19.2002 16.4473 18.9811 15.9178 18.591 15.5272L12.9174 9.85353C12.8523 9.78897 12.8006 9.71216 12.7653 9.62754C12.7301 9.54291 12.7119 9.45215 12.7119 9.36047C12.7119 9.2688 12.7301 9.17803 12.7653 9.09341C12.8006 9.00878 12.8523 8.93198 12.9174 8.86742C12.9822 8.80306 13.0592 8.75214 13.1438 8.71758C13.2284 8.68302 13.319 8.6655 13.4104 8.66603Z" fill="#FBF8F8"/>
</g>
<defs>
<clipPath id="clip0_3790_9235">
<rect width="34" height="34" fill="white"/>
</clipPath>
</defs>
</svg>
