<svg width="34" height="34" viewBox="0 0 34 34" fill="none" xmlns="http://www.w3.org/2000/svg">
<rect x="0.5" y="0.5" width="33" height="33" rx="7.5" fill="#FBF8F8" stroke="#EBE3E6"/>
<g clip-path="url(#clip0_2295_10963)">
<path d="M13.4099 8.66645C13.5013 8.66592 13.5919 8.68344 13.6765 8.718C13.7611 8.75256 13.8381 8.80348 13.903 8.86784L19.5766 14.5414C19.8999 14.864 20.1565 15.2471 20.3315 15.669C20.5066 16.0908 20.5967 16.5431 20.5967 16.9998C20.5967 17.4565 20.5066 17.9087 20.3315 18.3306C20.1565 18.7524 19.8999 19.1356 19.5766 19.4581L13.903 25.1317C13.8382 25.1965 13.7614 25.2478 13.6768 25.2829C13.5922 25.3179 13.5015 25.3359 13.4099 25.3359C13.3183 25.3359 13.2277 25.3179 13.1431 25.2829C13.0585 25.2478 12.9816 25.1965 12.9169 25.1317C12.8521 25.067 12.8008 24.9901 12.7657 24.9055C12.7307 24.8209 12.7126 24.7302 12.7126 24.6387C12.7126 24.5471 12.7307 24.4564 12.7657 24.3718C12.8008 24.2872 12.8521 24.2103 12.9169 24.1456L18.5905 18.472C18.9806 18.0814 19.1998 17.5519 19.1998 16.9998C19.1998 16.4477 18.9806 15.9182 18.5905 15.5276L12.9169 9.85395C12.8518 9.78939 12.8001 9.71258 12.7649 9.62796C12.7296 9.54333 12.7114 9.45257 12.7114 9.36089C12.7114 9.26922 12.7296 9.17845 12.7649 9.09383C12.8001 9.0092 12.8518 8.9324 12.9169 8.86784C12.9818 8.80348 13.0587 8.75256 13.1433 8.718C13.2279 8.68344 13.3185 8.66592 13.4099 8.66645Z" fill="#030303"/>
</g>
<defs>
<clipPath id="clip0_2295_10963">
<rect width="16.6667" height="16.6667" fill="white" transform="translate(25.3335 25.334) rotate(-180)"/>
</clipPath>
</defs>
</svg>
