<svg width="9" height="18" viewBox="0 0 9 18" fill="none" xmlns="http://www.w3.org/2000/svg">
<path d="M1.4109 0.666692C1.50229 0.666164 1.59289 0.683681 1.6775 0.71824C1.76211 0.752799 1.83906 0.80372 1.90395 0.868082L7.57756 6.54169C7.90092 6.86423 8.15746 7.24739 8.33251 7.66923C8.50755 8.09107 8.59766 8.5433 8.59766 9.00002C8.59766 9.45673 8.50755 9.90896 8.33251 10.3308C8.15746 10.7526 7.90092 11.1358 7.57756 11.4583L1.90395 17.132C1.8392 17.1967 1.76233 17.2481 1.67773 17.2831C1.59313 17.3181 1.50246 17.3362 1.41089 17.3362C1.31933 17.3362 1.22865 17.3181 1.14405 17.2831C1.05946 17.2481 0.982588 17.1967 0.917839 17.132C0.85309 17.0672 0.801728 16.9903 0.766686 16.9057C0.731644 16.8211 0.713609 16.7305 0.713609 16.6389C0.713609 16.5473 0.731644 16.4567 0.766686 16.3721C0.801728 16.2875 0.85309 16.2106 0.917839 16.1458L6.59145 10.4722C6.98159 10.0816 7.20073 9.5521 7.20073 9.00002C7.20073 8.44793 6.98159 7.91842 6.59145 7.5278L0.91784 1.85419C0.852751 1.78963 0.801087 1.71283 0.765831 1.6282C0.730575 1.54358 0.712424 1.45281 0.712424 1.36114C0.712424 1.26946 0.730575 1.17869 0.765831 1.09407C0.801088 1.00944 0.852751 0.932639 0.917841 0.868082C0.98273 0.80372 1.05968 0.752798 1.14429 0.71824C1.2289 0.683681 1.3195 0.666164 1.4109 0.666692Z" fill="#FBF8F8"/>
</svg>
