<svg width="34" height="34" viewBox="0 0 34 34" fill="none" xmlns="http://www.w3.org/2000/svg">
<g filter="url(#filter0_b_1784_13859)">
<rect width="34" height="34" rx="8" fill="#FBF8F8" fill-opacity="0.2"/>
<rect x="0.5" y="0.5" width="33" height="33" rx="7.5" stroke="#E3E7EB"/>
</g>
<g clip-path="url(#clip0_1784_13859)">
<path d="M13.4104 8.66645C13.5018 8.66592 13.5924 8.68344 13.677 8.718C13.7616 8.75256 13.8386 8.80348 13.9035 8.86784L19.5771 14.5414C19.9004 14.864 20.157 15.2471 20.332 15.669C20.5071 16.0908 20.5972 16.5431 20.5972 16.9998C20.5972 17.4565 20.5071 17.9087 20.332 18.3306C20.157 18.7524 19.9004 19.1356 19.5771 19.4581L13.9035 25.1317C13.8387 25.1965 13.7618 25.2478 13.6772 25.2829C13.5926 25.3179 13.502 25.3359 13.4104 25.3359C13.3188 25.3359 13.2282 25.3179 13.1436 25.2829C13.059 25.2478 12.9821 25.1965 12.9174 25.1317C12.8526 25.067 12.8012 24.9901 12.7662 24.9055C12.7312 24.8209 12.7131 24.7302 12.7131 24.6387C12.7131 24.5471 12.7312 24.4564 12.7662 24.3718C12.8012 24.2872 12.8526 24.2103 12.9174 24.1456L18.591 18.472C18.9811 18.0814 19.2002 17.5519 19.2002 16.9998C19.2002 16.4477 18.9811 15.9182 18.591 15.5276L12.9174 9.85395C12.8523 9.78939 12.8006 9.71258 12.7653 9.62796C12.7301 9.54333 12.7119 9.45257 12.7119 9.36089C12.7119 9.26922 12.7301 9.17845 12.7653 9.09383C12.8006 9.0092 12.8523 8.9324 12.9174 8.86784C12.9822 8.80348 13.0592 8.75256 13.1438 8.718C13.2284 8.68344 13.319 8.66592 13.4104 8.66645Z" fill="#FBF8F8"/>
</g>
<defs>
<filter id="filter0_b_1784_13859" x="-4" y="-4" width="42" height="42" filterUnits="userSpaceOnUse" color-interpolation-filters="sRGB">
<feFlood flood-opacity="0" result="BackgroundImageFix"/>
<feGaussianBlur in="BackgroundImageFix" stdDeviation="2"/>
<feComposite in2="SourceAlpha" operator="in" result="effect1_backgroundBlur_1784_13859"/>
<feBlend mode="normal" in="SourceGraphic" in2="effect1_backgroundBlur_1784_13859" result="shape"/>
</filter>
<clipPath id="clip0_1784_13859">
<rect width="16.6667" height="16.6667" fill="white" transform="translate(25.334 25.334) rotate(-180)"/>
</clipPath>
</defs>
</svg>
