<svg width="20" height="20" viewBox="0 0 20 20" fill="none" xmlns="http://www.w3.org/2000/svg">
<g clip-path="url(#clip0_1552_5862)">
<path d="M6.18665 17.5C6.5097 18.2428 7.04267 18.8751 7.72011 19.3193C8.39754 19.7634 9.18994 20 9.99998 20C10.81 20 11.6024 19.7634 12.2799 19.3193C12.9573 18.8751 13.4903 18.2428 13.8133 17.5H6.18665Z" fill="#374957"/>
<path d="M18.6601 10.4575L17.2134 5.68834C16.7501 4.02029 15.7429 2.55481 14.3516 1.52459C12.9604 0.49436 11.2648 -0.0415661 9.53418 0.00190092C7.80354 0.0453679 6.13702 0.665736 4.79923 1.76451C3.46143 2.86328 2.52903 4.37747 2.15008 6.06667L1.02675 10.6808C0.877446 11.294 0.869356 11.933 1.00309 12.5497C1.13683 13.1664 1.4089 13.7447 1.79877 14.2409C2.18864 14.7371 2.68612 15.1383 3.25368 15.4141C3.82124 15.69 4.44404 15.8333 5.07508 15.8333H14.6726C15.3232 15.8334 15.9648 15.681 16.5459 15.3885C17.1271 15.096 17.6317 14.6715 18.0193 14.149C18.4069 13.6264 18.6667 13.0203 18.778 12.3793C18.8893 11.7383 18.8489 11.0801 18.6601 10.4575V10.4575Z" fill="#374957"/>
</g>
<defs>
<clipPath id="clip0_1552_5862">
<rect width="20" height="20" fill="white"/>
</clipPath>
</defs>
</svg>
