<svg width="20" height="20" viewBox="0 0 20 20" fill="none" xmlns="http://www.w3.org/2000/svg">
<g clip-path="url(#clip0_1798_13413)">
<path d="M18.5 1.80287C18.0249 1.40651 17.4676 1.12091 16.8684 0.966823C16.2692 0.812734 15.6432 0.79402 15.0358 0.91204L13.5658 1.27204C12.7987 1.41262 12.1051 1.81774 11.6059 2.41689C11.1066 3.01605 10.8332 3.7713 10.8333 4.55121V17.4404C10.2807 17.5212 9.71928 17.5212 9.16667 17.4404V4.55121C9.16943 3.77849 8.90237 3.02905 8.41157 2.43221C7.92078 1.83537 7.23703 1.42858 6.47833 1.28204L4.91667 0.90204C4.31596 0.792118 3.69844 0.815582 3.10781 0.97077C2.51718 1.12596 1.96789 1.40908 1.4988 1.80009C1.02972 2.19109 0.652322 2.68043 0.393318 3.23346C0.134315 3.78649 4.0677e-05 4.3897 0 5.00037L0 13.9945C4.78799e-05 14.9702 0.342481 15.9149 0.967611 16.664C1.59274 17.4131 2.46092 17.9191 3.42083 18.0937L8.65917 19.0462C9.5458 19.2073 10.4542 19.2073 11.3408 19.0462L16.5833 18.0937C17.5425 17.9182 18.4097 17.4119 19.034 16.6629C19.6583 15.9138 20.0001 14.9696 20 13.9945V5.00037C20.0004 4.38991 19.8662 3.78687 19.6069 3.2342C19.3476 2.68153 18.9697 2.19282 18.5 1.80287V1.80287Z" fill="#A27070"/>
</g>
<defs>
<clipPath id="clip0_1798_13413">
<rect width="20" height="20" fill="white"/>
</clipPath>
</defs>
</svg>
