<svg width="20" height="20" viewBox="0 0 20 20" fill="none" xmlns="http://www.w3.org/2000/svg">
<g clip-path="url(#clip0_1552_5819)">
<path d="M8.33333 5V0H11.6667V5C11.6667 5.44203 11.4911 5.86595 11.1785 6.17851C10.866 6.49107 10.442 6.66667 10 6.66667C9.55797 6.66667 9.13405 6.49107 8.82149 6.17851C8.50893 5.86595 8.33333 5.44203 8.33333 5ZM13.3333 4.16667H20C19.9987 3.062 19.5593 2.00296 18.7782 1.22185C17.997 0.440735 16.938 0.00132321 15.8333 0L13.3333 0V4.16667ZM6.66667 0H4.16667C3.062 0.00132321 2.00296 0.440735 1.22185 1.22185C0.440735 2.00296 0.00132321 3.062 0 4.16667H6.66667V0ZM20 5.83333V15.8333C19.9987 16.938 19.5593 17.997 18.7782 18.7782C17.997 19.5593 16.938 19.9987 15.8333 20H4.16667C3.062 19.9987 2.00296 19.5593 1.22185 18.7782C0.440735 17.997 0.00132321 16.938 0 15.8333L0 5.83333H6.785C6.96689 6.54799 7.38171 7.18166 7.96393 7.63426C8.54615 8.08685 9.26256 8.33255 10 8.33255C10.7374 8.33255 11.4539 8.08685 12.0361 7.63426C12.6183 7.18166 13.0331 6.54799 13.215 5.83333H20ZM16.6667 15.8333C16.6667 15.6123 16.5789 15.4004 16.4226 15.2441C16.2663 15.0878 16.0543 15 15.8333 15H13.3333C13.1123 15 12.9004 15.0878 12.7441 15.2441C12.5878 15.4004 12.5 15.6123 12.5 15.8333C12.5 16.0543 12.5878 16.2663 12.7441 16.4226C12.9004 16.5789 13.1123 16.6667 13.3333 16.6667H15.8333C16.0543 16.6667 16.2663 16.5789 16.4226 16.4226C16.5789 16.2663 16.6667 16.0543 16.6667 15.8333Z" fill="#374957"/>
</g>
<defs>
<clipPath id="clip0_1552_5819">
<rect width="20" height="20" fill="white"/>
</clipPath>
</defs>
</svg>
