<svg width="20" height="20" viewBox="0 0 20 20" fill="none" xmlns="http://www.w3.org/2000/svg">
<g clip-path="url(#clip0_1552_5826)">
<path d="M19.945 4.31585C19.7603 3.32987 19.2343 2.44042 18.4593 1.8036C17.6843 1.16677 16.7097 0.823259 15.7066 0.833346H5.20163C2.37496 0.833346 0.401631 2.16668 0.0549646 4.31585C-0.0562492 4.9953 0.00302011 5.69174 0.227451 6.34264C0.451881 6.99353 0.834447 7.5785 1.3408 8.04501C1.43705 8.12716 1.51557 8.22804 1.57159 8.3415C1.62761 8.45497 1.65994 8.57865 1.66663 8.70501V15C1.66795 16.1047 2.10737 17.1637 2.88848 17.9448C3.6696 18.7259 4.72864 19.1654 5.8333 19.1667H14.1666C15.2713 19.1654 16.3303 18.7259 17.1114 17.9448C17.8926 17.1637 18.332 16.1047 18.3333 15V8.70501C18.3398 8.57922 18.3718 8.45608 18.4274 8.34305C18.483 8.23002 18.561 8.12947 18.6566 8.04751C19.1638 7.58095 19.547 6.99568 19.7719 6.34431C19.9967 5.69294 20.0562 4.9959 19.945 4.31585ZM6.66663 15C6.44562 15 6.23366 14.9122 6.07738 14.7559C5.9211 14.5997 5.8333 14.3877 5.8333 14.1667C5.8333 13.9457 5.9211 13.7337 6.07738 13.5774C6.23366 13.4211 6.44562 13.3333 6.66663 13.3333C6.88765 13.3333 7.09961 13.4211 7.25589 13.5774C7.41217 13.7337 7.49997 13.9457 7.49997 14.1667C7.49997 14.3877 7.41217 14.5997 7.25589 14.7559C7.09961 14.9122 6.88765 15 6.66663 15V15ZM6.66663 11.6667C6.44562 11.6667 6.23366 11.5789 6.07738 11.4226C5.9211 11.2663 5.8333 11.0544 5.8333 10.8333C5.8333 10.6123 5.9211 10.4004 6.07738 10.2441C6.23366 10.0878 6.44562 10 6.66663 10C6.88765 10 7.09961 10.0878 7.25589 10.2441C7.41217 10.4004 7.49997 10.6123 7.49997 10.8333C7.49997 11.0544 7.41217 11.2663 7.25589 11.4226C7.09961 11.5789 6.88765 11.6667 6.66663 11.6667V11.6667ZM9.99997 15C9.77895 15 9.56699 14.9122 9.41071 14.7559C9.25443 14.5997 9.16663 14.3877 9.16663 14.1667C9.16663 13.9457 9.25443 13.7337 9.41071 13.5774C9.56699 13.4211 9.77895 13.3333 9.99997 13.3333C10.221 13.3333 10.4329 13.4211 10.5892 13.5774C10.7455 13.7337 10.8333 13.9457 10.8333 14.1667C10.8333 14.3877 10.7455 14.5997 10.5892 14.7559C10.4329 14.9122 10.221 15 9.99997 15Z" fill="#374957"/>
</g>
<defs>
<clipPath id="clip0_1552_5826">
<rect width="20" height="20" fill="white"/>
</clipPath>
</defs>
</svg>
