<svg width="20" height="20" viewBox="0 0 20 20" fill="none" xmlns="http://www.w3.org/2000/svg">
<g clip-path="url(#clip0_1552_5752)">
<path d="M0 7.49998V15C0.00132321 16.1046 0.440735 17.1637 1.22185 17.9448C2.00296 18.7259 3.062 19.1653 4.16667 19.1666H15.8333C16.938 19.1653 17.997 18.7259 18.7782 17.9448C19.5593 17.1637 19.9987 16.1046 20 15V7.49998H0ZM11.6667 15.8333H5C4.77899 15.8333 4.56702 15.7455 4.41074 15.5892C4.25446 15.433 4.16667 15.221 4.16667 15C4.16667 14.779 4.25446 14.567 4.41074 14.4107C4.56702 14.2544 4.77899 14.1666 5 14.1666H11.6667C11.8877 14.1666 12.0996 14.2544 12.2559 14.4107C12.4122 14.567 12.5 14.779 12.5 15C12.5 15.221 12.4122 15.433 12.2559 15.5892C12.0996 15.7455 11.8877 15.8333 11.6667 15.8333ZM15 12.5H5C4.77899 12.5 4.56702 12.4122 4.41074 12.2559C4.25446 12.0996 4.16667 11.8877 4.16667 11.6666C4.16667 11.4456 4.25446 11.2337 4.41074 11.0774C4.56702 10.9211 4.77899 10.8333 5 10.8333H15C15.221 10.8333 15.433 10.9211 15.5893 11.0774C15.7455 11.2337 15.8333 11.4456 15.8333 11.6666C15.8333 11.8877 15.7455 12.0996 15.5893 12.2559C15.433 12.4122 15.221 12.5 15 12.5ZM20 5.83331V4.99998C19.9987 3.89532 19.5593 2.83628 18.7782 2.05516C17.997 1.27405 16.938 0.834636 15.8333 0.833313H4.16667C3.062 0.834636 2.00296 1.27405 1.22185 2.05516C0.440735 2.83628 0.00132321 3.89532 0 4.99998L0 5.83331H20ZM8.33333 2.49998C8.49815 2.49998 8.65927 2.54885 8.79631 2.64042C8.93335 2.73199 9.04016 2.86214 9.10323 3.01441C9.16631 3.16668 9.18281 3.33424 9.15065 3.49589C9.1185 3.65754 9.03913 3.80602 8.92259 3.92257C8.80604 4.03911 8.65756 4.11848 8.49591 4.15063C8.33426 4.18279 8.1667 4.16629 8.01443 4.10321C7.86216 4.04014 7.73201 3.93333 7.64044 3.79629C7.54887 3.65925 7.5 3.49813 7.5 3.33331C7.5 3.1123 7.5878 2.90034 7.74408 2.74406C7.90036 2.58778 8.11232 2.49998 8.33333 2.49998ZM5.83333 2.49998C5.99815 2.49998 6.15927 2.54885 6.29631 2.64042C6.43335 2.73199 6.54016 2.86214 6.60323 3.01441C6.66631 3.16668 6.68281 3.33424 6.65065 3.49589C6.6185 3.65754 6.53913 3.80602 6.42259 3.92257C6.30605 4.03911 6.15756 4.11848 5.99591 4.15063C5.83426 4.18279 5.6667 4.16629 5.51443 4.10321C5.36216 4.04014 5.23201 3.93333 5.14044 3.79629C5.04887 3.65925 5 3.49813 5 3.33331C5 3.1123 5.0878 2.90034 5.24408 2.74406C5.40036 2.58778 5.61232 2.49998 5.83333 2.49998ZM3.33333 2.49998C3.49815 2.49998 3.65927 2.54885 3.79631 2.64042C3.93335 2.73199 4.04016 2.86214 4.10323 3.01441C4.16631 3.16668 4.18281 3.33424 4.15065 3.49589C4.1185 3.65754 4.03913 3.80602 3.92259 3.92257C3.80605 4.03911 3.65756 4.11848 3.49591 4.15063C3.33426 4.18279 3.1667 4.16629 3.01443 4.10321C2.86216 4.04014 2.73201 3.93333 2.64044 3.79629C2.54887 3.65925 2.5 3.49813 2.5 3.33331C2.5 3.1123 2.5878 2.90034 2.74408 2.74406C2.90036 2.58778 3.11232 2.49998 3.33333 2.49998Z" fill="#374957"/>
</g>
<defs>
<clipPath id="clip0_1552_5752">
<rect width="20" height="20" fill="white"/>
</clipPath>
</defs>
</svg>
