<svg width="15" height="15" viewBox="0 0 15 15" fill="none" xmlns="http://www.w3.org/2000/svg">
<path d="M4.37708 1.9923C5.44592 1.27812 6.70253 0.896903 7.98802 0.896851C9.7114 0.898787 11.3636 1.58425 12.5823 2.80287C13.8009 4.02156 14.4864 5.67391 14.4883 7.39739C14.4882 8.68278 14.107 9.93929 13.3928 11.0081C12.6786 12.077 11.6634 12.9101 10.4757 13.4021C9.288 13.894 7.98107 14.0228 6.7202 13.772C5.45932 13.5211 4.30113 12.9021 3.39209 11.993C2.48305 11.084 1.86398 9.92581 1.61318 8.66494C1.36238 7.40406 1.4911 6.09713 1.98307 4.90941C2.47504 3.72169 3.30816 2.70653 4.37708 1.9923Z" stroke="#A9A9A9"/>
</svg>
