<svg width="15" height="15" viewBox="0 0 15 15" fill="none" xmlns="http://www.w3.org/2000/svg">
<path d="M7.49512 0.401367C6.11065 0.401367 4.75727 0.81191 3.60613 1.58108C2.45498 2.35025 1.55778 3.4435 1.02796 4.72258C0.49815 6.00167 0.359527 7.40913 0.629623 8.767C0.89972 10.1249 1.56641 11.3721 2.54537 12.3511C3.52434 13.3301 4.77162 13.9968 6.12949 14.2669C7.48735 14.537 8.89482 14.3983 10.1739 13.8685C11.453 13.3387 12.5462 12.4415 13.3154 11.2904C14.0846 10.1392 14.4951 8.78584 14.4951 7.40137C14.4931 5.54547 13.755 3.76616 12.4426 2.45384C11.1303 1.14152 9.35102 0.403374 7.49512 0.401367Z" fill="#A27070"/>
<path d="M10.1845 6.64182L7.69246 9.13382C7.59048 9.23648 7.46913 9.31786 7.33544 9.37324C7.20176 9.42861 7.0584 9.45688 6.91371 9.4564H6.89446C6.74681 9.45414 6.60115 9.42196 6.4663 9.3618C6.33144 9.30164 6.21019 9.21476 6.10987 9.1064L4.76471 7.7064C4.70645 7.65235 4.65985 7.58697 4.62777 7.51427C4.59569 7.44156 4.5788 7.36307 4.57814 7.2836C4.57749 7.20413 4.59307 7.12537 4.62395 7.05215C4.65482 6.97892 4.70033 6.91278 4.75769 6.85777C4.81504 6.80276 4.88303 6.76006 4.95748 6.73227C5.03194 6.70448 5.11128 6.6922 5.19065 6.69617C5.27002 6.70015 5.34774 6.7203 5.41904 6.75539C5.49034 6.79048 5.55372 6.83977 5.60529 6.90024L6.91429 8.26524L9.35729 5.81524C9.46731 5.70898 9.61466 5.65018 9.7676 5.65151C9.92055 5.65284 10.0669 5.71419 10.175 5.82234C10.2832 5.9305 10.3445 6.07681 10.3458 6.22975C10.3472 6.3827 10.2884 6.53005 10.1821 6.64007L10.1845 6.64182Z" fill="white"/>
</svg>
