<svg width="1403" height="1300" viewBox="0 0 1403 1300" fill="none" xmlns="http://www.w3.org/2000/svg">
<rect width="1403" height="1300" fill="#FBF8F8"/>
<g opacity="0.3" clip-path="url(#clip0_3794_10334)">
<path d="M835.811 680.877C820.156 700.218 799.856 715.916 776.519 726.728C753.182 737.54 727.449 743.169 701.357 743.169C675.265 743.169 649.532 737.54 626.195 726.728C602.858 715.916 582.558 700.218 566.903 680.877C553.727 697.333 537.148 711.194 518.131 721.652C499.114 732.109 478.04 738.954 456.138 741.786C434.237 744.618 411.946 743.382 390.565 738.149C369.185 732.916 349.143 723.791 331.608 711.306V867.752C331.661 909.038 349.386 948.62 380.893 977.814C412.4 1007.01 455.118 1023.43 499.676 1023.48H903.038C947.596 1023.43 990.314 1007.01 1021.82 977.814C1053.33 948.62 1071.05 909.038 1071.11 867.752V711.213C1053.58 723.703 1033.54 732.834 1012.16 738.074C990.787 743.315 968.498 744.559 946.597 741.736C924.696 738.912 903.621 732.076 884.6 721.628C865.58 711.179 848.994 697.326 835.811 680.877V680.877Z" fill="#A27070"/>
<path d="M1027.41 373.531C1020.9 345.782 1004.3 320.95 980.383 303.196C956.467 285.441 926.691 275.844 896.047 276.013H869.425V369.45C869.425 377.711 865.883 385.633 859.58 391.474C853.276 397.315 844.726 400.596 835.811 400.596C826.896 400.596 818.347 397.315 812.043 391.474C805.739 385.633 802.198 377.711 802.198 369.45V276.013H600.516V369.45C600.516 377.711 596.975 385.633 590.671 391.474C584.367 397.315 575.818 400.596 566.903 400.596C557.988 400.596 549.438 397.315 543.134 391.474C536.831 385.633 533.289 377.711 533.289 369.45V276.013H506.667C476.018 275.846 446.238 285.447 422.322 303.208C398.405 320.968 381.805 345.808 375.306 373.562L332.348 553.211L331.608 588.094C331.652 600.365 334.304 612.507 339.413 623.827C344.521 635.148 351.986 645.426 361.381 654.073C380.356 671.538 406.04 681.303 432.785 681.22C446.027 681.179 459.132 678.722 471.349 673.989C483.567 669.255 494.659 662.338 503.991 653.633C513.324 644.927 520.715 634.604 525.742 623.252C530.769 611.9 533.333 599.742 533.289 587.471C533.289 579.211 536.831 571.289 543.134 565.448C549.438 559.607 557.988 556.325 566.903 556.325C575.818 556.325 584.367 559.607 590.671 565.448C596.975 571.289 600.516 579.211 600.516 587.471C600.516 612.252 611.141 636.019 630.052 653.542C648.963 671.064 674.612 680.909 701.357 680.909C728.102 680.909 753.751 671.064 772.662 653.542C791.573 636.019 802.198 612.252 802.198 587.471C802.198 579.211 805.739 571.289 812.043 565.448C818.347 559.607 826.896 556.325 835.811 556.325C844.726 556.325 853.276 559.607 859.58 565.448C865.883 571.289 869.425 579.211 869.425 587.471C869.425 612.252 880.049 636.019 898.96 653.542C917.871 671.064 943.521 680.909 970.265 680.909C997.01 680.909 1022.66 671.064 1041.57 653.542C1060.48 636.019 1071.11 612.252 1071.11 587.471V559.658L1027.41 373.531Z" fill="#A27070"/>
</g>
<defs>
<clipPath id="clip0_3794_10334">
<rect width="806.725" height="747.5" fill="white" transform="translate(298 276)"/>
</clipPath>
</defs>
</svg>
