<svg width="20" height="20" viewBox="0 0 20 20" fill="none" xmlns="http://www.w3.org/2000/svg">
<g clip-path="url(#clip0_1552_5805)">
<path d="M14.7674 2.5L13.5899 0.973333C13.3553 0.671505 13.0551 0.427014 12.7121 0.258378C12.369 0.0897429 11.9921 0.00138587 11.6099 0L8.38986 0C8.00761 0.00138587 7.63068 0.0897429 7.28764 0.258378C6.94459 0.427014 6.64442 0.671505 6.40986 0.973333L5.23236 2.5H14.7674Z" fill="#374957"/>
<path d="M10.0001 15C11.8411 15 13.3335 13.5076 13.3335 11.6667C13.3335 9.82576 11.8411 8.33337 10.0001 8.33337C8.15919 8.33337 6.66681 9.82576 6.66681 11.6667C6.66681 13.5076 8.15919 15 10.0001 15Z" fill="#374957"/>
<path d="M15.8333 4.16663H4.16667C3.062 4.16795 2.00296 4.60736 1.22185 5.38847C0.440735 6.16959 0.00132321 7.22863 0 8.33329L0 15.8333C0.00132321 16.9379 0.440735 17.997 1.22185 18.7781C2.00296 19.5592 3.062 19.9986 4.16667 19.9999H15.8333C16.938 19.9986 17.997 19.5592 18.7782 18.7781C19.5593 17.997 19.9987 16.9379 20 15.8333V8.33329C19.9987 7.22863 19.5593 6.16959 18.7782 5.38847C17.997 4.60736 16.938 4.16795 15.8333 4.16663V4.16663ZM10 16.6666C9.01109 16.6666 8.04439 16.3734 7.22215 15.824C6.3999 15.2745 5.75904 14.4937 5.3806 13.58C5.00216 12.6664 4.90315 11.6611 5.09607 10.6912C5.289 9.72126 5.7652 8.83035 6.46447 8.13109C7.16373 7.43182 8.05464 6.95562 9.02455 6.7627C9.99445 6.56977 10.9998 6.66879 11.9134 7.04722C12.827 7.42566 13.6079 8.06652 14.1573 8.88877C14.7068 9.71101 15 10.6777 15 11.6666C14.9987 12.9923 14.4715 14.2633 13.5341 15.2007C12.5967 16.1381 11.3257 16.6653 10 16.6666V16.6666Z" fill="#374957"/>
</g>
<defs>
<clipPath id="clip0_1552_5805">
<rect width="20" height="20" fill="white"/>
</clipPath>
</defs>
</svg>
