<svg width="20" height="20" viewBox="0 0 20 20" fill="none" xmlns="http://www.w3.org/2000/svg">
<g clip-path="url(#clip0_1552_5518)">
<path d="M15 10C14.122 10.001 13.2592 9.77056 12.4987 9.33183C11.7381 8.89311 11.1067 8.26163 10.668 7.50106C10.2294 6.74049 9.99894 5.87772 10 4.99971C10.0011 4.1217 10.2336 3.25949 10.6742 2.5H3.535L3.5 2.20667C3.42818 1.59883 3.13588 1.03846 2.67849 0.631753C2.2211 0.225045 1.6304 0.000260697 1.01833 0L0.833333 0C0.61232 0 0.400358 0.0877974 0.244078 0.244078C0.0877974 0.400358 0 0.61232 0 0.833333C0 1.05435 0.0877974 1.26631 0.244078 1.42259C0.400358 1.57887 0.61232 1.66667 0.833333 1.66667H1.01833C1.22244 1.66669 1.41945 1.74163 1.57198 1.87726C1.72451 2.0129 1.82195 2.19979 1.84583 2.4025L2.9925 12.1525C3.11154 13.1665 3.59873 14.1015 4.36159 14.78C5.12445 15.4585 6.10988 15.8334 7.13083 15.8333H15.8333C16.0543 15.8333 16.2663 15.7455 16.4226 15.5893C16.5789 15.433 16.6667 15.221 16.6667 15C16.6667 14.779 16.5789 14.567 16.4226 14.4107C16.2663 14.2545 16.0543 14.1667 15.8333 14.1667H7.13083C6.6149 14.1654 6.11201 14.0045 5.69112 13.7061C5.27023 13.4077 4.95198 12.9864 4.78 12.5H14.7142C15.6911 12.5001 16.6369 12.1569 17.3865 11.5304C18.1361 10.9039 18.6417 10.0339 18.815 9.0725L19.0133 7.97333C18.5498 8.6018 17.9451 9.11262 17.248 9.46463C16.5509 9.81665 15.7809 10 15 10V10Z" fill="#374957"/>
<path d="M5.83329 20.0005C6.75376 20.0005 7.49995 19.2543 7.49995 18.3338C7.49995 17.4134 6.75376 16.6672 5.83329 16.6672C4.91282 16.6672 4.16663 17.4134 4.16663 18.3338C4.16663 19.2543 4.91282 20.0005 5.83329 20.0005Z" fill="#374957"/>
<path d="M14.1667 20.0005C15.0871 20.0005 15.8333 19.2543 15.8333 18.3338C15.8333 17.4134 15.0871 16.6672 14.1667 16.6672C13.2462 16.6672 12.5 17.4134 12.5 18.3338C12.5 19.2543 13.2462 20.0005 14.1667 20.0005Z" fill="#374957"/>
<path d="M13.1109 7.4548C13.2542 7.60959 13.4274 7.73371 13.6201 7.81965C13.8127 7.90559 14.0208 7.95157 14.2317 7.9548H14.2592C14.466 7.95548 14.6707 7.91509 14.8617 7.83598C15.0527 7.75688 15.2261 7.64062 15.3717 7.49396L18.9317 3.93396C19.0888 3.77727 19.1771 3.5646 19.1773 3.34276C19.1776 3.12092 19.0897 2.90808 18.933 2.75105C18.7763 2.59402 18.5636 2.50567 18.3418 2.50543C18.1199 2.5052 17.9071 2.5931 17.7501 2.7498L14.2609 6.2448L13.2326 5.14146C13.0816 4.97979 12.8726 4.88471 12.6516 4.87713C12.4305 4.86955 12.2155 4.95009 12.0538 5.10105C11.8922 5.252 11.7971 5.46099 11.7895 5.68205C11.7819 5.90311 11.8625 6.11813 12.0134 6.2798L13.1109 7.4548Z" fill="#374957"/>
</g>
<defs>
<clipPath id="clip0_1552_5518">
<rect width="20" height="20" fill="white"/>
</clipPath>
</defs>
</svg>
