<svg width="20" height="20" viewBox="0 0 20 20" fill="none" xmlns="http://www.w3.org/2000/svg">
<g clip-path="url(#clip0_1552_5512)">
<path d="M15 10C14.122 10.001 13.2592 9.77056 12.4987 9.33183C11.7381 8.89311 11.1067 8.26163 10.668 7.50106C10.2294 6.74049 9.99894 5.87772 10 4.99971C10.0011 4.1217 10.2336 3.25949 10.6742 2.5H3.535L3.5 2.20667C3.42818 1.59883 3.13588 1.03846 2.67849 0.631753C2.2211 0.225045 1.6304 0.000260697 1.01833 0L0.833333 0C0.61232 0 0.400358 0.0877974 0.244078 0.244078C0.0877974 0.400358 0 0.61232 0 0.833333C0 1.05435 0.0877974 1.26631 0.244078 1.42259C0.400358 1.57887 0.61232 1.66667 0.833333 1.66667H1.01833C1.22244 1.66669 1.41945 1.74163 1.57198 1.87726C1.72451 2.0129 1.82195 2.19979 1.84583 2.4025L2.9925 12.1525C3.11154 13.1665 3.59873 14.1015 4.36159 14.78C5.12445 15.4585 6.10988 15.8334 7.13083 15.8333H15.8333C16.0543 15.8333 16.2663 15.7455 16.4226 15.5893C16.5789 15.433 16.6667 15.221 16.6667 15C16.6667 14.779 16.5789 14.567 16.4226 14.4107C16.2663 14.2545 16.0543 14.1667 15.8333 14.1667H7.13083C6.6149 14.1654 6.11201 14.0045 5.69112 13.7061C5.27023 13.4077 4.95198 12.9864 4.78 12.5H14.7142C15.6911 12.5001 16.6369 12.1569 17.3865 11.5304C18.1361 10.9039 18.6417 10.0339 18.815 9.0725L19.0133 7.97333C18.5498 8.6018 17.9451 9.11262 17.248 9.46463C16.5509 9.81665 15.7809 10 15 10V10Z" fill="#374957"/>
<path d="M5.83335 20.0005C6.75382 20.0005 7.50001 19.2543 7.50001 18.3338C7.50001 17.4134 6.75382 16.6672 5.83335 16.6672C4.91288 16.6672 4.16669 17.4134 4.16669 18.3338C4.16669 19.2543 4.91288 20.0005 5.83335 20.0005Z" fill="#374957"/>
<path d="M14.1667 20.0005C15.0871 20.0005 15.8333 19.2543 15.8333 18.3338C15.8333 17.4134 15.0871 16.6672 14.1667 16.6672C13.2462 16.6672 12.5 17.4134 12.5 18.3338C12.5 19.2543 13.2462 20.0005 14.1667 20.0005Z" fill="#374957"/>
<path d="M12.4999 5.83384H14.1666V7.50051C14.1666 7.72152 14.2544 7.93348 14.4106 8.08976C14.5669 8.24604 14.7789 8.33384 14.9999 8.33384C15.2209 8.33384 15.4329 8.24604 15.5891 8.08976C15.7454 7.93348 15.8332 7.72152 15.8332 7.50051V5.83384H17.4999C17.7209 5.83384 17.9329 5.74604 18.0891 5.58976C18.2454 5.43348 18.3332 5.22152 18.3332 5.00051C18.3332 4.77949 18.2454 4.56753 18.0891 4.41125C17.9329 4.25497 17.7209 4.16718 17.4999 4.16718H15.8332V2.50051C15.8332 2.27949 15.7454 2.06753 15.5891 1.91125C15.4329 1.75497 15.2209 1.66718 14.9999 1.66718C14.7789 1.66718 14.5669 1.75497 14.4106 1.91125C14.2544 2.06753 14.1666 2.27949 14.1666 2.50051V4.16718H12.4999C12.2789 4.16718 12.0669 4.25497 11.9106 4.41125C11.7544 4.56753 11.6666 4.77949 11.6666 5.00051C11.6666 5.22152 11.7544 5.43348 11.9106 5.58976C12.0669 5.74604 12.2789 5.83384 12.4999 5.83384V5.83384Z" fill="#374957"/>
</g>
<defs>
<clipPath id="clip0_1552_5512">
<rect width="20" height="20" fill="white"/>
</clipPath>
</defs>
</svg>
