<svg width="20" height="20" viewBox="0 0 20 20" fill="none" xmlns="http://www.w3.org/2000/svg">
<circle cx="10" cy="10" r="10" fill="#BEC08C"/>
<path d="M7.11729 13.3864L7.11731 13.3864C7.42673 13.6958 7.84634 13.8695 8.28386 13.8695C8.72138 13.8695 9.14099 13.6958 9.45041 13.3864L9.45042 13.3864L15.8834 6.95342L15.8834 6.95344L15.8852 6.95156C16.0037 6.82897 16.0692 6.66478 16.0677 6.49435C16.0662 6.32392 15.9978 6.1609 15.8773 6.04038C15.7568 5.91987 15.5938 5.85151 15.4234 5.85002C15.2529 5.84854 15.0887 5.91406 14.9661 6.03246L14.9661 6.03245L14.9643 6.03429L8.53131 12.4673C8.5313 12.4673 8.5313 12.4673 8.53129 12.4673C8.46566 12.5329 8.37666 12.5697 8.28386 12.5697C8.19106 12.5697 8.10206 12.5329 8.03642 12.4673C8.03642 12.4673 8.03641 12.4673 8.03641 12.4673L5.95342 10.3843L5.95344 10.3843L5.95156 10.3825C5.82897 10.2641 5.66478 10.1985 5.49435 10.2C5.32392 10.2015 5.1609 10.2699 5.04038 10.3904C4.91987 10.5109 4.85151 10.6739 4.85002 10.8444C4.84854 11.0148 4.91406 11.179 5.03246 11.3016L5.14036 11.1974L5.03429 11.3034L7.11729 13.3864Z" fill="white" stroke="white" stroke-width="0.3"/>
</svg>
