<svg width="7" height="14" viewBox="0 0 7 14" fill="none" xmlns="http://www.w3.org/2000/svg">
<path d="M6.12543 4.93748L2.30377 1.11582C2.06928 0.881432 1.75128 0.7498 1.41973 0.749878C1.08818 0.749956 0.770245 0.881738 0.53586 1.11623C0.301476 1.35073 0.169844 1.66873 0.169922 2.00028C0.17 2.33183 0.301782 2.64977 0.536278 2.88415L4.35794 6.70498C4.39674 6.74369 4.42753 6.78967 4.44853 6.84029C4.46954 6.89091 4.48035 6.94518 4.48035 6.99998C4.48035 7.05479 4.46954 7.10906 4.44853 7.15968C4.42753 7.2103 4.39674 7.25628 4.35794 7.29498L0.536278 11.1158C0.301782 11.3502 0.17 11.6681 0.169922 11.9997C0.169844 12.3312 0.301476 12.6492 0.53586 12.8837C0.770245 13.1182 1.08818 13.25 1.41973 13.2501C1.75128 13.2502 2.06928 13.1185 2.30377 12.8842L6.12543 9.06248C6.67146 8.51495 6.97809 7.77325 6.97809 6.99998C6.97809 6.22672 6.67146 5.48501 6.12543 4.93748V4.93748Z" fill="#A27070"/>
</svg>
