<svg width="4" height="8" viewBox="0 0 4 8" fill="none" xmlns="http://www.w3.org/2000/svg">
<path d="M0.325866 8C0.233537 8 0.154786 7.93838 0.0896131 7.81513C0.029871 7.68067 0 7.51821 0 7.32773C0 7.19328 0.0190088 7.07003 0.0570265 6.95798C0.100475 6.83473 0.154786 6.7451 0.219959 6.68908L3.15275 4L0.219959 1.31092C0.154786 1.2549 0.100475 1.17087 0.0570265 1.05882C0.0190088 0.935575 0 0.806723 0 0.672269C0 0.481793 0.029871 0.32493 0.0896131 0.201681C0.154786 0.067227 0.233537 0 0.325866 0C0.374745 0 0.418194 0.0168068 0.456212 0.0504205L3.70672 3.05882C3.79905 3.14846 3.86965 3.27171 3.91853 3.42857C3.97284 3.57423 4 3.7423 4 3.93277V4.06723C4 4.2577 3.97284 4.43137 3.91853 4.58824C3.86965 4.73389 3.79905 4.85154 3.70672 4.94118L0.456212 7.94958C0.418194 7.98319 0.374745 8 0.325866 8Z" fill="#14080E"/>
</svg>
