<svg width="20" height="20" viewBox="0 0 20 20" fill="none" xmlns="http://www.w3.org/2000/svg">
<g clip-path="url(#clip0_1552_5685)">
<path d="M16.3959 2.29849C15.3401 1.41987 14.1137 0.769461 12.7941 0.388243C11.4745 0.00702382 10.0902 -0.0967387 8.72844 0.0834934C6.20932 0.410758 3.90917 1.68447 2.29504 3.646C0.680902 5.60753 -0.126227 8.10984 0.0375408 10.6448C0.201308 13.1798 1.32369 15.5575 3.1768 17.295C5.02991 19.0326 7.47482 19.9997 10.0151 20.0002H15.8334C16.9381 19.9988 17.9971 19.5594 18.7783 18.7783C19.5594 17.9972 19.9988 16.9382 20.0001 15.8335V9.42433V9.37183C19.9119 8.0097 19.5468 6.67987 18.9271 5.46367C18.3074 4.24747 17.4461 3.17046 16.3959 2.29849V2.29849ZM6.66677 5.83349H10.0001C10.2211 5.83349 10.4331 5.92129 10.5894 6.07757C10.7456 6.23385 10.8334 6.44581 10.8334 6.66683C10.8334 6.88784 10.7456 7.0998 10.5894 7.25608C10.4331 7.41236 10.2211 7.50016 10.0001 7.50016H6.66677C6.44576 7.50016 6.2338 7.41236 6.07751 7.25608C5.92123 7.0998 5.83344 6.88784 5.83344 6.66683C5.83344 6.44581 5.92123 6.23385 6.07751 6.07757C6.2338 5.92129 6.44576 5.83349 6.66677 5.83349V5.83349ZM13.3334 14.1668H6.66677C6.44576 14.1668 6.2338 14.079 6.07751 13.9228C5.92123 13.7665 5.83344 13.5545 5.83344 13.3335C5.83344 13.1125 5.92123 12.9005 6.07751 12.7442C6.2338 12.588 6.44576 12.5002 6.66677 12.5002H13.3334C13.5545 12.5002 13.7664 12.588 13.9227 12.7442C14.079 12.9005 14.1668 13.1125 14.1668 13.3335C14.1668 13.5545 14.079 13.7665 13.9227 13.9228C13.7664 14.079 13.5545 14.1668 13.3334 14.1668ZM13.3334 10.8335H6.66677C6.44576 10.8335 6.2338 10.7457 6.07751 10.5894C5.92123 10.4331 5.83344 10.2212 5.83344 10.0002C5.83344 9.77915 5.92123 9.56719 6.07751 9.4109C6.2338 9.25462 6.44576 9.16683 6.66677 9.16683H13.3334C13.5545 9.16683 13.7664 9.25462 13.9227 9.4109C14.079 9.56719 14.1668 9.77915 14.1668 10.0002C14.1668 10.2212 14.079 10.4331 13.9227 10.5894C13.7664 10.7457 13.5545 10.8335 13.3334 10.8335Z" fill="#374957"/>
</g>
<defs>
<clipPath id="clip0_1552_5685">
<rect width="20" height="20" fill="white"/>
</clipPath>
</defs>
</svg>
