<svg width="20" height="17" viewBox="0 0 20 17" fill="none" xmlns="http://www.w3.org/2000/svg">
<path d="M18.9717 1.80567C18.6672 1.67883 18.3318 1.64549 18.0083 1.70989C17.6847 1.7743 17.3877 1.93354 17.155 2.16734L15 4.32234L11.1783 0.500673C10.8658 0.188221 10.4419 0.0126953 10 0.0126953C9.55806 0.0126953 9.13421 0.188221 8.82167 0.500673L5 4.32234L2.845 2.16734C2.61191 1.93432 2.31497 1.77565 1.99172 1.71137C1.66846 1.64709 1.33341 1.68009 1.02891 1.80621C0.724409 1.93233 0.464138 2.14589 0.280997 2.41991C0.0978568 2.69392 7.03739e-05 3.01609 0 3.34567L0 12.1673C0.00132321 13.272 0.440735 14.331 1.22185 15.1122C2.00296 15.8933 3.062 16.3327 4.16667 16.334H15.8333C16.938 16.3327 17.997 15.8933 18.7782 15.1122C19.5593 14.331 19.9987 13.272 20 12.1673V3.34567C20.0001 3.01606 19.9024 2.69383 19.7194 2.41971C19.5364 2.1456 19.2761 1.93191 18.9717 1.80567V1.80567Z" fill="#A27070"/>
</svg>
