<svg width="20" height="20" viewBox="0 0 20 20" fill="none" xmlns="http://www.w3.org/2000/svg">
<g clip-path="url(#clip0_1552_5570)">
<path d="M19.9592 10.25L19.3717 6.08333C19.2273 5.09161 18.732 4.18459 17.9757 3.52706C17.2193 2.86952 16.2522 2.5051 15.2501 2.5H6.66675V15.4867L8.02175 18.2367C8.29072 18.7802 8.74588 19.2092 9.30443 19.4455C9.86297 19.6818 10.4878 19.7097 11.0652 19.5242C11.6426 19.3387 12.1342 18.9521 12.4506 18.4347C12.767 17.9173 12.8872 17.3035 12.7892 16.705L12.5092 15H15.8334C16.4299 15 17.0194 14.872 17.5622 14.6245C18.1049 14.3771 18.5882 14.016 18.9793 13.5657C19.3705 13.1154 19.6604 12.5863 19.8294 12.0143C19.9985 11.4423 20.0428 10.8406 19.9592 10.25Z" fill="#374957"/>
<path d="M0 6.66667V10.8333C0.00132321 11.938 0.440735 12.997 1.22185 13.7782C2.00296 14.5593 3.062 14.9987 4.16667 15H5V2.5H4.16667C3.062 2.50132 2.00296 2.94073 1.22185 3.72185C0.440735 4.50296 0.00132321 5.562 0 6.66667H0Z" fill="#374957"/>
</g>
<defs>
<clipPath id="clip0_1552_5570">
<rect width="20" height="20" fill="white"/>
</clipPath>
</defs>
</svg>
