<svg width="20" height="20" viewBox="0 0 20 20" fill="none" xmlns="http://www.w3.org/2000/svg">
<g clip-path="url(#clip0_1552_5549)">
<path d="M10.8335 3.33333C10.8335 3.55435 10.9213 3.76631 11.0776 3.92259C11.2338 4.07887 11.4458 4.16667 11.6668 4.16667H14.9718C14.9105 3.62556 14.673 3.11961 14.296 2.72667L12.3926 0.760833C11.9763 0.33879 11.4239 0.0778121 10.8335 0.0241667V3.33333ZM9.16681 3.33333V0H5.83348C4.72881 0.00132321 3.66977 0.440735 2.88866 1.22185C2.10754 2.00296 1.66813 3.062 1.66681 4.16667V12.5C1.66813 13.6047 2.10754 14.6637 2.88866 15.4448C3.66977 16.2259 4.72881 16.6653 5.83348 16.6667H10.8335C11.9381 16.6653 12.9972 16.2259 13.7783 15.4448C14.5594 14.6637 14.9988 13.6047 15.0001 12.5V5.83333H11.6668C11.0038 5.83333 10.3679 5.56994 9.89904 5.1011C9.4302 4.63226 9.16681 3.99637 9.16681 3.33333V3.33333ZM14.1668 20H6.66681C6.4458 20 6.23383 19.9122 6.07755 19.7559C5.92127 19.5996 5.83348 19.3877 5.83348 19.1667C5.83348 18.9457 5.92127 18.7337 6.07755 18.5774C6.23383 18.4211 6.4458 18.3333 6.66681 18.3333H14.1668C14.8299 18.3333 15.4657 18.0699 15.9346 17.6011C16.4034 17.1323 16.6668 16.4964 16.6668 15.8333V6.66667C16.6668 6.44565 16.7546 6.23369 16.9109 6.07741C17.0672 5.92113 17.2791 5.83333 17.5001 5.83333C17.7212 5.83333 17.9331 5.92113 18.0894 6.07741C18.2457 6.23369 18.3335 6.44565 18.3335 6.66667V15.8333C18.3322 16.938 17.8927 17.997 17.1116 18.7782C16.3305 19.5593 15.2715 19.9987 14.1668 20V20Z" fill="#374957"/>
</g>
<defs>
<clipPath id="clip0_1552_5549">
<rect width="20" height="20" fill="white"/>
</clipPath>
</defs>
</svg>
