<svg width="21" height="20" viewBox="0 0 21 20" fill="none" xmlns="http://www.w3.org/2000/svg">
<g clip-path="url(#clip0_2099_13069)">
<path d="M19.9832 4.61816L12.9682 11.6332C12.186 12.4134 11.1263 12.8515 10.0215 12.8515C8.9167 12.8515 7.85701 12.4134 7.07482 11.6332L0.0598177 4.61816C0.048151 4.74983 0.0214844 4.869 0.0214844 4.99983V14.9998C0.0228076 16.1045 0.462219 17.1635 1.24333 17.9446C2.02445 18.7258 3.08349 19.1652 4.18815 19.1665H15.8548C16.9595 19.1652 18.0185 18.7258 18.7996 17.9446C19.5807 17.1635 20.0202 16.1045 20.0215 14.9998V4.99983C20.0215 4.869 19.9948 4.74983 19.9832 4.61816Z" fill="#A27070"/>
<path d="M11.789 10.4549L19.4006 2.84242C19.0319 2.23102 18.5118 1.72495 17.8906 1.37303C17.2694 1.0211 16.5679 0.835203 15.854 0.833252H4.18729C3.47331 0.835203 2.77188 1.0211 2.15065 1.37303C1.52942 1.72495 1.00936 2.23102 0.640625 2.84242L8.25229 10.4549C8.72194 10.9227 9.35778 11.1853 10.0206 11.1853C10.6835 11.1853 11.3193 10.9227 11.789 10.4549V10.4549Z" fill="#A27070"/>
</g>
<defs>
<clipPath id="clip0_2099_13069">
<rect width="20" height="20" fill="white" transform="translate(0.0214844)"/>
</clipPath>
</defs>
</svg>
