<svg width="20" height="20" viewBox="0 0 20 20" fill="none" xmlns="http://www.w3.org/2000/svg">
<g clip-path="url(#clip0_1552_5653)">
<path d="M10 0C8.02219 0 6.08879 0.58649 4.4443 1.6853C2.79981 2.78412 1.51809 4.3459 0.761209 6.17317C0.00433286 8.00043 -0.193701 10.0111 0.192152 11.9509C0.578004 13.8907 1.53041 15.6725 2.92894 17.0711C4.32746 18.4696 6.10929 19.422 8.0491 19.8079C9.98891 20.1937 11.9996 19.9957 13.8268 19.2388C15.6541 18.4819 17.2159 17.2002 18.3147 15.5557C19.4135 13.9112 20 11.9778 20 10C19.9971 7.34872 18.9426 4.80684 17.0679 2.9321C15.1932 1.05736 12.6513 0.00286757 10 0V0ZM5 8.33333C5 7.89131 5.1756 7.46738 5.48816 7.15482C5.80072 6.84226 6.22464 6.66667 6.66667 6.66667C7.1087 6.66667 7.53262 6.84226 7.84518 7.15482C8.15774 7.46738 8.33334 7.89131 8.33334 8.33333C8.33334 9.16667 7.5875 9.16667 6.66667 9.16667C5.74584 9.16667 5 9.16667 5 8.33333ZM13.3333 14.1667H6.66667C6.44566 14.1667 6.2337 14.0789 6.07742 13.9226C5.92114 13.7663 5.83334 13.5543 5.83334 13.3333C5.83334 13.1123 5.92114 12.9004 6.07742 12.7441C6.2337 12.5878 6.44566 12.5 6.66667 12.5H13.3333C13.5544 12.5 13.7663 12.5878 13.9226 12.7441C14.0789 12.9004 14.1667 13.1123 14.1667 13.3333C14.1667 13.5543 14.0789 13.7663 13.9226 13.9226C13.7663 14.0789 13.5544 14.1667 13.3333 14.1667ZM13.3333 9.16667C12.4125 9.16667 11.6667 9.16667 11.6667 8.33333C11.6667 7.89131 11.8423 7.46738 12.1548 7.15482C12.4674 6.84226 12.8913 6.66667 13.3333 6.66667C13.7754 6.66667 14.1993 6.84226 14.5118 7.15482C14.8244 7.46738 15 7.89131 15 8.33333C15 9.16667 14.2542 9.16667 13.3333 9.16667Z" fill="#374957"/>
</g>
<defs>
<clipPath id="clip0_1552_5653">
<rect width="20" height="20" fill="white"/>
</clipPath>
</defs>
</svg>
