<svg width="20" height="20" viewBox="0 0 20 20" fill="none" xmlns="http://www.w3.org/2000/svg">
<g clip-path="url(#clip0_1552_5656)">
<path d="M10 0C8.02219 0 6.08879 0.58649 4.4443 1.6853C2.79981 2.78412 1.51809 4.3459 0.761209 6.17317C0.00433286 8.00043 -0.193701 10.0111 0.192152 11.9509C0.578004 13.8907 1.53041 15.6725 2.92894 17.0711C4.32746 18.4696 6.10929 19.422 8.0491 19.8079C9.98891 20.1937 11.9996 19.9957 13.8268 19.2388C15.6541 18.4819 17.2159 17.2002 18.3147 15.5557C19.4135 13.9112 20 11.9778 20 10C19.9971 7.34872 18.9426 4.80684 17.0679 2.9321C15.1932 1.05736 12.6513 0.00286757 10 0V0ZM5 8.33333C5 7.89131 5.1756 7.46738 5.48816 7.15482C5.80072 6.84226 6.22464 6.66667 6.66667 6.66667C7.1087 6.66667 7.53262 6.84226 7.84518 7.15482C8.15774 7.46738 8.33334 7.89131 8.33334 8.33333C8.33334 9.16667 7.5875 9.16667 6.66667 9.16667C5.74584 9.16667 5 9.16667 5 8.33333ZM14.1442 12.7375C13.8489 13.6118 13.2952 14.3759 12.5563 14.9287C11.8173 15.4815 10.928 15.797 10.0058 15.8333C9.08469 15.7934 8.19699 15.4766 7.45871 14.9243C6.72042 14.372 6.16587 13.6099 5.8675 12.7375C5.83052 12.6131 5.8231 12.4818 5.84583 12.354C5.86856 12.2263 5.92081 12.1056 5.99843 12.0016C6.07604 11.8976 6.17688 11.8131 6.29289 11.755C6.40891 11.6969 6.5369 11.6666 6.66667 11.6667H13.3417C13.4706 11.6694 13.5971 11.7015 13.7118 11.7604C13.8265 11.8193 13.9263 11.9036 14.0036 12.0067C14.0809 12.1099 14.1338 12.2293 14.1581 12.3559C14.1825 12.4825 14.1777 12.613 14.1442 12.7375ZM13.3333 9.16667C12.4125 9.16667 11.6667 9.16667 11.6667 8.33333C11.6667 7.89131 11.8423 7.46738 12.1548 7.15482C12.4674 6.84226 12.8913 6.66667 13.3333 6.66667C13.7754 6.66667 14.1993 6.84226 14.5118 7.15482C14.8244 7.46738 15 7.89131 15 8.33333C15 9.16667 14.2542 9.16667 13.3333 9.16667Z" fill="#374957"/>
</g>
<defs>
<clipPath id="clip0_1552_5656">
<rect width="20" height="20" fill="white"/>
</clipPath>
</defs>
</svg>
