<svg width="20" height="20" viewBox="0 0 20 20" fill="none" xmlns="http://www.w3.org/2000/svg">
<g clip-path="url(#clip0_1552_5611)">
<path d="M10 0C8.02219 0 6.08879 0.58649 4.4443 1.6853C2.79981 2.78412 1.51809 4.3459 0.761209 6.17317C0.00433286 8.00043 -0.193701 10.0111 0.192152 11.9509C0.578004 13.8907 1.53041 15.6725 2.92894 17.0711C4.32746 18.4696 6.10929 19.422 8.0491 19.8079C9.98891 20.1937 11.9996 19.9957 13.8268 19.2388C15.6541 18.4819 17.2159 17.2002 18.3147 15.5557C19.4135 13.9112 20 11.9778 20 10C19.9971 7.34872 18.9426 4.80684 17.0679 2.9321C15.1932 1.05736 12.6513 0.00286757 10 0V0ZM6.66667 6.66667C7.1087 6.66667 7.53262 6.84226 7.84518 7.15482C8.15774 7.46738 8.33334 7.89131 8.33334 8.33333C8.33334 9.16667 7.5875 9.16667 6.66667 9.16667C5.74584 9.16667 5 9.16667 5 8.33333C5 7.89131 5.1756 7.46738 5.48816 7.15482C5.80072 6.84226 6.22464 6.66667 6.66667 6.66667V6.66667ZM14.7883 14.7225C14.6413 14.887 14.4351 14.9865 14.2148 14.9991C13.9945 15.0118 13.7782 14.9366 13.6133 14.79C12.5946 13.9324 11.3288 13.4221 10 13.3333C8.67123 13.422 7.4054 13.9323 6.38667 14.79C6.22157 14.937 6.00485 15.0123 5.78419 14.9995C5.56352 14.9867 5.35698 14.8868 5.21 14.7217C5.06303 14.5566 4.98766 14.3399 5.00048 14.1192C5.01329 13.8985 5.11324 13.692 5.27834 13.545C6.60156 12.4146 8.26185 11.7541 10 11.6667C11.7382 11.7541 13.3984 12.4146 14.7217 13.545C14.8034 13.6179 14.87 13.7062 14.9176 13.8048C14.9652 13.9035 14.9929 14.0106 14.9991 14.1199C15.0053 14.2293 14.9899 14.3388 14.9537 14.4422C14.9176 14.5456 14.8614 14.6408 14.7883 14.7225ZM13.3333 9.16667C12.4125 9.16667 11.6667 9.16667 11.6667 8.33333C11.6667 7.89131 11.8423 7.46738 12.1548 7.15482C12.4674 6.84226 12.8913 6.66667 13.3333 6.66667C13.7754 6.66667 14.1993 6.84226 14.5118 7.15482C14.8244 7.46738 15 7.89131 15 8.33333C15 9.16667 14.2542 9.16667 13.3333 9.16667Z" fill="#374957"/>
</g>
<defs>
<clipPath id="clip0_1552_5611">
<rect width="20" height="20" fill="white"/>
</clipPath>
</defs>
</svg>
