<svg width="20" height="20" viewBox="0 0 20 20" fill="none" xmlns="http://www.w3.org/2000/svg">
<g clip-path="url(#clip0_1552_5744)">
<path d="M8.33322 15.8333H6.66655V13.9025C5.86545 13.1888 5.22757 12.3108 4.79633 11.3283C4.36509 10.3458 4.15064 9.28198 4.16756 8.20917C4.18448 7.13637 4.43239 6.07981 4.8944 5.11144C5.35641 4.14306 6.02167 3.28562 6.84488 2.5975C6.51113 2.53569 6.17263 2.50306 5.83322 2.5C4.36628 2.5113 2.95745 3.0749 1.88747 4.07848C0.817486 5.08207 0.16492 6.45196 0.0598038 7.91518C-0.0453121 9.37839 0.40474 10.8275 1.32028 11.9737C2.23582 13.1199 3.54962 13.8791 4.99988 14.1V15.8333H3.33322C3.1122 15.8333 2.90024 15.9211 2.74396 16.0774C2.58768 16.2337 2.49988 16.4457 2.49988 16.6667C2.49988 16.8877 2.58768 17.0996 2.74396 17.2559C2.90024 17.4122 3.1122 17.5 3.33322 17.5H4.99988V19.1667C4.99988 19.3877 5.08768 19.5996 5.24396 19.7559C5.40024 19.9122 5.6122 20 5.83322 20C6.05423 20 6.26619 19.9122 6.42247 19.7559C6.57875 19.5996 6.66655 19.3877 6.66655 19.1667V17.5H8.33322C8.55423 17.5 8.76619 17.4122 8.92247 17.2559C9.07875 17.0996 9.16655 16.8877 9.16655 16.6667C9.16655 16.4457 9.07875 16.2337 8.92247 16.0774C8.76619 15.9211 8.55423 15.8333 8.33322 15.8333Z" fill="#374957"/>
<path d="M18.3331 0H14.9998C14.7788 0 14.5668 0.0877974 14.4105 0.244078C14.2542 0.400358 14.1664 0.61232 14.1664 0.833333C14.1664 1.05435 14.2542 1.26631 14.4105 1.42259C14.5668 1.57887 14.7788 1.66667 14.9998 1.66667H17.1548L15.1548 3.66667C13.9698 2.7784 12.4923 2.37203 11.0198 2.52935C9.54722 2.68667 8.18895 3.39601 7.21838 4.51456C6.24782 5.63312 5.73704 7.07783 5.78887 8.55785C5.8407 10.0379 6.4513 11.4433 7.49773 12.4912C8.54417 13.5392 9.94874 14.1517 11.4287 14.2057C12.9086 14.2596 14.3541 13.7508 15.474 12.7819C16.5939 11.8129 17.3052 10.4556 17.4646 8.98327C17.624 7.51094 17.2197 6.03289 16.3331 4.84667L18.3331 2.84667V5C18.3331 5.22101 18.4209 5.43298 18.5772 5.58926C18.7335 5.74554 18.9454 5.83333 19.1664 5.83333C19.3874 5.83333 19.5994 5.74554 19.7557 5.58926C19.912 5.43298 19.9998 5.22101 19.9998 5V1.66667C19.9998 1.22464 19.8242 0.800716 19.5116 0.488155C19.199 0.175595 18.7751 0 18.3331 0V0Z" fill="#374957"/>
</g>
<defs>
<clipPath id="clip0_1552_5744">
<rect width="20" height="20" fill="white"/>
</clipPath>
</defs>
</svg>
