<svg width="20" height="20" viewBox="0 0 20 20" fill="none" xmlns="http://www.w3.org/2000/svg">
<g clip-path="url(#clip0_1552_5743)">
<path d="M9.16669 16.6669C9.16669 16.8879 9.0789 17.0999 8.92262 17.2561C8.76634 17.4124 8.55437 17.5002 8.33336 17.5002H6.66669V19.1669C6.66669 19.3879 6.5789 19.5999 6.42262 19.7561C6.26634 19.9124 6.05437 20.0002 5.83336 20.0002C5.61235 20.0002 5.40039 19.9124 5.24411 19.7561C5.08783 19.5999 5.00003 19.3879 5.00003 19.1669V17.5002H3.33336C3.11235 17.5002 2.90039 17.4124 2.74411 17.2561C2.58783 17.0999 2.50003 16.8879 2.50003 16.6669C2.50003 16.4459 2.58783 16.2339 2.74411 16.0776C2.90039 15.9213 3.11235 15.8336 3.33336 15.8336H5.00003V12.3744C4.15371 12.204 3.35186 11.8602 2.64502 11.3646C1.93818 10.8689 1.34168 10.2323 0.893136 9.49463C0.444587 8.75702 0.153712 7.93447 0.0388473 7.07886C-0.0760178 6.22324 -0.0123818 5.3531 0.225744 4.5233C0.463869 3.6935 0.87132 2.92203 1.42241 2.25752C1.9735 1.59301 2.65628 1.04987 3.42771 0.662349C4.19913 0.274825 5.04248 0.0513169 5.90458 0.00591461C6.76667 -0.0394877 7.62883 0.0942005 8.43669 0.398552C7.61722 1.13727 6.96205 2.03988 6.51359 3.04791C6.06514 4.05594 5.83341 5.14693 5.83341 6.25022C5.83341 7.35351 6.06514 8.44449 6.51359 9.45253C6.96205 10.4606 7.61722 11.3632 8.43669 12.1019C7.86815 12.3133 7.27193 12.441 6.66669 12.4811V15.8336H8.33336C8.55437 15.8336 8.76634 15.9213 8.92262 16.0776C9.0789 16.2339 9.16669 16.4459 9.16669 16.6669ZM20 6.25022C20.0014 5.03154 19.6464 3.83906 18.9788 2.8195C18.3112 1.79995 17.3601 0.997818 16.2425 0.511807C15.125 0.0257966 13.8897 -0.122884 12.6887 0.0840605C11.4877 0.291005 10.3735 0.844547 9.483 1.67657C8.59254 2.50859 7.96476 3.58279 7.67689 4.76698C7.38903 5.95117 7.45365 7.19369 7.8628 8.34163C8.27195 9.48957 9.00778 10.4929 9.97975 11.228C10.9517 11.9632 12.1174 12.3981 13.3334 12.4794V15.8336H11.6667C11.4457 15.8336 11.2337 15.9213 11.0774 16.0776C10.9212 16.2339 10.8334 16.4459 10.8334 16.6669C10.8334 16.8879 10.9212 17.0999 11.0774 17.2561C11.2337 17.4124 11.4457 17.5002 11.6667 17.5002H13.3334V19.1669C13.3334 19.3879 13.4212 19.5999 13.5774 19.7561C13.7337 19.9124 13.9457 20.0002 14.1667 20.0002C14.3877 20.0002 14.5997 19.9124 14.756 19.7561C14.9122 19.5999 15 19.3879 15 19.1669V17.5002H16.6667C16.8877 17.5002 17.0997 17.4124 17.256 17.2561C17.4122 17.0999 17.5 16.8879 17.5 16.6669C17.5 16.4459 17.4122 16.2339 17.256 16.0776C17.0997 15.9213 16.8877 15.8336 16.6667 15.8336H15V12.3744C16.4107 12.0844 17.6782 11.3169 18.589 10.2013C19.4997 9.08579 19.9981 7.69035 20 6.25022V6.25022Z" fill="#374957"/>
</g>
<defs>
<clipPath id="clip0_1552_5743">
<rect width="20" height="20" fill="white"/>
</clipPath>
</defs>
</svg>
