<svg width="20" height="20" viewBox="0 0 20 20" fill="none" xmlns="http://www.w3.org/2000/svg">
<g clip-path="url(#clip0_1552_5748)">
<path d="M16.6666 6.66608C16.6676 5.38288 16.2982 4.12665 15.6029 3.04819C14.9075 1.96973 13.9157 1.11487 12.7464 0.586229C11.5771 0.0575847 10.2802 -0.12238 9.01116 0.0679366C7.74215 0.258253 6.55502 0.810765 5.59229 1.65915C4.62955 2.50753 3.93212 3.61574 3.5837 4.85073C3.23528 6.08573 3.25069 7.39504 3.62808 8.6215C4.00546 9.84796 4.72878 10.9394 5.71121 11.7649C6.69365 12.5904 7.89344 13.1148 9.16658 13.2753V15.8328H7.49992C7.2789 15.8328 7.06694 15.9205 6.91066 16.0768C6.75438 16.2331 6.66658 16.4451 6.66658 16.6661C6.66658 16.8871 6.75438 17.0991 6.91066 17.2553C7.06694 17.4116 7.2789 17.4994 7.49992 17.4994H9.16658V19.1661C9.16658 19.3871 9.25438 19.5991 9.41066 19.7553C9.56694 19.9116 9.7789 19.9994 9.99992 19.9994C10.2209 19.9994 10.4329 19.9116 10.5892 19.7553C10.7455 19.5991 10.8332 19.3871 10.8332 19.1661V17.4994H12.4999C12.7209 17.4994 12.9329 17.4116 13.0892 17.2553C13.2455 17.0991 13.3333 16.8871 13.3333 16.6661C13.3333 16.4451 13.2455 16.2331 13.0892 16.0768C12.9329 15.9205 12.7209 15.8328 12.4999 15.8328H10.8332V13.2753C12.4428 13.071 13.9229 12.2874 14.9965 11.0709C16.0702 9.8545 16.6639 8.28857 16.6666 6.66608Z" fill="#374957"/>
</g>
<defs>
<clipPath id="clip0_1552_5748">
<rect width="20" height="20" fill="white"/>
</clipPath>
</defs>
</svg>
