<svg width="20" height="20" viewBox="0 0 20 20" fill="none" xmlns="http://www.w3.org/2000/svg">
<path d="M1.33902 15C2.02831 16.1963 3.55695 16.6073 4.75327 15.918C4.7541 15.9176 4.75488 15.9171 4.7557 15.9166L5.12652 15.7025C5.82652 16.3014 6.63113 16.7658 7.49984 17.0725V17.5C7.49984 18.8807 8.61913 20 9.99984 20C11.3805 20 12.4998 18.8807 12.4998 17.5V17.0725C13.3687 16.7654 14.1733 16.3004 14.8732 15.7008L15.2457 15.9158C16.4423 16.6062 17.972 16.1958 18.6623 14.9991C19.3527 13.8025 18.9423 12.2728 17.7457 11.5825L17.3757 11.3691C17.5422 10.4629 17.5422 9.53379 17.3757 8.62746L17.7457 8.41414C18.9423 7.72379 19.3527 6.1941 18.6623 4.99746C17.972 3.80086 16.4423 3.39043 15.2457 4.08078L14.8748 4.29496C14.1741 3.6968 13.369 3.2332 12.4998 2.9275V2.5C12.4998 1.1193 11.3805 0 9.99984 0C8.61913 0 7.49984 1.1193 7.49984 2.5V2.9275C6.63101 3.23465 5.82636 3.69965 5.12652 4.29918L4.75402 4.08336C3.55738 3.39297 2.02769 3.8034 1.33734 5C0.646986 6.1966 1.05738 7.72633 2.25402 8.41668L2.62402 8.63C2.45745 9.53629 2.45745 10.4654 2.62402 11.3717L2.25402 11.585C1.0607 12.2772 0.651634 13.8039 1.33902 15ZM9.99984 6.66668C11.8408 6.66668 13.3332 8.15906 13.3332 10C13.3332 11.8409 11.8408 13.3333 9.99984 13.3333C8.1589 13.3333 6.66652 11.8409 6.66652 10C6.66652 8.15906 8.1589 6.66668 9.99984 6.66668Z" fill="#374957"/>
</svg>
