<svg width="24" height="23" viewBox="0 0 24 23" fill="none" xmlns="http://www.w3.org/2000/svg">
<path d="M11.6367 22.2305C11.8828 22.2305 12.2344 22.0664 12.4922 21.9141C19.0898 17.6953 23.2734 12.7852 23.2734 7.793C23.2734 3.64453 20.4258 0.714844 16.7461 0.714844C14.4609 0.714844 12.7031 1.98047 11.6367 3.91406C10.5938 1.99219 8.8125 0.714844 6.5273 0.714844C2.84766 0.714844 0 3.64453 0 7.793C0 12.7852 4.1836 17.6953 10.793 21.9141C11.0391 22.0664 11.3906 22.2305 11.6367 22.2305Z" fill="white"/>
<path d="M11.1972 4.15253L11.6331 4.95584L12.0745 4.15553C13.0697 2.35115 14.6752 1.21484 16.7461 1.21484C20.1194 1.21484 22.7734 3.8894 22.7734 7.793C22.7734 12.5066 18.8012 17.2846 12.2305 21.4879C12.1193 21.5533 11.9934 21.6178 11.8751 21.6649C11.7444 21.7169 11.6651 21.7305 11.6367 21.7305C11.6084 21.7305 11.5292 21.7169 11.4014 21.6655C11.2842 21.6184 11.1616 21.554 11.059 21.4907C4.4738 17.2867 0.5 12.5075 0.5 7.793C0.5 3.88941 3.15406 1.21484 6.5273 1.21484C8.5996 1.21484 10.2268 2.36413 11.1972 4.15253Z" stroke="#A27070"/>
</svg>
