<svg width="35" height="33" viewBox="0 0 35 33" fill="none" xmlns="http://www.w3.org/2000/svg">
<g filter="url(#filter0_d_3640_8770)">
<path d="M17.6367 27.2305C17.8828 27.2305 18.2344 27.0664 18.4922 26.9141C25.0898 22.6953 29.2734 17.7852 29.2734 12.793C29.2734 8.64453 26.4258 5.71484 22.7461 5.71484C20.4609 5.71484 18.7031 6.98047 17.6367 8.91406C16.5938 6.99219 14.8125 5.71484 12.5273 5.71484C8.84766 5.71484 6 8.64453 6 12.793C6 17.7852 10.1836 22.6953 16.793 26.9141C17.0391 27.0664 17.3906 27.2305 17.6367 27.2305Z" fill="white"/>
<path d="M17.1972 9.15253L17.6331 9.95584L18.0745 9.15553C19.0697 7.35115 20.6752 6.21484 22.7461 6.21484C26.1194 6.21484 28.7734 8.8894 28.7734 12.793C28.7734 17.5066 24.8012 22.2846 18.2305 26.4879C18.1193 26.5533 17.9934 26.6178 17.8751 26.6649C17.7444 26.7169 17.6651 26.7305 17.6367 26.7305C17.6084 26.7305 17.5292 26.7169 17.4014 26.6655C17.2842 26.6184 17.1616 26.554 17.059 26.4907C10.4738 22.2867 6.5 17.5075 6.5 12.793C6.5 8.88941 9.15406 6.21484 12.5273 6.21484C14.5996 6.21484 16.2268 7.36413 17.1972 9.15253Z" stroke="#A27070"/>
</g>
<defs>
<filter id="filter0_d_3640_8770" x="0.5" y="0.214844" width="34.2734" height="32.5156" filterUnits="userSpaceOnUse" color-interpolation-filters="sRGB">
<feFlood flood-opacity="0" result="BackgroundImageFix"/>
<feColorMatrix in="SourceAlpha" type="matrix" values="0 0 0 0 0 0 0 0 0 0 0 0 0 0 0 0 0 0 127 0" result="hardAlpha"/>
<feOffset/>
<feGaussianBlur stdDeviation="2.75"/>
<feComposite in2="hardAlpha" operator="out"/>
<feColorMatrix type="matrix" values="0 0 0 0 1 0 0 0 0 1 0 0 0 0 1 0 0 0 0.5 0"/>
<feBlend mode="normal" in2="BackgroundImageFix" result="effect1_dropShadow_3640_8770"/>
<feBlend mode="normal" in="SourceGraphic" in2="effect1_dropShadow_3640_8770" result="shape"/>
</filter>
</defs>
</svg>
