<svg width="20" height="20" viewBox="0 0 20 20" fill="none" xmlns="http://www.w3.org/2000/svg">
<g clip-path="url(#clip0_1552_5692)">
<path d="M13.5359 8.96972C12.5983 8.03196 11.3265 7.50508 10.0004 7.505C8.67425 7.50493 7.40241 8.03165 6.46465 8.9693C5.52689 9.90695 5.00002 11.1787 4.99994 12.5048C4.99986 13.831 5.52658 15.1028 6.46423 16.0406L9.38673 18.8989C9.55068 19.0591 9.77082 19.1488 10.0001 19.1488C10.2293 19.1488 10.4495 19.0591 10.6134 18.8989L13.5359 16.0406C14.4735 15.1029 15.0003 13.8312 15.0003 12.5051C15.0003 11.1791 14.4735 9.90739 13.5359 8.96972ZM10.0001 14.1614C9.67043 14.1614 9.3482 14.0636 9.07412 13.8805C8.80004 13.6974 8.58641 13.4371 8.46027 13.1325C8.33412 12.828 8.30112 12.4929 8.36543 12.1696C8.42973 11.8463 8.58847 11.5493 8.82156 11.3162C9.05464 11.0831 9.35162 10.9244 9.67492 10.8601C9.99822 10.7958 10.3333 10.8288 10.6379 10.9549C10.9424 11.0811 11.2027 11.2947 11.3859 11.5688C11.569 11.8428 11.6667 12.1651 11.6667 12.4947C11.6667 12.9367 11.4911 13.3607 11.1786 13.6732C10.866 13.9858 10.4421 14.1614 10.0001 14.1614Z" fill="#374957"/>
<path d="M18.1666 4.64933L12.3333 0.71266C11.645 0.244874 10.8321 -0.00524902 9.99994 -0.00524902C9.16779 -0.00524902 8.35484 0.244874 7.66661 0.71266L1.83328 4.64933C1.26804 5.03077 0.805217 5.54529 0.485529 6.14761C0.165841 6.74993 -0.000911834 7.42159 -5.77709e-05 8.10349V15.8335C0.00126544 16.9382 0.440677 17.9972 1.22179 18.7783C2.00291 19.5594 3.06195 19.9988 4.16661 20.0002H8.12828L5.29911 17.2327C4.6732 16.6158 4.17542 15.8813 3.83441 15.0713C3.4934 14.2614 3.31589 13.392 3.31209 12.5132C3.30828 11.6345 3.47826 10.7636 3.81225 9.95073C4.14624 9.13788 4.63764 8.39907 5.25819 7.77682C5.87874 7.15456 6.6162 6.66114 7.42814 6.32493C8.24008 5.98871 9.11048 5.81635 9.98927 5.81774C10.8681 5.81914 11.7379 5.99427 12.5488 6.33305C13.3597 6.67184 14.0955 7.16761 14.7141 7.79183V7.79183C15.9642 9.04205 16.6664 10.7376 16.6664 12.5056C16.6664 14.2735 15.9642 15.9691 14.7141 17.2193L11.8708 20.0002H15.8333C16.9379 19.9988 17.997 19.5594 18.7781 18.7783C19.5592 17.9972 19.9986 16.9382 19.9999 15.8335V8.10349C20.0003 7.42169 19.8333 6.75021 19.5137 6.14797C19.194 5.54574 18.7315 5.03114 18.1666 4.64933V4.64933Z" fill="#374957"/>
</g>
<defs>
<clipPath id="clip0_1552_5692">
<rect width="20" height="20" fill="white"/>
</clipPath>
</defs>
</svg>
