<svg width="20" height="20" viewBox="0 0 20 20" fill="none" xmlns="http://www.w3.org/2000/svg">
<g clip-path="url(#clip0_1552_5696)">
<path d="M10 7.50008C9.34059 7.49989 8.69594 7.69529 8.1476 8.06154C7.59926 8.4278 7.17187 8.94847 6.9195 9.55767C6.66713 10.1669 6.60112 10.8372 6.72981 11.484C6.85851 12.1307 7.17613 12.7247 7.6425 13.1909L9.54833 15.0542C9.66949 15.1711 9.83126 15.2364 9.99958 15.2364C10.1679 15.2364 10.3297 15.1711 10.4508 15.0542L12.3675 13.1842C12.8322 12.7171 13.148 12.1228 13.2751 11.4762C13.4021 10.8297 13.3347 10.16 13.0814 9.55178C12.8281 8.94353 12.4001 8.42401 11.8517 8.05884C11.3033 7.69367 10.6589 7.49923 10 7.50008V7.50008ZM10 11.6601C9.83518 11.6601 9.67407 11.6112 9.53703 11.5196C9.39998 11.4281 9.29317 11.2979 9.2301 11.1456C9.16703 10.9934 9.15053 10.8258 9.18268 10.6642C9.21483 10.5025 9.2942 10.354 9.41075 10.2375C9.52729 10.1209 9.67578 10.0416 9.83743 10.0094C9.99908 9.97727 10.1666 9.99377 10.3189 10.0568C10.4712 10.1199 10.6013 10.2267 10.6929 10.3638C10.7845 10.5008 10.8333 10.6619 10.8333 10.8267C10.8333 11.0478 10.7455 11.2597 10.5893 11.416C10.433 11.5723 10.221 11.6601 10 11.6601ZM18.1667 4.64925L12.3333 0.712581C11.6452 0.244578 10.8322 -0.00567627 10 -0.00567627C9.16779 -0.00567627 8.35481 0.244578 7.66667 0.712581L1.83333 4.64925C1.26846 5.03106 0.805914 5.54566 0.486271 6.14789C0.166627 6.75013 -0.000345349 7.42161 5.36283e-07 8.10341V15.8334C0.00132375 16.9381 0.440735 17.9971 1.22185 18.7782C2.00297 19.5593 3.062 19.9988 4.16667 20.0001H15.8333C16.938 19.9988 17.997 19.5593 18.7782 18.7782C19.5593 17.9971 19.9987 16.9381 20 15.8334V8.10341C20.0003 7.42161 19.8334 6.75013 19.5137 6.14789C19.1941 5.54566 18.7315 5.03106 18.1667 4.64925V4.64925ZM13.5358 14.3692L11.6167 16.2501C11.1831 16.6696 10.6033 16.9041 10 16.9041C9.39666 16.9041 8.81695 16.6696 8.38333 16.2501L6.46667 14.3792C5.52813 13.4424 5.00021 12.171 4.99904 10.8449C4.99787 9.5188 5.52354 8.24653 6.46042 7.308C7.39729 6.36946 8.66863 5.84154 9.99475 5.84037C11.3209 5.8392 12.5931 6.36487 13.5317 7.30175V7.30175C14.4672 8.23959 14.9929 9.50997 14.9937 10.8346C14.9945 12.1593 14.4702 13.4303 13.5358 14.3692V14.3692Z" fill="#374957"/>
</g>
<defs>
<clipPath id="clip0_1552_5696">
<rect width="20" height="20" fill="white"/>
</clipPath>
</defs>
</svg>
