<svg width="47" height="48" viewBox="0 0 47 48" fill="none" xmlns="http://www.w3.org/2000/svg">
<path d="M28.949 41.9457V43.3481C28.949 44.4642 28.1293 45.3926 27.0626 45.5506L26.7169 46.8247C26.5293 47.5161 25.907 48 25.1861 48H21.7589C21.0379 48 20.4157 47.5161 20.228 46.8247L19.8922 45.5506C18.8157 45.3827 17.9959 44.4642 17.9959 43.3383V41.9358C17.9959 41.1852 18.5984 40.5827 19.349 40.5827H27.5959C28.3465 40.5926 28.949 41.1951 28.949 41.9457ZM35.2996 23.042C35.2996 26.2321 34.0354 29.1259 31.9811 31.2494C30.4206 32.8691 29.4132 34.9333 29.0774 37.1358C28.9293 38.084 28.1095 38.7852 27.1416 38.7852H19.8033C18.8453 38.7852 18.0157 38.0938 17.8774 37.1457C17.5317 34.9432 16.5144 32.8494 14.954 31.2395C12.9391 29.1457 11.6848 26.3012 11.6552 23.1704C11.5861 16.5926 16.8206 11.2691 23.3984 11.2198C29.9663 11.1704 35.2996 16.484 35.2996 23.042ZM24.8107 15.8815C24.8107 15.1506 24.2182 14.5481 23.4774 14.5481C18.7762 14.5481 14.9441 18.3704 14.9441 23.0815C14.9441 23.8123 15.5367 24.4148 16.2774 24.4148C17.0083 24.4148 17.6107 23.8222 17.6107 23.0815C17.6107 19.842 20.2478 17.2148 23.4774 17.2148C24.2182 17.2148 24.8107 16.6222 24.8107 15.8815ZM23.4774 7.33827C24.2083 7.33827 24.8107 6.74568 24.8107 6.00494V1.33333C24.8107 0.602469 24.2182 0 23.4774 0C22.7367 0 22.1441 0.592593 22.1441 1.33333V6.00494C22.1441 6.74568 22.7465 7.33827 23.4774 7.33827ZM7.78358 23.0321C7.78358 22.3012 7.19099 21.6988 6.45025 21.6988H1.77865C1.04778 21.6988 0.445312 22.2914 0.445312 23.0321C0.445312 23.763 1.0379 24.3654 1.77865 24.3654H6.45025C7.19099 24.3654 7.78358 23.7728 7.78358 23.0321ZM45.1762 21.6988H40.5046C39.7737 21.6988 39.1712 22.2914 39.1712 23.0321C39.1712 23.763 39.7638 24.3654 40.5046 24.3654H45.1762C45.907 24.3654 46.5095 23.7728 46.5095 23.0321C46.5095 22.3012 45.9169 21.6988 45.1762 21.6988ZM10.4996 34.1333L7.19099 37.442C6.66753 37.9654 6.66753 38.8049 7.19099 39.3284C7.44778 39.5852 7.79346 39.7136 8.12926 39.7136C8.46507 39.7136 8.81074 39.5852 9.06753 39.3284L12.3762 36.0198C12.8996 35.4963 12.8996 34.6568 12.3762 34.1333C11.8626 33.6099 11.0132 33.6099 10.4996 34.1333ZM35.5169 12.3259C35.8527 12.3259 36.1984 12.1975 36.4552 11.9407L39.7638 8.6321C40.2873 8.10864 40.2873 7.26914 39.7638 6.74568C39.2404 6.22222 38.4009 6.22222 37.8774 6.74568L34.5688 10.0543C34.0453 10.5778 34.0453 11.4173 34.5688 11.9407C34.8354 12.1975 35.1712 12.3259 35.5169 12.3259ZM10.4996 11.9309C10.7564 12.1877 11.1021 12.316 11.4379 12.316C11.7737 12.316 12.1194 12.1877 12.3762 11.9309C12.8996 11.4074 12.8996 10.5679 12.3762 10.0444L9.06753 6.7358C8.54408 6.21235 7.70457 6.21235 7.18111 6.7358C6.65766 7.25926 6.65766 8.09877 7.18111 8.62222L10.4996 11.9309ZM36.4552 34.1333C35.9317 33.6099 35.0922 33.6099 34.5688 34.1333C34.0453 34.6568 34.0453 35.4963 34.5688 36.0198L37.8774 39.3284C38.1342 39.5852 38.4799 39.7136 38.8157 39.7136C39.1515 39.7136 39.4972 39.5852 39.754 39.3284C40.2774 38.8049 40.2774 37.9654 39.754 37.442L36.4552 34.1333Z" fill="#FFBF81"/>
</svg>
