<svg width="20" height="20" viewBox="0 0 20 20" fill="none" xmlns="http://www.w3.org/2000/svg">
<g clip-path="url(#clip0_1552_5806)">
<path d="M4.89014 12.9859C4.01126 12.174 3.34088 11.1624 2.93574 10.0367C2.5306 8.91089 2.40263 7.70408 2.56264 6.51838C2.72087 5.31609 3.16826 4.17011 3.86647 3.17864C4.56468 2.18717 5.49289 1.37978 6.57154 0.825685C7.65019 0.271588 8.84712 -0.0126966 10.0597 -0.00280204C11.2723 0.00709255 12.4645 0.310871 13.5339 0.882496C14.6034 1.45412 15.5183 2.27654 16.2002 3.27928C16.8822 4.28201 17.3108 5.43514 17.4494 6.63985C17.588 7.84455 17.4324 9.06489 16.9959 10.1963C16.5595 11.3277 15.8552 12.3363 14.9435 13.1359C14.3564 13.6406 13.9006 14.2803 13.6151 15H10.8335V9.01338C11.3192 8.84164 11.7401 8.52402 12.0384 8.10396C12.3367 7.6839 12.498 7.18193 12.5001 6.66671C12.5001 6.4457 12.4123 6.23373 12.2561 6.07745C12.0998 5.92117 11.8878 5.83338 11.6668 5.83338C11.4458 5.83338 11.2338 5.92117 11.0776 6.07745C10.9213 6.23373 10.8335 6.4457 10.8335 6.66671C10.8335 6.88772 10.7457 7.09968 10.5894 7.25596C10.4331 7.41224 10.2212 7.50004 10.0001 7.50004C9.77913 7.50004 9.56717 7.41224 9.41089 7.25596C9.25461 7.09968 9.16681 6.88772 9.16681 6.66671C9.16681 6.4457 9.07901 6.23373 8.92273 6.07745C8.76645 5.92117 8.55449 5.83338 8.33348 5.83338C8.11246 5.83338 7.9005 5.92117 7.74422 6.07745C7.58794 6.23373 7.50014 6.4457 7.50014 6.66671C7.50228 7.18193 7.66355 7.6839 7.96188 8.10396C8.26022 8.52402 8.68105 8.84164 9.16681 9.01338V15H6.30264C5.98406 14.2338 5.502 13.5464 4.89014 12.9859V12.9859ZM6.66681 16.6667V16.925C6.66769 17.7403 6.99195 18.5219 7.56843 19.0984C8.14491 19.6749 8.92654 19.9992 9.74181 20H10.2585C11.0737 19.9992 11.8554 19.6749 12.4319 19.0984C13.0083 18.5219 13.3326 17.7403 13.3335 16.925V16.6667H6.66681Z" fill="#374957"/>
</g>
<defs>
<clipPath id="clip0_1552_5806">
<rect width="20" height="20" fill="white"/>
</clipPath>
</defs>
</svg>
