<svg width="20" height="20" viewBox="0 0 20 20" fill="none" xmlns="http://www.w3.org/2000/svg">
<g clip-path="url(#clip0_1552_5574)">
<path d="M18.9776 6.4345C18.5868 5.98417 18.1039 5.62307 17.5614 5.37563C17.0189 5.1282 16.4296 5.00021 15.8334 5.00033H12.5092L12.7892 3.2995C12.8883 2.70055 12.7688 2.08595 12.4525 1.56778C12.1361 1.04962 11.6441 0.662429 11.0661 0.476828C10.4881 0.291227 9.86258 0.319586 9.30373 0.556731C8.74487 0.793876 8.28989 1.22401 8.02175 1.76867L6.66675 4.5145V17.5003H15.2501C16.253 17.4962 17.2211 17.1323 17.9782 16.4746C18.7354 15.817 19.2314 14.9094 19.3759 13.917L19.9634 9.75034C20.0465 9.15927 20.0014 8.55726 19.8313 7.98514C19.6612 7.41301 19.3701 6.88418 18.9776 6.4345Z" fill="#374957"/>
<path d="M0 9.16667V13.3333C0.00132321 14.438 0.440735 15.497 1.22185 16.2782C2.00296 17.0593 3.062 17.4987 4.16667 17.5H5V5H4.16667C3.062 5.00132 2.00296 5.44073 1.22185 6.22185C0.440735 7.00296 0.00132321 8.062 0 9.16667H0Z" fill="#374957"/>
</g>
<defs>
<clipPath id="clip0_1552_5574">
<rect width="20" height="20" fill="white"/>
</clipPath>
</defs>
</svg>
