<svg width="20" height="18" viewBox="0 0 20 18" fill="none" xmlns="http://www.w3.org/2000/svg">
<path d="M3 6H2C0.895431 6 0 6.89543 0 8V15C0 16.1046 0.895431 17 2 17H3C4.10457 17 5 16.1046 5 15V8C5 6.89543 4.10457 6 3 6Z" fill="white"/>
<path d="M13.8769 18H10.7111C9.92142 18 9.14939 17.7662 8.49232 17.3282L6.94532 16.2969C6.66712 16.1114 6.50002 15.7992 6.50002 15.4648V7.26556C6.50002 7.09154 6.54543 6.92052 6.63178 6.76943L10.5 0H11.6474C13.5769 0 14.7791 2.09303 13.8069 3.75968L12.5 6H17.4385C18.7396 6 19.6943 7.22278 19.3788 8.48507L17.7575 14.9701C17.3123 16.7508 15.7124 18 13.8769 18Z" fill="white"/>
</svg>
