<svg width="21" height="21" viewBox="0 0 21 21" fill="none" xmlns="http://www.w3.org/2000/svg">
<g clip-path="url(#clip0_1784_12266)">
<path d="M12.0379 15.1501L9.31955 17.8684C8.53032 18.6366 7.47039 19.0631 6.36909 19.0557C5.26779 19.0483 4.21367 18.6076 3.43481 17.829C2.65594 17.0504 2.21496 15.9964 2.20727 14.8951C2.19958 13.7938 2.6258 12.7337 3.39372 11.9443L6.11205 9.22345C6.26831 9.06708 6.35605 8.85504 6.35597 8.63399C6.35589 8.41293 6.268 8.20096 6.11163 8.0447C5.95527 7.88844 5.74323 7.8007 5.52217 7.80078C5.30111 7.80086 5.08914 7.88875 4.93288 8.04512L2.21538 10.7659C1.11728 11.8646 0.500586 13.3545 0.500977 14.9078C0.501367 16.4612 1.11881 17.9507 2.21747 19.0488C3.31613 20.147 4.80601 20.7636 6.35936 20.7633C7.91271 20.7629 9.40228 20.1454 10.5004 19.0468L13.2187 16.3284C13.3705 16.1713 13.4545 15.9608 13.4526 15.7423C13.4507 15.5238 13.3631 15.3148 13.2086 15.1603C13.0541 15.0057 12.845 14.9181 12.6266 14.9162C12.4081 14.9143 12.1976 14.9983 12.0404 15.1501H12.0379Z" fill="#A27070"/>
<path d="M18.7867 2.47826C18.2445 1.93228 17.5992 1.49933 16.8884 1.20451C16.1776 0.909691 15.4154 0.758862 14.6459 0.760763V0.760763C13.8768 0.75872 13.1149 0.909161 12.4043 1.20339C11.6937 1.49762 11.0484 1.92979 10.5059 2.47493L7.7834 5.1941C7.62703 5.35035 7.53914 5.56233 7.53906 5.78339C7.53898 6.00444 7.62672 6.21648 7.78298 6.37285C7.93924 6.52921 8.15121 6.6171 8.37227 6.61718C8.59333 6.61726 8.80536 6.52952 8.96173 6.37326L11.6826 3.65493C12.0705 3.26464 12.5321 2.95518 13.0404 2.74448C13.5488 2.53378 14.0939 2.42601 14.6442 2.42743V2.42743C15.4728 2.4277 16.2827 2.67362 16.9715 3.1341C17.6603 3.59457 18.1971 4.24893 18.5141 5.01445C18.8311 5.77997 18.914 6.62228 18.7523 7.43491C18.5907 8.24754 18.1917 8.994 17.6059 9.57993L14.8876 12.2983C14.7312 12.4546 14.6434 12.6667 14.6434 12.8878C14.6434 13.109 14.7312 13.3211 14.8876 13.4774C15.0439 13.6338 15.256 13.7216 15.4771 13.7216C15.6983 13.7216 15.9104 13.6338 16.0667 13.4774L18.7851 10.7608C19.8818 9.66168 20.4978 8.17252 20.4981 6.61986C20.4985 5.0672 19.883 3.57779 18.7867 2.47826V2.47826Z" fill="#A27070"/>
<path d="M12.4107 7.67143L7.41066 12.6714C7.33107 12.7483 7.26758 12.8402 7.22391 12.9419C7.18023 13.0436 7.15724 13.1529 7.15628 13.2636C7.15532 13.3742 7.1764 13.484 7.21831 13.5864C7.26021 13.6888 7.32208 13.7818 7.40033 13.8601C7.47857 13.9383 7.57161 14.0002 7.67403 14.0421C7.77644 14.084 7.88617 14.1051 7.99682 14.1041C8.10747 14.1032 8.21682 14.0802 8.31849 14.0365C8.42016 13.9928 8.51212 13.9293 8.58899 13.8497L13.589 8.84976C13.7408 8.69259 13.8248 8.48209 13.8229 8.26359C13.821 8.04509 13.7333 7.83608 13.5788 7.68158C13.4243 7.52707 13.2153 7.43943 12.9968 7.43753C12.7783 7.43563 12.5678 7.51963 12.4107 7.67143Z" fill="#A27070"/>
</g>
<defs>
<clipPath id="clip0_1784_12266">
<rect width="20" height="20" fill="white" transform="translate(0.5 0.760742)"/>
</clipPath>
</defs>
</svg>
