<svg width="20" height="20" viewBox="0 0 20 20" fill="none" xmlns="http://www.w3.org/2000/svg">
<g clip-path="url(#clip0_3253_862)">
<path d="M5.83333 5.00028H19.1667C19.3877 5.00028 19.5996 4.91248 19.7559 4.7562C19.9122 4.59992 20 4.38796 20 4.16695C20 3.94594 19.9122 3.73398 19.7559 3.5777C19.5996 3.42142 19.3877 3.33362 19.1667 3.33362H5.83333C5.61232 3.33362 5.40036 3.42142 5.24408 3.5777C5.0878 3.73398 5 3.94594 5 4.16695C5 4.38796 5.0878 4.59992 5.24408 4.7562C5.40036 4.91248 5.61232 5.00028 5.83333 5.00028Z" fill="#FBF8F8"/>
<path d="M19.1667 9.16638H5.83333C5.61232 9.16638 5.40036 9.25418 5.24408 9.41046C5.0878 9.56674 5 9.77871 5 9.99972C5 10.2207 5.0878 10.4327 5.24408 10.589C5.40036 10.7453 5.61232 10.8331 5.83333 10.8331H19.1667C19.3877 10.8331 19.5996 10.7453 19.7559 10.589C19.9122 10.4327 20 10.2207 20 9.99972C20 9.77871 19.9122 9.56674 19.7559 9.41046C19.5996 9.25418 19.3877 9.16638 19.1667 9.16638Z" fill="#FBF8F8"/>
<path d="M19.1667 15H5.83333C5.61232 15 5.40036 15.0878 5.24408 15.2441C5.0878 15.4004 5 15.6123 5 15.8333C5 16.0544 5.0878 16.2663 5.24408 16.4226C5.40036 16.5789 5.61232 16.6667 5.83333 16.6667H19.1667C19.3877 16.6667 19.5996 16.5789 19.7559 16.4226C19.9122 16.2663 20 16.0544 20 15.8333C20 15.6123 19.9122 15.4004 19.7559 15.2441C19.5996 15.0878 19.3877 15 19.1667 15Z" fill="#FBF8F8"/>
<path d="M1.66667 5.83333C2.58714 5.83333 3.33333 5.08714 3.33333 4.16666C3.33333 3.24619 2.58714 2.5 1.66667 2.5C0.746192 2.5 0 3.24619 0 4.16666C0 5.08714 0.746192 5.83333 1.66667 5.83333Z" fill="#FBF8F8"/>
<path d="M1.66667 11.6669C2.58714 11.6669 3.33333 10.9208 3.33333 10.0003C3.33333 9.07981 2.58714 8.33362 1.66667 8.33362C0.746192 8.33362 0 9.07981 0 10.0003C0 10.9208 0.746192 11.6669 1.66667 11.6669Z" fill="#FBF8F8"/>
<path d="M1.66667 17.4997C2.58714 17.4997 3.33333 16.7535 3.33333 15.833C3.33333 14.9126 2.58714 14.1664 1.66667 14.1664C0.746192 14.1664 0 14.9126 0 15.833C0 16.7535 0.746192 17.4997 1.66667 17.4997Z" fill="#FBF8F8"/>
</g>
<defs>
<clipPath id="clip0_3253_862">
<rect width="20" height="20" fill="white"/>
</clipPath>
</defs>
</svg>
