<svg width="20" height="20" viewBox="0 0 20 20" fill="none" xmlns="http://www.w3.org/2000/svg">
<g clip-path="url(#clip0_1552_5681)">
<path d="M17.4996 0H13.3423C12.8831 0 12.5108 0.372266 12.5108 0.831445C12.5108 1.29062 12.8831 1.66289 13.3423 1.66289H17.1553L11.4748 7.3434C8.40053 4.9184 3.94249 5.44477 1.51749 8.51906C-0.907514 11.5934 -0.381108 16.0514 2.69319 18.4764C5.76749 20.9014 10.2255 20.375 12.6505 17.3007C14.6816 14.7259 14.6816 11.094 12.6505 8.5191L18.331 2.83859V6.65164C18.331 7.11086 18.7033 7.48309 19.1624 7.48309C19.6216 7.48309 19.9939 7.11082 19.9939 6.65164V2.49437C19.9939 1.11676 18.8771 0 17.4996 0Z" fill="#374957"/>
</g>
<defs>
<clipPath id="clip0_1552_5681">
<rect width="20" height="20" fill="white"/>
</clipPath>
</defs>
</svg>
