<svg width="20" height="20" viewBox="0 0 20 20" fill="none" xmlns="http://www.w3.org/2000/svg">
<g clip-path="url(#clip0_1552_5677)">
<path d="M11.6667 9.16667C11.6666 7.90861 11.2571 6.68475 10.5 5.68L13.3334 2.84667V4.16667C13.3334 4.38768 13.4212 4.59964 13.5774 4.75592C13.7337 4.9122 13.9457 5 14.1667 5C14.3877 5 14.5997 4.9122 14.7559 4.75592C14.9122 4.59964 15 4.38768 15 4.16667V1.66667C15 1.22464 14.8244 0.800716 14.5119 0.488155C14.1993 0.175595 13.7754 0 13.3334 0L10.8334 0C10.6123 0 10.4004 0.0877974 10.2441 0.244078C10.0878 0.400358 10 0.61232 10 0.833333C10 1.05435 10.0878 1.26631 10.2441 1.42259C10.4004 1.57887 10.6123 1.66667 10.8334 1.66667H12.155L9.32169 4.5C8.26977 3.71622 6.98411 3.31039 5.67285 3.34822C4.36158 3.38605 3.10146 3.86532 2.09648 4.70845C1.0915 5.55158 0.400485 6.7092 0.1353 7.99393C-0.129884 9.27866 0.0462846 10.6153 0.635287 11.7874C1.22429 12.9596 2.19165 13.8986 3.38077 14.4526C4.56988 15.0065 5.91115 15.1429 7.18744 14.8397C8.46373 14.5365 9.60033 13.8114 10.4132 12.7818C11.2262 11.7523 11.6678 10.4785 11.6667 9.16667V9.16667Z" fill="#374957"/>
<path d="M18.3334 5H15.8334C15.6124 5 15.4004 5.0878 15.2441 5.24408C15.0878 5.40036 15 5.61232 15 5.83333C15 6.05435 15.0878 6.26631 15.2441 6.42259C15.4004 6.57887 15.6124 6.66666 15.8334 6.66666H17.155L14.3109 9.51083C14.002 9.27371 13.67 9.06823 13.32 8.89749C13.32 8.98749 13.3334 9.07583 13.3334 9.16666C13.3312 11.1551 12.5403 13.0615 11.1342 14.4675C9.72819 15.8736 7.82182 16.6644 5.83338 16.6666C5.74254 16.6666 5.65421 16.6558 5.56421 16.6533C6.12832 17.8528 7.08443 18.8241 8.27482 19.4071C9.46521 19.9902 10.8188 20.15 12.1122 19.8603C13.4057 19.5706 14.5617 18.8487 15.3897 17.8136C16.2177 16.7785 16.6681 15.4921 16.6667 14.1667C16.6642 12.9098 16.2513 11.6882 15.4909 10.6875L18.3334 7.845V9.16666C18.3334 9.38767 18.4212 9.59963 18.5775 9.75591C18.7337 9.91219 18.9457 9.99999 19.1667 9.99999C19.3877 9.99999 19.5997 9.91219 19.756 9.75591C19.9122 9.59963 20 9.38767 20 9.16666V6.66666C20 6.22464 19.8244 5.80071 19.5119 5.48815C19.1993 5.17559 18.7754 5 18.3334 5V5Z" fill="#374957"/>
</g>
<defs>
<clipPath id="clip0_1552_5677">
<rect width="20" height="20" fill="white"/>
</clipPath>
</defs>
</svg>
