<svg width="20" height="20" viewBox="0 0 20 20" fill="none" xmlns="http://www.w3.org/2000/svg">
<g clip-path="url(#clip0_1552_5714)">
<path d="M20.0001 9.58366C20 10.3237 19.7186 11.036 19.213 11.5764C18.7073 12.1167 18.0152 12.4446 17.2767 12.4937C16.4346 14.2557 15.0535 15.7039 13.3334 16.6287V19.167C13.3334 19.388 13.2456 19.6 13.0893 19.7563C12.9331 19.9125 12.7211 20.0003 12.5001 20.0003H7.50008C7.27907 20.0003 7.06711 19.9125 6.91083 19.7563C6.75455 19.6 6.66675 19.388 6.66675 19.167V16.6278C5.06094 15.7536 3.74542 14.4294 2.88175 12.8178C2.78008 12.6216 2.76054 12.393 2.82743 12.1823C2.89432 11.9716 3.04215 11.7962 3.23842 11.6945C3.43468 11.5928 3.66328 11.5733 3.87395 11.6402C4.08462 11.7071 4.26008 11.8549 4.36175 12.0512C5.33342 13.9312 7.58341 15.8337 10.0001 15.8337C12.6076 15.8337 15.1767 13.5178 15.9401 11.3537C16.0051 11.1671 16.1346 11.0099 16.3053 10.9104C16.4759 10.8109 16.6766 10.7757 16.8709 10.8112C16.941 10.8243 17.0121 10.8318 17.0834 10.8337C17.3928 10.83 17.6897 10.7117 17.9169 10.5017C18.1441 10.2917 18.2854 10.0049 18.3134 9.69684C18.3413 9.38875 18.2541 9.08121 18.0685 8.83373C17.8828 8.58624 17.612 8.41638 17.3084 8.35699C17.1312 8.32487 16.9692 8.23623 16.8466 8.10433C16.7241 7.97244 16.6475 7.80438 16.6284 7.62533C16.5182 6.57123 16.157 5.55888 15.5752 4.67302C14.9934 3.78716 14.2078 3.05357 13.2842 2.53366C13.0487 3.27153 12.7335 3.98155 12.3442 4.65116C11.2626 6.18461 9.85142 7.45653 8.21425 8.37366C8.46389 8.43479 8.68862 8.57138 8.85783 8.76484C9.02704 8.95829 9.1325 9.19921 9.15985 9.45476C9.18721 9.71032 9.13512 9.9681 9.01068 10.193C8.88625 10.4179 8.69552 10.5989 8.46447 10.7115C8.23342 10.8241 7.97328 10.8627 7.7195 10.8221C7.46571 10.7815 7.2306 10.6637 7.0462 10.4846C6.8618 10.3056 6.73708 10.0741 6.68901 9.82157C6.64094 9.56909 6.67187 9.30793 6.77758 9.07366C4.8616 9.84952 2.78992 10.1635 0.730082 9.99033C0.558392 9.96732 0.39814 9.89137 0.271613 9.77306C0.145086 9.65475 0.0585737 9.49994 0.0241079 9.33018C-0.0103578 9.16042 0.00893612 8.98414 0.0793064 8.82585C0.149677 8.66756 0.267625 8.53514 0.416748 8.44699C0.920525 7.87541 1.2954 7.20212 1.51592 6.47283C2.60342 3.89533 4.25008 0.000325593 10.0001 0.000325593C11.9621 -0.00402095 13.8623 0.685757 15.3647 1.94762C16.8671 3.20948 17.8747 4.96208 18.2092 6.89533C18.7394 7.11716 19.1922 7.49066 19.5108 7.96894C19.8294 8.44722 19.9996 9.00897 20.0001 9.58366ZM13.3334 9.58366C13.3334 9.33643 13.2601 9.09476 13.1228 8.8892C12.9854 8.68364 12.7902 8.52342 12.5618 8.42881C12.3334 8.3342 12.082 8.30945 11.8396 8.35768C11.5971 8.40591 11.3743 8.52496 11.1995 8.69978C11.0247 8.87459 10.9057 9.09732 10.8574 9.3398C10.8092 9.58227 10.834 9.83361 10.9286 10.062C11.0232 10.2904 11.1834 10.4856 11.389 10.623C11.5945 10.7603 11.8362 10.8337 12.0834 10.8337C12.4149 10.8337 12.7329 10.702 12.9673 10.4675C13.2017 10.2331 13.3334 9.91518 13.3334 9.58366Z" fill="#374957"/>
</g>
<defs>
<clipPath id="clip0_1552_5714">
<rect width="20" height="20" fill="white"/>
</clipPath>
</defs>
</svg>
