<svg width="20" height="20" viewBox="0 0 20 20" fill="none" xmlns="http://www.w3.org/2000/svg">
<g clip-path="url(#clip0_1552_5601)">
<path d="M5.8333 19.9115C5.68503 19.8863 5.53838 19.8524 5.39413 19.8098L3.0033 19.0598C2.13872 18.8058 1.37945 18.2791 0.838788 17.5582C0.298123 16.8373 0.00504723 15.9609 0.0032959 15.0598V4.99984C0.00416242 4.31488 0.173881 3.64069 0.497428 3.03696C0.820975 2.43323 1.28837 1.91857 1.85825 1.53854C2.42812 1.15852 3.08289 0.924844 3.76461 0.858208C4.44632 0.791572 5.13395 0.894028 5.76663 1.15651L5.8333 1.18734V19.9115ZM17.2333 0.97234L17.2158 0.966506L14.9533 0.216506C14.6973 0.13349 14.4338 0.0757148 14.1666 0.0440063V18.5957L15.8783 19.089C16.3687 19.2084 16.8799 19.2148 17.3732 19.1078C17.8665 19.0008 18.3291 18.7832 18.726 18.4713C19.1229 18.1595 19.4438 17.7616 19.6645 17.3076C19.8852 16.8536 19.9999 16.3554 20 15.8507V4.89651C19.9987 4.0372 19.7323 3.19922 19.2372 2.49692C18.742 1.79462 18.0422 1.2622 17.2333 0.97234V0.97234ZM12.5 0.158173C12.5 0.158173 7.6308 1.55234 7.49996 1.56651V19.8998C7.5833 19.8823 12.5 18.5365 12.5 18.5365V0.158173Z" fill="#374957"/>
</g>
<defs>
<clipPath id="clip0_1552_5601">
<rect width="20" height="20" fill="white"/>
</clipPath>
</defs>
</svg>
