<svg width="20" height="20" viewBox="0 0 20 20" fill="none" xmlns="http://www.w3.org/2000/svg">
<g clip-path="url(#clip0_1552_5604)">
<path d="M9.9999 5.00004C9.17581 5.00004 8.37023 5.24441 7.68502 5.70225C6.99982 6.16009 6.46577 6.81084 6.1504 7.5722C5.83504 8.33356 5.75252 9.17133 5.91329 9.97959C6.07407 10.7878 6.4709 11.5303 7.05362 12.113C7.63634 12.6957 8.37877 13.0925 9.18702 13.2533C9.99528 13.4141 10.8331 13.3316 11.5944 13.0162C12.3558 12.7008 13.0065 12.1668 13.4644 11.4816C13.9222 10.7964 14.1666 9.9908 14.1666 9.16671C14.1652 8.06205 13.7258 7.00301 12.9447 6.22189C12.1636 5.44078 11.1046 5.00137 9.9999 5.00004V5.00004ZM11.4224 10.5892C11.2661 10.7454 11.0542 10.8332 10.8332 10.8332C10.6123 10.8332 10.4003 10.7454 10.2441 10.5892L9.41073 9.75588C9.25444 9.59963 9.16661 9.38771 9.16657 9.16671V7.50004C9.16657 7.27903 9.25436 7.06707 9.41064 6.91079C9.56692 6.75451 9.77889 6.66671 9.9999 6.66671C10.2209 6.66671 10.4329 6.75451 10.5892 6.91079C10.7454 7.06707 10.8332 7.27903 10.8332 7.50004V8.82171L11.4224 9.41088C11.5786 9.56715 11.6664 9.77907 11.6664 10C11.6664 10.221 11.5786 10.4329 11.4224 10.5892ZM16.4807 2.68504C15.6321 1.81712 14.6196 1.12639 13.5019 0.652932C12.3842 0.179472 11.1836 -0.0672844 9.96973 -0.0730179C8.7559 -0.0787513 7.55301 0.156653 6.43088 0.619533C5.30876 1.08241 4.28974 1.76355 3.43296 2.62341C2.57619 3.48328 1.89873 4.50474 1.43989 5.62853C0.981052 6.75231 0.74998 7.95604 0.760083 9.16985C0.770187 10.3837 1.02126 11.5834 1.49874 12.6994C1.97622 13.8153 2.6706 14.8254 3.54157 15.6709L6.82657 18.7067C7.67159 19.533 8.80566 19.997 9.98752 19.9999C11.1694 20.0029 12.3058 19.5446 13.1549 18.7225L16.4807 15.6484C18.1997 13.9293 19.1654 11.5978 19.1654 9.16671C19.1654 6.73563 18.1997 4.40411 16.4807 2.68504V2.68504ZM9.9999 15C8.84617 15 7.71836 14.6579 6.75907 14.017C5.79979 13.376 5.05211 12.4649 4.6106 11.399C4.16909 10.3331 4.05357 9.16024 4.27865 8.02868C4.50373 6.89713 5.0593 5.85773 5.87511 5.04192C6.69092 4.22611 7.73032 3.67054 8.86187 3.44546C9.99343 3.22038 11.1663 3.3359 12.2322 3.77741C13.2981 4.21892 14.2092 4.9666 14.8501 5.92588C15.4911 6.88517 15.8332 8.01299 15.8332 9.16671C15.8315 10.7133 15.2163 12.196 14.1227 13.2896C13.0292 14.3831 11.5465 14.9983 9.9999 15V15Z" fill="#374957"/>
</g>
<defs>
<clipPath id="clip0_1552_5604">
<rect width="20" height="20" fill="white"/>
</clipPath>
</defs>
</svg>
