<svg width="22" height="28" viewBox="0 0 22 28" fill="none" xmlns="http://www.w3.org/2000/svg">
<path d="M10.7394 0.784668C4.80844 0.784668 0 5.61842 0 11.581C0 19.6778 10.7394 27.7752 10.7394 27.7752C10.7394 27.7752 21.4789 19.6778 21.4789 11.581C21.4789 5.61842 16.6705 0.784668 10.7394 0.784668Z" fill="#FF6400"/>
<path d="M16.8265 10.5622C16.824 11.2022 16.3036 11.7192 15.6637 11.7175C15.0237 11.7158 14.506 11.1961 14.5069 10.5561C14.5078 9.91611 15.0269 9.39778 15.6668 9.39785C16.3083 9.39993 16.827 9.92077 16.8265 10.5622ZM5.89563 9.39784C5.42413 9.39586 4.99794 9.67837 4.81615 10.1134C4.63436 10.5485 4.73283 11.0502 5.06556 11.3843C5.3983 11.7184 5.89965 11.8189 6.33543 11.6388C6.77121 11.4588 7.05543 11.0337 7.05534 10.5622C7.05597 9.92072 6.53713 9.3998 5.89563 9.39784ZM13.9399 12.8236C13.7593 12.8137 13.5823 12.8763 13.4482 12.9976C13.4363 13.0081 12.4587 13.8571 10.886 13.8571C9.31037 13.8571 8.10495 12.887 8.09446 12.8784C7.95551 12.7623 7.77605 12.7064 7.59578 12.723C7.41551 12.7397 7.2493 12.8275 7.13394 12.967C6.89334 13.2581 6.93239 13.6887 7.22141 13.9317C7.38142 14.0642 8.84318 15.2267 10.886 15.2267C12.9915 15.2267 14.3044 14.067 14.3592 14.0175C14.6393 13.7646 14.663 13.333 14.4122 13.051C14.2916 12.915 14.1214 12.833 13.9399 12.8236Z" fill="#11100D"/>
</svg>
