<svg width="20" height="20" viewBox="0 0 20 20" fill="none" xmlns="http://www.w3.org/2000/svg">
<g clip-path="url(#clip0_1552_5562)">
<path d="M7.5 10C10.2614 10 12.5 7.76142 12.5 5C12.5 2.23858 10.2614 0 7.5 0C4.73858 0 2.5 2.23858 2.5 5C2.5 7.76142 4.73858 10 7.5 10Z" fill="#374957"/>
<path d="M7.5 11.6664C5.51162 11.6688 3.60538 12.4598 2.19938 13.8658C0.793381 15.2717 0.0024258 17.178 0 19.1664C0 19.3874 0.0877974 19.5993 0.244078 19.7556C0.400358 19.9119 0.61232 19.9997 0.833333 19.9997H14.1667C14.3877 19.9997 14.5996 19.9119 14.7559 19.7556C14.9122 19.5993 15 19.3874 15 19.1664C14.9976 17.178 14.2066 15.2717 12.8006 13.8658C11.3946 12.4598 9.48838 11.6688 7.5 11.6664Z" fill="#374957"/>
<path d="M18.3332 6.5625C17.8694 6.5856 17.4337 6.79147 17.1214 7.13506C16.809 7.47864 16.6455 7.93197 16.6666 8.39583C16.6876 7.93197 16.5241 7.47864 16.2117 7.13506C15.8994 6.79147 15.4637 6.5856 14.9999 6.5625C14.5361 6.5856 14.1004 6.79147 13.788 7.13506C13.4757 7.47864 13.3122 7.93197 13.3332 8.39583C13.3332 9.8375 15.2132 11.5267 16.1499 12.2783C16.2965 12.3957 16.4787 12.4597 16.6666 12.4597C16.8544 12.4597 17.0366 12.3957 17.1832 12.2783C18.1199 11.5283 19.9999 9.8375 19.9999 8.39583C20.0209 7.93197 19.8574 7.47864 19.5451 7.13506C19.2327 6.79147 18.797 6.5856 18.3332 6.5625Z" fill="#374957"/>
</g>
<defs>
<clipPath id="clip0_1552_5562">
<rect width="20" height="20" fill="white"/>
</clipPath>
</defs>
</svg>
