<svg width="20" height="20" viewBox="0 0 20 20" fill="none" xmlns="http://www.w3.org/2000/svg">
<g clip-path="url(#clip0_1552_5735)">
<path d="M14.1668 8.33327C13.0131 8.33327 11.8853 8.67539 10.926 9.31637C9.96673 9.95734 9.21905 10.8684 8.77754 11.9343C8.33603 13.0002 8.22051 14.1731 8.44559 15.3046C8.67067 16.4362 9.22624 17.4756 10.0421 18.2914C10.8579 19.1072 11.8973 19.6628 13.0288 19.8879C14.1604 20.1129 15.3333 19.9974 16.3992 19.5559C17.4651 19.1144 18.3761 18.3667 19.0171 17.4074C19.6581 16.4481 20.0002 15.3203 20.0002 14.1666C19.9984 12.6201 19.3833 11.1373 18.2897 10.0438C17.1961 8.95019 15.7134 8.33504 14.1668 8.33327ZM16.4227 16.4224C16.2664 16.5787 16.0545 16.6664 15.8335 16.6664C15.6125 16.6664 15.4006 16.5787 15.2443 16.4224L13.5777 14.7558C13.4214 14.5995 13.3336 14.3876 13.3335 14.1666V11.6666C13.3335 11.4456 13.4213 11.2336 13.5776 11.0774C13.7339 10.9211 13.9458 10.8333 14.1668 10.8333C14.3879 10.8333 14.5998 10.9211 14.7561 11.0774C14.9124 11.2336 15.0002 11.4456 15.0002 11.6666V13.8216L16.4227 15.2441C16.5789 15.4004 16.6667 15.6123 16.6667 15.8333C16.6667 16.0542 16.5789 16.2662 16.4227 16.4224ZM7.06184 9.16661C6.15534 9.16661 5.2692 8.8978 4.51548 8.39418C3.76175 7.89055 3.17429 7.17473 2.82739 6.33724C2.48049 5.49975 2.38972 4.57819 2.56657 3.68911C2.74342 2.80003 3.17994 1.98336 3.82093 1.34237C4.46192 0.701378 5.2786 0.264857 6.16768 0.0880085C7.05676 -0.0888404 7.97831 0.00192487 8.81581 0.348826C9.6533 0.695728 10.3691 1.28319 10.8727 2.03691C11.3764 2.79064 11.6452 3.67678 11.6452 4.58327C11.6438 5.79844 11.1605 6.96346 10.3013 7.82272C9.44203 8.68197 8.27701 9.16528 7.06184 9.16661ZM9.46351 19.9999H0.833506C0.723295 19.9999 0.614178 19.9781 0.512471 19.9356C0.410765 19.8932 0.318489 19.831 0.240985 19.7526C0.163482 19.6743 0.102292 19.5813 0.0609558 19.4792C0.0196199 19.377 -0.00103982 19.2676 0.000172493 19.1574C-0.0036659 17.4286 0.515953 15.739 1.49067 14.3111C2.46538 12.8831 3.84953 11.7837 5.46101 11.1574C6.10094 10.9301 6.77706 10.8216 7.45601 10.8374C7.32187 11.1066 7.20388 11.3834 7.10267 11.6666C6.81408 12.4685 6.66663 13.3144 6.66684 14.1666C6.66712 15.2862 6.91851 16.3914 7.40252 17.401C7.88652 18.4105 8.5908 19.2986 9.46351 19.9999Z" fill="#374957"/>
</g>
<defs>
<clipPath id="clip0_1552_5735">
<rect width="20" height="20" fill="white"/>
</clipPath>
</defs>
</svg>
