<svg width="20" height="20" viewBox="0 0 20 20" fill="none" xmlns="http://www.w3.org/2000/svg">
<g clip-path="url(#clip0_1552_5729)">
<path d="M20 10C20 10.221 19.9122 10.433 19.7559 10.5893C19.5996 10.7455 19.3877 10.8333 19.1667 10.8333H14.1667C13.9457 10.8333 13.7337 10.7455 13.5774 10.5893C13.4211 10.433 13.3333 10.221 13.3333 10C13.3333 9.77899 13.4211 9.56703 13.5774 9.41075C13.7337 9.25447 13.9457 9.16667 14.1667 9.16667H19.1667C19.3877 9.16667 19.5996 9.25447 19.7559 9.41075C19.9122 9.56703 20 9.77899 20 10ZM7.5 10C8.48891 10 9.45561 9.70676 10.2779 9.15735C11.1001 8.60794 11.741 7.82705 12.1194 6.91342C12.4978 5.99979 12.5969 4.99446 12.4039 4.02455C12.211 3.05465 11.7348 2.16373 11.0355 1.46447C10.3363 0.765206 9.44536 0.289002 8.47545 0.0960758C7.50555 -0.0968503 6.50021 0.00216643 5.58658 0.380605C4.67295 0.759043 3.89206 1.39991 3.34265 2.22215C2.79324 3.0444 2.5 4.0111 2.5 5C2.50132 6.32568 3.02853 7.59668 3.96593 8.53407C4.90332 9.47147 6.17432 9.99868 7.5 10ZM7.5 11.6667C5.51155 11.6689 3.60518 12.4598 2.19914 13.8658C0.79309 15.2718 0.00220571 17.1782 0 19.1667C0 19.3877 0.0877974 19.5996 0.244078 19.7559C0.400358 19.9122 0.61232 20 0.833333 20H14.1667C14.3877 20 14.5996 19.9122 14.7559 19.7559C14.9122 19.5996 15 19.3877 15 19.1667C14.9978 17.1782 14.2069 15.2718 12.8009 13.8658C11.3948 12.4598 9.48845 11.6689 7.5 11.6667Z" fill="#374957"/>
</g>
<defs>
<clipPath id="clip0_1552_5729">
<rect width="20" height="20" fill="white"/>
</clipPath>
</defs>
</svg>
