<svg width="20" height="20" viewBox="0 0 20 20" fill="none" xmlns="http://www.w3.org/2000/svg">
<g clip-path="url(#clip0_1552_5617)">
<path d="M19.1667 9.1663C18.9457 9.1663 18.7337 9.0785 18.5774 8.92222C18.4211 8.76594 18.3333 8.55398 18.3333 8.33297C18.3316 6.5654 17.6286 4.87073 16.3788 3.62087C15.1289 2.37101 13.4342 1.66807 11.6667 1.6663C11.4457 1.6663 11.2337 1.5785 11.0774 1.42222C10.9211 1.26594 10.8333 1.05398 10.8333 0.832969C10.8333 0.611955 10.9211 0.399993 11.0774 0.243713C11.2337 0.0874327 11.4457 -0.000364667 11.6667 -0.000364667C13.8761 0.00206166 15.9943 0.880815 17.5565 2.44309C19.1188 4.00537 19.9976 6.12358 20 8.33297C20 8.55398 19.9122 8.76594 19.7559 8.92222C19.5996 9.0785 19.3877 9.1663 19.1667 9.1663ZM16.6667 8.33297C16.6667 7.00689 16.1399 5.73512 15.2022 4.79744C14.2645 3.85975 12.9928 3.33297 11.6667 3.33297C11.4457 3.33297 11.2337 3.42077 11.0774 3.57705C10.9211 3.73333 10.8333 3.94529 10.8333 4.1663C10.8333 4.38732 10.9211 4.59928 11.0774 4.75556C11.2337 4.91184 11.4457 4.99964 11.6667 4.99964C12.5507 4.99964 13.3986 5.35082 14.0237 5.97595C14.6488 6.60107 15 7.44891 15 8.33297C15 8.55398 15.0878 8.76594 15.2441 8.92222C15.4004 9.0785 15.6123 9.1663 15.8333 9.1663C16.0543 9.1663 16.2663 9.0785 16.4226 8.92222C16.5789 8.76594 16.6667 8.55398 16.6667 8.33297ZM18.4858 18.4696L19.2442 17.5955C19.7268 17.1112 19.9979 16.4554 19.9979 15.7717C19.9979 15.088 19.7268 14.4322 19.2442 13.948C19.2183 13.9221 17.2133 12.3796 17.2133 12.3796C16.7321 11.9216 16.0929 11.6665 15.4286 11.6675C14.7642 11.6684 14.1258 11.9252 13.6458 12.3846L12.0575 13.723C10.761 13.1864 9.58324 12.399 8.59191 11.4059C7.60057 10.4129 6.81518 9.23375 6.28084 7.9363L7.61417 6.35297C8.07393 5.87311 8.33108 5.23453 8.33217 4.56997C8.33326 3.90541 8.07819 3.26599 7.62 2.78464C7.62 2.78464 6.07584 0.782135 6.05 0.756302C5.57455 0.277759 4.9299 0.00548701 4.25536 -0.00168568C3.58081 -0.00885837 2.93053 0.249644 2.445 0.717969L1.48667 1.5513C-4.175 8.11964 8.01667 20.2171 14.8017 19.9996C15.4868 20.0036 16.1658 19.8703 16.7986 19.6075C17.4314 19.3447 18.0051 18.9578 18.4858 18.4696V18.4696Z" fill="#374957"/>
</g>
<defs>
<clipPath id="clip0_1552_5617">
<rect width="20" height="20" fill="white"/>
</clipPath>
</defs>
</svg>
