<svg width="20" height="20" viewBox="0 0 20 20" fill="none" xmlns="http://www.w3.org/2000/svg">
<g clip-path="url(#clip0_1552_5621)">
<path d="M16.6667 5.83316V0.833157C16.6667 0.612144 16.7545 0.400182 16.9107 0.243902C17.067 0.0876215 17.279 -0.000175861 17.5 -0.000175861C17.721 -0.000175861 17.933 0.0876215 18.0893 0.243902C18.2455 0.400182 18.3333 0.612144 18.3333 0.833157V5.83316C18.3333 6.05417 18.2455 6.26613 18.0893 6.42241C17.933 6.57869 17.721 6.66649 17.5 6.66649C17.279 6.66649 17.067 6.57869 16.9107 6.42241C16.7545 6.26613 16.6667 6.05417 16.6667 5.83316ZM14.1667 6.66649C14.3877 6.66649 14.5996 6.57869 14.7559 6.42241C14.9122 6.26613 15 6.05417 15 5.83316V0.833157C15 0.612144 14.9122 0.400182 14.7559 0.243902C14.5996 0.0876215 14.3877 -0.000175861 14.1667 -0.000175861C13.9456 -0.000175861 13.7337 0.0876215 13.5774 0.243902C13.4211 0.400182 13.3333 0.612144 13.3333 0.833157V5.83316C13.3333 6.05417 13.4211 6.26613 13.5774 6.42241C13.7337 6.57869 13.9456 6.66649 14.1667 6.66649ZM19.245 13.9482C19.22 13.9223 17.2142 12.379 17.2142 12.379C16.7328 11.9206 16.0932 11.6653 15.4284 11.6664C14.7637 11.6675 14.1249 11.9248 13.645 12.3848L12.0617 13.7232C10.7642 13.187 9.58557 12.3997 8.59348 11.4065C7.60139 10.4133 6.81544 9.23371 6.28083 7.93566L7.61416 6.35232C8.07321 5.87234 8.32976 5.23399 8.33053 4.56982C8.33131 3.90566 8.07625 3.26672 7.61833 2.78566C7.61833 2.78566 6.07666 0.783157 6.05 0.757324C5.57483 0.27802 4.93 0.00516282 4.25512 -0.00216774C3.58024 -0.0094983 2.92963 0.249288 2.44416 0.718157L1.48666 1.55149C-4.9475 8.39232 11.6533 25.0007 18.4867 18.4682L19.2467 17.5932C19.7281 17.1088 19.9982 16.4536 19.9979 15.7707C19.9976 15.0878 19.7269 14.4329 19.245 13.949V13.9482Z" fill="#374957"/>
</g>
<defs>
<clipPath id="clip0_1552_5621">
<rect width="20" height="20" fill="white"/>
</clipPath>
</defs>
</svg>
