<svg width="20" height="20" viewBox="0 0 20 20" fill="none" xmlns="http://www.w3.org/2000/svg">
<g clip-path="url(#clip0_1552_5618)">
<path d="M19.7576 6.08307C19.909 6.24066 19.9924 6.45142 19.99 6.66994C19.9875 6.88847 19.8992 7.09727 19.7443 7.25136C19.5893 7.40545 19.38 7.4925 19.1615 7.49376C18.9429 7.49501 18.7326 7.41037 18.5759 7.25807L16.2501 4.9289L13.9167 7.26224C13.8407 7.34683 13.7482 7.41497 13.6448 7.46245C13.5415 7.50993 13.4295 7.53575 13.3158 7.53832C13.202 7.54088 13.089 7.52014 12.9836 7.47737C12.8782 7.4346 12.7827 7.37071 12.7029 7.28963C12.6231 7.20855 12.5608 7.112 12.5198 7.00592C12.4787 6.89984 12.4598 6.78648 12.4642 6.67282C12.4687 6.55916 12.4963 6.44761 12.5455 6.34504C12.5946 6.24247 12.6643 6.15105 12.7501 6.0764L15.0717 3.74974L12.7426 1.42224C12.6592 1.34611 12.5922 1.25384 12.5456 1.15103C12.499 1.04823 12.4738 0.937023 12.4715 0.82417C12.4691 0.711316 12.4898 0.599166 12.5321 0.494523C12.5744 0.38988 12.6375 0.294925 12.7177 0.215421C12.7978 0.135916 12.8932 0.0735179 12.9982 0.0320128C13.1032 -0.00949227 13.2155 -0.0292393 13.3283 -0.0260303C13.4411 -0.0228213 13.5521 0.00327684 13.6546 0.0506808C13.757 0.0980848 13.8488 0.165806 13.9242 0.249737L16.2501 2.57307L18.5834 0.243903C18.7429 0.104102 18.9497 0.0303805 19.1617 0.0377631C19.3737 0.0451456 19.5749 0.133076 19.7242 0.283636C19.8736 0.434196 19.96 0.636055 19.9657 0.848077C19.9715 1.0601 19.8961 1.26633 19.7551 1.42474L17.4284 3.74974L19.7576 6.08307ZM17.2126 12.3831C16.7314 11.9253 16.0924 11.6704 15.4282 11.6713C14.7641 11.6722 14.1258 11.9289 13.6459 12.3881L12.0576 13.7264C10.7607 13.1896 9.58269 12.4016 8.59133 11.408C7.59996 10.4143 6.81478 9.23454 6.28092 7.9364L7.61425 6.35307C8.07341 5.87319 8.33011 5.2349 8.33104 4.57074C8.33197 3.90658 8.07706 3.26757 7.61925 2.7864C7.61925 2.7864 6.07592 0.782237 6.05092 0.75557C5.57507 0.27712 4.93019 0.00494196 4.25543 -0.00222964C3.58068 -0.00940124 2.93016 0.249009 2.44425 0.717237L1.48675 1.55057C-4.94658 8.3914 11.6534 24.9989 18.4867 18.4672L19.2467 17.5931C19.7297 17.1088 20.0009 16.4528 20.0009 15.7689C20.0009 15.085 19.7297 14.429 19.2467 13.9447C19.2192 13.9231 17.2126 12.3797 17.2126 12.3797V12.3831Z" fill="#374957"/>
</g>
<defs>
<clipPath id="clip0_1552_5618">
<rect width="20" height="20" fill="white"/>
</clipPath>
</defs>
</svg>
