<svg width="20" height="20" viewBox="0 0 20 20" fill="none" xmlns="http://www.w3.org/2000/svg">
<g clip-path="url(#clip0_1552_5799)">
<path d="M2.50007 5.2125V1.74082C2.48054 0.800234 3.22616 0.0214062 4.16675 0H7.50007C7.98077 0 8.3705 0.389688 8.3705 0.87043C8.3705 1.35117 7.98081 1.74086 7.50007 1.74086H5.36589L10.2876 6.88918C10.3214 6.92551 10.3688 6.94605 10.4184 6.94586C10.4677 6.94648 10.5149 6.92621 10.5484 6.89004L16.2867 0.9075C17.0884 0.0991797 18.2234 1.35918 17.4651 2.13668L11.7276 8.11668C11.3876 8.47684 10.9145 8.68117 10.4192 8.68168C9.92312 8.68066 9.44933 8.47543 9.10925 8.11418L4.16675 2.94418V5.2125C4.16675 5.67273 3.79366 6.04582 3.33343 6.04582C2.87319 6.04582 2.50007 5.67273 2.50007 5.2125ZM18.7042 13.3792C14.9634 9.48086 5.03757 9.48 1.29675 13.3792C0.451553 14.2598 -0.0140719 15.437 6.87666e-05 16.6575L0.0675688 17.6358C0.0428813 18.9134 1.05593 19.9704 2.33339 20C2.37007 20 4.43589 19.72 4.43589 19.72C5.66726 19.6598 6.63651 18.647 6.64257 17.4142L6.77425 15.8492C7.79777 15.4276 8.89315 15.208 10.0001 15.2025C11.1078 15.2185 12.2028 15.4406 13.2292 15.8575L13.3592 17.4142C13.3653 18.647 14.3345 19.6598 15.5659 19.72C15.5659 19.72 17.6317 20 17.6684 20C18.9259 19.9795 19.9344 18.9543 19.9342 17.6967L20.0001 16.5992C20.0017 15.3991 19.5367 14.2453 18.7034 13.3817L18.7042 13.3792Z" fill="#374957"/>
</g>
<defs>
<clipPath id="clip0_1552_5799">
<rect width="20" height="20" fill="white"/>
</clipPath>
</defs>
</svg>
