<svg width="20" height="20" viewBox="0 0 20 20" fill="none" xmlns="http://www.w3.org/2000/svg">
<g clip-path="url(#clip0_1552_5624)">
<path d="M19.7558 1.42563L1.42243 19.759C1.34484 19.8363 1.25277 19.8977 1.15148 19.9395C1.05019 19.9812 0.94166 20.0027 0.832087 20.0025C0.610794 20.0022 0.398689 19.914 0.242432 19.7573C0.0861751 19.6006 -0.00143338 19.3882 -0.00112082 19.167C-0.000808257 18.9457 0.0873998 18.7336 0.244099 18.5773L4.4466 14.3765C0.955765 10.4948 -1.8634 5.26396 1.4866 1.55646L2.44493 0.723131C2.93003 0.254276 3.58017 -0.00480853 4.25478 0.00189701C4.92939 0.00860256 5.57425 0.28056 6.04993 0.758964C6.07577 0.783964 7.61993 2.7898 7.61993 2.7898C8.07788 3.27111 8.33279 3.91035 8.3317 4.57472C8.33061 5.23908 8.07362 5.87748 7.6141 6.3573L6.28077 7.94063C6.73035 8.96611 7.32321 9.9226 8.0416 10.7815L18.5774 0.249797C18.7358 0.105993 18.9434 0.0285976 19.1573 0.0336345C19.3711 0.0386715 19.5748 0.125755 19.7263 0.276856C19.8777 0.427956 19.9652 0.6315 19.9707 0.845345C19.9762 1.05919 19.8992 1.26696 19.7558 1.42563V1.42563ZM17.2133 12.3815C16.7321 11.9234 16.0929 11.6683 15.4285 11.6693C14.7642 11.6702 14.1257 11.9271 13.6458 12.3865L12.0574 13.7248C11.7241 13.5831 11.4033 13.4256 11.0933 13.2565C10.9374 13.1736 10.759 13.1432 10.5845 13.1699C10.41 13.1967 10.2488 13.279 10.1249 13.4048L7.5741 15.9556C7.48908 16.0397 7.42313 16.141 7.38073 16.2528C7.33834 16.3646 7.32048 16.4841 7.32839 16.6034C7.33629 16.7227 7.36977 16.8389 7.42654 16.9441C7.48332 17.0493 7.56206 17.1411 7.65743 17.2131C11.3308 19.6931 15.2499 21.4148 18.4824 18.4715L19.2408 17.5981C19.7234 17.1139 19.9945 16.4581 19.9945 15.7744C19.9945 15.0907 19.7234 14.4349 19.2408 13.9506C19.2183 13.924 17.2133 12.3815 17.2133 12.3815Z" fill="#374957"/>
</g>
<defs>
<clipPath id="clip0_1552_5624">
<rect width="20" height="20" fill="white"/>
</clipPath>
</defs>
</svg>
