<svg width="20" height="20" viewBox="0 0 20 20" fill="none" xmlns="http://www.w3.org/2000/svg">
<path d="M17.2124 12.3792C16.7313 11.9214 16.0923 11.6665 15.4281 11.6674C14.7639 11.6684 14.1256 11.9251 13.6458 12.3842L12.0574 13.7226C10.761 13.1861 9.58329 12.3988 8.59196 11.4059C7.60063 10.413 6.8152 9.23402 6.28076 7.93673L7.61409 6.3534C8.07204 5.87256 8.32789 5.23424 8.32882 4.57023C8.32975 3.90621 8.07569 3.26718 7.61909 2.78506C7.61909 2.78506 6.07576 0.782563 6.04993 0.756729C5.57447 0.278186 4.92983 0.00591426 4.25528 -0.00125843C3.58074 -0.00843113 2.93045 0.250071 2.44493 0.718396L1.48659 1.55173C-4.94591 8.3934 11.6533 25.0001 18.4866 18.4684L19.2466 17.5934C19.7293 17.1092 20.0003 16.4533 20.0003 15.7696C20.0003 15.0859 19.7293 14.4301 19.2466 13.9459C19.2191 13.9234 17.2124 12.3792 17.2124 12.3792Z" fill="#374957"/>
</svg>
