<svg width="20" height="20" viewBox="0 0 20 20" fill="none" xmlns="http://www.w3.org/2000/svg">
<g clip-path="url(#clip0_1552_5796)">
<path d="M12.4999 5.8334V2.50006C12.4999 2.27905 12.5877 2.06709 12.744 1.91081C12.9003 1.75453 13.1122 1.66673 13.3333 1.66673C13.5543 1.66673 13.7662 1.75453 13.9225 1.91081C14.0788 2.06709 14.1666 2.27905 14.1666 2.50006V4.67756C14.6916 4.1509 18.0833 0.739229 18.5774 0.250063C18.7346 0.0982642 18.9451 0.0142689 19.1636 0.0161675C19.3821 0.0180662 19.5911 0.105707 19.7456 0.260214C19.9001 0.414721 19.9878 0.623731 19.9897 0.842228C19.9916 1.06073 19.9076 1.27123 19.7558 1.4284C19.2624 1.91673 15.8866 5.3109 15.3658 5.8334H17.4999C17.7209 5.8334 17.9329 5.92119 18.0892 6.07747C18.2455 6.23375 18.3333 6.44572 18.3333 6.66673C18.3333 6.88774 18.2455 7.0997 18.0892 7.25598C17.9329 7.41226 17.7209 7.50006 17.4999 7.50006H14.1666C13.7246 7.50006 13.3006 7.32447 12.9881 7.01191C12.6755 6.69935 12.4999 6.27542 12.4999 5.8334ZM17.2124 12.3792C16.7313 11.9214 16.0923 11.6665 15.4281 11.6674C14.7639 11.6684 14.1256 11.9251 13.6458 12.3842L12.0574 13.7226C10.761 13.1861 9.58329 12.3988 8.59196 11.4059C7.60063 10.413 6.8152 9.23402 6.28076 7.93673L7.61409 6.3534C8.07204 5.87256 8.32789 5.23424 8.32882 4.57023C8.32975 3.90621 8.07569 3.26718 7.61909 2.78506C7.61909 2.78506 6.07576 0.782563 6.04993 0.756729C5.57447 0.278186 4.92983 0.00591426 4.25528 -0.00125843C3.58074 -0.00843113 2.93045 0.250071 2.44493 0.718396L1.48659 1.55173C-4.94591 8.3934 11.6533 25.0001 18.4866 18.4684L19.2466 17.5934C19.7293 17.1092 20.0003 16.4533 20.0003 15.7696C20.0003 15.0859 19.7293 14.4301 19.2466 13.9459C19.2191 13.9234 17.2124 12.3801 17.2124 12.3801V12.3792Z" fill="#374957"/>
</g>
<defs>
<clipPath id="clip0_1552_5796">
<rect width="20" height="20" fill="white"/>
</clipPath>
</defs>
</svg>
