<svg width="20" height="20" viewBox="0 0 20 20" fill="none" xmlns="http://www.w3.org/2000/svg">
<g clip-path="url(#clip0_1552_5793)">
<path d="M17.2142 12.3818C16.7329 11.9236 16.0935 11.6685 15.4289 11.6696C14.7643 11.6707 14.1258 11.9278 13.6459 12.3876L12.0576 13.7259C10.761 13.1892 9.58327 12.4016 8.59195 11.4084C7.60062 10.4152 6.81524 9.23599 6.28091 7.93844L7.61424 6.35511C8.07365 5.87518 8.33049 5.23672 8.33143 4.57236C8.33236 3.908 8.0773 3.26881 7.61924 2.78761C7.61924 2.78761 6.07674 0.785106 6.05091 0.759272C5.57553 0.28028 4.93067 0.00771093 4.25586 0.000537047C3.58104 -0.00663684 2.93054 0.252161 2.44508 0.720939L1.48675 1.55427C-4.94658 8.39427 11.6534 25.0026 18.4867 18.4709L19.2467 17.5959C19.7291 17.1117 20 16.4561 20 15.7726C20 15.0891 19.7291 14.4335 19.2467 13.9493C19.2201 13.9251 17.2142 12.3818 17.2142 12.3818ZM18.8042 10.4793C22.9634 4.35761 15.6376 -2.95656 9.52257 1.19927C9.34134 1.3258 9.2178 1.51914 9.17912 1.73676C9.14044 1.95439 9.18979 2.17846 9.31632 2.35969C9.44285 2.54092 9.63619 2.66446 9.85381 2.70314C10.0714 2.74182 10.2955 2.69247 10.4767 2.56594C15.0367 -0.565728 20.5684 4.96844 17.4376 9.52594C17.3723 9.61556 17.3256 9.71729 17.3001 9.8252C17.2746 9.9331 17.271 10.045 17.2893 10.1543C17.3076 10.2637 17.3476 10.3683 17.4069 10.462C17.4661 10.5557 17.5435 10.6366 17.6344 10.7C17.7253 10.7635 17.828 10.8081 17.9364 10.8313C18.0448 10.8546 18.1568 10.856 18.2657 10.8354C18.3746 10.8149 18.4784 10.7728 18.5709 10.7116C18.6633 10.6505 18.7427 10.5715 18.8042 10.4793V10.4793ZM15.5892 8.92511C15.7455 8.76883 15.8332 8.55691 15.8332 8.33594C15.8332 8.11497 15.7455 7.90305 15.5892 7.74677L14.1667 6.32427V4.16677C14.1667 3.94576 14.0789 3.7338 13.9227 3.57752C13.7664 3.42124 13.5544 3.33344 13.3334 3.33344C13.1124 3.33344 12.9004 3.42124 12.7441 3.57752C12.5879 3.7338 12.5001 3.94576 12.5001 4.16677V6.66677C12.5001 6.88777 12.5879 7.0997 12.7442 7.25594L14.4109 8.92261C14.5672 9.07883 14.7791 9.16659 15.0001 9.16659C15.221 9.16659 15.433 9.07883 15.5892 8.92261V8.92511Z" fill="#374957"/>
</g>
<defs>
<clipPath id="clip0_1552_5793">
<rect width="20" height="20" fill="white"/>
</clipPath>
</defs>
</svg>
