<svg width="20" height="20" viewBox="0 0 20 20" fill="none" xmlns="http://www.w3.org/2000/svg">
<g clip-path="url(#clip0_1552_5802)">
<path d="M19.9998 1.66658V4.99991C19.9998 5.22093 19.912 5.43289 19.7558 5.58917C19.5995 5.74545 19.3875 5.83325 19.1665 5.83325C18.9455 5.83325 18.7335 5.74545 18.5772 5.58917C18.421 5.43289 18.3332 5.22093 18.3332 4.99991V2.86575L13.9165 7.25825C13.8416 7.34609 13.7492 7.4174 13.6453 7.46767C13.5414 7.51795 13.4282 7.54608 13.3128 7.55028C13.1974 7.55449 13.0824 7.53468 12.9751 7.49211C12.8678 7.44954 12.7705 7.38513 12.6894 7.30298C12.6083 7.22083 12.5452 7.12272 12.504 7.01488C12.4628 6.90704 12.4444 6.79181 12.4501 6.67651C12.4558 6.5612 12.4854 6.44834 12.537 6.34506C12.5886 6.24179 12.661 6.15036 12.7498 6.07658L17.1748 1.66658H14.9998C14.7788 1.66658 14.5669 1.57878 14.4106 1.4225C14.2543 1.26622 14.1665 1.05426 14.1665 0.833248C14.1665 0.612234 14.2543 0.400272 14.4106 0.243992C14.5669 0.0877117 14.7788 -8.56516e-05 14.9998 -8.56516e-05H18.3332C18.7752 -8.56516e-05 19.1991 0.175509 19.5117 0.48807C19.8242 0.80063 19.9998 1.22455 19.9998 1.66658ZM17.2123 12.3799C16.7312 11.9221 16.0922 11.6672 15.428 11.6681C14.7638 11.6691 14.1256 11.9258 13.6457 12.3849L12.0573 13.7232C10.7607 13.1868 9.58294 12.3994 8.59159 11.4063C7.60025 10.4133 6.8149 9.2341 6.28067 7.93658L7.614 6.35325C8.07317 5.87337 8.32986 5.23508 8.33079 4.57092C8.33172 3.90675 8.07682 3.26775 7.619 2.78658C7.619 2.78658 6.07567 0.782414 6.05067 0.755748C5.57482 0.277298 4.92994 0.00511971 4.25519 -0.00205189C3.58043 -0.00922348 2.92991 0.249187 2.444 0.717414L1.4865 1.55075C-4.94683 8.39158 11.6532 24.9991 18.4865 18.4674L19.2465 17.5932C19.7294 17.109 20.0006 16.453 20.0006 15.7691C20.0006 15.0852 19.7294 14.4292 19.2465 13.9449C19.219 13.9232 17.2123 12.3799 17.2123 12.3799Z" fill="#374957"/>
</g>
<defs>
<clipPath id="clip0_1552_5802">
<rect width="20" height="20" fill="white"/>
</clipPath>
</defs>
</svg>
