<svg width="40" height="40" viewBox="0 0 40 40" fill="none" xmlns="http://www.w3.org/2000/svg">
<g clip-path="url(#clip0_3795_10347)">
<rect width="40" height="40" fill="#FBF8F8"/>
<path d="M29.1667 19.1667H20.8333V10.8333C20.8333 10.3731 20.4602 10 20 10C19.5398 10 19.1667 10.3731 19.1667 10.8333V19.1666H10.8333C10.3731 19.1667 10 19.5398 10 20C10 20.4602 10.3731 20.8333 10.8333 20.8333H19.1666V29.1666C19.1666 29.6269 19.5397 30 20 30C20.4602 30 20.8333 29.6269 20.8333 29.1666V20.8333H29.1666C29.6268 20.8333 29.9999 20.4602 29.9999 20C30 19.5398 29.6269 19.1667 29.1667 19.1667Z" fill="#A27070"/>
</g>
<defs>
<clipPath id="clip0_3795_10347">
<rect width="40" height="40" fill="white"/>
</clipPath>
</defs>
</svg>
