<svg width="21" height="21" viewBox="0 0 21 21" fill="none" xmlns="http://www.w3.org/2000/svg">
<path fill-rule="evenodd" clip-rule="evenodd" d="M18.3419 7.73196C18.4464 7.83164 18.5707 7.90826 18.7067 7.95688L18.7034 7.95938C19.2275 8.14672 19.6808 8.4915 20.0014 8.9465C20.3219 9.4015 20.494 9.94447 20.494 10.501C20.494 11.0576 20.3219 11.6006 20.0014 12.0556C19.6808 12.5106 19.2275 12.8554 18.7034 13.0427C18.5675 13.0914 18.4433 13.1681 18.3389 13.2678C18.2344 13.3675 18.1521 13.488 18.0971 13.6215C18.0421 13.755 18.0158 13.8986 18.0197 14.0429C18.0237 14.1872 18.0578 14.3291 18.12 14.4594C18.3591 14.9627 18.4365 15.5277 18.3416 16.0768C18.2468 16.6259 17.9843 17.1322 17.5902 17.5261C17.1962 17.9201 16.6898 18.1824 16.1407 18.2772C15.5916 18.3719 15.0266 18.2944 14.5234 18.0552C14.3931 17.9929 14.2512 17.9586 14.1068 17.9546C13.9625 17.9506 13.8189 17.9769 13.6853 18.0319C13.5518 18.0869 13.4313 18.1693 13.3316 18.2738C13.2319 18.3783 13.1553 18.5026 13.1067 18.6385C12.9193 19.1627 12.5746 19.616 12.1196 19.9366C11.6646 20.2571 11.1216 20.4292 10.565 20.4292C10.0084 20.4292 9.46548 20.2571 9.01048 19.9366C8.55548 19.616 8.2107 19.1627 8.02336 18.6385C7.97474 18.5026 7.89811 18.3783 7.79844 18.2738C7.69876 18.1693 7.57826 18.0869 7.44472 18.0319C7.31118 17.9769 7.16759 17.9506 7.02323 17.9546C6.87887 17.9586 6.73696 17.9929 6.60669 18.0552C6.10338 18.2938 5.53857 18.3708 4.98977 18.2757C4.44096 18.1805 3.93505 17.9178 3.54147 17.5237C3.14788 17.1295 2.88591 16.6233 2.79151 16.0743C2.6971 15.5254 2.77489 14.9607 3.01419 14.4577C3.07642 14.3272 3.11051 14.185 3.11425 14.0404C3.118 13.8959 3.0913 13.7521 3.0359 13.6186C2.9805 13.485 2.89764 13.3645 2.79269 13.265C2.68774 13.1655 2.56304 13.0892 2.42669 13.041C1.90296 12.8533 1.45001 12.5084 1.12979 12.0535C0.809561 11.5985 0.637695 11.0557 0.637695 10.4994C0.637695 9.94303 0.809561 9.40026 1.12979 8.94531C1.45001 8.49036 1.90296 8.14543 2.42669 7.95772C2.56275 7.90921 2.68711 7.83264 2.79168 7.73298C2.89625 7.63333 2.97871 7.51281 3.03371 7.37923C3.08871 7.24566 3.11502 7.10202 3.11094 6.95762C3.10686 6.81323 3.07248 6.6713 3.01002 6.54105C2.76955 6.03722 2.69122 5.47122 2.78582 4.92102C2.88042 4.37082 3.1433 3.86349 3.53824 3.46892C3.93318 3.07434 4.44075 2.81193 4.99104 2.71784C5.54133 2.62375 6.10725 2.70261 6.61086 2.94355C6.74113 3.00587 6.88304 3.04015 7.0274 3.04416C7.17176 3.04818 7.31535 3.02184 7.44889 2.96686C7.58242 2.91187 7.70293 2.82946 7.8026 2.72496C7.90228 2.62046 7.97891 2.4962 8.02752 2.36021C8.21487 1.83611 8.55965 1.38274 9.01465 1.06219C9.46965 0.741638 10.0126 0.56958 10.5692 0.56958C11.1258 0.56958 11.6687 0.741638 12.1237 1.06219C12.5787 1.38274 12.9235 1.83611 13.1109 2.36021C13.1596 2.49612 13.2363 2.62029 13.336 2.72472C13.4357 2.82915 13.5562 2.9115 13.6897 2.96648C13.8232 3.02145 13.9667 3.04781 14.111 3.04386C14.2553 3.03991 14.3972 3.00574 14.5275 2.94355C15.0309 2.7045 15.5959 2.6271 16.1449 2.72196C16.694 2.81682 17.2003 3.07929 17.5943 3.47335C17.9882 3.86741 18.2506 4.37374 18.3453 4.92285C18.4401 5.47196 18.3625 6.03693 18.1234 6.54022C18.061 6.67049 18.0268 6.8124 18.0227 6.95676C18.0187 7.10111 18.0451 7.24471 18.1001 7.37824C18.155 7.51178 18.2374 7.63229 18.3419 7.73196ZM6.6979 9.61585C7.0339 10.0158 7.5099 10.2158 8.1259 10.2158C8.7419 10.2158 9.2179 10.0158 9.5539 9.61585C9.8899 9.20785 10.0579 8.69185 10.0579 8.06785C10.0579 7.44385 9.8899 6.93185 9.5539 6.53185C9.2179 6.12385 8.7419 5.91985 8.1259 5.91985C7.5099 5.91985 7.0339 6.12385 6.6979 6.53185C6.3619 6.93185 6.1939 7.44385 6.1939 8.06785C6.1939 8.69185 6.3619 9.20785 6.6979 9.61585ZM7.8499 14.4998C7.9299 14.5798 8.0219 14.6198 8.1259 14.6198C8.1979 14.6198 8.2659 14.5998 8.3299 14.5598C8.3939 14.5198 8.4459 14.4678 8.4859 14.4038L13.3339 6.63985C13.3899 6.55185 13.4179 6.46385 13.4179 6.37585C13.4179 6.26385 13.3779 6.17585 13.2979 6.11185C13.2259 6.04785 13.1299 6.01585 13.0099 6.01585C12.8659 6.01585 12.7539 6.07985 12.6739 6.20785L7.7899 14.0198C7.7499 14.0838 7.7299 14.1518 7.7299 14.2238C7.7299 14.3358 7.7699 14.4278 7.8499 14.4998ZM8.9299 9.05185C8.7379 9.30785 8.4699 9.43585 8.1259 9.43585C7.7819 9.43585 7.5139 9.30785 7.3219 9.05185C7.1299 8.79585 7.0339 8.46785 7.0339 8.06785C7.0339 7.66785 7.1299 7.33985 7.3219 7.08385C7.5139 6.82785 7.7819 6.69985 8.1259 6.69985C8.4699 6.69985 8.7379 6.82785 8.9299 7.08385C9.1219 7.33985 9.2179 7.66785 9.2179 8.06785C9.2179 8.46785 9.1219 8.79585 8.9299 9.05185ZM11.5699 14.1158C11.9059 14.5158 12.3819 14.7158 12.9979 14.7158C13.6139 14.7158 14.0899 14.5158 14.4259 14.1158C14.7619 13.7078 14.9299 13.1918 14.9299 12.5678C14.9299 11.9438 14.7619 11.4318 14.4259 11.0318C14.0899 10.6238 13.6139 10.4198 12.9979 10.4198C12.3819 10.4198 11.9059 10.6238 11.5699 11.0318C11.2339 11.4318 11.0659 11.9438 11.0659 12.5678C11.0659 13.1918 11.2339 13.7078 11.5699 14.1158ZM13.8019 13.5518C13.6099 13.8078 13.3419 13.9358 12.9979 13.9358C12.6539 13.9358 12.3859 13.8078 12.1939 13.5518C12.0019 13.2958 11.9059 12.9678 11.9059 12.5678C11.9059 12.1678 12.0019 11.8398 12.1939 11.5838C12.3859 11.3278 12.6539 11.1998 12.9979 11.1998C13.3419 11.1998 13.6099 11.3278 13.8019 11.5838C13.9939 11.8398 14.0899 12.1678 14.0899 12.5678C14.0899 12.9678 13.9939 13.2958 13.8019 13.5518Z" fill="#14080E"/>
</svg>
