<svg width="40" height="40" viewBox="0 0 40 40" fill="none" xmlns="http://www.w3.org/2000/svg">
<rect width="40" height="40" fill="#FBF8F8"/>
<path opacity="0.3" d="M30.9312 25.632C31.0457 26.2904 31.0147 26.9658 30.8406 27.6109C30.6665 28.2561 30.3534 28.8553 29.9233 29.3667C29.4931 29.8781 28.9564 30.2893 28.3506 30.5714C27.7448 30.8536 27.0847 30.9998 26.4164 31H23.6663C23.4232 31 23.19 30.9034 23.0181 30.7315C22.8462 30.5596 22.7496 30.3264 22.7496 30.0833V27.7092C21.8748 28.0599 20.9419 28.2433 19.9995 28.25C19.0564 28.2403 18.1235 28.0538 17.2493 27.7V30.0833C17.2493 30.3264 17.1527 30.5596 16.9808 30.7315C16.8089 30.9034 16.5757 31 16.3326 31H13.5825C12.9142 30.9998 12.2541 30.8536 11.6483 30.5714C11.0425 30.2893 10.5058 29.8781 10.0757 29.3667C9.64554 28.8553 9.33245 28.2561 9.15833 27.6109C8.98421 26.9658 8.95326 26.2904 9.06767 25.632L9.34268 24.037C9.43413 23.5065 9.68241 23.0156 10.0555 22.6275C10.4286 22.2395 10.9094 21.9721 11.4359 21.8598C11.9624 21.7476 12.5104 21.7956 13.0094 21.9977C13.5083 22.1998 13.9353 22.5468 14.2352 22.9938C15.3939 24.697 17.6243 26.4167 19.9995 26.4167C22.8688 26.4167 25.6959 23.8693 26.5356 21.4887C26.603 21.3097 26.7231 21.1555 26.8801 21.0463C27.0371 20.9371 27.2235 20.8782 27.4147 20.8773L27.8108 20.8837C27.9883 20.8859 28.1644 20.8527 28.329 20.7863C28.4936 20.7198 28.6433 20.6212 28.7695 20.4963C28.8956 20.3715 28.9957 20.2228 29.0639 20.0589C29.132 19.895 29.167 19.7192 29.1666 19.5417C29.1663 19.2202 29.0533 18.9089 28.8473 18.6621C28.6413 18.4152 28.3553 18.2484 28.039 18.1905C27.844 18.1551 27.6657 18.0575 27.5308 17.9122C27.3959 17.767 27.3118 17.5819 27.291 17.3848C27.1694 16.2257 26.7719 15.1127 26.1319 14.1387C25.4919 13.1648 24.6279 12.3583 23.6122 11.7867C23.3529 12.5981 23.0065 13.3791 22.5791 14.1159C21.3892 15.8027 19.8369 17.2019 18.0359 18.2107C18.3104 18.2781 18.5575 18.4284 18.7435 18.6413C18.9295 18.8542 19.0454 19.1192 19.0753 19.4003C19.1053 19.6813 19.0479 19.9648 18.9109 20.2121C18.774 20.4594 18.5642 20.6585 18.31 20.7822C18.0559 20.906 17.7697 20.9484 17.4906 20.9037C17.2115 20.859 16.9529 20.7294 16.7501 20.5325C16.5473 20.3356 16.4101 20.0809 16.3572 19.8033C16.3043 19.5256 16.3383 19.2384 16.4545 18.9807C14.3468 19.8341 12.0679 20.1795 9.80196 19.989C9.61309 19.9637 9.4368 19.8802 9.29762 19.75C9.15843 19.6199 9.06326 19.4496 9.02535 19.2629C8.98743 19.0761 9.00866 18.8822 9.08607 18.7081C9.16348 18.534 9.29323 18.3883 9.45727 18.2913C10.0115 17.6626 10.4238 16.922 10.6664 16.1198C11.8627 13.2845 13.6741 9.00003 19.9995 9.00003C22.1577 8.99491 24.2482 9.75357 25.9008 11.1417C27.5534 12.5298 28.6616 14.4579 29.0291 16.5845C29.6124 16.8284 30.1107 17.2392 30.4614 17.7653C30.812 18.2914 30.9994 18.9094 31 19.5417C30.9984 20.3034 30.7202 21.0386 30.2171 21.6106C30.2235 21.6344 30.24 21.6537 30.2446 21.6793L30.9312 25.632ZM23.6663 19.5417C23.6663 19.2697 23.5857 19.0039 23.4346 18.7778C23.2835 18.5517 23.0687 18.3754 22.8175 18.2713C22.5662 18.1673 22.2897 18.14 22.023 18.1931C21.7562 18.2462 21.5112 18.3771 21.3189 18.5694C21.1266 18.7617 20.9956 19.0067 20.9426 19.2734C20.8895 19.5402 20.9168 19.8166 21.0208 20.0679C21.1249 20.3191 21.3012 20.5339 21.5273 20.6849C21.7534 20.836 22.0193 20.9167 22.2912 20.9167C22.6559 20.9167 23.0057 20.7718 23.2636 20.514C23.5214 20.2561 23.6663 19.9064 23.6663 19.5417Z" fill="#A27070"/>
</svg>
