<svg width="29" height="29" viewBox="0 0 29 29" fill="none" xmlns="http://www.w3.org/2000/svg">
<path fill-rule="evenodd" clip-rule="evenodd" d="M11.878 0.1875C5.4231 0.1875 0.19043 5.42017 0.19043 11.8751C0.19043 18.3298 5.4231 23.5626 11.878 23.5626C14.7224 23.5626 17.3308 22.5452 19.3569 20.8566L26.667 28.1667C27.082 28.5817 27.7547 28.5817 28.1697 28.1667C28.5845 27.7518 28.5845 27.079 28.1697 26.6641L20.8595 19.3539C22.5482 17.3278 23.5655 14.7194 23.5655 11.8751C23.5655 5.42017 18.3328 0.1875 11.878 0.1875ZM2.31543 11.8751C2.31543 6.59377 6.59671 2.3125 11.878 2.3125C17.1592 2.3125 21.4405 6.59377 21.4405 11.8751C21.4405 14.5159 20.3713 16.9051 18.6396 18.6367C16.908 20.3684 14.5188 21.4376 11.878 21.4376C6.59671 21.4376 2.31543 17.1562 2.31543 11.8751Z" fill="#A27070"/>
</svg>
