<svg width="20" height="20" viewBox="0 0 20 20" fill="none" xmlns="http://www.w3.org/2000/svg">
<path d="M16.1105 12.223C15.4804 12.2235 14.8599 12.3773 14.3026 12.6711C13.7452 12.965 13.2677 13.39 12.9113 13.9096L7.48716 11.4605C7.87242 10.5301 7.87392 9.48519 7.49133 8.55378L12.908 6.09212C13.4362 6.85608 14.2208 7.40542 15.1193 7.64049C16.0179 7.87556 16.9709 7.78079 17.8056 7.37337C18.6403 6.96595 19.3013 6.27287 19.6687 5.41984C20.0361 4.56681 20.0857 3.61034 19.8083 2.72393C19.5309 1.83751 18.9451 1.07986 18.1569 0.588413C17.3688 0.096962 16.4306 -0.0957392 15.5126 0.0452638C14.5946 0.186267 13.7575 0.651634 13.1532 1.35695C12.5489 2.06227 12.2174 2.96082 12.2188 3.88962C12.2224 4.10945 12.2447 4.32858 12.2855 4.54462L6.52716 7.16128C5.97411 6.64313 5.28175 6.29781 4.53514 6.16775C3.78853 6.03769 3.02018 6.12855 2.3245 6.42916C1.62882 6.72978 1.0361 7.22706 0.619156 7.85992C0.202215 8.49277 -0.0207864 9.23364 -0.0224515 9.99149C-0.0241167 10.7493 0.195627 11.4912 0.609783 12.1259C1.02394 12.7605 1.61447 13.2604 2.30882 13.5641C3.00318 13.8678 3.77112 13.962 4.51829 13.8352C5.26547 13.7084 5.95934 13.3662 6.51466 12.8505L12.288 15.4571C12.2479 15.673 12.2259 15.8918 12.2222 16.1113C12.222 16.8806 12.45 17.6326 12.8773 18.2723C13.3045 18.912 13.9119 19.4106 14.6226 19.7051C15.3333 19.9995 16.1154 20.0766 16.8699 19.9266C17.6244 19.7766 18.3174 19.4061 18.8614 18.8622C19.4053 18.3182 19.7758 17.6252 19.9258 16.8707C20.0758 16.1162 19.9988 15.3341 19.7043 14.6234C19.4098 13.9127 18.9112 13.3053 18.2715 12.878C17.6318 12.4508 16.8798 12.2228 16.1105 12.223V12.223ZM16.1105 1.66712C16.5501 1.66695 16.9799 1.79716 17.3455 2.04127C17.7111 2.28538 17.9961 2.63243 18.1644 3.03853C18.3328 3.44462 18.3769 3.89152 18.2912 4.32269C18.2056 4.75387 17.994 5.14996 17.6832 5.46087C17.3724 5.77177 16.9764 5.98353 16.5452 6.06935C16.1141 6.15517 15.6672 6.11121 15.261 5.94302C14.8548 5.77483 14.5077 5.48997 14.2634 5.12446C14.0192 4.75895 13.8888 4.32922 13.8888 3.88962C13.8893 3.30045 14.1235 2.73553 14.54 2.31885C14.9565 1.90217 15.5213 1.66778 16.1105 1.66712V1.66712ZM3.88883 12.223C3.44922 12.2231 3.01944 12.0929 2.65384 11.8488C2.28825 11.6047 2.00325 11.2576 1.83491 10.8515C1.66657 10.4454 1.62243 9.99855 1.7081 9.56737C1.79376 9.1362 2.00536 8.74011 2.31615 8.4292C2.62694 8.11829 3.02295 7.90654 3.4541 7.82072C3.88524 7.73489 4.33216 7.77886 4.73831 7.94705C5.14447 8.11524 5.49163 8.4001 5.73588 8.76561C5.98012 9.13112 6.11049 9.56085 6.11049 10.0005C6.10983 10.5895 5.87558 11.1543 5.4591 11.571C5.04262 11.9876 4.47792 12.2221 3.88883 12.223ZM16.1105 18.3338C15.6709 18.3338 15.2412 18.2034 14.8757 17.9592C14.5102 17.715 14.2254 17.3679 14.0572 16.9618C13.889 16.5557 13.8449 16.1088 13.9307 15.6777C14.0165 15.2466 14.2281 14.8506 14.5389 14.5397C14.8498 14.2289 15.2458 14.0172 15.6769 13.9315C16.108 13.8457 16.5549 13.8897 16.961 14.058C17.3671 14.2262 17.7142 14.511 17.9584 14.8765C18.2026 15.242 18.333 15.6717 18.333 16.1113C18.3326 16.7006 18.0983 17.2656 17.6816 17.6823C17.2648 18.099 16.6998 18.3333 16.1105 18.3338V18.3338Z" fill="white"/>
</svg>
