<svg width="20" height="20" viewBox="0 0 20 20" fill="none" xmlns="http://www.w3.org/2000/svg">
<g clip-path="url(#clip0_1552_5497)">
<path d="M0.000153378 9.98839C-0.0083518 12.1254 1.71715 13.8646 3.85417 13.8732C4.83835 13.8771 5.78707 13.5058 6.50716 12.8349L12.2734 15.4384C12.2333 15.654 12.2114 15.8725 12.2077 16.0918C12.2009 18.2435 13.9396 19.9933 16.0914 20.0001C18.2431 20.0069 19.9929 18.2681 19.9997 16.1164C20.0066 13.9647 18.2678 12.2149 16.116 12.208C14.8305 12.204 13.6256 12.8343 12.896 13.8928L7.47847 11.4466C7.86327 10.5174 7.86475 9.47375 7.48264 8.54349L12.8927 6.08483C14.1109 7.84677 16.5268 8.28747 18.2887 7.06924C20.0507 5.85101 20.4913 3.43515 19.2731 1.67322C18.0549 -0.0887196 15.639 -0.529428 13.8771 0.688802C12.8278 1.41432 12.2023 2.60937 12.2043 3.88507C12.2078 4.10464 12.2301 4.32348 12.2709 4.53927L6.51964 7.1527C4.96144 5.68953 2.51215 5.76659 1.04898 7.32479C0.371806 8.04601 -0.00351399 8.9991 0.000153378 9.98839Z" fill="#374957"/>
</g>
<defs>
<clipPath id="clip0_1552_5497">
<rect width="20" height="20" fill="white"/>
</clipPath>
</defs>
</svg>
