<svg width="16" height="20" viewBox="0 0 16 20" fill="none" xmlns="http://www.w3.org/2000/svg">
<path d="M16 8.45436V17.2382C16 19.0735 15.0535 20 13.1696 20H2.83042C0.946479 20 0 19.0824 0 17.2382V8.45436C0 6.61026 0.946479 5.69264 2.83042 5.69264H5.58873V7.12697H2.84844C1.94704 7.12697 1.45127 7.59913 1.45127 8.5256V17.167C1.45127 18.0935 1.94704 18.5656 2.84844 18.5656H13.1425C14.0349 18.5656 14.5487 18.0935 14.5487 17.167V8.5256C14.5487 7.59913 14.0349 7.12697 13.1425 7.12697H10.4022V5.69264H13.1696C15.0535 5.69264 16 6.61915 16 8.45436Z" fill="white"/>
<path d="M7.99546 13.0245C8.38307 13.0245 8.71659 12.7127 8.71659 12.3385V3.27839L8.66252 1.951L9.16734 2.47662L10.5555 3.94654C10.6817 4.08908 10.871 4.16035 11.0423 4.16035C11.4209 4.16035 11.7002 3.89309 11.7002 3.53675C11.7002 3.34075 11.6282 3.19821 11.4929 3.06458L8.51829 0.231627C8.33799 0.0534577 8.18477 0 7.99546 0C7.81524 0 7.66197 0.0534577 7.47267 0.231627L4.50705 3.06458C4.37183 3.19821 4.2907 3.34075 4.2907 3.53675C4.2907 3.89309 4.56113 4.16035 4.93972 4.16035C5.11098 4.16035 5.30929 4.08908 5.43549 3.94654L6.83267 2.47662L7.33746 1.951L7.28338 3.27839V12.3385C7.28338 12.7127 7.60788 13.0245 7.99546 13.0245Z" fill="white"/>
</svg>
