<svg width="20" height="20" viewBox="0 0 20 20" fill="none" xmlns="http://www.w3.org/2000/svg">
<g clip-path="url(#clip0_1784_15544)">
<path d="M15.484 1.78353L10.2632 0.0427007C10.0922 -0.0142336 9.90744 -0.0142336 9.7365 0.0427007L4.51567 1.78353C3.68559 2.05927 2.96352 2.58958 2.45204 3.29913C1.94057 4.00867 1.6657 4.86136 1.66651 5.73603V10.0002C1.66651 16.3027 9.33317 19.7835 9.6615 19.9285C9.76802 19.9759 9.88328 20.0003 9.99984 20.0003C10.1164 20.0003 10.2317 19.9759 10.3382 19.9285C10.6665 19.7835 18.3332 16.3027 18.3332 10.0002V5.73603C18.334 4.86136 18.0591 4.00867 17.5476 3.29913C17.0362 2.58958 16.3141 2.05927 15.484 1.78353ZM13.9315 8.0977L10.3715 11.6577C10.2258 11.8044 10.0525 11.9206 9.86148 11.9997C9.67051 12.0788 9.46572 12.1192 9.259 12.1185H9.2315C9.02058 12.1153 8.8125 12.0693 8.61985 11.9834C8.4272 11.8974 8.25398 11.7733 8.11067 11.6185L6.189 9.61854C6.10578 9.54132 6.03921 9.44792 5.99338 9.34405C5.94755 9.24019 5.92343 9.12805 5.92249 9.01453C5.92155 8.90101 5.94382 8.78849 5.98792 8.68388C6.03203 8.57927 6.09704 8.48478 6.17898 8.4062C6.26091 8.32762 6.35804 8.26661 6.4644 8.22691C6.57076 8.18721 6.68411 8.16967 6.7975 8.17535C6.91088 8.18103 7.02191 8.20982 7.12377 8.25995C7.22563 8.31008 7.31617 8.38049 7.38984 8.46687L9.25984 10.4169L12.7498 6.91687C12.907 6.76507 13.1175 6.68108 13.336 6.68297C13.5545 6.68487 13.7635 6.77251 13.918 6.92702C14.0725 7.08153 14.1602 7.29054 14.1621 7.50903C14.164 7.72753 14.08 7.93803 13.9282 8.0952L13.9315 8.0977Z" fill="#A27070"/>
</g>
<defs>
<clipPath id="clip0_1784_15544">
<rect width="20" height="20" fill="white"/>
</clipPath>
</defs>
</svg>
