<svg width="20" height="20" viewBox="0 0 20 20" fill="none" xmlns="http://www.w3.org/2000/svg">
<g clip-path="url(#clip0_1552_5501)">
<path d="M13.3332 10.8328C12.9451 11.3503 12.4418 11.7703 11.8632 12.0596C11.2847 12.3489 10.6467 12.4995 9.99986 12.4995C9.353 12.4995 8.71503 12.3489 8.13647 12.0596C7.5579 11.7703 7.05464 11.3503 6.66652 10.8328C6.33988 11.2731 5.92884 11.644 5.45738 11.9238C4.98592 12.2036 4.46347 12.3867 3.9205 12.4625C3.37752 12.5383 2.8249 12.5052 2.29484 12.3652C1.76478 12.2252 1.26791 11.981 0.833191 11.647V15.8328C0.834514 16.9375 1.27393 17.9965 2.05504 18.7776C2.83616 19.5587 3.89519 19.9982 4.99986 19.9995H14.9999C16.1045 19.9982 17.1636 19.5587 17.9447 18.7776C18.7258 17.9965 19.1652 16.9375 19.1665 15.8328V11.6445C18.732 11.9787 18.2352 12.223 17.7053 12.3632C17.1753 12.5034 16.6227 12.5367 16.0798 12.4611C15.5368 12.3856 15.0143 12.2027 14.5427 11.9231C14.0712 11.6436 13.66 11.2729 13.3332 10.8328V10.8328Z" fill="#374957"/>
<path d="M18.0832 2.60953C17.9219 1.86711 17.5103 1.2027 16.9174 0.727662C16.3244 0.252629 15.5863 -0.00415081 14.8265 0.000363703H14.1665V2.50036C14.1665 2.72138 14.0787 2.93334 13.9224 3.08962C13.7662 3.2459 13.5542 3.3337 13.3332 3.3337C13.1122 3.3337 12.9002 3.2459 12.7439 3.08962C12.5877 2.93334 12.4999 2.72138 12.4999 2.50036V0.000363703H7.49986V2.50036C7.49986 2.72138 7.41206 2.93334 7.25578 3.08962C7.0995 3.2459 6.88754 3.3337 6.66652 3.3337C6.44551 3.3337 6.23355 3.2459 6.07727 3.08962C5.92099 2.93334 5.83319 2.72138 5.83319 2.50036V0.000363703H5.17319C4.41335 -0.00411004 3.67506 0.252789 3.08213 0.727986C2.48919 1.20318 2.07766 1.86779 1.91652 2.61036L0.851524 7.41703L0.833191 8.35036C0.834285 8.67867 0.900033 9.00354 1.02668 9.30644C1.15333 9.60933 1.3384 9.88432 1.57132 10.1157C2.04172 10.583 2.67848 10.8442 3.34152 10.842C3.66983 10.8409 3.9947 10.7752 4.2976 10.6485C4.60049 10.5219 4.87548 10.3368 5.10685 10.1039C5.33822 9.87098 5.52145 9.59477 5.64608 9.29104C5.7707 8.98731 5.83428 8.662 5.83319 8.3337C5.83319 8.11268 5.92099 7.90072 6.07727 7.74444C6.23355 7.58816 6.44551 7.50036 6.66652 7.50036C6.88754 7.50036 7.0995 7.58816 7.25578 7.74444C7.41206 7.90072 7.49986 8.11268 7.49986 8.3337C7.49986 8.99674 7.76325 9.63262 8.23209 10.1015C8.70093 10.5703 9.33682 10.8337 9.99986 10.8337C10.6629 10.8337 11.2988 10.5703 11.7676 10.1015C12.2365 9.63262 12.4999 8.99674 12.4999 8.3337C12.4999 8.11268 12.5877 7.90072 12.7439 7.74444C12.9002 7.58816 13.1122 7.50036 13.3332 7.50036C13.5542 7.50036 13.7662 7.58816 13.9224 7.74444C14.0787 7.90072 14.1665 8.11268 14.1665 8.3337C14.1665 8.99674 14.4299 9.63262 14.8988 10.1015C15.3676 10.5703 16.0035 10.8337 16.6665 10.8337C17.3296 10.8337 17.9654 10.5703 18.4343 10.1015C18.9031 9.63262 19.1665 8.99674 19.1665 8.3337V7.58953L18.0832 2.60953Z" fill="#374957"/>
</g>
<defs>
<clipPath id="clip0_1552_5501">
<rect width="20" height="20" fill="white"/>
</clipPath>
</defs>
</svg>
