<svg width="76" height="76" viewBox="0 0 76 76" fill="none" xmlns="http://www.w3.org/2000/svg">
<rect width="76" height="76" rx="38" fill="#FBF8F8"/>
<path d="M43.3333 39.0825C42.8287 39.7552 42.1745 40.3013 41.4223 40.6773C40.6702 41.0534 39.8408 41.2492 38.9999 41.2492C38.159 41.2492 37.3296 41.0534 36.5775 40.6773C35.8254 40.3013 35.1711 39.7552 34.6666 39.0825C34.242 39.6549 33.7076 40.137 33.0947 40.5008C32.4818 40.8645 31.8026 41.1026 31.0967 41.2011C30.3909 41.2996 29.6725 41.2566 28.9834 41.0746C28.2943 40.8926 27.6484 40.5752 27.0833 40.1409V45.5825C27.085 47.0186 27.6562 48.3953 28.6717 49.4108C29.6871 50.4262 31.0639 50.9975 32.4999 50.9992H45.4999C46.936 50.9975 48.3127 50.4262 49.3282 49.4108C50.3436 48.3953 50.9149 47.0186 50.9166 45.5825V40.1377C50.3516 40.5721 49.7059 40.8897 49.0169 41.072C48.328 41.2543 47.6096 41.2976 46.9038 41.1993C46.1979 41.1011 45.5187 40.8634 44.9057 40.4999C44.2927 40.1365 43.7581 39.6547 43.3333 39.0825Z" fill="#A27070"/>
<path d="M49.5083 28.3925C49.2986 27.4273 48.7635 26.5636 47.9927 25.9461C47.2219 25.3285 46.2622 24.9947 45.2746 25.0006H44.4166V28.2506C44.4166 28.5379 44.3024 28.8134 44.0993 29.0166C43.8961 29.2198 43.6206 29.3339 43.3333 29.3339C43.0459 29.3339 42.7704 29.2198 42.5672 29.0166C42.3641 28.8134 42.2499 28.5379 42.2499 28.2506V25.0006H35.7499V28.2506C35.7499 28.5379 35.6358 28.8134 35.4326 29.0166C35.2295 29.2198 34.9539 29.3339 34.6666 29.3339C34.3793 29.3339 34.1037 29.2198 33.9006 29.0166C33.6974 28.8134 33.5833 28.5379 33.5833 28.2506V25.0006H32.7253C31.7375 24.9947 30.7777 25.3287 30.0069 25.9465C29.2361 26.5642 28.7011 27.4282 28.4916 28.3936L27.1071 34.6422L27.0833 35.8556C27.0847 36.2824 27.1701 36.7047 27.3348 37.0985C27.4994 37.4922 27.74 37.8497 28.0428 38.1505C28.6543 38.758 29.4821 39.0976 30.3441 39.0947C30.7709 39.0933 31.1932 39.0078 31.587 38.8432C31.9807 38.6786 32.3382 38.438 32.639 38.1352C32.9398 37.8324 33.178 37.4733 33.34 37.0784C33.502 36.6836 33.5847 36.2607 33.5833 35.8339C33.5833 35.5466 33.6974 35.271 33.9006 35.0679C34.1037 34.8647 34.3793 34.7506 34.6666 34.7506C34.9539 34.7506 35.2295 34.8647 35.4326 35.0679C35.6358 35.271 35.7499 35.5466 35.7499 35.8339C35.7499 36.6959 36.0923 37.5225 36.7018 38.132C37.3113 38.7415 38.138 39.0839 38.9999 39.0839C39.8619 39.0839 40.6885 38.7415 41.298 38.132C41.9075 37.5225 42.2499 36.6959 42.2499 35.8339C42.2499 35.5466 42.3641 35.271 42.5672 35.0679C42.7704 34.8647 43.0459 34.7506 43.3333 34.7506C43.6206 34.7506 43.8961 34.8647 44.0993 35.0679C44.3024 35.271 44.4166 35.5466 44.4166 35.8339C44.4166 36.6959 44.759 37.5225 45.3685 38.132C45.978 38.7415 46.8046 39.0839 47.6666 39.0839C48.5285 39.0839 49.3552 38.7415 49.9647 38.132C50.5742 37.5225 50.9166 36.6959 50.9166 35.8339V34.8665L49.5083 28.3925Z" fill="#A27070"/>
</svg>
