<svg width="20" height="20" viewBox="0 0 20 20" fill="none" xmlns="http://www.w3.org/2000/svg">
<g clip-path="url(#clip0_1552_5505)">
<path d="M17.5 5H15C15 3.67392 14.4732 2.40215 13.5355 1.46447C12.5979 0.526784 11.3261 0 10 0C8.67392 0 7.40215 0.526784 6.46447 1.46447C5.52678 2.40215 5 3.67392 5 5H2.5C1.83696 5 1.20107 5.26339 0.732233 5.73223C0.263392 6.20107 0 6.83696 0 7.5L0 15.8333C0.00132321 16.938 0.440735 17.997 1.22185 18.7782C2.00296 19.5593 3.062 19.9987 4.16667 20H13.905C13.3257 19.6234 12.8307 19.1309 12.4513 18.5534C12.0718 17.9759 11.8162 17.3261 11.7006 16.6449C11.5849 15.9637 11.6116 15.2659 11.7792 14.5955C11.9467 13.9252 12.2514 13.2968 12.6739 12.7501C13.0964 12.2034 13.6277 11.7502 14.2342 11.4192C14.8407 11.0881 15.5092 10.8863 16.1976 10.8265C16.8859 10.7668 17.5792 10.8504 18.2337 11.072C18.8881 11.2936 19.4896 11.6485 20 12.1142V7.5C20 6.83696 19.7366 6.20107 19.2678 5.73223C18.7989 5.26339 18.163 5 17.5 5ZM6.66667 5C6.66667 4.11594 7.01786 3.2681 7.64298 2.64298C8.2681 2.01786 9.11594 1.66667 10 1.66667C10.8841 1.66667 11.7319 2.01786 12.357 2.64298C12.9821 3.2681 13.3333 4.11594 13.3333 5H6.66667Z" fill="#374957"/>
<path d="M19.1665 15H17.4998V13.3333C17.4998 13.1123 17.4121 12.9004 17.2558 12.7441C17.0995 12.5878 16.8875 12.5 16.6665 12.5C16.4455 12.5 16.2335 12.5878 16.0773 12.7441C15.921 12.9004 15.8332 13.1123 15.8332 13.3333V15H14.1665C13.9455 15 13.7335 15.0878 13.5773 15.2441C13.421 15.4004 13.3332 15.6123 13.3332 15.8333C13.3332 16.0543 13.421 16.2663 13.5773 16.4226C13.7335 16.5789 13.9455 16.6667 14.1665 16.6667H15.8332V18.3333C15.8332 18.5543 15.921 18.7663 16.0773 18.9226C16.2335 19.0789 16.4455 19.1667 16.6665 19.1667C16.8875 19.1667 17.0995 19.0789 17.2558 18.9226C17.4121 18.7663 17.4998 18.5543 17.4998 18.3333V16.6667H19.1665C19.3875 16.6667 19.5995 16.5789 19.7558 16.4226C19.912 16.2663 19.9998 16.0543 19.9998 15.8333C19.9998 15.6123 19.912 15.4004 19.7558 15.2441C19.5995 15.0878 19.3875 15 19.1665 15Z" fill="#374957"/>
</g>
<defs>
<clipPath id="clip0_1552_5505">
<rect width="20" height="20" fill="white"/>
</clipPath>
</defs>
</svg>
