<svg width="20" height="20" viewBox="0 0 20 20" fill="none" xmlns="http://www.w3.org/2000/svg">
<g clip-path="url(#clip0_1552_5492)">
<path d="M0.83458 3.95894H3.11435C3.56431 5.61448 5.27113 6.5918 6.92667 6.14185C7.98996 5.85285 8.82058 5.02223 9.10958 3.95894H19.1661C19.6263 3.95894 19.9993 3.58589 19.9993 3.1257C19.9993 2.66551 19.6263 2.29247 19.1661 2.29247H9.10958C8.65962 0.636889 6.9528 -0.340435 5.29726 0.10952C4.23397 0.398514 3.40335 1.22913 3.11435 2.29243H0.83458C0.374392 2.29243 0.00134277 2.66548 0.00134277 3.12566C0.00134277 3.58585 0.374392 3.95894 0.83458 3.95894Z" fill="#374957"/>
<path d="M19.1658 9.16715H16.8861C16.437 7.51185 14.7311 6.53397 13.0758 6.98299C12.0117 7.27167 11.1803 8.10296 10.8917 9.16715H0.834336C0.374147 9.16715 0.00109863 9.5402 0.00109863 10.0004C0.00109863 10.4606 0.374147 10.8336 0.834336 10.8336H10.8917C11.3407 12.4889 13.0466 13.4668 14.7019 13.0178C15.7661 12.7291 16.5974 11.8978 16.8861 10.8336H19.1658C19.626 10.8336 19.9991 10.4606 19.9991 10.0004C19.9991 9.5402 19.626 9.16715 19.1658 9.16715Z" fill="#374957"/>
<path d="M19.1658 16.0411H9.10933C8.65938 14.3855 6.95256 13.4082 5.29702 13.8582C4.23372 14.1472 3.4031 14.9778 3.11411 16.0411H0.834336C0.374147 16.0411 0.00109863 16.4141 0.00109863 16.8743C0.00109863 17.3345 0.374147 17.7076 0.834336 17.7076H3.11411C3.56406 19.3631 5.27089 20.3404 6.92642 19.8905C7.98972 19.6015 8.82034 18.7708 9.10933 17.7076H19.1658C19.626 17.7076 19.9991 17.3345 19.9991 16.8743C19.9991 16.4141 19.626 16.0411 19.1658 16.0411Z" fill="#374957"/>
</g>
<defs>
<clipPath id="clip0_1552_5492">
<rect width="20" height="20" fill="white"/>
</clipPath>
</defs>
</svg>
