<svg width="20" height="20" viewBox="0 0 20 20" fill="none" xmlns="http://www.w3.org/2000/svg">
<path fill-rule="evenodd" clip-rule="evenodd" d="M10.0009 0C7.28502 0 6.94417 0.011875 5.87753 0.0603902C4.81293 0.10914 4.0863 0.277654 3.45044 0.524996C2.79271 0.780384 2.23483 1.12202 1.67897 1.67811C1.12273 2.23389 0.78101 2.79185 0.524762 3.44935C0.276873 4.08536 0.108124 4.81223 0.0602337 5.87644C0.0124997 6.94307 0 7.28416 0 10C0 12.7158 0.0121093 13.0556 0.0603902 14.1223C0.109374 15.1869 0.277888 15.9135 0.524996 16.5494C0.780619 17.2071 1.12226 17.765 1.67835 18.3209C2.23397 18.8771 2.79185 19.2196 3.44919 19.475C4.08544 19.7223 4.81231 19.8909 5.87667 19.9396C6.94338 19.9881 7.28401 20 9.99961 20C12.7157 20 13.0554 19.9881 14.1222 19.9396C15.1867 19.8909 15.9142 19.7223 16.5505 19.475C17.208 19.2196 17.765 18.8771 18.3206 18.3209C18.8769 17.765 19.2186 17.2071 19.4748 16.5496C19.7207 15.9135 19.8895 15.1867 19.9395 14.1225C19.9873 13.0558 19.9998 12.7158 19.9998 10C19.9998 7.28416 19.9873 6.94331 19.9395 5.87667C19.8895 4.81207 19.7207 4.08536 19.4748 3.44958C19.2186 2.79185 18.8769 2.23389 18.3206 1.67811C17.7644 1.12187 17.2081 0.78015 16.5499 0.524996C15.9123 0.277654 15.1853 0.10914 14.1207 0.0603902C13.054 0.011875 12.7144 0 9.99774 0H10.0009ZM9.66735 1.80194H9.66758L10.0009 1.80202C12.6708 1.80202 12.9873 1.81163 14.0417 1.85952C15.0167 1.90413 15.5459 2.06702 15.8984 2.20389C16.365 2.38514 16.6978 2.60185 17.0475 2.95185C17.3975 3.30185 17.6142 3.63521 17.7959 4.10184C17.9328 4.45395 18.0959 4.98309 18.1402 5.95808C18.1881 7.01229 18.1986 7.32893 18.1986 9.99773C18.1986 12.6665 18.1881 12.9831 18.1402 14.0373C18.0956 15.0123 17.9328 15.5414 17.7959 15.8935C17.6146 16.3602 17.3975 16.6925 17.0475 17.0423C16.6975 17.3923 16.3653 17.609 15.8984 17.7902C15.5463 17.9277 15.0167 18.0902 14.0417 18.1348C12.9876 18.1827 12.6708 18.1931 10.0009 18.1931C7.33065 18.1931 7.01416 18.1827 5.96003 18.1348C4.98504 18.0898 4.45583 17.9269 4.10317 17.79C3.63646 17.6088 3.3031 17.392 2.9531 17.0421C2.6031 16.6921 2.38647 16.3596 2.20483 15.8927C2.06795 15.5407 1.90483 15.0114 1.86045 14.0365C1.81249 12.9823 1.80295 12.6656 1.80295 9.99523C1.80295 7.32479 1.81249 7.00979 1.86045 5.95558C1.90499 4.98059 2.06795 4.45145 2.20483 4.09895C2.38608 3.63224 2.6031 3.29896 2.9531 2.94896C3.3031 2.59896 3.63646 2.38225 4.10317 2.20061C4.45567 2.06311 4.98504 1.90061 5.96003 1.85577C6.88252 1.81413 7.24002 1.80163 9.10376 1.79952V1.80202C9.2779 1.80178 9.46524 1.80186 9.66735 1.80194ZM14.1388 4.66207C14.1388 3.99934 14.6763 3.46247 15.3388 3.46247V3.46208C16.0013 3.46208 16.5388 3.99958 16.5388 4.66207C16.5388 5.32457 16.0013 5.86206 15.3388 5.86206C14.6763 5.86206 14.1388 5.32457 14.1388 4.66207ZM10.0006 4.86457C7.16471 4.86465 4.86543 7.16401 4.86543 10C4.86543 12.8361 7.16479 15.1344 10.0009 15.1344C12.8369 15.1344 15.1354 12.8361 15.1354 10C15.1354 7.16393 12.8367 4.86457 10.0006 4.86457ZM13.3342 10C13.3342 8.15892 11.8417 6.66667 10.0009 6.66667C8.15978 6.66667 6.66753 8.15892 6.66753 10C6.66753 11.8408 8.15978 13.3333 10.0009 13.3333C11.8417 13.3333 13.3342 11.8408 13.3342 10Z" fill="#A27070"/>
</svg>
