<svg width="19" height="22" viewBox="0 0 19 22" fill="none" xmlns="http://www.w3.org/2000/svg">
<path fill-rule="evenodd" clip-rule="evenodd" d="M14.0986 8.04143C15.5266 9.05659 17.2367 9.59896 18.9888 9.59239V6.1201C18.6443 6.12105 18.3008 6.08418 17.9644 6.01014V8.7764C16.2084 8.77951 14.4959 8.23092 13.0685 7.20808V14.3494C13.0642 15.5212 12.7428 16.6701 12.1385 17.6741C11.5342 18.6781 10.6694 19.4998 9.63594 20.0521C8.60244 20.6045 7.43873 20.8668 6.26821 20.8114C5.09768 20.756 3.96397 20.3848 2.9873 19.7373C3.8907 20.6513 5.04502 21.2767 6.30409 21.5343C7.56316 21.7919 8.87035 21.67 10.0601 21.1842C11.2499 20.6984 12.2688 19.8704 12.9877 18.8052C13.7066 17.7399 14.0932 16.4853 14.0986 15.2001V8.04143ZM15.366 4.4997C14.6398 3.7126 14.1942 2.70749 14.0986 1.64085V1.18945H13.1264C13.2466 1.86746 13.5081 2.51259 13.8939 3.0829C14.2798 3.65321 14.7814 4.13594 15.366 4.4997ZM5.2385 16.9884C4.90153 16.5477 4.69502 16.0213 4.64248 15.4691C4.58995 14.9168 4.69349 14.3609 4.94134 13.8646C5.18918 13.3684 5.57137 12.9516 6.0444 12.6618C6.51743 12.3721 7.06231 12.2209 7.61702 12.2255C7.92328 12.2254 8.22775 12.2723 8.51981 12.3644V8.7764C8.17839 8.73118 7.83404 8.71184 7.4897 8.71853V11.5079C6.77853 11.2831 6.0088 11.3342 5.3336 11.6511C4.65841 11.968 4.12722 12.5274 3.84569 13.2181C3.56417 13.9088 3.55294 14.6801 3.81422 15.3787C4.07551 16.0773 4.59018 16.652 5.25587 16.9884H5.2385Z" fill="#A27070"/>
<path fill-rule="evenodd" clip-rule="evenodd" d="M13.0675 7.18494C14.4949 8.20777 16.2075 8.75636 17.9634 8.75325V5.987C16.963 5.77546 16.0541 5.25525 15.365 4.4997C14.7804 4.13594 14.2788 3.65321 13.893 3.0829C13.5071 2.51259 13.2456 1.86746 13.1254 1.18945H10.5675V15.2001C10.5651 15.8203 10.3686 16.4241 10.0055 16.9269C9.64239 17.4297 9.13097 17.8061 8.54301 18.0033C7.95506 18.2006 7.32009 18.2088 6.72724 18.0268C6.1344 17.8447 5.61345 17.4816 5.23752 16.9884C4.64175 16.6878 4.16463 16.1952 3.88314 15.5902C3.60165 14.9851 3.53221 14.3029 3.68602 13.6536C3.83983 13.0042 4.20792 12.4256 4.7309 12.0111C5.25388 11.5967 5.90125 11.3705 6.56856 11.369C6.87474 11.37 7.17904 11.4168 7.47135 11.5079V8.71853C6.20836 8.74885 4.98171 9.14728 3.94196 9.86491C2.90222 10.5825 2.09463 11.5881 1.61834 12.7583C1.14205 13.9284 1.01779 15.2122 1.2608 16.4519C1.50381 17.6917 2.10352 18.8335 2.98632 19.7372C3.96319 20.3894 5.09868 20.7645 6.27183 20.8223C7.44499 20.8802 8.61187 20.6187 9.64818 20.0658C10.6845 19.5129 11.5514 18.6893 12.1566 17.6826C12.7618 16.676 13.0826 15.524 13.0849 14.3494L13.0675 7.18494Z" fill="#A27070"/>
<path opacity="0.2" fill-rule="evenodd" clip-rule="evenodd" d="M17.9641 5.98705V5.24051C17.0453 5.24441 16.1443 4.98755 15.3657 4.49975C16.053 5.25747 16.9626 5.77812 17.9641 5.98705ZM13.126 1.18951C13.126 1.0564 13.0855 0.917509 13.0682 0.784405V0.333008H9.538V14.3495C9.53493 15.1343 9.22061 15.8859 8.66402 16.4392C8.10743 16.9925 7.35404 17.3025 6.56919 17.3009C6.10707 17.3032 5.65096 17.1961 5.23815 16.9884C5.61408 17.4816 6.13503 17.8448 6.72788 18.0268C7.32072 18.2088 7.95569 18.2007 8.54365 18.0034C9.1316 17.8061 9.64302 17.4297 10.0061 16.9269C10.3692 16.4242 10.5657 15.8203 10.5681 15.2002V1.18951H13.126ZM7.47199 8.71279V7.91995C6.01935 7.72262 4.5427 8.0231 3.2827 8.77243C2.0227 9.52177 1.05365 10.6758 0.533466 12.0464C0.0132874 13.4169 -0.027343 14.9233 0.418197 16.3199C0.863737 17.7166 1.76918 18.9211 2.98695 19.7373C2.11084 18.8315 1.51751 17.6901 1.27946 16.4526C1.04141 15.2151 1.16894 13.935 1.64648 12.7688C2.12401 11.6026 2.93087 10.6007 3.96849 9.88557C5.0061 9.17041 6.22954 8.77294 7.48935 8.74173L7.47199 8.71279Z" fill="#A27070"/>
</svg>
