<svg width="20" height="20" viewBox="0 0 20 20" fill="none" xmlns="http://www.w3.org/2000/svg">
<g clip-path="url(#clip0_1552_5686)">
<path d="M7.25 14.9998H2.5C1.25583 14.9998 0 14.0548 0 11.9448V7.74485C0.0175226 5.82999 0.734522 3.9876 2.01598 2.56463C3.29744 1.14166 5.05493 0.23629 6.9575 0.0190131C8.03113 -0.058925 9.10896 0.0951644 10.1178 0.470811C11.1265 0.846457 12.0426 1.43486 12.8038 2.19603C13.565 2.9572 14.1534 3.87331 14.529 4.88209C14.9047 5.89088 15.0588 6.96871 14.9808 8.04235C14.7633 9.9457 13.8571 11.7038 12.4332 12.9853C11.0092 14.2668 9.16567 14.9834 7.25 14.9998ZM16.6667 7.56651H16.6567C16.6567 7.76401 16.6567 7.96151 16.6467 8.15985C16.325 12.6665 12.2058 16.4815 7.57 16.6507V16.6632C8.15384 17.6758 8.99364 18.5171 10.0052 19.1027C11.0167 19.6883 12.1645 19.9977 13.3333 19.9998H17.5C18.163 19.9998 18.7989 19.7365 19.2678 19.2676C19.7366 18.7988 20 18.1629 20 17.4998V13.3332C19.9988 12.1641 19.6902 11.0159 19.1051 10.0037C18.5201 8.99157 17.6791 8.15106 16.6667 7.56651Z" fill="#374957"/>
</g>
<defs>
<clipPath id="clip0_1552_5686">
<rect width="20" height="20" fill="white"/>
</clipPath>
</defs>
</svg>
