<svg width="20" height="20" viewBox="0 0 20 20" fill="none" xmlns="http://www.w3.org/2000/svg">
<path d="M1.10551 10.3336L4.07217 12.5002L2.94551 15.9894C2.76343 16.5306 2.76113 17.1161 2.93893 17.6587C3.11674 18.2012 3.46513 18.6718 3.93217 19.0002C4.39122 19.3392 4.9475 19.5208 5.51813 19.518C6.08877 19.5151 6.64321 19.328 7.09884 18.9844L9.99967 16.8494L12.9013 18.9819C13.3596 19.319 13.9128 19.502 14.4816 19.5048C15.0505 19.5076 15.6055 19.3299 16.067 18.9973C16.5285 18.6648 16.8726 18.1945 17.0499 17.654C17.2272 17.1135 17.2286 16.5307 17.0538 15.9894L15.9272 12.5002L18.8938 10.3336C19.3515 9.999 19.6916 9.52837 19.8658 8.98891C20.04 8.44944 20.0392 7.86873 19.8636 7.32974C19.688 6.79074 19.3465 6.32102 18.888 5.98767C18.4295 5.65432 17.8774 5.47439 17.3105 5.47358H13.6663L12.5605 2.02691C12.3866 1.48438 12.0449 1.01109 11.5846 0.675301C11.1244 0.339511 10.5694 0.158569 9.99967 0.158569C9.42995 0.158569 8.87495 0.339511 8.4147 0.675301C7.95445 1.01109 7.61274 1.48438 7.43884 2.02691L6.33301 5.47358H2.69217C2.12529 5.47439 1.57317 5.65432 1.11466 5.98767C0.656146 6.32102 0.314706 6.79074 0.139107 7.32974C-0.0364925 7.86873 -0.0372697 8.44944 0.136886 8.98891C0.311042 9.52837 0.651223 9.999 1.10884 10.3336H1.10551Z" fill="#A27070"/>
</svg>
