<svg width="20" height="20" viewBox="0 0 20 20" fill="none" xmlns="http://www.w3.org/2000/svg">
<path d="M19.863 7.32858C19.6925 6.786 19.352 6.31267 18.8917 5.97861C18.4314 5.64454 17.8759 5.46747 17.3072 5.47358H13.6663L12.5605 2.02691C12.3866 1.48438 12.0449 1.01109 11.5846 0.675301C11.1244 0.339511 10.5694 0.158569 9.99967 0.158569C9.42995 0.158569 8.87495 0.339511 8.4147 0.675301C7.95445 1.01109 7.61274 1.48438 7.43884 2.02691L6.33301 5.47358H2.69217C2.12529 5.47439 1.57317 5.65432 1.11466 5.98767C0.656146 6.32102 0.314706 6.79074 0.139107 7.32974C-0.0364925 7.86873 -0.0372697 8.44944 0.136886 8.98891C0.311042 9.52837 0.651223 9.999 1.10884 10.3336L4.07217 12.5002L2.94551 15.9894C2.76343 16.5306 2.76113 17.1161 2.93893 17.6587C3.11673 18.2012 3.46513 18.6718 3.93217 19.0002C4.39122 19.3392 4.9475 19.5208 5.51813 19.518C6.08877 19.5151 6.64321 19.328 7.09884 18.9844L9.99967 16.8494L12.9013 18.9819C13.3596 19.319 13.9128 19.502 14.4816 19.5048C15.0505 19.5076 15.6055 19.3299 16.067 18.9973C16.5285 18.6648 16.8726 18.1945 17.0499 17.654C17.2272 17.1135 17.2286 16.5307 17.0538 15.9894L15.9272 12.5002L18.8938 10.3336C19.3567 10.0032 19.7009 9.53258 19.8754 8.99137C20.05 8.45016 20.0456 7.86713 19.863 7.32858ZM17.9105 8.98775L14.4572 11.5119C14.3153 11.6154 14.2098 11.761 14.1556 11.928C14.1014 12.095 14.1014 12.2749 14.1555 12.4419L15.468 16.5002C15.5344 16.7061 15.5339 16.9277 15.4664 17.1332C15.3989 17.3387 15.268 17.5175 15.0925 17.6439C14.917 17.7703 14.706 17.8378 14.4897 17.8367C14.2734 17.8356 14.063 17.7659 13.8888 17.6377L10.493 15.1377C10.35 15.0327 10.1771 14.976 9.99967 14.976C9.8222 14.976 9.64937 15.0327 9.50634 15.1377L6.11051 17.6377C5.93641 17.7677 5.72545 17.8388 5.50823 17.8408C5.291 17.8427 5.07879 17.7755 4.90236 17.6487C4.72594 17.522 4.59446 17.3423 4.527 17.1358C4.45954 16.9293 4.4596 16.7067 4.52717 16.5002L5.84384 12.4419C5.89794 12.2749 5.8979 12.095 5.84372 11.928C5.78955 11.761 5.68401 11.6154 5.54217 11.5119L2.08884 8.98775C1.91493 8.86041 1.7857 8.68137 1.71962 8.4762C1.65355 8.27103 1.654 8.05023 1.72091 7.84533C1.78782 7.64043 1.91778 7.46192 2.09221 7.33529C2.26664 7.20866 2.47662 7.1404 2.69217 7.14025H6.94217C7.1186 7.14024 7.29048 7.08424 7.43305 6.98031C7.57561 6.87638 7.68152 6.72988 7.73551 6.56191L9.02717 2.53608C9.09347 2.33007 9.22343 2.15041 9.39834 2.02295C9.57325 1.8955 9.78409 1.82683 10.0005 1.82683C10.2169 1.82683 10.4278 1.8955 10.6027 2.02295C10.7776 2.15041 10.9075 2.33007 10.9738 2.53608L12.2655 6.56191C12.3195 6.72988 12.4254 6.87638 12.568 6.98031C12.7105 7.08424 12.8824 7.14024 13.0588 7.14025H17.3088C17.5244 7.1404 17.7344 7.20866 17.9088 7.33529C18.0832 7.46192 18.2132 7.64043 18.2801 7.84533C18.347 8.05023 18.3475 8.27103 18.2814 8.4762C18.2153 8.68137 18.0861 8.86041 17.9122 8.98775H17.9105Z" fill="white"/>
</svg>
