<svg width="78" height="12" viewBox="0 0 78 12" fill="none" xmlns="http://www.w3.org/2000/svg">
<path d="M4.1036 11.0695C3.92627 11.0695 3.77693 11.0089 3.6556 10.8875C3.53427 10.7662 3.4736 10.6169 3.4736 10.4395V2.41754H0.617601C0.449601 2.41754 0.309601 2.36154 0.197601 2.24954C0.0856013 2.13754 0.0296021 1.99754 0.0296021 1.82954C0.0296021 1.66154 0.0856013 1.52154 0.197601 1.40954C0.309601 1.28821 0.449601 1.22754 0.617601 1.22754H7.5896C7.7576 1.22754 7.8976 1.28821 8.0096 1.40954C8.13093 1.52154 8.1916 1.66154 8.1916 1.82954C8.1916 1.99754 8.13093 2.13754 8.0096 2.24954C7.8976 2.36154 7.7576 2.41754 7.5896 2.41754H4.7476V10.4395C4.7476 10.6169 4.68227 10.7662 4.5516 10.8875C4.43027 11.0089 4.28093 11.0695 4.1036 11.0695Z" fill="#726B6E"/>
<path fill-rule="evenodd" clip-rule="evenodd" d="M9.10051 10.1735C9.74451 10.8175 10.6358 11.1395 11.7745 11.1395C12.3345 11.1395 12.7918 11.0882 13.1465 10.9855C13.5012 10.8829 13.8605 10.7289 14.2245 10.5235C14.4672 10.3835 14.5885 10.2109 14.5885 10.0055C14.5885 9.84687 14.5325 9.71621 14.4205 9.61354C14.3085 9.51087 14.1778 9.45954 14.0285 9.45954C13.9352 9.45954 13.8512 9.47821 13.7765 9.51554C13.4965 9.65554 13.2072 9.76287 12.9085 9.83754C12.6192 9.91221 12.2785 9.94954 11.8865 9.94954C11.1492 9.94954 10.5752 9.76754 10.1645 9.40354C9.75384 9.03954 9.51118 8.53087 9.43651 7.87754H14.1825C14.3785 7.87754 14.5325 7.81687 14.6445 7.69554C14.7658 7.57421 14.8265 7.42487 14.8265 7.24754C14.8265 6.61287 14.6958 6.02954 14.4345 5.49754C14.1732 4.95621 13.7905 4.52687 13.2865 4.20954C12.7825 3.88287 12.1852 3.71954 11.4945 3.71954C10.7572 3.71954 10.1365 3.89221 9.63251 4.23754C9.12851 4.58287 8.75517 5.03554 8.51251 5.59554C8.26984 6.15554 8.14851 6.76687 8.14851 7.42954C8.14851 8.60554 8.46584 9.52021 9.10051 10.1735ZM13.2025 5.69354C13.4172 6.00154 13.5385 6.38421 13.5665 6.84154H9.43651C9.46451 6.38421 9.58117 6.00154 9.78651 5.69354C9.99184 5.38554 10.2485 5.16154 10.5565 5.02154C10.8645 4.87221 11.1772 4.79754 11.4945 4.79754C11.8118 4.79754 12.1245 4.87221 12.4325 5.02154C12.7405 5.16154 12.9972 5.38554 13.2025 5.69354Z" fill="#726B6E"/>
<path fill-rule="evenodd" clip-rule="evenodd" d="M18.3322 11.1395C17.9215 11.1395 17.5389 11.0555 17.1842 10.8875C16.8389 10.7195 16.5635 10.4769 16.3582 10.1595C16.1529 9.83287 16.0502 9.45954 16.0502 9.03954C16.0502 8.34887 16.3209 7.79821 16.8622 7.38754C17.4129 6.97687 18.2155 6.77154 19.2702 6.77154H20.9642V6.65954C20.9642 6.04354 20.8102 5.6002 20.5022 5.32954C20.2035 5.05887 19.7322 4.92354 19.0882 4.92354C18.7335 4.92354 18.4162 4.95154 18.1362 5.00754C17.8655 5.06354 17.5622 5.14754 17.2262 5.25954C17.1515 5.27821 17.0909 5.28754 17.0442 5.28754C16.9042 5.28754 16.7829 5.23621 16.6802 5.13354C16.5775 5.03087 16.5262 4.90487 16.5262 4.75554C16.5262 4.50354 16.6475 4.32621 16.8902 4.22354C17.6835 3.88754 18.4909 3.71954 19.3122 3.71954C19.9562 3.71954 20.4975 3.85021 20.9362 4.11154C21.3842 4.37287 21.7109 4.71354 21.9162 5.13354C22.1309 5.54421 22.2382 5.99221 22.2382 6.47754V10.4395C22.2382 10.6169 22.1729 10.7662 22.0422 10.8875C21.9209 11.0089 21.7715 11.0695 21.5942 11.0695C21.4169 11.0695 21.2675 11.0089 21.1462 10.8875C21.0249 10.7662 20.9642 10.6169 20.9642 10.4395V10.0755C20.2735 10.7849 19.3962 11.1395 18.3322 11.1395ZM18.8082 10.0195C19.2189 10.0195 19.6155 9.92154 19.9982 9.72554C20.3809 9.52021 20.7029 9.26821 20.9642 8.96954V7.79354H19.4382C18.0289 7.79354 17.3242 8.16221 17.3242 8.89954C17.3242 9.23554 17.4362 9.50621 17.6602 9.71154C17.8935 9.91687 18.2762 10.0195 18.8082 10.0195Z" fill="#726B6E"/>
<path d="M24.5555 10.8875C24.6769 11.0089 24.8262 11.0695 25.0035 11.0695C25.1809 11.0695 25.3302 11.0089 25.4515 10.8875C25.5822 10.7662 25.6475 10.6169 25.6475 10.4395V6.23954C25.8902 5.83821 26.1655 5.51621 26.4735 5.27354C26.7909 5.02154 27.1875 4.89554 27.6635 4.89554C28.1862 4.89554 28.5549 5.04021 28.7695 5.32954C28.9842 5.60954 29.0915 6.05287 29.0915 6.65954V10.4395C29.0915 10.6169 29.1522 10.7662 29.2735 10.8875C29.3949 11.0089 29.5442 11.0695 29.7215 11.0695C29.8989 11.0695 30.0482 11.0089 30.1695 10.8875C30.3002 10.7662 30.3655 10.6169 30.3655 10.4395V6.23954C30.6082 5.83821 30.8835 5.51621 31.1915 5.27354C31.5089 5.02154 31.9055 4.89554 32.3815 4.89554C32.9042 4.89554 33.2729 5.04021 33.4875 5.32954C33.7022 5.60954 33.8095 6.05287 33.8095 6.65954V10.4395C33.8095 10.6169 33.8702 10.7662 33.9915 10.8875C34.1129 11.0089 34.2622 11.0695 34.4395 11.0695C34.6169 11.0695 34.7662 11.0089 34.8875 10.8875C35.0182 10.7662 35.0835 10.6169 35.0835 10.4395V6.40754C35.0835 5.95954 34.9995 5.53021 34.8315 5.11954C34.6635 4.70887 34.4022 4.37287 34.0475 4.11154C33.7022 3.85021 33.2682 3.71954 32.7455 3.71954C31.6069 3.71954 30.7482 4.20021 30.1695 5.16154C30.0109 4.76021 29.7449 4.41954 29.3715 4.13954C28.9982 3.85954 28.5502 3.71954 28.0275 3.71954C27.4395 3.71954 26.9589 3.84087 26.5855 4.08354C26.2215 4.32621 25.9089 4.63421 25.6475 5.00754V4.43354C25.6475 4.25621 25.5822 4.10687 25.4515 3.98554C25.3302 3.85487 25.1809 3.78954 25.0035 3.78954C24.8262 3.78954 24.6769 3.85487 24.5555 3.98554C24.4342 4.10687 24.3735 4.25621 24.3735 4.43354V10.4395C24.3735 10.6169 24.4342 10.7662 24.5555 10.8875Z" fill="#726B6E"/>
<path d="M37.9402 11.0702C37.7628 11.0702 37.6135 11.0095 37.4922 10.8882C37.3708 10.7669 37.3102 10.6175 37.3102 10.4402V2.0822C37.3102 1.8302 37.3988 1.61554 37.5762 1.4382C37.7535 1.25154 37.9682 1.1582 38.2202 1.1582H38.6822C38.8688 1.1582 39.0368 1.2142 39.1862 1.3262C39.3448 1.4382 39.4615 1.5782 39.5362 1.7462L42.7142 9.6702L45.8922 1.7462C45.9669 1.5782 46.0788 1.4382 46.2282 1.3262C46.3868 1.2142 46.5595 1.1582 46.7462 1.1582H47.2082C47.4602 1.1582 47.6748 1.25154 47.8522 1.4382C48.0295 1.61554 48.1182 1.8302 48.1182 2.0822V10.4402C48.1182 10.6175 48.0575 10.7669 47.9362 10.8882C47.8148 11.0095 47.6655 11.0702 47.4882 11.0702C47.3108 11.0702 47.1568 11.0095 47.0262 10.8882C46.9049 10.7669 46.8442 10.6175 46.8442 10.4402V2.4882L43.6102 10.4822C43.5355 10.6595 43.4142 10.8042 43.2462 10.9162C43.0875 11.0189 42.9102 11.0702 42.7142 11.0702C42.5182 11.0702 42.3362 11.0189 42.1682 10.9162C42.0095 10.8042 41.8928 10.6595 41.8182 10.4822L38.5842 2.4882V10.4402C38.5842 10.6175 38.5188 10.7669 38.3882 10.8882C38.2668 11.0095 38.1175 11.0702 37.9402 11.0702Z" fill="#726B6E"/>
<path d="M52.3997 11.1397C51.989 11.1397 51.6063 11.0557 51.2517 10.8877C50.9063 10.7197 50.631 10.477 50.4257 10.1597C50.2203 9.83307 50.1177 9.45973 50.1177 9.03973C50.1177 8.34907 50.3883 7.7984 50.9297 7.38773C51.4803 6.97707 52.283 6.77173 53.3377 6.77173H55.0317V6.65973C55.0317 6.04373 54.8777 5.6004 54.5697 5.32973C54.271 5.05907 53.7997 4.92373 53.1557 4.92373C52.801 4.92373 52.4837 4.95173 52.2037 5.00773C51.933 5.06373 51.6297 5.14773 51.2937 5.25973C51.219 5.2784 51.1583 5.28773 51.1117 5.28773C50.9717 5.28773 50.8503 5.2364 50.7477 5.13373C50.645 5.03107 50.5937 4.90507 50.5937 4.75573C50.5937 4.50373 50.715 4.3264 50.9577 4.22373C51.751 3.88773 52.5583 3.71973 53.3797 3.71973C54.0237 3.71973 54.565 3.8504 55.0037 4.11173C55.4517 4.37307 55.7783 4.71373 55.9837 5.13373C56.1983 5.5444 56.3057 5.9924 56.3057 6.47773V10.4397C56.3057 10.617 56.2403 10.7664 56.1097 10.8877C55.9883 11.009 55.839 11.0697 55.6617 11.0697C55.4843 11.0697 55.335 11.009 55.2137 10.8877C55.0923 10.7664 55.0317 10.617 55.0317 10.4397V10.0757C54.341 10.785 53.4637 11.1397 52.3997 11.1397ZM52.8757 10.0197C53.2863 10.0197 53.683 9.92173 54.0657 9.72573C54.4483 9.5204 54.7703 9.2684 55.0317 8.96973V7.79373H53.5057C52.0963 7.79373 51.3917 8.1624 51.3917 8.89973C51.3917 9.23573 51.5037 9.5064 51.7277 9.71173C51.961 9.91707 52.3437 10.0197 52.8757 10.0197Z" fill="#726B6E"/>
<path d="M59.071 11.0697C58.8937 11.0697 58.7443 11.009 58.623 10.8877C58.5017 10.7664 58.441 10.617 58.441 10.4397V4.43373C58.441 4.2564 58.5017 4.10707 58.623 3.98573C58.7443 3.85507 58.8937 3.78973 59.071 3.78973C59.2483 3.78973 59.3977 3.85507 59.519 3.98573C59.6497 4.10707 59.715 4.2564 59.715 4.43373V5.00773C59.9763 4.6344 60.289 4.3264 60.653 4.08373C61.0263 3.84107 61.507 3.71973 62.095 3.71973C62.6177 3.71973 63.0657 3.85973 63.439 4.13973C63.8123 4.41973 64.0783 4.7604 64.237 5.16173C64.8157 4.2004 65.6743 3.71973 66.813 3.71973C67.3357 3.71973 67.7697 3.8504 68.115 4.11173C68.4697 4.37307 68.731 4.70907 68.899 5.11973C69.067 5.5304 69.151 5.95973 69.151 6.40773V10.4397C69.151 10.617 69.0857 10.7664 68.955 10.8877C68.8337 11.009 68.6843 11.0697 68.507 11.0697C68.3297 11.0697 68.1803 11.009 68.059 10.8877C67.9377 10.7664 67.877 10.617 67.877 10.4397V6.65973C67.877 6.05307 67.7697 5.60973 67.555 5.32973C67.3403 5.0404 66.9717 4.89573 66.449 4.89573C65.973 4.89573 65.5763 5.02173 65.259 5.27373C64.951 5.5164 64.6757 5.8384 64.433 6.23973V10.4397C64.433 10.617 64.3677 10.7664 64.237 10.8877C64.1157 11.009 63.9663 11.0697 63.789 11.0697C63.6117 11.0697 63.4623 11.009 63.341 10.8877C63.2197 10.7664 63.159 10.617 63.159 10.4397V6.65973C63.159 6.05307 63.0517 5.60973 62.837 5.32973C62.6223 5.0404 62.2537 4.89573 61.731 4.89573C61.255 4.89573 60.8583 5.02173 60.541 5.27373C60.233 5.5164 59.9577 5.8384 59.715 6.23973V10.4397C59.715 10.617 59.6497 10.7664 59.519 10.8877C59.3977 11.009 59.2483 11.0697 59.071 11.0697Z" fill="#726B6E"/>
<path d="M73.1126 11.1397C72.7019 11.1397 72.3192 11.0557 71.9646 10.8877C71.6192 10.7197 71.3439 10.477 71.1386 10.1597C70.9332 9.83307 70.8306 9.45973 70.8306 9.03973C70.8306 8.34907 71.1012 7.7984 71.6426 7.38773C72.1932 6.97707 72.9959 6.77173 74.0506 6.77173H75.7446V6.65973C75.7446 6.04373 75.5906 5.6004 75.2826 5.32973C74.9839 5.05907 74.5126 4.92373 73.8686 4.92373C73.5139 4.92373 73.1966 4.95173 72.9166 5.00773C72.6459 5.06373 72.3426 5.14773 72.0066 5.25973C71.9319 5.2784 71.8712 5.28773 71.8246 5.28773C71.6846 5.28773 71.5632 5.2364 71.4606 5.13373C71.3579 5.03107 71.3066 4.90507 71.3066 4.75573C71.3066 4.50373 71.4279 4.3264 71.6706 4.22373C72.4639 3.88773 73.2712 3.71973 74.0926 3.71973C74.7366 3.71973 75.2779 3.8504 75.7166 4.11173C76.1646 4.37307 76.4912 4.71373 76.6966 5.13373C76.9112 5.5444 77.0186 5.9924 77.0186 6.47773V10.4397C77.0186 10.617 76.9532 10.7664 76.8226 10.8877C76.7012 11.009 76.5519 11.0697 76.3746 11.0697C76.1972 11.0697 76.0479 11.009 75.9266 10.8877C75.8052 10.7664 75.7446 10.617 75.7446 10.4397V10.0757C75.0539 10.785 74.1766 11.1397 73.1126 11.1397ZM73.5886 10.0197C73.9992 10.0197 74.3959 9.92173 74.7786 9.72573C75.1612 9.5204 75.4832 9.2684 75.7446 8.96973V7.79373H74.2186C72.8092 7.79373 72.1046 8.1624 72.1046 8.89973C72.1046 9.23573 72.2166 9.5064 72.4406 9.71173C72.6739 9.91707 73.0566 10.0197 73.5886 10.0197Z" fill="#726B6E"/>
<path d="M37.9402 11.0702C37.7628 11.0702 37.6135 11.0095 37.4922 10.8882C37.3708 10.7669 37.3102 10.6175 37.3102 10.4402V2.0822C37.3102 1.8302 37.3988 1.61554 37.5762 1.4382C37.7535 1.25154 37.9682 1.1582 38.2202 1.1582H38.6822C38.8688 1.1582 39.0368 1.2142 39.1862 1.3262C39.3448 1.4382 39.4615 1.5782 39.5362 1.7462L42.7142 9.6702L45.8922 1.7462C45.9669 1.5782 46.0788 1.4382 46.2282 1.3262C46.3868 1.2142 46.5595 1.1582 46.7462 1.1582H47.2082C47.4602 1.1582 47.6748 1.25154 47.8522 1.4382C48.0295 1.61554 48.1182 1.8302 48.1182 2.0822V10.4402C48.1182 10.6175 48.0575 10.7669 47.9362 10.8882C47.8148 11.0095 47.6655 11.0702 47.4882 11.0702C47.3108 11.0702 47.1568 11.0095 47.0262 10.8882C46.9049 10.7669 46.8442 10.6175 46.8442 10.4402V2.4882L43.6102 10.4822C43.5355 10.6595 43.4142 10.8042 43.2462 10.9162C43.0875 11.0189 42.9102 11.0702 42.7142 11.0702C42.5182 11.0702 42.3362 11.0189 42.1682 10.9162C42.0095 10.8042 41.8928 10.6595 41.8182 10.4822L38.5842 2.4882V10.4402C38.5842 10.6175 38.5188 10.7669 38.3882 10.8882C38.2668 11.0095 38.1175 11.0702 37.9402 11.0702Z" stroke="#726B6E" stroke-width="0.5"/>
<path d="M52.3997 11.1397C51.989 11.1397 51.6063 11.0557 51.2517 10.8877C50.9063 10.7197 50.631 10.477 50.4257 10.1597C50.2203 9.83307 50.1177 9.45973 50.1177 9.03973C50.1177 8.34907 50.3883 7.7984 50.9297 7.38773C51.4803 6.97707 52.283 6.77173 53.3377 6.77173H55.0317V6.65973C55.0317 6.04373 54.8777 5.6004 54.5697 5.32973C54.271 5.05907 53.7997 4.92373 53.1557 4.92373C52.801 4.92373 52.4837 4.95173 52.2037 5.00773C51.933 5.06373 51.6297 5.14773 51.2937 5.25973C51.219 5.2784 51.1583 5.28773 51.1117 5.28773C50.9717 5.28773 50.8503 5.2364 50.7477 5.13373C50.645 5.03107 50.5937 4.90507 50.5937 4.75573C50.5937 4.50373 50.715 4.3264 50.9577 4.22373C51.751 3.88773 52.5583 3.71973 53.3797 3.71973C54.0237 3.71973 54.565 3.8504 55.0037 4.11173C55.4517 4.37307 55.7783 4.71373 55.9837 5.13373C56.1983 5.5444 56.3057 5.9924 56.3057 6.47773V10.4397C56.3057 10.617 56.2403 10.7664 56.1097 10.8877C55.9883 11.009 55.839 11.0697 55.6617 11.0697C55.4843 11.0697 55.335 11.009 55.2137 10.8877C55.0923 10.7664 55.0317 10.617 55.0317 10.4397V10.0757C54.341 10.785 53.4637 11.1397 52.3997 11.1397ZM52.8757 10.0197C53.2863 10.0197 53.683 9.92173 54.0657 9.72573C54.4483 9.5204 54.7703 9.2684 55.0317 8.96973V7.79373H53.5057C52.0963 7.79373 51.3917 8.1624 51.3917 8.89973C51.3917 9.23573 51.5037 9.5064 51.7277 9.71173C51.961 9.91707 52.3437 10.0197 52.8757 10.0197Z" stroke="#726B6E" stroke-width="0.5"/>
<path d="M59.071 11.0697C58.8937 11.0697 58.7443 11.009 58.623 10.8877C58.5017 10.7664 58.441 10.617 58.441 10.4397V4.43373C58.441 4.2564 58.5017 4.10707 58.623 3.98573C58.7443 3.85507 58.8937 3.78973 59.071 3.78973C59.2483 3.78973 59.3977 3.85507 59.519 3.98573C59.6497 4.10707 59.715 4.2564 59.715 4.43373V5.00773C59.9763 4.6344 60.289 4.3264 60.653 4.08373C61.0263 3.84107 61.507 3.71973 62.095 3.71973C62.6177 3.71973 63.0657 3.85973 63.439 4.13973C63.8123 4.41973 64.0783 4.7604 64.237 5.16173C64.8157 4.2004 65.6743 3.71973 66.813 3.71973C67.3357 3.71973 67.7697 3.8504 68.115 4.11173C68.4697 4.37307 68.731 4.70907 68.899 5.11973C69.067 5.5304 69.151 5.95973 69.151 6.40773V10.4397C69.151 10.617 69.0857 10.7664 68.955 10.8877C68.8337 11.009 68.6843 11.0697 68.507 11.0697C68.3297 11.0697 68.1803 11.009 68.059 10.8877C67.9377 10.7664 67.877 10.617 67.877 10.4397V6.65973C67.877 6.05307 67.7697 5.60973 67.555 5.32973C67.3403 5.0404 66.9717 4.89573 66.449 4.89573C65.973 4.89573 65.5763 5.02173 65.259 5.27373C64.951 5.5164 64.6757 5.8384 64.433 6.23973V10.4397C64.433 10.617 64.3677 10.7664 64.237 10.8877C64.1157 11.009 63.9663 11.0697 63.789 11.0697C63.6117 11.0697 63.4623 11.009 63.341 10.8877C63.2197 10.7664 63.159 10.617 63.159 10.4397V6.65973C63.159 6.05307 63.0517 5.60973 62.837 5.32973C62.6223 5.0404 62.2537 4.89573 61.731 4.89573C61.255 4.89573 60.8583 5.02173 60.541 5.27373C60.233 5.5164 59.9577 5.8384 59.715 6.23973V10.4397C59.715 10.617 59.6497 10.7664 59.519 10.8877C59.3977 11.009 59.2483 11.0697 59.071 11.0697Z" stroke="#726B6E" stroke-width="0.5"/>
<path d="M73.1126 11.1397C72.7019 11.1397 72.3192 11.0557 71.9646 10.8877C71.6192 10.7197 71.3439 10.477 71.1386 10.1597C70.9332 9.83307 70.8306 9.45973 70.8306 9.03973C70.8306 8.34907 71.1012 7.7984 71.6426 7.38773C72.1932 6.97707 72.9959 6.77173 74.0506 6.77173H75.7446V6.65973C75.7446 6.04373 75.5906 5.6004 75.2826 5.32973C74.9839 5.05907 74.5126 4.92373 73.8686 4.92373C73.5139 4.92373 73.1966 4.95173 72.9166 5.00773C72.6459 5.06373 72.3426 5.14773 72.0066 5.25973C71.9319 5.2784 71.8712 5.28773 71.8246 5.28773C71.6846 5.28773 71.5632 5.2364 71.4606 5.13373C71.3579 5.03107 71.3066 4.90507 71.3066 4.75573C71.3066 4.50373 71.4279 4.3264 71.6706 4.22373C72.4639 3.88773 73.2712 3.71973 74.0926 3.71973C74.7366 3.71973 75.2779 3.8504 75.7166 4.11173C76.1646 4.37307 76.4912 4.71373 76.6966 5.13373C76.9112 5.5444 77.0186 5.9924 77.0186 6.47773V10.4397C77.0186 10.617 76.9532 10.7664 76.8226 10.8877C76.7012 11.009 76.5519 11.0697 76.3746 11.0697C76.1972 11.0697 76.0479 11.009 75.9266 10.8877C75.8052 10.7664 75.7446 10.617 75.7446 10.4397V10.0757C75.0539 10.785 74.1766 11.1397 73.1126 11.1397ZM73.5886 10.0197C73.9992 10.0197 74.3959 9.92173 74.7786 9.72573C75.1612 9.5204 75.4832 9.2684 75.7446 8.96973V7.79373H74.2186C72.8092 7.79373 72.1046 8.1624 72.1046 8.89973C72.1046 9.23573 72.2166 9.5064 72.4406 9.71173C72.6739 9.91707 73.0566 10.0197 73.5886 10.0197Z" stroke="#726B6E" stroke-width="0.5"/>
</svg>
