<svg width="20" height="20" viewBox="0 0 20 20" fill="none" xmlns="http://www.w3.org/2000/svg">
<path d="M17.4999 3.33332H14.9166C14.5179 1.39465 12.8125 0.0025 10.8333 0H9.16659C7.18733 0.0025 5.48194 1.39465 5.08327 3.33332H2.49995C2.03971 3.33332 1.66663 3.70641 1.66663 4.16664C1.66663 4.62687 2.03971 5 2.49995 5H3.33327V15.8333C3.33604 18.1334 5.19991 19.9973 7.49995 20H12.4999C14.8 19.9973 16.6639 18.1334 16.6666 15.8333V5H17.4999C17.9602 5 18.3333 4.62691 18.3333 4.16668C18.3333 3.70645 17.9602 3.33332 17.4999 3.33332ZM9.16663 14.1667C9.16663 14.6269 8.79354 15 8.33331 15C7.87303 15 7.49995 14.6269 7.49995 14.1667V9.16668C7.49995 8.70645 7.87303 8.33336 8.33327 8.33336C8.7935 8.33336 9.16659 8.70645 9.16659 9.16668V14.1667H9.16663ZM12.4999 14.1667C12.4999 14.6269 12.1269 15 11.6666 15C11.2064 15 10.8333 14.6269 10.8333 14.1667V9.16668C10.8333 8.70645 11.2064 8.33336 11.6666 8.33336C12.1269 8.33336 12.4999 8.70645 12.4999 9.16668V14.1667ZM6.80913 3.33332C7.16358 2.33523 8.10749 1.66793 9.16663 1.66664H10.8333C11.8924 1.66793 12.8364 2.33523 13.1908 3.33332H6.80913Z" fill="#374957"/>
</svg>
