<svg width="123" height="123" viewBox="0 0 123 123" fill="none" xmlns="http://www.w3.org/2000/svg">
<g clip-path="url(#clip0_3665_8805)">
<path d="M55.1399 104.21C59.3599 104.21 63.5799 104.4 67.7999 104.12C71.6399 103.93 75.6799 103.56 79.4299 102.62C109.25 95.31 125.19 62.39 112.15 34.55C104.27 17.76 90.7699 8.18995 72.2999 6.21995C58.1399 4.71995 45.4799 8.93995 34.7899 18.5C24.2899 27.97 18.8499 39.7799 18.4799 53.9399C18.3899 57.2199 18.4799 60.6 18.4799 63.88C18.3799 71.02 14.3499 76.55 7.49987 78.7C7.40987 78.7 7.21987 78.89 7.11987 78.89C9.74987 85.83 20.4299 96.05 27.0899 98.58C35.4499 87.14 52.3199 91.18 55.1399 104.21Z" fill="white"/>
<path d="M54.95 110.49C53.92 115.18 51.39 118.65 47.26 120.8C42.01 123.52 36.66 123.43 31.69 120.24C26.53 116.96 24.28 111.99 24.66 105.89C24.75 104.86 24.47 104.48 23.63 104.01C14.53 99.23 7.31996 92.57 2.34996 83.57C1.40996 81.79 0.659958 79.91 0.189958 77.94C-0.470042 75.22 0.569959 73.91 3.37996 73.63C6.75996 73.25 9.75996 71.94 11.26 68.75C11.92 67.34 12.29 65.66 12.29 64.06C12.48 60.03 12.29 56 12.48 51.96C13.51 36.39 19.98 23.46 31.8 13.33C42.67 3.96996 55.42 -0.430042 69.76 0.0299582C94.8 0.969958 116.27 18.6 121.33 43.26C125.92 65.58 118.99 84.24 101.26 98.77C100.23 99.61 99.1 100.46 97.88 101.21C97.22 101.68 97.04 102.05 97.32 102.8C99.66 109.93 96.38 117.8 89.82 121.18C80.91 125.59 70.6 121.09 67.88 111.52C67.79 111.14 67.32 110.68 67.04 110.68C63.11 110.4 59.07 110.49 54.95 110.49ZM55.14 104.21C59.36 104.21 63.58 104.4 67.8 104.12C71.64 103.93 75.68 103.56 79.43 102.62C109.25 95.31 125.19 62.39 112.15 34.55C104.27 17.76 90.77 8.18996 72.3 6.21996C58.14 4.71996 45.48 8.93996 34.79 18.5C24.29 27.97 18.85 39.78 18.48 53.94C18.39 57.22 18.48 60.6 18.48 63.88C18.38 71.02 14.35 76.55 7.49996 78.7C7.40996 78.7 7.21996 78.89 7.11996 78.89C9.74996 85.83 20.43 96.05 27.09 98.58C35.45 87.14 52.32 91.18 55.14 104.21Z" fill="black"/>
<path d="M74.92 79.74C63.85 79.18 56.54 74.77 51.85 65.96C50.72 63.8 51.76 61.65 53.91 61.18C55.22 60.9 56.44 61.84 57.38 63.34C58.6 65.22 59.82 67.09 61.41 68.59C70.22 76.93 84.66 74.31 90.2 63.53C90.86 62.22 91.7 61.19 93.29 61.19C95.63 61.28 96.95 63.63 95.92 65.78C93.01 71.69 88.42 76 82.23 78.06C79.51 78.99 76.7 79.36 74.92 79.74Z" fill="black"/>
<path d="M55.32 48.9799C51.94 48.9799 49.23 46.2599 49.23 42.8899C49.23 39.5199 51.95 36.7999 55.32 36.7999C58.69 36.7999 61.41 39.5199 61.41 42.8899C61.42 46.1699 58.7 48.9799 55.32 48.9799Z" fill="black"/>
<path d="M98.2699 42.79C98.2699 46.17 95.5499 48.8799 92.2699 48.9799C88.8899 48.9799 86.1799 46.3499 86.1799 42.8899C86.1799 39.5099 88.8099 36.8 92.1799 36.7C95.4599 36.7 98.1699 39.42 98.2699 42.79Z" fill="black"/>
</g>
<defs>
<clipPath id="clip0_3665_8805">
<rect width="122.71" height="122.88" fill="white"/>
</clipPath>
</defs>
</svg>
