<svg width="22" height="22" viewBox="0 0 22 22" fill="none" xmlns="http://www.w3.org/2000/svg">
<path fill-rule="evenodd" clip-rule="evenodd" d="M10.7933 21.4144H10.7889C8.99753 21.4137 7.23735 20.9643 5.67398 20.1116L0 21.6L1.51845 16.0536C0.581775 14.4304 0.0889502 12.5891 0.0897002 10.7027C0.0921002 4.80124 4.8936 0 10.7932 0C13.6565 0.0012375 16.3439 1.11589 18.3647 3.13909C20.3855 5.16214 21.4977 7.85126 21.4966 10.7112C21.4943 16.6112 16.6946 21.412 10.7933 21.4144ZM5.93693 18.1739L6.26175 18.3667C7.62765 19.1772 9.19335 19.6062 10.7897 19.6068H10.7933C15.6966 19.6068 19.6874 15.6159 19.6894 10.7105C19.6904 8.33344 18.7659 6.09829 17.0863 4.41671C15.4067 2.73514 13.173 1.80866 10.7968 1.80784C5.88968 1.80784 1.89885 5.79836 1.8969 10.7033C1.89623 12.3843 2.36655 14.0214 3.25703 15.4377L3.4686 15.7743L2.56988 19.0572L5.93693 18.1739ZM15.8193 13.0155C16.0058 13.1057 16.1318 13.1666 16.1856 13.2564C16.2524 13.3679 16.2524 13.9033 16.0297 14.5281C15.8067 15.1528 14.7383 15.723 14.2244 15.7998C13.7637 15.8686 13.1806 15.8973 12.5399 15.6938C12.1515 15.5706 11.6534 15.406 11.0153 15.1304C8.50815 14.0478 6.81375 11.6178 6.4935 11.1585C6.47108 11.1264 6.4554 11.1039 6.44663 11.0922L6.44453 11.0893C6.303 10.9005 5.35463 9.63514 5.35463 8.32556C5.35463 7.09369 5.95972 6.44801 6.23828 6.15079C6.2574 6.13039 6.27495 6.11164 6.29063 6.09454C6.5358 5.82679 6.82553 5.75981 7.0038 5.75981C7.18208 5.75981 7.36058 5.76146 7.51643 5.76926C7.53563 5.77024 7.55565 5.77016 7.57628 5.77001C7.73213 5.76911 7.92645 5.76799 8.11815 6.22841C8.19188 6.40556 8.2998 6.66829 8.41358 6.94534C8.64368 7.50559 8.898 8.12456 8.9427 8.21419C9.0096 8.34806 9.05415 8.50414 8.96498 8.68271C8.95163 8.70949 8.93925 8.73476 8.9274 8.75891C8.86043 8.89556 8.81123 8.99614 8.69753 9.12881C8.6529 9.18101 8.6067 9.23726 8.5605 9.29351C8.46848 9.40556 8.37653 9.51761 8.29643 9.59741C8.16248 9.73076 8.02313 9.87544 8.17913 10.1432C8.33513 10.4109 8.8719 11.2867 9.6669 11.9958C10.5216 12.7581 11.2644 13.0803 11.6409 13.2437C11.7144 13.2756 11.774 13.3014 11.8177 13.3233C12.085 13.4572 12.241 13.4348 12.3971 13.2564C12.5531 13.0779 13.0656 12.4754 13.2438 12.2077C13.4221 11.94 13.6004 11.9847 13.8455 12.0738C14.0908 12.1632 15.4056 12.8101 15.6731 12.9439C15.7253 12.9701 15.7741 12.9937 15.8193 13.0155Z" fill="#A27070"/>
</svg>
