<svg width="20" height="20" viewBox="0 0 20 20" fill="none" xmlns="http://www.w3.org/2000/svg">
<g clip-path="url(#clip0_1552_5633)">
<path d="M19.9377 15.1194C20.0417 15.7179 20.0136 16.3319 19.8553 16.9184C19.697 17.5049 19.4124 18.0497 19.0214 18.5146C18.6304 18.9795 18.1425 19.3533 17.5918 19.6098C17.0411 19.8663 16.441 19.9993 15.8336 19.9994H13.3336C13.1126 19.9994 12.9006 19.9116 12.7443 19.7553C12.588 19.5991 12.5002 19.3871 12.5002 19.1661V17.0077C11.705 17.3266 10.857 17.4934 10.0002 17.4994C9.14296 17.4906 8.29495 17.321 7.50024 16.9994V19.1661C7.50024 19.3871 7.41244 19.5991 7.25616 19.7553C7.09988 19.9116 6.88792 19.9994 6.6669 19.9994H4.1669C3.55943 19.9993 2.95933 19.8663 2.40866 19.6098C1.85798 19.3533 1.37005 18.9795 0.97905 18.5146C0.588049 18.0497 0.303435 17.5049 0.14515 16.9184C-0.0131356 16.3319 -0.0412636 15.7179 0.0627363 15.1194L0.312736 13.6694C0.395868 13.1872 0.621565 12.7409 0.960722 12.3881C1.29988 12.0353 1.73694 11.7922 2.21556 11.6901C2.69417 11.5881 3.19238 11.6318 3.64594 11.8155C4.0995 11.9993 4.48762 12.3147 4.76024 12.7211C5.81357 14.2694 7.84107 15.8327 10.0002 15.8327C12.6086 15.8327 15.1786 13.5169 15.9419 11.3527C16.0032 11.1901 16.1124 11.0498 16.2551 10.9506C16.3978 10.8513 16.5672 10.7977 16.7411 10.7969L17.1011 10.8027C17.2624 10.8047 17.4226 10.7746 17.5722 10.7142C17.7218 10.6537 17.8579 10.5641 17.9726 10.4506C18.0873 10.3371 18.1782 10.2019 18.2402 10.0529C18.3022 9.90393 18.3339 9.74411 18.3336 9.58275C18.3333 9.29047 18.2306 9.00753 18.0433 8.78312C17.8561 8.55872 17.5961 8.40702 17.3086 8.35441C17.1313 8.32225 16.9692 8.23349 16.8466 8.10142C16.724 7.96936 16.6475 7.80111 16.6286 7.62191C16.518 6.56824 16.1567 5.55637 15.5749 4.67096C14.9931 3.78555 14.2077 3.05237 13.2844 2.53275C13.0487 3.27042 12.7338 3.98039 12.3452 4.65025C11.2636 6.18371 9.85243 7.45564 8.21524 8.37275C8.4648 8.43402 8.68941 8.57072 8.85849 8.76423C9.02758 8.95774 9.13291 9.19866 9.16015 9.45419C9.18739 9.70972 9.13521 9.96743 9.01073 10.1922C8.88624 10.417 8.69549 10.598 8.46445 10.7105C8.23341 10.823 7.97332 10.8616 7.71957 10.821C7.46583 10.7803 7.23077 10.6625 7.04641 10.4835C6.86205 10.3045 6.73734 10.073 6.68926 9.82055C6.64119 9.56811 6.67208 9.30699 6.77774 9.07275C4.86175 9.84857 2.79007 10.1626 0.730236 9.98941C0.558546 9.9664 0.398294 9.89046 0.271767 9.77215C0.14524 9.65383 0.0587282 9.49903 0.0242625 9.32927C-0.0102033 9.15951 0.00909065 8.98322 0.0794609 8.82493C0.149831 8.66665 0.26778 8.53422 0.416903 8.44608C0.92068 7.8745 1.29555 7.2012 1.51607 6.47191C2.60357 3.89441 4.25024 -0.000587012 10.0002 -0.000587012C11.9622 -0.00523491 13.8626 0.684453 15.3648 1.94638C16.8671 3.20831 17.8745 4.96109 18.2086 6.89441C18.7389 7.11611 19.1919 7.48956 19.5106 7.96785C19.8294 8.44615 19.9997 9.00796 20.0002 9.58275C19.9988 10.2752 19.7459 10.9436 19.2886 11.4636C19.2944 11.4852 19.3094 11.5027 19.3136 11.5261L19.9377 15.1194ZM13.3336 9.58275C13.3336 9.33552 13.2603 9.09384 13.1229 8.88828C12.9856 8.68272 12.7903 8.52251 12.5619 8.4279C12.3335 8.33329 12.0822 8.30853 11.8397 8.35676C11.5972 8.405 11.3745 8.52405 11.1997 8.69886C11.0249 8.87368 10.9058 9.09641 10.8576 9.33888C10.8094 9.58136 10.8341 9.83269 10.9287 10.0611C11.0233 10.2895 11.1835 10.4847 11.3891 10.6221C11.5947 10.7594 11.8363 10.8327 12.0836 10.8327C12.4151 10.8327 12.733 10.701 12.9675 10.4666C13.2019 10.2322 13.3336 9.91427 13.3336 9.58275Z" fill="#374957"/>
</g>
<defs>
<clipPath id="clip0_1552_5633">
<rect width="20" height="20" fill="white"/>
</clipPath>
</defs>
</svg>
