<svg width="17" height="16" viewBox="0 0 17 16" fill="none" xmlns="http://www.w3.org/2000/svg">
<path d="M8.47266 0C4.05438 0 0.472656 3.58172 0.472656 8C0.472656 12.4183 4.05438 16 8.47266 16C12.8909 16 16.4727 12.4183 16.4727 8C16.4679 3.58369 12.889 0.00478125 8.47266 0ZM11.1393 9.72466C11.4102 9.974 11.4277 10.3958 11.1784 10.6667C10.929 10.9376 10.5073 10.9551 10.2364 10.7057C10.2228 10.6933 10.2098 10.6802 10.1973 10.6667L8.47266 8.94266L6.74866 10.6667C6.48381 10.9224 6.06178 10.9151 5.806 10.6503C5.5565 10.3919 5.5565 9.98234 5.806 9.724L7.53 8L5.806 6.276C5.55022 6.01116 5.55756 5.58913 5.82241 5.33334C6.08075 5.08384 6.49031 5.08384 6.74866 5.33334L8.47266 7.05734L10.1973 5.33334C10.4467 5.06244 10.8684 5.04494 11.1393 5.29428C11.4102 5.54363 11.4277 5.96538 11.1784 6.23628C11.1659 6.24984 11.1529 6.26284 11.1393 6.27534L9.41531 8L11.1393 9.72466Z" fill="#A27070"/>
</svg>
