<svg width="21" height="20" viewBox="0 0 21 20" fill="none" xmlns="http://www.w3.org/2000/svg">
<path d="M7.15973 12.0625L11.0459 15.8842C11.2844 16.1186 11.6078 16.2502 11.9449 16.2501C12.2821 16.25 12.6054 16.1183 12.8437 15.8838C13.082 15.6493 13.2159 15.3313 13.2158 14.9997C13.2157 14.6682 13.0817 14.3502 12.8433 14.1158L8.95708 10.295C8.91762 10.2563 8.88631 10.2103 8.86495 10.1597C8.84359 10.1091 8.8326 10.0548 8.8326 10C8.8326 9.94521 8.84359 9.89094 8.86495 9.84032C8.88631 9.7897 8.91762 9.74372 8.95708 9.70502L12.8433 5.88418C13.0817 5.6498 13.2157 5.33186 13.2158 5.00031C13.2159 4.66876 13.082 4.35076 12.8437 4.11627C12.6054 3.88177 12.2821 3.74999 11.9449 3.74991C11.6078 3.74983 11.2844 3.88146 11.0459 4.11585L7.15973 7.93752C6.60448 8.48505 6.29268 9.22675 6.29268 10C6.29268 10.7733 6.60448 11.515 7.15973 12.0625Z" fill="#14080E"/>
</svg>
