<svg width="101" height="101" viewBox="0 0 101 101" fill="none" xmlns="http://www.w3.org/2000/svg">
<rect x="0.0263672" y="0.333984" width="100" height="100" fill="#FBF8F8"/>
<g opacity="0.3" clip-path="url(#clip0_2295_12099)">
<path d="M70.0263 49.5007C70.0262 50.9808 69.4634 52.4055 68.4521 53.4861C67.4407 54.5668 66.0564 55.2226 64.5796 55.3207C62.8954 58.8447 60.1332 61.7412 56.693 63.5907V68.6674C56.693 69.1094 56.5174 69.5333 56.2048 69.8459C55.8922 70.1584 55.4683 70.334 55.0263 70.334H45.0263C44.5843 70.334 44.1603 70.1584 43.8478 69.8459C43.5352 69.5333 43.3596 69.1094 43.3596 68.6674V63.589C40.148 61.8405 37.517 59.1921 35.7896 55.969C35.5863 55.5765 35.5472 55.1193 35.681 54.698C35.8148 54.2766 36.1104 53.9257 36.503 53.7224C36.8955 53.519 37.3527 53.48 37.774 53.6137C38.1954 53.7475 38.5463 54.0432 38.7496 54.4357C40.693 58.1957 45.193 62.0007 50.0263 62.0007C55.2413 62.0007 60.3796 57.369 61.9063 53.0407C62.0362 52.6675 62.2952 52.3531 62.6366 52.1542C62.978 51.9552 63.3792 51.8848 63.768 51.9557C63.9082 51.982 64.0503 51.997 64.193 52.0007C64.8116 51.9933 65.4056 51.7567 65.86 51.3368C66.3144 50.9168 66.5968 50.3433 66.6528 49.7271C66.7088 49.1109 66.5343 48.4958 66.163 48.0008C65.7918 47.5058 65.2502 47.1661 64.643 47.0474C64.2886 46.9831 63.9646 46.8058 63.7194 46.542C63.4742 46.2782 63.3211 45.9421 63.283 45.584C63.0625 43.4758 62.3402 41.4511 61.1765 39.6794C60.0129 37.9077 58.4417 36.4405 56.5946 35.4007C56.1236 36.8764 55.4932 38.2965 54.7146 39.6357C52.5513 42.7026 49.729 45.2464 46.4546 47.0807C46.9539 47.203 47.4034 47.4761 47.7418 47.863C48.0802 48.25 48.2911 48.7318 48.3458 49.2429C48.4005 49.754 48.2964 50.2696 48.0475 50.7193C47.7986 51.1691 47.4172 51.5312 46.9551 51.7564C46.493 51.9815 45.9727 52.0588 45.4651 51.9776C44.9575 51.8964 44.4873 51.6607 44.1185 51.3026C43.7497 50.9445 43.5003 50.4815 43.4041 49.9765C43.308 49.4716 43.3699 48.9492 43.5813 48.4807C39.7493 50.0324 35.606 50.6605 31.4863 50.314C31.1429 50.268 30.8224 50.1161 30.5693 49.8795C30.3163 49.6429 30.1433 49.3333 30.0743 48.9937C30.0054 48.6542 30.044 48.3016 30.1847 47.9851C30.3255 47.6685 30.5614 47.4036 30.8596 47.2274C31.8672 46.0842 32.6169 44.7376 33.058 43.279C35.233 38.124 38.5263 30.334 50.0263 30.334C53.9502 30.3253 57.7508 31.7049 60.7555 34.2286C63.7603 36.7523 65.7755 40.2575 66.4446 44.124C67.5049 44.5677 68.4105 45.3147 69.0477 46.2713C69.685 47.2278 70.0254 48.3513 70.0263 49.5007V49.5007ZM56.693 49.5007C56.693 49.0062 56.5463 48.5229 56.2716 48.1118C55.9969 47.7006 55.6065 47.3802 55.1497 47.191C54.6928 47.0018 54.1902 46.9523 53.7052 47.0487C53.2203 47.1452 52.7748 47.3833 52.4252 47.7329C52.0756 48.0826 51.8375 48.528 51.741 49.013C51.6445 49.4979 51.694 50.0006 51.8833 50.4574C52.0725 50.9142 52.3929 51.3047 52.804 51.5794C53.2152 51.8541 53.6985 52.0007 54.193 52.0007C54.856 52.0007 55.4919 51.7373 55.9607 51.2685C56.4296 50.7996 56.693 50.1637 56.693 49.5007Z" fill="#A27070"/>
</g>
<defs>
<clipPath id="clip0_2295_12099">
<rect width="40" height="40" fill="white" transform="translate(30.0264 30.334)"/>
</clipPath>
</defs>
</svg>
