<svg width="374" height="218" viewBox="0 0 374 218" fill="none" xmlns="http://www.w3.org/2000/svg">
<g clip-path="url(#clip0_2976_7916)">
<path d="M374 0H0V218H374V0Z" fill="#E6E6E6"/>
<path d="M289.083 195.336C290.935 180.648 282.735 172.669 275.253 169.086C261.62 162.564 257.124 156.35 258.084 147.271C259.044 138.191 258.772 135.919 258.084 132.534C257.396 129.148 263.308 128.7 269.122 125.024C274.935 121.349 283.293 111.201 287.636 101.737C291.979 92.273 299.687 88.4003 302.276 85.397C304.866 82.3937 311.161 81.8269 314.935 75.8691C318.71 69.9113 331.551 64.4203 338.375 65.9719C345.199 67.5236 351.756 68.77 353.332 65.4898C354.909 62.2095 353.438 63.1815 349.484 64.8665C345.53 66.5516 343.152 62.2428 333.879 63.1123C324.605 63.9817 319.112 70.9757 312.454 74.6765C305.797 78.3774 303.419 80.5138 295.876 88.8594C288.332 97.2049 278.376 110.916 274.909 116.127C271.441 121.339 261.441 127.943 253.297 123.291C245.153 118.638 234.031 120.849 223.834 110.211C213.638 99.5721 215.182 87.8155 219.073 76.5231C222.633 66.1233 224.71 54.7154 225.218 45.562C226.22 27.4295 215.431 11.2898 214.902 3.99581C214.817 2.77501 214.738 1.43111 214.704 0H205.642C205.245 11.3206 207.824 23.5645 208.967 31.2227C210.578 41.9945 215.984 58.7984 204.679 77.3336C193.375 95.8687 174.915 95.2378 149.412 103.742C124.925 111.908 128.067 112.108 114.123 121.588C100.179 131.067 97.801 146.019 92.7861 147.648C87.7712 149.276 82.2802 143.113 78.2149 135.106C74.1496 127.099 70.4995 120.631 72.6605 107.536C74.8214 94.4402 72.5494 81.1011 77.9769 61.1554C83.4044 41.2097 83.5842 28.1553 78.5746 18.3659C75.5779 12.5081 70.6132 7.63 62.4403 0H46.8613C55.2221 6.21428 69.1559 16.4808 73.8216 24.7084C79.5824 34.862 71.658 52.9509 68.5554 62.7686C65.4529 72.5863 67.6879 85.633 65.9792 94.3145C64.2706 102.996 60.2079 111.195 64.1278 131.721C68.0476 152.246 76.6676 153.988 82.2406 163.672C87.8135 173.356 80.7197 179.74 80.4552 186.626C80.1907 193.512 80.032 201.132 71.8775 204.774C63.7231 208.416 57.5576 214.725 57.5576 214.725C56.5393 215.589 54.9655 216.633 53.0453 217.995H75.234C75.8239 217.482 76.4243 216.969 77.0458 216.407C77.1661 216.299 77.2759 216.181 77.3738 216.053C90.924 201.483 93.487 195.11 92.3576 190.273C91.2282 185.436 93.8705 181.007 98.7558 175.331C103.641 169.655 102.099 162.33 105.633 157.122C109.166 151.913 110.695 146.737 115.758 139.305C120.82 131.872 130.794 129.928 134.484 128.946C138.174 127.963 153.483 127.227 166.991 125.011C177.415 123.301 187.799 116.753 197.215 108.841C200 106.502 204.819 99.4131 210.176 102.496C217.008 106.425 216.227 117.743 226.625 120.49C237.022 123.237 247.628 120.516 251.622 132.9C255.616 145.285 248.115 151.271 255.794 163.6C263.472 175.929 271.732 171.976 277.747 180.06C281.23 184.743 284.232 186.882 282.362 197.182C281.119 202.945 278.564 207.746 275.75 217.997H281.889C281.981 217.667 282.069 217.338 282.169 217C284.825 207.88 288.472 205.453 289.083 195.336ZM187 106.11C182.504 110.962 175.28 117.305 165.806 119.12C158.948 120.433 144.726 119.361 144.117 118.271C143.509 117.181 148.696 115.042 153.639 111.277C158.583 107.512 171.21 104.776 178.528 102.729C185.847 100.683 189.804 98.9976 191.15 99.9927C192.198 100.775 189.024 103.919 187 106.11Z" fill="#CCCCCC"/>
<path d="M250.181 0.312894C252.236 2.38518 255.671 3.3059 258.155 5.19866C260.938 7.31967 263.149 9.92285 266.18 11.7361C267.862 12.7415 269.716 13.4211 271.369 14.4547C279.304 19.4046 286.311 25.3265 293.772 30.7867C298.893 34.5363 301.136 27.1833 306.183 26.6832C310.526 26.2446 314.464 28.0528 318.704 28.0989C320.309 28.117 321.914 28.0399 323.51 27.8681C325.869 27.6116 327.128 26.5678 329.279 25.924C333.09 24.7802 337.711 25.6265 341.681 24.8494C348.029 23.603 354.245 21.2717 360.426 19.3917C363.05 18.5967 363.848 18.1248 365.877 16.3936C367.239 15.2292 367.969 15.0548 369.662 14.5983C371.202 14.1874 372.666 13.5443 374 12.6927V0H249.916C249.997 0.10986 250.085 0.214389 250.181 0.312894Z" fill="#F2F2F2"/>
<path d="M5.25822 7.62231C7.73392 4.56261 11.5057 2.91607 14.1956 0H0V12.6748C1.9758 11.4027 3.56543 9.71511 5.25822 7.62231Z" fill="#F2F2F2"/>
<path d="M140.499 94.5786C138.33 89.9621 139.028 84.6352 135.434 80.5445C132.511 77.2104 128.065 74.1328 123.833 72.6683C119.865 71.2834 116.914 73.0941 112.967 73.1813C110.492 73.2351 108.45 74.5123 105.926 74.5123C102.382 74.5123 98.8933 73.5352 95.2194 73.5429C92.3443 73.5429 88.8027 73.766 86.0255 74.5534C82.6928 75.4997 81.8967 77.6644 82.0078 80.5753C82.1427 84.1813 81.9734 87.7565 81.1719 91.3188C80.5689 94.0092 78.6037 96.1072 78.0905 98.8463C77.3447 102.827 78.0905 107.125 78.1646 111.134C78.2281 114.753 79.2755 118.058 79.4686 121.649C79.5188 122.57 79.2967 124.924 79.7728 125.676C80.6456 127.05 82.8065 126.653 83.7958 128.099C85.1341 130.056 84.1634 133.485 84.9146 135.716C85.7081 138.048 88.1944 141.946 91.043 141.992C93.0929 142.023 93.733 140.997 94.3836 139.287C95.2353 137.042 95.8013 135.068 96.8196 132.829C99.499 126.93 100.565 123.198 106.606 119.987C116.176 114.904 122.079 103.727 132.762 100.411C134.91 99.7439 137.64 100.247 139.441 98.6385C141.06 97.1843 140.443 95.7789 140.499 94.5786Z" fill="#F2F2F2"/>
<path d="M229.791 210.626C229.648 210.047 228.312 208.964 227.146 208.154C226.632 207.785 226.089 207.456 225.522 207.169C224.686 206.8 223.67 207.069 222.779 207.013C220.756 206.884 218.812 206.779 217.288 205.348C215.765 203.917 215.966 203.237 213.884 202.255C208.74 199.819 203.304 197.823 198.041 195.656C194.737 194.297 192.626 193.107 190.37 190.36C189.243 188.996 188.357 188.285 186.932 187.175C185.324 185.913 184.747 184.164 183.361 182.851C182.131 181.681 179.817 180.917 178.23 181.63C175.958 182.656 173.918 185.577 172.08 187.016C170.596 188.185 167.187 188.334 165.148 188.811C162.45 189.442 159.435 189.837 157.02 191.327C153.031 193.802 155.88 196.356 157.662 199.38C160.307 203.874 162.011 208.87 164.709 213.258C165.825 215.076 167.324 216.541 168.827 217.992H225.361C225.816 216.674 226.231 215.348 227.027 214.214C227.918 212.958 230.262 212.54 229.791 210.626Z" fill="#F2F2F2"/>
<path d="M3.41996 208.518C2.7402 207.859 1.83297 207.418 1.18495 206.764C0.714367 206.285 0.31549 205.745 0 205.158V218H7.98254C6.91861 216.827 6.10903 215.459 5.60206 213.976C4.84295 211.716 5.38782 210.426 3.41996 208.518Z" fill="#F2F2F2"/>
<path d="M6.95877 189.157C8.54576 187.76 9.09063 186.098 9.72542 184.146C11.2172 179.578 11.6325 174.677 11.5769 169.904C11.5425 166.239 13.2909 162.064 12.5529 158.496C11.6668 154.203 8.20456 150.651 8.5008 145.929C8.63569 143.747 10.1513 142.652 9.27842 140.215C8.58544 138.289 7.20739 136.858 7.19946 134.693C7.2096 133.923 7.1072 133.155 6.89529 132.413C6.25785 130.302 4.62326 129.13 2.03647 128.482C1.28794 128.294 0.639912 129.041 0.126786 128.894L-0.0107422 128.851V198.165C0.814029 195.867 2.02599 193.717 3.57585 191.804C4.5783 190.591 5.81614 190.16 6.95877 189.157Z" fill="#F2F2F2"/>
<path d="M357.823 132.464C353.03 134.996 350.541 138.62 347.306 142.79C345.137 145.538 343.45 148.614 342.315 151.895C340.784 156.38 342.506 160.22 342.165 164.634C341.823 169.047 341.249 173.289 341.199 177.778C341.165 181.043 340.511 184.446 341.199 187.695C341.591 189.575 342.903 191.191 343.141 193.081C343.405 195.243 342.469 197.572 342.612 199.767C342.832 202.85 343.437 205.895 344.413 208.836C345.693 212.842 346.225 214.566 350.232 216.692C351.288 217.223 352.39 217.663 353.525 218.008H374.013V205.166C373.738 204.673 373.539 204.143 373.423 203.594C373.087 201.901 373.378 200.003 374.013 198.17V128.848C372.301 128.317 371.505 127.268 369.429 127.212C364.39 127.079 361.825 130.351 357.823 132.464Z" fill="#F2F2F2"/>
<path d="M141.766 7.84031C138.298 11.0154 135.888 15.0087 132.312 17.9452C130.08 19.7816 128.292 21.6846 125.988 23.4876C123.894 25.1264 123.515 25.7394 125.026 27.8707C126.665 30.1789 128.17 32.8693 129.831 35.1749C131.154 37.019 129.882 40.7532 132.029 39.3349C133.111 38.6219 136.693 37.5729 137.647 36.6753C139.636 34.8082 143.329 31.7895 145.723 30.4559C148.304 29.0196 150.063 25.3265 152.422 23.5594C157.255 19.9201 158.799 13.4083 162.521 8.9816C164.338 6.81955 165.007 4.17534 166.306 1.64141C166.597 1.06948 166.919 0.528329 167.255 0H149.534C147.333 2.99045 144.551 5.28843 141.766 7.84031Z" fill="#F2F2F2"/>
<path d="M140.808 9.29193L136.169 0H133.675L138.788 10.2409L140.808 9.29193Z" fill="white"/>
<path d="M362.264 25.9368L362.203 25.747C360.14 19.1249 353.953 17.1629 348.497 15.4317C343.736 13.9211 339.628 12.6105 338.348 8.78144C337.652 6.70659 337.554 3.49045 338.652 -0.000111229H336.272C335.807 1.6571 335.568 3.36593 335.56 5.08314C335.543 6.55998 335.761 8.03055 336.205 9.44314C337.84 14.334 342.9 15.9395 347.796 17.4912C353.21 19.2095 358.323 20.8253 360.047 26.3702L360.119 26.5908C360.864 28.858 361.912 32.9871 362.838 40.0401C357.847 40.1401 353.102 40.3119 349.832 40.594C345.701 40.9531 339.646 42.2893 333.238 43.9538C331.96 37.5215 330.831 32.0151 330.81 31.8997L328.606 32.3254C328.63 32.4357 329.778 38.0293 331.066 44.5206C323.245 46.616 315.162 49.0832 309.581 50.7888C308.38 51.1555 307.293 51.4889 306.346 51.7736L307.015 53.851L310.255 52.8636C315.781 51.176 323.774 48.7344 331.492 46.6647C332.14 49.9552 332.799 53.3329 333.343 56.2747C324.88 57.9443 316.63 60.1935 311.324 63.1609C306.756 65.7593 302.553 68.9167 298.816 72.5554C297.52 70.7447 296.049 68.6134 294.507 66.377C291.095 61.4271 287.117 55.6591 282.936 50.2989C284.506 45.3145 286.755 40.5553 289.622 36.1469L289.712 35.9981C290.214 34.9568 302.077 10.4665 304.524 4.37784C304.732 3.89505 304.813 3.36918 304.757 2.84848C304.702 2.32778 304.512 1.82892 304.206 1.39765C303.782 0.827236 303.242 0.347159 302.619 -0.0129395H296.205C299.223 0.643625 301.583 1.50794 302.339 2.60563C302.445 2.74616 302.51 2.91208 302.526 3.08559C302.543 3.2591 302.51 3.43364 302.432 3.59048C300.088 9.4457 288.469 33.459 287.723 34.9953C285.019 39.1191 282.851 43.5512 281.269 48.1907C276.606 42.4227 271.747 37.3446 267.185 34.5978C262.455 31.7766 255.639 29.2786 249.223 27.3294C250.08 12.926 249.725 4.047 249.72 3.92902L247.477 4.01878C247.477 4.13675 247.823 12.7106 247.014 26.6754C240.185 24.7083 234.162 23.3977 232.141 22.9694C232.049 22.5719 231.956 22.1743 231.877 21.7819C229.988 13.68 228.325 6.49885 227.989 -0.000111229H225.733C226.066 6.68864 227.767 14.0134 229.676 22.259C229.983 23.5806 230.293 24.9271 230.607 26.2984C232.459 34.3362 233.154 43.0562 232.818 51.335C225.492 49.2833 211.846 45.4208 204.105 42.9792C203.917 34.8696 202.555 27.4833 201.222 20.2739C199.968 13.4979 198.751 6.9092 198.547 0.0127092H196.291C196.355 2.13372 196.508 4.22396 196.73 6.29624L185.928 0.0127092H181.567L184.725 1.85161C183.101 6.70659 179.17 17.7528 176.803 21.8409C170.921 16.3884 165.673 11.4385 163.784 9.61241C165.636 6.59631 167.554 3.36734 169.482 0.0127092H166.914C165.371 2.68 163.843 5.2601 162.346 7.70683L157.32 0.0127092H154.662L161.065 9.79193C158.156 14.4494 155.403 18.5324 152.951 21.6845C142.215 35.4954 118.865 45.5362 97.0358 52.3122C97.3638 47.1597 97.5463 42.138 97.496 37.4702C97.4087 29.3453 94.6421 21.3588 90.5292 13.8467C92.6901 12.8593 96.155 11.2666 100.088 9.42006C101.62 13.5467 103.138 17.9041 104.511 21.846C106.209 26.719 107.684 30.9405 108.682 33.2975L110.755 32.4639C109.777 30.1762 108.322 25.9932 106.637 21.151C105.235 17.1296 103.688 12.6875 102.117 8.46598C108.012 5.68071 114.58 2.50048 119.243 0.00245598H114.482C110.472 2.03627 105.73 4.32142 101.339 6.39627C100.469 4.12137 99.6014 1.9542 98.755 0.00245598H96.3164C97.2871 2.18246 98.2975 4.69074 99.3105 7.35034C95.224 9.2713 91.6189 10.9409 89.4447 11.9258C86.9916 7.77681 84.2522 3.79331 81.2453 0.00245598H78.4125C81.7257 4.06969 84.7312 8.36394 87.4054 12.8516L87.2838 12.908L83.9246 14.67C83.4724 14.6008 83.0306 14.5546 82.6022 14.5187C81.9039 14.929 81.1739 15.2881 80.4597 15.6651L76.1563 17.9221L71.8503 20.179L69.6973 21.3075C69.5016 21.6742 69.3059 22.0461 69.1207 22.4359L65.8065 24.1722C63.6271 19.484 60.3076 15.5779 55.9752 12.9106C48.6697 8.40956 41.3511 3.15191 37.1694 0.00245598H33.5299C34.6223 0.871891 36.3706 2.17989 39.1769 4.22139C40.6766 5.31139 42.4963 6.6117 44.5198 8.01459L27.5919 14.8675L28.4542 16.8756L46.6886 9.49699C49.2067 11.2077 51.9574 13.0106 54.7796 14.7469C58.718 17.1732 61.7439 20.7304 63.7488 25.0058C58.8635 26.4677 40.5787 31.9869 35.0878 34.3977C29.9195 36.6675 16.7951 39.1116 13.0472 39.7836C9.87318 27.0729 6.1702 18.1118 6.0935 17.958L4.01455 18.7787C4.07803 18.9274 7.66991 27.5987 10.7804 39.9349C8.7332 39.9221 4.72076 39.9041 0.0179904 39.9221V42.0995C5.18099 42.0764 9.51345 42.0995 11.3147 42.1149C12.9873 49.0135 14.1619 56.0167 14.8299 63.0737C12.0791 63.2173 5.46665 63.602 0.0179904 63.92V66.1C5.53542 65.7769 12.3066 65.3845 15.0018 65.2434C15.1605 67.4645 15.2663 69.7009 15.2663 71.9399C15.3486 78.7324 14.6325 85.5119 13.1318 92.1472H0.0126953V94.3221H12.6292C12.2828 95.7686 11.9283 97.1561 11.5845 98.5102C9.33625 107.297 7.39748 114.888 10.7249 127.125C10.9894 128.066 11.238 129.005 11.4946 129.946C17.1627 150.615 22.5188 170.137 7.12769 202.065L9.16168 202.986C13.7772 193.409 16.8057 184.315 18.308 175.482C22.6458 181.35 34.8577 197.762 43.4829 208.241C39.4991 211.279 35.7015 214.54 32.1095 218.008H35.3126C40.7136 212.97 49.5293 205.633 59.7945 200.496C73.3474 193.722 73.1331 188.08 72.8713 180.942C72.784 178.555 72.6861 175.851 73.1067 172.815C74.3154 164.077 71.0462 159.435 67.2613 154.059C65.5685 151.656 63.6482 148.93 61.9343 145.549C57.3532 136.517 58.7788 114.786 59.6279 101.803C59.7919 99.3002 59.9347 97.1381 60.0246 95.289C60.625 82.963 63.0346 64.3304 67.0629 50.4938C69.5942 41.7943 69.3244 33.2462 66.6503 26.1932L70.1734 24.3466C70.6125 24.4082 71.0383 24.4544 71.4642 24.4954L73.6172 23.3669L77.9205 21.11L82.2266 18.8505C82.9487 18.4837 83.6496 18.0811 84.3875 17.74C84.5938 17.3681 84.7975 16.9859 84.9853 16.5807L88.2571 14.8649L88.4846 14.7598C92.4785 22.0281 95.1579 29.7146 95.2425 37.4805C95.2954 42.3534 95.0918 47.6034 94.732 52.9995C90.2356 54.3588 85.8211 55.5771 81.6209 56.6594L82.1975 58.7624C86.1649 57.7365 90.3255 56.5952 94.5707 55.3257C93.8089 65.5845 92.5393 76.2152 91.439 85.4302C91.3262 86.3826 91.2151 87.3144 91.1058 88.2258L78.9389 86.9434L78.6982 89.108L90.8518 90.3904C89.5875 101.149 88.8152 108.828 89.6166 111.577C90.91 116.004 94.0655 121.177 98.2022 122.76C100.35 123.58 102.585 123.37 104.664 122.149C108.399 119.961 111.655 117.048 114.799 114.216L115.963 116.491C115.939 117.033 115.932 117.563 115.937 118.089C116.466 119.018 116.926 119.977 117.423 120.91L120.359 126.591L123.293 132.272L124.76 135.111C125.163 135.401 125.57 135.691 125.993 135.97L128.313 140.22C125.846 141.825 123.536 143.646 121.412 145.66C110.464 156.093 108.351 168.355 106.484 179.173C105.182 186.723 103.952 193.853 99.8977 199.334L101.723 200.603C106.082 194.705 107.351 187.339 108.698 179.532C110.597 168.527 112.557 157.147 122.98 147.217C124.95 145.354 127.088 143.666 129.368 142.172L139.295 160.361L141.278 159.335L131.254 140.969C144.056 133.275 159.74 131.205 169.871 129.859C174.079 129.3 177.401 128.858 179.445 128.184C182.789 127.084 188.653 124.196 194.405 121.169C197.37 128.964 202.034 141.018 204.269 145.724C205.657 148.643 208.278 152.944 211.336 157.457C210.651 157.845 209.582 158.468 207.855 159.476C200.01 164.051 183.688 173.582 174.079 177.395C172.291 178.106 170.431 178.786 168.545 179.447C164.549 172.305 157.093 150.069 157.013 149.835L154.879 150.507C155.051 151.02 157.18 157.368 159.754 164.313L145.582 171.715L146.64 173.63L160.523 166.38C162.531 171.697 164.71 177.057 166.403 180.183C164.676 180.771 162.941 181.343 161.229 181.904C156.23 183.551 151.38 185.146 147.256 186.928C141.085 176.844 133.841 167.391 133.41 166.831L131.611 168.132C131.714 168.268 139.017 177.788 145.204 187.862C142.395 189.211 140.025 190.683 138.327 192.358C135.891 194.764 130.635 198.098 125.223 201.224C120.97 195.582 116.111 189.921 115.823 189.585L114.099 190.976C114.167 191.058 119.026 196.731 123.277 202.337C115.961 206.474 108.944 209.98 108.814 210.044L109.84 211.98C110.369 211.724 117.336 208.233 124.604 204.112C125.914 205.907 127.101 207.608 127.985 209.062C129.469 211.509 131.008 214.686 132.537 218.002H134.991C133.306 214.312 131.592 210.716 129.918 207.959C129.022 206.484 127.842 204.771 126.546 203.001C132.024 199.824 137.361 196.418 139.929 193.884C141.469 192.361 143.683 191.004 146.343 189.739C148.56 193.458 150.56 197.177 151.924 200.46C154.784 207.333 157.288 213.027 159.886 218.002H162.406C159.656 212.842 157.035 206.925 154.006 199.644C152.609 196.295 150.61 192.548 148.396 188.816C152.363 187.118 157.09 185.567 161.952 183.966C166.292 182.538 170.78 181.06 174.928 179.411C184.701 175.513 201.118 165.944 209.011 161.34C210.463 160.494 211.778 159.725 212.582 159.271C215.28 163.146 218.218 167.049 220.911 170.26C217.8 173.571 204.914 187.352 202.66 190.814C201.322 191.86 190.808 199.947 179.85 204.281L180.696 206.297C192.684 201.555 203.763 192.753 204.237 192.378L204.39 192.258L204.491 192.094C206.02 189.578 216.393 178.308 222.376 171.948C223.564 173.292 224.682 174.461 225.68 175.382C230.441 179.778 231.776 181.768 232.115 182.381C225.889 191.183 219.683 200.049 219.578 200.196L221.429 201.419C221.601 201.163 238.698 176.757 244.602 168.745C245.066 168.113 245.496 167.459 245.893 166.785C249.405 172.171 253.51 177.408 258.435 182.127C264.86 188.283 266.714 196.056 266.719 204.143L244.766 199.742L244.311 201.873L266.679 206.356C266.534 210.244 266.021 214.176 265.439 218.01H267.708C268.766 211.085 269.56 203.835 268.446 197.023C270.636 196.138 276.532 193.751 281.687 191.614C282.049 191.742 282.407 191.871 282.764 191.976L288.141 189.814L291.725 188.372C292.325 188.139 292.91 187.875 293.523 187.667C293.648 187.441 293.769 187.208 293.886 186.964L295.819 186.451C295.941 189.273 295.626 192.455 294.774 196.125C293.259 202.65 292.008 206.854 290.905 210.565C290.154 213.091 289.471 215.392 288.836 218.002H291.14C291.429 216.841 291.73 215.728 292.047 214.612L316.246 215.492C316.229 216.346 316.206 217.183 316.178 218.002H318.423C318.447 217.2 318.471 216.392 318.489 215.574L332.272 216.087L332.204 214.894C332.111 213.309 329.966 176.034 329.421 171.171C329.347 170.514 329.286 169.671 329.212 168.693C328.749 162.466 327.89 150.874 320.904 147.835C316.437 145.891 311.596 146.003 306.092 148.176C299.879 150.633 292.814 155.716 284.522 163.682L283.52 162.787C279.952 159.599 277.109 156.58 274.903 153.585C278.18 151.048 282.441 147.881 287.81 144.136C302.953 133.58 316.974 112.847 318.934 102.037C320.027 95.9157 320.27 89.68 319.656 83.4964C322.184 83.0425 324.795 82.922 327.773 82.7886C328.855 82.7399 329.987 82.686 331.172 82.6167C331.257 83.0066 331.336 83.3862 331.413 83.7452C332.939 90.97 333.349 92.9115 344.28 102.65C354.276 111.552 362.708 112.557 365.631 112.611C366.051 115.346 366.643 118.053 367.403 120.718L369.566 120.144C367.088 111.395 366.879 104.168 366.985 94.3349H373.999V92.16H367.011C367.011 91.4932 367.033 90.8187 367.041 90.1262C367.083 87.305 367.128 84.2017 367.141 80.7419C367.141 76.5461 367.12 71.8373 366.969 66.5412L373.999 66.1257V63.9457L366.9 64.3637C366.588 55.1308 366.022 47.8624 365.364 42.2073C368.307 42.1611 371.27 42.1354 373.999 42.1252V39.9477C371.188 39.9606 368.13 39.9862 365.094 40.0349C364.136 32.6255 363.039 28.2989 362.264 25.9368ZM13.547 41.9046C17.5145 41.1968 30.5834 38.7603 35.995 36.3828C38.55 35.2595 44.123 33.3949 49.7489 31.6022C50.6376 34.8465 53.1027 44.8848 52.3277 53.8151C52.3277 53.969 51.5025 63.7328 50.4921 74.3148C40.7057 74.7534 26.2906 75.2073 17.4828 74.5867C17.4986 73.7198 17.5039 72.8315 17.4986 71.9219C17.4193 61.3682 15.6604 50.8298 13.547 41.9046ZM18.7603 172.366C19.2293 168.809 19.4467 165.226 19.411 161.64C19.3269 156.611 18.8076 151.597 17.8584 146.652C20.9821 148.263 27.502 151.946 35.2941 158.147C30.6892 165.175 25.7007 172.805 22.614 177.572C20.6806 174.972 19.2946 173.089 18.7603 172.366ZM34.1276 192.82C30.4088 187.98 26.8275 183.217 24.0344 179.483C27.0259 174.849 32.2338 166.901 37.0292 159.563C42.0807 163.738 46.7946 168.282 51.1296 173.156C45.0858 180.763 38.103 189.214 34.1276 192.82ZM58.763 198.554C54.0232 200.964 49.5018 203.757 45.2471 206.905C42.2662 203.284 38.8489 198.954 35.4766 194.574C39.5128 190.983 46.5194 182.52 52.6187 174.844C57.7215 180.787 62.2536 187.169 66.1583 193.912C64.4179 195.395 62.0374 196.918 58.763 198.554ZM59.9215 146.509C61.7068 150.03 63.672 152.823 65.4071 155.288C69.2212 160.702 71.9773 164.616 70.8823 172.525C70.4353 175.744 70.5384 178.544 70.6178 181.019C70.7791 185.379 70.8981 188.814 67.7929 192.304C63.8072 185.501 59.193 179.063 54.0073 173.069C59.4639 166.144 63.8969 160.245 64.2936 159.714L62.4765 158.432C62.3813 158.56 57.98 164.408 52.5129 171.363C48.123 166.455 43.3554 161.877 38.2512 157.668C43.5411 149.581 48.0825 142.695 48.1725 142.556L46.2813 141.387C46.1914 141.523 41.7478 148.278 36.5134 156.262C35.9844 155.834 35.4554 155.421 34.9264 155.026C26.079 148.24 19.2047 144.819 17.3003 143.926C16.2423 138.93 14.9357 134.111 13.6343 129.369L12.8647 126.548C10.1668 116.62 11.0449 110.082 12.7536 102.922L37.5767 103.804L37.6613 101.629L13.3064 100.783C13.4545 100.206 13.6035 99.6225 13.7534 99.0309C15.3007 92.9705 17.0278 86.2073 17.4219 76.7641C26.2535 77.3745 40.4994 76.9385 50.2885 76.5076C49.7595 81.8627 49.2093 87.2794 48.6856 91.6189C48.0931 96.5585 47.8921 102.101 47.8921 107.184C47.8921 107.6 47.8921 108.012 47.8921 108.42C44.0146 108.602 39.6927 108.695 36.1775 108.474L36.0347 110.646C39.6371 110.872 44.0093 110.785 47.9159 110.603C48.0349 118.04 48.4899 123.791 48.4978 123.893L50.7355 123.724C50.7355 123.621 50.2726 117.887 50.1562 110.487C53.026 110.326 55.4462 110.131 56.8692 110.01C56.1682 123.116 55.9646 138.709 59.9215 146.509ZM57.7843 95.1864C57.6944 97.0176 57.5542 99.1719 57.3902 101.665C57.2633 103.593 57.1257 105.658 57.0014 107.82C55.6948 107.933 53.1636 108.141 50.143 108.313C50.1139 103.009 50.2832 97.0945 50.91 91.8779C51.439 87.4333 52.0156 81.8756 52.5473 76.4102C55.6842 76.2614 58.1837 76.1229 59.6279 76.0409C58.6704 83.0117 58.0515 89.7159 57.7843 95.1864ZM64.902 49.9039C62.8045 57.1082 61.1434 65.5922 59.94 73.8301C58.6519 73.9045 56.081 74.0506 52.7562 74.2096C53.7534 63.7303 54.5522 54.1434 54.5627 53.9946C55.388 44.5052 52.7985 34.1772 51.8887 30.9251C57.3479 29.2068 62.495 27.6577 64.5846 27.0319C67.0656 33.6411 67.2957 41.6866 64.902 49.9039ZM350.031 42.7689C353.3 42.4868 358.082 42.3175 363.105 42.2175C363.443 45.0951 363.758 48.4036 364.025 52.1968C360.209 52.4994 347.891 53.5792 335.547 55.8669C334.989 52.8867 334.32 49.4397 333.658 46.103C340.019 44.4565 346.002 43.1203 350.039 42.7689H350.031ZM282.184 52.9534C285.948 57.8802 289.537 63.0839 292.651 67.5978C294.293 69.983 295.856 72.2476 297.221 74.1481C291.069 80.388 285.922 87.5948 280.88 94.6657C280.103 95.7557 278.849 97.2304 278.91 97.2689C278.371 96.8317 277.864 96.3577 277.394 95.8506C275.206 93.5771 272.826 91.4847 270.279 89.5953C271.713 86.8229 276.188 77.8284 278.95 68.5647L285.311 79.8802L287.281 78.8389L279.791 65.5025C280.327 63.4224 280.728 61.3118 280.991 59.183C281.245 57.0829 281.643 55.0017 282.184 52.9534ZM270.039 108.887C266.801 112.583 263.426 115.745 259.702 118.01C258.909 117.604 258.052 117.207 257.115 116.812C254.129 115.553 251.241 114.809 248.448 114.086C243.261 112.747 238.341 111.472 232.858 107.12C234.503 105.484 241.084 98.6231 243.398 91.5445C244.255 88.9208 244.721 85.6072 245.081 81.5191C263.439 84.9404 272.041 93.5911 275.778 97.3535C276.619 98.1973 277.196 98.7744 277.698 99.0924C275.641 101.926 273.588 104.658 271.488 107.184L258.882 100.149L257.761 102.034L270.039 108.887ZM231.157 105.689C223.487 98.8257 222.723 92.3831 228.354 80.0905C233.211 80.0555 238.063 80.4038 242.861 81.1318C242.526 85.1635 242.068 88.3976 241.259 90.8777C239.076 97.5639 232.514 104.342 231.163 105.689H231.157ZM245.252 79.3365C245.419 76.9898 245.562 74.4097 245.715 71.5834C245.98 67.008 246.26 61.7041 246.752 55.5925C258.977 57.7391 269.108 61.2348 276.971 66.0205L277.288 66.2129C274.755 75.4894 270.073 85.0814 268.433 88.313C263.193 84.8173 255.74 81.2472 245.252 79.3365ZM247.749 44.9694C248.347 39.404 248.776 34.2592 249.072 29.6248C255.208 31.5099 261.612 33.8617 266 36.4905C270.623 39.263 275.643 44.6694 280.457 50.7554C279.66 53.4475 279.091 56.1984 278.756 58.9804C278.549 60.6709 278.246 62.349 277.849 64.0072C269.742 59.1343 259.377 55.595 246.927 53.4304C247.162 50.74 247.429 47.9265 247.749 44.9515V44.9694ZM232.8 25.8265C232.76 25.6546 232.721 25.4879 232.684 25.3135C235.35 25.9034 240.841 27.1781 246.877 28.9452C246.57 33.6822 246.136 38.9783 245.517 44.7232C245.202 47.6444 244.94 50.4117 244.723 53.0406C241.618 52.5499 238.391 52.1429 235.04 51.8198C235.418 43.2254 234.691 34.1618 232.8 25.8265ZM234.916 53.9972C238.249 54.3204 241.455 54.7273 244.536 55.218C244.033 61.4374 243.742 66.8233 243.478 71.4628C243.33 74.1943 243.192 76.6897 243.033 78.9595C238.517 78.2821 233.955 77.9332 229.385 77.9156C232.419 71.5783 234.297 63.1173 234.911 53.9972H234.916ZM186.701 2.98777L197.058 9.01226C197.587 12.8978 198.291 16.7474 199.013 20.6586C200.288 27.5423 201.589 34.5875 201.84 42.2508C200.748 41.9141 199.675 41.5167 198.629 41.0608C196.868 40.1683 187.256 31.4893 178.467 23.3644C181.183 19.0274 185.479 6.59631 186.701 2.98777ZM201.893 44.5565C201.908 47.4918 201.749 50.4255 201.417 53.3432C200.156 64.3714 196.995 71.1166 192.617 75.5971C187.806 69.6573 180.797 60.9783 173.526 51.9736C175.613 50.0669 177.564 48.025 179.366 45.862C183.643 40.6992 185.881 36.2494 186.854 34.0053C192.046 38.6705 196.326 42.3483 197.59 42.9818C198.241 43.3203 199.777 43.8717 201.893 44.5565ZM154.733 22.9797C157.114 19.9148 159.783 15.9857 162.594 11.5103C165.916 14.6777 176.393 24.5441 185.092 32.4178C184.421 34.0976 182.246 38.9321 177.536 44.5847C175.864 46.5873 174.057 48.4799 172.127 50.2502C165.086 41.5302 157.918 32.6383 152.369 25.7547C153.21 24.8468 153.998 23.9218 154.733 22.9797ZM96.8665 54.6281C101.58 53.1816 106.373 51.5787 111.107 49.8193L115.458 61.7785L95.7213 67.5876C96.163 63.2866 96.5597 58.924 96.8665 54.6281ZM113.424 112.48C110.171 115.409 107.097 118.176 103.5 120.285C102 121.164 100.535 121.31 99.0222 120.733C95.6181 119.431 92.8779 114.765 91.7749 110.988C91.2698 109.256 91.5819 104.448 92.2431 98.0896C95.5917 99.9695 104.114 103.947 110.705 100.111C117.926 95.9071 120.015 95.4069 120.079 95.3941L119.658 93.2552C119.428 93.2988 117.183 93.8014 109.549 98.2461C103.371 101.837 94.5046 96.9098 92.5023 95.6967C92.8435 92.5986 93.2482 89.2132 93.6687 85.6944C94.2586 80.7573 94.896 75.4202 95.4779 69.9471L116.196 63.8328L123.71 84.4659L125.826 83.7401L121.75 72.5144L144.518 62.6941L143.606 60.7039L121.002 70.4498L113.205 49.0242C127.884 43.4024 141.813 36.2366 150.819 27.355L160.357 39.1835L140.091 50.4015L141.202 52.2917L161.756 40.9172C164.93 44.8617 167.839 48.4634 170.484 51.7223C164.745 56.6517 156.714 61.8042 145.756 65.5332L146.5 67.585C157.701 63.7739 165.948 58.506 171.87 53.4407L181.313 65.1332C178.311 66.7464 164.065 74.3199 153.427 78.5491L154.278 80.5624C165.459 76.1178 180.538 68.0415 182.715 66.8669C186.272 71.2679 188.965 74.5943 191.004 77.1078C185.981 81.3883 179.676 83.299 172.899 85.3533C167.773 86.9101 161.37 89.4902 154.593 92.2241C146.891 95.3274 138.927 98.5359 132.193 100.5C124.112 102.852 118.68 107.748 113.424 112.48ZM242.764 167.48C240.666 170.332 237.151 175.256 233.485 180.429C232.583 179.173 230.79 177.095 227.214 173.805C221.088 168.163 209.704 151.959 206.318 144.824C204.112 140.182 199.362 127.897 196.408 120.126C202.317 116.974 207.781 113.883 209.847 112.703C211.561 114.806 216.547 120.949 220.13 125.665C221.04 126.86 222.127 128.051 223.389 129.43C226.828 133.193 231.123 137.876 234.839 146.06C235.061 146.552 235.289 147.05 235.519 147.547L224.032 153.446C219.57 145.642 212.931 133.867 212.505 132.682C212.539 132.759 211.934 130.631 211.526 130.961L210.701 132.067C210.573 132.158 210.469 132.278 210.397 132.415C210.326 132.553 210.288 132.705 210.289 132.859C210.289 133.29 210.553 133.793 210.847 134.398C211.14 135.003 211.603 135.852 212.201 136.963C213.201 138.802 214.613 141.349 216.404 144.526C219.448 149.938 222.567 155.39 222.598 155.444L223.127 156.375L236.431 149.54C238.831 154.717 241.529 159.76 244.512 164.644C244.012 165.634 243.428 166.583 242.766 167.48H242.764ZM292.666 212.445C292.791 212.016 292.931 211.586 293.05 211.144C294.163 207.405 295.43 203.168 296.951 196.579C297.901 192.494 298.21 188.962 298.022 185.838H298.073L311.805 182.268C314.316 192.596 316.328 203.876 316.27 213.314L292.666 212.445ZM329.884 213.796L318.51 213.383C318.579 203.73 316.524 192.209 313.966 181.694C319.891 180.155 325.311 178.75 327.696 178.137C328.44 189.006 329.59 208.767 329.884 213.807V213.796ZM319.976 149.804C325.737 152.313 326.535 163.059 326.964 168.834C327.038 169.832 327.101 170.694 327.181 171.399C327.265 172.169 327.392 173.774 327.548 175.944L327.104 176.057L323.591 176.965C320.812 177.683 317.148 178.634 313.445 179.596C309.896 165.534 305.629 153.677 304.717 151.179C312.144 147.558 316.783 148.414 319.976 149.804ZM302.715 152.218C303.818 155.247 307.886 166.701 311.279 180.15L297.806 183.653C296.634 175.559 291.854 170.36 286.168 165.149C292.78 158.801 298.216 154.739 302.715 152.218ZM281.999 164.372C288.736 170.384 294.446 175.513 295.613 184.233L293.545 184.784L293.28 184.682C292.859 184.518 292.452 184.387 292.053 184.271C291.471 184.546 290.862 184.761 290.27 185.01L286.686 186.451L283.102 187.893L281.309 188.613C281.147 188.934 280.986 189.252 280.827 189.583C276.611 191.332 271.665 193.345 268.005 194.823C266.822 189.665 264.405 184.805 259.996 180.578C254.867 175.664 250.638 170.15 247.035 164.492C249.778 158.235 249.151 151.579 248.477 144.608C248.368 143.464 248.257 142.3 248.162 141.154C247.464 132.69 241.285 128.528 238.957 126.966C238.659 126.763 238.317 126.537 238.233 126.453C238.254 126.473 238.272 126.495 238.288 126.519L236.463 127.786C236.683 128.081 237.037 128.32 237.68 128.751C239.963 130.289 245.311 133.88 245.924 141.318C246.022 142.487 246.133 143.649 246.242 144.801C246.824 150.874 247.376 156.693 245.554 162.082C242.137 156.378 239.325 150.589 236.863 145.167C233.006 136.668 228.399 131.639 225.04 127.966C223.847 126.637 222.789 125.483 221.932 124.368C217.538 118.576 211.058 110.68 210.992 110.6L210.384 109.856L209.543 110.339C209.421 110.41 202.875 114.165 195.617 118.033C194.559 115.273 193.887 113.447 193.863 113.38L191.747 114.122C191.848 114.391 192.564 116.304 193.62 119.089C187.854 122.129 181.969 125.045 178.723 126.114C176.872 126.719 173.656 127.14 169.566 127.691C159.267 129.061 143.363 131.174 130.196 139.033L128.061 135.121C128.091 134.565 128.096 134.024 128.098 133.483L126.63 130.641L123.695 124.96L120.759 119.279C120.277 118.33 119.761 117.394 119.309 116.43C118.873 116.107 118.423 115.791 117.952 115.483L116.508 112.662C121.108 108.559 126.03 104.553 132.833 102.57C139.636 100.588 147.695 97.3433 155.448 94.2195C162.179 91.506 168.535 88.9439 173.566 87.4179C180.39 85.3456 187.029 83.3272 192.374 78.8133C197.241 84.8044 197.347 84.8865 197.4 84.9352L198.193 83.9478L198.907 83.34C198.688 83.0989 196.863 80.8599 193.988 77.3155C198.748 72.5528 202.269 65.346 203.615 53.5689C203.928 50.8084 204.09 48.0338 204.099 45.2567C213.153 48.0932 228.417 52.3686 232.681 53.5561C232.099 62.6069 230.25 70.9961 227.227 77.2001C224.317 83.181 222.453 88.354 222.453 93.1013C222.453 98.2102 224.593 102.847 229.859 107.487C236.342 113.193 242.184 114.704 247.845 116.163C250.558 116.863 253.365 117.589 256.195 118.782C258.665 119.823 260.551 120.833 261.99 122.026C261.95 122.324 261.908 122.603 261.86 122.88C262.14 123.109 262.397 123.361 262.63 123.634C263.113 124.172 263.533 124.759 263.884 125.386C264.242 126.006 264.526 126.665 264.73 127.348C264.838 127.685 264.926 128.027 264.995 128.374C265.259 128.476 265.5 128.587 265.756 128.707C266.169 130.664 266.365 133.034 266.441 135.986C266.605 142.246 268.266 147.691 271.85 153.097C266.96 157.009 264.741 159.099 264.579 159.248L266.15 160.802C266.187 160.766 268.351 158.727 273.138 154.944C275.424 158.022 278.357 161.117 281.999 164.372ZM286.496 142.356C281.153 146.083 276.913 149.225 273.638 151.754C270.495 147.045 268.785 141.573 268.703 135.965C268.668 134.683 268.613 133.477 268.528 132.359C274.612 128.994 279.338 124.745 283.282 120.203L295.79 134.516C292.929 137.381 289.821 140.004 286.501 142.356H286.496ZM306.703 121.582C303.874 125.585 300.746 129.381 297.343 132.939L284.837 118.62L284.184 119.156C287.257 115.476 289.86 111.639 292.291 107.951L300.144 115.022L301.67 113.427L293.518 106.086C295.348 103.301 297.139 100.595 299.025 98.0845L314.181 108.951C312.074 113.364 309.574 117.589 306.709 121.58L306.703 121.582ZM316.722 101.649C316.361 103.443 315.817 105.197 315.098 106.887L300.376 96.3405C301.937 94.3593 303.677 92.5173 305.577 90.8366C310.131 86.887 313.789 84.9635 317.445 83.9709C317.988 89.8694 317.745 95.8111 316.722 101.649ZM345.799 101.036C335.401 91.7753 335.094 90.316 333.611 83.2964C333.552 83.0399 333.494 82.7424 333.431 82.4552C335.401 82.3038 337.53 82.0859 339.877 81.7371C343.17 81.2472 346.172 80.9266 348.87 80.7317L350.295 104.583C348.723 103.49 347.221 102.304 345.799 101.031V101.036ZM348.817 70.8909V78.5517C345.984 78.7543 342.876 79.0877 339.535 79.5776C335.602 80.1345 331.64 80.477 327.667 80.6035C319.312 80.9805 313.273 81.2523 304.09 89.2209C299.091 93.5552 295.343 99.2591 291.376 105.296C285.475 114.288 279.354 123.578 268.282 129.984C268.208 129.471 268.126 128.958 268.031 128.479C268.266 128.238 268.486 127.992 268.692 127.735C268.409 126.31 267.9 124.937 267.185 123.662C266.707 122.814 266.137 122.017 265.484 121.287C265.325 121.1 265.148 120.931 264.981 120.751C264.897 120.662 264.804 120.58 264.717 120.495C264.675 120.449 264.619 120.418 264.593 120.359C264.566 120.3 264.55 120.223 264.458 120.228C264.102 120.255 263.749 120.302 263.4 120.369C262.905 119.967 262.388 119.593 261.85 119.248C269.756 114.052 276.064 105.219 282.716 95.9096C291.029 84.2659 299.612 72.24 312.453 65.0588C317.479 62.2376 325.485 60.0781 333.751 58.4521C333.981 59.7139 334.177 60.8398 334.33 61.7657L336.547 61.4246C336.391 60.4782 336.189 59.3241 335.954 58.034C348.153 55.7822 360.412 54.6794 364.179 54.3716C364.39 57.7263 364.567 61.4272 364.708 65.523C364.864 70.5319 364.914 75.0124 364.911 79.0569C362.409 78.4619 357.593 78.0798 351.073 78.4106V70.8858L348.817 70.8909ZM352.631 106.086L351.107 80.5881C358.778 80.2008 363.539 80.8445 364.893 81.2805C364.893 84.5044 364.837 87.4358 364.798 90.08C364.681 98.0306 364.591 104.232 365.327 110.398C363.258 110.292 358.558 109.621 352.631 106.086Z" fill="white"/>
<path d="M368.221 139.818V139.848L366.168 140.728C366.29 140.985 366.536 141.323 367.226 142.228C369.342 144.985 374.897 152.308 373.791 156.737C373.146 159.284 370.937 160.876 368.8 162.415C366.555 164.031 364.24 165.698 364.24 168.399C364.24 168.648 364.258 168.896 364.296 169.142C364.444 170.14 364.677 171.21 364.923 172.343C365.917 176.926 367.155 182.633 364.505 190.268L366.621 190.963C369.467 182.756 368.102 176.483 367.107 171.894C366.869 170.797 366.645 169.761 366.507 168.832C366.243 167.06 367.71 165.903 370.128 164.162C371.45 163.218 372.844 162.205 373.976 160.915V148.363C372.376 145.339 370.273 142.58 369.02 140.926C368.676 140.454 368.298 139.954 368.221 139.818Z" fill="white"/>
<path d="M102.004 204.905C101.953 204.994 97.8035 212.555 92.7754 218H95.7351C100.311 212.614 103.797 206.266 103.987 205.92L102.004 204.905Z" fill="white"/>
<path d="M0 148.363V160.915C0.950536 159.864 1.6304 158.61 1.98373 157.255C2.66085 154.567 1.57376 151.336 0 148.363Z" fill="white"/>
<path d="M295.902 39.0476C291.67 34.762 286.591 29.9327 280.86 24.9161C276.757 21.3255 271.814 17.222 266.458 13.1928C266.791 9.06111 267.103 4.64725 267.333 0H262.837C262.662 3.49826 262.443 6.86828 262.199 10.0819C256.872 6.30405 251.265 2.76219 245.75 0H235.385C237.056 0.771121 238.747 1.54908 240.458 2.33388L241.368 2.75193C247.803 5.70647 254.815 10.1229 261.789 15.2241C261.594 17.5631 261.393 19.8072 261.205 21.9385C260.7 27.6065 260.263 32.5025 260.11 36.5983C260.009 39.2733 259.964 42.3074 259.914 45.5235C259.753 56.1747 259.552 69.4317 257.182 79.988C254.354 92.5807 250.926 100.488 244.124 107.943C243.753 107.956 243.402 107.984 243.037 108.005C242.627 108.043 242.217 108.074 241.82 108.12C241.632 108.151 241.587 108.31 241.526 108.451C241.45 108.578 241.354 108.693 241.243 108.792L240.645 109.428L239.453 110.677C237.9 112.296 236.255 113.829 234.525 115.268C232.83 116.67 231.025 117.943 229.127 119.074C228.664 119.372 228.169 119.623 227.69 119.895L226.966 120.295C226.844 120.363 226.716 120.419 226.582 120.462C226.509 120.467 226.437 120.477 226.365 120.492C226.33 120.508 226.298 120.532 226.273 120.561C226.248 120.59 226.23 120.625 226.22 120.662L225.596 122.49C216.531 127.073 202.55 131.626 188.933 136.058C185.434 137.196 181.911 138.343 178.438 139.499C177.494 134.406 176.518 129.241 175.32 124.098C175.46 123.855 175.584 123.611 175.722 123.37C175.939 122.939 176.137 122.506 176.346 122.065C176.393 121.968 176.405 121.859 176.38 121.754C176.346 121.656 176.307 121.56 176.261 121.467C176.206 121.273 176.166 121.076 176.14 120.877C176.068 120.482 176.01 120.082 175.915 119.695L175.386 117.353C174.631 114.271 173.699 111.233 172.595 108.251C171.5 105.286 170.278 102.38 168.927 99.5311C168.58 98.8232 168.244 98.1103 167.89 97.405L167.361 96.3509C167.261 96.1798 167.18 95.9994 167.118 95.8123C167.114 95.7108 167.089 95.6112 167.043 95.5198C166.998 95.4284 166.933 95.3472 166.853 95.2814C166.433 95.0505 165.996 94.83 165.565 94.6069C165.134 94.3837 164.732 94.2145 164.296 94.0324C159.744 85.1559 153.631 73.8353 147.209 61.9453C140.684 49.8604 133.656 36.8471 127.673 25.27C134.402 19.9457 142.876 10.0049 150.399 0.00256721H144.844C138.179 8.64563 131.143 16.7014 125.615 21.2896C122.111 14.4162 119.061 8.18654 116.834 3.15203C116.416 2.20308 115.937 1.15155 115.414 0.0128204H110.497C111.325 1.78503 112.068 3.41363 112.71 4.86781C115.046 10.1485 118.265 16.7065 121.955 23.9261C121.807 24.0133 121.658 24.1005 121.513 24.1826C115.959 27.2141 102.387 33.2001 86.7236 39.1759C86.4591 38.9989 86.1946 38.8527 85.9301 38.686C85.6259 38.5091 85.3191 38.3295 85.0202 38.1731C84.8747 38.1013 84.798 38.2116 84.7134 38.2962C84.6226 38.3601 84.5204 38.4071 84.4118 38.4347L82.5392 39.1118L77.5508 40.9071L72.5597 42.7023L70.0655 43.6051C69.8671 44.1847 69.6687 44.7669 69.4915 45.4004C60.1045 48.5986 50.7122 51.4531 42.4334 53.4049C39.0319 32.659 27.4364 9.03546 25.2966 4.78574L31.6789 0.010261H24.3312L19.4803 3.64188C14.7828 7.16065 10.7227 10.2024 8.14918 12.1054C5.58632 14.0024 2.8619 15.685 0.00529512 17.1348V22.0077C3.84611 20.2274 7.48723 18.0676 10.8709 15.5626C13.3518 13.7237 17.1976 10.8461 21.665 7.50176C24.9659 14.2085 38.8812 43.6641 38.8865 63.8817V63.9125C38.8865 83.9505 33.6309 111.083 32.1947 118.123H32.1577C30.3075 118.123 28.4937 118.621 26.9181 119.562C25.3426 120.502 24.0671 121.848 23.2335 123.45C21.136 122.824 12.0585 120.287 0 119.367V123.77C12.0981 124.745 21.0805 127.361 22.1649 127.684C22.1649 127.725 22.1649 127.766 22.1649 127.804C22.1684 130.373 23.2223 132.836 25.0956 134.652C26.9688 136.469 29.5085 137.49 32.1577 137.494C34.0296 137.494 35.8633 136.981 37.4476 136.014L40.1243 138.651C52.3177 150.669 65.2516 163.426 76.6647 175.505C76.6991 175.762 76.7361 175.998 76.7652 176.249C76.8393 176.693 76.9054 177.137 76.9821 177.565C77.0324 177.77 77.2149 177.842 77.3841 177.932C77.5335 178.035 77.6709 178.154 77.7941 178.286L78.5717 179.04L80.1085 180.578C82.1504 182.63 84.1235 184.743 86.0332 186.903C86.9986 187.975 87.9191 189.083 88.8528 190.178L90.2096 191.85L90.8894 192.686L91.5427 193.538L92.852 195.241L93.4815 196.108C93.5929 196.248 93.6929 196.396 93.7804 196.551C93.8174 196.633 93.8359 196.731 93.8809 196.808C93.9338 196.889 94.0157 196.948 94.111 196.975C94.7828 197.18 95.452 197.393 96.1397 197.6C100.57 203.158 104.18 208.285 106.635 212.771C107.505 214.361 108.428 216.123 109.386 218.01H114.374C113.052 215.343 111.779 212.881 110.6 210.732C109.521 208.757 108.219 206.669 106.754 204.487C110.915 198.247 130.961 168.837 146.267 157.876C152.29 153.567 163.023 149.379 174.944 145.296C176.65 154.426 178.425 163.113 181.448 171.412C188.769 191.517 226.13 206.064 235.628 209.477C235.099 210.379 234.57 211.281 234.041 212.186C232.862 214.215 231.536 216.162 230.073 218.01H235.601C236.483 216.742 237.277 215.503 237.982 214.294C244.817 202.308 253.506 190.457 264.051 178.739C264.757 178.804 265.424 178.832 266.085 178.857L268.045 176.831L275.885 168.727L276.866 167.714L277.355 167.201C277.442 167.121 277.503 167.016 277.62 166.965C277.736 166.914 277.884 166.883 277.884 166.708C277.855 166.365 277.813 166.008 277.773 165.654C277.733 165.3 277.688 165.034 277.63 164.705C282.617 159.904 287.907 155.147 293.5 150.433C296.772 147.676 299.708 145.283 302.392 143.193C308.947 140.007 315.199 139.751 320.688 142.495C326.091 145.196 330.239 150.702 332.104 157.191C332.302 161.382 332.484 165.503 332.664 169.578C333.458 187.708 334.188 204.071 336.023 217.979H340.549C339.226 208.1 338.465 196.882 337.851 184.62C351.634 185.8 365.028 191.832 374.011 198.29V192.953C364.38 186.644 351.264 181.279 337.637 180.255C337.471 176.719 337.308 173.105 337.147 169.412C337.013 166.334 336.883 163.179 336.722 159.922C337.999 152.669 341.596 144.631 346.712 137.894C352.496 130.277 359.537 125.178 366.549 123.406C369.133 123.442 371.633 123.57 374.013 123.762V119.367C371.04 119.141 367.89 119.01 364.613 119.031C352.348 116.522 336.576 108.726 330.466 98.3667C328.78 91.3023 326.47 84.3915 323.563 77.7106L323.245 77.0027C323.56 76.559 323.851 76.1282 324.15 75.6947L323.275 74.0277L321.529 70.6935L319.781 67.3594L319.331 66.5285L319.114 66.113C319.085 66.0386 319.021 65.9822 319.029 65.8924C319.037 65.8027 319.077 65.6924 318.929 65.6795C318.384 65.6513 317.839 65.6231 317.268 65.6103C313.985 60.2039 310.613 55.79 307.349 51.6763C305.532 49.3808 302.755 46.2006 299.184 42.4433C303.368 40.8532 312.917 37.7473 331.522 33.9798C352.129 29.807 364.666 26.3729 374 22.0026V17.1297C364.848 21.7949 352.375 25.3136 330.622 29.7224C309.074 34.0824 299.382 37.5806 295.902 39.0476ZM32.1524 133.142C30.6939 133.14 29.2955 132.578 28.2637 131.579C27.2319 130.579 26.651 129.224 26.6482 127.81C26.6503 126.395 27.2309 125.039 28.2628 124.039C29.2946 123.039 30.6934 122.476 32.1524 122.475C33.611 122.476 35.0096 123.039 36.041 124.039C37.0724 125.039 37.6525 126.395 37.6539 127.81C37.6518 129.223 37.0714 130.579 36.0401 131.579C35.0087 132.578 33.6106 133.14 32.1524 133.142ZM143.604 154.365C128.527 165.157 109.878 191.866 104.011 200.578C102.803 198.93 101.512 197.238 100.136 195.502C100.181 195.061 100.2 194.635 100.231 194.197C100.263 193.758 100.245 193.279 100.253 192.817C100.256 192.716 100.222 192.617 100.157 192.538C100.086 192.469 100.011 192.405 99.9326 192.345C99.8041 192.203 99.6865 192.052 99.5808 191.894L98.909 190.973L97.523 189.178L96.8274 188.275L96.1106 187.39L94.677 185.626C93.6957 184.472 92.725 183.317 91.712 182.181C89.7071 179.906 87.6414 177.691 85.5148 175.539L83.8987 173.933L83.0814 173.141C82.9356 173.018 82.8043 172.879 82.69 172.728C82.5895 172.559 82.5101 172.371 82.2879 172.323C81.8251 172.246 81.3516 172.182 80.8834 172.115C80.4153 172.048 79.9286 172.005 79.4314 171.974C68.1056 160.002 55.362 147.442 43.3433 135.599L40.6216 132.939C41.6157 131.402 42.1411 129.624 42.1372 127.81C42.1353 126.001 41.6117 124.228 40.6255 122.693C39.6393 121.157 38.2297 119.92 36.5563 119.12C37.974 112.183 43.3644 84.466 43.3644 63.9125V63.8791C43.3545 61.828 43.2371 59.7788 43.0126 57.7392C51.5771 55.7439 61.3371 52.7791 71.0865 49.4501C71.6154 49.7938 72.1444 50.0964 72.6734 50.3965L75.1677 49.4963L85.1472 45.8877L86.3956 45.4363L87.0198 45.2106C87.1198 45.162 87.2284 45.1324 87.3398 45.1234C87.4642 45.1234 87.6043 45.167 87.6572 45.0234C87.7736 44.7079 87.8821 44.3771 87.9932 44.0488C88.0725 43.7744 88.1598 43.5205 88.2391 43.2409C104.194 37.1549 118.03 31.0535 123.695 27.9656L123.96 27.8219C129.895 39.2862 136.801 52.0763 143.223 63.9663C149.738 76.0204 155.935 87.5078 160.487 96.3996C160.347 97.169 160.222 97.9102 160.116 98.6386C160.881 99.9004 161.484 101.247 162.135 102.568C163.399 105.23 164.539 107.954 165.552 110.69C166.563 113.418 167.416 116.198 168.107 119.018L168.586 121.123C168.673 121.472 168.721 121.826 168.784 122.177C168.824 122.351 168.847 122.528 168.855 122.706C168.855 122.798 168.826 122.893 168.832 122.983C168.842 123.082 168.89 123.173 168.967 123.239C169.636 123.845 170.276 124.465 170.953 125.106C172.185 130.405 173.18 135.714 174.151 140.959C161.606 145.224 150.19 149.653 143.604 154.365ZM318.979 137.527C319.086 137.984 319.242 138.428 319.445 138.853C316.253 137.786 312.842 137.487 309.505 137.984C313.374 135.347 316.765 133.421 320.085 131.931C319.256 133.137 318.81 134.552 318.802 136.001C318.803 136.515 318.862 137.026 318.979 137.527ZM310.211 132.293C312.409 129.251 314.626 125.917 316.691 122.511C317.493 123.802 318.679 124.828 320.093 125.455C320.815 125.801 321.566 126.086 322.338 126.307C318.08 127.86 314.012 129.868 310.211 132.293ZM319.447 117.753C319.723 117.249 320.108 116.809 320.575 116.462C321.041 116.114 321.58 115.868 322.153 115.74C322.688 115.639 323.239 115.65 323.769 115.773C324.299 115.897 324.795 116.13 325.224 116.456C328.086 118.523 328.805 121.911 328.985 123.557C326.459 124.253 323.756 124.001 321.413 122.852C320.148 122.249 319.318 121.423 319.014 120.464C318.749 119.628 318.897 118.689 319.447 117.753ZM336.259 150.607C336.018 145.862 335.748 140.977 335.434 135.988C335.698 136.245 335.963 136.471 336.272 136.699C337.104 137.349 338.069 137.82 339.104 138.082C340.138 138.343 341.217 138.39 342.271 138.217C342.489 138.178 342.706 138.128 342.919 138.068C340.198 141.979 337.962 146.188 336.259 150.607ZM347.764 132.031C347.783 131.402 347.704 130.773 347.532 130.167C347.003 128.343 345.699 126.789 343.829 125.742C345.36 125.463 346.966 125.168 348.661 124.85C351.803 124.269 354.977 123.868 358.167 123.647C354.536 125.681 351.028 128.499 347.767 132.031H347.764ZM344.03 120.339C345.045 118.657 345.331 116.653 344.823 114.768C348.286 116.619 351.896 118.196 355.62 119.484C353.049 119.741 350.441 120.087 347.82 120.577C346.233 120.872 344.744 121.149 343.31 121.411C343.573 121.067 343.814 120.71 344.032 120.339H344.03ZM344.649 130.941C344.776 131.417 344.801 131.914 344.722 132.4C344.642 132.886 344.46 133.351 344.187 133.766C343.914 134.18 343.556 134.536 343.135 134.81C342.713 135.085 342.238 135.272 341.739 135.36C341.102 135.461 340.451 135.429 339.827 135.267C339.204 135.105 338.623 134.817 338.124 134.421C336.375 133.083 335.479 131.249 335.016 129.661L334.928 128.402C334.905 128.081 334.878 127.771 334.854 127.45C335.722 127.271 336.613 127.094 337.536 126.917C339.138 126.982 340.704 127.396 342.117 128.13C343.424 128.794 344.323 129.792 344.651 130.941H344.649ZM339.795 113.147C340.279 113.338 340.714 113.628 341.071 113.999C341.427 114.369 341.696 114.81 341.858 115.291C342.005 115.714 342.08 116.158 342.078 116.604C342.073 117.41 341.851 118.2 341.435 118.897C340.335 120.762 338.613 121.89 337.068 122.57C336.185 122.739 335.328 122.906 334.492 123.083L334.476 123.042C334.312 121.313 334.132 119.605 333.931 117.928C334.035 117.273 334.201 116.629 334.426 116.004C334.913 114.658 335.799 113.647 336.92 113.163C337.372 112.966 337.862 112.862 338.357 112.86C338.853 112.857 339.343 112.955 339.798 113.147H339.795ZM337.356 110.039C336.787 110.124 336.231 110.281 335.703 110.505C334.728 110.933 333.864 111.565 333.172 112.357C332.807 109.933 332.4 107.564 331.95 105.25C333.609 106.994 335.418 108.596 337.359 110.039H337.356ZM331.167 139.646C331.354 142.817 331.53 145.939 331.696 149.012C330.202 146.573 328.303 144.39 326.076 142.551C326.564 142.511 327.046 142.418 327.512 142.272C328.983 141.788 330.262 140.87 331.167 139.646ZM329.366 136.94C328.736 138.222 327.747 139.143 326.578 139.505C326.108 139.653 325.61 139.705 325.118 139.656C324.625 139.608 324.149 139.46 323.719 139.222C323.258 138.984 322.856 138.65 322.542 138.245C322.228 137.84 322.008 137.374 321.899 136.878C321.768 136.266 321.773 135.634 321.912 135.023C322.052 134.413 322.323 133.838 322.709 133.336C324.795 130.531 328.279 129.779 329.974 129.579C330.734 132.02 330.516 134.648 329.366 136.94ZM329.191 116.207C328.565 115.422 327.832 114.723 327.012 114.129C325.588 113.071 323.789 112.605 322.01 112.832C323.772 109.241 325.449 105.273 326.573 101.432C327.596 105.945 328.483 110.857 329.191 116.207ZM303.8 54.3282C306.548 57.7931 309.883 61.9864 313.242 67.4877C312.869 68.0006 312.536 68.5135 312.2 68.9983C312.126 69.1214 312.237 69.1547 312.319 69.2009C312.401 69.247 312.409 69.3317 312.454 69.3984L313.107 70.6474L314.856 73.9815L316.601 77.3156L317.474 78.9801C318.077 79.0058 318.672 79.0365 319.299 79.0494C321.527 84.1313 323.383 89.3592 324.854 94.6941C324.348 100.778 320.836 109.669 314.909 119.703C310.433 127.276 305.601 133.829 301.842 138.097C298.488 140.62 294.772 143.611 290.532 147.181C284.8 152.013 279.379 156.895 274.271 161.828C273.991 161.802 273.721 161.787 273.443 161.764C273.076 161.748 272.708 161.73 272.351 161.725C272.184 161.725 272.158 161.866 272.115 161.982C272.073 162.097 271.967 162.164 271.891 162.254L271.401 162.766L270.423 163.792L262.583 171.897L260.623 173.923C260.684 174.505 260.747 175.09 260.845 175.703C251.944 185.567 244.311 195.56 237.948 205.682C230.502 203.027 192.472 188.66 185.67 169.981C182.686 161.792 180.938 153.054 179.224 143.862C182.892 142.636 186.63 141.42 190.333 140.212C204.515 135.596 218.081 131.182 227.362 126.53C228.104 126.772 228.859 126.975 229.624 127.138C229.668 127.15 229.714 127.154 229.759 127.149C229.805 127.143 229.849 127.129 229.888 127.107C229.954 127.054 230.016 126.998 230.073 126.938C230.209 126.849 230.351 126.772 230.499 126.707L231.351 126.237C231.914 125.922 232.491 125.624 233.036 125.276C235.256 123.952 237.367 122.464 239.352 120.826C241.29 119.217 243.133 117.504 244.875 115.696L246.144 114.373L246.769 113.711C246.863 113.595 246.972 113.49 247.094 113.401C247.237 113.329 247.395 113.27 247.411 113.083C247.411 112.696 247.411 112.291 247.411 111.898C247.395 111.588 247.388 111.283 247.369 110.972C254.759 102.919 258.555 94.3376 261.559 80.9652C264.024 69.9831 264.231 56.4851 264.395 45.6389C264.442 42.4484 264.487 39.4349 264.588 36.8061C264.736 32.8205 265.167 27.9758 265.667 22.3642C265.781 21.0998 265.897 19.7995 266.013 18.4582C281.976 30.7175 297.068 45.8364 303.802 54.3282H303.8Z" fill="white"/>
<path d="M21.0673 218H27.2115C22.1094 212.637 15.973 206.554 8.25762 199.355C5.69781 196.997 2.93527 194.855 0 192.953V198.303C1.80352 199.591 3.52175 200.987 5.14449 202.484C11.4078 208.341 16.6131 213.43 21.0673 218Z" fill="white"/>
</g>
<defs>
<clipPath id="clip0_2976_7916">
<rect width="374" height="218" fill="white"/>
</clipPath>
</defs>
</svg>
