<svg width="158" height="158" viewBox="0 0 158 158" fill="none" xmlns="http://www.w3.org/2000/svg">
<mask id="mask0_3806_9204" style="mask-type:alpha" maskUnits="userSpaceOnUse" x="0" y="0" width="158" height="158">
<rect width="158" height="158" transform="matrix(-1 0 0 1 158 0)" fill="url(#paint0_linear_3806_9204)"/>
</mask>
<g mask="url(#mask0_3806_9204)">
<path opacity="0.4" d="M9.375 0C4.19739 0 0 4.19727 0 9.375V40.625C0 45.8027 4.19739 50 9.375 50H40.625C45.8026 50 50 45.8027 50 40.625V9.375C50 4.19727 45.8026 0 40.625 0H9.375Z" fill="#6D7A71"/>
<path opacity="0.4" d="M63.375 0C58.1974 0 54 4.19727 54 9.375V40.625C54 45.8027 58.1974 50 63.375 50H94.625C99.8026 50 104 45.8027 104 40.625V9.375C104 4.19727 99.8026 0 94.625 0H63.375Z" fill="#6D7A71"/>
<path opacity="0.4" d="M117.375 0C112.197 0 108 4.19727 108 9.375V40.625C108 45.8027 112.197 50 117.375 50H148.625C153.803 50 158 45.8027 158 40.625V9.375C158 4.19727 153.803 0 148.625 0H117.375Z" fill="#6D7A71"/>
<path opacity="0.4" d="M9.375 54C4.19739 54 0 58.1973 0 63.375V94.625C0 99.8027 4.19739 104 9.375 104H40.625C45.8026 104 50 99.8027 50 94.625V63.375C50 58.1973 45.8026 54 40.625 54H9.375Z" fill="#6D7A71"/>
<path d="M54 63.375C54 58.1973 58.1973 54 63.375 54H94.625C99.8027 54 104 58.1973 104 63.375V94.625C104 99.8027 99.8027 104 94.625 104H63.375C58.1973 104 54 99.8027 54 94.625V63.375Z" fill="#A27070"/>
<path d="M78.8643 92.7767C76.485 92.613 74.1843 91.6019 72.3887 89.9296H72.3918L72.3631 89.903C68.0616 85.6047 68.4582 80.3038 70.2634 76.7784C70.8269 75.7131 73.9855 70.3952 80.812 70.3165H80.8184C80.8311 70.3155 80.8428 70.3144 80.8545 70.3123C80.8553 70.3121 80.8561 70.312 80.8568 70.3118C80.8611 70.3109 80.8649 70.3102 80.8694 70.3102C82.9383 70.3102 84.6213 68.4305 84.6213 66.1213C84.6213 63.8122 82.9383 61.9336 80.8694 61.9336C79.8743 61.9336 78.9409 62.3727 78.2413 63.169C77.5566 63.9483 77.158 64.9955 77.1186 66.1171C77.0761 67.3227 77.2802 67.8936 77.4301 68.3104L77.4321 68.3158C77.5373 68.6105 77.6074 68.8066 77.5588 69.1152C77.5237 69.3363 77.4322 69.4905 77.277 69.5862C76.9953 69.7616 76.5785 69.6882 76.4425 69.6446C75.964 69.4926 75.744 69.1524 75.5271 68.6144C75.206 67.8203 75.0433 66.9814 75.0433 66.1224C75.0433 62.6693 77.6566 59.8594 80.8694 59.8594C84.0823 59.8594 86.6966 62.6693 86.6966 66.1224C86.6966 69.5755 84.0823 72.3854 80.8694 72.3854H80.7323V72.3918C75.1475 72.5183 72.5683 76.8592 72.1037 77.7363C71.7231 78.4805 71.0789 80.0167 71.0448 81.9379C71.0257 83.0265 71.2107 84.0854 71.5934 85.0848C72.0516 86.2787 72.799 87.4003 73.8154 88.4199L73.8197 88.4241C75.2592 89.7573 77.0931 90.5664 78.9813 90.7046H78.9898C80.9226 90.7301 82.5673 90.2889 83.875 89.3937L83.8994 89.3778C84.2035 89.18 84.498 88.9568 84.7744 88.7155L84.8828 88.6198C85.5632 88.0095 86.1288 87.2813 86.5658 86.4541L86.5679 86.4499C87.1293 85.2825 87.395 84.0705 87.3589 82.8469L87.3546 82.714H87.3525C87.3522 82.7054 87.3517 82.6969 87.3512 82.6884C87.3503 82.6714 87.3493 82.6544 87.3493 82.6374C87.3472 82.5757 87.344 82.512 87.3387 82.4482C87.338 82.4413 87.3382 82.4336 87.3384 82.4247C87.3386 82.4198 87.3387 82.4145 87.3387 82.4088C87.3387 82.4038 87.3388 82.399 87.3389 82.3941C87.3392 82.3845 87.3394 82.3751 87.3387 82.3652V82.345C87.2707 81.8794 87.0325 81.4562 86.6689 81.1543C86.2989 80.8481 85.8311 80.694 85.3506 80.7205C84.4065 80.7726 83.6389 81.5222 83.5634 82.4641C83.5209 83.001 83.6974 83.5145 84.0621 83.9089C84.4214 84.2981 84.9307 84.5213 85.459 84.5213C85.5494 84.5213 85.9853 84.6957 86.0225 85.1911C86.0427 85.4526 85.9332 85.7237 85.7206 85.9332C85.442 86.2075 85.0391 86.3361 84.5841 86.2957C83.6942 86.217 83.3976 86.0735 82.9011 85.6557L82.8214 85.5887L82.7353 85.6483C81.8954 86.2245 80.4463 86.7391 78.3083 85.9109C76.7104 85.2921 75.3123 85.1411 74.1514 85.4622C73.6666 85.5962 73.1488 85.3484 72.9479 84.8849L72.9383 84.8637C72.8214 84.5915 72.8277 84.2821 72.9553 84.0153C73.0829 83.7505 73.3189 83.5538 73.6017 83.4752C75.2145 83.0297 77.0495 83.1988 79.0567 83.9759C80.3867 84.4916 81.1735 84.2268 81.5998 83.9153L81.6774 83.8579L81.6498 83.7654C81.5381 83.3912 81.4807 83.0053 81.4807 82.6193C81.4807 80.4261 83.2636 78.6421 85.4569 78.6421C87.6502 78.6421 89.4342 80.4261 89.4342 82.6193C89.4342 82.6462 89.4323 82.674 89.4303 82.7036L89.4299 82.7097L89.4278 82.7437V82.7501C89.4809 84.3289 89.1439 85.8832 88.4263 87.3695L88.4104 87.4014C87.8852 88.4008 87.2069 89.2906 86.3957 90.0455L86.3829 90.0571L86.3755 90.0688L86.2096 90.2134C85.8418 90.5419 85.4474 90.8428 85.0359 91.1107L85.0338 91.1129C83.3583 92.2557 81.3032 92.816 78.9239 92.7788L78.8643 92.7767Z" fill="#FBF8F8"/>
<path d="M86.6584 71.7273C89.9733 73.3624 92.2165 76.0799 93.3265 79.803L93.3307 79.8062V79.8094C93.4041 80.0337 94.0388 82.0718 93.7836 84.8126C93.454 88.3486 91.855 91.4637 89.0324 94.0695L89.0069 94.0918C86.2459 96.4902 82.7704 97.7575 79.3938 97.7575C76.0173 97.7575 73.5699 96.6455 72.6747 96.1681L72.6705 96.166C65.5707 92.6852 64.228 85.9236 64.1748 85.6376C64.1227 85.3654 64.1812 85.089 64.3375 84.8604C64.4938 84.6319 64.7298 84.4777 65.002 84.4267C65.0658 84.4139 65.1295 84.4086 65.1933 84.4086C65.6824 84.4086 66.1183 84.7562 66.2129 85.2527C66.2607 85.4983 67.444 91.3021 73.5986 94.3108L73.6348 94.3299C73.8357 94.4373 75.6739 95.3856 78.2882 95.6238C79.8138 95.7631 81.3054 95.6323 82.7226 95.2347C84.4821 94.7414 86.1342 93.8334 87.6311 92.5364L87.6343 92.5332C93.4742 87.1303 91.4447 80.7184 91.3554 80.4494L91.3437 80.4122C90.8334 78.6931 90.02 77.2068 88.925 75.9937C88.0373 75.0093 86.9635 74.2013 85.7313 73.5889C85.4209 73.4347 85.2146 73.1498 85.1678 72.8064C85.121 72.4651 85.2401 72.1377 85.4953 71.907L85.5165 71.8868C85.8291 71.6019 86.2778 71.5391 86.6584 71.7273Z" fill="#FBF8F8"/>
<path opacity="0.4" d="M117.375 54C112.197 54 108 58.1973 108 63.375V94.625C108 99.8027 112.197 104 117.375 104H148.625C153.803 104 158 99.8027 158 94.625V63.375C158 58.1973 153.803 54 148.625 54H117.375Z" fill="#6D7A71"/>
<path opacity="0.4" d="M9.375 108C4.19739 108 0 112.197 0 117.375V148.625C0 153.803 4.19739 158 9.375 158H40.625C45.8026 158 50 153.803 50 148.625V117.375C50 112.197 45.8026 108 40.625 108H9.375Z" fill="#6D7A71"/>
<path opacity="0.4" d="M63.375 108C58.1974 108 54 112.197 54 117.375V148.625C54 153.803 58.1974 158 63.375 158H94.625C99.8026 158 104 153.803 104 148.625V117.375C104 112.197 99.8026 108 94.625 108H63.375Z" fill="#6D7A71"/>
<path opacity="0.4" d="M117.375 108C112.197 108 108 112.197 108 117.375V148.625C108 153.803 112.197 158 117.375 158H148.625C153.803 158 158 153.803 158 148.625V117.375C158 112.197 153.803 108 148.625 108H117.375Z" fill="#6D7A71"/>
</g>
<defs>
<linearGradient id="paint0_linear_3806_9204" x1="158" y1="79" x2="0" y2="79" gradientUnits="userSpaceOnUse">
<stop stop-color="#D9D9D9" stop-opacity="0"/>
<stop offset="0.305" stop-color="white"/>
</linearGradient>
</defs>
</svg>
