<svg width="133" height="93" viewBox="0 0 133 93" fill="none" xmlns="http://www.w3.org/2000/svg">
<path opacity="0.4" d="M0 8.625C0 13.8026 4.19727 18 9.375 18L40.625 18C45.8027 18 50 13.8026 50 8.625V-22.625C50 -27.8026 45.8027 -32 40.625 -32H9.375C4.19727 -32 0 -27.8026 0 -22.625L0 8.625Z" fill="url(#paint0_linear_3734_10426)"/>
<path opacity="0.4" d="M63.375 -32C58.1974 -32 54 -27.8027 54 -22.625V8.625C54 13.8027 58.1974 18 63.375 18H94.625C99.8026 18 104 13.8027 104 8.625V-22.625C104 -27.8027 99.8026 -32 94.625 -32H63.375Z" fill="#A27070"/>
<path opacity="0.4" d="M117.375 -32C112.197 -32 108 -27.8027 108 -22.625V8.625C108 13.8027 112.197 18 117.375 18H148.625C153.803 18 158 13.8027 158 8.625V-22.625C158 -27.8027 153.803 -32 148.625 -32H117.375Z" fill="#A27070"/>
<path opacity="0.4" d="M0 62.625C0 67.8026 4.19727 72 9.375 72H40.625C45.8027 72 50 67.8026 50 62.625V31.375C50 26.1974 45.8027 22 40.625 22H9.375C4.19727 22 0 26.1974 0 31.375L0 62.625Z" fill="url(#paint1_linear_3734_10426)"/>
<path d="M54 31.375C54 26.1973 58.1973 22 63.375 22H94.625C99.8027 22 104 26.1973 104 31.375V62.625C104 67.8027 99.8027 72 94.625 72H63.375C58.1973 72 54 67.8027 54 62.625V31.375Z" fill="#A27070"/>
<path d="M78.8643 60.7767C76.485 60.613 74.1843 59.6019 72.3887 57.9296H72.3918L72.3631 57.903C68.0616 53.6047 68.4582 48.3038 70.2634 44.7784C70.8269 43.7131 73.9855 38.3952 80.812 38.3165H80.8184C80.8311 38.3155 80.8428 38.3144 80.8545 38.3123C80.8553 38.3121 80.8561 38.312 80.8568 38.3118C80.8611 38.3109 80.8649 38.3102 80.8694 38.3102C82.9383 38.3102 84.6213 36.4305 84.6213 34.1213C84.6213 31.8122 82.9383 29.9336 80.8694 29.9336C79.8743 29.9336 78.9409 30.3727 78.2413 31.169C77.5566 31.9483 77.158 32.9955 77.1186 34.1171C77.0761 35.3227 77.2802 35.8936 77.4301 36.3104L77.4321 36.3158C77.5373 36.6105 77.6074 36.8066 77.5588 37.1152C77.5237 37.3363 77.4322 37.4905 77.277 37.5862C76.9953 37.7616 76.5785 37.6882 76.4425 37.6446C75.964 37.4926 75.744 37.1524 75.5271 36.6144C75.206 35.8203 75.0433 34.9814 75.0433 34.1224C75.0433 30.6693 77.6566 27.8594 80.8694 27.8594C84.0823 27.8594 86.6966 30.6693 86.6966 34.1224C86.6966 37.5755 84.0823 40.3854 80.8694 40.3854H80.7323V40.3918C75.1475 40.5183 72.5683 44.8592 72.1037 45.7363C71.7231 46.4805 71.0789 48.0167 71.0448 49.9379C71.0257 51.0265 71.2107 52.0854 71.5934 53.0848C72.0516 54.2787 72.799 55.4003 73.8154 56.4199L73.8197 56.4241C75.2592 57.7573 77.0931 58.5664 78.9813 58.7046H78.9898C80.9226 58.7301 82.5673 58.2889 83.875 57.3937L83.8994 57.3778C84.2035 57.18 84.498 56.9568 84.7744 56.7154L84.8828 56.6198C85.5632 56.0095 86.1288 55.2813 86.5658 54.4541L86.5679 54.4499C87.1293 53.2825 87.395 52.0705 87.3589 50.8469L87.3546 50.714H87.3525C87.3522 50.7054 87.3517 50.6969 87.3512 50.6884C87.3503 50.6714 87.3493 50.6544 87.3493 50.6374C87.3472 50.5757 87.344 50.512 87.3387 50.4482C87.338 50.4413 87.3382 50.4336 87.3384 50.4247C87.3386 50.4198 87.3387 50.4145 87.3387 50.4088C87.3387 50.4038 87.3388 50.399 87.3389 50.3941C87.3392 50.3845 87.3394 50.3751 87.3387 50.3652V50.345C87.2707 49.8794 87.0325 49.4562 86.6689 49.1543C86.2989 48.8481 85.8311 48.694 85.3506 48.7205C84.4065 48.7726 83.6389 49.5222 83.5634 50.4641C83.5209 51.001 83.6974 51.5145 84.0621 51.9089C84.4214 52.2981 84.9307 52.5213 85.459 52.5213C85.5494 52.5213 85.9853 52.6957 86.0225 53.1911C86.0427 53.4526 85.9332 53.7237 85.7206 53.9332C85.442 54.2075 85.0391 54.3361 84.5841 54.2957C83.6942 54.217 83.3976 54.0735 82.9011 53.6557L82.8214 53.5887L82.7353 53.6483C81.8954 54.2245 80.4463 54.739 78.3083 53.9109C76.7104 53.2921 75.3123 53.1411 74.1514 53.4622C73.6666 53.5962 73.1488 53.3484 72.9479 52.8849L72.9383 52.8637C72.8214 52.5915 72.8277 52.2821 72.9553 52.0153C73.0829 51.7505 73.3189 51.5538 73.6017 51.4752C75.2145 51.0297 77.0495 51.1988 79.0567 51.9759C80.3867 52.4915 81.1735 52.2268 81.5998 51.9153L81.6774 51.8579L81.6498 51.7654C81.5381 51.3912 81.4807 51.0053 81.4807 50.6193C81.4807 48.4261 83.2636 46.6421 85.4569 46.6421C87.6502 46.6421 89.4342 48.4261 89.4342 50.6193C89.4342 50.6462 89.4323 50.674 89.4303 50.7036L89.4299 50.7097L89.4278 50.7437V50.7501C89.4809 52.3289 89.1439 53.8832 88.4263 55.3695L88.4104 55.4014C87.8852 56.4008 87.2069 57.2906 86.3957 58.0455L86.3829 58.0571L86.3755 58.0688L86.2096 58.2134C85.8418 58.5419 85.4474 58.8428 85.0359 59.1107L85.0338 59.1129C83.3583 60.2557 81.3032 60.816 78.9239 60.7788L78.8643 60.7767Z" fill="#FBF8F8"/>
<path d="M86.6584 39.7273C89.9733 41.3624 92.2165 44.0799 93.3265 47.803L93.3307 47.8062V47.8094C93.4041 48.0337 94.0388 50.0718 93.7836 52.8126C93.454 56.3486 91.855 59.4637 89.0324 62.0695L89.0069 62.0918C86.2459 64.4902 82.7704 65.7575 79.3938 65.7575C76.0173 65.7575 73.5699 64.6455 72.6747 64.1681L72.6705 64.166C65.5707 60.6852 64.228 53.9236 64.1748 53.6376C64.1227 53.3654 64.1812 53.089 64.3375 52.8604C64.4938 52.6319 64.7298 52.4777 65.002 52.4267C65.0657 52.4139 65.1295 52.4086 65.1933 52.4086C65.6824 52.4086 66.1183 52.7562 66.2129 53.2527C66.2607 53.4983 67.444 59.3021 73.5986 62.3108L73.6348 62.3299C73.8357 62.4373 75.6739 63.3856 78.2882 63.6238C79.8138 63.7631 81.3054 63.6323 82.7226 63.2347C84.4821 62.7414 86.1342 61.8334 87.6311 60.5364L87.6343 60.5332C93.4742 55.1303 91.4447 48.7184 91.3554 48.4494L91.3437 48.4122C90.8334 46.6931 90.02 45.2068 88.925 43.9937C88.0373 43.0093 86.9635 42.2013 85.7313 41.5889C85.4209 41.4347 85.2146 41.1498 85.1678 40.8064C85.121 40.4651 85.2401 40.1377 85.4953 39.907L85.5165 39.8868C85.8291 39.6019 86.2778 39.5391 86.6584 39.7273Z" fill="#FBF8F8"/>
<path opacity="0.4" d="M117.375 22C112.197 22 108 26.1973 108 31.375V62.625C108 67.8027 112.197 72 117.375 72H148.625C153.803 72 158 67.8027 158 62.625V31.375C158 26.1973 153.803 22 148.625 22H117.375Z" fill="#A27070"/>
<path opacity="0.4" d="M0 116.625C0 121.803 4.19727 126 9.375 126H40.625C45.8027 126 50 121.803 50 116.625V85.375C50 80.1974 45.8027 76 40.625 76H9.375C4.19727 76 0 80.1974 0 85.375L0 116.625Z" fill="url(#paint2_linear_3734_10426)"/>
<path opacity="0.4" d="M63.375 76C58.1974 76 54 80.1973 54 85.375V116.625C54 121.803 58.1974 126 63.375 126H94.625C99.8026 126 104 121.803 104 116.625V85.375C104 80.1973 99.8026 76 94.625 76H63.375Z" fill="#A27070"/>
<path opacity="0.4" d="M117.375 76C112.197 76 108 80.1973 108 85.375V116.625C108 121.803 112.197 126 117.375 126H148.625C153.803 126 158 121.803 158 116.625V85.375C158 80.1973 153.803 76 148.625 76H117.375Z" fill="#A27070"/>
<defs>
<linearGradient id="paint0_linear_3734_10426" x1="0" y1="-7" x2="50" y2="-7" gradientUnits="userSpaceOnUse">
<stop stop-color="#F4F3F6"/>
<stop offset="0.445" stop-color="#E1D5D7"/>
<stop offset="0.675" stop-color="#CFB8BA"/>
<stop offset="1" stop-color="#A27070"/>
</linearGradient>
<linearGradient id="paint1_linear_3734_10426" x1="0" y1="47" x2="50" y2="47" gradientUnits="userSpaceOnUse">
<stop stop-color="#F4F3F6"/>
<stop offset="0.445" stop-color="#E1D5D7"/>
<stop offset="0.675" stop-color="#CFB8BA"/>
<stop offset="1" stop-color="#A27070"/>
</linearGradient>
<linearGradient id="paint2_linear_3734_10426" x1="0" y1="101" x2="50" y2="101" gradientUnits="userSpaceOnUse">
<stop stop-color="#F4F3F6"/>
<stop offset="0.445" stop-color="#E1D5D7"/>
<stop offset="0.675" stop-color="#CFB8BA"/>
<stop offset="1" stop-color="#A27070"/>
</linearGradient>
</defs>
</svg>
