<svg width="164" height="25" viewBox="0 0 164 25" fill="none" xmlns="http://www.w3.org/2000/svg">
<path d="M8.5287 23.5472V2.94949H0.975098V1.48535H17.6463V2.94949H10.0261V23.5472H8.5287Z" fill="white"/>
<path d="M22.0384 21.784C20.7406 20.22 20.1084 18.1569 20.1084 15.5947C20.1084 13.0325 20.7406 10.9694 22.0384 9.40541C23.3361 7.87473 25.0332 7.10938 27.1629 7.10938C29.2925 7.10938 31.0229 7.80817 32.2873 9.23903C33.5851 10.6366 34.2173 12.5333 34.2173 14.8959V15.5947H21.5725C21.5725 17.7576 22.0717 19.488 23.1032 20.7524C24.1348 22.0502 25.4658 22.6824 27.1629 22.6824C28.4273 22.6824 29.5587 22.3497 30.5903 21.6842C31.6218 20.9854 32.3539 20.0869 32.7532 18.9555H34.2506C34.0177 20.4197 33.2191 21.6176 31.8547 22.6159C30.5237 23.5809 28.9598 24.08 27.1629 24.08C25.0332 24.1133 23.3029 23.3479 22.0384 21.784ZM32.7532 14.1971V13.6314C32.6201 12.1673 32.0211 10.9361 30.9563 9.90455C29.8582 8.90627 28.5937 8.40714 27.1629 8.40714C25.732 8.40714 24.4675 8.90627 23.4027 9.93782C22.3046 10.9694 21.7056 12.2671 21.5725 13.7645V14.1638H32.7532V14.1971Z" fill="white"/>
<path d="M39.009 22.8148C37.8776 21.9164 37.3452 20.8515 37.3452 19.6203C37.3452 18.4224 37.8776 17.3909 38.9757 16.4924C40.0406 15.594 41.3716 15.0948 43.0021 14.9285C44.5661 14.7954 45.8305 14.5291 46.8288 14.1964C47.8604 13.8636 48.3595 13.431 48.3595 12.9652V11.5676C48.3595 10.7357 47.9269 10.0702 47.0285 9.47122C46.1633 8.90553 45.0985 8.60606 43.834 8.60606C42.6361 8.60606 41.6045 8.87226 40.7393 9.43795C39.9075 10.0036 39.4749 10.6692 39.4749 11.4345V12.2664H38.0773V11.3014C38.0773 10.2366 38.643 9.33813 39.7411 8.57279C40.8725 7.84072 42.2368 7.44141 43.834 7.44141C45.4645 7.44141 46.8621 7.80744 48.0267 8.50624C49.1914 9.2383 49.7904 10.1035 49.7904 11.1017V20.6852C49.7904 21.3174 49.9235 21.8498 50.1897 22.2824C50.4559 22.715 50.7886 22.9479 51.1879 22.9479C51.321 22.9479 51.4209 22.9479 51.5207 22.9146C51.6205 22.8814 51.6871 22.8481 51.7536 22.8148V23.5136C51.3876 23.68 50.9217 23.7798 50.356 23.7798C49.7904 23.7798 49.2912 23.5469 48.8586 23.0478C48.4593 22.5486 48.2597 21.9496 48.2597 21.2509C47.9602 22.0827 47.328 22.7815 46.363 23.2807C45.398 23.8131 44.2666 24.046 43.0021 24.046C41.4049 24.1126 40.0738 23.68 39.009 22.8148ZM46.4628 21.6834C47.4943 20.8515 48.0933 19.7534 48.3262 18.4557V14.7953C47.9935 15.0948 47.3612 15.3278 46.4295 15.5274C45.5643 15.7271 44.3997 15.8934 42.9688 16.0266C41.8042 16.1264 40.8392 16.5257 40.0406 17.2245C39.2419 17.89 38.8426 18.6886 38.8426 19.6203C38.8426 20.5521 39.2419 21.3507 40.0738 22.0162C40.8725 22.6817 41.8374 23.0145 42.9688 23.0145C44.2999 22.9812 45.4645 22.5486 46.4628 21.6834Z" fill="white"/>
<path d="M55.481 23.5473V7.70797H56.9784V10.37C57.411 9.43831 58.0432 8.67297 58.8751 8.14055C59.707 7.57486 60.5722 7.27539 61.5039 7.27539C62.6353 7.27539 63.6002 7.57488 64.4321 8.17384C65.2973 8.80608 65.863 9.57142 66.0959 10.5031C66.5618 9.50487 67.2606 8.73953 68.2256 8.17384C69.1906 7.57488 70.2554 7.27539 71.3868 7.27539C72.7844 7.27539 74.0156 7.77454 75.0471 8.73953C76.0454 9.70453 76.5445 10.8692 76.5445 12.2335V23.5473H75.0471V12.2335C75.0471 11.2019 74.6811 10.3035 73.9823 9.57143C73.2835 8.83936 72.4183 8.44004 71.4201 8.44004C70.2554 8.44004 69.2239 8.83936 68.2921 9.67125C67.3604 10.5031 66.7947 11.5347 66.5951 12.7992V23.5473H65.0977V12.2335C65.0977 11.2019 64.7649 10.3035 64.0994 9.57143C63.4339 8.83936 62.6353 8.44004 61.6703 8.44004C60.5389 8.44004 59.5406 8.87264 58.6422 9.73781C57.777 10.6363 57.2113 11.7343 56.9784 13.0987V23.5473H55.481Z" fill="white"/>
<path d="M81.5356 23.5474V0.919922H85.0629L92.1173 18.7557L99.1718 0.919922H102.699V23.5474H99.9039V6.5768L93.0823 23.5474H91.1191L84.3641 6.5768V23.5474H81.5356Z" fill="white"/>
<path d="M106.393 19.0218C106.393 17.591 107.059 16.393 108.356 15.4613C109.554 14.6294 111.018 14.1303 112.749 13.9639C113.98 13.8641 114.878 13.6644 115.511 13.3982C116.376 13.0655 116.808 12.4665 116.808 11.7011C116.808 10.836 116.476 10.1039 115.81 9.50495C115.145 8.90598 114.346 8.6065 113.414 8.6065C112.449 8.6065 111.617 8.90597 110.885 9.47166C110.153 10.0706 109.754 10.8027 109.754 11.7011V12.2668H107.192V11.1354C107.192 9.70459 107.824 8.50667 109.122 7.60823C110.32 6.77633 111.717 6.34375 113.381 6.34375C114.978 6.34375 116.343 6.77632 117.507 7.64149C118.705 8.57321 119.337 9.73787 119.337 11.1354V19.6208C119.337 20.0866 119.504 20.486 119.87 20.8187C120.203 21.1515 120.602 21.3178 121.068 21.3178V23.5806H120.069C119.404 23.5806 118.805 23.4142 118.273 23.0482C117.74 22.6822 117.341 22.183 117.141 21.5841C116.609 22.3494 115.877 22.9151 114.945 23.2811C114.08 23.6139 113.115 23.8135 112.083 23.8135C110.386 23.8135 109.022 23.3809 107.99 22.5158C106.892 21.6506 106.393 20.4859 106.393 19.0218ZM108.922 19.0218C108.922 19.7539 109.255 20.3529 109.887 20.8187C110.486 21.2513 111.218 21.4509 112.05 21.4509C113.348 21.4509 114.446 21.0516 115.378 20.2863C116.343 19.5209 116.842 18.5227 116.842 17.358L116.808 15.0953C116.11 15.661 114.845 16.027 113.015 16.1601L112.316 16.1934C111.418 16.2599 110.619 16.5594 109.987 17.0586C109.255 17.5577 108.922 18.2232 108.922 19.0218Z" fill="white"/>
<path d="M124.329 23.5477V7.14276H126.858V8.00794C127.323 7.54208 127.889 7.17604 128.521 6.94311C129.154 6.71018 129.819 6.61035 130.518 6.61035C131.45 6.61035 132.282 6.81 133.08 7.20931C133.912 7.60862 134.544 8.17431 135.043 8.8731C135.642 8.14103 136.341 7.60862 137.206 7.20931C138.038 6.81 138.937 6.61035 139.835 6.61035C141.466 6.61035 142.863 7.14277 143.995 8.24087C145.193 9.33897 145.758 10.67 145.758 12.2672V23.581H143.229V12.2672C143.229 11.3355 142.896 10.5369 142.231 9.87137C141.599 9.20586 140.8 8.8731 139.835 8.8731C138.903 8.8731 138.105 9.20586 137.439 9.87137C136.774 10.5036 136.441 11.3022 136.441 12.2672V23.581H133.912V12.2672C133.912 11.3355 133.579 10.5369 132.914 9.87137C132.248 9.20586 131.45 8.8731 130.485 8.8731C129.486 8.8731 128.621 9.20587 127.922 9.83811C127.19 10.4703 126.791 11.3022 126.791 12.2672V23.581H124.329V23.5477Z" fill="white"/>
<path d="M149.186 19.0218C149.186 17.591 149.851 16.393 151.149 15.4613C152.347 14.6294 153.811 14.1303 155.541 13.9639C156.772 13.8641 157.671 13.6644 158.303 13.3982C159.168 13.0655 159.601 12.4665 159.601 11.7011C159.601 10.836 159.268 10.1039 158.603 9.50495C157.937 8.90598 157.138 8.6065 156.207 8.6065C155.242 8.6065 154.41 8.90597 153.678 9.47166C152.946 10.0706 152.546 10.8027 152.546 11.7011V12.2668H149.984V11.1354C149.984 9.70459 150.616 8.50667 151.914 7.60823C153.112 6.77633 154.51 6.34375 156.173 6.34375C157.771 6.34375 159.135 6.77632 160.3 7.64149C161.498 8.57321 162.13 9.73787 162.13 11.1354V19.6208C162.13 20.0866 162.296 20.486 162.662 20.8187C162.995 21.1515 163.394 21.3178 163.86 21.3178V23.5806H162.862C162.196 23.5806 161.597 23.4142 161.065 23.0482C160.533 22.6822 160.133 22.183 159.934 21.5841C159.401 22.3494 158.669 22.9151 157.737 23.2811C156.872 23.6139 155.907 23.8135 154.876 23.8135C153.179 23.8135 151.814 23.3809 150.783 22.5158C149.685 21.6506 149.186 20.4859 149.186 19.0218ZM151.715 19.0218C151.715 19.7539 152.047 20.3529 152.68 20.8187C153.278 21.2513 154.011 21.4509 154.842 21.4509C156.14 21.4509 157.238 21.0516 158.17 20.2863C159.135 19.5209 159.634 18.5227 159.634 17.358L159.601 15.0953C158.902 15.661 157.638 16.027 155.807 16.1601L155.109 16.1934C154.21 16.2599 153.412 16.5594 152.779 17.0586C152.047 17.5577 151.715 18.2232 151.715 19.0218Z" fill="white"/>
</svg>
