<svg width="90" height="115" viewBox="0 0 90 115" fill="none" xmlns="http://www.w3.org/2000/svg">
<path d="M25.0725 90.7266C30.4318 95.7178 37.2983 98.7354 44.3996 99.224L44.5773 99.2304C51.6786 99.3414 57.8121 97.6692 62.8128 94.2582L62.8192 94.2518C64.0471 93.4522 65.2243 92.5543 66.3222 91.5738L66.8172 91.1423L66.8394 91.1074L66.8775 91.0725C69.2985 88.8196 71.3229 86.1637 72.8904 83.1811L72.938 83.0859C75.0798 78.6499 76.0857 74.011 75.927 69.299V69.2799L75.9334 69.1784C75.9397 69.0832 75.9461 68.9944 75.9461 68.9087C75.9461 62.3627 70.6217 57.0383 64.0757 57.0383C57.5297 57.0383 52.2085 62.3627 52.2085 68.9087C52.2085 70.0605 52.3798 71.2123 52.713 72.3292L52.7955 72.6053L52.5639 72.7766C51.2915 73.7063 48.9434 74.4964 44.9739 72.9575C38.9832 70.638 33.5065 70.1335 28.693 71.463C27.8489 71.6978 27.1445 72.2848 26.7638 73.0749C26.383 73.8713 26.364 74.7947 26.713 75.607L26.7415 75.6705C27.3413 77.0539 28.8865 77.7932 30.3334 77.3934C33.7984 76.4352 37.971 76.8857 42.7401 78.7324C49.1211 81.2043 53.446 79.6685 55.9527 77.9487L56.2097 77.771L56.4477 77.9709C57.9295 79.2179 58.8148 79.6463 61.4706 79.8811C62.8287 80.0017 64.0313 79.6177 64.8626 78.7991C65.4972 78.174 65.824 77.3649 65.7638 76.5843C65.6527 75.1057 64.3517 74.5853 64.082 74.5853C62.505 74.5853 60.9851 73.9189 59.9126 72.7576C58.8243 71.5804 58.2976 70.0478 58.4245 68.4454C58.6498 65.6341 60.9407 63.3971 63.7584 63.2416C65.1926 63.1623 66.5887 63.6224 67.693 64.5362C68.7782 65.4374 69.4889 66.7002 69.692 68.09V68.1503C69.6952 68.1947 69.692 68.236 69.692 68.2804C69.692 68.328 69.6888 68.3661 69.692 68.3978C69.7079 68.5882 69.7174 68.7786 69.7237 68.9626C69.7237 69.0388 69.7301 69.1149 69.7332 69.1911H69.7396L69.7523 69.5877C69.8602 73.2399 69.0669 76.8572 67.3915 80.3412L67.3852 80.3539C66.0811 82.8225 64.393 84.9961 62.3622 86.8174L62.0386 87.103C61.2136 87.8232 60.3347 88.4896 59.4272 89.0798L59.3542 89.1274C55.4513 91.7991 50.5426 93.1159 44.774 93.0397H44.7486C39.1133 92.6272 33.6398 90.2126 29.3435 86.2335L29.3308 86.2209C26.2973 83.1779 24.0667 79.8303 22.6991 76.267C21.5568 73.2843 21.0047 70.124 21.0618 66.8748C21.1633 61.141 23.0862 56.556 24.2221 54.3349C25.6088 51.7171 33.3066 38.7615 49.9746 38.3839V38.3649H50.384C59.9729 38.3649 67.7755 29.9785 67.7755 19.6724C67.7755 9.36636 59.9729 0.97998 50.384 0.97998C40.795 0.97998 32.9956 9.36636 32.9956 19.6724C32.9956 22.2363 33.4811 24.7398 34.4394 27.1101C35.0867 28.7156 35.7435 29.731 37.1714 30.1848C37.5775 30.3148 38.8214 30.5338 39.6622 30.0102C40.1255 29.7247 40.3984 29.2646 40.5031 28.6046C40.649 27.678 40.4364 27.091 40.1191 26.2026C39.6717 24.9587 39.0625 23.2548 39.1894 19.6566C39.3068 16.309 40.4967 13.1835 42.5402 10.8577C44.628 8.48108 47.414 7.1706 50.384 7.1706C56.5587 7.1706 61.5817 12.7774 61.5817 19.6693C61.5817 26.5611 56.5587 32.1711 50.384 32.1711C50.3681 32.1711 50.3554 32.1743 50.3395 32.1774C50.3046 32.1838 50.2697 32.1869 50.2317 32.1901H50.2126C29.8384 32.4249 20.4113 48.2965 18.7296 51.4759C13.3417 61.9978 12.1582 77.8186 24.9964 90.6473L25.082 90.7266H25.0725Z" fill="#A27070"/>
<path d="M87.5626 60.5032C84.2499 49.3911 77.5548 41.2808 67.6612 36.4007C66.5253 35.839 65.1862 36.0262 64.2534 36.8766L64.1899 36.9369C63.4284 37.6255 63.073 38.6028 63.2126 39.6213C63.3522 40.6462 63.9678 41.4966 64.8943 41.9567C68.5719 43.7844 71.7767 46.1959 74.4262 49.1341C77.6944 52.7546 80.1218 57.1905 81.6449 62.3213L81.6798 62.4324C81.9463 63.2352 88.0037 82.3718 70.5741 98.4973L70.5646 98.5068C66.0969 102.378 61.166 105.088 55.9146 106.56C51.6849 107.747 47.2331 108.137 42.6798 107.721C34.8772 107.011 29.391 104.18 28.7913 103.86L28.6834 103.803C10.3146 94.8229 6.78303 77.5012 6.64025 76.7682C6.35785 75.2864 5.0569 74.2488 3.59729 74.2488C3.40691 74.2488 3.21653 74.2647 3.02615 74.3028C2.21384 74.4551 1.50943 74.9152 1.04299 75.5974C0.576549 76.2796 0.402032 77.1046 0.557511 77.9169C0.716164 78.7704 4.72373 98.9511 25.9134 109.34L25.9261 109.346C28.5978 110.771 35.9021 114.09 45.9798 114.09C56.0574 114.09 66.4301 110.307 74.6705 103.149L74.7466 103.082C83.1711 95.3052 87.9434 86.0082 88.927 75.4546C89.6886 67.2745 87.7942 61.1917 87.5753 60.5222V60.5127L87.5626 60.5032Z" fill="#A27070"/>
</svg>
