<svg width="212" height="212" viewBox="0 0 212 212" fill="none" xmlns="http://www.w3.org/2000/svg">
<path d="M129.85 101.548C129.824 109.048 127.333 115.54 122.059 120.893C117.607 125.398 112.228 128.154 105.921 129.161C97.8645 130.433 90.63 128.472 84.058 123.808C79.871 120.84 76.797 116.892 74.518 112.36C72.239 107.829 71.179 102.953 71.391 97.891C71.709 90.2325 74.306 83.422 79.3675 77.592C82.309 74.2265 85.6745 71.391 89.623 69.2445C92.9355 67.469 96.46 66.2765 100.197 65.773C102.158 65.508 104.145 65.4815 106.106 65.296C109.18 65.031 111.645 63.6 113.42 61.1355C116.362 57.081 116.812 52.629 114.745 48.0975C112.89 44.0695 109.71 41.7375 105.152 41.711C103.35 41.711 101.707 42.294 100.17 43.354C96.4335 45.898 95.0025 49.5285 94.817 53.848C94.7375 55.9945 95.082 58.0615 95.824 60.102C96.4335 61.7185 96.1155 63.017 95.1085 63.547C93.916 64.183 92.008 63.812 91.16 62.5665C90.471 61.5595 89.9145 60.42 89.57 59.254C87.9005 53.636 88.4835 48.23 91.69 43.2745C94.5255 38.8755 98.58 36.146 103.827 35.669C109.975 35.1125 114.878 37.577 118.535 42.4795C121.052 45.845 122.218 49.714 122.086 53.8745C121.927 59.572 119.754 64.395 115.249 68.0255C112.731 70.0395 109.869 71.2055 106.636 71.4175C103.562 71.603 100.488 71.7355 97.4935 72.663C92.803 74.1205 88.828 76.638 85.383 80.136C81.5405 84.058 78.9965 88.6425 77.9895 94.075C76.5055 101.999 78.44 109.021 83.6605 115.143C87.715 119.913 92.9355 122.748 99.1365 123.358C105.126 123.941 110.717 122.43 115.54 118.588C119.754 115.222 122.457 110.903 123.437 105.576C123.808 103.562 123.914 101.548 123.649 99.534C123.384 97.5995 121.476 95.6915 119.489 95.3735C117.13 94.976 115.037 95.983 113.844 98.05C112.758 99.9315 112.996 102.317 114.48 104.066C115.461 105.258 116.812 105.815 118.323 105.921C119.648 106 120.443 107.537 120.151 108.624C119.648 110.479 117.925 111.3 116.123 111.194C114.348 111.088 112.652 110.717 111.247 109.525C111.115 109.419 110.744 109.392 110.585 109.472C106.504 111.989 102.317 111.698 98.05 110.081C95.559 109.154 93.015 108.412 90.365 108.359C89.04 108.332 87.715 108.544 86.4165 108.809C84.588 109.154 83.0245 108.359 82.574 106.689C82.1235 105.02 83.0245 103.43 84.8265 102.926C88.616 101.866 92.4055 102.105 96.1685 103.085C97.5995 103.456 99.004 103.96 100.409 104.437C101.999 104.967 103.615 105.47 105.338 105.099C105.603 105.046 105.868 104.993 106.133 104.914C107.511 104.463 107.59 104.304 107.272 102.9C105.868 96.7515 110.426 90.2325 116.653 89.358C120.204 88.8545 123.384 89.729 126.061 92.0345C128.393 94.0485 129.744 96.725 129.903 99.8785C129.877 100.303 129.824 100.939 129.85 101.548Z" fill="#A06560"/>
<path d="M102.078 143.736C94.7906 143.683 88.3776 142.173 82.3091 139.099C75.4721 135.627 69.7481 130.884 65.3226 124.63C62.0366 119.992 59.6251 114.984 58.3266 109.419C58.0351 108.12 58.3001 106.954 59.4131 106.106C60.4466 105.338 61.5596 105.258 62.6991 105.815C63.7326 106.318 64.1566 107.299 64.3951 108.359C65.1901 111.91 66.6476 115.222 68.5291 118.296C73.9616 127.253 81.726 133.216 91.796 136.131C94.4725 136.926 97.2285 137.323 100.038 137.456C110.108 137.959 118.747 134.567 126.008 127.704C131.679 122.324 135.309 115.752 136.475 107.961C137.774 99.163 135.839 91.1335 130.619 83.899C127.757 79.9505 124.073 77.009 119.727 74.8095C118.296 74.094 117.687 72.504 118.217 71.0465C118.853 69.324 120.734 68.5025 122.377 69.2975C128.128 72.0535 132.818 76.055 136.369 81.3285C139.496 85.9925 141.537 91.107 142.464 96.6455C143.127 100.541 143.153 104.463 142.597 108.385C142.04 112.493 140.874 116.388 139.072 120.098C137.191 123.994 134.726 127.465 131.758 130.592C125.292 137.429 117.369 141.484 108.147 143.127C107.06 143.312 105.947 143.392 104.834 143.498C103.801 143.657 102.688 143.683 102.078 143.736Z" fill="#A06560"/>
<path d="M46.746 176.066V159.662H40.7305V158.496H54.007V159.662H47.9385V176.066H46.746Z" fill="#A06560"/>
<path d="M57.505 174.661C56.4715 173.416 55.968 171.773 55.968 169.732C55.968 167.692 56.4715 166.049 57.505 164.803C58.5385 163.584 59.89 162.975 61.586 162.975C63.282 162.975 64.66 163.531 65.667 164.671C66.7005 165.784 67.204 167.294 67.204 169.176V169.732H57.134C57.134 171.455 57.5315 172.833 58.353 173.84C59.1745 174.873 60.2345 175.377 61.586 175.377C62.593 175.377 63.494 175.112 64.3155 174.582C65.137 174.025 65.72 173.31 66.038 172.409H67.2305C67.045 173.575 66.409 174.529 65.3225 175.324C64.2625 176.092 63.017 176.49 61.586 176.49C59.89 176.516 58.512 175.907 57.505 174.661ZM66.038 168.619V168.169C65.932 167.003 65.455 166.022 64.607 165.201C63.7325 164.406 62.7255 164.008 61.586 164.008C60.4465 164.008 59.4395 164.406 58.5915 165.227C57.717 166.049 57.24 167.082 57.134 168.275V168.593H66.038V168.619Z" fill="#A06560"/>
<path d="M71.0201 175.483C70.1191 174.767 69.6951 173.919 69.6951 172.939C69.6951 171.985 70.1191 171.163 70.9936 170.448C71.8416 169.732 72.9016 169.335 74.2001 169.202C75.4456 169.096 76.4526 168.884 77.2476 168.619C78.0691 168.354 78.4666 168.01 78.4666 167.639V166.526C78.4666 165.863 78.1221 165.333 77.4066 164.856C76.7176 164.406 75.8696 164.167 74.8626 164.167C73.9086 164.167 73.0871 164.379 72.3981 164.83C71.7356 165.28 71.3911 165.81 71.3911 166.42V167.082H70.2781V166.314C70.2781 165.466 70.7286 164.75 71.6031 164.141C72.5041 163.558 73.5906 163.24 74.8626 163.24C76.1611 163.24 77.2741 163.531 78.2016 164.088C79.1291 164.671 79.6061 165.36 79.6061 166.155V173.787C79.6061 174.29 79.7121 174.714 79.9241 175.059C80.1361 175.403 80.4011 175.589 80.7191 175.589C80.8251 175.589 80.9046 175.589 80.9841 175.562C81.0636 175.536 81.1166 175.509 81.1696 175.483V176.039C80.8781 176.172 80.5071 176.251 80.0566 176.251C79.6061 176.251 79.2086 176.066 78.8641 175.668C78.5461 175.271 78.3871 174.794 78.3871 174.237C78.1486 174.9 77.6451 175.456 76.8766 175.854C76.1081 176.278 75.2071 176.463 74.2001 176.463C72.9281 176.516 71.8681 176.172 71.0201 175.483ZM76.9561 174.582C77.7776 173.919 78.2546 173.045 78.4401 172.011V169.096C78.1751 169.335 77.6716 169.52 76.9296 169.679C76.2406 169.838 75.3131 169.971 74.1736 170.077C73.2461 170.156 72.4776 170.474 71.8416 171.031C71.2056 171.561 70.8876 172.197 70.8876 172.939C70.8876 173.681 71.2056 174.317 71.8681 174.847C72.5041 175.377 73.2726 175.642 74.1736 175.642C75.2336 175.615 76.1611 175.271 76.9561 174.582Z" fill="#A06560"/>
<path d="M84.1375 176.066V163.452H85.33V165.572C85.6745 164.83 86.178 164.221 86.8405 163.797C87.503 163.346 88.192 163.108 88.934 163.108C89.835 163.108 90.6034 163.346 91.2659 163.823C91.9549 164.327 92.4055 164.936 92.591 165.678C92.962 164.883 93.5184 164.274 94.2869 163.823C95.0554 163.346 95.9034 163.108 96.8044 163.108C97.9174 163.108 98.8979 163.505 99.7194 164.274C100.514 165.042 100.912 165.97 100.912 167.056V176.066H99.7194V167.056C99.7194 166.235 99.428 165.519 98.8715 164.936C98.315 164.353 97.626 164.035 96.831 164.035C95.9035 164.035 95.082 164.353 94.34 165.016C93.598 165.678 93.1475 166.5 92.9885 167.507V176.066H91.796V167.056C91.796 166.235 91.5309 165.519 91.0009 164.936C90.4709 164.353 89.835 164.035 89.0665 164.035C88.1655 164.035 87.3705 164.38 86.655 165.069C85.966 165.784 85.5155 166.659 85.33 167.745V176.066H84.1375Z" fill="#A06560"/>
<path d="M104.887 176.066V158.046H107.696L113.314 172.25L118.932 158.046H121.741V176.066H119.515V162.551L114.082 176.066H112.519L107.139 162.551V176.066H104.887Z" fill="#A06560"/>
<path d="M124.682 172.462C124.682 171.322 125.212 170.368 126.246 169.626C127.2 168.964 128.366 168.566 129.744 168.434C130.724 168.354 131.44 168.195 131.943 167.983C132.632 167.718 132.977 167.241 132.977 166.632C132.977 165.943 132.712 165.36 132.182 164.883C131.652 164.406 131.016 164.167 130.274 164.167C129.505 164.167 128.843 164.406 128.26 164.856C127.677 165.333 127.359 165.916 127.359 166.632V167.082H125.318V166.181C125.318 165.042 125.822 164.088 126.855 163.372C127.809 162.71 128.922 162.365 130.247 162.365C131.519 162.365 132.606 162.71 133.533 163.399C134.487 164.141 134.991 165.068 134.991 166.181V172.939C134.991 173.31 135.123 173.628 135.415 173.893C135.68 174.158 135.998 174.29 136.369 174.29V176.092H135.574C135.044 176.092 134.567 175.96 134.143 175.668C133.719 175.377 133.401 174.979 133.242 174.502C132.818 175.112 132.235 175.562 131.493 175.854C130.804 176.119 130.035 176.278 129.214 176.278C127.862 176.278 126.776 175.933 125.954 175.244C125.08 174.555 124.682 173.628 124.682 172.462ZM126.696 172.462C126.696 173.045 126.961 173.522 127.465 173.893C127.942 174.237 128.525 174.396 129.187 174.396C130.221 174.396 131.095 174.078 131.837 173.469C132.606 172.859 133.003 172.064 133.003 171.137L132.977 169.335C132.42 169.785 131.413 170.077 129.956 170.183L129.399 170.209C128.684 170.262 128.048 170.501 127.544 170.898C126.961 171.296 126.696 171.826 126.696 172.462Z" fill="#A06560"/>
<path d="M138.966 176.066V163.002H140.98V163.691C141.351 163.32 141.802 163.028 142.305 162.843C142.809 162.657 143.339 162.578 143.895 162.578C144.637 162.578 145.3 162.737 145.936 163.055C146.598 163.373 147.102 163.823 147.499 164.38C147.976 163.797 148.533 163.373 149.222 163.055C149.884 162.737 150.6 162.578 151.315 162.578C152.614 162.578 153.727 163.002 154.628 163.876C155.582 164.751 156.032 165.811 156.032 167.083V176.093H154.018V167.083C154.018 166.341 153.753 165.705 153.223 165.175C152.72 164.645 152.084 164.38 151.315 164.38C150.573 164.38 149.937 164.645 149.407 165.175C148.877 165.678 148.612 166.314 148.612 167.083V176.093H146.598V167.083C146.598 166.341 146.333 165.705 145.803 165.175C145.273 164.645 144.637 164.38 143.869 164.38C143.074 164.38 142.385 164.645 141.828 165.148C141.245 165.652 140.927 166.314 140.927 167.083V176.093H138.966V176.066Z" fill="#A06560"/>
<path d="M158.761 172.462C158.761 171.322 159.291 170.368 160.325 169.626C161.279 168.964 162.445 168.566 163.823 168.434C164.803 168.354 165.519 168.195 166.022 167.983C166.711 167.718 167.056 167.241 167.056 166.632C167.056 165.943 166.791 165.36 166.261 164.883C165.731 164.406 165.095 164.167 164.353 164.167C163.584 164.167 162.922 164.406 162.339 164.856C161.756 165.333 161.438 165.916 161.438 166.632V167.082H159.397V166.181C159.397 165.042 159.901 164.088 160.934 163.372C161.888 162.71 163.001 162.365 164.326 162.365C165.598 162.365 166.685 162.71 167.612 163.399C168.566 164.141 169.07 165.068 169.07 166.181V172.939C169.07 173.31 169.202 173.628 169.494 173.893C169.759 174.158 170.077 174.29 170.448 174.29V176.092H169.653C169.123 176.092 168.646 175.96 168.222 175.668C167.798 175.377 167.48 174.979 167.321 174.502C166.897 175.112 166.314 175.562 165.572 175.854C164.883 176.119 164.114 176.278 163.293 176.278C161.941 176.278 160.855 175.933 160.033 175.244C159.159 174.555 158.761 173.628 158.761 172.462ZM160.775 172.462C160.775 173.045 161.04 173.522 161.544 173.893C162.021 174.237 162.604 174.396 163.266 174.396C164.3 174.396 165.174 174.078 165.916 173.469C166.685 172.859 167.082 172.064 167.082 171.137L167.056 169.335C166.499 169.785 165.492 170.077 164.035 170.183L163.478 170.209C162.763 170.262 162.127 170.501 161.623 170.898C161.04 171.296 160.775 171.826 160.775 172.462Z" fill="#A06560"/>
</svg>
