<svg width="322" height="62" viewBox="0 0 322 62" fill="none" xmlns="http://www.w3.org/2000/svg">
<path fill-rule="evenodd" clip-rule="evenodd" d="M215.566 28.5423C214.051 30.1886 212.287 31.6629 210.306 32.8553C210.062 33.0325 209.732 33.054 209.461 32.8822C206.534 31.0372 204.076 28.8216 202.144 26.4127C199.477 23.0987 197.799 19.4249 197.225 15.8853C196.639 12.2974 197.187 8.84383 198.989 6.03743C199.699 4.9283 200.607 3.91853 201.713 3.04573C204.255 1.03963 207.157 -0.0211644 210.051 0.000320001C212.837 0.0218044 215.588 1.05037 217.965 3.20149C218.799 3.95344 219.501 4.81551 220.076 5.75008C222.013 8.91365 222.431 12.9473 221.58 17.0347C220.74 21.0738 218.653 25.1773 215.566 28.5343V28.5423ZM209.499 6.38118C212.935 6.38118 215.718 9.14192 215.718 12.5445C215.718 15.9498 212.932 18.7078 209.499 18.7078C206.062 18.7078 203.279 15.9498 203.279 12.5445C203.276 9.13924 206.062 6.38118 209.499 6.38118Z" fill="#A27070"/>
<path fill-rule="evenodd" clip-rule="evenodd" d="M315.566 57.5423C314.051 59.1886 312.287 60.6629 310.306 61.8553C310.062 62.0325 309.732 62.054 309.461 61.8822C306.534 60.0372 304.076 57.8216 302.144 55.4127C299.477 52.0987 297.799 48.4249 297.225 44.8853C296.639 41.2974 297.187 37.8438 298.989 35.0374C299.699 33.9283 300.607 32.9185 301.713 32.0457C304.255 30.0396 307.157 28.9788 310.051 29.0003C312.837 29.0218 315.588 30.0504 317.965 32.2015C318.799 32.9534 319.501 33.8155 320.076 34.7501C322.013 37.9137 322.431 41.9473 321.58 46.0347C320.74 50.0738 318.653 54.1773 315.566 57.5343V57.5423ZM309.499 35.3812C312.935 35.3812 315.718 38.1419 315.718 41.5445C315.718 44.9498 312.932 47.7078 309.499 47.7078C306.062 47.7078 303.279 44.9498 303.279 41.5445C303.276 38.1392 306.062 35.3812 309.499 35.3812Z" fill="#A27070"/>
<path fill-rule="evenodd" clip-rule="evenodd" d="M126.566 52.5423C125.051 54.1886 123.287 55.6629 121.306 56.8553C121.062 57.0325 120.732 57.054 120.461 56.8822C117.534 55.0372 115.076 52.8216 113.144 50.4127C110.477 47.0987 108.799 43.4249 108.225 39.8853C107.639 36.2974 108.187 32.8438 109.989 30.0374C110.699 28.9283 111.607 27.9185 112.713 27.0457C115.255 25.0396 118.157 23.9788 121.051 24.0003C123.837 24.0218 126.588 25.0504 128.965 27.2015C129.799 27.9534 130.501 28.8155 131.076 29.7501C133.013 32.9137 133.431 36.9473 132.58 41.0347C131.74 45.0738 129.653 49.1773 126.566 52.5343V52.5423ZM120.499 30.3812C123.935 30.3812 126.718 33.1419 126.718 36.5445C126.718 39.9498 123.932 42.7078 120.499 42.7078C117.062 42.7078 114.279 39.9498 114.279 36.5445C114.276 33.1392 117.062 30.3812 120.499 30.3812Z" fill="#A27070"/>
<path fill-rule="evenodd" clip-rule="evenodd" d="M18.5663 52.5423C17.0514 54.1886 15.2871 55.6629 13.3061 56.8553C13.0622 57.0325 12.7316 57.054 12.4606 56.8822C9.53375 55.0372 7.07575 52.8216 5.1435 50.4127C2.47684 47.0987 0.799329 43.4249 0.224804 39.8853C-0.360562 36.2974 0.186863 32.8438 1.98903 30.0374C2.69906 28.9283 3.60692 27.9185 4.71261 27.0457C7.25461 25.0396 10.1571 23.9788 13.0514 24.0003C15.8373 24.0218 18.5879 25.0504 20.9646 27.2015C21.7993 27.9534 22.5012 28.8155 23.0758 29.7501C25.0134 32.9137 25.4308 36.9473 24.5798 41.0347C23.7397 45.0738 21.653 49.1773 18.5663 52.5343V52.5423ZM12.4985 30.3812C15.9348 30.3812 18.718 33.1419 18.718 36.5445C18.718 39.9498 15.9321 42.7078 12.4985 42.7078C9.0622 42.7078 6.279 39.9498 6.279 36.5445C6.27629 33.1392 9.0622 30.3812 12.4985 30.3812Z" fill="#A27070"/>
</svg>
