<svg width="56" height="109" viewBox="0 0 56 109" fill="none" xmlns="http://www.w3.org/2000/svg">
<path d="M50.7381 48.814C49.8395 46.7285 48.7392 43.8208 46.7234 42.4011C46.5293 42.0223 46.3126 41.6566 46.0612 41.3125C46.5105 40.1967 46.8304 39.1418 46.7947 37.8112C46.7272 35.3704 45.519 32.9418 44.3484 30.6727C46.2629 29.9722 47.7215 28.3003 48.3978 26.2909C49.2204 23.8435 49.5121 20.2053 47.1906 18.5625C44.6298 16.7518 41.2464 17.3792 38.9586 19.3352C36.9354 21.0661 35.9101 23.9354 34.6298 26.2149C32.9826 29.148 33.1121 33.2616 36.8369 34.5002C37.4316 34.6981 38.0113 34.7684 38.575 34.7712C38.9211 35.4895 39.2522 36.2134 39.5308 36.9495C40.1771 38.6607 38.9549 39.7072 38.5365 41.3631C38.1295 42.9788 38.3527 44.7341 39.21 46.1659C39.665 46.9255 40.224 47.4402 40.86 47.7947C40.8178 48.3301 40.7165 48.8843 40.5814 49.4422C39.8629 52.4109 38.7654 55.3683 40.4388 58.262C41.8702 60.7384 45.1391 62.7704 48.0235 62.5932C51.1039 62.4037 52.9199 59.6338 52.9846 56.7561C53.0465 54.0003 51.8065 51.2894 50.739 48.813L50.7381 48.814Z" fill="#E0CFCF"/>
<path d="M34.0637 56.9013C33.7617 56.3059 33.4324 55.7208 33.0788 55.1488C31.1587 52.046 28.4666 45.1972 24.0965 49.293C20.655 52.5205 19.4628 57.6224 19.9365 62.1692C20.3623 66.2547 21.7412 70.1882 22.2646 74.2625C22.5769 76.6948 22.5469 79.3034 21.3097 81.4207C20.3707 83.0288 18.839 84.1822 17.5108 85.4884C14.7456 88.2086 12.7448 91.8974 12.7757 95.7747C12.8105 100.166 16.5662 105.671 20.669 107.372C24.4951 108.959 32.9728 109.436 36.404 106.551C38.9385 104.421 38.3813 100.452 37.6525 97.2225C36.3674 91.5289 35.2512 85.7978 34.3066 80.0376C34.1172 78.8815 33.9343 77.7047 34.089 76.5438C34.2597 75.2667 34.8282 74.0843 35.2728 72.8756C37.2388 67.5271 36.5738 61.8494 34.0628 56.9013H34.0637Z" fill="#E0CFCF"/>
<path d="M34.1606 12.358C33.7713 9.87784 32.7104 7.79993 30.5005 8.54164C27.0327 9.70624 26.1397 19.58 26.5327 22.5206C26.785 24.4072 29.6666 28.729 31.5342 25.1864C31.9281 24.44 31.9112 23.5539 32.0763 22.7259C32.3877 21.1619 33.3473 19.8116 33.9035 18.317C34.3088 17.2283 34.5151 14.6253 34.1596 12.358H34.1606Z" fill="#E0CFCF"/>
<path d="M55.6255 54.5576C55.4042 52.8585 55.1809 51.1013 54.4343 49.4866C53.9249 48.3848 53.1905 47.4012 52.4795 46.4504C51.5668 45.2333 50.7104 44.0827 50.2817 42.7081C50.1457 42.273 50.0547 41.8285 49.9637 41.3597C49.8821 40.9462 49.7977 40.5308 49.6814 40.1266C49.0614 37.9597 47.4086 36.09 45.3432 35.1757C46.0129 34.1536 46.9837 33.3369 48.0165 32.493C48.9122 31.7616 49.8381 31.004 50.5613 30.0785C51.4636 28.9167 52.0217 27.513 52.4476 26.294C52.6746 25.6386 52.9081 24.9362 52.9804 24.1992C53.2599 21.4312 51.3314 19.0542 49.4356 17.7508C45.9041 15.3278 40.6212 15.2003 36.8721 17.4395C36.7576 17.5089 36.6516 17.5904 36.5409 17.6655C36.5297 17.5548 36.5278 17.4451 36.5119 17.3345C36.4406 16.815 36.3168 16.3039 36.2004 15.8107C36.0644 15.2331 35.9312 14.6864 35.8721 14.1248C35.8168 13.6165 35.8234 13.1121 35.8271 12.5785C35.8299 12.2344 35.8337 11.8903 35.8205 11.5462C35.7211 8.97597 34.6584 6.74804 32.6023 4.74047C33.03 4.40009 33.4099 4.0147 33.7035 3.55149C33.7879 3.41834 33.7682 3.243 33.6547 3.13422C28.5801 -1.7811 19.3933 0.492771 14.783 3.58337C9.806 6.91776 6.72185 12.9414 6.92633 18.9276C6.94603 19.5202 6.99481 20.1156 7.0464 20.711C7.17303 22.1945 7.29028 23.5944 6.97136 24.9709C6.54269 26.821 5.39645 28.3381 4.18268 29.9463C3.68929 30.5998 3.17901 31.2749 2.72783 31.9679C-0.658353 37.172 -0.914428 44.3209 2.0853 49.7585C2.36108 50.2555 2.66311 50.7421 2.9614 51.225C3.63957 52.3221 4.27929 53.3573 4.64323 54.5285C5.11692 56.0522 4.98091 58.147 3.56172 59.1466C3.46416 59.215 3.41258 59.3294 3.42196 59.4485C3.43134 59.5666 3.50638 59.6689 3.61331 59.7195C5.27263 60.4837 7.11018 60.8588 8.95054 60.8588C9.97015 60.8588 10.986 60.7172 11.9794 60.4875C13.8872 63.8547 15.4171 67.3559 16.6412 71.1901C17.5436 73.9994 18.4169 77.6273 17.1862 80.7817C16.4949 82.5436 15.2549 83.9585 13.9398 85.4551C13.0215 86.4996 12.0731 87.5808 11.3359 88.7885C9.67655 91.505 9.03778 95.0194 9.53398 98.6867C9.93357 101.643 11.001 104.671 12.9005 108.205C12.9586 108.319 13.0759 108.38 13.1922 108.38C13.2438 108.38 13.2991 108.367 13.3479 108.342C13.5102 108.258 13.5721 108.053 13.4839 107.894C11.6267 104.428 10.578 101.474 10.1887 98.5957C9.71501 95.0813 10.3219 91.7188 11.8996 89.1327C12.6078 87.9737 13.5392 86.916 14.4388 85.8939C15.7314 84.4208 17.0689 82.8952 17.8025 81.0227C19.111 77.6761 18.2077 73.9019 17.2762 70.9895C16.054 67.1769 14.5354 63.6887 12.651 60.3337C13.7784 60.0102 14.8609 59.5442 15.8477 58.9234C18.6739 57.1446 20.7187 54.1534 21.4973 50.8922C22.8883 54.069 24.6949 57.1371 26.463 60.1077C27.7725 62.3028 29.1082 64.5598 30.2695 66.8496L29.8333 67.566C28.158 70.3134 26.4208 73.1546 26.8786 76.489C27.0343 77.6442 27.4404 78.7638 27.7969 79.754C28.9037 82.8436 30.2263 85.9623 32.2937 88.1396C31.4082 88.2887 30.5368 88.5916 29.7451 89.0455C29.2133 89.354 27.5924 90.2916 27.9366 91.4468C27.992 91.6419 28.1121 91.8163 28.2837 91.9532C28.3681 92.0245 28.4619 92.0826 28.5632 92.1285C28.4948 92.2036 28.446 92.2748 28.4235 92.3554C28.3719 92.5308 28.3944 92.7024 28.4882 92.8421C28.5754 92.9725 28.7152 93.0531 28.8681 93.1047C28.7611 93.3606 28.7799 93.6504 28.9234 93.8801C29.0275 94.0461 29.1926 94.1558 29.3746 94.2018C29.384 94.3705 29.4168 94.5356 29.4722 94.6978C29.5144 94.8215 29.5828 94.9641 29.7254 95.0682C29.8417 95.1526 29.9693 95.1816 30.0894 95.1816C30.261 95.1816 30.4177 95.1235 30.5143 95.0879C30.7966 94.981 31.0855 94.9322 31.3904 94.8769C31.5752 94.8478 31.7571 94.815 31.9419 94.7728C32.2862 94.6912 32.6013 94.5196 32.9024 94.3537C32.9962 94.3049 33.0872 94.2533 33.1782 94.2074C33.8442 93.8698 34.7137 93.416 35.5551 92.8965C37.3636 91.7769 38.6683 90.5729 39.5454 89.2161C39.8436 88.7519 40.1851 88.1322 40.1391 87.428C40.1035 86.84 39.7208 86.2202 39.1326 86.0327C39.5107 82.7986 38.6195 79.4239 36.7285 76.774C36.797 76.7768 36.8505 76.7965 36.9218 76.7965C37.0193 76.7965 37.1169 76.7937 37.2135 76.7871C38.1684 76.7374 39.0745 76.4983 39.9646 76.172C41.3707 86.2118 41.638 96.425 40.7526 106.531C40.7366 106.713 40.8726 106.875 41.0546 106.891H41.0837C41.2553 106.891 41.3988 106.762 41.4148 106.589C42.3125 96.3772 42.0358 86.0599 40.5997 75.9207C41.1287 75.7004 41.6568 75.465 42.184 75.2109C42.7683 74.9315 43.4925 74.6295 44.2616 74.3117C47.5718 72.9427 51.6747 71.238 51.0124 68.5487C53.2505 67.1731 54.9211 64.9583 55.6011 62.4125C56.2962 59.8095 55.936 57.019 55.6208 54.5566L55.6255 54.5576ZM37.2144 18.0115C40.6878 15.9298 45.7821 16.0517 49.0576 18.3003C50.7976 19.4949 52.5667 21.6543 52.3172 24.1336C52.2525 24.7993 52.0349 25.4576 51.8172 26.0764C51.3886 27.3029 50.8792 28.5885 50.035 29.6706C49.3597 30.537 48.4601 31.2703 47.5934 31.9801C46.3074 33.0312 44.9764 34.1171 44.2888 35.6849C44.272 35.7252 44.2879 35.7664 44.287 35.8086C43.0582 35.7758 41.8013 35.8115 40.7573 36.5025C40.6231 36.5907 40.4965 36.6919 40.3717 36.8007C40.3108 36.7257 40.2282 36.6713 40.125 36.6713C40.1213 36.6732 40.0922 36.6713 40.0697 36.6713C37.4142 36.6713 34.9276 35.652 33.4146 33.9389C31.713 32.0195 31.3078 29.1549 32.4503 27.1267C32.5544 26.9419 32.6707 26.7628 32.7852 26.5847C32.9962 26.2584 33.2138 25.9208 33.3695 25.541C33.6031 24.9634 33.6678 24.353 33.7297 23.7641C33.756 23.5325 33.7785 23.3 33.8142 23.0712C34.1359 20.9877 35.4078 19.0954 37.2163 18.0115H37.2144ZM38.0127 45.2258H37.977C37.5099 45.2258 37.0521 45.3261 36.6235 45.4339C35.9659 45.5999 35.406 45.7856 34.9041 45.9956C34.8263 42.7409 36.4152 39.2987 38.96 37.278C39.2583 37.308 39.5613 37.3211 39.8652 37.3267C39.6241 37.6231 39.3943 37.9672 39.172 38.3798C38.037 40.4614 37.6346 42.8825 38.0127 45.2258ZM19.4036 31.5938C19.7282 30.1019 20.4232 28.6729 21.1727 27.2851C21.9644 28.0071 23.0281 28.2237 24.0852 28.2237C24.6893 28.2237 25.2868 28.1637 25.8186 28.1103C26.1469 28.0775 26.4499 28.0493 26.7379 28.0231C25.4931 30.6017 24.9594 33.5432 25.2343 36.3881C23.3235 36.8635 21.5282 37.7375 19.9983 38.9724C19.3314 36.4678 18.8737 34.0477 19.4036 31.5938ZM25.8899 36.2193C25.6367 33.3969 26.2042 30.4779 27.508 27.9565C28.0014 27.9162 28.4544 27.8824 28.9065 27.8487C29.6963 27.7896 30.4974 27.7286 31.4954 27.6349C30.7188 29.8028 31.2497 32.5033 32.9127 34.3805C33.9858 35.593 35.5044 36.4763 37.22 36.9479C36.4396 37.1251 35.7108 37.4533 35.0777 37.7553L32.652 38.9217C32.576 38.8223 32.5122 38.7155 32.4325 38.6189C31.1793 37.1064 29.595 36.1978 27.9723 36.0581C27.372 36.0112 26.7351 36.0534 25.95 36.2043C25.9303 36.2081 25.9106 36.2156 25.8909 36.2193H25.8899ZM35.3637 38.3554C36.0494 38.0263 36.8739 37.6371 37.6928 37.5143C36.2914 38.9077 35.2512 40.7268 34.6903 42.6603C34.2372 41.5754 33.7241 40.4773 33.0488 39.4684L35.3637 38.3554ZM35.1564 11.5733C35.1696 11.9062 35.1658 12.24 35.163 12.5729C35.1564 13.1036 35.1499 13.6503 35.208 14.1951C35.2728 14.8008 35.4153 15.3925 35.5523 15.9654C35.6658 16.4446 35.783 16.9387 35.8543 17.4273C35.8862 17.6626 35.9031 17.898 35.9162 18.1334C34.4576 19.3495 33.4474 21.0842 33.1566 22.9699C33.1182 23.2081 33.0947 23.45 33.0694 23.6919C33.0075 24.2611 32.9493 24.8003 32.7514 25.2888C32.6182 25.6114 32.4306 25.9086 32.2252 26.2237C32.1014 26.4131 31.9813 26.6053 31.8716 26.7994C31.8472 26.8425 31.8331 26.8913 31.8106 26.9354C30.6287 27.0507 29.7404 27.1192 28.8587 27.1839C27.9404 27.2542 27.0183 27.3217 25.7548 27.4464C23.9736 27.6283 22.4221 27.6799 21.4935 26.6991C21.577 26.5481 21.6586 26.3943 21.7421 26.2443C23.0797 23.8391 24.4595 21.3515 24.2512 18.5609C24.1893 17.7545 23.9952 16.9688 23.8066 16.2111C23.6762 15.6851 23.5402 15.1422 23.4558 14.6049C23.1575 12.7651 23.4427 10.9245 24.2156 9.68674C25.2249 8.06924 27.1534 7.30503 29.0172 6.56801C30.0734 6.1498 31.1437 5.7194 32.0526 5.13335C34.0646 7.06122 35.058 9.11194 35.1564 11.5724V11.5733ZM15.4922 58.3627C12.242 60.4077 7.93093 60.7659 4.37965 59.3266C5.6619 58.0542 5.76884 55.9153 5.2792 54.3316C4.88993 53.0788 4.19768 51.9593 3.52608 50.8772C3.2306 50.4018 2.93888 49.9245 2.66874 49.4378C-0.217493 44.2093 0.0292006 37.3342 3.28594 32.3317C3.72399 31.6566 4.2277 30.9918 4.71452 30.3476C5.9161 28.7554 7.15896 27.1088 7.62045 25.121C7.96095 23.6441 7.8315 22.126 7.70769 20.6567C7.65891 20.0725 7.61014 19.4864 7.58762 18.906C7.39252 13.144 10.3604 7.34628 15.1517 4.1366C19.6935 1.09851 28.3353 -0.788099 32.9878 3.42115C32.0817 4.64295 30.4721 5.27869 28.7743 5.95101C26.8101 6.72835 24.7775 7.53101 23.6518 9.33792C22.7945 10.7079 22.4765 12.7183 22.8011 14.7127C22.8921 15.2772 23.0281 15.8342 23.1613 16.3724C23.3526 17.1385 23.5318 17.8624 23.5899 18.6116C23.785 21.2043 22.5122 23.4978 21.1615 25.9236C20.1878 27.678 19.1813 29.4915 18.7555 31.455C18.0642 34.6478 18.9731 37.8462 19.8529 40.9396C20.5311 43.3251 21.2356 45.7912 21.1971 48.2366C21.1286 52.2499 18.8924 56.2247 15.4931 58.3636L15.4922 58.3627ZM38.4385 86.2615C38.4226 86.359 38.4516 86.4565 38.5164 86.5278C38.5783 86.6028 38.6693 86.6412 38.7659 86.6412H38.7687C39.1458 86.6412 39.4534 87.0791 39.4797 87.4692C39.506 87.8687 39.3531 88.2972 38.9891 88.8551C38.1646 90.1275 36.9274 91.2659 35.2071 92.3339C34.3892 92.8402 33.5356 93.2847 32.8827 93.6194C32.7852 93.6644 32.6876 93.7198 32.5901 93.7723C32.3237 93.9186 32.0479 94.0677 31.7946 94.1258C31.6221 94.168 31.4504 94.1971 31.2816 94.2261C30.957 94.2815 30.6221 94.3368 30.2816 94.4662C30.1456 94.5177 30.1062 94.5178 30.0997 94.4793C30.0378 94.2946 30.0218 94.0967 30.0547 93.9017C30.0772 93.7751 29.9862 93.6288 29.8792 93.5547C29.7751 93.4835 29.5969 93.461 29.4862 93.5285C29.4543 93.4769 29.4637 93.3822 29.5087 93.311C29.5312 93.2753 29.5603 93.2425 29.5997 93.2134C29.6748 93.2106 29.746 93.1844 29.8042 93.1319C29.8201 93.1187 29.8333 93.1056 29.8464 93.0897C29.9637 93.0343 30.0415 92.9143 30.0378 92.7812C30.0378 92.6386 29.9402 92.5083 29.8005 92.4698C29.687 92.4436 29.5209 92.4764 29.4365 92.5346C29.3587 92.528 29.2452 92.5149 29.1542 92.4952C29.232 92.437 29.3296 92.3714 29.3943 92.3264C29.5144 92.2458 29.6213 92.1707 29.6804 92.1182C29.7939 92.0113 29.8202 91.8388 29.7385 91.7056C29.6579 91.5697 29.4853 91.504 29.3493 91.5594C29.1288 91.6278 28.8821 91.5819 28.703 91.4365C28.6383 91.385 28.5923 91.3231 28.5735 91.2612C28.5023 91.0146 28.5998 90.4763 30.0762 89.6221C30.9429 89.1242 31.9119 88.8232 32.8865 88.7313C32.9006 88.7444 32.9127 88.7594 32.9268 88.7716C32.9887 88.8298 33.0694 88.856 33.1472 88.856C33.2382 88.856 33.3292 88.8204 33.3939 88.7454C33.5168 88.6094 33.5046 88.3984 33.3677 88.2784C33.3292 88.2437 33.2954 88.2025 33.257 88.1668C33.2448 88.1556 33.2373 88.1434 33.2232 88.1331C30.9805 86.0477 29.5857 82.7733 28.4197 79.5252C28.0755 78.5678 27.6824 77.4838 27.5333 76.3961C27.1112 73.2971 28.7086 70.68 30.3998 67.9111L30.6156 67.5566C30.7769 67.8876 30.9486 68.2168 31.1015 68.5487C31.3932 69.1826 31.6727 69.8221 31.955 70.4615C32.6107 71.9562 33.2898 73.5006 34.0946 74.9577C34.3704 75.4547 34.7081 76.0126 35.2371 76.3596C35.3938 76.4637 35.5842 76.5265 35.7718 76.5931C37.9226 79.2645 38.9197 82.8633 38.4357 86.2577L38.4385 86.2615ZM44.0093 73.6984C43.2336 74.0201 42.5001 74.3248 41.9026 74.6136C40.3474 75.3637 38.8156 76.0417 37.1853 76.1261C36.7163 76.1411 36.359 76.0811 36.0447 75.9807C36.0194 75.9732 36.0016 75.9545 35.9744 75.9535C35.8506 75.9085 35.7099 75.8795 35.6067 75.811C35.2043 75.5447 34.9285 75.0843 34.6818 74.6361C33.8864 73.208 33.2148 71.6777 32.5647 70.1962C32.2824 69.5539 32.0001 68.9106 31.7074 68.2749C31.4776 67.7751 31.2262 67.2791 30.9776 66.783C30.9758 66.7746 30.9692 66.769 30.9664 66.7605C29.7714 64.3779 28.3916 62.0393 27.0362 59.7692C25.1179 56.5511 23.1378 53.2242 21.7308 49.7857C21.8049 49.2747 21.8499 48.7608 21.8584 48.2451C21.9006 45.7021 21.1868 43.1872 20.4917 40.7568C20.3839 40.3789 20.2779 40.0029 20.1737 39.6297C20.2 39.6175 20.2319 39.6231 20.2544 39.6034C21.9269 38.2157 23.9361 37.2649 26.0719 36.856C26.796 36.7182 27.3804 36.6722 27.9123 36.7201C29.3371 36.842 30.7947 37.6887 31.9185 39.0436C32.97 40.3105 33.6519 41.8642 34.256 43.3438C34.2944 43.4395 34.377 43.4929 34.468 43.522C34.392 43.8811 34.3451 44.2412 34.3047 44.6031C34.1443 44.0565 33.8976 43.5295 33.5262 43.1057C33 42.5149 32.364 42.2167 31.7046 42.2486C31.2891 42.2796 30.8829 42.499 30.6165 42.8375C30.4936 42.9913 30.4092 43.1619 30.367 43.3373C29.8605 43.2885 29.3408 43.5192 29.0519 43.943C29.0229 43.9833 29.0003 44.0236 28.9741 44.0668C28.9384 44.1249 28.9028 44.1821 28.8671 44.2131C28.8381 44.2374 28.7865 44.2637 28.6627 44.3246C27.7959 44.7757 27.4555 45.7724 27.205 46.6707C26.9846 47.464 26.7079 48.4523 26.9489 49.4069C27.053 49.8223 27.3551 50.3024 27.8672 50.3024H27.8869C28.2209 50.292 28.4291 50.0904 28.5942 49.8851C28.6627 50.3146 28.8578 50.7271 29.1626 51.0047C29.6691 51.4651 30.4608 51.5776 31.0808 51.3151C31.396 51.8486 31.9447 52.2856 32.6201 52.5209C33.2204 52.73 33.8601 52.776 34.4773 52.776C34.588 52.776 34.6978 52.7741 34.8056 52.7722C35.0655 52.7666 35.3225 52.7366 35.5814 52.7235C37.4986 56.9805 38.8662 61.4758 39.6438 66.0901C39.2302 66.2748 38.8447 66.512 38.5032 66.8365C38.37 66.9612 38.3672 67.1722 38.4939 67.3053C38.6177 67.4366 38.8278 67.4432 38.9647 67.3166C39.9806 66.3489 41.533 66.2064 43.166 66.1389C44.4417 66.0835 45.7568 66.0301 46.964 66.4098C48.3766 66.8562 49.521 67.8642 50.3755 68.7147C50.8764 70.8535 46.9181 72.4963 44.0102 73.7003L44.0093 73.6984ZM54.9633 62.2409C54.3208 64.6451 52.7365 66.7343 50.6128 68.018C49.7292 67.1656 48.5877 66.2232 47.1647 65.775C45.8431 65.3559 44.4023 65.4215 43.1388 65.4712C42.1305 65.5153 41.1522 65.5922 40.2751 65.8547C39.9478 63.9409 39.5022 62.0524 38.9769 60.1874C39.2837 59.8067 39.7142 59.5132 40.1391 59.2319C41.1681 58.5586 42.3369 57.7963 43.6125 57.3622C44.9567 56.9083 46.2783 56.9018 47.3233 57.3443C47.4921 57.4203 47.69 57.3359 47.7585 57.169C47.8298 57.0002 47.7519 56.8052 47.5831 56.7339C46.8402 56.416 45.9819 56.3195 45.0824 56.3954C45.7568 55.589 46.7942 55.1052 47.9921 54.6363C48.1637 54.5679 48.2481 54.3766 48.1806 54.205C48.1187 54.0381 47.9245 53.9537 47.7519 54.0165C46.6123 54.461 45.0571 55.0714 44.2429 56.3682C44.2129 56.416 44.2213 56.4704 44.2175 56.5229C43.9455 56.582 43.6735 56.6392 43.3987 56.733C42.0414 57.1934 40.837 57.981 39.7761 58.6768C39.4431 58.8953 39.0979 59.1559 38.7799 59.4532C38.0961 57.1427 37.2623 54.8792 36.282 52.6775C38.4864 52.4956 40.6541 52.0305 42.7439 51.2569C43.2439 51.0703 43.7598 50.8528 44.1434 50.429C44.4455 50.0961 44.604 49.6976 44.7635 49.3047L46.1236 45.8906C46.7108 44.4156 47.3148 42.8919 47.4058 41.2575C47.5127 39.3821 46.8411 37.6971 45.6142 36.7547C45.4717 36.6394 45.2606 36.6685 45.1499 36.8148C45.0364 36.9611 45.0655 37.1683 45.2118 37.2808C46.2633 38.09 46.8355 39.5641 46.7445 41.2219C46.6601 42.7475 46.072 44.2206 45.5073 45.644L44.1434 49.0627C44.0037 49.4097 43.8705 49.7379 43.6501 49.9845C43.3677 50.2958 42.9325 50.4758 42.5104 50.6334C40.0303 51.5532 37.433 52.0502 34.7934 52.1055C34.0271 52.1318 33.4174 52.0924 32.8424 51.8927C32.213 51.6723 31.7252 51.2401 31.5442 50.7375C31.5086 50.6399 31.4307 50.564 31.3303 50.533C31.23 50.5002 31.1193 50.5218 31.0349 50.5837C30.6221 50.8875 29.9899 50.8518 29.6129 50.5124C29.3352 50.2611 29.2029 49.8101 29.2414 49.4144C29.2433 49.3769 29.2517 49.3375 29.2611 49.2981C29.2799 49.2053 29.308 49.1181 29.3483 49.0393C29.3755 48.9802 29.399 48.923 29.4299 48.8621C29.5763 48.5695 29.7414 48.2404 29.6898 47.8475C29.6701 47.6984 29.6185 47.5812 29.55 47.5053C29.459 47.3918 29.3427 47.3384 29.2611 47.3074C29.0407 47.2249 28.7996 47.208 28.5857 47.2568C28.2706 47.3262 28.0304 47.5099 27.8166 47.674L28.219 48.201C28.3944 48.0679 28.5595 47.9432 28.7283 47.9057C28.8193 47.8841 28.929 47.8906 29.0304 47.9385C29.0566 48.1232 28.9487 48.3379 28.8353 48.5648C28.8231 48.5883 28.8137 48.6173 28.8015 48.6417C28.7996 48.6445 28.7949 48.6445 28.793 48.6474C28.7818 48.6661 28.7818 48.6905 28.7715 48.7092C28.7508 48.7514 28.733 48.7955 28.7142 48.8396C28.7105 48.8415 28.7058 48.8386 28.7021 48.8396C28.4582 48.9577 28.3062 49.164 28.1693 49.3459C28.0398 49.5194 27.9488 49.6329 27.8672 49.6347C27.7697 49.6347 27.6468 49.4566 27.5915 49.2419C27.3964 48.4598 27.6365 47.6028 27.8475 46.847C28.068 46.0491 28.3381 45.2408 29.0229 44.8854C29.1101 44.8432 29.2142 44.7916 29.3052 44.71C29.4159 44.6144 29.4872 44.5009 29.5425 44.41L29.6007 44.3172C29.792 44.0349 30.2207 43.913 30.5387 44.0555C30.6456 44.1109 30.7825 44.093 30.8763 44.0171C30.9739 43.9421 31.0227 43.8211 31.003 43.6992C30.9701 43.4976 31.0743 43.3288 31.139 43.2463C31.2881 43.055 31.5254 42.9266 31.7562 42.9088C32.1745 42.8666 32.6492 43.1179 33.0253 43.5436C33.7523 44.3715 34.0318 45.6899 33.6782 46.6117C33.6744 46.622 33.6819 46.6323 33.6791 46.6435C33.0478 47.0636 32.2937 47.7266 31.8697 48.7196C31.7984 48.8883 31.8763 49.0843 32.0451 49.1556C32.0873 49.1753 32.1295 49.1828 32.1745 49.1828C32.304 49.1828 32.425 49.1068 32.4794 48.9821C32.8818 48.0388 33.6575 47.4209 34.2325 47.0674C34.9013 46.6623 35.7127 46.3472 36.7839 46.0772C37.2444 45.96 37.6412 45.8643 38.0108 45.8887C39.157 45.9047 40.2732 46.6482 41.4326 48.157C41.5433 48.3014 41.7544 48.3257 41.8969 48.2198C42.0433 48.1082 42.0723 47.8982 41.9588 47.7537C40.8876 46.3519 39.8136 45.5521 38.6965 45.3092C38.2847 43.0513 38.6571 40.7043 39.7536 38.693C40.1757 37.909 40.6109 37.3886 41.1175 37.0539C42.1108 36.4012 43.4156 36.4416 44.679 36.481L44.997 36.4903H45.0064C45.1846 36.4903 45.3347 36.3478 45.3375 36.1659C45.3441 35.9821 45.1978 35.8302 45.0158 35.8255H44.9661C44.9783 35.7983 44.9961 35.7758 45.0083 35.7505C46.9256 36.5747 48.4648 38.3038 49.0407 40.3058C49.1514 40.694 49.2293 41.0896 49.3071 41.4853C49.3981 41.9523 49.4957 42.4343 49.6411 42.9031C50.1016 44.3865 51.0368 45.6355 51.9401 46.8442C52.6314 47.7678 53.3452 48.7233 53.8264 49.7613C54.5309 51.2832 54.7485 52.9888 54.9595 54.6373C55.271 57.0387 55.6218 59.7598 54.9595 62.2362L54.9633 62.2409Z" fill="#14080E"/>
<path d="M41.9127 31.5094C42.15 31.5966 42.3901 31.6388 42.6209 31.6388C42.9126 31.6388 43.1921 31.5703 43.4323 31.4325C43.9125 31.1587 44.163 30.6711 44.4125 30.1882L44.526 29.9707C44.7145 29.6087 44.9087 29.2355 45.0484 28.8295C45.1235 28.6054 45.2173 28.2678 45.1882 27.9096C45.1619 27.6368 45.071 27.3967 44.9931 27.2204C44.9049 27.0113 44.7755 26.7431 44.5551 26.5275C44.1358 26.1168 43.4576 25.9874 42.8667 26.2068C42.3704 26.3887 41.9315 26.8022 41.6688 27.3423C41.5872 27.5083 41.6557 27.7062 41.8217 27.7868C41.9971 27.8674 42.1857 27.7999 42.2663 27.6339C42.4549 27.2457 42.7569 26.9522 43.0946 26.8294C43.4482 26.7028 43.8572 26.7722 44.0879 27.001C44.2277 27.136 44.3187 27.3273 44.3834 27.4811C44.4678 27.6808 44.5128 27.8318 44.526 27.9696C44.5419 28.1469 44.5063 28.3522 44.419 28.6157C44.2952 28.9729 44.1208 29.3068 43.935 29.6622L43.7925 29.9359C43.5974 30.3176 43.4098 30.6777 43.1012 30.8549C42.8479 31.0021 42.4905 31.0124 42.1435 30.8858C41.9521 30.8146 41.803 30.7189 41.6951 30.5998C41.575 30.462 41.3612 30.447 41.228 30.5755C41.092 30.6974 41.0788 30.9083 41.2017 31.0443C41.3799 31.244 41.6172 31.3997 41.9127 31.5084V31.5094Z" fill="#14080E"/>
<path d="M41.769 30.3235C41.8112 30.3235 41.8534 30.315 41.8956 30.2991C41.9407 30.2794 41.9932 30.2681 42.042 30.255C42.1883 30.2194 42.3665 30.1753 42.5222 30.0328C42.6686 29.8949 42.7492 29.7036 42.7755 29.442C42.8083 29.051 42.707 28.6581 42.4894 28.3356C42.3853 28.1865 42.1742 28.149 42.0288 28.2465C41.8759 28.3506 41.8337 28.5569 41.9379 28.7088C42.0673 28.9019 42.133 29.1504 42.1133 29.3839C42.1001 29.5124 42.071 29.5433 42.0682 29.5461C42.042 29.5724 41.9575 29.5921 41.8834 29.6108C41.8028 29.6305 41.7212 29.6511 41.6433 29.6821C41.4745 29.7515 41.3938 29.9465 41.4613 30.1153C41.5129 30.2447 41.6396 30.3235 41.7699 30.3235H41.769Z" fill="#14080E"/>
</svg>
