<svg width="327" height="27" viewBox="0 0 327 27" fill="none" xmlns="http://www.w3.org/2000/svg">
<path d="M27.4554 1.57796C26.76 2.99246 25.4576 5.53521 23.548 9.20619C21.6495 12.866 20.2146 15.723 19.2433 17.7774V26.1971C19.1881 26.388 19.1164 26.5227 19.0281 26.6013C18.9398 26.6911 18.7908 26.736 18.581 26.736C17.5435 26.736 15.9982 26.7472 13.9452 26.7697C11.9032 26.7921 10.3358 26.8033 9.2431 26.8033C8.84574 26.3992 8.64706 25.9277 8.64706 25.3888C8.69121 25.1419 8.71881 24.8612 8.72985 24.5469C8.74088 24.2325 8.74088 23.834 8.72985 23.3513C8.71881 22.8685 8.71329 22.5598 8.71329 22.4251V21.2127C8.71329 18.5296 8.1614 16.116 7.05763 13.9717C6.89206 13.6237 6.71546 13.2589 6.52781 12.8772C6.35121 12.4955 6.18012 12.125 6.01456 11.7658C5.84899 11.4065 5.67791 11.0417 5.5013 10.6712C5.3247 10.3008 5.14809 9.93029 4.97149 9.55982C4.80592 9.18935 4.64036 8.8245 4.47479 8.46526C4.30923 8.10602 4.13262 7.73556 3.94498 7.35386C3.76838 6.97217 3.59177 6.60732 3.41517 6.2593L0.583984 1.4264C0.583984 1.28046 0.699881 1.14575 0.931674 1.02226C1.16347 0.898768 1.39526 0.837023 1.62705 0.837023H5.79932C6.37329 0.837023 7.23423 0.842637 8.38216 0.853863C9.54112 0.865089 10.4021 0.870702 10.965 0.870702C11.1195 0.893155 11.2906 1.05594 11.4782 1.35904C11.6659 1.66215 11.859 2.07191 12.0577 2.58832C12.2674 3.10473 12.4716 3.65481 12.6703 4.23858C12.869 4.81112 13.0677 5.4454 13.2664 6.14143C13.465 6.83746 13.6361 7.44929 13.7796 7.97692C13.9341 8.50455 14.0832 9.04341 14.2266 9.5935C14.3812 10.1436 14.4805 10.5028 14.5247 10.6712L17.5545 0.803345H26.8925C27.047 0.825797 27.1629 0.893155 27.2402 1.00542C27.3174 1.10645 27.3892 1.2973 27.4554 1.57796Z" fill="white" fill-opacity="0.8"/>
<path d="M24.9553 14.0054L24.9222 13.635C25.1319 11.8051 25.3306 10.5309 25.5183 9.81241C25.9487 8.12847 26.7214 6.71958 27.8362 5.58573L28.2336 5.18158C28.7634 4.55291 29.5691 4.01405 30.6508 3.565H31.28C32.3617 3.10473 34.1387 2.67813 36.6112 2.28521C37.2293 2.28521 37.875 2.33573 38.5483 2.43676C39.2327 2.52657 39.9888 2.68374 40.8166 2.90827C41.6444 3.12157 42.4391 3.46958 43.2007 3.95231C43.9734 4.42381 44.6136 4.99074 45.1213 5.65309V6.12459C46.9315 8.42597 47.8366 11.008 47.8366 13.8707C47.8366 17.0926 47.1081 19.7196 45.6511 21.7515L44.9889 22.5935C44.4811 23.2334 43.8465 23.7835 43.0848 24.2438C42.3343 24.704 41.534 25.0577 40.6841 25.3046C39.8342 25.5404 39.0174 25.7088 38.2338 25.8098C37.4611 25.9109 36.6885 25.9614 35.9158 25.9614C34.7789 25.9614 33.6917 25.8267 32.6542 25.5572C31.6277 25.2766 30.6619 24.8444 29.7568 24.2606C28.8627 23.6768 28.0735 22.9584 27.3892 22.1052C26.7048 21.252 26.1474 20.2248 25.7169 19.0236C25.2975 17.8111 25.0436 16.4752 24.9553 15.0158V14.0054ZM34.0615 14.1401C34.0615 18.0918 34.801 20.0676 36.2801 20.0676C36.6885 20.0676 37.0417 19.989 37.3397 19.8318C37.6488 19.6747 37.8971 19.4333 38.0847 19.1077C38.2724 18.7822 38.4269 18.451 38.5483 18.1142C38.6697 17.7774 38.7525 17.3565 38.7967 16.8513C38.8519 16.3461 38.885 15.9027 38.896 15.521C38.9181 15.1393 38.9291 14.679 38.9291 14.1401V13.5339C38.9291 12.9501 38.896 12.3888 38.8298 11.85C38.7636 11.3111 38.6477 10.7723 38.4821 10.2334C38.3276 9.68331 38.0847 9.24549 37.7536 8.91992C37.4225 8.58314 37.0196 8.41474 36.545 8.41474C34.8893 8.41474 34.0615 10.0762 34.0615 13.3992V14.1401Z" fill="white" fill-opacity="0.8"/>
<path d="M50.0883 6.96656C50.0441 6.74203 50.0221 6.10214 50.0221 5.04687C50.0221 3.83443 50.1325 3.11595 50.3532 2.89143H59.36V17.0365C59.36 18.4959 59.7794 19.2256 60.6183 19.2256C60.9715 19.2256 61.264 19.0685 61.4958 18.7541C61.7276 18.4286 61.8435 18.0469 61.8435 17.609V15.1168C61.9097 10.1997 61.9428 7.71872 61.9428 7.67381C61.9428 5.72044 61.9208 4.30594 61.8766 3.43029C61.8766 3.11595 62.0311 2.89143 62.3402 2.75671H71.5457V5.38366C71.4022 9.6384 71.3139 12.3776 71.2808 13.6013V14.6453C71.2808 14.78 71.2753 14.9596 71.2642 15.1842C71.2532 15.4087 71.2477 15.5659 71.2477 15.6557C71.2477 16.0374 71.2587 16.3068 71.2808 16.464V17.7774C71.2808 19.3379 71.1263 20.4605 70.8172 21.1453V21.2127C70.464 22.0546 69.9563 22.7843 69.294 23.4018C68.6317 24.008 67.8756 24.4851 67.0257 24.8331C66.1758 25.1699 65.3038 25.4169 64.4098 25.5741C63.5157 25.72 62.572 25.793 61.5786 25.793C61.2695 25.793 61.0378 25.7593 60.8832 25.6919H60.4859C60.4859 25.8042 60.3203 25.8603 59.9892 25.8603V25.894C59.7463 25.9052 59.0399 25.8491 57.8699 25.7256H57.1083C56.4129 25.647 55.7396 25.4899 55.0884 25.2541C54.4482 25.0184 53.8246 24.6872 53.2175 24.2606C52.6104 23.8228 52.0751 23.3064 51.6115 22.7114C51.159 22.1164 50.7892 21.3923 50.5022 20.5391C50.2152 19.6859 50.0552 18.7541 50.0221 17.7438C50.0331 17.16 50.0331 16.3517 50.0221 15.3189C50.0221 14.2861 50.0276 13.3487 50.0386 12.5067C50.0497 11.6535 50.0773 10.8284 50.1214 10.0313V9.55982C50.1214 9.50369 50.1269 9.41388 50.138 9.29039C50.149 9.1669 50.1545 9.07709 50.1545 9.02096C50.1545 8.85257 50.1435 8.59998 50.1214 8.26319C50.0993 7.9264 50.0883 7.67381 50.0883 7.50542V6.93288V6.96656Z" fill="white" fill-opacity="0.8"/>
<path d="M73.0358 11.7826L74.6583 4.64272C74.6914 4.51923 74.7356 4.34523 74.7908 4.1207C74.8901 3.67165 74.9674 3.34609 75.0226 3.14402C75.0778 2.93072 75.1495 2.6669 75.2378 2.35257C75.3372 2.03823 75.4199 1.81371 75.4862 1.67899C75.5634 1.53305 75.6573 1.3815 75.7676 1.22433C75.878 1.05594 75.9994 0.943673 76.1319 0.887542C76.2643 0.83141 76.4133 0.803345 76.5789 0.803345H81.3141C83.1684 0.803345 84.0956 0.960512 84.0956 1.27485V1.40956C84.0735 1.40956 84.0625 1.43201 84.0625 1.47692C82.6276 5.63063 81.7556 8.17899 81.4466 9.122L80.5194 11.6142C80.3759 11.9061 79.25 12.052 77.1418 12.052H75.6848C75.5965 12.052 75.4586 12.0577 75.2709 12.0689C75.0943 12.0801 74.9564 12.0857 74.857 12.0857C74.57 12.0857 74.3493 12.0745 74.1948 12.052H73.5656V11.7826H73.0358Z" fill="white" fill-opacity="0.8"/>
<path d="M84.3605 3.02614H87.4401C88.3893 3.02614 89.907 3.00369 91.9931 2.95879C94.0793 2.91388 95.6411 2.89143 96.6787 2.89143C97.5727 2.89143 98.4061 2.94195 99.1787 3.04298C99.9624 3.14402 100.73 3.32925 101.48 3.59868C102.242 3.86811 102.887 4.21051 103.417 4.62588C103.958 5.04125 104.394 5.59134 104.725 6.27614C105.056 6.94972 105.222 7.72994 105.222 8.61682C105.222 9.84048 104.94 10.8845 104.377 11.7489C103.815 12.6134 102.948 13.3431 101.778 13.9381C102.242 14.1401 102.645 14.4039 102.987 14.7295C103.329 15.0551 103.588 15.3357 103.765 15.5715C103.953 15.8072 104.129 16.2058 104.295 16.7671C104.471 17.3172 104.576 17.682 104.609 17.8616C104.642 18.03 104.714 18.4566 104.825 19.1414C104.858 19.2986 104.88 19.4165 104.891 19.4951C104.935 19.9441 105.123 20.7692 105.454 21.9704C105.785 23.1604 105.95 24.0754 105.95 24.7153C105.95 25.1194 105.829 25.3215 105.586 25.3215C104.924 25.3215 103.919 25.3271 102.573 25.3383C101.237 25.3495 100.244 25.3552 99.5926 25.3552C99.3277 25.3327 98.9304 25.3215 98.4005 25.3215H97.2747C97.0539 25.2541 96.8387 24.9061 96.629 24.2774C96.4193 23.6488 96.2703 22.9415 96.182 22.1557L95.8177 19.1583C95.7515 18.9113 95.6963 18.7373 95.6521 18.6362C95.619 18.524 95.5528 18.3949 95.4535 18.2489C95.3541 18.0918 95.2161 17.9851 95.0395 17.929C94.874 17.8729 94.6587 17.8448 94.3938 17.8448H93.6322V24.5805C93.6322 24.6142 93.6322 24.6704 93.6322 24.7489C93.6322 24.8163 93.6322 24.8668 93.6322 24.9005C93.6322 24.9229 93.6322 24.9622 93.6322 25.0184C93.6322 25.0745 93.6267 25.1194 93.6157 25.1531C93.6046 25.1755 93.5936 25.2092 93.5826 25.2541C93.5715 25.299 93.555 25.3327 93.5329 25.3552C93.5219 25.3664 93.4998 25.3888 93.4667 25.4225C93.4446 25.445 93.4115 25.4618 93.3673 25.473C93.3342 25.4843 93.2901 25.4955 93.2349 25.5067C93.1907 25.5179 93.1355 25.5236 93.0693 25.5236H84.3605V3.02614ZM93.7316 11.9173C93.7536 11.9398 93.7868 11.9903 93.8309 12.0689C93.8751 12.1362 93.9192 12.1924 93.9634 12.2373C94.0075 12.2822 94.0517 12.3103 94.0958 12.3215C94.4269 12.3215 94.7581 12.2878 95.0892 12.2204C95.4203 12.1419 95.757 12.0184 96.0992 11.85C96.4524 11.6816 96.7338 11.4234 96.9436 11.0754C97.1643 10.7274 97.2747 10.312 97.2747 9.82925C97.2747 8.66172 96.1709 8.07796 93.9634 8.07796C93.7426 8.13409 93.6322 8.2239 93.6322 8.34739V8.98728C93.6322 9.31284 93.6488 9.80119 93.6819 10.4523C93.715 11.1034 93.7316 11.5918 93.7316 11.9173Z" fill="white" fill-opacity="0.8"/>
<path d="M107.44 4.44065C107.44 3.76708 107.468 3.37416 107.523 3.26189C107.623 3.10473 107.783 3.02614 108.003 3.02614H108.401C108.577 3.02614 108.699 3.03737 108.765 3.05982H109.626C110.741 3.05982 112.424 3.03176 114.676 2.97562C116.938 2.91949 118.633 2.89143 119.759 2.89143H124.163C124.45 2.92511 124.593 3.07105 124.593 3.32925V8.9536C124.582 9.02096 124.56 9.08271 124.527 9.13884C124.505 9.18374 124.483 9.21742 124.461 9.23987C124.45 9.2511 124.4 9.29039 124.312 9.35775C124.223 9.41388 124.163 9.45878 124.13 9.49246H116.447V11.5805H117.176C117.816 11.5805 118.793 11.5581 120.106 11.5132C121.42 11.4683 122.43 11.4458 123.136 11.4458C123.445 11.4458 123.655 11.5076 123.765 11.6311C123.876 11.7546 123.931 11.9286 123.931 12.1531C123.931 12.2092 123.92 12.3046 123.898 12.4394C123.876 12.5741 123.865 12.6695 123.865 12.7256V13.3655C123.865 13.4104 123.87 13.5058 123.881 13.6518C123.892 13.7865 123.898 13.9044 123.898 14.0054V14.4769C123.898 14.7239 123.909 14.9709 123.931 15.2179C123.953 15.4648 123.964 15.6781 123.964 15.8577V16.2956C123.909 16.4303 123.865 16.5201 123.832 16.565C123.798 16.6099 123.743 16.6324 123.666 16.6324V16.5987C123.258 16.5987 122.551 16.6267 121.547 16.6829C120.553 16.739 119.759 16.7671 119.163 16.7671H116.513V18.9225C116.602 18.9225 116.734 18.9281 116.911 18.9394C117.087 18.9506 117.22 18.9562 117.308 18.9562C117.805 18.9562 118.539 18.9394 119.51 18.9057C120.482 18.872 121.182 18.8552 121.613 18.8552H123.732C124.306 18.8552 124.67 18.9225 124.825 19.0572C124.88 19.1246 124.924 19.1919 124.957 19.2593V24.6479C124.957 24.8837 124.913 25.0633 124.825 25.1868C124.737 25.3103 124.571 25.3776 124.328 25.3888H107.937L107.44 24.951V4.44065Z" fill="white" fill-opacity="0.8"/>
<path d="M158.998 3.02614C159.13 3.07105 159.23 3.26751 159.296 3.61552C159.373 3.95231 159.417 4.37891 159.428 4.89531C159.439 5.41172 159.439 5.90568 159.428 6.37718C159.417 6.84868 159.401 7.33141 159.379 7.82537C159.368 8.31932 159.362 8.62804 159.362 8.75153C159.34 9.20058 159.329 9.82925 159.329 10.6375V12.4225C159.329 13.2084 159.34 14.2861 159.362 15.6557C159.384 17.0253 159.395 18.0356 159.395 18.6868V24.8163C159.351 25.198 159.042 25.3888 158.468 25.3888H149.196C148.998 25.3439 148.744 24.8724 148.435 23.9743C148.225 23.3793 147.872 22.4027 147.375 21.0443C146.889 19.6859 146.47 18.4959 146.117 17.4743C145.764 16.4415 145.443 15.4424 145.156 14.4769C145.123 15.2179 145.09 16.3236 145.057 17.7943C145.024 19.2537 144.991 20.3482 144.958 21.078V24.5132C144.958 24.85 144.919 25.0857 144.842 25.2204C144.765 25.3439 144.56 25.445 144.229 25.5236H137.408L136.679 24.7826C136.735 22.9191 136.779 20.0002 136.812 16.0261C136.845 12.052 136.889 9.11077 136.944 7.20231V3.565C137.055 3.16086 137.187 2.95879 137.342 2.95879V3.02614C138.092 3.02614 139.268 3.00369 140.868 2.95879C142.48 2.91388 143.688 2.89143 144.494 2.89143H147.276C147.287 2.89143 147.303 2.89704 147.325 2.90827C147.524 2.98685 147.634 3.07666 147.657 3.1777L147.673 3.29557C148.07 4.38452 148.473 5.51276 148.882 6.68029C149.29 7.84782 149.776 9.26233 150.339 10.9238C150.902 12.5741 151.293 13.7135 151.514 14.3422V11.85C151.735 7.89834 151.845 5.09177 151.845 3.43029C151.845 3.25067 151.967 3.13841 152.21 3.0935C152.452 3.0486 152.828 3.02614 153.335 3.02614H158.998Z" fill="white" fill-opacity="0.8"/>
<path d="M161.514 14.0054L161.481 13.635C161.691 11.8051 161.89 10.5309 162.077 9.81241C162.508 8.12847 163.28 6.71958 164.395 5.58573L164.793 5.18158C165.322 4.55291 166.128 4.01405 167.21 3.565H167.839C168.921 3.10473 170.698 2.67813 173.17 2.28521C173.788 2.28521 174.434 2.33573 175.107 2.43676C175.792 2.52657 176.548 2.68374 177.376 2.90827C178.203 3.12157 178.998 3.46958 179.76 3.95231C180.532 4.42381 181.173 4.99074 181.68 5.65309V6.12459C183.491 8.42597 184.396 11.008 184.396 13.8707C184.396 17.0926 183.667 19.7196 182.21 21.7515L181.548 22.5935C181.04 23.2334 180.406 23.7835 179.644 24.2438C178.893 24.704 178.093 25.0577 177.243 25.3046C176.393 25.5404 175.576 25.7088 174.793 25.8098C174.02 25.9109 173.248 25.9614 172.475 25.9614C171.338 25.9614 170.251 25.8267 169.213 25.5572C168.187 25.2766 167.221 24.8444 166.316 24.2606C165.422 23.6768 164.633 22.9584 163.948 22.1052C163.264 21.252 162.706 20.2248 162.276 19.0236C161.857 17.8111 161.603 16.4752 161.514 15.0158V14.0054ZM170.621 14.1401C170.621 18.0918 171.36 20.0676 172.839 20.0676C173.248 20.0676 173.601 19.989 173.899 19.8318C174.208 19.6747 174.456 19.4333 174.644 19.1077C174.831 18.7822 174.986 18.451 175.107 18.1142C175.229 17.7774 175.312 17.3565 175.356 16.8513C175.411 16.3461 175.444 15.9027 175.455 15.521C175.477 15.1393 175.488 14.679 175.488 14.1401V13.5339C175.488 12.9501 175.455 12.3888 175.389 11.85C175.323 11.3111 175.207 10.7723 175.041 10.2334C174.887 9.68331 174.644 9.24549 174.313 8.91992C173.982 8.58314 173.579 8.41474 173.104 8.41474C171.448 8.41474 170.621 10.0762 170.621 13.3992V14.1401Z" fill="white" fill-opacity="0.8"/>
<path d="M185.058 9.15568V3.0935H204.33C204.506 3.12718 204.617 3.20015 204.661 3.31241C204.705 3.41345 204.727 3.565 204.727 3.76708V9.15568C204.705 9.42511 204.551 9.55982 204.264 9.55982H199.562V25.052C199.562 25.0633 199.556 25.0913 199.545 25.1362C199.534 25.1812 199.528 25.2092 199.528 25.2204C199.528 25.2317 199.523 25.2541 199.512 25.2878C199.501 25.3215 199.49 25.3439 199.479 25.3552C199.468 25.3664 199.457 25.3888 199.446 25.4225C199.435 25.445 199.418 25.4618 199.396 25.473C199.385 25.473 199.363 25.4843 199.33 25.5067C199.308 25.5179 199.28 25.5292 199.247 25.5404C199.225 25.5516 199.192 25.5628 199.148 25.5741C199.115 25.5741 199.076 25.5797 199.032 25.5909H197.972C196.559 25.5909 195.853 25.546 195.853 25.4562C195.765 25.4562 195.632 25.4618 195.455 25.473C195.279 25.4843 195.146 25.4899 195.058 25.4899H193.734C193.48 25.4899 193.115 25.4955 192.641 25.5067C192.177 25.5179 191.813 25.5236 191.548 25.5236H190.621L189.959 25.052V21.4147C189.97 20.7636 190.014 19.3716 190.091 17.2386C190.179 15.1056 190.224 13.4217 190.224 12.1868V11.7489C190.224 11.6591 190.229 11.5188 190.24 11.328C190.251 11.1371 190.257 10.9968 190.257 10.907C190.257 10.8059 190.251 10.6039 190.24 10.3008C190.229 9.98642 190.224 9.78435 190.224 9.69454H186.084C185.842 9.69454 185.61 9.65524 185.389 9.57666C185.168 9.48685 185.058 9.34652 185.058 9.15568Z" fill="white" fill-opacity="0.8"/>
<path d="M223.933 22.021C223.856 22.2792 223.778 22.6216 223.701 23.0482C223.635 23.4635 223.569 23.7947 223.502 24.0417C223.447 24.2774 223.348 24.53 223.204 24.7995C223.061 25.0577 222.84 25.2485 222.542 25.372C222.255 25.4955 221.88 25.5572 221.416 25.5572H214.264V24.9847C214.849 23.1997 215.699 20.4605 216.814 16.7671C217.939 13.0736 218.811 10.2783 219.429 8.38106V8.41474C219.805 7.3258 220.357 5.61941 221.085 3.29557C221.096 3.27312 221.113 3.24505 221.135 3.21138C221.234 3.04298 221.328 2.91388 221.416 2.82407L230.357 2.89143C231.88 2.89143 232.719 3.02614 232.873 3.29557V3.7334C232.896 3.83443 233.017 4.09264 233.238 4.50801C234.308 7.8422 235.092 10.2671 235.589 11.7826V11.9847C235.633 12.3103 235.732 12.6807 235.887 13.0961C236.041 13.5115 236.223 13.9605 236.433 14.4432C236.654 14.9147 236.808 15.2852 236.897 15.5546L237.559 17.9795C237.945 19.2818 238.514 21.0218 239.264 23.1997V23.166V23.5028C239.297 23.66 239.38 23.8733 239.513 24.1427C239.645 24.4122 239.728 24.603 239.761 24.7153C239.761 25.0296 239.695 25.2317 239.562 25.3215C239.441 25.4113 239.198 25.4562 238.834 25.4562H231.152C230.964 25.4337 230.843 25.4169 230.787 25.4057C230.732 25.3944 230.644 25.372 230.522 25.3383C230.412 25.3046 230.329 25.2597 230.274 25.2036C230.23 25.1475 230.202 25.0745 230.191 24.9847L229.562 22.4251C229.518 22.2118 229.474 22.0939 229.43 22.0715C229.386 22.0378 229.253 22.021 229.032 22.021H223.933ZM228.37 14.0054C228.304 13.6911 228.204 13.1859 228.072 12.4899C227.951 11.7826 227.829 11.1708 227.708 10.6544C227.586 10.1267 227.454 9.63841 227.31 9.18935V8.38106C227.222 8.14531 227.068 7.97692 226.847 7.87588V7.90956C226.582 7.96569 226.317 8.71785 226.052 10.166V10.9743C226.03 11.0529 225.98 11.1259 225.903 11.1932C225.826 11.2606 225.787 11.2999 225.787 11.3111C225.423 12.9501 225.125 14.2748 224.893 15.2852C224.893 15.3975 224.866 15.5939 224.81 15.8746C224.755 16.1552 224.728 16.318 224.728 16.3629H228.834C228.834 16.071 228.734 15.5434 228.536 14.78V14.4096C228.525 14.3759 228.491 14.3141 228.436 14.2243C228.392 14.1233 228.37 14.0503 228.37 14.0054Z" fill="white" fill-opacity="0.8"/>
<path d="M241.086 25.5236C241.052 25.4786 240.997 25.4281 240.92 25.372C240.854 25.3159 240.776 25.2092 240.688 25.052V17.7774C240.688 16.8232 240.727 15.3582 240.804 13.3824C240.881 11.4065 240.92 9.90784 240.92 8.88625C240.92 8.66172 240.898 8.18461 240.854 7.4549C240.81 6.72519 240.788 6.14704 240.788 5.72044C240.788 4.13754 240.975 3.17208 241.35 2.82407C243.646 2.86898 245.357 2.89143 246.483 2.89143H248.072C248.448 2.89143 248.735 2.90265 248.933 2.92511C248.955 2.90265 249.011 2.89143 249.099 2.89143C249.121 2.89143 249.215 2.90265 249.38 2.92511C249.557 2.94756 249.695 2.95879 249.794 2.95879C250.07 2.99246 250.302 3.22822 250.49 3.66604V3.90179C250.49 4.02528 250.484 4.2049 250.473 4.44065C250.462 4.6764 250.457 4.85602 250.457 4.97951V5.72044C250.446 5.77657 250.374 5.87761 250.241 6.02355C250.12 6.15827 250.059 6.27053 250.059 6.36034V18.6531H257.079C257.256 18.6531 257.388 18.6587 257.477 18.6699C257.565 18.6812 257.653 18.7317 257.742 18.8215C257.83 18.9113 257.874 19.046 257.874 19.2256V24.85C257.786 25.299 257.256 25.5236 256.285 25.5236H241.086Z" fill="white" fill-opacity="0.8"/>
<path d="M258.304 14.0054L258.271 13.635C258.481 11.8051 258.68 10.5309 258.867 9.81241C259.298 8.12847 260.07 6.71958 261.185 5.58573L261.583 5.18158C262.112 4.55291 262.918 4.01405 264 3.565H264.629C265.711 3.10473 267.488 2.67813 269.96 2.28521C270.578 2.28521 271.224 2.33573 271.897 2.43676C272.582 2.52657 273.338 2.68374 274.166 2.90827C274.994 3.12157 275.788 3.46958 276.55 3.95231C277.322 4.42381 277.963 4.99074 278.47 5.65309V6.12459C280.281 8.42597 281.186 11.008 281.186 13.8707C281.186 17.0926 280.457 19.7196 279 21.7515L278.338 22.5935C277.83 23.2334 277.196 23.7835 276.434 24.2438C275.683 24.704 274.883 25.0577 274.033 25.3046C273.183 25.5404 272.367 25.7088 271.583 25.8098C270.81 25.9109 270.038 25.9614 269.265 25.9614C268.128 25.9614 267.041 25.8267 266.003 25.5572C264.977 25.2766 264.011 24.8444 263.106 24.2606C262.212 23.6768 261.423 22.9584 260.738 22.1052C260.054 21.252 259.497 20.2248 259.066 19.0236C258.647 17.8111 258.393 16.4752 258.304 15.0158V14.0054ZM267.411 14.1401C267.411 18.0918 268.15 20.0676 269.629 20.0676C270.038 20.0676 270.391 19.989 270.689 19.8318C270.998 19.6747 271.246 19.4333 271.434 19.1077C271.621 18.7822 271.776 18.451 271.897 18.1142C272.019 17.7774 272.102 17.3565 272.146 16.8513C272.201 16.3461 272.234 15.9027 272.245 15.521C272.267 15.1393 272.278 14.679 272.278 14.1401V13.5339C272.278 12.9501 272.245 12.3888 272.179 11.85C272.113 11.3111 271.997 10.7723 271.831 10.2334C271.677 9.68331 271.434 9.24549 271.103 8.91992C270.772 8.58314 270.369 8.41474 269.894 8.41474C268.238 8.41474 267.411 10.0762 267.411 13.3992V14.1401Z" fill="white" fill-opacity="0.8"/>
<path d="M305.491 3.02614C305.623 3.07105 305.723 3.26751 305.789 3.61552C305.866 3.95231 305.91 4.37891 305.921 4.89531C305.932 5.41172 305.932 5.90568 305.921 6.37718C305.91 6.84868 305.894 7.33141 305.872 7.82537C305.861 8.31932 305.855 8.62804 305.855 8.75153C305.833 9.20058 305.822 9.82925 305.822 10.6375V12.4225C305.822 13.2084 305.833 14.2861 305.855 15.6557C305.877 17.0253 305.888 18.0356 305.888 18.6868V24.8163C305.844 25.198 305.535 25.3888 304.961 25.3888H295.689C295.491 25.3439 295.237 24.8724 294.928 23.9743C294.718 23.3793 294.365 22.4027 293.868 21.0443C293.382 19.6859 292.963 18.4959 292.61 17.4743C292.257 16.4415 291.936 15.4424 291.649 14.4769C291.616 15.2179 291.583 16.3236 291.55 17.7943C291.517 19.2537 291.484 20.3482 291.451 21.078V24.5132C291.451 24.85 291.412 25.0857 291.335 25.2204C291.258 25.3439 291.053 25.445 290.722 25.5236H283.901L283.173 24.7826C283.228 22.9191 283.272 20.0002 283.305 16.0261C283.338 12.052 283.382 9.11077 283.437 7.20231V3.565C283.548 3.16086 283.68 2.95879 283.835 2.95879V3.02614C284.585 3.02614 285.761 3.00369 287.361 2.95879C288.973 2.91388 290.181 2.89143 290.987 2.89143H293.769C293.78 2.89143 293.796 2.89704 293.818 2.90827C294.017 2.98685 294.127 3.07666 294.15 3.1777L294.166 3.29557C294.563 4.38452 294.966 5.51276 295.375 6.68029C295.783 7.84782 296.269 9.26233 296.832 10.9238C297.395 12.5741 297.786 13.7135 298.007 14.3422V11.85C298.228 7.89834 298.338 5.09177 298.338 3.43029C298.338 3.25067 298.46 3.13841 298.703 3.0935C298.945 3.0486 299.321 3.02614 299.828 3.02614H305.491Z" fill="white" fill-opacity="0.8"/>
<path d="M309.067 4.44065C309.067 3.76708 309.095 3.37416 309.15 3.26189C309.249 3.10473 309.409 3.02614 309.63 3.02614H310.027C310.204 3.02614 310.325 3.03737 310.392 3.05982H311.253C312.367 3.05982 314.051 3.03176 316.302 2.97562C318.565 2.91949 320.259 2.89143 321.385 2.89143H325.789C326.076 2.92511 326.22 3.07105 326.22 3.32925V8.9536C326.209 9.02096 326.187 9.08271 326.154 9.13884C326.131 9.18374 326.109 9.21742 326.087 9.23987C326.076 9.2511 326.027 9.29039 325.938 9.35775C325.85 9.41388 325.789 9.45878 325.756 9.49246H318.074V11.5805H318.802C319.443 11.5805 320.419 11.5581 321.733 11.5132C323.046 11.4683 324.056 11.4458 324.763 11.4458C325.072 11.4458 325.282 11.5076 325.392 11.6311C325.502 11.7546 325.557 11.9286 325.557 12.1531C325.557 12.2092 325.546 12.3046 325.524 12.4394C325.502 12.5741 325.491 12.6695 325.491 12.7256V13.3655C325.491 13.4104 325.497 13.5058 325.508 13.6518C325.519 13.7865 325.524 13.9044 325.524 14.0054V14.4769C325.524 14.7239 325.535 14.9709 325.557 15.2179C325.58 15.4648 325.591 15.6781 325.591 15.8577V16.2956C325.535 16.4303 325.491 16.5201 325.458 16.565C325.425 16.6099 325.37 16.6324 325.293 16.6324V16.5987C324.884 16.5987 324.178 16.6267 323.173 16.6829C322.18 16.739 321.385 16.7671 320.789 16.7671H318.14V18.9225C318.228 18.9225 318.361 18.9281 318.537 18.9394C318.714 18.9506 318.847 18.9562 318.935 18.9562C319.432 18.9562 320.166 18.9394 321.137 18.9057C322.108 18.872 322.809 18.8552 323.24 18.8552H325.359C325.933 18.8552 326.297 18.9225 326.452 19.0572C326.507 19.1246 326.551 19.1919 326.584 19.2593V24.6479C326.584 24.8837 326.54 25.0633 326.452 25.1868C326.363 25.3103 326.198 25.3776 325.955 25.3888H309.564L309.067 24.951V4.44065Z" fill="white" fill-opacity="0.8"/>
</svg>
