<svg width="351" height="77" viewBox="0 0 351 77" fill="none" xmlns="http://www.w3.org/2000/svg">
<path d="M312.441 48.866V56.5546C312.441 57.155 312.256 57.6398 311.887 58.0093C311.517 58.3787 311.079 58.5634 310.571 58.5634H300.943C300.435 58.5634 299.996 58.3556 299.626 57.94C299.257 57.5244 299.072 57.0626 299.072 56.5546V49.143C299.072 44.6175 299.534 41.0618 300.458 38.4758C301.381 35.8898 303.09 33.5809 305.583 31.5491L299.142 21.2975C299.003 21.0204 298.934 20.7203 298.934 20.397C298.934 20.0738 299.072 19.7736 299.349 19.4965C299.673 19.1733 300.042 19.0117 300.458 19.0117H312.025C313.134 19.0117 314.103 19.5889 314.935 20.7434L322.485 32.5188C322.9 31.78 323.108 30.5101 323.108 28.7091V21.0204C323.108 20.4201 323.293 19.9352 323.662 19.5658C324.032 19.1964 324.47 19.0117 324.978 19.0117H335.299C335.807 19.0117 336.246 19.2195 336.615 19.6351C336.985 20.0507 337.169 20.5125 337.169 21.0204V28.9862C337.169 36.1438 334.814 41.2927 330.104 44.4328L337.793 56.2776C337.931 56.5085 338.001 56.8086 338.001 57.1781C338.001 57.5013 337.839 57.8246 337.516 58.1478C337.239 58.4249 336.892 58.5634 336.477 58.5634H324.355C323.108 58.5634 322.162 58.0324 321.515 56.9703L312.787 43.1168C312.556 44.0403 312.441 45.9567 312.441 48.866Z" fill="white" fill-opacity="0.8"/>
<path d="M250.007 19.0117H274.112C280.9 19.0117 286.003 20.397 289.42 23.1677C292.884 25.8922 294.615 30.3484 294.615 36.5363V56.6932C294.615 57.2011 294.43 57.6398 294.061 58.0093C293.692 58.3787 293.253 58.5634 292.745 58.5634H281.039C280.531 58.5634 280.092 58.4018 279.723 58.0785C279.353 57.7091 279.169 57.2704 279.169 56.7624V36.3285C279.169 32.8652 277.46 31.1335 274.043 31.1335H269.194V56.6932C269.194 57.2011 269.009 57.6398 268.64 58.0093C268.27 58.3787 267.832 58.5634 267.324 58.5634H250.007C249.499 58.5634 249.06 58.3787 248.691 58.0093C248.321 57.6398 248.137 57.2011 248.137 56.6932V49.0045C248.137 48.4965 248.321 48.0578 248.691 47.6884C249.06 47.319 249.499 47.1343 250.007 47.1343H253.747V31.1335H250.007C249.499 31.1335 249.06 30.9488 248.691 30.5793C248.321 30.2099 248.137 29.7712 248.137 29.2633V20.8819C248.137 20.3739 248.321 19.9352 248.691 19.5658C249.06 19.1964 249.499 19.0117 250.007 19.0117Z" fill="white" fill-opacity="0.8"/>
<path d="M208.52 41.2469V31.8265H191.757C191.249 31.8265 190.81 31.6418 190.441 31.2724C190.071 30.903 189.887 30.4643 189.887 29.9563V11.3233C189.887 10.8154 190.071 10.3767 190.441 10.0073C190.81 9.63785 191.249 9.45312 191.757 9.45312H202.355C202.863 9.45312 203.302 9.63785 203.671 10.0073C204.04 10.3767 204.225 10.8154 204.225 11.3233V19.012H222.72C223.227 19.012 223.666 19.1968 224.036 19.5662C224.405 19.9356 224.59 20.3743 224.59 20.8823V41.0391C224.59 46.4881 222.789 50.8982 219.187 54.2692C215.585 57.594 210.575 59.2565 204.156 59.2565H201.87C201.362 59.2565 200.923 59.0717 200.554 58.7023C200.184 58.3329 200 57.8942 200 57.3862V48.3122C200 47.8042 200.184 47.3655 200.554 46.9961C200.923 46.6267 201.362 46.442 201.87 46.442H204.087C205.38 46.442 206.442 46.0264 207.273 45.1952C208.104 44.3639 208.52 43.0479 208.52 41.2469Z" fill="white" fill-opacity="0.8"/>
<path d="M162.419 48.866V56.5546C162.419 57.155 162.235 57.6398 161.865 58.0093C161.496 58.3787 161.057 58.5634 160.549 58.5634H150.921C150.413 58.5634 149.974 58.3556 149.605 57.94C149.235 57.5244 149.051 57.0626 149.051 56.5546V49.143C149.051 44.6175 149.512 41.0618 150.436 38.4758C151.36 35.8898 153.068 33.5809 155.562 31.5491L149.12 21.2975C148.981 21.0204 148.912 20.7203 148.912 20.397C148.912 20.0738 149.051 19.7736 149.328 19.4965C149.651 19.1733 150.02 19.0117 150.436 19.0117H162.004C163.112 19.0117 164.082 19.5889 164.913 20.7434L172.463 32.5188C172.879 31.78 173.086 30.5101 173.086 28.7091V21.0204C173.086 20.4201 173.271 19.9352 173.641 19.5658C174.01 19.1964 174.449 19.0117 174.957 19.0117H185.278C185.786 19.0117 186.224 19.2195 186.594 19.6351C186.963 20.0507 187.148 20.5125 187.148 21.0204V28.9862C187.148 36.1438 184.793 41.2927 180.082 44.4328L187.771 56.2776C187.91 56.5085 187.979 56.8086 187.979 57.1781C187.979 57.5013 187.817 57.8246 187.494 58.1478C187.217 58.4249 186.871 58.5634 186.455 58.5634H174.333C173.086 58.5634 172.14 58.0324 171.493 56.9703L162.766 43.1168C162.535 44.0403 162.419 45.9567 162.419 48.866Z" fill="white" fill-opacity="0.8"/>
<path d="M109.299 41.2469V31.8265H92.5362C92.0282 31.8265 91.5895 31.6418 91.2201 31.2724C90.8507 30.903 90.666 30.4643 90.666 29.9563V11.3233C90.666 10.8154 90.8507 10.3767 91.2201 10.0073C91.5895 9.63785 92.0282 9.45312 92.5362 9.45312H103.134C103.642 9.45312 104.081 9.63785 104.45 10.0073C104.82 10.3767 105.004 10.8154 105.004 11.3233V19.012H123.499C124.007 19.012 124.445 19.1968 124.815 19.5662C125.184 19.9356 125.369 20.3743 125.369 20.8823V41.0391C125.369 46.4881 123.568 50.8982 119.966 54.2692C116.364 57.594 111.354 59.2565 104.935 59.2565H102.649C102.141 59.2565 101.703 59.0717 101.333 58.7023C100.964 58.3329 100.779 57.8942 100.779 57.3862V48.3122C100.779 47.8042 100.964 47.3655 101.333 46.9961C101.703 46.6267 102.141 46.442 102.649 46.442H104.866C106.159 46.442 107.221 46.0264 108.052 45.1952C108.883 44.3639 109.299 43.0479 109.299 41.2469Z" fill="white" fill-opacity="0.8"/>
<path d="M53.5922 19.0117H63.4282C70.4473 19.0117 75.7347 20.3277 79.2904 22.9599C82.8462 25.5921 84.624 30.1176 84.624 36.5363V46.4416H86.9099C87.4178 46.4416 87.8565 46.6263 88.2259 46.9957C88.5954 47.3652 88.7801 47.8039 88.7801 48.3118V56.6932C88.7801 57.2011 88.5954 57.6398 88.2259 58.0093C87.8565 58.3787 87.4178 58.5634 86.9099 58.5634H52.8995C52.3916 58.5634 51.9529 58.3787 51.5834 58.0093C51.214 57.6398 51.0293 57.2011 51.0293 56.6932V48.3118C51.0293 47.8039 51.214 47.3652 51.5834 46.9957C51.9529 46.6263 52.3916 46.4416 52.8995 46.4416H68.4847V36.3285C68.4847 32.8652 66.7761 31.1335 63.3589 31.1335H53.5922C53.0842 31.1335 52.6455 30.9488 52.2761 30.5793C51.9067 30.2099 51.722 29.7712 51.722 29.2633V20.8819C51.722 20.3739 51.9067 19.9352 52.2761 19.5658C52.6455 19.1964 53.0842 19.0117 53.5922 19.0117Z" fill="white" fill-opacity="0.8"/>
<path d="M46.5947 31.1335H42.9236V56.6932C42.9236 57.2011 42.7388 57.6398 42.3694 58.0093C42 58.3787 41.5613 58.5634 41.0533 58.5634H28.793C28.285 58.5634 27.8463 58.3787 27.4769 58.0093C27.1075 57.6398 26.9228 57.2011 26.9228 56.6932V31.1335H14.8702C14.3623 31.1335 13.9236 30.9488 13.5541 30.5793C13.1847 30.2099 13 29.7712 13 29.2633V20.8819C13 20.3739 13.1847 19.9352 13.5541 19.5658C13.9236 19.1964 14.3623 19.0117 14.8702 19.0117H46.5947C47.1027 19.0117 47.5414 19.1964 47.9108 19.5658C48.2802 19.9352 48.465 20.3739 48.465 20.8819V29.2633C48.465 29.7712 48.2802 30.2099 47.9108 30.5793C47.5414 30.9488 47.1027 31.1335 46.5947 31.1335Z" fill="white" fill-opacity="0.8"/>
</svg>
