<svg width="351" height="77" viewBox="0 0 351 77" fill="none" xmlns="http://www.w3.org/2000/svg">
<g filter="url(#filter0_bd_3148_8361)">
<path d="M312.441 48.8663V56.5549C312.441 57.1553 312.256 57.6401 311.887 58.0096C311.517 58.379 311.079 58.5637 310.571 58.5637H300.943C300.435 58.5637 299.996 58.3559 299.626 57.9403C299.257 57.5247 299.072 57.0629 299.072 56.5549V49.1433C299.072 44.6178 299.534 41.0621 300.458 38.4761C301.381 35.8901 303.09 33.5812 305.583 31.5494L299.142 21.2978C299.003 21.0207 298.934 20.7206 298.934 20.3973C298.934 20.0741 299.072 19.7739 299.349 19.4968C299.673 19.1736 300.042 19.012 300.458 19.012H312.025C313.134 19.012 314.103 19.5892 314.935 20.7437L322.485 32.5191C322.9 31.7803 323.108 30.5104 323.108 28.7094V21.0207C323.108 20.4204 323.293 19.9355 323.662 19.5661C324.032 19.1967 324.47 19.012 324.978 19.012H335.299C335.807 19.012 336.246 19.2198 336.615 19.6354C336.985 20.051 337.169 20.5128 337.169 21.0207V28.9865C337.169 36.1441 334.814 41.293 330.104 44.4331L337.793 56.2779C337.931 56.5088 338.001 56.8089 338.001 57.1784C338.001 57.5016 337.839 57.8249 337.516 58.1481C337.239 58.4252 336.892 58.5637 336.477 58.5637H324.355C323.108 58.5637 322.162 58.0327 321.515 56.9706L312.787 43.1171C312.556 44.0406 312.441 45.957 312.441 48.8663Z" fill="white" fill-opacity="0.8"/>
<path d="M250.007 19.012H274.112C280.9 19.012 286.003 20.3973 289.42 23.168C292.884 25.8925 294.615 30.3487 294.615 36.5366V56.6935C294.615 57.2014 294.43 57.6401 294.061 58.0096C293.692 58.379 293.253 58.5637 292.745 58.5637H281.039C280.531 58.5637 280.092 58.4021 279.723 58.0788C279.353 57.7094 279.169 57.2707 279.169 56.7627V36.3288C279.169 32.8655 277.46 31.1338 274.043 31.1338H269.194V56.6935C269.194 57.2014 269.009 57.6401 268.64 58.0096C268.27 58.379 267.832 58.5637 267.324 58.5637H250.007C249.499 58.5637 249.06 58.379 248.691 58.0096C248.321 57.6401 248.137 57.2014 248.137 56.6935V49.0048C248.137 48.4968 248.321 48.0581 248.691 47.6887C249.06 47.3193 249.499 47.1346 250.007 47.1346H253.747V31.1338H250.007C249.499 31.1338 249.06 30.9491 248.691 30.5796C248.321 30.2102 248.137 29.7715 248.137 29.2636V20.8822C248.137 20.3742 248.321 19.9355 248.691 19.5661C249.06 19.1967 249.499 19.012 250.007 19.012Z" fill="white" fill-opacity="0.8"/>
<path d="M208.52 41.2469V31.8265H191.757C191.249 31.8265 190.81 31.6418 190.441 31.2724C190.071 30.903 189.887 30.4643 189.887 29.9563V11.3233C189.887 10.8154 190.071 10.3767 190.441 10.0073C190.81 9.63784 191.249 9.45312 191.757 9.45312H202.355C202.863 9.45312 203.302 9.63784 203.671 10.0073C204.04 10.3767 204.225 10.8154 204.225 11.3233V19.012H222.72C223.227 19.012 223.666 19.1968 224.036 19.5662C224.405 19.9356 224.59 20.3743 224.59 20.8823V41.0391C224.59 46.4881 222.789 50.8982 219.187 54.2692C215.585 57.594 210.575 59.2565 204.156 59.2565H201.87C201.362 59.2565 200.923 59.0717 200.554 58.7023C200.184 58.3329 200 57.8942 200 57.3862V48.3122C200 47.8042 200.184 47.3655 200.554 46.9961C200.923 46.6267 201.362 46.442 201.87 46.442H204.087C205.38 46.442 206.442 46.0264 207.273 45.1952C208.104 44.3639 208.52 43.0479 208.52 41.2469Z" fill="white" fill-opacity="0.8"/>
<path d="M162.419 48.8663V56.5549C162.419 57.1553 162.235 57.6401 161.865 58.0096C161.496 58.379 161.057 58.5637 160.549 58.5637H150.921C150.413 58.5637 149.974 58.3559 149.605 57.9403C149.235 57.5247 149.051 57.0629 149.051 56.5549V49.1433C149.051 44.6178 149.512 41.0621 150.436 38.4761C151.36 35.8901 153.068 33.5812 155.562 31.5494L149.12 21.2978C148.981 21.0207 148.912 20.7206 148.912 20.3973C148.912 20.0741 149.051 19.7739 149.328 19.4968C149.651 19.1736 150.02 19.012 150.436 19.012H162.004C163.112 19.012 164.082 19.5892 164.913 20.7437L172.463 32.5191C172.879 31.7803 173.086 30.5104 173.086 28.7094V21.0207C173.086 20.4204 173.271 19.9355 173.641 19.5661C174.01 19.1967 174.449 19.012 174.957 19.012H185.278C185.786 19.012 186.224 19.2198 186.594 19.6354C186.963 20.051 187.148 20.5128 187.148 21.0207V28.9865C187.148 36.1441 184.793 41.293 180.082 44.4331L187.771 56.2779C187.91 56.5088 187.979 56.8089 187.979 57.1784C187.979 57.5016 187.817 57.8249 187.494 58.1481C187.217 58.4252 186.871 58.5637 186.455 58.5637H174.333C173.086 58.5637 172.14 58.0327 171.493 56.9706L162.766 43.1171C162.535 44.0406 162.419 45.957 162.419 48.8663Z" fill="white" fill-opacity="0.8"/>
<path d="M109.299 41.2469V31.8265H92.5362C92.0282 31.8265 91.5895 31.6418 91.2201 31.2724C90.8507 30.903 90.666 30.4643 90.666 29.9563V11.3233C90.666 10.8154 90.8507 10.3767 91.2201 10.0073C91.5895 9.63784 92.0282 9.45312 92.5362 9.45312H103.134C103.642 9.45312 104.081 9.63784 104.45 10.0073C104.82 10.3767 105.004 10.8154 105.004 11.3233V19.012H123.499C124.007 19.012 124.445 19.1968 124.815 19.5662C125.184 19.9356 125.369 20.3743 125.369 20.8823V41.0391C125.369 46.4881 123.568 50.8982 119.966 54.2692C116.364 57.594 111.354 59.2565 104.935 59.2565H102.649C102.141 59.2565 101.703 59.0717 101.333 58.7023C100.964 58.3329 100.779 57.8942 100.779 57.3862V48.3122C100.779 47.8042 100.964 47.3655 101.333 46.9961C101.703 46.6267 102.141 46.442 102.649 46.442H104.866C106.159 46.442 107.221 46.0264 108.052 45.1952C108.883 44.3639 109.299 43.0479 109.299 41.2469Z" fill="white" fill-opacity="0.8"/>
<path d="M53.5922 19.012H63.4282C70.4473 19.012 75.7347 20.328 79.2904 22.9602C82.8462 25.5924 84.624 30.1179 84.624 36.5366V46.4419H86.9099C87.4178 46.4419 87.8565 46.6266 88.2259 46.996C88.5954 47.3655 88.7801 47.8042 88.7801 48.3121V56.6935C88.7801 57.2014 88.5954 57.6401 88.2259 58.0096C87.8565 58.379 87.4178 58.5637 86.9099 58.5637H52.8995C52.3916 58.5637 51.9529 58.379 51.5834 58.0096C51.214 57.6401 51.0293 57.2014 51.0293 56.6935V48.3121C51.0293 47.8042 51.214 47.3655 51.5834 46.996C51.9529 46.6266 52.3916 46.4419 52.8995 46.4419H68.4847V36.3288C68.4847 32.8655 66.7761 31.1338 63.3589 31.1338H53.5922C53.0842 31.1338 52.6455 30.9491 52.2761 30.5796C51.9067 30.2102 51.722 29.7715 51.722 29.2636V20.8822C51.722 20.3742 51.9067 19.9355 52.2761 19.5661C52.6455 19.1967 53.0842 19.012 53.5922 19.012Z" fill="white" fill-opacity="0.8"/>
<path d="M46.5947 31.1338H42.9236V56.6935C42.9236 57.2014 42.7388 57.6401 42.3694 58.0096C42 58.379 41.5613 58.5637 41.0533 58.5637H28.793C28.285 58.5637 27.8463 58.379 27.4769 58.0096C27.1075 57.6401 26.9228 57.2014 26.9228 56.6935V31.1338H14.8702C14.3623 31.1338 13.9236 30.9491 13.5541 30.5796C13.1847 30.2102 13 29.7715 13 29.2636V20.8822C13 20.3742 13.1847 19.9355 13.5541 19.5661C13.9236 19.1967 14.3623 19.012 14.8702 19.012H46.5947C47.1027 19.012 47.5414 19.1967 47.9108 19.5661C48.2802 19.9355 48.465 20.3742 48.465 20.8822V29.2636C48.465 29.7715 48.2802 30.2102 47.9108 30.5796C47.5414 30.9491 47.1027 31.1338 46.5947 31.1338Z" fill="white" fill-opacity="0.8"/>
</g>
<defs>
<filter id="filter0_bd_3148_8361" x="0" y="0.453125" width="351.001" height="75.8032" filterUnits="userSpaceOnUse" color-interpolation-filters="sRGB">
<feFlood flood-opacity="0" result="BackgroundImageFix"/>
<feGaussianBlur in="BackgroundImageFix" stdDeviation="0.85"/>
<feComposite in2="SourceAlpha" operator="in" result="effect1_backgroundBlur_3148_8361"/>
<feColorMatrix in="SourceAlpha" type="matrix" values="0 0 0 0 0 0 0 0 0 0 0 0 0 0 0 0 0 0 127 0" result="hardAlpha"/>
<feOffset dy="4"/>
<feGaussianBlur stdDeviation="6.5"/>
<feComposite in2="hardAlpha" operator="out"/>
<feColorMatrix type="matrix" values="0 0 0 0 0 0 0 0 0 0 0 0 0 0 0 0 0 0 0.5 0"/>
<feBlend mode="normal" in2="effect1_backgroundBlur_3148_8361" result="effect2_dropShadow_3148_8361"/>
<feBlend mode="normal" in="SourceGraphic" in2="effect2_dropShadow_3148_8361" result="shape"/>
</filter>
</defs>
</svg>
