<svg width="56" height="111" viewBox="0 0 56 111" fill="none" xmlns="http://www.w3.org/2000/svg">
<path d="M31.7571 28.16C31.8111 27.1046 31.9862 26.1083 32.1081 25.7104C32.8922 23.158 34.2999 20.6848 36.0953 18.7072C35.7616 19.0747 36.1867 18.5583 36.2303 18.486C36.2747 18.4129 36.4829 17.9583 36.5186 17.913C36.9324 17.3966 37.1119 16.1766 37.435 15.5418C37.7565 14.9104 38.686 12.7813 39.4543 12.6219C40.423 12.4207 41.2148 14.0796 41.3682 14.7989C41.5877 15.8335 41.4509 16.9926 40.7767 17.8068C40.3943 18.2683 39.8664 18.5931 39.4909 19.0599C38.6477 20.1092 38.7487 21.5949 38.598 22.9333C38.2156 26.3217 35.8391 27.6506 34.2284 30.2604C33.8765 30.8308 33.4444 31.5788 32.7833 31.4665C31.8503 31.308 31.6795 29.6744 31.7571 28.16Z" fill="#E0CFCF"/>
<path d="M10.6247 75.8552C9.04449 67.1678 6.85188 58.8584 6.75519 50.0326C6.73515 48.2457 6.72644 46.4013 7.41289 44.7511C8.09933 43.1009 9.67257 41.6823 11.4592 41.752C13.6876 41.8391 15.1781 44.0205 16.1947 46.0042C19.5563 52.5624 21.877 59.6509 23.06 66.9231C23.3771 68.8746 23.3927 70.9167 23.7699 72.8473C24.1811 74.9521 23.8832 74.5463 25.7134 75.681C28.7266 77.548 33.145 78.3135 36.4857 79.5344C37.8752 80.0421 39.255 80.5872 40.6566 81.0592C40.7603 81.094 41.1758 81.2107 41.4999 81.2987C41.5539 81.0313 41.6009 80.7622 41.6367 80.4923C41.8806 78.6714 39.8378 67.564 44.8633 71.7814C45.7754 72.5469 46.2597 73.6929 46.7118 74.7936C47.596 76.9454 48.488 79.1242 48.8321 81.4249C49.6492 86.8902 47.1831 92.5157 43.2212 96.3691C39.2594 100.223 33.9682 102.47 28.5768 103.688C25.6786 104.343 22.5617 104.707 19.7994 103.612C16.0161 102.111 13.6954 98.1056 13.0717 94.0841C12.5325 90.6078 13.3818 87.4711 13.6127 84.0479C13.8104 81.1271 12.9889 80.2415 11.3225 77.8789C10.9078 77.2911 10.7597 76.5614 10.6221 75.8552H10.6247Z" fill="#E0CFCF"/>
<path d="M0.405308 94.57C4.76789 88.9584 4.48739 81.1985 3.82708 73.7329L3.58926 71.0908C2.78173 62.1179 1.94285 52.841 2.46814 43.7017C2.75474 38.6701 3.41156 34.6599 4.53618 31.0826C5.92562 26.6727 8.42225 20.2069 11.2743 15.2815C15.1151 8.65715 19.083 4.57734 24.5371 1.6418C26.8796 0.380846 29.1079 -0.160806 31.2186 0.0412245C33.8886 0.297247 36.1806 1.72017 38.3706 3.55064C38.3767 3.55587 38.3854 3.55238 38.3915 3.55848C38.4167 3.58112 38.4411 3.6055 38.4664 3.62815C38.8741 3.97125 39.2783 4.32655 39.6807 4.69316C39.7217 4.69926 39.7643 4.69055 39.8001 4.71319C42.0676 6.13438 43.8525 8.5692 44.8256 11.5674C45.5852 13.9126 45.8901 16.5224 45.8143 20.031C45.7272 24.2553 45.1479 28.505 44.5904 32.6144C44.1957 35.5255 43.7855 38.5351 43.5529 41.5072C42.8716 50.2311 44.0416 57.0201 47.1314 62.2624C47.5592 62.9861 48.0357 63.7002 48.4974 64.3907C49.0401 65.2058 49.6011 66.0488 50.0924 66.9196C52.1038 70.4865 52.9836 74.6943 52.5707 78.7663L52.5498 78.9622C52.3573 80.8658 52.1369 83.022 53.569 83.9999C53.7075 84.0966 53.7441 84.2882 53.65 84.4292C53.5899 84.5163 53.4932 84.5633 53.3939 84.5633C53.3338 84.5633 53.2737 84.5451 53.2188 84.5093C52.5759 84.0705 52.2083 83.4557 52.0071 82.7573C52.1735 84.1236 52.2937 85.5517 52.3895 87.0757C52.3913 87.0957 52.3738 87.1088 52.3721 87.1279L55.1336 89.3607C55.5587 89.6934 56.0892 90.1096 55.9873 90.5755C55.9333 90.8254 55.719 90.9961 55.3513 91.0849C55.327 91.091 55.3034 91.0937 55.2791 91.0937C55.225 91.0937 55.1702 91.0788 55.1222 91.0518C54.2999 90.5694 53.3547 90.1514 52.4052 89.7543C52.3939 89.972 52.3773 90.188 52.359 90.3883C52.4235 90.4484 52.4854 90.5015 52.5507 90.5651L52.8434 90.8472C54.4863 92.4208 54.9567 93.0312 54.8548 93.4562C54.8278 93.5755 54.7555 93.673 54.6501 93.7349C54.6318 93.7479 54.617 93.7618 54.5987 93.7723C54.3635 93.9029 53.1465 93.2933 51.7344 92.4896C51.6752 92.7534 51.6177 93.0095 51.5541 93.2916L51.5472 93.3212C52.0812 93.8751 52.67 94.5404 52.9018 95.3729C52.941 95.5209 52.8687 95.6759 52.7267 95.7377C52.1691 95.9894 51.6169 95.5523 51.379 95.3642L50.8146 94.9157C48.5479 101.827 42.3908 107.114 35.0167 108.424C34.9984 108.427 34.9801 108.428 34.9627 108.428C34.8146 108.428 34.6857 108.323 34.6578 108.174C34.6273 108.005 34.7389 107.846 34.9079 107.815C41.3916 106.664 46.9058 102.343 49.5157 96.5555C48.9921 96.4675 48.0688 95.6019 46.2203 93.4675L45.985 93.1958C45.5599 92.7134 45.0808 92.2649 44.6191 91.8295C44.2114 91.4463 43.8046 91.0431 43.4109 90.6199C43.3987 90.6217 43.39 90.6321 43.3769 90.6321C43.3525 90.6321 43.3316 90.6286 43.3072 90.6234C37.2895 89.2266 31.284 87.478 25.4588 85.4307C22.4891 84.3874 19.5099 83.2475 16.6064 82.0388C16.2571 81.8943 15.8616 81.7445 15.4487 81.5886C14.987 81.4136 14.4966 81.2272 14.0044 81.0234L13.8929 81.2481C12.0723 84.9221 10.3501 88.3923 9.32561 92.2727C8.13479 96.7845 8.15569 101.04 9.38571 104.584C10.1157 106.686 11.3118 108.65 12.8441 110.269C12.9617 110.393 12.9556 110.589 12.8319 110.706C12.7744 110.762 12.696 110.791 12.6211 110.791C12.5392 110.791 12.4582 110.758 12.3981 110.694C10.803 109.013 9.56081 106.969 8.80119 104.786C7.53197 101.126 7.50496 96.7462 8.72888 92.1169C9.769 88.1747 11.506 84.6783 13.3415 80.9747L13.4382 80.7779C12.1446 80.1996 10.9102 79.4786 10.2298 78.4745C9.71935 77.7213 9.5068 76.8426 9.3439 76.0258C9.37091 79.2783 9.32038 82.5874 8.90311 85.8591C8.29681 90.5459 6.97618 94.5587 4.97783 97.7868C4.92033 97.88 4.81754 97.9331 4.71562 97.9331C4.66161 97.9331 4.60413 97.9183 4.55273 97.8861C4.40812 97.7972 4.36281 97.6057 4.45341 97.4611C6.40734 94.3105 7.69747 90.3796 8.28896 85.7807C8.81948 81.6382 8.7559 77.4095 8.69579 73.3193C8.69405 73.2304 8.73324 73.1529 8.79247 73.0955C7.87257 68.2598 7.00232 63.3631 6.22964 58.4726C6.02754 57.2012 5.78973 55.9272 5.53623 54.58C4.78532 50.5838 4.0074 46.4518 4.30619 42.5331C4.52659 39.6289 5.24091 37.6094 6.55544 36.1795C8.19228 34.3952 10.6976 33.6942 12.7117 33.1308C12.7517 33.1194 12.7822 33.1403 12.8197 33.143C12.7962 32.6675 12.7848 32.1859 12.7935 31.693C12.8902 26.1154 15.1029 20.84 17.3582 15.9146C19.327 11.618 21.5849 7.22203 25.6252 4.81856C29.3414 2.60841 34.2502 2.50391 38.3967 4.40666C38.2991 4.3161 38.2024 4.22466 38.1049 4.13584C35.9549 2.32191 33.7231 0.907694 31.1603 0.662122C29.2003 0.463574 27.0686 0.98868 24.8351 2.19042C19.4864 5.06849 15.5916 9.07689 11.8135 15.5976C8.98586 20.4768 6.50665 26.8939 5.1294 31.2716C4.01698 34.801 3.36887 38.7624 3.08488 43.7435C2.56308 52.8366 3.39849 62.0909 4.20689 71.0412L4.44471 73.6841C5.11373 81.2716 5.39423 89.1656 0.89576 94.9549C0.835651 95.0332 0.741566 95.0742 0.65184 95.0742C0.585636 95.0742 0.519436 95.0533 0.461941 95.0097C0.329533 94.9044 0.301643 94.7111 0.407921 94.5761L0.405308 94.57ZM51.9374 78.8978L51.9557 78.7018C52.3564 74.757 51.5036 70.6789 49.5558 67.2218C49.0766 66.3701 48.5183 65.5385 47.9817 64.7321C47.5174 64.0354 47.0347 63.3144 46.6009 62.5759C43.444 57.2204 42.2444 50.3121 42.9378 41.4585C43.1696 38.4698 43.5799 35.4515 43.978 32.5316C44.5355 28.4388 45.1113 24.2066 45.1993 20.0188C45.2716 16.5816 44.9763 14.0327 44.2402 11.7573C43.5607 9.67079 42.4735 7.87951 41.105 6.53757C41.9317 7.77065 42.4126 9.13088 42.1852 10.6348C44.9536 13.3718 43.6513 19.7453 42.5911 24.891C42.4613 25.5224 42.335 26.1285 42.2261 26.6997C41.0989 32.5134 40.4473 38.4559 40.2879 44.36C40.2853 44.529 40.1459 44.6613 39.9804 44.6613H39.9717C39.8027 44.657 39.6668 44.515 39.6729 44.3452C39.8323 38.4062 40.4865 32.4298 41.6172 26.5822C41.7287 26.0092 41.8559 25.4005 41.9848 24.7683C42.829 20.6702 43.9275 15.2928 42.5746 12.2911C42.9753 14.5744 42.5476 17.0144 41.3219 18.9799C41.2374 19.114 41.1529 19.2464 41.0658 19.3796C40.7792 19.815 40.5083 20.2269 40.375 20.6893C40.2574 21.1021 40.2548 21.5427 40.2487 22.0095C40.2452 22.2733 40.2452 22.5381 40.2217 22.8011C40.044 24.817 38.7295 26.5082 37.3967 28.0661C36.901 28.6486 36.3914 29.2364 35.8765 29.8251C34.2937 37.4152 33.2153 44.2303 35.9619 50.7327C35.9637 50.7379 35.9602 50.7432 35.9619 50.7484C36.0133 50.8782 36.0682 51.007 36.1187 51.1368C37.3191 54.2186 38.2721 57.405 39.0047 60.6444C39.0683 60.654 39.1337 60.6688 39.1825 60.7176C41.6652 63.1907 44.3386 65.8694 46.5783 68.8824C46.0208 67.0859 44.8857 65.4401 43.7706 63.8404C43.3185 63.1925 42.8507 62.5219 42.4291 61.8514C40.2252 58.3359 39.2217 53.6831 39.5283 48.3972C39.537 48.2265 39.6938 48.061 39.8541 48.1081C40.0231 48.1168 40.1529 48.2631 40.1433 48.4338C39.8445 53.5908 40.8184 58.1173 42.9535 61.5231C43.3665 62.1814 43.8281 62.8459 44.2776 63.4885C45.7159 65.555 47.2029 67.6911 47.5017 70.2017C48.601 71.8319 49.5715 73.5492 50.2866 75.3979C51.0114 77.265 51.4766 79.1921 51.8006 81.2568C51.7797 80.4652 51.8625 79.6484 51.9392 78.8995L51.9374 78.8978ZM30.5819 34.0678C30.8319 38.1885 32.3563 42.1307 33.967 45.9519C33.873 45.3641 33.8076 44.7711 33.758 44.1772C32.7788 40.154 32.5192 36.0524 33.0036 32.7685C32.9618 32.7877 32.9243 32.812 32.8799 32.8269C32.7144 32.8843 32.548 32.9113 32.3912 32.9113C31.6699 32.9113 31.0427 32.3636 30.5636 31.6434C30.5357 32.448 30.5331 33.2553 30.5827 34.0669L30.5819 34.0678ZM33.7074 32.2547C33.2728 34.6173 33.2771 37.4875 33.6865 40.4718C33.8163 37.349 34.3695 34.1235 35.0559 30.7508C34.6787 31.1766 34.3024 31.6033 33.92 32.0274C33.8538 32.0997 33.7832 32.1772 33.7074 32.2547ZM32.6804 32.2434C32.9853 32.1398 33.2379 31.8602 33.4618 31.6138C34.6465 30.2997 35.8138 28.9717 36.9262 27.6637C38.1955 26.1807 39.4438 24.5802 39.6067 22.7453C39.6276 22.4998 39.6311 22.2507 39.6311 22.0025C39.6372 21.5157 39.6398 21.0107 39.7853 20.5178C39.9421 19.9665 40.2496 19.4963 40.5484 19.0408C40.6329 18.9111 40.7174 18.7831 40.7984 18.6533C42.234 16.3526 42.5197 13.3518 41.5458 10.8203C41.5388 10.8029 41.5502 10.7863 41.5475 10.7689C41.5397 10.7323 41.5441 10.7027 41.5502 10.6653C41.5563 10.627 41.5589 10.5939 41.578 10.5608C41.5885 10.4937 41.5876 10.4284 41.5946 10.3622C41.1991 10.1167 40.7905 10.0513 40.3367 10.1776C37.6989 10.9222 34.7284 17.5918 33.6134 20.1024C33.4653 20.4324 33.3424 20.7067 33.2484 20.9096C31.7474 24.1299 30.885 27.2867 30.6263 30.4748C30.8092 30.8919 31.6411 32.5961 32.6813 32.2443L32.6804 32.2434ZM51.7937 89.4992C51.7493 89.4809 51.704 89.4617 51.6595 89.4434C51.3416 89.3137 51.0245 89.1743 50.7057 89.0394C51.055 89.2919 51.4121 89.5636 51.7815 89.8736C51.7911 89.7395 51.7919 89.6211 51.7937 89.4992ZM51.0306 92.7891C51.0768 92.5854 51.1238 92.3746 51.1717 92.1639C50.5628 91.8086 49.9391 91.4341 49.3537 91.0736L51.0306 92.7883V92.7891ZM50.2997 94.5055L48.527 93.0965C48.7596 93.4388 48.9826 93.7871 49.1995 94.138C49.4687 94.5743 49.7553 95.0681 49.9129 95.615C50.0541 95.2501 50.1812 94.88 50.2988 94.5055H50.2997ZM25.9362 5.3428C22.0527 7.6557 19.8461 11.9567 17.9166 16.1645C15.6883 21.0307 13.5026 26.2391 13.4059 31.6983C13.2857 38.6561 16.6204 43.8506 20.1502 49.3507C21.5065 51.4694 22.9151 53.6604 24.112 55.9664C26.6749 60.8987 28.0312 66.863 28.3814 74.7344C28.3901 74.905 28.2577 75.0496 28.0887 75.0574H28.0739C27.9084 75.0574 27.7725 74.9277 27.7664 74.7622C27.4197 66.9849 26.0843 61.1016 23.5632 56.2503C22.3785 53.9713 20.9821 51.7925 19.6284 49.686C16.3965 44.6492 13.3354 39.8605 12.8597 33.7229C10.9241 34.2646 8.51981 34.9403 7.00493 36.5888C5.7932 37.9116 5.12941 39.8135 4.91859 42.5731C4.62938 46.41 5.3951 50.5011 6.13991 54.459C6.38382 55.7521 6.63471 57.0889 6.83681 58.3698C7.74713 64.1216 8.76895 69.9039 9.87876 75.5582C10.0417 76.4063 10.229 77.3677 10.7412 78.121C11.6672 79.4891 13.8859 80.3303 15.6648 81.0052C16.0864 81.1645 16.4845 81.316 16.8408 81.4632C19.7355 82.6676 22.7017 83.804 25.6626 84.8437C31.2413 86.8048 36.9846 88.4812 42.7471 89.8466C42.7218 89.8135 42.6922 89.7874 42.6669 89.7534C42.5641 89.6159 42.5946 89.4234 42.7305 89.3224C42.8664 89.2188 43.0624 89.2484 43.1617 89.386C43.7132 90.127 44.3891 90.7619 45.0399 91.3767C45.5129 91.8217 46.0016 92.2806 46.4476 92.783L46.6854 93.06C48.1777 94.7807 48.9408 95.5192 49.3232 95.8013C49.1873 95.3189 48.9225 94.8643 48.6751 94.462C48.0574 93.4579 47.3753 92.4922 46.6427 91.59C46.546 91.4681 46.5556 91.2905 46.6636 91.179C46.7751 91.0658 46.9563 91.0553 47.0766 91.1546L51.7623 94.88C51.8738 94.9688 52.0158 95.0733 52.1508 95.1351C51.8642 94.5247 51.352 94.0022 50.8938 93.532L47.0861 89.6376C46.9746 89.5262 46.9685 89.3485 47.0679 89.2275C47.1672 89.1056 47.3396 89.0786 47.472 89.163C49.7335 90.613 53.0072 92.554 54.1048 93.0739C53.7337 92.5584 52.772 91.6379 52.413 91.2913L52.1143 91.0048C51.3755 90.2803 50.7187 89.8101 50.0218 89.3111C49.4068 88.8696 48.7709 88.4133 48.0653 87.7636C48.0426 87.7427 48.0444 87.7122 48.0296 87.6879C48.0078 87.6513 47.9851 87.6217 47.979 87.5799C47.9729 87.5398 47.9851 87.5059 47.9956 87.4658C48.0026 87.4371 47.9921 87.4066 48.0078 87.3796C48.0139 87.3691 48.0278 87.3683 48.0348 87.3596C48.0418 87.35 48.0383 87.336 48.047 87.3273C48.0679 87.3038 48.101 87.3056 48.1271 87.2899C48.1637 87.2681 48.1925 87.2463 48.2334 87.2411C48.2726 87.235 48.3031 87.2481 48.3414 87.2568C48.371 87.2638 48.4033 87.2533 48.4294 87.2699C49.466 87.8786 50.6996 88.3854 51.8904 88.8765C53.0603 89.3572 54.2694 89.8527 55.3182 90.4527C55.3426 90.4449 55.3609 90.4388 55.3722 90.4379C55.2999 90.2786 54.8897 89.9572 54.7511 89.8475L47.8623 84.276C46.5835 83.2423 45.5321 82.2234 45.5826 80.2266C45.6549 77.4687 45.384 75.2821 44.9249 74.9068C44.8857 74.8719 44.8526 74.8632 44.8195 74.878C44.1592 75.0287 44.1139 76.8809 44.0991 77.5785C44.0964 77.71 44.093 77.824 44.0869 77.9163C43.998 79.7773 43.3264 81.1436 42.349 82.5692C43.0171 82.9157 43.6896 83.258 44.3552 83.6063C44.5085 83.6847 44.566 83.871 44.4876 84.0217C44.4301 84.1271 44.3247 84.1871 44.2132 84.1871C44.1653 84.1871 44.1165 84.175 44.0712 84.1506C36.2049 80.0394 28.1767 76.0354 20.1989 72.2542C17.9044 71.1614 16.3216 71.0612 15.3721 71.9495C15.2484 72.0653 15.0497 72.0592 14.9348 71.9347C14.8198 71.8093 14.8259 71.6133 14.9496 71.4975C15.8067 70.699 17.0194 70.5326 18.6257 70.9881C17.8905 63.6427 16.2284 55.3342 13.9243 47.5237C13.7823 47.0448 14.0776 46.6433 14.3128 46.3229C14.3764 46.2358 14.4391 46.1513 14.494 46.0634L14.69 45.7638C14.8738 45.4817 15.0489 45.2169 15.1752 44.9287C15.2449 44.7719 15.4348 44.7023 15.582 44.7719C15.7388 44.8399 15.8111 45.0219 15.7414 45.1786C15.5933 45.5113 15.3947 45.8117 15.2048 46.1026L15.0175 46.3908C14.9539 46.4901 14.8816 46.5893 14.8093 46.6895C14.5985 46.976 14.4626 47.1763 14.514 47.3496C16.8582 55.2906 18.5421 63.7515 19.2695 71.2032C19.6501 71.3408 20.0421 71.4975 20.4629 71.6961C27.5852 75.0731 34.745 78.6313 41.7949 82.2818C42.7384 80.9181 43.383 79.6275 43.4701 77.8841C43.4727 77.797 43.4762 77.6882 43.4788 77.5619C43.5032 76.5039 43.5511 74.5341 44.6792 74.2737C44.9057 74.2223 45.1252 74.2719 45.3151 74.4278C46.195 75.148 46.2464 78.3788 46.195 80.2406C46.1558 81.8202 46.8257 82.644 48.2456 83.7953L51.7353 86.6167C51.4548 82.4246 50.9835 78.9178 49.7047 75.62C47.5618 70.0807 43.1983 65.6029 39.2304 61.6433C40.4569 67.4795 40.9203 73.4856 40.5754 79.4115C40.5667 79.5761 40.4308 79.7024 40.2679 79.7024C40.2618 79.7024 40.2557 79.7024 40.2496 79.7007C40.0806 79.692 39.9482 79.5457 39.9604 79.375C40.5118 69.8943 38.9838 60.2082 35.5403 51.3588C35.0342 50.0578 34.4732 48.7394 33.9305 47.4645C32.1185 43.2001 30.2465 38.792 29.9625 34.1052C29.6881 29.5708 30.5775 25.1688 32.6821 20.651C32.7753 20.449 32.8964 20.1781 33.041 19.8507C34.3016 17.0249 37.2442 10.4066 40.166 9.58371C40.6764 9.44002 41.166 9.4766 41.6251 9.68037C41.6103 9.40693 41.5746 9.13785 41.5118 8.87399C41.4857 8.86441 41.4561 8.87224 41.4325 8.8557C38.8427 7.02 35.1431 6.77878 32.4539 8.28183C29.3632 10.0043 26.9423 13.0261 25.64 16.7906C23.5894 22.7149 23.0588 29.1128 24.1086 35.2922C25.194 41.691 27.9493 47.7562 30.6176 53.6212C31.0906 54.6593 31.561 55.6982 32.0253 56.7362C35.1309 63.7193 37.9559 71.2467 37.5726 78.9822C37.5665 79.1477 37.428 79.2757 37.2651 79.2757H37.2503C37.0787 79.267 36.9489 79.1224 36.9576 78.9518C37.3313 71.346 34.5367 63.9004 31.4582 56.9861C30.9965 55.9498 30.5261 54.9144 30.0557 53.8773C27.3726 47.9757 24.5955 41.873 23.4979 35.394C22.4308 29.1145 22.97 22.6104 25.0537 16.5886C26.4074 12.6812 28.9276 9.5393 32.1508 7.74279C34.8974 6.21014 38.4568 6.34947 41.2156 8.00839C40.8925 7.26209 40.4011 6.55934 39.8306 5.89229C35.5725 3.15093 29.9991 2.92713 25.9309 5.34541L25.9362 5.3428Z" fill="#14080E"/>
<path d="M6.44112 79.5875C6.43241 79.4186 6.56135 79.2723 6.73383 79.2636C6.89673 79.2409 7.04743 79.3855 7.05614 79.5579C7.36713 85.604 5.76601 91.7581 2.54896 96.8864C2.48885 96.9796 2.38867 97.031 2.28675 97.031C2.22925 97.031 2.17175 97.0162 2.12384 96.9831C1.97923 96.8925 1.93394 96.7027 2.02454 96.5581C5.17539 91.537 6.74602 85.51 6.44112 79.5875Z" fill="#14080E"/>
<path d="M28.0406 55.9219C28.1887 55.8496 28.3786 55.9132 28.4509 56.0647C31.6889 62.7753 33.5949 70.2557 33.9591 77.6977C33.9678 77.8675 33.8354 78.013 33.6664 78.0217H33.6516C33.4887 78.0217 33.3501 77.8937 33.344 77.7273C32.9825 70.3671 31.0974 62.9695 27.896 56.3329C27.8211 56.1788 27.8873 55.9951 28.0406 55.9219Z" fill="#14080E"/>
<path d="M25.897 54.5589C28.1819 59.298 29.6419 64.3513 30.2325 69.5772C30.2508 69.7461 30.1297 69.8994 29.9607 69.9194C29.9486 69.9194 29.9364 69.9211 29.9242 69.9211C29.7674 69.9211 29.635 69.8053 29.6167 69.6468C29.0347 64.4898 27.5939 59.5035 25.3412 54.8271C25.2654 54.673 25.3325 54.4893 25.4858 54.4161C25.6365 54.3421 25.8238 54.4057 25.8961 54.5589H25.897Z" fill="#14080E"/>
<path d="M39.3887 57.9892C39.3582 57.997 39.3286 58.0014 39.3016 58.0014C39.1692 58.0014 39.0455 57.9143 39.0063 57.7802C38.2014 55.0362 37.8303 52.1921 37.906 49.3306C37.9087 49.1573 38.048 49.0293 38.2223 49.0293C38.3913 49.0337 38.5272 49.1756 38.5211 49.3463C38.4522 52.1442 38.8138 54.9248 39.5978 57.606C39.6457 57.7706 39.5525 57.9422 39.3896 57.9901L39.3887 57.9892Z" fill="#14080E"/>
</svg>
