<svg width="93" height="114" viewBox="0 0 93 114" fill="none" xmlns="http://www.w3.org/2000/svg">
<path d="M36.8477 53.5984C37.7188 53.9258 38.5647 54.3133 39.4306 54.6521C39.8644 54.8219 40.3008 54.9751 40.719 55.1833C41.0918 55.3696 41.4647 55.5629 41.827 55.7685C42.1616 55.9583 42.5205 56.1969 42.9133 56.2326C42.9299 56.2343 42.9299 56.2082 42.9133 56.2065C42.5361 56.1716 42.1903 55.9444 41.8689 55.7615C41.5143 55.5595 41.1493 55.3714 40.7852 55.1867C40.3914 54.9873 39.9855 54.8367 39.5743 54.679C39.1466 54.5153 38.725 54.3368 38.3025 54.1592C37.8225 53.9571 37.3425 53.7551 36.8547 53.5722C36.839 53.5661 36.832 53.5914 36.8477 53.5975V53.5984Z" fill="#E0CFCF"/>
<path d="M37.6335 54.3855C38.1788 54.9297 38.7128 55.4879 39.2974 55.9922C39.5753 56.2325 39.8645 56.4598 40.1676 56.667C40.4655 56.8708 40.7757 57.0406 41.1006 57.1965C41.456 57.3672 41.8245 57.5379 42.1146 57.8104C42.1268 57.8218 42.1451 57.8035 42.1329 57.7921C41.6355 57.3254 40.9403 57.139 40.3741 56.7733C39.7225 56.3527 39.1406 55.8389 38.5865 55.299C38.2712 54.9924 37.9637 54.6781 37.6527 54.3672C37.6405 54.355 37.6222 54.3742 37.6344 54.3855H37.6335Z" fill="#E0CFCF"/>
<path d="M64.0498 81.5492C62.9129 79.0987 61.7012 76.6761 60.141 74.4721C59.3675 73.3792 58.6488 72.3472 57.6836 71.4137C57.6174 71.3502 57.5451 71.2787 57.4893 71.21C60.5783 70.1754 59.6645 64.104 59.7185 61.5978C59.8065 57.4893 59.6375 53.3746 59.2211 49.2861C59.0713 47.8179 59.6532 44.467 57.4092 44.514C55.5223 44.5532 55.0214 47.0011 54.7427 48.4588C54.3028 50.7552 53.862 53.1142 54.2731 55.4158C52.9987 54.9177 51.7234 54.4205 50.4489 53.9224C49.3731 53.5026 48.2946 53.0812 47.2806 52.5273C46.1996 51.9369 45.2022 51.1993 44.1028 50.6428C42.5174 49.8399 41.3039 50.0176 39.6514 50.0524C39.3317 50.0594 38.0807 50.2745 37.8264 50.0934C37.6208 49.9471 37.5406 48.9386 37.5093 48.6356C37.3072 46.6606 36.8176 44.1709 37.5067 42.2377C38.0755 40.6414 40.1287 40.6083 40.0251 38.6917C39.9136 36.6174 39.0877 34.4682 37.3769 33.2899C36.4369 32.6421 35.2992 32.3286 34.3523 31.6902C33.2408 30.9396 32.4672 29.7953 31.5081 28.8575C30.5499 27.9196 29.2232 27.1498 27.9182 27.4615C26.9025 27.7045 26.122 28.5823 25.7796 29.5689C25.4373 30.5556 25.4782 31.6363 25.6559 32.6647C25.9643 34.4473 26.6742 36.1584 27.7196 37.6345C29.143 39.6452 29.9863 40.9854 29.7258 43.4542C29.4601 45.9805 29.3739 48.4997 28.6935 50.965C28.0567 53.2736 27.5837 55.7015 27.3354 58.084C27.0697 60.6451 27.4095 62.9093 28.4766 65.2544C29.5733 67.664 31.0969 69.9176 32.4184 72.2097C33.1345 73.4523 33.7809 74.735 34.5945 75.9194C35.2478 76.8686 36.0266 77.7786 36.5981 78.7713C36.8603 79.2267 37.2323 79.7231 37.4631 80.1899C38.8813 83.0601 38.6391 86.4668 37.1408 89.2395C35.8846 91.5646 34.0466 93.5196 32.6031 95.7341C31.1597 97.9486 30.096 100.626 30.6744 103.205C31.1396 105.28 32.6554 107.036 34.5257 108.047C39.2323 110.592 45.325 110.229 49.8139 107.482C54.1625 104.822 58.4432 101.817 61.4355 97.5968C63.1386 95.195 63.8102 92.6993 64.4853 89.8996C65.2014 86.9327 65.3695 84.3994 64.048 81.551L64.0498 81.5492Z" fill="#E0CFCF"/>
<path d="M46.0383 14.1788C45.8989 13.6102 45.7831 13.0172 45.7578 12.3536C45.6533 9.57742 41.2646 8.23548 40.0485 11.0108C39.4178 12.4503 40.1521 14.1048 40.0668 15.6749C40.0075 16.7608 39.5528 17.7928 39.4648 18.8769C39.3446 20.3634 39.9195 21.8081 40.484 23.1893C40.7872 23.9312 41.1966 24.7672 41.9763 24.9492C42.6836 25.1138 43.3796 24.654 43.9058 24.1541C45.662 22.4848 46.3841 20.3417 46.6098 17.9922C46.7509 16.517 46.3388 15.4041 46.0374 14.1797L46.0383 14.1788Z" fill="#E0CFCF"/>
<path d="M74.118 40.6231C74.2094 40.1616 74.9961 40.0728 75.1215 39.6252C75.6111 37.8705 75.6729 36.0513 74.4629 34.4316C73.5761 33.2438 72.2738 32.4374 70.9462 31.7764C68.7649 30.6905 64.1088 28.8278 61.6348 29.7257C58.9064 30.7158 60.8055 34.0293 61.7933 35.6917C62.3909 36.6966 63.0826 37.6824 64.0539 38.3337C64.5165 38.6438 65.0322 38.8702 65.4764 39.2046C66.5479 40.0092 67.0837 41.3294 67.4844 42.6069C68.7823 46.7442 68.3538 51.3308 71.1858 54.8776C71.7442 55.5769 72.8932 55.7676 73.7077 55.5438C74.6598 55.2817 75.1624 54.5999 75.5179 53.7343C76.4735 51.4048 75.8376 48.6426 75.4891 46.2443C75.3158 45.0539 75.071 43.8818 74.7582 42.7201C74.6102 42.168 74.0073 41.1796 74.118 40.6231Z" fill="#E0CFCF"/>
<path d="M91.8306 45.8541C91.4717 45.3603 91.05 44.9153 90.6397 44.4877C90.2869 44.1168 89.9219 43.7345 89.6118 43.3287C89.4977 43.178 89.3853 43.023 89.2738 42.8671C89.0055 42.4918 88.7311 42.1034 88.3722 41.7777C87.8748 41.3284 87.0664 40.94 86.2946 41.2004C85.6613 41.4103 85.2693 41.9632 84.9226 42.4526L84.8146 42.6076C83.7535 44.0828 82.2517 45.2253 80.7952 46.3295C80.4363 46.6039 80.0774 46.8764 79.7246 47.1542C78.4649 48.147 77.0215 49.4332 76.1129 51.0607C76.1199 50.944 76.1269 50.8273 76.1338 50.7107C76.2976 48.1574 76.4553 45.538 75.9378 43.0457C75.97 43.023 76.0023 42.9995 76.0258 42.9647C77.3133 40.9252 77.9919 38.81 77.9823 36.8437C77.9762 34.5107 76.9335 32.2953 75.2601 31.0631C74.1869 30.2724 72.8514 29.8579 71.7747 29.5235C69.2363 28.738 66.5253 27.9473 63.7308 27.6356L63.182 27.5798C62.5609 27.518 61.9188 27.4544 61.3125 27.3099C60.5433 27.1261 59.7567 26.8022 58.768 26.2579C57.8786 25.7668 56.9709 25.1833 55.9909 24.4719L55.3968 24.0347C54.5221 23.3868 53.6144 22.7163 52.6048 22.2339C51.9036 21.8986 51.2006 21.6922 50.5228 21.6077C50.5341 21.5773 50.5603 21.5555 50.5603 21.5207C50.5742 20.9868 50.5899 20.453 50.6047 19.9192C50.7214 20.0002 50.8539 20.0638 51.0063 20.0925C51.0786 20.1064 51.1483 20.1125 51.2145 20.1125C51.4227 20.1125 51.6091 20.0533 51.7598 19.9453C51.9471 20.0403 52.1788 20.0629 52.4053 20.0159C52.6649 19.9558 52.8757 19.8034 52.9959 19.6014C53.2703 19.5892 53.5413 19.4794 53.7704 19.2818C53.9934 19.0876 54.1441 18.8298 54.199 18.5581C54.4281 18.4736 54.6328 18.3064 54.7722 18.0818C54.8985 17.878 54.9595 17.6507 54.9499 17.4295C55.1703 17.3259 55.3506 17.1326 55.4595 16.8827C55.5649 16.6345 55.5797 16.3715 55.5074 16.1425C55.6555 16.0066 55.7635 15.8185 55.8123 15.6017C55.8576 15.3874 55.8393 15.1767 55.7644 14.9938C55.9482 14.8127 56.0745 14.5628 56.1172 14.2824C56.1564 14.0185 56.1172 13.759 56.0092 13.5396C56.2531 13.3271 56.4134 13.0057 56.4465 12.64C56.4857 12.242 56.3646 11.8702 56.1268 11.6107C56.2078 11.4104 56.2295 11.184 56.1869 10.9567C56.1477 10.7381 56.051 10.5404 55.9159 10.3854C56.0248 10.1582 56.0579 9.88646 56.0065 9.6165C55.9586 9.37267 55.8471 9.15409 55.6868 8.98777C55.7896 8.80664 55.8375 8.58806 55.8192 8.35642C55.8044 8.12739 55.7226 7.91927 55.5928 7.75555C55.7408 7.53523 55.7888 7.25222 55.7104 6.99271C55.632 6.74278 55.4455 6.54075 55.2103 6.43364C55.2251 6.23597 55.1711 6.02697 55.0474 5.838C54.9211 5.64816 54.7486 5.51666 54.5622 5.45658C54.5561 5.30593 54.5143 5.15353 54.4385 5.01333C54.3514 4.85223 54.2277 4.71986 54.0831 4.6293C54.158 4.33409 54.1284 4.04323 53.996 3.81421C53.8697 3.59302 53.6249 3.43627 53.3566 3.40753C53.3209 3.40318 53.2817 3.40144 53.2451 3.40318C53.1937 3.27778 53.1127 3.16196 53.0038 3.06443C52.8862 2.95732 52.7503 2.8833 52.6092 2.84585C52.5944 2.62292 52.495 2.40696 52.32 2.26153C52.1658 2.13178 51.9698 2.06559 51.7772 2.06559H51.7685C51.711 1.83657 51.5603 1.63018 51.346 1.51088C51.1561 1.40725 50.9296 1.37938 50.7223 1.42989C50.6465 1.26095 50.5202 1.11378 50.3573 1.01973C50.1822 0.923073 49.9836 0.887369 49.7963 0.926556C49.7205 0.745425 49.5881 0.590418 49.4078 0.504207C49.1874 0.395354 48.9226 0.411899 48.7022 0.520752C48.5454 0.372712 48.3285 0.279534 48.0837 0.260376C47.8398 0.241218 47.6046 0.303917 47.4269 0.427574C47.2343 0.284759 46.9713 0.213352 46.7003 0.218576C46.5287 0.226414 46.3719 0.266472 46.2334 0.334396C46.0705 0.125398 45.8083 0.00870823 45.5487 0C45.2595 0.00957906 45.0182 0.140202 44.81 0.309142C44.7952 0.294338 44.7795 0.280405 44.7647 0.268214C44.5992 0.135848 44.3936 0.0679241 44.1985 0.102757C44.0025 0.129753 43.8213 0.242959 43.7011 0.41277C43.6863 0.432799 43.6741 0.453699 43.6619 0.474599C43.4206 0.41277 43.1523 0.437153 42.8927 0.545135C42.6331 0.654859 42.4284 0.83599 42.3081 1.05283C42.1304 0.998834 41.9466 0.984901 41.7506 1.02235C41.5006 1.06937 41.2802 1.19303 41.1269 1.36632C40.8708 1.30101 40.5694 1.34542 40.3098 1.49695C40.0955 1.61886 39.93 1.79651 39.8333 2.00028C39.788 1.99419 39.7427 1.99593 39.6974 2.00028C39.4291 2.02466 39.1791 2.17793 39.0458 2.39999C38.9221 2.60028 38.8742 2.83975 38.8977 3.12451C38.6172 3.19505 38.3672 3.38402 38.24 3.64265C38.1311 3.85339 38.1102 4.09461 38.1616 4.32103C37.9569 4.41333 37.7844 4.5875 37.6947 4.79562C37.6015 5.02291 37.5954 5.26151 37.6137 5.47487C37.5109 5.50796 37.4116 5.56369 37.3184 5.63945C37.1346 5.7901 37.0021 6.00694 36.9534 6.23771C36.8959 6.50853 36.9385 6.77762 37.0109 7.011C36.9359 7.04148 36.8601 7.08066 36.7939 7.1303C36.5796 7.28095 36.4377 7.50563 36.4019 7.7512C36.3654 7.99416 36.4377 8.25105 36.5979 8.45831C36.6006 8.46092 36.604 8.4644 36.6067 8.46876C36.4167 8.68995 36.3349 9.00518 36.4046 9.27514C36.537 9.81331 37.0048 10.0389 37.409 10.1433C37.3489 10.2862 37.3245 10.4316 37.3393 10.5727C37.3689 10.8722 37.571 11.1465 37.9029 11.3416C37.9743 11.3851 38.0745 11.4182 38.1982 11.4174C38.1416 11.9285 38.1224 12.4432 38.1895 12.9535C38.2226 13.1912 38.2653 13.4316 38.3097 13.6693C38.4238 14.2841 38.5327 14.8658 38.4029 15.4223C38.3602 15.6121 38.2914 15.7933 38.2217 15.9753C38.1677 16.1181 38.1137 16.2618 38.0675 16.4081C37.7539 17.4252 37.875 18.5869 38.4386 20.0655C38.8576 21.1479 39.3855 22.1468 39.9849 23.2466C40.4675 24.1279 41.0642 25.0893 42.0921 25.3488C42.2637 25.3915 42.4327 25.4106 42.6017 25.4106C43.2899 25.4106 43.9398 25.0867 44.4633 24.7418C44.006 27.2986 43.7499 29.9833 44.5164 32.5496C45.0208 34.2312 45.9547 35.7534 47.2065 36.9804C46.8188 37.9226 46.5505 38.9101 46.3998 39.9168C46.3684 39.9151 46.3388 39.895 46.3083 39.9037C46.155 39.9429 45.9799 39.9516 45.7961 39.9612C45.4677 39.9778 45.0966 39.9969 44.7769 40.2085C44.6863 40.266 44.6053 40.3383 44.5025 40.4332L44.1462 40.7693C43.8927 41.0088 43.5765 41.3058 43.465 41.7185L43.438 41.8239C43.4284 41.8587 43.4197 41.904 43.4049 41.9267C43.3962 41.9467 43.3509 41.9859 43.2847 42.0416C42.9467 42.3246 42.6932 42.6851 42.5494 43.0796C42.0703 44.3737 42.8387 45.7531 43.7525 46.4854C43.8065 46.529 43.8762 46.5533 43.945 46.5533C43.9755 46.5533 44.0051 46.549 44.0321 46.5394C44.1018 46.5185 44.1549 46.4697 44.1941 46.4097L44.2316 46.5629C44.2464 46.6326 44.2891 46.6927 44.3466 46.7362C44.5792 46.9113 44.9346 46.8599 45.1454 46.6248C45.1576 46.6126 45.1698 46.5995 45.1785 46.5856C45.2961 46.7876 45.4982 46.9113 45.7064 46.9113C45.7247 46.9113 45.7395 46.9112 45.7543 46.9095C45.905 46.8964 46.0252 46.7737 46.0348 46.6204C46.0531 46.3208 46.0714 46.0221 46.0923 45.7191C46.0949 45.6782 46.101 45.5832 46.1167 45.5606C46.1315 45.5319 46.2099 45.4901 46.2491 45.4674L46.8606 45.1287C46.8772 45.1191 46.8798 45.0982 46.8937 45.0869C48.2692 44.9406 49.589 44.2866 50.4758 43.2198C50.8591 42.7592 51.1544 42.2497 51.4706 41.6811C51.8313 41.0384 52.1919 40.3444 52.421 39.6286C52.4428 39.7043 52.4437 39.7888 52.475 39.8611C52.617 40.1894 52.8426 40.4567 53.0447 40.6918C53.5116 41.2326 53.9794 41.7751 54.4464 42.322C54.6154 42.5162 54.7626 42.6939 54.841 42.8889C54.9891 43.2503 54.9046 43.6936 54.8201 44.122C54.2626 47.014 53.8862 49.9574 53.6624 52.9138C52.0055 52.7623 50.4 52.3365 48.893 51.6294C48.3712 51.3855 47.8528 51.1034 47.3519 50.8308C46.7003 50.4755 46.0226 50.1063 45.3196 49.8076C42.9867 48.8201 40.5041 48.6076 38.1067 49.1676C38.1276 46.5803 38.9151 43.9783 40.3263 41.8161L40.7192 41.695C41.0119 41.6027 41.4091 41.4782 41.6661 41.1481C41.8987 40.8486 41.9318 40.4715 41.9344 40.1084C41.9588 36.6016 39.9117 33.0982 36.848 31.3888C36.6607 31.2852 36.4708 31.1868 36.2782 31.0875C35.732 30.8054 35.2172 30.5389 34.8008 30.1453C34.3487 29.716 34.0412 29.1595 33.718 28.5708C33.4863 28.1537 33.2476 27.7209 32.9523 27.329C32.5646 26.8205 32.0655 26.4129 31.5106 26.096C31.5811 25.974 31.6221 25.8373 31.6169 25.6884C31.6073 25.4594 31.4993 25.2513 31.3242 25.1084C31.481 24.4423 31.2127 23.6977 30.6639 23.2867C30.8389 22.8243 31.0977 22.1311 30.5706 21.6852C30.4382 21.5938 30.2779 21.5424 30.1185 21.5363C30.1368 21.2699 30.1124 20.9651 29.953 20.6986C29.8023 20.4443 29.5035 20.2754 29.1934 20.2632C29.2448 19.921 29.2239 19.5639 28.8528 19.1738C28.8345 19.1529 28.811 19.1346 28.7866 19.1198C28.3284 18.8533 27.9965 18.9343 27.7674 19.0597C27.6193 18.7854 27.3362 18.5712 26.9712 18.4841C26.6036 18.3979 26.2595 18.4588 26.0094 18.633C25.8439 18.4719 25.6209 18.3604 25.3613 18.3239C25.0956 18.2829 24.8334 18.3317 24.6261 18.4536C24.4571 18.2681 24.2132 18.1419 23.9266 18.1044C23.6731 18.067 23.4414 18.1105 23.2419 18.2098C23.0581 17.9189 22.7323 17.703 22.3281 17.6255C21.9483 17.5453 21.6042 17.6133 21.3333 17.7761C21.0859 17.2745 20.5919 16.8887 20.037 16.813C19.4403 16.7285 18.8314 17.0072 18.4629 17.4748C18.1406 17.1944 17.6911 17.0472 17.185 17.0977C16.6397 17.1474 16.1753 17.4191 15.9184 17.8179C15.5386 17.6673 15.0986 17.676 14.6761 17.8467C14.2606 18.0139 13.9409 18.3082 13.7684 18.6661C13.4339 18.5668 13.0567 18.6121 12.7196 18.7924C12.4722 18.9239 12.2736 19.1059 12.1377 19.3183C12.1168 19.3079 12.0985 19.2983 12.0802 19.2913C11.6577 19.1224 11.1481 19.314 10.8232 19.5822C10.6333 19.7416 10.4974 19.9314 10.4286 20.1334C10.0426 20.0307 9.62364 20.096 9.28913 20.3215C8.99033 20.5262 8.7891 20.8475 8.71941 21.1967C8.222 21.0852 7.5042 21.1776 7.0878 21.5746C6.68099 21.9604 6.66879 22.4037 6.74981 22.7877C6.25501 22.6562 5.70707 22.6536 5.23667 23.0455C4.80895 23.3999 4.51015 24.0234 4.64256 24.6156C4.06675 24.8237 3.57805 25.2861 3.29232 25.9105C2.99701 26.5497 2.97001 27.2428 3.20782 27.8228C2.31841 28.3906 2.07449 29.5305 2.2914 30.5023C1.81229 30.6835 1.42638 31.0118 1.22689 31.4158C1.0004 31.8713 1.0335 32.3485 1.10058 32.6742C1.14849 32.8971 1.23299 33.0887 1.31487 33.2742L1.41418 33.5058L1.3715 33.5424C1.09709 33.7906 0.816592 34.0474 0.626688 34.4602C0.451592 34.8382 0.373191 35.2544 0.397583 35.6654C0.397583 35.6733 0.482081 36.1853 0.641497 36.5467C0.3488 36.8785 0.210291 37.3531 0.273883 37.8442C0.327893 38.3023 0.5509 38.7046 0.874086 38.9589C0.617976 39.4169 0.488179 40.0091 0.536091 40.5516C0.542189 40.6422 0.738191 41.3989 1.0274 41.8535C0.692893 42.0747 0.408907 42.3342 0.25559 42.7113C0.113597 43.0657 0.13189 43.448 0.164993 43.778C0.194611 44.0375 0.239909 44.3118 0.388 44.56C0.418489 44.614 0.454205 44.6637 0.493406 44.7107C0.439396 44.7542 0.388 44.803 0.339217 44.857C0.106628 45.1087 -0.0135872 45.4361 0.00122193 45.7548C0.016031 46.0727 0.17022 46.3879 0.422845 46.6169C0.501246 46.6874 0.585745 46.7484 0.676342 46.798C0.504731 47.0332 0.399325 47.3197 0.383645 47.6149C0.371449 47.897 0.800041 48.9211 1.26435 49.3191C1.09884 49.6639 1.09535 50.0985 1.27306 50.5182C1.46035 50.9641 1.80357 51.2749 2.19297 51.3821C2.07536 51.7452 1.98477 52.1675 2.08408 52.5864C2.17467 52.953 2.44298 53.2796 2.78359 53.4398C2.8376 53.4651 2.89248 53.4868 2.9491 53.5034C2.88551 53.8047 2.9491 54.1452 3.139 54.4613C3.34982 54.8105 3.65732 55.0369 3.98922 55.1048C3.93521 55.4654 4.02494 55.8581 4.26014 56.2099C4.53454 56.6209 4.94136 56.8726 5.36646 56.9135C5.44138 57.2601 5.66177 57.578 5.99019 57.8026C6.25239 57.982 6.54509 58.0752 6.83169 58.077C6.8073 58.555 7.0033 59.0401 7.3805 59.3518C7.7272 59.6444 8.1889 59.7542 8.63143 59.6758C8.65843 59.8909 8.75774 60.1086 8.92064 60.2993C9.15846 60.5779 9.47816 60.726 9.77957 60.7182C9.86668 61.2197 10.0174 61.7083 10.4033 62.0566C10.7134 62.3327 11.1995 62.4293 11.6124 62.283C11.6368 62.2752 11.6577 62.2665 11.6812 62.2578C11.7718 62.4903 11.9286 62.7089 12.1394 62.8865C12.48 63.1756 12.9147 63.301 13.2911 63.254C13.4174 63.5718 13.6047 63.9393 13.954 64.1579C14.2258 64.3338 14.6265 64.3617 14.9401 64.2136C14.961 64.2032 14.9819 64.1927 15.0002 64.1823C15.1631 64.4113 15.4018 64.5968 15.691 64.71C16.0769 64.8607 16.4663 64.852 16.7851 64.7161C17.023 65.0296 17.442 65.2046 17.9219 65.1715C18.293 65.1472 18.6093 65.0026 18.8262 64.7797C19.0492 65.0061 19.3628 65.1611 19.7278 65.2107C20.1503 65.2726 20.5362 65.1759 20.8315 64.9625C20.9125 65.0618 21.0153 65.1489 21.1303 65.2186C21.3202 65.3318 21.531 65.3919 21.7427 65.3919C21.8298 65.3919 21.9178 65.3814 22.0049 65.3588C22.288 65.2848 22.545 65.0862 22.7009 64.8136C22.7157 64.7866 22.7314 64.7596 22.7436 64.7309C22.8882 64.8467 23.0572 64.9434 23.2558 64.9861C23.5694 65.0496 23.9066 64.9286 24.1182 64.6813C24.1304 64.6691 24.1392 64.6569 24.1487 64.6456C24.4083 64.7692 24.7158 64.7936 25.0111 64.7091C25.3204 64.6203 25.5756 64.4139 25.7751 64.1309C26.1323 66.2279 26.776 68.3675 27.7038 70.4931C29.588 74.8211 32.3652 78.5674 34.5717 81.348L34.6196 81.4098C35.1771 82.1134 35.7564 82.8397 36.0491 83.667C36.6972 85.5027 35.8444 87.3923 35.2773 88.3555C34.7163 89.3064 33.9872 90.179 33.2842 91.0228C32.8983 91.4852 32.5124 91.9494 32.1509 92.4274C28.9704 96.5987 27.4956 101.975 28.1019 107.181C28.412 109.847 29.3023 111.787 30.7431 112.947C30.8006 112.992 30.8668 113.015 30.9365 113.015C31.0271 113.015 31.1177 112.975 31.1778 112.899C31.2832 112.766 31.2623 112.571 31.1299 112.464C29.818 111.411 29.007 109.609 28.7178 107.109C28.1271 102.062 29.5593 96.8477 32.643 92.801C32.9985 92.329 33.3783 91.8745 33.7581 91.4173C34.4785 90.5552 35.2233 89.6617 35.8087 88.6681C36.4298 87.6118 37.361 85.5323 36.6345 83.4614C36.3061 82.5358 35.6937 81.7677 35.1031 81.0249L35.0552 80.9648C32.8722 78.213 30.1255 74.5085 28.2718 70.2458C26.4354 66.0371 25.7237 61.7797 26.2185 57.935C26.4563 56.054 27.0173 54.7582 27.925 53.9728C28.98 53.061 30.4008 52.8685 31.9078 52.663C32.4714 52.5864 33.0568 52.5063 33.617 52.3852C33.7825 52.3495 33.8879 52.185 33.8522 52.0195C33.8156 51.854 33.6684 51.7478 33.4846 51.7826C32.9479 51.8985 32.3782 51.9751 31.8233 52.0508C30.8067 52.1893 29.7692 52.3356 28.8362 52.7188C29.5366 49.5977 28.7038 46.1946 26.6332 43.7571C26.9224 43.7118 27.1977 43.6282 27.4215 43.4654C27.5966 43.3374 27.756 43.1658 27.898 42.9516C28.2657 42.3969 28.4103 41.7037 28.29 41.0515C28.2596 40.8843 28.121 40.7589 27.9285 40.8042C27.763 40.8346 27.6515 40.9957 27.6811 41.1629C27.7743 41.6602 27.6663 42.1879 27.3858 42.6094C27.283 42.7618 27.1715 42.882 27.0574 42.9664C26.7168 43.212 26.2133 43.2529 25.7098 43.0822C25.2185 42.9133 24.7751 42.5815 24.35 42.2593C24.3291 42.2445 24.3038 42.2515 24.2811 42.2419C24.2716 41.9746 24.2393 41.7359 24.1749 41.5435C24.4162 41.4965 24.6453 41.3867 24.8265 41.2178C25.1305 40.9357 25.2847 40.5168 25.2516 40.1101C25.7525 39.9899 26.1558 39.5981 26.2194 39.1139C26.2612 38.7569 26.0774 38.3859 25.7464 38.1717C25.6593 38.1142 25.5652 38.0741 25.4755 38.048C25.5173 37.765 25.4667 37.4637 25.3099 37.2225C25.1322 36.9403 24.8247 36.754 24.4954 36.6991C24.5346 36.4805 24.5529 36.2454 24.5163 36.0085C24.465 35.6541 24.2811 35.3502 24.0276 35.1691C24.1182 34.8329 24.1635 34.4863 24.1574 34.1371C24.1548 33.727 24.0642 33.4152 23.8804 33.1784C23.7541 33.0155 23.5607 32.8893 23.3499 32.8396C23.4344 32.5078 23.4858 32.1708 23.5006 31.8312C23.5128 31.6022 23.5067 31.3566 23.3856 31.1293C23.3438 31.0483 23.2889 30.9761 23.2253 30.9151C23.5808 30.4875 23.7715 29.9206 23.7262 29.3642C23.714 29.197 23.6626 29.0219 23.5755 28.8774C23.9405 28.5682 24.1818 28.1206 24.2324 27.6443C24.5434 27.6364 24.8718 27.6068 25.188 27.4788C25.4807 27.3595 25.776 27.1235 25.9354 26.81C26.1314 26.8797 26.3666 26.891 26.587 26.8405C26.8727 26.7691 27.0696 26.5706 27.1968 26.3189C28.9782 25.5552 31.2815 26.1552 32.4601 27.7035C32.7284 28.0588 32.9453 28.4524 33.1744 28.8687C33.5089 29.473 33.853 30.0983 34.3774 30.5955C34.854 31.0492 35.4324 31.347 35.9934 31.637C36.1807 31.7319 36.3645 31.8286 36.5448 31.9296C39.4178 33.5311 41.336 36.8167 41.3177 40.1049C41.3151 40.3426 41.2994 40.61 41.1757 40.7728C41.0494 40.9357 40.8203 41.0184 40.5337 41.1072L32.8242 43.4819C32.1665 43.6857 31.4252 43.9086 30.7292 43.7815C30.1351 43.6674 29.5323 43.1484 29.5837 42.5597C29.5985 42.3891 29.4722 42.2402 29.3032 42.2253C29.122 42.2001 28.9835 42.3351 28.9687 42.5058C28.8842 43.4706 29.7405 44.2195 30.6151 44.3885C30.7963 44.4233 30.9766 44.4381 31.1604 44.4381C31.8172 44.4381 32.4662 44.2396 33.0054 44.0732L39.4369 42.0912C38.1904 44.2343 37.4995 46.7292 37.4882 49.2085C37.4882 49.3374 37.5074 49.4445 37.5117 49.5681C37.5117 49.5916 37.4969 49.6117 37.503 49.6352C37.5056 49.643 37.5144 49.6456 37.5178 49.6535C37.5875 51.0659 37.9883 52.1101 38.7487 52.7214C38.8062 52.7684 38.8724 52.791 38.9413 52.791C39.0319 52.791 39.1225 52.7519 39.1826 52.6761C39.288 52.542 39.2671 52.3478 39.1346 52.2424C38.5466 51.7678 38.2235 50.9318 38.1398 49.7945C40.4405 49.2285 42.8299 49.4253 45.0774 50.3789C45.7526 50.6654 46.4164 51.025 47.0549 51.3733C47.5645 51.6503 48.0924 51.9368 48.629 52.1884C50.2049 52.9286 51.8818 53.3736 53.611 53.5304C53.5256 54.7905 53.4637 56.0514 53.4402 57.3124C52.4532 56.7829 51.3739 56.5095 50.3207 56.2604L47.2213 55.5237C46.6786 55.3939 46.1149 55.2598 45.6141 55.0308C44.6828 54.6076 43.911 53.8299 43.4911 52.8982C43.4214 52.7414 43.2411 52.6735 43.0843 52.7432C42.9301 52.8128 42.8578 52.9966 42.9301 53.1516C43.4066 54.2166 44.2926 55.1074 45.3571 55.5916C45.912 55.8459 46.5026 55.9878 47.1063 56.1315L50.1752 56.8613C51.2955 57.1269 52.4515 57.4021 53.4324 58.0038C53.4298 58.6256 53.4428 59.2534 53.5169 59.8743C52.1396 59.3849 50.6944 59.0941 49.2893 58.8232C48.5027 58.6709 47.6917 58.5141 46.9042 58.3225C45.5505 57.9925 44.1906 57.5388 42.8726 57.099C40.3525 56.2595 37.747 55.3905 35.0369 55.333C34.8531 55.3312 34.7268 55.4645 34.7233 55.636C34.7172 55.8058 34.8531 55.946 35.0247 55.9513C37.6415 56.0053 40.2009 56.8595 42.6766 57.6859C44.006 58.1292 45.378 58.5872 46.7587 58.9234C47.5575 59.1176 48.3773 59.2761 49.1708 59.4293C50.6683 59.7184 52.2172 60.0189 53.6475 60.571C53.7625 61.1388 53.9185 61.6978 54.1885 62.2229C54.2669 62.3779 54.4568 62.4398 54.6049 62.357C54.7556 62.2804 54.8157 62.0932 54.7373 61.9425C54.0587 60.6197 54.0256 59.0418 54.0465 57.5379C54.1188 53.0741 54.5831 48.5998 55.4272 44.2422C55.4342 44.2065 55.4403 44.1664 55.4473 44.1298C55.5962 43.4541 55.6633 43.3957 55.8645 43.2294C56.2139 42.9412 56.5824 42.6747 56.9622 42.437C57.1042 42.3464 57.1495 42.1548 57.0589 42.012C56.9683 41.8692 56.7757 41.8248 56.6311 41.9153C56.233 42.167 55.841 42.4492 55.4734 42.7531C55.463 42.7618 55.4551 42.7705 55.4447 42.7792C55.4316 42.7391 55.429 42.6973 55.4124 42.6581C55.2983 42.376 55.1171 42.1566 54.9115 41.9214C54.4472 41.3772 53.9794 40.8346 53.5125 40.2921C53.3313 40.0814 53.1449 39.8628 53.0395 39.6198C52.9158 39.3351 52.901 39.005 52.9916 38.6167C53.0099 38.5574 53.043 38.4599 53.0822 38.365C53.3749 38.7481 53.7094 39.0913 54.0892 39.3899C54.1763 39.4605 54.3061 39.4805 54.4063 39.4291C54.5117 39.3812 54.5814 39.2785 54.5875 39.1635C54.672 37.5769 54.4037 35.9659 54.1197 34.4515C54.0927 34.3113 54.0561 34.1467 54.0143 33.9682C53.8662 33.3395 53.6711 32.4974 53.9002 32.0132C54.1868 32.4077 54.7565 33.9072 55.2957 36.444C55.3288 36.6112 55.4978 36.7165 55.6572 36.6817C55.8227 36.6486 55.9316 36.4875 55.9011 36.3212C55.4699 34.0596 55.1772 31.2913 55.3009 30.7374C55.3375 30.7314 55.3549 30.7392 55.3793 30.7514C55.5666 30.8419 55.7774 31.2216 55.8375 31.5813C56.1119 33.2567 56.3262 34.9679 56.4769 36.666C56.4918 36.835 56.6425 36.9691 56.8115 36.9464C56.9805 36.9325 57.1042 36.7836 57.092 36.6146C56.9656 35.0054 56.9805 33.3656 57.1346 31.7319C57.2104 31.8477 57.2766 32.0271 57.2975 32.2152L57.7288 36.0747C57.747 36.2376 57.8612 36.3839 58.0546 36.3473C58.2201 36.3386 58.3472 36.201 58.3438 36.0373C58.3377 35.527 58.3769 35.1072 58.4161 34.6649C58.4553 34.2312 58.4945 33.7836 58.4884 33.2498C58.4858 32.9006 58.5032 32.6907 58.525 32.5653C58.5284 32.5697 58.5284 32.5731 58.5311 32.5775C58.8595 33.2498 58.869 34.0239 58.8804 34.8443C58.883 35.0715 58.883 35.2997 58.8952 35.5252C58.9614 37.0805 59.4013 38.6254 60.1679 39.9917L60.3552 40.3156C60.6113 40.7484 60.8526 41.1577 60.9519 41.6071C61.1061 42.2924 60.9188 43.0039 60.7228 43.7563C60.6653 43.9748 60.6078 44.1934 60.5599 44.412C60.0477 46.7162 60.4902 49.07 60.9188 51.3472C61.0782 52.1971 61.2446 53.0775 61.3526 53.9379C61.742 56.8918 61.5155 59.9283 61.3012 62.8656L60.9902 67.0987C60.9031 68.2786 60.7794 69.314 60.1313 70.0386C59.2149 71.0635 57.5537 71.0618 56.1964 70.9381C53.881 70.7335 51.5264 70.3538 49.2466 69.9855C44.3779 69.1974 39.3394 68.3892 34.4132 69.2183C34.2442 69.247 34.1327 69.4046 34.1597 69.5736C34.1867 69.7425 34.3522 69.8505 34.5151 69.827C39.3481 69.0162 44.3291 69.8191 49.1465 70.5942C49.2336 70.6081 49.3233 70.6212 49.4104 70.6351C48.1455 71.2673 46.8362 71.822 45.4834 72.247C45.3205 72.2966 45.2299 72.4699 45.2813 72.6328C45.3231 72.7651 45.4442 72.8496 45.5766 72.8496C45.6071 72.8496 45.6367 72.8452 45.6698 72.8348C47.2892 72.3271 48.866 71.6653 50.3521 70.8693C50.3843 70.8519 50.393 70.8162 50.4165 70.791C52.3095 71.0914 54.2312 71.3823 56.1407 71.5521C56.5057 71.5852 56.8942 71.6095 57.2862 71.6095C57.9073 71.6095 58.5398 71.5442 59.1217 71.3605C64.6019 76.3669 67.6291 83.4771 67.0245 89.9586C66.7501 92.9003 65.6917 96.0788 64.263 98.2515C63.5696 99.3035 62.6201 100.174 61.7037 101.015C61.2725 101.412 60.8387 101.808 60.4284 102.224C60.079 102.579 59.687 102.932 59.2854 103.294C58.8055 103.727 58.3211 104.168 57.8795 104.63C57.9047 104.592 57.923 104.55 57.9491 104.512C58.0458 104.372 58.0127 104.179 57.8734 104.081C57.7314 103.98 57.5388 104.017 57.4422 104.157C56.3567 105.706 56.4412 107.665 56.6372 109.705C56.652 109.865 56.7879 109.986 56.9447 109.986C56.9543 109.986 56.963 109.986 56.9717 109.984C57.1407 109.969 57.2671 109.821 57.2522 109.652L57.2218 109.312C57.2218 109.301 57.2191 109.291 57.2191 109.281C57.1294 108.262 57.092 107.278 57.2383 106.377C57.2862 106.352 57.328 106.315 57.3577 106.267C57.9091 105.367 58.8168 104.548 59.6975 103.752C60.1078 103.383 60.5111 103.02 60.8674 102.659C61.2716 102.25 61.6967 101.86 62.1183 101.471C63.0652 100.604 64.0453 99.7075 64.7805 98.5911C66.2823 96.3052 67.3494 93.098 67.6386 90.0161C68.2624 83.323 65.3084 76.2832 59.7358 71.0914C60.0468 70.9259 60.3395 70.7274 60.5869 70.4505C61.4284 69.5082 61.5303 68.1419 61.6026 67.1422L61.9136 62.9091C62.1305 59.9423 62.357 56.8717 61.965 53.8569C61.8509 52.98 61.6845 52.0918 61.5216 51.2314C61.1052 49.016 60.674 46.7258 61.1601 44.5452C61.2054 44.3345 61.2629 44.1229 61.3169 43.9121C61.4014 43.5925 61.4798 43.2677 61.539 42.9403C61.7812 42.9716 62.0251 43.0082 62.2551 43.0082C63.6358 43.0082 64.8232 42.4727 65.9913 41.8309C66.1421 42.6642 66.2257 43.5072 66.3015 44.304L66.6334 47.7838C66.7989 49.5516 66.9409 51.025 67.1552 52.5533C67.2728 53.4163 67.4209 54.3298 67.7911 55.1797C68.7615 57.4282 70.9811 58.7283 73.3628 59.9701L77.0894 61.9112C78.1296 62.4537 79.2063 63.0163 80.4058 63.3062C80.4093 63.3149 80.4119 63.3428 80.4119 63.4116C80.4058 63.6389 80.4119 63.8775 80.4206 64.1213C80.4415 64.8502 80.4659 65.6061 80.1401 66.1347C79.7542 66.7591 79.0547 67.4008 78.1653 67.9416C77.87 68.121 77.4658 68.3649 77.3961 68.8142C77.336 69.1913 77.5616 69.5736 77.9205 69.705C78.1078 69.7747 78.3186 69.7608 78.4989 69.6885C78.5982 69.7939 78.7315 69.8766 78.8883 69.9219C79.0991 69.982 79.3134 69.9611 79.4789 69.8722C79.6087 69.9471 79.762 69.982 79.9101 69.982C80.0068 69.982 80.1061 69.9672 80.1933 69.9367C80.3527 69.8836 80.4886 69.7982 80.6062 69.7033L80.6846 69.8165C80.7569 69.928 80.8954 69.9794 81.0278 69.9367C82.0165 69.638 82.6411 68.7463 83.196 67.8589L85.1073 64.7953C85.3817 64.3538 85.6683 63.8975 85.8216 63.3759C86.2859 61.8328 85.3965 60.0563 83.8825 59.4981L83.7318 59.445C83.6081 59.4023 83.4878 59.3623 83.3911 59.3022C83.216 59.1951 83.0836 59.0052 82.9181 58.7701C82.2204 57.7704 81.4041 56.8569 80.5278 56.0044C82.8711 54.4238 84.1551 51.8044 85.3904 49.2625C85.5803 48.8741 85.7676 48.4866 85.9601 48.1034C86.3399 47.338 86.7258 46.9661 87.1361 46.9661H87.1544C87.5586 46.9783 87.8809 47.3789 88.0046 47.5522C88.1039 47.6941 88.191 47.843 88.2816 47.9937C88.4236 48.2349 88.5708 48.4848 88.7668 48.7095C88.8871 48.848 89.0264 48.9777 89.1675 49.1057C89.4446 49.3617 89.7076 49.6047 89.7617 49.9043C89.7887 50.0488 89.7765 50.2361 89.7678 50.4181C89.7408 50.8552 89.7076 51.3995 90.2138 51.6555C90.6476 51.8723 91.1485 51.6241 91.3802 51.2575C91.4978 51.0694 91.5579 50.8587 91.5884 50.6593C91.8053 50.641 92.0074 50.5173 92.1102 50.3353C92.2156 50.1498 92.2278 49.9539 92.2095 49.7658C92.3576 49.6692 92.4778 49.5054 92.5588 49.2886C92.936 48.2741 92.6677 47.0236 91.8262 45.8567L91.8306 45.8541ZM26.8727 25.7764C26.8666 25.779 26.8658 25.7868 26.8597 25.7903C26.83 25.8051 26.817 25.8365 26.7935 25.86C26.7621 25.8931 26.7255 25.9201 26.7116 25.9627C26.7098 25.9688 26.7029 25.9697 26.7011 25.9758C26.6645 26.1142 26.5748 26.2031 26.4354 26.2379C26.2786 26.2814 26.0765 26.2301 25.965 26.116C25.8805 26.0228 25.7542 25.9958 25.627 26.042C25.512 26.0873 25.4336 26.2005 25.4336 26.325C25.431 26.5888 25.1836 26.8083 24.951 26.9023C24.6461 27.026 24.309 27.0182 23.9292 27.0243C23.8447 27.0243 23.7602 27.06 23.7027 27.1235C23.6452 27.1854 23.6156 27.2716 23.6217 27.3569C23.6609 27.8524 23.3595 28.3653 22.9074 28.5726C22.7776 28.6327 22.7018 28.7711 22.7297 28.9113C22.7593 29.0515 22.8743 29.1543 23.0163 29.1586C23.0433 29.1735 23.1008 29.2727 23.1095 29.4086C23.1513 29.9302 22.9013 30.4649 22.4736 30.7705C22.3533 30.8576 22.3107 31.0179 22.3743 31.1537C22.4378 31.2861 22.5729 31.3644 22.7332 31.3209C22.7515 31.3209 22.8055 31.3496 22.836 31.4097C22.89 31.5073 22.89 31.6536 22.8839 31.7972C22.863 32.2327 22.7785 32.6655 22.6278 33.08C22.5825 33.2054 22.6217 33.3438 22.7244 33.4266C22.8238 33.5093 22.9684 33.5154 23.0833 33.4457C23.153 33.3943 23.3125 33.4501 23.3943 33.5528C23.491 33.6765 23.5389 33.8681 23.5424 34.1389C23.545 34.5064 23.4884 34.8678 23.3647 35.2135C23.3342 35.2936 23.3403 35.3807 23.3769 35.4564C23.4161 35.5322 23.4823 35.5879 23.5642 35.6132C23.7602 35.6715 23.8778 35.9058 23.9083 36.0965C23.9475 36.363 23.8813 36.6573 23.8151 36.9403C23.7907 37.0457 23.8247 37.1545 23.8996 37.2294C23.978 37.3035 24.0747 37.3331 24.1923 37.3096C24.4066 37.2495 24.6714 37.3574 24.7925 37.5473C24.9127 37.7389 24.9005 38.0175 24.7594 38.1969C24.6688 38.3127 24.6749 38.4799 24.7716 38.5923C24.8709 38.7037 25.0399 38.7246 25.1636 38.6506C25.2603 38.5905 25.3683 38.6567 25.411 38.6837C25.5408 38.7664 25.6218 38.9127 25.607 39.0303C25.5678 39.3394 25.1819 39.5415 24.8892 39.5232C24.7986 39.5275 24.6845 39.5667 24.6209 39.6547C24.5608 39.7409 24.5486 39.8524 24.5878 39.9499C24.6993 40.2164 24.6209 40.5629 24.4127 40.7563C24.2167 40.9339 23.9214 40.987 23.674 40.9052C23.6348 40.8852 23.5956 40.8695 23.5538 40.8538C23.3996 40.8024 23.2314 40.8782 23.1705 41.0271C23.1069 41.176 23.1705 41.3484 23.3151 41.4216C23.3456 41.4364 23.3787 41.4521 23.4083 41.4634C23.6226 41.5975 23.674 42.0207 23.6766 42.3656V42.72C23.6766 42.8907 23.8125 43.0291 23.9841 43.0291C24.0808 43.0291 24.1574 42.9804 24.2132 42.9124C24.6026 43.1981 25.0242 43.4915 25.5129 43.6596C25.6253 43.6979 25.7359 43.6944 25.8483 43.7162C25.8614 43.7423 25.857 43.7737 25.8779 43.7963C28.1611 46.225 29.041 49.8564 28.1341 53.0636C27.9233 53.1916 27.7169 53.3301 27.5243 53.4973C26.4964 54.3864 25.8692 55.8102 25.607 57.8479C25.404 59.4354 25.4084 61.0917 25.5974 62.782C25.5974 62.7864 25.5922 62.789 25.5922 62.7933C25.5347 63.497 25.2542 63.9881 24.8448 64.1057C24.613 64.1797 24.3561 64.1013 24.2149 63.9115C24.1278 63.7878 23.944 63.78 23.8046 63.8575C23.6687 63.9324 23.5964 64.1283 23.6539 64.2737C23.5903 64.3443 23.4823 64.3817 23.3917 64.3747C23.1591 64.3251 22.9701 64.09 22.7767 63.8322C22.6861 63.7103 22.5232 63.672 22.3934 63.739C22.2575 63.8052 22.1913 63.9559 22.2305 64.1004C22.2671 64.2241 22.2453 64.3704 22.1704 64.4984C22.0946 64.6282 21.9805 64.7213 21.8568 64.7544C21.7305 64.7849 21.5859 64.7605 21.4561 64.6821C21.3298 64.6055 21.2392 64.4879 21.2087 64.3625C21.1782 64.2406 21.0789 64.1483 20.9552 64.1292C20.8376 64.1065 20.7078 64.1666 20.6416 64.2737C20.4639 64.5689 20.078 64.6369 19.8184 64.5916C19.5501 64.555 19.1999 64.3939 19.1102 64.0612C19.071 63.9228 18.9325 63.8052 18.7905 63.8366C18.6459 63.8453 18.5248 63.9567 18.5073 64.1022C18.4681 64.3843 18.1667 64.5297 17.8862 64.5498C17.5935 64.5785 17.286 64.4644 17.2111 64.191C17.1806 64.0882 17.1022 64.009 17.0003 63.9785C16.9036 63.9419 16.786 63.9707 16.7076 64.0421C16.4785 64.2424 16.1501 64.218 15.921 64.1283C15.6919 64.0395 15.4358 63.8357 15.4027 63.5361C15.3844 63.3794 15.2546 63.2618 15.0952 63.2601C14.9384 63.2601 14.8059 63.3776 14.7877 63.5327C14.7816 63.5797 14.7485 63.6189 14.6849 63.6485C14.5673 63.7042 14.3983 63.6981 14.2929 63.6319C14.0428 63.4734 13.9096 63.1373 13.7867 62.7777C13.7597 62.6975 13.6996 62.6314 13.6212 62.5965C13.5489 62.5634 13.4522 62.5617 13.3773 62.5939C13.0759 62.7219 12.7475 62.5835 12.5454 62.4102C12.3494 62.243 12.1621 61.9565 12.2196 61.6465C12.2222 61.6334 12.2257 61.6195 12.2283 61.6055C12.2588 61.4401 12.1499 61.2816 11.987 61.2467C11.8215 61.2154 11.6586 61.3147 11.622 61.4801C11.6194 61.4906 11.6194 61.5028 11.6159 61.5132C11.595 61.5951 11.5253 61.6569 11.4173 61.6943C11.2152 61.7623 10.9617 61.7187 10.8232 61.5916C10.507 61.3086 10.419 60.8174 10.3467 60.2984C10.3345 60.1991 10.2744 60.1112 10.1838 60.065C10.0993 60.0198 9.99038 60.0198 9.90065 60.065C9.73166 60.1521 9.52694 60.0424 9.39453 59.8917C9.26474 59.7411 9.18633 59.5182 9.30132 59.3597C9.38844 59.2386 9.37711 59.0714 9.27083 58.9634C9.17153 58.8563 9.00514 58.8398 8.87622 58.9243C8.56 59.1428 8.0713 59.1185 7.7786 58.8729C7.48329 58.6247 7.37179 58.1553 7.5251 57.8026C7.5765 57.6868 7.5495 57.5492 7.4589 57.4604C7.3683 57.3716 7.2385 57.3489 7.11568 57.3968C6.89528 57.5005 6.59736 57.4604 6.34386 57.2871C6.09646 57.1173 5.94924 56.8561 5.96057 56.6061C5.96667 56.513 5.92747 56.4224 5.85778 56.3606C5.78547 56.2961 5.69226 56.2691 5.60167 56.2865C5.24015 56.3545 4.94484 56.1071 4.77846 55.8598C4.62165 55.6247 4.50754 55.2415 4.70006 54.9359C4.76975 54.8244 4.76016 54.6825 4.67915 54.5806C4.59465 54.4796 4.46485 54.4404 4.33854 54.4796C4.05543 54.5701 3.81064 54.3707 3.67213 54.1373C3.53362 53.904 3.48223 53.5809 3.68433 53.3928C3.79583 53.2892 3.81412 53.1185 3.72614 52.9922C3.64513 52.8659 3.48223 52.8215 3.33762 52.8895C3.25573 52.9304 3.15643 52.9269 3.05102 52.8764C2.87941 52.7945 2.7348 52.6186 2.69212 52.4375C2.60501 52.0726 2.74003 51.6642 2.91513 51.2096C2.95433 51.1069 2.93603 50.9911 2.86721 50.9048C2.79752 50.8204 2.69212 50.7786 2.578 50.7951C2.21649 50.8361 1.9717 50.5687 1.84539 50.2735C1.72169 49.9765 1.71559 49.5882 1.9839 49.3879C2.11979 49.2834 2.1468 49.0909 2.044 48.9551C1.95689 48.8419 1.81141 48.8044 1.67639 48.8558C1.4499 48.7008 1.03089 47.8657 1.00388 47.6366C1.01869 47.3371 1.19989 47.0506 1.45948 46.9086C1.58579 46.839 1.64939 46.6918 1.61018 46.5533C1.57098 46.4158 1.45948 46.3365 1.29658 46.3287C1.13717 46.3531 0.974265 46.2747 0.840984 46.1536C0.708573 46.0343 0.630172 45.8767 0.62059 45.72C0.614492 45.565 0.678084 45.3986 0.798299 45.2663C0.9159 45.1365 1.0727 45.0581 1.22341 45.0494C1.2295 45.0494 1.23212 45.0494 1.2356 45.0477C1.4046 45.039 1.5344 44.8936 1.52481 44.7237C1.5161 44.5592 1.38021 44.4311 1.21731 44.4311C1.21121 44.4294 1.20511 44.4329 1.1964 44.4329C1.10319 44.4494 0.991688 44.358 0.921998 44.2404C0.834886 44.0941 0.804397 43.8938 0.78349 43.704C0.753 43.4401 0.740805 43.1632 0.831401 42.9368C0.967297 42.6068 1.32881 42.376 1.7182 42.1505H1.72082C1.86542 42.0642 1.91682 41.8761 1.83232 41.729C1.77831 41.6367 1.68423 41.5827 1.58492 41.5766C1.42812 41.3685 1.18072 40.6692 1.15372 40.4959C1.10842 39.9926 1.27393 39.3987 1.55443 39.0512C1.61454 38.9763 1.63632 38.8762 1.61193 38.783C1.58754 38.6898 1.52481 38.6114 1.43422 38.5731C1.14501 38.4512 0.933323 38.1403 0.888024 37.7624C0.840113 37.3836 0.96991 37.0318 1.22254 36.8419C1.35843 36.7392 1.38544 36.5467 1.28264 36.4091C1.26783 36.39 1.24954 36.3717 1.23125 36.356C1.15894 36.1844 1.02915 35.702 1.01434 35.6193C0.996044 35.3136 1.05615 35.0001 1.18943 34.7119C1.32533 34.4132 1.53875 34.219 1.78615 33.9943L1.86455 33.9281C2.09104 33.734 2.12415 33.5877 2.00306 33.3029L1.88198 33.0207C1.80967 32.8553 1.73998 32.6994 1.70427 32.5401C1.64067 32.2205 1.66768 31.9165 1.78267 31.6823C1.93947 31.3583 2.29837 31.1049 2.73829 31.0057C2.82279 30.9856 2.89509 30.9316 2.9369 30.855C2.97959 30.7792 2.9883 30.6896 2.9613 30.6068C2.67208 29.7465 2.84631 28.6205 3.74182 28.2321C3.82371 28.1964 3.88643 28.1267 3.91343 28.0422C3.94044 27.956 3.92824 27.8646 3.88033 27.7871C3.60331 27.3334 3.59373 26.7247 3.85332 26.163C4.11292 25.5996 4.57984 25.2121 5.10426 25.1259C5.20705 25.1093 5.29155 25.0449 5.33685 24.9526C5.37953 24.8611 5.37256 24.754 5.32204 24.6661C5.10164 24.2881 5.30723 23.7848 5.63303 23.5148C5.94924 23.244 6.37435 23.2545 7.10174 23.5523C7.21673 23.6019 7.33956 23.5767 7.42754 23.4948C7.51814 23.4138 7.55124 23.2884 7.51465 23.1735L7.46674 23.0307C7.31342 22.5726 7.24112 22.2757 7.51204 22.0179C7.86746 21.6774 8.63666 21.7436 8.73945 21.8011C8.78475 21.9665 8.95636 22.0675 9.11664 22.0214C9.28216 21.9778 9.37885 21.8106 9.33704 21.6443C9.25864 21.3491 9.39105 20.9964 9.64193 20.8249C9.89543 20.6542 10.2691 20.6594 10.5165 20.8371C10.6193 20.9119 10.7544 20.9172 10.8659 20.8458C10.9747 20.7761 11.0261 20.6472 10.9983 20.5218C10.9504 20.305 11.1403 20.1195 11.2213 20.049C11.4504 19.8635 11.7187 19.8017 11.845 19.8548C11.8694 19.8652 11.926 19.8896 11.9382 20.0403C11.9504 20.1996 12.0863 20.3233 12.2457 20.3233C12.2518 20.3233 12.2579 20.3233 12.264 20.3215C12.4295 20.3128 12.5593 20.1726 12.5532 20.0054C12.5471 19.7459 12.7248 19.4821 13.0088 19.3331C13.2257 19.2199 13.5332 19.1642 13.778 19.3375C13.8625 19.4011 13.974 19.4124 14.0768 19.3749C14.1761 19.334 14.2458 19.2452 14.2641 19.1381C14.3155 18.8307 14.5629 18.552 14.9096 18.4101C15.265 18.2673 15.6335 18.303 15.88 18.485C15.9584 18.5451 16.0673 18.559 16.1605 18.5302C16.2572 18.4989 16.3321 18.4214 16.3592 18.3256C16.4794 17.9154 16.9141 17.7352 17.246 17.703C17.6049 17.676 18.0448 17.7726 18.2382 18.1541C18.2922 18.2638 18.4037 18.3604 18.5309 18.3212C18.6546 18.3134 18.7626 18.2342 18.8018 18.1175C18.9647 17.6673 19.5013 17.3433 19.9569 17.4165C20.4299 17.4809 20.8463 17.9215 20.8855 18.3979C20.8977 18.5381 21.0031 18.6522 21.1416 18.6765C21.2505 18.6931 21.4186 18.6287 21.4735 18.4989C21.5972 18.2324 21.9378 18.1715 22.2148 18.2228C22.498 18.2768 22.788 18.4658 22.7994 18.7628C22.8028 18.903 22.9022 19.0223 23.0407 19.0519C23.1731 19.085 23.3212 19.0144 23.3813 18.889C23.4684 18.7201 23.6679 18.6792 23.8491 18.7079C24.0085 18.7288 24.2106 18.8211 24.2498 19.0075C24.2742 19.1337 24.3761 19.2304 24.5033 19.2495C24.6566 19.2844 24.7594 19.2069 24.823 19.0945C24.9101 18.9334 25.1061 18.896 25.2786 18.9256C25.4328 18.9482 25.6279 19.0388 25.6671 19.2182C25.6976 19.3506 25.8091 19.449 25.9415 19.4594C26.08 19.4821 26.2037 19.3941 26.2551 19.2678C26.3483 19.0327 26.6593 19.0371 26.8309 19.0763C27.0025 19.1172 27.283 19.2539 27.2621 19.5099C27.2534 19.6188 27.3013 19.725 27.3919 19.7868C27.4799 19.8487 27.5966 19.8609 27.6968 19.8156C27.7752 19.7808 27.8501 19.7311 27.9285 19.6797C28.1097 19.5543 28.2029 19.4899 28.4381 19.6214C28.655 19.8652 28.6158 20.0403 28.5409 20.4051C28.5165 20.5079 28.4956 20.6159 28.4773 20.7326C28.4529 20.8832 28.5435 21.0295 28.6916 21.0748C28.8397 21.1175 28.9991 21.0495 29.0627 20.9093C29.0714 20.8867 29.1019 20.8745 29.1472 20.8736H29.162C29.2648 20.8736 29.3824 20.9311 29.4277 21.0077C29.5636 21.235 29.5061 21.5773 29.4425 21.8786C29.4155 22.0048 29.4695 22.1328 29.5784 22.2043C29.6899 22.2739 29.8284 22.2661 29.9278 22.1912C30.0088 22.1311 30.136 22.1276 30.1995 22.1668C30.3624 22.3053 30.2448 22.6579 30.0907 23.0698C30.0602 23.1543 30.0306 23.2344 30.0035 23.3093C29.9556 23.4556 30.0184 23.6141 30.1569 23.6829C30.6543 23.9372 30.8956 24.6095 30.6761 25.1224C30.6429 25.2008 30.6429 25.2913 30.6761 25.3697C30.7118 25.4481 30.7788 25.5082 30.8599 25.5369C30.947 25.5674 31.0019 25.6301 31.0045 25.7058C31.0062 25.7302 30.9923 25.7668 30.9644 25.8025C29.676 25.2547 28.162 25.2051 26.8797 25.7738L26.8727 25.7764ZM1.40199 41.6193C1.40199 41.6193 1.40808 41.6175 1.40808 41.6166C1.40808 41.6184 1.40547 41.6184 1.40547 41.6193H1.40199ZM38.2147 10.8113C38.0614 10.719 37.9612 10.6075 37.9525 10.5065C37.9403 10.4098 38.0161 10.2757 38.1511 10.1512C38.2417 10.0685 38.2748 9.94306 38.2356 9.82724C38.1991 9.71229 38.0971 9.6313 37.9795 9.61737C37.3706 9.54683 37.0692 9.39531 36.9995 9.12449C36.9786 9.04002 37.0178 8.92071 37.0901 8.85192C37.1084 8.83537 37.1319 8.81709 37.1537 8.81273C37.1868 8.81709 37.2112 8.82144 37.2591 8.82666C37.4037 8.82666 37.5335 8.72391 37.5605 8.57761C37.5936 8.41912 37.4969 8.26585 37.3436 8.22057C37.3105 8.21186 37.28 8.20403 37.2469 8.19967C37.1868 8.18138 37.1293 8.13784 37.084 8.08037C37.0265 8.00635 36.9995 7.91578 37.0082 7.84263C37.0204 7.766 37.0718 7.68763 37.1502 7.63277C37.2225 7.57965 37.3157 7.557 37.3915 7.5692C37.5065 7.58574 37.6206 7.5422 37.6929 7.45163C37.7626 7.3602 37.774 7.2348 37.7234 7.1303C37.564 6.80026 37.5126 6.56514 37.5544 6.36659C37.5936 6.1811 37.7565 6.02436 37.9011 6.05483C37.9978 6.07138 38.1067 6.04613 38.179 5.97646C38.2513 5.90418 38.2879 5.80142 38.2696 5.70041C38.2243 5.43829 38.1912 5.20752 38.2635 5.03597C38.294 4.96369 38.3663 4.89751 38.5109 4.87313C38.6433 4.95411 38.8245 4.91406 38.9177 4.78866C39.0109 4.66239 38.9927 4.48387 38.8759 4.37763C38.7557 4.26878 38.7165 4.06587 38.7914 3.91958C38.8611 3.77589 39.0414 3.67226 39.2043 3.7158C39.3071 3.73844 39.4151 3.70187 39.4909 3.6235C39.5632 3.54512 39.5902 3.4354 39.5632 3.33264C39.4875 3.05224 39.4909 2.85369 39.572 2.72219C39.6051 2.66646 39.68 2.61857 39.8133 2.62902C39.8978 2.72829 40.0363 2.76312 40.1573 2.71523C40.2776 2.6682 40.356 2.55151 40.3533 2.42176C40.3507 2.24672 40.4858 2.10652 40.6129 2.03424C40.7427 1.96196 40.9326 1.91059 41.0833 2.00899C41.1591 2.05427 41.2523 2.07256 41.3395 2.04034C41.4266 2.01334 41.4963 1.94977 41.5294 1.86704C41.5808 1.74948 41.7071 1.65892 41.8639 1.62931C42.0146 1.60319 42.1749 1.63715 42.2646 1.73033C42.3456 1.8148 42.4789 1.84615 42.5965 1.8026C42.7106 1.75906 42.789 1.65021 42.7925 1.52829C42.8012 1.32452 42.9763 1.17997 43.1331 1.11378C43.2838 1.04586 43.519 1.02148 43.6697 1.15645C43.7664 1.24354 43.9145 1.25747 44.0286 1.19216C44.1462 1.12597 44.2037 0.993609 44.1767 0.862115C44.1706 0.836861 44.1828 0.800286 44.2037 0.768937C44.2246 0.738458 44.2551 0.717558 44.2821 0.714946C44.3126 0.718429 44.3457 0.725396 44.3753 0.748037C44.4058 0.77242 44.4232 0.80377 44.4267 0.832507C44.4354 0.954422 44.5173 1.05979 44.6314 1.09898C44.7455 1.13642 44.8727 1.10769 44.9598 1.01799C45.141 0.823799 45.3518 0.62438 45.5661 0.618284C45.6236 0.630476 45.6837 0.648763 45.7317 0.701013C45.7621 0.734104 45.7743 0.762841 45.777 0.777645C45.7682 0.796803 45.7587 0.816832 45.75 0.83599C45.6898 0.98403 45.7526 1.15297 45.8919 1.22612C46.0304 1.30101 46.2082 1.25747 46.2961 1.12249C46.317 1.0894 46.3353 1.05457 46.3502 1.01886C46.432 0.893465 46.5975 0.841215 46.7273 0.83512C46.8902 0.832507 47.0741 0.876919 47.1525 1.03367C47.2065 1.13468 47.3127 1.19912 47.4269 1.19912H47.433C47.5532 1.19651 47.6594 1.12685 47.7074 1.01973C47.7614 0.900431 47.9121 0.869081 48.0358 0.876048C48.1621 0.884756 48.3076 0.948326 48.3433 1.06763C48.3764 1.18867 48.4792 1.27576 48.6029 1.28882C48.7179 1.30101 48.8468 1.24354 48.9078 1.13555C48.9505 1.06763 49.0559 1.0267 49.143 1.06153C49.2153 1.09637 49.2632 1.21393 49.2336 1.28882C49.1761 1.42902 49.2309 1.58751 49.3573 1.66588C49.4897 1.74861 49.6561 1.71988 49.7519 1.60841C49.8155 1.53178 49.9662 1.50304 50.0533 1.55703C50.1465 1.61015 50.2014 1.74513 50.1709 1.84615C50.1291 1.98809 50.1918 2.14135 50.3251 2.20928C50.461 2.27894 50.6204 2.24411 50.711 2.12307C50.7833 2.02379 50.9401 1.9968 51.049 2.04905C51.1518 2.10826 51.2084 2.25892 51.1666 2.36864C51.1187 2.49839 51.1605 2.64469 51.272 2.72568C51.3835 2.80666 51.5377 2.80666 51.6431 2.72219C51.7154 2.6682 51.8452 2.66646 51.9236 2.73003C51.9933 2.79012 52.0168 2.91987 51.9715 3.0026C51.914 3.11406 51.9297 3.25078 52.0107 3.34657C52.0917 3.44411 52.2337 3.47894 52.3426 3.43975C52.4236 3.42059 52.5116 3.44846 52.59 3.51813C52.6501 3.57212 52.7102 3.66878 52.6893 3.7576C52.6588 3.89432 52.759 4.02843 52.8853 4.09374C53.0055 4.15557 53.1989 4.12248 53.2921 4.01972C53.3609 4.02756 53.4306 4.06936 53.4637 4.12335C53.5543 4.27748 53.4968 4.50303 53.4158 4.66413C53.3705 4.75295 53.3705 4.85832 53.4158 4.94715C53.4637 5.03597 53.5482 5.09606 53.6475 5.10999C53.7442 5.12305 53.8409 5.19707 53.8976 5.30418C53.955 5.40955 53.9638 5.52537 53.9219 5.61159C53.8679 5.72131 53.8862 5.8528 53.9638 5.94598C54.0456 6.03916 54.172 6.07573 54.2896 6.0409C54.3767 6.00607 54.4769 6.09054 54.537 6.17762C54.5945 6.26383 54.6276 6.3901 54.5674 6.46238C54.489 6.55904 54.4742 6.69141 54.5309 6.80113C54.5849 6.90389 54.6903 6.96833 54.8053 6.96833C54.814 6.96833 54.8236 6.96397 54.8445 6.96659C54.9621 6.96659 55.0884 7.05889 55.1215 7.17036C55.1572 7.28618 55.0945 7.44031 54.9891 7.49866C54.8898 7.55439 54.8297 7.6615 54.8323 7.77558C54.8323 7.89053 54.8985 7.99242 55.0013 8.04379C55.1398 8.11172 55.1973 8.27282 55.206 8.39909C55.2147 8.5271 55.1816 8.69343 55.0579 8.78225C54.9673 8.84582 54.9194 8.95293 54.9281 9.06266C54.9368 9.17238 55.0065 9.2673 55.1058 9.31433C55.2539 9.38225 55.3654 9.53726 55.4011 9.73058C55.4377 9.9239 55.395 10.1085 55.2835 10.2261C55.2173 10.2957 55.1868 10.3889 55.2025 10.4821C55.2147 10.5744 55.2687 10.6571 55.3506 10.7033C55.4682 10.773 55.5527 10.9079 55.5832 11.0638C55.6137 11.2206 55.5806 11.3773 55.4961 11.4844C55.4421 11.5523 55.4177 11.6412 55.4325 11.7282C55.4473 11.8145 55.4987 11.8911 55.5745 11.9381C55.7975 12.0783 55.855 12.3605 55.8367 12.5782C55.8158 12.7967 55.7043 13.0632 55.4595 13.1599C55.3602 13.1991 55.2879 13.2853 55.267 13.3889C55.2487 13.4925 55.2818 13.5996 55.3602 13.6719C55.4839 13.7895 55.5379 13.9811 55.5083 14.1857C55.4778 14.3921 55.3663 14.561 55.213 14.6359C55.1224 14.6812 55.0588 14.7674 55.044 14.8667C55.0291 14.9677 55.0622 15.0687 55.1372 15.1375C55.2243 15.222 55.2339 15.3622 55.2095 15.4641C55.1886 15.5686 55.1224 15.6931 55.0047 15.734C54.9081 15.7671 54.8331 15.8472 54.8061 15.9448C54.7791 16.0432 54.8027 16.1485 54.8697 16.2269C54.969 16.3419 54.9455 16.5178 54.8967 16.6327C54.8453 16.7485 54.7338 16.887 54.5805 16.8948C54.4838 16.9009 54.3906 16.9541 54.3392 17.0385C54.2852 17.123 54.2756 17.2266 54.3122 17.3189C54.3636 17.4469 54.3427 17.608 54.2521 17.7517C54.1641 17.8954 54.0291 17.9869 53.8906 17.9973C53.7251 18.0095 53.5979 18.1523 53.6075 18.3195C53.6136 18.4928 53.5256 18.6748 53.3723 18.8089C53.2155 18.9465 53.0169 19.0031 52.8566 18.97C52.7721 18.9491 52.691 18.9718 52.6187 19.0197C52.5491 19.0675 52.5046 19.1416 52.4924 19.2243C52.4776 19.3192 52.3722 19.3845 52.272 19.408C52.1666 19.4289 52.0429 19.4167 51.9889 19.3375C51.9253 19.2487 51.8591 19.1868 51.7145 19.2078C51.6091 19.2138 51.5124 19.2774 51.461 19.3723C51.407 19.4812 51.2589 19.5099 51.1265 19.4794C50.9967 19.4551 50.8582 19.3758 50.846 19.2522C50.8312 19.1372 50.7554 19.0397 50.6474 18.9979C50.6247 18.99 50.603 18.9953 50.5803 18.9918C50.5315 18.8951 50.4514 18.8176 50.3338 18.8133C50.2153 18.8072 50.1387 18.8638 50.0855 18.9395C50.0855 18.9369 50.0838 18.9352 50.0838 18.9317C50.0864 18.8943 50.0986 18.8594 50.1169 18.8368C50.1291 18.8281 50.1378 18.8176 50.15 18.8063C50.265 18.687 50.265 18.4989 50.15 18.3796C50.0385 18.2603 49.8486 18.2542 49.7249 18.3587C49.7162 18.3665 49.7066 18.3735 49.6979 18.3831C49.677 18.3892 49.6256 18.3892 49.5864 18.3691C49.5324 18.3439 49.4993 18.3047 49.5019 18.2829C49.5019 18.2803 49.5001 18.2786 49.5001 18.2768C49.6038 18.1802 49.7005 18.0722 49.7824 17.9485C50.0054 17.6159 50.1474 17.197 50.2162 16.6676C50.3094 15.9805 50.3303 15.4484 49.7432 14.8528C49.2649 14.3686 48.8024 14.0803 48.3407 13.968C48.2788 13.8992 48.1978 13.8513 48.1055 13.8548C47.8581 13.867 47.6142 13.8792 47.433 13.7912C47.3755 13.7607 47.3214 13.7129 47.2883 13.6597C47.3336 13.5056 47.3127 13.348 47.2282 13.22C47.1646 13.125 47.0802 13.0658 46.939 13.0815C46.8249 13.092 46.7282 13.166 46.6829 13.2713C46.6524 13.348 46.635 13.4237 46.6315 13.4986C46.5888 13.4908 46.5322 13.4716 46.4686 13.4307C46.3536 13.3584 46.2935 13.2679 46.2874 13.2261C46.2752 13.1564 46.3144 13.0728 46.378 13.0362C46.4869 12.9779 46.547 12.8586 46.5348 12.7349C46.5226 12.613 46.4381 12.5085 46.3205 12.4711C46.2334 12.4441 46.0888 12.2237 46.0827 12.1907C46.1132 12.1201 46.2665 11.8893 46.351 11.7962C46.4111 11.7753 46.4686 11.7326 46.5052 11.6743C46.5984 11.5306 46.5566 11.3399 46.412 11.2476C46.2918 11.1692 46.2404 10.9523 46.3031 10.7608C46.3754 10.5317 46.5653 10.3297 46.7613 10.1442C46.8702 10.0432 46.8911 9.88036 46.8127 9.75583C46.6045 9.42405 46.5078 9.02782 46.5418 8.64031C46.554 8.51491 46.4878 8.39648 46.3763 8.339C46.2648 8.28327 46.1289 8.29546 46.0357 8.37645C45.8667 8.5271 45.5775 8.54365 45.3788 8.41999C45.1863 8.29459 45.0835 8.02551 45.1463 7.80693C45.1855 7.66499 45.1193 7.51608 44.9895 7.44815C44.857 7.38197 44.6968 7.41332 44.6062 7.52827C44.4886 7.67892 44.2717 7.76948 44.0452 7.74859C43.8161 7.73639 43.6166 7.63277 43.5147 7.47166C43.4606 7.38719 43.37 7.33494 43.2707 7.32972C43.1775 7.32798 43.0747 7.36717 43.0111 7.44902C42.9388 7.54046 42.8125 7.56049 42.6679 7.59358C42.5259 7.59358 42.3996 7.5361 42.3299 7.44467C42.2602 7.35323 42.1522 7.31317 42.0407 7.32362C41.9292 7.34017 41.836 7.41419 41.7933 7.51956C41.7419 7.65541 41.6069 7.76078 41.4318 7.80171C41.2602 7.83306 41.0886 7.80954 40.9823 7.70853C40.8708 7.60925 40.7105 7.59967 40.5903 7.68414C40.2584 7.92101 39.8516 8.06557 39.4448 8.08995C39.2758 8.09866 39.146 8.24496 39.1556 8.41564C39.1582 8.47311 39.1817 8.52536 39.2122 8.57238C38.7775 9.24031 38.4691 9.98051 38.3027 10.7573C38.2522 10.7834 38.2165 10.7991 38.2208 10.8043L38.2147 10.8113ZM43.5695 44.2753C43.7533 44.7028 43.8169 45.1835 43.7621 45.6468C43.1984 45.0233 42.8186 44.1246 43.1261 43.293C43.235 42.9978 43.4275 42.7261 43.7141 42.484C43.7864 42.4204 43.8797 42.3438 43.9406 42.2323C43.9981 42.1357 44.0216 42.0407 44.0582 41.8892C44.127 41.6358 44.3623 41.4146 44.5678 41.2204L44.9442 40.8651C44.9956 40.8172 45.047 40.7676 45.1097 40.7267C45.2935 40.6056 45.5409 40.5943 45.8275 40.5786C45.9625 40.5717 46.1028 40.549 46.2413 40.5299C46.2029 40.5525 46.1576 40.5638 46.1315 40.6021C45.8484 41.0315 45.5592 41.4973 45.4381 42.0399C45.2342 42.9403 45.5705 43.913 46.2613 44.5235C46.189 44.5217 46.1167 44.5269 46.0444 44.5217C46.0383 44.52 46.0296 44.52 46.0235 44.52C46.0087 44.52 45.9991 44.533 45.9852 44.5348C46.0287 44.4129 46.0148 44.2761 45.9059 44.1925C45.77 44.0872 45.5836 44.1116 45.4721 44.2457C45.3336 44.4207 45.0504 44.4459 44.8361 44.3876C44.5469 44.3092 44.2812 44.0985 44.046 43.9113C43.931 43.8242 43.7751 43.8242 43.6662 43.9086C43.5547 43.9949 43.5129 44.1455 43.5695 44.2761V44.2753ZM44.7482 46.0927L44.513 45.1208C44.4929 45.0372 44.4372 44.9711 44.3666 44.9301C44.364 44.9092 44.3675 44.8883 44.3649 44.8674C44.4616 44.9145 44.5635 44.9536 44.6724 44.9824C44.776 45.0111 44.891 45.0268 45.0095 45.0294L44.7804 45.9542C44.7717 45.9934 44.7595 46.043 44.7473 46.0927H44.7482ZM45.6463 45.1539C45.6489 45.0947 45.6489 45.0364 45.6489 44.9763C45.6498 44.9441 45.6271 44.9205 45.6193 44.8918C45.655 44.8735 45.689 44.8526 45.7229 44.8309C45.7238 44.9049 45.7447 44.9754 45.7892 45.0285C45.7404 45.0634 45.6907 45.1026 45.6454 45.1548L45.6463 45.1539ZM53.3914 37.7319C53.5718 37.4245 53.7347 37.1075 53.8618 36.7749C53.9298 37.3374 53.9786 37.9026 53.9821 38.4643C53.766 38.2396 53.5683 37.9949 53.3906 37.7319H53.3914ZM83.0714 59.8256C83.2256 59.9222 83.3911 59.978 83.5392 60.0276L83.6751 60.0746C84.872 60.5161 85.5986 61.9748 85.2336 63.1974C85.1012 63.6406 84.8389 64.0612 84.5794 64.4766L82.6742 67.5297C82.2073 68.276 81.7308 68.9701 81.0583 69.267L80.9076 69.0511C80.8562 68.977 80.7717 68.9309 80.682 68.923C80.5975 68.9082 80.5042 68.9483 80.4372 69.0154C80.3013 69.1538 80.1601 69.2975 80.0033 69.348C79.8979 69.3889 79.7891 69.3506 79.762 69.3045C79.7106 69.2017 79.6052 69.1355 79.4876 69.1355H79.485C79.3674 69.1373 79.262 69.2052 79.2106 69.3088C79.1958 69.3393 79.1261 69.3402 79.0599 69.3236C78.9937 69.3053 78.9362 69.2618 78.9388 69.2322C78.9536 69.0876 78.8665 68.9535 78.7306 68.9082C78.5947 68.8673 78.444 68.917 78.3691 69.0397C78.3238 69.1103 78.2245 69.1547 78.1339 69.1242C78.0555 69.0937 77.9954 68.9918 78.0076 68.9091C78.0346 68.7419 78.2759 68.5974 78.4867 68.4676C79.174 68.0487 80.1088 67.3599 80.6663 66.4569C81.0914 65.7698 81.0644 64.8824 81.04 64.1004C81.0313 63.8679 81.0252 63.6406 81.0278 63.4264C81.0304 63.3062 81.04 63.0589 80.8527 62.8874C80.7499 62.7881 80.6262 62.7559 80.5452 62.7332C79.4328 62.4345 78.3865 61.8894 77.3734 61.3608L73.6468 59.4198C71.3705 58.2328 69.2511 56.9954 68.3582 54.9324C68.0211 54.153 67.8791 53.2865 67.7641 52.4671C67.5533 50.951 67.4113 49.4845 67.2484 47.7229L66.9165 44.243C66.7353 42.3264 66.5306 40.1545 65.3972 38.3763C65.3101 38.2335 65.1167 38.1943 64.9721 38.2814C64.8275 38.3728 64.7857 38.5644 64.8789 38.7081C65.3624 39.4683 65.6603 40.3226 65.8633 41.2021C64.493 41.9676 63.195 42.5554 61.6087 42.3368C61.6244 42.0494 61.6192 41.7612 61.5538 41.4695C61.4301 40.9252 61.1557 40.455 60.8874 40.0004L60.7036 39.6869C59.9858 38.4042 59.5764 36.956 59.5093 35.4956C59.5006 35.2771 59.4971 35.0559 59.4945 34.8338C59.4858 33.9821 59.4762 33.1009 59.0842 32.3023C59.0058 32.1421 58.8699 31.9192 58.6112 31.8408C58.4579 31.7955 58.3098 31.8216 58.1896 31.9113C58.0633 32.0045 57.9814 32.1569 57.9361 32.3607L57.9117 32.1447C57.8664 31.7511 57.6739 31.2704 57.3359 31.0762C57.1486 30.9691 56.9413 30.9647 56.7392 31.0475C56.6398 31.091 56.5702 31.1859 56.558 31.2965C56.5397 31.4776 56.5222 31.6596 56.504 31.8408C56.4857 31.7206 56.4682 31.5978 56.4465 31.4776C56.3681 31.0048 56.0815 30.4004 55.6476 30.1923C55.4185 30.0808 55.1711 30.0896 54.9995 30.1941C54.6798 30.2994 54.6319 31.1642 54.7042 32.2266C54.4943 31.7763 54.273 31.4663 54.0474 31.3627C53.9873 29.9032 53.5726 28.4733 52.8287 27.2185C52.6057 26.8492 52.2947 26.3851 51.8365 26.0777C51.0769 25.5761 50.0062 25.6161 49.2919 26.1648C49.156 26.2684 49.129 26.4634 49.2344 26.5984C49.3372 26.7299 49.5332 26.7569 49.6656 26.6559C50.1779 26.2597 50.9497 26.2309 51.4924 26.5915C51.8478 26.8292 52.1109 27.2211 52.2973 27.5346C53.0151 28.745 53.4132 30.1296 53.4463 31.543C53.4463 31.5482 53.4515 31.5508 53.4515 31.556C52.9776 32.2353 53.2277 33.3125 53.4097 34.1032C53.4489 34.2704 53.4855 34.4254 53.509 34.5595C53.5735 34.9035 53.6362 35.2535 53.6954 35.6054C53.6127 35.6445 53.5404 35.7072 53.5177 35.8013C53.3522 36.5171 53.0473 37.192 52.6318 37.7937C52.6109 37.6187 52.5743 37.4445 52.5229 37.2704C52.475 37.1093 52.306 37.0109 52.1457 37.0605C51.9828 37.1058 51.8861 37.2712 51.9288 37.4341C52.0316 37.8364 52.0464 38.2596 51.9706 38.6611C51.9619 38.7168 51.9672 38.7725 51.9854 38.8239C51.8321 39.6991 51.3765 40.5795 50.9305 41.378C50.6265 41.9206 50.3486 42.403 49.9958 42.8227C49.2074 43.7754 48.0384 44.3833 46.804 44.5026C46.8624 44.3763 46.8493 44.2256 46.7334 44.1359C46.1663 43.6866 45.8797 42.8802 46.04 42.174C46.0836 41.9824 46.1646 41.7995 46.2526 41.6193C46.2526 41.6497 46.2482 41.6793 46.2482 41.7098C46.2482 41.8796 46.3841 42.019 46.5557 42.019C46.7273 42.019 46.8632 41.8805 46.8632 41.7098C46.8659 38.7499 48.0271 35.8083 50.0498 33.6399C50.1639 33.5145 50.1587 33.3186 50.035 33.2028C49.9087 33.0869 49.7153 33.093 49.5977 33.2176C49.1917 33.6538 48.8302 34.1267 48.4922 34.6161C47.5253 32.7064 47.1934 30.4509 47.5985 28.354C47.629 28.1868 47.5201 28.024 47.3511 27.9926C47.1856 27.9578 47.0227 28.071 46.9896 28.2364C46.8362 29.0385 46.7901 29.8623 46.8319 30.6835C46.5793 30.6338 46.3441 30.5276 46.1393 30.3038C45.6175 29.7299 45.4006 28.7346 45.4938 28.1049C45.5208 27.936 45.4032 27.7793 45.2342 27.754C45.0652 27.7314 44.9058 27.8463 44.8849 28.0144C44.7673 28.7946 45.0051 29.9746 45.6811 30.7192C46.0226 31.0927 46.4364 31.2965 46.8859 31.3357C47.0383 32.6907 47.4452 34.0187 48.1002 35.2056C47.8711 35.5818 47.6655 35.9711 47.4774 36.3691C46.3824 35.2431 45.5583 33.8776 45.1053 32.3694C44.3091 29.7107 44.6776 26.8719 45.1898 24.2002C45.1898 24.1984 45.1881 24.1967 45.1881 24.1941C45.3031 24.087 45.3275 23.9119 45.2281 23.7857C45.1166 23.6498 44.9293 23.6272 44.7943 23.7325C44.019 24.3404 43.1244 24.9743 42.2402 24.7471C41.4562 24.5494 40.944 23.716 40.525 22.9488C39.937 21.8681 39.4151 20.8884 39.0144 19.8417C38.4987 18.4989 38.3846 17.4652 38.6555 16.5848C38.6947 16.4525 38.7461 16.3227 38.794 16.1912C38.8751 15.9813 38.9535 15.7741 39.0022 15.5564C39.159 14.8771 39.0353 14.2049 38.9116 13.5535C38.869 13.3262 38.8271 13.0981 38.8001 12.8708C38.6068 11.4165 38.9874 9.89604 39.8403 8.69952C39.8533 8.68124 39.8455 8.65947 39.8542 8.63944C40.1722 8.57674 40.4814 8.47834 40.7567 8.31027C40.9919 8.43654 41.275 8.47398 41.5616 8.40693C41.7907 8.35381 41.9928 8.24147 42.1435 8.08559C42.2942 8.16832 42.4719 8.2136 42.6557 8.21535C42.8308 8.21099 43.0538 8.16223 43.2167 8.06905C43.4275 8.24495 43.7054 8.35207 44.0033 8.36861C44.2142 8.3808 44.3832 8.34945 44.5522 8.29024C44.6306 8.5541 44.7996 8.79183 45.0374 8.94248C45.2996 9.11142 45.6315 9.15932 45.9268 9.09488C45.9599 9.36135 46.0383 9.62347 46.1594 9.86817C45.966 10.0685 45.7944 10.2975 45.7073 10.5779C45.6141 10.8609 45.6315 11.2171 45.8005 11.4914C45.6376 11.696 45.4956 11.9555 45.4782 12.0531C45.4416 12.3021 45.5653 12.6017 45.7613 12.8159C45.6742 12.9727 45.6376 13.1581 45.6707 13.3375C45.7099 13.5683 45.8815 13.7991 46.1289 13.9567C46.3641 14.1073 46.6289 14.1552 46.8406 14.1012C46.9277 14.2066 47.0392 14.2928 47.1568 14.3494C47.3728 14.4548 47.5967 14.48 47.8136 14.4827C47.8511 14.5001 47.8807 14.5306 47.926 14.5314C48.345 14.5393 48.8067 14.7953 49.2945 15.289C49.6595 15.6583 49.6892 15.9117 49.5994 16.5883C49.5393 17.022 49.4304 17.3555 49.2614 17.6072C49.0681 17.8937 48.7788 18.0853 48.4983 18.1044C48.4861 18.1044 48.4713 18.1062 48.4565 18.1062C48.1908 18.1062 47.9321 17.9363 47.865 17.7125C47.8232 17.5497 47.6507 17.4548 47.4852 17.5001C47.3223 17.5471 47.2256 17.7169 47.2744 17.8815C47.331 18.0826 47.4591 18.2498 47.6141 18.3892C47.6098 19.2086 47.5375 20.0368 47.3972 20.8501C47.3607 21.0548 47.3275 21.2237 47.2552 21.3717C47.162 21.5738 46.9991 21.7445 46.7909 21.9491L46.0766 22.6675C45.959 22.7877 45.959 22.9836 46.0792 23.1029C46.1393 23.163 46.2177 23.1935 46.2961 23.1935C46.3745 23.1935 46.4556 23.163 46.5165 23.1012L47.2282 22.3836C47.4661 22.1468 47.6777 21.9273 47.8128 21.6373C47.9182 21.4188 47.9635 21.1915 48.0053 20.9564C48.1342 20.204 48.1969 19.442 48.2152 18.6835C48.2945 18.6992 48.372 18.721 48.4548 18.721C48.4844 18.721 48.5123 18.721 48.5393 18.7175C48.6839 18.707 48.825 18.6661 48.9635 18.6112C49.0393 18.7427 49.1578 18.8551 49.3137 18.9282C49.359 18.9491 49.4069 18.9674 49.4557 18.9796C49.4644 19.1555 49.528 19.3244 49.643 19.4542C49.7336 19.5561 49.859 19.6188 49.9923 19.6588C49.9749 20.2719 49.9575 20.8841 49.9409 21.4989C49.94 21.5302 49.9636 21.5511 49.9714 21.5799C49.4505 21.5686 48.9444 21.6121 48.4818 21.7636C48.3224 21.8167 48.2318 21.9909 48.2858 22.152C48.3372 22.3131 48.5001 22.4011 48.6752 22.3505C49.7275 22.0066 51.0298 22.159 52.3356 22.7833C53.2913 23.2397 54.1746 23.8928 55.0248 24.5241L55.625 24.9639C56.6259 25.6884 57.5545 26.2867 58.4648 26.7909C59.5076 27.3621 60.3404 27.7052 61.1627 27.9012C61.8108 28.0562 62.4746 28.1224 63.1166 28.1859L63.6593 28.2417C66.3973 28.5465 69.0777 29.3293 71.5892 30.1061C72.672 30.4422 73.902 30.8237 74.8872 31.5525C76.4065 32.6707 77.3569 34.6962 77.363 36.8393C77.3682 38.5487 76.7933 40.3879 75.7392 42.1888C75.6312 41.8004 75.504 41.4155 75.355 41.0349C75.2949 40.8782 75.1198 40.8033 74.9569 40.8599C74.7975 40.9217 74.7191 41.1011 74.7818 41.2605C75.9274 44.1943 75.7192 47.4825 75.5145 50.6628C75.4814 51.2053 75.4448 51.7443 75.4178 52.2799C75.4117 52.3809 75.416 52.5185 75.4395 52.6622C75.4369 52.6726 75.4326 52.6813 75.4291 52.6918C75.3838 52.8564 75.4831 53.0244 75.646 53.0706C75.7889 53.2334 75.9596 53.3597 76.1068 53.4416C78.6035 54.8218 80.7804 56.7838 82.432 59.1481C82.5975 59.3814 82.7822 59.6453 83.0653 59.8186L83.0714 59.8256ZM91.9839 49.0718C91.9447 49.1815 91.8907 49.239 91.8959 49.2451C91.7905 49.2259 91.6973 49.2694 91.6302 49.3443C91.564 49.4184 91.537 49.522 91.5579 49.6204C91.591 49.7623 91.6215 49.9191 91.5518 50.021C91.4821 49.9426 91.3645 49.8973 91.2652 49.9243C91.1267 49.9496 91.0239 50.0671 91.0152 50.2091C90.9969 50.5043 90.9734 50.7455 90.8584 50.9266C90.7713 51.0686 90.6023 51.1539 90.4934 51.1017C90.3697 51.0398 90.361 50.8587 90.3854 50.452C90.3976 50.2352 90.4124 50.0105 90.3732 49.7937C90.2826 49.2886 89.9124 48.9499 89.5866 48.6503C89.4664 48.5371 89.3426 48.423 89.2338 48.3011C89.0743 48.12 88.9472 47.9049 88.8148 47.6784C88.7181 47.513 88.6187 47.3484 88.5099 47.1934C88.1361 46.6631 87.6623 46.3618 87.1744 46.3461H87.1352C86.1465 46.3461 85.5916 47.4581 85.4078 47.8256C85.2179 48.2096 85.028 48.6006 84.8381 48.9908C83.6194 51.4961 82.3597 54.0807 80.0931 55.562C78.9737 54.5405 77.7393 53.6427 76.4143 52.9086C76.2889 52.8398 76.1634 52.7606 76.0972 52.6691C76.7567 50.5095 78.5738 48.8488 80.1044 47.6401C80.4572 47.3641 80.8126 47.0933 81.1689 46.8216C82.6611 45.6895 84.2022 44.5191 85.3146 42.9664L85.4296 42.8079C85.7345 42.3769 86.0481 41.931 86.488 41.7847C87.022 41.6114 87.5917 41.9049 87.9567 42.2349C88.2677 42.5153 88.5116 42.8602 88.7703 43.2251C88.8879 43.3862 89.0029 43.5473 89.1231 43.704C89.455 44.1351 89.8287 44.5296 90.1937 44.911C90.5892 45.3255 90.996 45.7531 91.3305 46.2146C91.6712 46.6866 92.416 47.9066 91.9848 49.07L91.9839 49.0718Z" fill="#14080E"/>
</svg>
