<svg width="100" height="100" viewBox="0 0 100 100" fill="none" xmlns="http://www.w3.org/2000/svg">
<rect width="100" height="100" fill="#FBF8F8"/>
<g opacity="0.3" clip-path="url(#clip0_2295_12051)">
<path d="M70.875 60.2391C71.083 61.4361 71.0267 62.6641 70.7102 63.8371C70.3936 65.0101 69.8244 66.0996 69.0424 67.0295C68.2604 67.9593 67.2845 68.7069 66.1831 69.2199C65.0818 69.7328 63.8816 69.9988 62.6667 69.9991H57.6667C57.2246 69.9991 56.8007 69.8235 56.4881 69.5109C56.1756 69.1984 56 68.7744 56 68.3324V64.0157C54.4095 64.6534 52.7135 64.9869 51 64.9991C49.2854 64.9815 47.5894 64.6423 46 63.9991V68.3324C46 68.7744 45.8244 69.1984 45.5118 69.5109C45.1993 69.8235 44.7753 69.9991 44.3333 69.9991H39.3333C38.1184 69.9988 36.9182 69.7328 35.8168 69.2199C34.7155 68.7069 33.7396 67.9593 32.9576 67.0295C32.1756 66.0996 31.6064 65.0101 31.2898 63.8371C30.9732 62.6641 30.917 61.4361 31.125 60.2391L31.625 57.3391C31.7912 56.3746 32.2426 55.482 32.921 54.7764C33.5993 54.0708 34.4734 53.5846 35.4306 53.3805C36.3878 53.1764 37.3843 53.2638 38.2914 53.6313C39.1985 53.9988 39.9747 54.6296 40.52 55.4424C42.6267 58.5391 46.6817 61.6657 51 61.6657C56.2167 61.6657 61.3567 57.0341 62.8833 52.7057C63.0058 52.3804 63.2242 52.0999 63.5097 51.9014C63.7951 51.7029 64.134 51.5957 64.4817 51.5941L65.2017 51.6057C65.5244 51.6097 65.8446 51.5495 66.1439 51.4286C66.4431 51.3077 66.7153 51.1285 66.9447 50.9015C67.174 50.6744 67.356 50.4041 67.4799 50.1061C67.6039 49.8081 67.6673 49.4885 67.6667 49.1657C67.6661 48.5812 67.4607 48.0153 67.0861 47.5665C66.7116 47.1177 66.1917 46.8143 65.6167 46.7091C65.262 46.6447 64.9378 46.4672 64.6926 46.2031C64.4474 45.939 64.2945 45.6025 64.2567 45.2441C64.0355 43.1367 63.3129 41.113 62.1493 39.3422C60.9857 37.5714 59.4149 36.105 57.5683 35.0657C57.0969 36.5411 56.4672 37.961 55.69 39.3007C53.5267 42.3677 50.7044 44.9115 47.43 46.7457C47.9291 46.8683 48.3783 47.1417 48.7165 47.5287C49.0547 47.9157 49.2653 48.3976 49.3198 48.9086C49.3743 49.4197 49.2699 49.9351 49.021 50.3847C48.772 50.8343 48.3905 51.1963 47.9284 51.4213C47.4663 51.6463 46.9461 51.7234 46.4387 51.6422C45.9312 51.5609 45.4611 51.3253 45.0923 50.9672C44.7236 50.6092 44.4742 50.1462 44.378 49.6413C44.2819 49.1365 44.3437 48.6142 44.555 48.1457C40.723 49.6974 36.5797 50.3254 32.46 49.9791C32.1166 49.933 31.7961 49.7812 31.543 49.5445C31.29 49.3079 31.117 48.9983 31.048 48.6588C30.9791 48.3193 31.0177 47.9667 31.1584 47.6501C31.2992 47.3335 31.5351 47.0687 31.8333 46.8924C32.8409 45.7492 33.5906 44.4027 34.0317 42.9441C36.2067 37.7891 39.5 29.9991 51 29.9991C54.9239 29.9898 58.7246 31.3692 61.7292 33.893C64.7338 36.4169 66.7485 39.9224 67.4167 43.7891C68.4773 44.2325 69.3832 44.9794 70.0207 45.936C70.6583 46.8925 70.9989 48.0162 71 49.1657C70.9972 50.5507 70.4913 51.8875 69.5767 52.9274C69.5883 52.9707 69.6183 53.0057 69.6267 53.0524L70.875 60.2391ZM57.6667 49.1657C57.6667 48.6713 57.52 48.1879 57.2453 47.7768C56.9706 47.3657 56.5802 47.0453 56.1234 46.856C55.6665 46.6668 55.1639 46.6173 54.6789 46.7138C54.194 46.8102 53.7485 47.0483 53.3989 47.398C53.0493 47.7476 52.8112 48.1931 52.7147 48.678C52.6182 49.163 52.6677 49.6656 52.857 50.1224C53.0462 50.5793 53.3666 50.9697 53.7777 51.2444C54.1888 51.5191 54.6722 51.6657 55.1667 51.6657C55.8297 51.6657 56.4656 51.4023 56.9344 50.9335C57.4033 50.4647 57.6667 49.8288 57.6667 49.1657Z" fill="#A27070"/>
</g>
<defs>
<clipPath id="clip0_2295_12051">
<rect width="40" height="40" fill="white" transform="translate(31 30)"/>
</clipPath>
</defs>
</svg>
