<svg width="183" height="15" viewBox="0 0 183 15" fill="none" xmlns="http://www.w3.org/2000/svg">
<path d="M12.4209 0.600586V2.50124H7.63864V14.8127H5.30644V2.50124H0.501953V0.600586H12.4209Z" fill="#A27070"/>
<path d="M32.198 10.0499H23.5895C23.6562 10.951 23.9925 11.6713 24.5922 12.2171C25.1919 12.7628 25.9281 13.0357 26.8007 13.0357C28.054 13.0357 28.9425 12.5122 29.4597 11.4619H31.9759C31.6364 12.4995 31.0176 13.3467 30.126 14.0067C29.2344 14.6667 28.1238 14.9998 26.8038 14.9998C25.7282 14.9998 24.7636 14.7587 23.91 14.2732C23.0565 13.7909 22.3901 13.1087 21.9046 12.2266C21.4192 11.3477 21.178 10.3291 21.178 9.17094C21.178 8.01278 21.4128 6.99422 21.8824 6.11211C22.352 5.23318 23.0152 4.55415 23.8656 4.0782C24.716 3.60224 25.6964 3.36108 26.8007 3.36108C27.9049 3.36108 28.8124 3.59272 29.6437 4.05598C30.4751 4.51925 31.1224 5.16971 31.5856 6.0074C32.0489 6.84508 32.2805 7.80969 32.2805 8.90122C32.2805 9.32324 32.252 9.70719 32.198 10.0467V10.0499ZM29.8468 8.16825C29.8341 7.30835 29.5263 6.61981 28.9266 6.10261C28.3269 5.5854 27.5844 5.3252 26.696 5.3252C25.89 5.3252 25.2014 5.58222 24.6303 6.09308C24.0591 6.60394 23.7165 7.29566 23.6086 8.16825H29.8468Z" fill="#A27070"/>
<path d="M42.6787 6.12164C43.1483 5.24905 43.7892 4.57001 44.6015 4.08771C45.4138 3.60223 46.3086 3.36108 47.2891 3.36108C48.1744 3.36108 48.9486 3.53561 49.6118 3.88147C50.2718 4.2305 50.8017 4.66203 51.1983 5.17924V3.54195H53.5495V14.8095H51.1983V13.1309C50.8017 13.664 50.2654 14.105 49.5832 14.4604C48.901 14.8158 48.1236 14.9935 47.251 14.9935C46.2833 14.9935 45.398 14.746 44.592 14.2478C43.7861 13.7497 43.1514 13.0548 42.6787 12.1631C42.2091 11.2715 41.9742 10.2593 41.9742 9.12651C41.9742 7.99374 42.2091 6.99423 42.6787 6.12164ZM50.716 7.14336C50.3955 6.57221 49.9767 6.13433 49.4595 5.83606C48.9423 5.53779 48.3838 5.38549 47.7809 5.38549C47.1781 5.38549 46.6228 5.53144 46.1024 5.82653C45.5852 6.11845 45.1663 6.55001 44.8459 7.11481C44.5254 7.67961 44.3667 8.35229 44.3667 9.12969C44.3667 9.90709 44.5254 10.5893 44.8459 11.1763C45.1663 11.7633 45.5884 12.2075 46.1151 12.5153C46.6418 12.8231 47.1971 12.9754 47.7809 12.9754C48.3648 12.9754 48.9391 12.8263 49.4595 12.5249C49.9767 12.2266 50.3955 11.7855 50.716 11.2049C51.0365 10.6242 51.1951 9.94834 51.1951 9.17094C51.1951 8.39354 51.0333 7.71768 50.716 7.14653V7.14336Z" fill="#A27070"/>
<path d="M80.8187 3.91319C81.52 4.28126 82.0721 4.82702 82.4751 5.55048C82.878 6.27393 83.078 7.14652 83.078 8.16824V14.8158H80.768V8.51729C80.768 7.50826 80.5141 6.73403 80.0128 6.19462C79.5083 5.6552 78.8197 5.38549 77.9471 5.38549C77.0745 5.38549 76.3828 5.6552 75.872 6.19462C75.3611 6.73403 75.1041 7.50826 75.1041 8.51729V14.8158H72.7941V8.51729C72.7941 7.50826 72.5434 6.73403 72.0389 6.19462C71.5344 5.6552 70.8458 5.38549 69.9732 5.38549C69.1007 5.38549 68.4089 5.6552 67.8981 6.19462C67.3872 6.73403 67.1302 7.50826 67.1302 8.51729V14.8158H64.798V3.54828H67.1302V4.83654C67.511 4.37327 67.9964 4.01155 68.5834 3.75136C69.1705 3.49117 69.7956 3.36426 70.4651 3.36426C71.363 3.36426 72.169 3.55464 72.8766 3.9354C73.5842 4.31617 74.1299 4.86827 74.5139 5.59173C74.8534 4.90952 75.3865 4.36693 76.1099 3.96713C76.8334 3.56415 77.6108 3.36426 78.4421 3.36426C79.3274 3.36426 80.1207 3.54829 80.8251 3.91637L80.8187 3.91319Z" fill="#A27070"/>
<path d="M109.192 0.600586V14.8127H106.86V5.07776L102.526 14.8127H100.91L96.5539 5.07776V14.8127H94.2217V0.600586H96.7379L101.729 11.7443L106.698 0.600586H109.192Z" fill="#A27070"/>
<path d="M120.368 6.12164C120.837 5.24905 121.478 4.57001 122.29 4.08771C123.103 3.6054 123.998 3.36108 124.981 3.36108C125.867 3.36108 126.641 3.53561 127.304 3.88147C127.964 4.2305 128.494 4.66203 128.887 5.17924V3.54195H131.238V14.8095H128.887V13.1309C128.491 13.664 127.954 14.105 127.272 14.4604C126.59 14.8158 125.813 14.9935 124.94 14.9935C123.972 14.9935 123.087 14.746 122.281 14.2478C121.475 13.7497 120.84 13.0548 120.368 12.1631C119.898 11.2715 119.663 10.2593 119.663 9.12651C119.663 7.99374 119.898 6.99423 120.368 6.12164ZM128.405 7.14336C128.084 6.57221 127.666 6.13433 127.148 5.83606C126.631 5.53779 126.073 5.38549 125.47 5.38549C124.867 5.38549 124.312 5.53144 123.791 5.82653C123.274 6.11845 122.855 6.55001 122.535 7.11481C122.214 7.67961 122.056 8.35229 122.056 9.12969C122.056 9.90709 122.214 10.5893 122.535 11.1763C122.855 11.7633 123.277 12.2075 123.804 12.5153C124.328 12.8231 124.886 12.9754 125.47 12.9754C126.054 12.9754 126.628 12.8263 127.148 12.5249C127.666 12.2266 128.084 11.7855 128.405 11.2049C128.725 10.6242 128.884 9.94834 128.884 9.17094C128.884 8.39354 128.725 7.71768 128.405 7.14653V7.14336Z" fill="#A27070"/>
<path d="M158.508 3.91319C159.209 4.28126 159.761 4.82702 160.164 5.55048C160.567 6.27393 160.767 7.14652 160.767 8.16824V14.8158H158.457V8.51729C158.457 7.50826 158.206 6.73403 157.702 6.19462C157.197 5.6552 156.509 5.38549 155.636 5.38549C154.764 5.38549 154.072 5.6552 153.561 6.19462C153.05 6.73403 152.793 7.50826 152.793 8.51729V14.8158H150.483V8.51729C150.483 7.50826 150.229 6.73403 149.728 6.19462C149.223 5.6552 148.535 5.38549 147.662 5.38549C146.79 5.38549 146.098 5.6552 145.587 6.19462C145.076 6.73403 144.819 7.50826 144.819 8.51729V14.8158H142.487V3.54828H144.819V4.83654C145.2 4.37327 145.685 4.01155 146.272 3.75136C146.86 3.49117 147.485 3.36426 148.154 3.36426C149.055 3.36426 149.858 3.55464 150.566 3.9354C151.273 4.31617 151.819 4.86827 152.203 5.59173C152.542 4.90952 153.076 4.36693 153.799 3.96713C154.522 3.56415 155.3 3.36426 156.131 3.36426C157.016 3.36426 157.81 3.54829 158.514 3.91637L158.508 3.91319Z" fill="#A27070"/>
<path d="M171.841 6.12164C172.311 5.24905 172.951 4.57001 173.764 4.08771C174.576 3.6054 175.471 3.36108 176.455 3.36108C177.34 3.36108 178.114 3.53561 178.777 3.88147C179.437 4.2305 179.967 4.66203 180.361 5.17924V3.54195H182.712V14.8095H180.361V13.1309C179.964 13.664 179.428 14.105 178.745 14.4604C178.063 14.8158 177.286 14.9935 176.413 14.9935C175.445 14.9935 174.56 14.746 173.754 14.2478C172.948 13.7497 172.314 13.0548 171.841 12.1631C171.371 11.2715 171.136 10.2593 171.136 9.12651C171.136 7.99374 171.371 6.99423 171.841 6.12164ZM179.878 7.14336C179.558 6.57221 179.139 6.13433 178.622 5.83606C178.105 5.53779 177.546 5.38549 176.943 5.38549C176.34 5.38549 175.785 5.53144 175.265 5.82653C174.747 6.11845 174.329 6.55001 174.008 7.11481C173.688 7.67961 173.529 8.35229 173.529 9.12969C173.529 9.90709 173.688 10.5893 174.008 11.1763C174.329 11.7633 174.751 12.2075 175.277 12.5153C175.801 12.8231 176.359 12.9754 176.943 12.9754C177.527 12.9754 178.101 12.8263 178.622 12.5249C179.139 12.2266 179.558 11.7855 179.878 11.2049C180.199 10.6242 180.357 9.94834 180.357 9.17094C180.357 8.39354 180.199 7.71768 179.878 7.14653V7.14336Z" fill="#A27070"/>
</svg>
