<svg width="146" height="147" viewBox="0 0 146 147" fill="none" xmlns="http://www.w3.org/2000/svg">
<path d="M37.6057 0.387939C38.8275 0.387939 39.8178 1.37835 39.8178 2.60007C39.8178 3.82184 38.8275 4.81219 37.6057 4.81219C36.384 4.81219 35.3936 3.82184 35.3936 2.60007C35.3936 1.37835 36.384 0.387939 37.6057 0.387939Z" fill="#A27070"/>
<path d="M46.4543 0.387939C47.6761 0.387939 48.6664 1.37835 48.6664 2.60007C48.6664 3.82184 47.6761 4.81219 46.4543 4.81219C45.2326 4.81219 44.2422 3.82184 44.2422 2.60007C44.2422 1.37835 45.2326 0.387939 46.4543 0.387939Z" fill="#A27070"/>
<path d="M59.7268 0.387939C60.9486 0.387939 61.9389 1.37835 61.9389 2.60007C61.9389 3.82184 60.9486 4.81219 59.7268 4.81219C58.5051 4.81219 57.5146 3.82184 57.5146 2.60007C57.5146 1.37835 58.5051 0.387939 59.7268 0.387939Z" fill="#A27070"/>
<path d="M68.5754 0.387939C69.7972 0.387939 70.7875 1.37835 70.7875 2.60007C70.7875 3.82184 69.7972 4.81219 68.5754 4.81219C67.3537 4.81219 66.3633 3.82184 66.3633 2.60007C66.3633 1.37835 67.3537 0.387939 68.5754 0.387939Z" fill="#A27070"/>
<path d="M72.9997 0.387939C74.2215 0.387939 75.2119 1.37835 75.2119 2.60007C75.2119 3.82184 74.2215 4.81219 72.9997 4.81219C71.778 4.81219 70.7876 3.82184 70.7876 2.60007C70.7876 1.37835 71.778 0.387939 72.9997 0.387939Z" fill="#A27070"/>
<path d="M95.1208 0.387939C96.3426 0.387939 97.3329 1.37835 97.3329 2.60007C97.3329 3.82184 96.3426 4.81219 95.1208 4.81219C93.8991 4.81219 92.9087 3.82184 92.9087 2.60007C92.9087 1.37835 93.8991 0.387939 95.1208 0.387939Z" fill="#A27070"/>
<path d="M103.969 0.387939C105.191 0.387939 106.182 1.37835 106.182 2.60007C106.182 3.82184 105.191 4.81219 103.969 4.81219C102.748 4.81219 101.757 3.82184 101.757 2.60007C101.757 1.37835 102.748 0.387939 103.969 0.387939Z" fill="#A27070"/>
<path d="M108.394 0.387939C109.616 0.387939 110.606 1.37835 110.606 2.60007C110.606 3.82184 109.616 4.81219 108.394 4.81219C107.172 4.81219 106.182 3.82184 106.182 2.60007C106.182 1.37835 107.172 0.387939 108.394 0.387939Z" fill="#A27070"/>
<path d="M37.6057 4.81226C38.8275 4.81226 39.8178 5.80267 39.8178 7.02438C39.8178 8.24616 38.8275 9.23651 37.6057 9.23651C36.384 9.23651 35.3936 8.24616 35.3936 7.02438C35.3936 5.80267 36.384 4.81226 37.6057 4.81226Z" fill="#A27070"/>
<path d="M42.03 4.81226C43.2518 4.81226 44.2421 5.80267 44.2421 7.02438C44.2421 8.24616 43.2518 9.23651 42.03 9.23651C40.8083 9.23651 39.8179 8.24616 39.8179 7.02438C39.8179 5.80267 40.8083 4.81226 42.03 4.81226Z" fill="#A27070"/>
<path d="M46.4543 4.81226C47.6761 4.81226 48.6664 5.80267 48.6664 7.02438C48.6664 8.24616 47.6761 9.23651 46.4543 9.23651C45.2326 9.23651 44.2422 8.24616 44.2422 7.02438C44.2422 5.80267 45.2326 4.81226 46.4543 4.81226Z" fill="#A27070"/>
<path d="M55.3025 4.81226C56.5242 4.81226 57.5146 5.80267 57.5146 7.02438C57.5146 8.24616 56.5242 9.23651 55.3025 9.23651C54.0807 9.23651 53.0903 8.24616 53.0903 7.02438C53.0903 5.80267 54.0807 4.81226 55.3025 4.81226Z" fill="#A27070"/>
<path d="M59.7268 4.81226C60.9486 4.81226 61.9389 5.80267 61.9389 7.02438C61.9389 8.24616 60.9486 9.23651 59.7268 9.23651C58.5051 9.23651 57.5146 8.24616 57.5146 7.02438C57.5146 5.80267 58.5051 4.81226 59.7268 4.81226Z" fill="#A27070"/>
<path d="M72.9997 4.81226C74.2215 4.81226 75.2119 5.80267 75.2119 7.02438C75.2119 8.24616 74.2215 9.23651 72.9997 9.23651C71.778 9.23651 70.7876 8.24616 70.7876 7.02438C70.7876 5.80267 71.778 4.81226 72.9997 4.81226Z" fill="#A27070"/>
<path d="M77.424 4.81226C78.6458 4.81226 79.6362 5.80267 79.6362 7.02438C79.6362 8.24616 78.6458 9.23651 77.424 9.23651C76.2023 9.23651 75.2119 8.24616 75.2119 7.02438C75.2119 5.80267 76.2023 4.81226 77.424 4.81226Z" fill="#A27070"/>
<path d="M95.1208 4.81226C96.3426 4.81226 97.3329 5.80267 97.3329 7.02438C97.3329 8.24616 96.3426 9.23651 95.1208 9.23651C93.8991 9.23651 92.9087 8.24616 92.9087 7.02438C92.9087 5.80267 93.8991 4.81226 95.1208 4.81226Z" fill="#A27070"/>
<path d="M108.394 4.81226C109.616 4.81226 110.606 5.80267 110.606 7.02438C110.606 8.24616 109.616 9.23651 108.394 9.23651C107.172 9.23651 106.182 8.24616 106.182 7.02438C106.182 5.80267 107.172 4.81226 108.394 4.81226Z" fill="#A27070"/>
<path d="M37.6057 9.23633C38.8275 9.23633 39.8178 10.2267 39.8178 11.4485C39.8178 12.6702 38.8275 13.6606 37.6057 13.6606C36.384 13.6606 35.3936 12.6702 35.3936 11.4485C35.3936 10.2267 36.384 9.23633 37.6057 9.23633Z" fill="#A27070"/>
<path d="M42.03 9.23633C43.2518 9.23633 44.2421 10.2267 44.2421 11.4485C44.2421 12.6702 43.2518 13.6606 42.03 13.6606C40.8083 13.6606 39.8179 12.6702 39.8179 11.4485C39.8179 10.2267 40.8083 9.23633 42.03 9.23633Z" fill="#A27070"/>
<path d="M55.3025 9.23633C56.5242 9.23633 57.5146 10.2267 57.5146 11.4485C57.5146 12.6702 56.5242 13.6606 55.3025 13.6606C54.0807 13.6606 53.0903 12.6702 53.0903 11.4485C53.0903 10.2267 54.0807 9.23633 55.3025 9.23633Z" fill="#A27070"/>
<path d="M68.5754 9.23633C69.7972 9.23633 70.7875 10.2267 70.7875 11.4485C70.7875 12.6702 69.7972 13.6606 68.5754 13.6606C67.3537 13.6606 66.3633 12.6702 66.3633 11.4485C66.3633 10.2267 67.3537 9.23633 68.5754 9.23633Z" fill="#A27070"/>
<path d="M72.9997 9.23633C74.2215 9.23633 75.2119 10.2267 75.2119 11.4485C75.2119 12.6702 74.2215 13.6606 72.9997 13.6606C71.778 13.6606 70.7876 12.6702 70.7876 11.4485C70.7876 10.2267 71.778 9.23633 72.9997 9.23633Z" fill="#A27070"/>
<path d="M77.424 9.23633C78.6458 9.23633 79.6362 10.2267 79.6362 11.4485C79.6362 12.6702 78.6458 13.6606 77.424 13.6606C76.2023 13.6606 75.2119 12.6702 75.2119 11.4485C75.2119 10.2267 76.2023 9.23633 77.424 9.23633Z" fill="#A27070"/>
<path d="M81.8484 9.23633C83.0701 9.23633 84.0605 10.2267 84.0605 11.4485C84.0605 12.6702 83.0701 13.6606 81.8484 13.6606C80.6266 13.6606 79.6362 12.6702 79.6362 11.4485C79.6362 10.2267 80.6266 9.23633 81.8484 9.23633Z" fill="#A27070"/>
<path d="M95.1208 9.23633C96.3426 9.23633 97.3329 10.2267 97.3329 11.4485C97.3329 12.6702 96.3426 13.6606 95.1208 13.6606C93.8991 13.6606 92.9087 12.6702 92.9087 11.4485C92.9087 10.2267 93.8991 9.23633 95.1208 9.23633Z" fill="#A27070"/>
<path d="M99.5451 9.23633C100.767 9.23633 101.757 10.2267 101.757 11.4485C101.757 12.6702 100.767 13.6606 99.5451 13.6606C98.3234 13.6606 97.333 12.6702 97.333 11.4485C97.333 10.2267 98.3234 9.23633 99.5451 9.23633Z" fill="#A27070"/>
<path d="M103.969 9.23633C105.191 9.23633 106.182 10.2267 106.182 11.4485C106.182 12.6702 105.191 13.6606 103.969 13.6606C102.748 13.6606 101.757 12.6702 101.757 11.4485C101.757 10.2267 102.748 9.23633 103.969 9.23633Z" fill="#A27070"/>
<path d="M108.394 9.23633C109.616 9.23633 110.606 10.2267 110.606 11.4485C110.606 12.6702 109.616 13.6606 108.394 13.6606C107.172 13.6606 106.182 12.6702 106.182 11.4485C106.182 10.2267 107.172 9.23633 108.394 9.23633Z" fill="#A27070"/>
<path d="M42.03 13.6606C43.2518 13.6606 44.2421 14.6511 44.2421 15.8728C44.2421 17.0945 43.2518 18.0849 42.03 18.0849C40.8083 18.0849 39.8179 17.0945 39.8179 15.8728C39.8179 14.6511 40.8083 13.6606 42.03 13.6606Z" fill="#A27070"/>
<path d="M55.3025 13.6606C56.5242 13.6606 57.5146 14.6511 57.5146 15.8728C57.5146 17.0945 56.5242 18.0849 55.3025 18.0849C54.0807 18.0849 53.0903 17.0945 53.0903 15.8728C53.0903 14.6511 54.0807 13.6606 55.3025 13.6606Z" fill="#A27070"/>
<path d="M68.5754 13.6606C69.7972 13.6606 70.7875 14.6511 70.7875 15.8728C70.7875 17.0945 69.7972 18.0849 68.5754 18.0849C67.3537 18.0849 66.3633 17.0945 66.3633 15.8728C66.3633 14.6511 67.3537 13.6606 68.5754 13.6606Z" fill="#A27070"/>
<path d="M81.8484 13.6606C83.0701 13.6606 84.0605 14.6511 84.0605 15.8728C84.0605 17.0945 83.0701 18.0849 81.8484 18.0849C80.6266 18.0849 79.6362 17.0945 79.6362 15.8728C79.6362 14.6511 80.6266 13.6606 81.8484 13.6606Z" fill="#A27070"/>
<path d="M86.2722 13.6606C87.494 13.6606 88.4843 14.6511 88.4843 15.8728C88.4843 17.0945 87.494 18.0849 86.2722 18.0849C85.0505 18.0849 84.0601 17.0945 84.0601 15.8728C84.0601 14.6511 85.0505 13.6606 86.2722 13.6606Z" fill="#A27070"/>
<path d="M99.5451 13.6606C100.767 13.6606 101.757 14.6511 101.757 15.8728C101.757 17.0945 100.767 18.0849 99.5451 18.0849C98.3234 18.0849 97.333 17.0945 97.333 15.8728C97.333 14.6511 98.3234 13.6606 99.5451 13.6606Z" fill="#A27070"/>
<path d="M103.969 13.6606C105.191 13.6606 106.182 14.6511 106.182 15.8728C106.182 17.0945 105.191 18.0849 103.969 18.0849C102.748 18.0849 101.757 17.0945 101.757 15.8728C101.757 14.6511 102.748 13.6606 103.969 13.6606Z" fill="#A27070"/>
<path d="M108.394 13.6606C109.616 13.6606 110.606 14.6511 110.606 15.8728C110.606 17.0945 109.616 18.0849 108.394 18.0849C107.172 18.0849 106.182 17.0945 106.182 15.8728C106.182 14.6511 107.172 13.6606 108.394 13.6606Z" fill="#A27070"/>
<path d="M59.7268 18.085C60.9486 18.085 61.9389 19.0754 61.9389 20.2971C61.9389 21.5189 60.9486 22.5092 59.7268 22.5092C58.5051 22.5092 57.5146 21.5189 57.5146 20.2971C57.5146 19.0754 58.5051 18.085 59.7268 18.085Z" fill="#A27070"/>
<path d="M64.1511 18.085C65.3729 18.085 66.3632 19.0754 66.3632 20.2971C66.3632 21.5189 65.3729 22.5092 64.1511 22.5092C62.9294 22.5092 61.939 21.5189 61.939 20.2971C61.939 19.0754 62.9294 18.085 64.1511 18.085Z" fill="#A27070"/>
<path d="M72.9997 18.085C74.2215 18.085 75.2119 19.0754 75.2119 20.2971C75.2119 21.5189 74.2215 22.5092 72.9997 22.5092C71.778 22.5092 70.7876 21.5189 70.7876 20.2971C70.7876 19.0754 71.778 18.085 72.9997 18.085Z" fill="#A27070"/>
<path d="M81.8484 18.085C83.0701 18.085 84.0605 19.0754 84.0605 20.2971C84.0605 21.5189 83.0701 22.5092 81.8484 22.5092C80.6266 22.5092 79.6362 21.5189 79.6362 20.2971C79.6362 19.0754 80.6266 18.085 81.8484 18.085Z" fill="#A27070"/>
<path d="M37.6057 22.5093C38.8275 22.5093 39.8178 23.4997 39.8178 24.7214C39.8178 25.9432 38.8275 26.9335 37.6057 26.9335C36.384 26.9335 35.3936 25.9432 35.3936 24.7214C35.3936 23.4997 36.384 22.5093 37.6057 22.5093Z" fill="#A27070"/>
<path d="M42.03 22.5093C43.2518 22.5093 44.2421 23.4997 44.2421 24.7214C44.2421 25.9432 43.2518 26.9335 42.03 26.9335C40.8083 26.9335 39.8179 25.9432 39.8179 24.7214C39.8179 23.4997 40.8083 22.5093 42.03 22.5093Z" fill="#A27070"/>
<path d="M50.8786 22.5093C52.1004 22.5093 53.0908 23.4997 53.0908 24.7214C53.0908 25.9432 52.1004 26.9335 50.8786 26.9335C49.6569 26.9335 48.6665 25.9432 48.6665 24.7214C48.6665 23.4997 49.6569 22.5093 50.8786 22.5093Z" fill="#A27070"/>
<path d="M68.5754 22.5093C69.7972 22.5093 70.7875 23.4997 70.7875 24.7214C70.7875 25.9432 69.7972 26.9335 68.5754 26.9335C67.3537 26.9335 66.3633 25.9432 66.3633 24.7214C66.3633 23.4997 67.3537 22.5093 68.5754 22.5093Z" fill="#A27070"/>
<path d="M77.424 22.5093C78.6458 22.5093 79.6362 23.4997 79.6362 24.7214C79.6362 25.9432 78.6458 26.9335 77.424 26.9335C76.2023 26.9335 75.2119 25.9432 75.2119 24.7214C75.2119 23.4997 76.2023 22.5093 77.424 22.5093Z" fill="#A27070"/>
<path d="M81.8484 22.5093C83.0701 22.5093 84.0605 23.4997 84.0605 24.7214C84.0605 25.9432 83.0701 26.9335 81.8484 26.9335C80.6266 26.9335 79.6362 25.9432 79.6362 24.7214C79.6362 23.4997 80.6266 22.5093 81.8484 22.5093Z" fill="#A27070"/>
<path d="M99.5451 22.5093C100.767 22.5093 101.757 23.4997 101.757 24.7214C101.757 25.9432 100.767 26.9335 99.5451 26.9335C98.3234 26.9335 97.333 25.9432 97.333 24.7214C97.333 23.4997 98.3234 22.5093 99.5451 22.5093Z" fill="#A27070"/>
<path d="M103.969 22.5093C105.191 22.5093 106.182 23.4997 106.182 24.7214C106.182 25.9432 105.191 26.9335 103.969 26.9335C102.748 26.9335 101.757 25.9432 101.757 24.7214C101.757 23.4997 102.748 22.5093 103.969 22.5093Z" fill="#A27070"/>
<path d="M108.394 22.5093C109.616 22.5093 110.606 23.4997 110.606 24.7214C110.606 25.9432 109.616 26.9335 108.394 26.9335C107.172 26.9335 106.182 25.9432 106.182 24.7214C106.182 23.4997 107.172 22.5093 108.394 22.5093Z" fill="#A27070"/>
<path d="M37.6057 26.9333C38.8275 26.9333 39.8178 27.9238 39.8178 29.1455C39.8178 30.3673 38.8275 31.3576 37.6057 31.3576C36.384 31.3576 35.3936 30.3673 35.3936 29.1455C35.3936 27.9238 36.384 26.9333 37.6057 26.9333Z" fill="#A27070"/>
<path d="M46.4543 26.9333C47.6761 26.9333 48.6664 27.9238 48.6664 29.1455C48.6664 30.3673 47.6761 31.3576 46.4543 31.3576C45.2326 31.3576 44.2422 30.3673 44.2422 29.1455C44.2422 27.9238 45.2326 26.9333 46.4543 26.9333Z" fill="#A27070"/>
<path d="M55.3025 26.9333C56.5242 26.9333 57.5146 27.9238 57.5146 29.1455C57.5146 30.3673 56.5242 31.3576 55.3025 31.3576C54.0807 31.3576 53.0903 30.3673 53.0903 29.1455C53.0903 27.9238 54.0807 26.9333 55.3025 26.9333Z" fill="#A27070"/>
<path d="M64.1511 26.9333C65.3729 26.9333 66.3632 27.9238 66.3632 29.1455C66.3632 30.3673 65.3729 31.3576 64.1511 31.3576C62.9294 31.3576 61.939 30.3673 61.939 29.1455C61.939 27.9238 62.9294 26.9333 64.1511 26.9333Z" fill="#A27070"/>
<path d="M72.9997 26.9333C74.2215 26.9333 75.2119 27.9238 75.2119 29.1455C75.2119 30.3673 74.2215 31.3576 72.9997 31.3576C71.778 31.3576 70.7876 30.3673 70.7876 29.1455C70.7876 27.9238 71.778 26.9333 72.9997 26.9333Z" fill="#A27070"/>
<path d="M81.8484 26.9333C83.0701 26.9333 84.0605 27.9238 84.0605 29.1455C84.0605 30.3673 83.0701 31.3576 81.8484 31.3576C80.6266 31.3576 79.6362 30.3673 79.6362 29.1455C79.6362 27.9238 80.6266 26.9333 81.8484 26.9333Z" fill="#A27070"/>
<path d="M90.6965 26.9333C91.9183 26.9333 92.9086 27.9238 92.9086 29.1455C92.9086 30.3673 91.9183 31.3576 90.6965 31.3576C89.4748 31.3576 88.4844 30.3673 88.4844 29.1455C88.4844 27.9238 89.4748 26.9333 90.6965 26.9333Z" fill="#A27070"/>
<path d="M99.5451 26.9333C100.767 26.9333 101.757 27.9238 101.757 29.1455C101.757 30.3673 100.767 31.3576 99.5451 31.3576C98.3234 31.3576 97.333 30.3673 97.333 29.1455C97.333 27.9238 98.3234 26.9333 99.5451 26.9333Z" fill="#A27070"/>
<path d="M108.394 26.9333C109.616 26.9333 110.606 27.9238 110.606 29.1455C110.606 30.3673 109.616 31.3576 108.394 31.3576C107.172 31.3576 106.182 30.3673 106.182 29.1455C106.182 27.9238 107.172 26.9333 108.394 26.9333Z" fill="#A27070"/>
<path d="M37.6057 31.3577C38.8275 31.3577 39.8178 32.3481 39.8178 33.5698C39.8178 34.7916 38.8275 35.7819 37.6057 35.7819C36.384 35.7819 35.3936 34.7916 35.3936 33.5698C35.3936 32.3481 36.384 31.3577 37.6057 31.3577Z" fill="#A27070"/>
<path d="M64.1511 31.3577C65.3729 31.3577 66.3632 32.3481 66.3632 33.5698C66.3632 34.7916 65.3729 35.7819 64.1511 35.7819C62.9294 35.7819 61.939 34.7916 61.939 33.5698C61.939 32.3481 62.9294 31.3577 64.1511 31.3577Z" fill="#A27070"/>
<path d="M68.5754 31.3577C69.7972 31.3577 70.7875 32.3481 70.7875 33.5698C70.7875 34.7916 69.7972 35.7819 68.5754 35.7819C67.3537 35.7819 66.3633 34.7916 66.3633 33.5698C66.3633 32.3481 67.3537 31.3577 68.5754 31.3577Z" fill="#A27070"/>
<path d="M81.8484 31.3577C83.0701 31.3577 84.0605 32.3481 84.0605 33.5698C84.0605 34.7916 83.0701 35.7819 81.8484 35.7819C80.6266 35.7819 79.6362 34.7916 79.6362 33.5698C79.6362 32.3481 80.6266 31.3577 81.8484 31.3577Z" fill="#A27070"/>
<path d="M86.2722 31.3577C87.494 31.3577 88.4843 32.3481 88.4843 33.5698C88.4843 34.7916 87.494 35.7819 86.2722 35.7819C85.0505 35.7819 84.0601 34.7916 84.0601 33.5698C84.0601 32.3481 85.0505 31.3577 86.2722 31.3577Z" fill="#A27070"/>
<path d="M90.6965 31.3577C91.9183 31.3577 92.9086 32.3481 92.9086 33.5698C92.9086 34.7916 91.9183 35.7819 90.6965 35.7819C89.4748 35.7819 88.4844 34.7916 88.4844 33.5698C88.4844 32.3481 89.4748 31.3577 90.6965 31.3577Z" fill="#A27070"/>
<path d="M95.1208 31.3577C96.3426 31.3577 97.3329 32.3481 97.3329 33.5698C97.3329 34.7916 96.3426 35.7819 95.1208 35.7819C93.8991 35.7819 92.9087 34.7916 92.9087 33.5698C92.9087 32.3481 93.8991 31.3577 95.1208 31.3577Z" fill="#A27070"/>
<path d="M99.5451 31.3577C100.767 31.3577 101.757 32.3481 101.757 33.5698C101.757 34.7916 100.767 35.7819 99.5451 35.7819C98.3234 35.7819 97.333 34.7916 97.333 33.5698C97.333 32.3481 98.3234 31.3577 99.5451 31.3577Z" fill="#A27070"/>
<path d="M103.969 31.3577C105.191 31.3577 106.182 32.3481 106.182 33.5698C106.182 34.7916 105.191 35.7819 103.969 35.7819C102.748 35.7819 101.757 34.7916 101.757 33.5698C101.757 32.3481 102.748 31.3577 103.969 31.3577Z" fill="#A27070"/>
<path d="M11.0603 35.782C12.282 35.782 13.2724 36.7724 13.2724 37.9941C13.2724 39.2159 12.282 40.2062 11.0603 40.2062C9.83856 40.2062 8.84814 39.2159 8.84814 37.9941C8.84814 36.7724 9.83856 35.782 11.0603 35.782Z" fill="#A27070"/>
<path d="M15.4846 35.782C16.7064 35.782 17.6967 36.7724 17.6967 37.9941C17.6967 39.2159 16.7064 40.2062 15.4846 40.2062C14.2629 40.2062 13.2725 39.2159 13.2725 37.9941C13.2725 36.7724 14.2629 35.782 15.4846 35.782Z" fill="#A27070"/>
<path d="M19.9084 35.782C21.1302 35.782 22.1205 36.7724 22.1205 37.9941C22.1205 39.2159 21.1302 40.2062 19.9084 40.2062C18.6867 40.2062 17.6963 39.2159 17.6963 37.9941C17.6963 36.7724 18.6867 35.782 19.9084 35.782Z" fill="#A27070"/>
<path d="M28.757 35.782C29.9788 35.782 30.9692 36.7724 30.9692 37.9941C30.9692 39.2159 29.9788 40.2062 28.757 40.2062C27.5353 40.2062 26.5449 39.2159 26.5449 37.9941C26.5449 36.7724 27.5353 35.782 28.757 35.782Z" fill="#A27070"/>
<path d="M37.6057 35.782C38.8275 35.782 39.8178 36.7724 39.8178 37.9941C39.8178 39.2159 38.8275 40.2062 37.6057 40.2062C36.384 40.2062 35.3936 39.2159 35.3936 37.9941C35.3936 36.7724 36.384 35.782 37.6057 35.782Z" fill="#A27070"/>
<path d="M42.03 35.782C43.2518 35.782 44.2421 36.7724 44.2421 37.9941C44.2421 39.2159 43.2518 40.2062 42.03 40.2062C40.8083 40.2062 39.8179 39.2159 39.8179 37.9941C39.8179 36.7724 40.8083 35.782 42.03 35.782Z" fill="#A27070"/>
<path d="M50.8786 35.782C52.1004 35.782 53.0908 36.7724 53.0908 37.9941C53.0908 39.2159 52.1004 40.2062 50.8786 40.2062C49.6569 40.2062 48.6665 39.2159 48.6665 37.9941C48.6665 36.7724 49.6569 35.782 50.8786 35.782Z" fill="#A27070"/>
<path d="M55.3025 35.782C56.5242 35.782 57.5146 36.7724 57.5146 37.9941C57.5146 39.2159 56.5242 40.2062 55.3025 40.2062C54.0807 40.2062 53.0903 39.2159 53.0903 37.9941C53.0903 36.7724 54.0807 35.782 55.3025 35.782Z" fill="#A27070"/>
<path d="M64.1511 35.782C65.3729 35.782 66.3632 36.7724 66.3632 37.9941C66.3632 39.2159 65.3729 40.2062 64.1511 40.2062C62.9294 40.2062 61.939 39.2159 61.939 37.9941C61.939 36.7724 62.9294 35.782 64.1511 35.782Z" fill="#A27070"/>
<path d="M72.9997 35.782C74.2215 35.782 75.2119 36.7724 75.2119 37.9941C75.2119 39.2159 74.2215 40.2062 72.9997 40.2062C71.778 40.2062 70.7876 39.2159 70.7876 37.9941C70.7876 36.7724 71.778 35.782 72.9997 35.782Z" fill="#A27070"/>
<path d="M81.8484 35.782C83.0701 35.782 84.0605 36.7724 84.0605 37.9941C84.0605 39.2159 83.0701 40.2062 81.8484 40.2062C80.6266 40.2062 79.6362 39.2159 79.6362 37.9941C79.6362 36.7724 80.6266 35.782 81.8484 35.782Z" fill="#A27070"/>
<path d="M90.6965 35.782C91.9183 35.782 92.9086 36.7724 92.9086 37.9941C92.9086 39.2159 91.9183 40.2062 90.6965 40.2062C89.4748 40.2062 88.4844 39.2159 88.4844 37.9941C88.4844 36.7724 89.4748 35.782 90.6965 35.782Z" fill="#A27070"/>
<path d="M99.5451 35.782C100.767 35.782 101.757 36.7724 101.757 37.9941C101.757 39.2159 100.767 40.2062 99.5451 40.2062C98.3234 40.2062 97.333 39.2159 97.333 37.9941C97.333 36.7724 98.3234 35.782 99.5451 35.782Z" fill="#A27070"/>
<path d="M103.969 35.782C105.191 35.782 106.182 36.7724 106.182 37.9941C106.182 39.2159 105.191 40.2062 103.969 40.2062C102.748 40.2062 101.757 39.2159 101.757 37.9941C101.757 36.7724 102.748 35.782 103.969 35.782Z" fill="#A27070"/>
<path d="M108.394 35.782C109.616 35.782 110.606 36.7724 110.606 37.9941C110.606 39.2159 109.616 40.2062 108.394 40.2062C107.172 40.2062 106.182 39.2159 106.182 37.9941C106.182 36.7724 107.172 35.782 108.394 35.782Z" fill="#A27070"/>
<path d="M112.818 35.782C114.04 35.782 115.03 36.7724 115.03 37.9941C115.03 39.2159 114.04 40.2062 112.818 40.2062C111.596 40.2062 110.606 39.2159 110.606 37.9941C110.606 36.7724 111.596 35.782 112.818 35.782Z" fill="#A27070"/>
<path d="M117.242 35.782C118.464 35.782 119.454 36.7724 119.454 37.9941C119.454 39.2159 118.464 40.2062 117.242 40.2062C116.02 40.2062 115.03 39.2159 115.03 37.9941C115.03 36.7724 116.02 35.782 117.242 35.782Z" fill="#A27070"/>
<path d="M121.667 35.782C122.888 35.782 123.879 36.7724 123.879 37.9941C123.879 39.2159 122.888 40.2062 121.667 40.2062C120.445 40.2062 119.455 39.2159 119.455 37.9941C119.455 36.7724 120.445 35.782 121.667 35.782Z" fill="#A27070"/>
<path d="M134.939 35.782C136.161 35.782 137.151 36.7724 137.151 37.9941C137.151 39.2159 136.161 40.2062 134.939 40.2062C133.717 40.2062 132.727 39.2159 132.727 37.9941C132.727 36.7724 133.717 35.782 134.939 35.782Z" fill="#A27070"/>
<path d="M139.363 35.782C140.585 35.782 141.576 36.7724 141.576 37.9941C141.576 39.2159 140.585 40.2062 139.363 40.2062C138.142 40.2062 137.151 39.2159 137.151 37.9941C137.151 36.7724 138.142 35.782 139.363 35.782Z" fill="#A27070"/>
<path d="M143.788 35.782C145.01 35.782 146 36.7724 146 37.9941C146 39.2159 145.01 40.2062 143.788 40.2062C142.566 40.2062 141.576 39.2159 141.576 37.9941C141.576 36.7724 142.566 35.782 143.788 35.782Z" fill="#A27070"/>
<path d="M2.21164 40.2063C3.43341 40.2063 4.42376 41.1967 4.42376 42.4184C4.42376 43.6402 3.43341 44.6306 2.21164 44.6306C0.989925 44.6306 -0.000488281 43.6402 -0.000488281 42.4184C-0.000488281 41.1967 0.989925 40.2063 2.21164 40.2063Z" fill="#A27070"/>
<path d="M15.4846 40.2063C16.7064 40.2063 17.6967 41.1967 17.6967 42.4184C17.6967 43.6402 16.7064 44.6306 15.4846 44.6306C14.2629 44.6306 13.2725 43.6402 13.2725 42.4184C13.2725 41.1967 14.2629 40.2063 15.4846 40.2063Z" fill="#A27070"/>
<path d="M24.3332 40.2063C25.555 40.2063 26.5453 41.1967 26.5453 42.4184C26.5453 43.6402 25.555 44.6306 24.3332 44.6306C23.1115 44.6306 22.1211 43.6402 22.1211 42.4184C22.1211 41.1967 23.1115 40.2063 24.3332 40.2063Z" fill="#A27070"/>
<path d="M55.3025 40.2063C56.5242 40.2063 57.5146 41.1967 57.5146 42.4184C57.5146 43.6402 56.5242 44.6306 55.3025 44.6306C54.0807 44.6306 53.0903 43.6402 53.0903 42.4184C53.0903 41.1967 54.0807 40.2063 55.3025 40.2063Z" fill="#A27070"/>
<path d="M64.1511 40.2063C65.3729 40.2063 66.3632 41.1967 66.3632 42.4184C66.3632 43.6402 65.3729 44.6306 64.1511 44.6306C62.9294 44.6306 61.939 43.6402 61.939 42.4184C61.939 41.1967 62.9294 40.2063 64.1511 40.2063Z" fill="#A27070"/>
<path d="M72.9997 40.2063C74.2215 40.2063 75.2119 41.1967 75.2119 42.4184C75.2119 43.6402 74.2215 44.6306 72.9997 44.6306C71.778 44.6306 70.7876 43.6402 70.7876 42.4184C70.7876 41.1967 71.778 40.2063 72.9997 40.2063Z" fill="#A27070"/>
<path d="M77.424 40.2063C78.6458 40.2063 79.6362 41.1967 79.6362 42.4184C79.6362 43.6402 78.6458 44.6306 77.424 44.6306C76.2023 44.6306 75.2119 43.6402 75.2119 42.4184C75.2119 41.1967 76.2023 40.2063 77.424 40.2063Z" fill="#A27070"/>
<path d="M86.2722 40.2063C87.494 40.2063 88.4843 41.1967 88.4843 42.4184C88.4843 43.6402 87.494 44.6306 86.2722 44.6306C85.0505 44.6306 84.0601 43.6402 84.0601 42.4184C84.0601 41.1967 85.0505 40.2063 86.2722 40.2063Z" fill="#A27070"/>
<path d="M95.1208 40.2063C96.3426 40.2063 97.3329 41.1967 97.3329 42.4184C97.3329 43.6402 96.3426 44.6306 95.1208 44.6306C93.8991 44.6306 92.9087 43.6402 92.9087 42.4184C92.9087 41.1967 93.8991 40.2063 95.1208 40.2063Z" fill="#A27070"/>
<path d="M103.969 40.2063C105.191 40.2063 106.182 41.1967 106.182 42.4184C106.182 43.6402 105.191 44.6306 103.969 44.6306C102.748 44.6306 101.757 43.6402 101.757 42.4184C101.757 41.1967 102.748 40.2063 103.969 40.2063Z" fill="#A27070"/>
<path d="M112.818 40.2063C114.04 40.2063 115.03 41.1967 115.03 42.4184C115.03 43.6402 114.04 44.6306 112.818 44.6306C111.596 44.6306 110.606 43.6402 110.606 42.4184C110.606 41.1967 111.596 40.2063 112.818 40.2063Z" fill="#A27070"/>
<path d="M117.242 40.2063C118.464 40.2063 119.454 41.1967 119.454 42.4184C119.454 43.6402 118.464 44.6306 117.242 44.6306C116.02 44.6306 115.03 43.6402 115.03 42.4184C115.03 41.1967 116.02 40.2063 117.242 40.2063Z" fill="#A27070"/>
<path d="M130.515 40.2063C131.737 40.2063 132.727 41.1967 132.727 42.4184C132.727 43.6402 131.737 44.6306 130.515 44.6306C129.293 44.6306 128.303 43.6402 128.303 42.4184C128.303 41.1967 129.293 40.2063 130.515 40.2063Z" fill="#A27070"/>
<path d="M139.363 40.2063C140.585 40.2063 141.576 41.1967 141.576 42.4184C141.576 43.6402 140.585 44.6306 139.363 44.6306C138.142 44.6306 137.151 43.6402 137.151 42.4184C137.151 41.1967 138.142 40.2063 139.363 40.2063Z" fill="#A27070"/>
<path d="M143.788 40.2063C145.01 40.2063 146 41.1967 146 42.4184C146 43.6402 145.01 44.6306 143.788 44.6306C142.566 44.6306 141.576 43.6402 141.576 42.4184C141.576 41.1967 142.566 40.2063 143.788 40.2063Z" fill="#A27070"/>
<path d="M11.0603 44.6304C12.282 44.6304 13.2724 45.6208 13.2724 46.8425C13.2724 48.0643 12.282 49.0546 11.0603 49.0546C9.83856 49.0546 8.84814 48.0643 8.84814 46.8425C8.84814 45.6208 9.83856 44.6304 11.0603 44.6304Z" fill="#A27070"/>
<path d="M15.4846 44.6304C16.7064 44.6304 17.6967 45.6208 17.6967 46.8425C17.6967 48.0643 16.7064 49.0546 15.4846 49.0546C14.2629 49.0546 13.2725 48.0643 13.2725 46.8425C13.2725 45.6208 14.2629 44.6304 15.4846 44.6304Z" fill="#A27070"/>
<path d="M24.3332 44.6304C25.555 44.6304 26.5453 45.6208 26.5453 46.8425C26.5453 48.0643 25.555 49.0546 24.3332 49.0546C23.1115 49.0546 22.1211 48.0643 22.1211 46.8425C22.1211 45.6208 23.1115 44.6304 24.3332 44.6304Z" fill="#A27070"/>
<path d="M28.757 44.6304C29.9788 44.6304 30.9692 45.6208 30.9692 46.8425C30.9692 48.0643 29.9788 49.0546 28.757 49.0546C27.5353 49.0546 26.5449 48.0643 26.5449 46.8425C26.5449 45.6208 27.5353 44.6304 28.757 44.6304Z" fill="#A27070"/>
<path d="M37.6057 44.6304C38.8275 44.6304 39.8178 45.6208 39.8178 46.8425C39.8178 48.0643 38.8275 49.0546 37.6057 49.0546C36.384 49.0546 35.3936 48.0643 35.3936 46.8425C35.3936 45.6208 36.384 44.6304 37.6057 44.6304Z" fill="#A27070"/>
<path d="M46.4543 44.6304C47.6761 44.6304 48.6664 45.6208 48.6664 46.8425C48.6664 48.0643 47.6761 49.0546 46.4543 49.0546C45.2326 49.0546 44.2422 48.0643 44.2422 46.8425C44.2422 45.6208 45.2326 44.6304 46.4543 44.6304Z" fill="#A27070"/>
<path d="M50.8786 44.6304C52.1004 44.6304 53.0908 45.6208 53.0908 46.8425C53.0908 48.0643 52.1004 49.0546 50.8786 49.0546C49.6569 49.0546 48.6665 48.0643 48.6665 46.8425C48.6665 45.6208 49.6569 44.6304 50.8786 44.6304Z" fill="#A27070"/>
<path d="M55.3025 44.6304C56.5242 44.6304 57.5146 45.6208 57.5146 46.8425C57.5146 48.0643 56.5242 49.0546 55.3025 49.0546C54.0807 49.0546 53.0903 48.0643 53.0903 46.8425C53.0903 45.6208 54.0807 44.6304 55.3025 44.6304Z" fill="#A27070"/>
<path d="M95.1208 44.6304C96.3426 44.6304 97.3329 45.6208 97.3329 46.8425C97.3329 48.0643 96.3426 49.0546 95.1208 49.0546C93.8991 49.0546 92.9087 48.0643 92.9087 46.8425C92.9087 45.6208 93.8991 44.6304 95.1208 44.6304Z" fill="#A27070"/>
<path d="M112.818 44.6304C114.04 44.6304 115.03 45.6208 115.03 46.8425C115.03 48.0643 114.04 49.0546 112.818 49.0546C111.596 49.0546 110.606 48.0643 110.606 46.8425C110.606 45.6208 111.596 44.6304 112.818 44.6304Z" fill="#A27070"/>
<path d="M117.242 44.6304C118.464 44.6304 119.454 45.6208 119.454 46.8425C119.454 48.0643 118.464 49.0546 117.242 49.0546C116.02 49.0546 115.03 48.0643 115.03 46.8425C115.03 45.6208 116.02 44.6304 117.242 44.6304Z" fill="#A27070"/>
<path d="M121.667 44.6304C122.888 44.6304 123.879 45.6208 123.879 46.8425C123.879 48.0643 122.888 49.0546 121.667 49.0546C120.445 49.0546 119.455 48.0643 119.455 46.8425C119.455 45.6208 120.445 44.6304 121.667 44.6304Z" fill="#A27070"/>
<path d="M130.515 44.6304C131.737 44.6304 132.727 45.6208 132.727 46.8425C132.727 48.0643 131.737 49.0546 130.515 49.0546C129.293 49.0546 128.303 48.0643 128.303 46.8425C128.303 45.6208 129.293 44.6304 130.515 44.6304Z" fill="#A27070"/>
<path d="M134.939 44.6304C136.161 44.6304 137.151 45.6208 137.151 46.8425C137.151 48.0643 136.161 49.0546 134.939 49.0546C133.717 49.0546 132.727 48.0643 132.727 46.8425C132.727 45.6208 133.717 44.6304 134.939 44.6304Z" fill="#A27070"/>
<path d="M139.363 44.6304C140.585 44.6304 141.576 45.6208 141.576 46.8425C141.576 48.0643 140.585 49.0546 139.363 49.0546C138.142 49.0546 137.151 48.0643 137.151 46.8425C137.151 45.6208 138.142 44.6304 139.363 44.6304Z" fill="#A27070"/>
<path d="M2.21164 49.0547C3.43341 49.0547 4.42376 50.0451 4.42376 51.2668C4.42376 52.4886 3.43341 53.4789 2.21164 53.4789C0.989925 53.4789 -0.000488281 52.4886 -0.000488281 51.2668C-0.000488281 50.0451 0.989925 49.0547 2.21164 49.0547Z" fill="#A27070"/>
<path d="M6.63595 49.0547C7.85773 49.0547 8.84808 50.0451 8.84808 51.2668C8.84808 52.4886 7.85773 53.4789 6.63595 53.4789C5.41424 53.4789 4.42383 52.4886 4.42383 51.2668C4.42383 50.0451 5.41424 49.0547 6.63595 49.0547Z" fill="#A27070"/>
<path d="M11.0603 49.0547C12.282 49.0547 13.2724 50.0451 13.2724 51.2668C13.2724 52.4886 12.282 53.4789 11.0603 53.4789C9.83856 53.4789 8.84814 52.4886 8.84814 51.2668C8.84814 50.0451 9.83856 49.0547 11.0603 49.0547Z" fill="#A27070"/>
<path d="M15.4846 49.0547C16.7064 49.0547 17.6967 50.0451 17.6967 51.2668C17.6967 52.4886 16.7064 53.4789 15.4846 53.4789C14.2629 53.4789 13.2725 52.4886 13.2725 51.2668C13.2725 50.0451 14.2629 49.0547 15.4846 49.0547Z" fill="#A27070"/>
<path d="M19.9084 49.0547C21.1302 49.0547 22.1205 50.0451 22.1205 51.2668C22.1205 52.4886 21.1302 53.4789 19.9084 53.4789C18.6867 53.4789 17.6963 52.4886 17.6963 51.2668C17.6963 50.0451 18.6867 49.0547 19.9084 49.0547Z" fill="#A27070"/>
<path d="M33.1814 49.0547C34.4031 49.0547 35.3935 50.0451 35.3935 51.2668C35.3935 52.4886 34.4031 53.4789 33.1814 53.4789C31.9597 53.4789 30.9692 52.4886 30.9692 51.2668C30.9692 50.0451 31.9597 49.0547 33.1814 49.0547Z" fill="#A27070"/>
<path d="M37.6057 49.0547C38.8275 49.0547 39.8178 50.0451 39.8178 51.2668C39.8178 52.4886 38.8275 53.4789 37.6057 53.4789C36.384 53.4789 35.3936 52.4886 35.3936 51.2668C35.3936 50.0451 36.384 49.0547 37.6057 49.0547Z" fill="#A27070"/>
<path d="M95.1208 49.0547C96.3426 49.0547 97.3329 50.0451 97.3329 51.2668C97.3329 52.4886 96.3426 53.4789 95.1208 53.4789C93.8991 53.4789 92.9087 52.4886 92.9087 51.2668C92.9087 50.0451 93.8991 49.0547 95.1208 49.0547Z" fill="#A27070"/>
<path d="M99.5451 49.0547C100.767 49.0547 101.757 50.0451 101.757 51.2668C101.757 52.4886 100.767 53.4789 99.5451 53.4789C98.3234 53.4789 97.333 52.4886 97.333 51.2668C97.333 50.0451 98.3234 49.0547 99.5451 49.0547Z" fill="#A27070"/>
<path d="M103.969 49.0547C105.191 49.0547 106.182 50.0451 106.182 51.2668C106.182 52.4886 105.191 53.4789 103.969 53.4789C102.748 53.4789 101.757 52.4886 101.757 51.2668C101.757 50.0451 102.748 49.0547 103.969 49.0547Z" fill="#A27070"/>
<path d="M108.394 49.0547C109.616 49.0547 110.606 50.0451 110.606 51.2668C110.606 52.4886 109.616 53.4789 108.394 53.4789C107.172 53.4789 106.182 52.4886 106.182 51.2668C106.182 50.0451 107.172 49.0547 108.394 49.0547Z" fill="#A27070"/>
<path d="M117.242 49.0547C118.464 49.0547 119.454 50.0451 119.454 51.2668C119.454 52.4886 118.464 53.4789 117.242 53.4789C116.02 53.4789 115.03 52.4886 115.03 51.2668C115.03 50.0451 116.02 49.0547 117.242 49.0547Z" fill="#A27070"/>
<path d="M130.515 49.0547C131.737 49.0547 132.727 50.0451 132.727 51.2668C132.727 52.4886 131.737 53.4789 130.515 53.4789C129.293 53.4789 128.303 52.4886 128.303 51.2668C128.303 50.0451 129.293 49.0547 130.515 49.0547Z" fill="#A27070"/>
<path d="M134.939 49.0547C136.161 49.0547 137.151 50.0451 137.151 51.2668C137.151 52.4886 136.161 53.4789 134.939 53.4789C133.717 53.4789 132.727 52.4886 132.727 51.2668C132.727 50.0451 133.717 49.0547 134.939 49.0547Z" fill="#A27070"/>
<path d="M139.363 49.0547C140.585 49.0547 141.576 50.0451 141.576 51.2668C141.576 52.4886 140.585 53.4789 139.363 53.4789C138.142 53.4789 137.151 52.4886 137.151 51.2668C137.151 50.0451 138.142 49.0547 139.363 49.0547Z" fill="#A27070"/>
<path d="M143.788 49.0547C145.01 49.0547 146 50.0451 146 51.2668C146 52.4886 145.01 53.4789 143.788 53.4789C142.566 53.4789 141.576 52.4886 141.576 51.2668C141.576 50.0451 142.566 49.0547 143.788 49.0547Z" fill="#A27070"/>
<path d="M19.9084 53.479C21.1302 53.479 22.1205 54.4694 22.1205 55.6911C22.1205 56.9129 21.1302 57.9033 19.9084 57.9033C18.6867 57.9033 17.6963 56.9129 17.6963 55.6911C17.6963 54.4694 18.6867 53.479 19.9084 53.479Z" fill="#A27070"/>
<path d="M28.757 53.479C29.9788 53.479 30.9692 54.4694 30.9692 55.6911C30.9692 56.9129 29.9788 57.9033 28.757 57.9033C27.5353 57.9033 26.5449 56.9129 26.5449 55.6911C26.5449 54.4694 27.5353 53.479 28.757 53.479Z" fill="#A27070"/>
<path d="M33.1814 53.479C34.4031 53.479 35.3935 54.4694 35.3935 55.6911C35.3935 56.9129 34.4031 57.9033 33.1814 57.9033C31.9597 57.9033 30.9692 56.9129 30.9692 55.6911C30.9692 54.4694 31.9597 53.479 33.1814 53.479Z" fill="#A27070"/>
<path d="M42.03 53.479C43.2518 53.479 44.2421 54.4694 44.2421 55.6911C44.2421 56.9129 43.2518 57.9033 42.03 57.9033C40.8083 57.9033 39.8179 56.9129 39.8179 55.6911C39.8179 54.4694 40.8083 53.479 42.03 53.479Z" fill="#A27070"/>
<path d="M46.4543 53.479C47.6761 53.479 48.6664 54.4694 48.6664 55.6911C48.6664 56.9129 47.6761 57.9033 46.4543 57.9033C45.2326 57.9033 44.2422 56.9129 44.2422 55.6911C44.2422 54.4694 45.2326 53.479 46.4543 53.479Z" fill="#A27070"/>
<path d="M50.8786 53.479C52.1004 53.479 53.0908 54.4694 53.0908 55.6911C53.0908 56.9129 52.1004 57.9033 50.8786 57.9033C49.6569 57.9033 48.6665 56.9129 48.6665 55.6911C48.6665 54.4694 49.6569 53.479 50.8786 53.479Z" fill="#A27070"/>
<path d="M95.1208 53.479C96.3426 53.479 97.3329 54.4694 97.3329 55.6911C97.3329 56.9129 96.3426 57.9033 95.1208 57.9033C93.8991 57.9033 92.9087 56.9129 92.9087 55.6911C92.9087 54.4694 93.8991 53.479 95.1208 53.479Z" fill="#A27070"/>
<path d="M108.394 53.479C109.616 53.479 110.606 54.4694 110.606 55.6911C110.606 56.9129 109.616 57.9033 108.394 57.9033C107.172 57.9033 106.182 56.9129 106.182 55.6911C106.182 54.4694 107.172 53.479 108.394 53.479Z" fill="#A27070"/>
<path d="M112.818 53.479C114.04 53.479 115.03 54.4694 115.03 55.6911C115.03 56.9129 114.04 57.9033 112.818 57.9033C111.596 57.9033 110.606 56.9129 110.606 55.6911C110.606 54.4694 111.596 53.479 112.818 53.479Z" fill="#A27070"/>
<path d="M139.363 53.479C140.585 53.479 141.576 54.4694 141.576 55.6911C141.576 56.9129 140.585 57.9033 139.363 57.9033C138.142 57.9033 137.151 56.9129 137.151 55.6911C137.151 54.4694 138.142 53.479 139.363 53.479Z" fill="#A27070"/>
<path d="M2.21164 57.9031C3.43341 57.9031 4.42376 58.8935 4.42376 60.1152C4.42376 61.337 3.43341 62.3273 2.21164 62.3273C0.989925 62.3273 -0.000488281 61.337 -0.000488281 60.1152C-0.000488281 58.8935 0.989925 57.9031 2.21164 57.9031Z" fill="#A27070"/>
<path d="M11.0603 57.9031C12.282 57.9031 13.2724 58.8935 13.2724 60.1152C13.2724 61.337 12.282 62.3273 11.0603 62.3273C9.83856 62.3273 8.84814 61.337 8.84814 60.1152C8.84814 58.8935 9.83856 57.9031 11.0603 57.9031Z" fill="#A27070"/>
<path d="M24.3332 57.9031C25.555 57.9031 26.5453 58.8935 26.5453 60.1152C26.5453 61.337 25.555 62.3273 24.3332 62.3273C23.1115 62.3273 22.1211 61.337 22.1211 60.1152C22.1211 58.8935 23.1115 57.9031 24.3332 57.9031Z" fill="#A27070"/>
<path d="M33.1814 57.9031C34.4031 57.9031 35.3935 58.8935 35.3935 60.1152C35.3935 61.337 34.4031 62.3273 33.1814 62.3273C31.9597 62.3273 30.9692 61.337 30.9692 60.1152C30.9692 58.8935 31.9597 57.9031 33.1814 57.9031Z" fill="#A27070"/>
<path d="M46.4543 57.9031C47.6761 57.9031 48.6664 58.8935 48.6664 60.1152C48.6664 61.337 47.6761 62.3273 46.4543 62.3273C45.2326 62.3273 44.2422 61.337 44.2422 60.1152C44.2422 58.8935 45.2326 57.9031 46.4543 57.9031Z" fill="#A27070"/>
<path d="M99.5451 57.9031C100.767 57.9031 101.757 58.8935 101.757 60.1152C101.757 61.337 100.767 62.3273 99.5451 62.3273C98.3234 62.3273 97.333 61.337 97.333 60.1152C97.333 58.8935 98.3234 57.9031 99.5451 57.9031Z" fill="#A27070"/>
<path d="M103.969 57.9031C105.191 57.9031 106.182 58.8935 106.182 60.1152C106.182 61.337 105.191 62.3273 103.969 62.3273C102.748 62.3273 101.757 61.337 101.757 60.1152C101.757 58.8935 102.748 57.9031 103.969 57.9031Z" fill="#A27070"/>
<path d="M112.818 57.9031C114.04 57.9031 115.03 58.8935 115.03 60.1152C115.03 61.337 114.04 62.3273 112.818 62.3273C111.596 62.3273 110.606 61.337 110.606 60.1152C110.606 58.8935 111.596 57.9031 112.818 57.9031Z" fill="#A27070"/>
<path d="M117.242 57.9031C118.464 57.9031 119.454 58.8935 119.454 60.1152C119.454 61.337 118.464 62.3273 117.242 62.3273C116.02 62.3273 115.03 61.337 115.03 60.1152C115.03 58.8935 116.02 57.9031 117.242 57.9031Z" fill="#A27070"/>
<path d="M121.667 57.9031C122.888 57.9031 123.879 58.8935 123.879 60.1152C123.879 61.337 122.888 62.3273 121.667 62.3273C120.445 62.3273 119.455 61.337 119.455 60.1152C119.455 58.8935 120.445 57.9031 121.667 57.9031Z" fill="#A27070"/>
<path d="M134.939 57.9031C136.161 57.9031 137.151 58.8935 137.151 60.1152C137.151 61.337 136.161 62.3273 134.939 62.3273C133.717 62.3273 132.727 61.337 132.727 60.1152C132.727 58.8935 133.717 57.9031 134.939 57.9031Z" fill="#A27070"/>
<path d="M143.788 57.9031C145.01 57.9031 146 58.8935 146 60.1152C146 61.337 145.01 62.3273 143.788 62.3273C142.566 62.3273 141.576 61.337 141.576 60.1152C141.576 58.8935 142.566 57.9031 143.788 57.9031Z" fill="#A27070"/>
<path d="M11.0603 62.3274C12.282 62.3274 13.2724 63.3178 13.2724 64.5395C13.2724 65.7613 12.282 66.7516 11.0603 66.7516C9.83856 66.7516 8.84814 65.7613 8.84814 64.5395C8.84814 63.3178 9.83856 62.3274 11.0603 62.3274Z" fill="#A27070"/>
<path d="M19.9084 62.3274C21.1302 62.3274 22.1205 63.3178 22.1205 64.5395C22.1205 65.7613 21.1302 66.7516 19.9084 66.7516C18.6867 66.7516 17.6963 65.7613 17.6963 64.5395C17.6963 63.3178 18.6867 62.3274 19.9084 62.3274Z" fill="#A27070"/>
<path d="M24.3332 62.3274C25.555 62.3274 26.5453 63.3178 26.5453 64.5395C26.5453 65.7613 25.555 66.7516 24.3332 66.7516C23.1115 66.7516 22.1211 65.7613 22.1211 64.5395C22.1211 63.3178 23.1115 62.3274 24.3332 62.3274Z" fill="#A27070"/>
<path d="M28.757 62.3274C29.9788 62.3274 30.9692 63.3178 30.9692 64.5395C30.9692 65.7613 29.9788 66.7516 28.757 66.7516C27.5353 66.7516 26.5449 65.7613 26.5449 64.5395C26.5449 63.3178 27.5353 62.3274 28.757 62.3274Z" fill="#A27070"/>
<path d="M37.6057 62.3274C38.8275 62.3274 39.8178 63.3178 39.8178 64.5395C39.8178 65.7613 38.8275 66.7516 37.6057 66.7516C36.384 66.7516 35.3936 65.7613 35.3936 64.5395C35.3936 63.3178 36.384 62.3274 37.6057 62.3274Z" fill="#A27070"/>
<path d="M46.4543 62.3274C47.6761 62.3274 48.6664 63.3178 48.6664 64.5395C48.6664 65.7613 47.6761 66.7516 46.4543 66.7516C45.2326 66.7516 44.2422 65.7613 44.2422 64.5395C44.2422 63.3178 45.2326 62.3274 46.4543 62.3274Z" fill="#A27070"/>
<path d="M99.5451 62.3274C100.767 62.3274 101.757 63.3178 101.757 64.5395C101.757 65.7613 100.767 66.7516 99.5451 66.7516C98.3234 66.7516 97.333 65.7613 97.333 64.5395C97.333 63.3178 98.3234 62.3274 99.5451 62.3274Z" fill="#A27070"/>
<path d="M130.515 62.3274C131.737 62.3274 132.727 63.3178 132.727 64.5395C132.727 65.7613 131.737 66.7516 130.515 66.7516C129.293 66.7516 128.303 65.7613 128.303 64.5395C128.303 63.3178 129.293 62.3274 130.515 62.3274Z" fill="#A27070"/>
<path d="M134.939 62.3274C136.161 62.3274 137.151 63.3178 137.151 64.5395C137.151 65.7613 136.161 66.7516 134.939 66.7516C133.717 66.7516 132.727 65.7613 132.727 64.5395C132.727 63.3178 133.717 62.3274 134.939 62.3274Z" fill="#A27070"/>
<path d="M139.363 62.3274C140.585 62.3274 141.576 63.3178 141.576 64.5395C141.576 65.7613 140.585 66.7516 139.363 66.7516C138.142 66.7516 137.151 65.7613 137.151 64.5395C137.151 63.3178 138.142 62.3274 139.363 62.3274Z" fill="#A27070"/>
<path d="M2.21164 66.7517C3.43341 66.7517 4.42376 67.7421 4.42376 68.9638C4.42376 70.1856 3.43341 71.176 2.21164 71.176C0.989925 71.176 -0.000488281 70.1856 -0.000488281 68.9638C-0.000488281 67.7421 0.989925 66.7517 2.21164 66.7517Z" fill="#A27070"/>
<path d="M6.63595 66.7517C7.85773 66.7517 8.84808 67.7421 8.84808 68.9638C8.84808 70.1856 7.85773 71.176 6.63595 71.176C5.41424 71.176 4.42383 70.1856 4.42383 68.9638C4.42383 67.7421 5.41424 66.7517 6.63595 66.7517Z" fill="#A27070"/>
<path d="M24.3332 66.7517C25.555 66.7517 26.5453 67.7421 26.5453 68.9638C26.5453 70.1856 25.555 71.176 24.3332 71.176C23.1115 71.176 22.1211 70.1856 22.1211 68.9638C22.1211 67.7421 23.1115 66.7517 24.3332 66.7517Z" fill="#A27070"/>
<path d="M33.1814 66.7517C34.4031 66.7517 35.3935 67.7421 35.3935 68.9638C35.3935 70.1856 34.4031 71.176 33.1814 71.176C31.9597 71.176 30.9692 70.1856 30.9692 68.9638C30.9692 67.7421 31.9597 66.7517 33.1814 66.7517Z" fill="#A27070"/>
<path d="M46.4543 66.7517C47.6761 66.7517 48.6664 67.7421 48.6664 68.9638C48.6664 70.1856 47.6761 71.176 46.4543 71.176C45.2326 71.176 44.2422 70.1856 44.2422 68.9638C44.2422 67.7421 45.2326 66.7517 46.4543 66.7517Z" fill="#A27070"/>
<path d="M99.5451 66.7517C100.767 66.7517 101.757 67.7421 101.757 68.9638C101.757 70.1856 100.767 71.176 99.5451 71.176C98.3234 71.176 97.333 70.1856 97.333 68.9638C97.333 67.7421 98.3234 66.7517 99.5451 66.7517Z" fill="#A27070"/>
<path d="M112.818 66.7517C114.04 66.7517 115.03 67.7421 115.03 68.9638C115.03 70.1856 114.04 71.176 112.818 71.176C111.596 71.176 110.606 70.1856 110.606 68.9638C110.606 67.7421 111.596 66.7517 112.818 66.7517Z" fill="#A27070"/>
<path d="M121.667 66.7517C122.888 66.7517 123.879 67.7421 123.879 68.9638C123.879 70.1856 122.888 71.176 121.667 71.176C120.445 71.176 119.455 70.1856 119.455 68.9638C119.455 67.7421 120.445 66.7517 121.667 66.7517Z" fill="#A27070"/>
<path d="M134.939 66.7517C136.161 66.7517 137.151 67.7421 137.151 68.9638C137.151 70.1856 136.161 71.176 134.939 71.176C133.717 71.176 132.727 70.1856 132.727 68.9638C132.727 67.7421 133.717 66.7517 134.939 66.7517Z" fill="#A27070"/>
<path d="M139.363 66.7517C140.585 66.7517 141.576 67.7421 141.576 68.9638C141.576 70.1856 140.585 71.176 139.363 71.176C138.142 71.176 137.151 70.1856 137.151 68.9638C137.151 67.7421 138.142 66.7517 139.363 66.7517Z" fill="#A27070"/>
<path d="M6.63595 71.176C7.85773 71.176 8.84808 72.1664 8.84808 73.3882C8.84808 74.6099 7.85773 75.6003 6.63595 75.6003C5.41424 75.6003 4.42383 74.6099 4.42383 73.3882C4.42383 72.1664 5.41424 71.176 6.63595 71.176Z" fill="#A27070"/>
<path d="M11.0603 71.176C12.282 71.176 13.2724 72.1664 13.2724 73.3882C13.2724 74.6099 12.282 75.6003 11.0603 75.6003C9.83856 75.6003 8.84814 74.6099 8.84814 73.3882C8.84814 72.1664 9.83856 71.176 11.0603 71.176Z" fill="#A27070"/>
<path d="M24.3332 71.176C25.555 71.176 26.5453 72.1664 26.5453 73.3882C26.5453 74.6099 25.555 75.6003 24.3332 75.6003C23.1115 75.6003 22.1211 74.6099 22.1211 73.3882C22.1211 72.1664 23.1115 71.176 24.3332 71.176Z" fill="#A27070"/>
<path d="M28.757 71.176C29.9788 71.176 30.9692 72.1664 30.9692 73.3882C30.9692 74.6099 29.9788 75.6003 28.757 75.6003C27.5353 75.6003 26.5449 74.6099 26.5449 73.3882C26.5449 72.1664 27.5353 71.176 28.757 71.176Z" fill="#A27070"/>
<path d="M33.1814 71.176C34.4031 71.176 35.3935 72.1664 35.3935 73.3882C35.3935 74.6099 34.4031 75.6003 33.1814 75.6003C31.9597 75.6003 30.9692 74.6099 30.9692 73.3882C30.9692 72.1664 31.9597 71.176 33.1814 71.176Z" fill="#A27070"/>
<path d="M121.667 71.176C122.888 71.176 123.879 72.1664 123.879 73.3882C123.879 74.6099 122.888 75.6003 121.667 75.6003C120.445 75.6003 119.455 74.6099 119.455 73.3882C119.455 72.1664 120.445 71.176 121.667 71.176Z" fill="#A27070"/>
<path d="M126.091 71.176C127.312 71.176 128.303 72.1664 128.303 73.3882C128.303 74.6099 127.312 75.6003 126.091 75.6003C124.869 75.6003 123.878 74.6099 123.878 73.3882C123.878 72.1664 124.869 71.176 126.091 71.176Z" fill="#A27070"/>
<path d="M130.515 71.176C131.737 71.176 132.727 72.1664 132.727 73.3882C132.727 74.6099 131.737 75.6003 130.515 75.6003C129.293 75.6003 128.303 74.6099 128.303 73.3882C128.303 72.1664 129.293 71.176 130.515 71.176Z" fill="#A27070"/>
<path d="M134.939 71.176C136.161 71.176 137.151 72.1664 137.151 73.3882C137.151 74.6099 136.161 75.6003 134.939 75.6003C133.717 75.6003 132.727 74.6099 132.727 73.3882C132.727 72.1664 133.717 71.176 134.939 71.176Z" fill="#A27070"/>
<path d="M143.788 71.176C145.01 71.176 146 72.1664 146 73.3882C146 74.6099 145.01 75.6003 143.788 75.6003C142.566 75.6003 141.576 74.6099 141.576 73.3882C141.576 72.1664 142.566 71.176 143.788 71.176Z" fill="#A27070"/>
<path d="M2.21164 75.6003C3.43341 75.6003 4.42376 76.5908 4.42376 77.8125C4.42376 79.0342 3.43341 80.0246 2.21164 80.0246C0.989925 80.0246 -0.000488281 79.0342 -0.000488281 77.8125C-0.000488281 76.5908 0.989925 75.6003 2.21164 75.6003Z" fill="#A27070"/>
<path d="M6.63595 75.6003C7.85773 75.6003 8.84808 76.5908 8.84808 77.8125C8.84808 79.0342 7.85773 80.0246 6.63595 80.0246C5.41424 80.0246 4.42383 79.0342 4.42383 77.8125C4.42383 76.5908 5.41424 75.6003 6.63595 75.6003Z" fill="#A27070"/>
<path d="M11.0603 75.6003C12.282 75.6003 13.2724 76.5908 13.2724 77.8125C13.2724 79.0342 12.282 80.0246 11.0603 80.0246C9.83856 80.0246 8.84814 79.0342 8.84814 77.8125C8.84814 76.5908 9.83856 75.6003 11.0603 75.6003Z" fill="#A27070"/>
<path d="M19.9084 75.6003C21.1302 75.6003 22.1205 76.5908 22.1205 77.8125C22.1205 79.0342 21.1302 80.0246 19.9084 80.0246C18.6867 80.0246 17.6963 79.0342 17.6963 77.8125C17.6963 76.5908 18.6867 75.6003 19.9084 75.6003Z" fill="#A27070"/>
<path d="M24.3332 75.6003C25.555 75.6003 26.5453 76.5908 26.5453 77.8125C26.5453 79.0342 25.555 80.0246 24.3332 80.0246C23.1115 80.0246 22.1211 79.0342 22.1211 77.8125C22.1211 76.5908 23.1115 75.6003 24.3332 75.6003Z" fill="#A27070"/>
<path d="M42.03 75.6003C43.2518 75.6003 44.2421 76.5908 44.2421 77.8125C44.2421 79.0342 43.2518 80.0246 42.03 80.0246C40.8083 80.0246 39.8179 79.0342 39.8179 77.8125C39.8179 76.5908 40.8083 75.6003 42.03 75.6003Z" fill="#A27070"/>
<path d="M46.4543 75.6003C47.6761 75.6003 48.6664 76.5908 48.6664 77.8125C48.6664 79.0342 47.6761 80.0246 46.4543 80.0246C45.2326 80.0246 44.2422 79.0342 44.2422 77.8125C44.2422 76.5908 45.2326 75.6003 46.4543 75.6003Z" fill="#A27070"/>
<path d="M103.969 75.6003C105.191 75.6003 106.182 76.5908 106.182 77.8125C106.182 79.0342 105.191 80.0246 103.969 80.0246C102.748 80.0246 101.757 79.0342 101.757 77.8125C101.757 76.5908 102.748 75.6003 103.969 75.6003Z" fill="#A27070"/>
<path d="M108.394 75.6003C109.616 75.6003 110.606 76.5908 110.606 77.8125C110.606 79.0342 109.616 80.0246 108.394 80.0246C107.172 80.0246 106.182 79.0342 106.182 77.8125C106.182 76.5908 107.172 75.6003 108.394 75.6003Z" fill="#A27070"/>
<path d="M117.242 75.6003C118.464 75.6003 119.454 76.5908 119.454 77.8125C119.454 79.0342 118.464 80.0246 117.242 80.0246C116.02 80.0246 115.03 79.0342 115.03 77.8125C115.03 76.5908 116.02 75.6003 117.242 75.6003Z" fill="#A27070"/>
<path d="M6.63595 80.0244C7.85773 80.0244 8.84808 81.0148 8.84808 82.2365C8.84808 83.4583 7.85773 84.4487 6.63595 84.4487C5.41424 84.4487 4.42383 83.4583 4.42383 82.2365C4.42383 81.0148 5.41424 80.0244 6.63595 80.0244Z" fill="#A27070"/>
<path d="M11.0603 80.0244C12.282 80.0244 13.2724 81.0148 13.2724 82.2365C13.2724 83.4583 12.282 84.4487 11.0603 84.4487C9.83856 84.4487 8.84814 83.4583 8.84814 82.2365C8.84814 81.0148 9.83856 80.0244 11.0603 80.0244Z" fill="#A27070"/>
<path d="M19.9084 80.0244C21.1302 80.0244 22.1205 81.0148 22.1205 82.2365C22.1205 83.4583 21.1302 84.4487 19.9084 84.4487C18.6867 84.4487 17.6963 83.4583 17.6963 82.2365C17.6963 81.0148 18.6867 80.0244 19.9084 80.0244Z" fill="#A27070"/>
<path d="M28.757 80.0244C29.9788 80.0244 30.9692 81.0148 30.9692 82.2365C30.9692 83.4583 29.9788 84.4487 28.757 84.4487C27.5353 84.4487 26.5449 83.4583 26.5449 82.2365C26.5449 81.0148 27.5353 80.0244 28.757 80.0244Z" fill="#A27070"/>
<path d="M33.1814 80.0244C34.4031 80.0244 35.3935 81.0148 35.3935 82.2365C35.3935 83.4583 34.4031 84.4487 33.1814 84.4487C31.9597 84.4487 30.9692 83.4583 30.9692 82.2365C30.9692 81.0148 31.9597 80.0244 33.1814 80.0244Z" fill="#A27070"/>
<path d="M46.4543 80.0244C47.6761 80.0244 48.6664 81.0148 48.6664 82.2365C48.6664 83.4583 47.6761 84.4487 46.4543 84.4487C45.2326 84.4487 44.2422 83.4583 44.2422 82.2365C44.2422 81.0148 45.2326 80.0244 46.4543 80.0244Z" fill="#A27070"/>
<path d="M99.5451 80.0244C100.767 80.0244 101.757 81.0148 101.757 82.2365C101.757 83.4583 100.767 84.4487 99.5451 84.4487C98.3234 84.4487 97.333 83.4583 97.333 82.2365C97.333 81.0148 98.3234 80.0244 99.5451 80.0244Z" fill="#A27070"/>
<path d="M112.818 80.0244C114.04 80.0244 115.03 81.0148 115.03 82.2365C115.03 83.4583 114.04 84.4487 112.818 84.4487C111.596 84.4487 110.606 83.4583 110.606 82.2365C110.606 81.0148 111.596 80.0244 112.818 80.0244Z" fill="#A27070"/>
<path d="M117.242 80.0244C118.464 80.0244 119.454 81.0148 119.454 82.2365C119.454 83.4583 118.464 84.4487 117.242 84.4487C116.02 84.4487 115.03 83.4583 115.03 82.2365C115.03 81.0148 116.02 80.0244 117.242 80.0244Z" fill="#A27070"/>
<path d="M134.939 80.0244C136.161 80.0244 137.151 81.0148 137.151 82.2365C137.151 83.4583 136.161 84.4487 134.939 84.4487C133.717 84.4487 132.727 83.4583 132.727 82.2365C132.727 81.0148 133.717 80.0244 134.939 80.0244Z" fill="#A27070"/>
<path d="M139.363 80.0244C140.585 80.0244 141.576 81.0148 141.576 82.2365C141.576 83.4583 140.585 84.4487 139.363 84.4487C138.142 84.4487 137.151 83.4583 137.151 82.2365C137.151 81.0148 138.142 80.0244 139.363 80.0244Z" fill="#A27070"/>
<path d="M143.788 80.0244C145.01 80.0244 146 81.0148 146 82.2365C146 83.4583 145.01 84.4487 143.788 84.4487C142.566 84.4487 141.576 83.4583 141.576 82.2365C141.576 81.0148 142.566 80.0244 143.788 80.0244Z" fill="#A27070"/>
<path d="M6.63595 84.4487C7.85773 84.4487 8.84808 85.4391 8.84808 86.6609C8.84808 87.8826 7.85773 88.873 6.63595 88.873C5.41424 88.873 4.42383 87.8826 4.42383 86.6609C4.42383 85.4391 5.41424 84.4487 6.63595 84.4487Z" fill="#A27070"/>
<path d="M11.0603 84.4487C12.282 84.4487 13.2724 85.4391 13.2724 86.6609C13.2724 87.8826 12.282 88.873 11.0603 88.873C9.83856 88.873 8.84814 87.8826 8.84814 86.6609C8.84814 85.4391 9.83856 84.4487 11.0603 84.4487Z" fill="#A27070"/>
<path d="M15.4846 84.4487C16.7064 84.4487 17.6967 85.4391 17.6967 86.6609C17.6967 87.8826 16.7064 88.873 15.4846 88.873C14.2629 88.873 13.2725 87.8826 13.2725 86.6609C13.2725 85.4391 14.2629 84.4487 15.4846 84.4487Z" fill="#A27070"/>
<path d="M19.9084 84.4487C21.1302 84.4487 22.1205 85.4391 22.1205 86.6609C22.1205 87.8826 21.1302 88.873 19.9084 88.873C18.6867 88.873 17.6963 87.8826 17.6963 86.6609C17.6963 85.4391 18.6867 84.4487 19.9084 84.4487Z" fill="#A27070"/>
<path d="M37.6057 84.4487C38.8275 84.4487 39.8178 85.4391 39.8178 86.6609C39.8178 87.8826 38.8275 88.873 37.6057 88.873C36.384 88.873 35.3936 87.8826 35.3936 86.6609C35.3936 85.4391 36.384 84.4487 37.6057 84.4487Z" fill="#A27070"/>
<path d="M99.5451 84.4487C100.767 84.4487 101.757 85.4391 101.757 86.6609C101.757 87.8826 100.767 88.873 99.5451 88.873C98.3234 88.873 97.333 87.8826 97.333 86.6609C97.333 85.4391 98.3234 84.4487 99.5451 84.4487Z" fill="#A27070"/>
<path d="M103.969 84.4487C105.191 84.4487 106.182 85.4391 106.182 86.6609C106.182 87.8826 105.191 88.873 103.969 88.873C102.748 88.873 101.757 87.8826 101.757 86.6609C101.757 85.4391 102.748 84.4487 103.969 84.4487Z" fill="#A27070"/>
<path d="M108.394 84.4487C109.616 84.4487 110.606 85.4391 110.606 86.6609C110.606 87.8826 109.616 88.873 108.394 88.873C107.172 88.873 106.182 87.8826 106.182 86.6609C106.182 85.4391 107.172 84.4487 108.394 84.4487Z" fill="#A27070"/>
<path d="M117.242 84.4487C118.464 84.4487 119.454 85.4391 119.454 86.6609C119.454 87.8826 118.464 88.873 117.242 88.873C116.02 88.873 115.03 87.8826 115.03 86.6609C115.03 85.4391 116.02 84.4487 117.242 84.4487Z" fill="#A27070"/>
<path d="M126.091 84.4487C127.312 84.4487 128.303 85.4391 128.303 86.6609C128.303 87.8826 127.312 88.873 126.091 88.873C124.869 88.873 123.878 87.8826 123.878 86.6609C123.878 85.4391 124.869 84.4487 126.091 84.4487Z" fill="#A27070"/>
<path d="M130.515 84.4487C131.737 84.4487 132.727 85.4391 132.727 86.6609C132.727 87.8826 131.737 88.873 130.515 88.873C129.293 88.873 128.303 87.8826 128.303 86.6609C128.303 85.4391 129.293 84.4487 130.515 84.4487Z" fill="#A27070"/>
<path d="M134.939 84.4487C136.161 84.4487 137.151 85.4391 137.151 86.6609C137.151 87.8826 136.161 88.873 134.939 88.873C133.717 88.873 132.727 87.8826 132.727 86.6609C132.727 85.4391 133.717 84.4487 134.939 84.4487Z" fill="#A27070"/>
<path d="M143.788 84.4487C145.01 84.4487 146 85.4391 146 86.6609C146 87.8826 145.01 88.873 143.788 88.873C142.566 88.873 141.576 87.8826 141.576 86.6609C141.576 85.4391 142.566 84.4487 143.788 84.4487Z" fill="#A27070"/>
<path d="M6.63595 88.873C7.85773 88.873 8.84808 89.8635 8.84808 91.0852C8.84808 92.3069 7.85773 93.2973 6.63595 93.2973C5.41424 93.2973 4.42383 92.3069 4.42383 91.0852C4.42383 89.8635 5.41424 88.873 6.63595 88.873Z" fill="#A27070"/>
<path d="M11.0603 88.873C12.282 88.873 13.2724 89.8635 13.2724 91.0852C13.2724 92.3069 12.282 93.2973 11.0603 93.2973C9.83856 93.2973 8.84814 92.3069 8.84814 91.0852C8.84814 89.8635 9.83856 88.873 11.0603 88.873Z" fill="#A27070"/>
<path d="M28.757 88.873C29.9788 88.873 30.9692 89.8635 30.9692 91.0852C30.9692 92.3069 29.9788 93.2973 28.757 93.2973C27.5353 93.2973 26.5449 92.3069 26.5449 91.0852C26.5449 89.8635 27.5353 88.873 28.757 88.873Z" fill="#A27070"/>
<path d="M33.1814 88.873C34.4031 88.873 35.3935 89.8635 35.3935 91.0852C35.3935 92.3069 34.4031 93.2973 33.1814 93.2973C31.9597 93.2973 30.9692 92.3069 30.9692 91.0852C30.9692 89.8635 31.9597 88.873 33.1814 88.873Z" fill="#A27070"/>
<path d="M46.4543 88.873C47.6761 88.873 48.6664 89.8635 48.6664 91.0852C48.6664 92.3069 47.6761 93.2973 46.4543 93.2973C45.2326 93.2973 44.2422 92.3069 44.2422 91.0852C44.2422 89.8635 45.2326 88.873 46.4543 88.873Z" fill="#A27070"/>
<path d="M112.818 88.873C114.04 88.873 115.03 89.8635 115.03 91.0852C115.03 92.3069 114.04 93.2973 112.818 93.2973C111.596 93.2973 110.606 92.3069 110.606 91.0852C110.606 89.8635 111.596 88.873 112.818 88.873Z" fill="#A27070"/>
<path d="M117.242 88.873C118.464 88.873 119.454 89.8635 119.454 91.0852C119.454 92.3069 118.464 93.2973 117.242 93.2973C116.02 93.2973 115.03 92.3069 115.03 91.0852C115.03 89.8635 116.02 88.873 117.242 88.873Z" fill="#A27070"/>
<path d="M121.667 88.873C122.888 88.873 123.879 89.8635 123.879 91.0852C123.879 92.3069 122.888 93.2973 121.667 93.2973C120.445 93.2973 119.455 92.3069 119.455 91.0852C119.455 89.8635 120.445 88.873 121.667 88.873Z" fill="#A27070"/>
<path d="M126.091 88.873C127.312 88.873 128.303 89.8635 128.303 91.0852C128.303 92.3069 127.312 93.2973 126.091 93.2973C124.869 93.2973 123.878 92.3069 123.878 91.0852C123.878 89.8635 124.869 88.873 126.091 88.873Z" fill="#A27070"/>
<path d="M130.515 88.873C131.737 88.873 132.727 89.8635 132.727 91.0852C132.727 92.3069 131.737 93.2973 130.515 93.2973C129.293 93.2973 128.303 92.3069 128.303 91.0852C128.303 89.8635 129.293 88.873 130.515 88.873Z" fill="#A27070"/>
<path d="M139.363 88.873C140.585 88.873 141.576 89.8635 141.576 91.0852C141.576 92.3069 140.585 93.2973 139.363 93.2973C138.142 93.2973 137.151 92.3069 137.151 91.0852C137.151 89.8635 138.142 88.873 139.363 88.873Z" fill="#A27070"/>
<path d="M143.788 88.873C145.01 88.873 146 89.8635 146 91.0852C146 92.3069 145.01 93.2973 143.788 93.2973C142.566 93.2973 141.576 92.3069 141.576 91.0852C141.576 89.8635 142.566 88.873 143.788 88.873Z" fill="#A27070"/>
<path d="M2.21164 93.2974C3.43341 93.2974 4.42376 94.2878 4.42376 95.5095C4.42376 96.7313 3.43341 97.7216 2.21164 97.7216C0.989925 97.7216 -0.000488281 96.7313 -0.000488281 95.5095C-0.000488281 94.2878 0.989925 93.2974 2.21164 93.2974Z" fill="#A27070"/>
<path d="M15.4846 93.2974C16.7064 93.2974 17.6967 94.2878 17.6967 95.5095C17.6967 96.7313 16.7064 97.7216 15.4846 97.7216C14.2629 97.7216 13.2725 96.7313 13.2725 95.5095C13.2725 94.2878 14.2629 93.2974 15.4846 93.2974Z" fill="#A27070"/>
<path d="M19.9084 93.2974C21.1302 93.2974 22.1205 94.2878 22.1205 95.5095C22.1205 96.7313 21.1302 97.7216 19.9084 97.7216C18.6867 97.7216 17.6963 96.7313 17.6963 95.5095C17.6963 94.2878 18.6867 93.2974 19.9084 93.2974Z" fill="#A27070"/>
<path d="M24.3332 93.2974C25.555 93.2974 26.5453 94.2878 26.5453 95.5095C26.5453 96.7313 25.555 97.7216 24.3332 97.7216C23.1115 97.7216 22.1211 96.7313 22.1211 95.5095C22.1211 94.2878 23.1115 93.2974 24.3332 93.2974Z" fill="#A27070"/>
<path d="M33.1814 93.2974C34.4031 93.2974 35.3935 94.2878 35.3935 95.5095C35.3935 96.7313 34.4031 97.7216 33.1814 97.7216C31.9597 97.7216 30.9692 96.7313 30.9692 95.5095C30.9692 94.2878 31.9597 93.2974 33.1814 93.2974Z" fill="#A27070"/>
<path d="M42.03 93.2974C43.2518 93.2974 44.2421 94.2878 44.2421 95.5095C44.2421 96.7313 43.2518 97.7216 42.03 97.7216C40.8083 97.7216 39.8179 96.7313 39.8179 95.5095C39.8179 94.2878 40.8083 93.2974 42.03 93.2974Z" fill="#A27070"/>
<path d="M50.8786 93.2974C52.1004 93.2974 53.0908 94.2878 53.0908 95.5095C53.0908 96.7313 52.1004 97.7216 50.8786 97.7216C49.6569 97.7216 48.6665 96.7313 48.6665 95.5095C48.6665 94.2878 49.6569 93.2974 50.8786 93.2974Z" fill="#A27070"/>
<path d="M108.394 93.2974C109.616 93.2974 110.606 94.2878 110.606 95.5095C110.606 96.7313 109.616 97.7216 108.394 97.7216C107.172 97.7216 106.182 96.7313 106.182 95.5095C106.182 94.2878 107.172 93.2974 108.394 93.2974Z" fill="#A27070"/>
<path d="M121.667 93.2974C122.888 93.2974 123.879 94.2878 123.879 95.5095C123.879 96.7313 122.888 97.7216 121.667 97.7216C120.445 97.7216 119.455 96.7313 119.455 95.5095C119.455 94.2878 120.445 93.2974 121.667 93.2974Z" fill="#A27070"/>
<path d="M130.515 93.2974C131.737 93.2974 132.727 94.2878 132.727 95.5095C132.727 96.7313 131.737 97.7216 130.515 97.7216C129.293 97.7216 128.303 96.7313 128.303 95.5095C128.303 94.2878 129.293 93.2974 130.515 93.2974Z" fill="#A27070"/>
<path d="M134.939 93.2974C136.161 93.2974 137.151 94.2878 137.151 95.5095C137.151 96.7313 136.161 97.7216 134.939 97.7216C133.717 97.7216 132.727 96.7313 132.727 95.5095C132.727 94.2878 133.717 93.2974 134.939 93.2974Z" fill="#A27070"/>
<path d="M143.788 93.2974C145.01 93.2974 146 94.2878 146 95.5095C146 96.7313 145.01 97.7216 143.788 97.7216C142.566 97.7216 141.576 96.7313 141.576 95.5095C141.576 94.2878 142.566 93.2974 143.788 93.2974Z" fill="#A27070"/>
<path d="M2.21164 97.7214C3.43341 97.7214 4.42376 98.7118 4.42376 99.9336C4.42376 101.155 3.43341 102.146 2.21164 102.146C0.989925 102.146 -0.000488281 101.155 -0.000488281 99.9336C-0.000488281 98.7118 0.989925 97.7214 2.21164 97.7214Z" fill="#A27070"/>
<path d="M11.0603 97.7214C12.282 97.7214 13.2724 98.7118 13.2724 99.9336C13.2724 101.155 12.282 102.146 11.0603 102.146C9.83856 102.146 8.84814 101.155 8.84814 99.9336C8.84814 98.7118 9.83856 97.7214 11.0603 97.7214Z" fill="#A27070"/>
<path d="M15.4846 97.7214C16.7064 97.7214 17.6967 98.7118 17.6967 99.9336C17.6967 101.155 16.7064 102.146 15.4846 102.146C14.2629 102.146 13.2725 101.155 13.2725 99.9336C13.2725 98.7118 14.2629 97.7214 15.4846 97.7214Z" fill="#A27070"/>
<path d="M19.9084 97.7214C21.1302 97.7214 22.1205 98.7118 22.1205 99.9336C22.1205 101.155 21.1302 102.146 19.9084 102.146C18.6867 102.146 17.6963 101.155 17.6963 99.9336C17.6963 98.7118 18.6867 97.7214 19.9084 97.7214Z" fill="#A27070"/>
<path d="M24.3332 97.7214C25.555 97.7214 26.5453 98.7118 26.5453 99.9336C26.5453 101.155 25.555 102.146 24.3332 102.146C23.1115 102.146 22.1211 101.155 22.1211 99.9336C22.1211 98.7118 23.1115 97.7214 24.3332 97.7214Z" fill="#A27070"/>
<path d="M28.757 97.7214C29.9788 97.7214 30.9692 98.7118 30.9692 99.9336C30.9692 101.155 29.9788 102.146 28.757 102.146C27.5353 102.146 26.5449 101.155 26.5449 99.9336C26.5449 98.7118 27.5353 97.7214 28.757 97.7214Z" fill="#A27070"/>
<path d="M33.1814 97.7214C34.4031 97.7214 35.3935 98.7118 35.3935 99.9336C35.3935 101.155 34.4031 102.146 33.1814 102.146C31.9597 102.146 30.9692 101.155 30.9692 99.9336C30.9692 98.7118 31.9597 97.7214 33.1814 97.7214Z" fill="#A27070"/>
<path d="M37.6057 97.7214C38.8275 97.7214 39.8178 98.7118 39.8178 99.9336C39.8178 101.155 38.8275 102.146 37.6057 102.146C36.384 102.146 35.3936 101.155 35.3936 99.9336C35.3936 98.7118 36.384 97.7214 37.6057 97.7214Z" fill="#A27070"/>
<path d="M55.3025 97.7214C56.5242 97.7214 57.5146 98.7118 57.5146 99.9336C57.5146 101.155 56.5242 102.146 55.3025 102.146C54.0807 102.146 53.0903 101.155 53.0903 99.9336C53.0903 98.7118 54.0807 97.7214 55.3025 97.7214Z" fill="#A27070"/>
<path d="M90.6965 97.7214C91.9183 97.7214 92.9086 98.7118 92.9086 99.9336C92.9086 101.155 91.9183 102.146 90.6965 102.146C89.4748 102.146 88.4844 101.155 88.4844 99.9336C88.4844 98.7118 89.4748 97.7214 90.6965 97.7214Z" fill="#A27070"/>
<path d="M95.1208 97.7214C96.3426 97.7214 97.3329 98.7118 97.3329 99.9336C97.3329 101.155 96.3426 102.146 95.1208 102.146C93.8991 102.146 92.9087 101.155 92.9087 99.9336C92.9087 98.7118 93.8991 97.7214 95.1208 97.7214Z" fill="#A27070"/>
<path d="M99.5451 97.7214C100.767 97.7214 101.757 98.7118 101.757 99.9336C101.757 101.155 100.767 102.146 99.5451 102.146C98.3234 102.146 97.333 101.155 97.333 99.9336C97.333 98.7118 98.3234 97.7214 99.5451 97.7214Z" fill="#A27070"/>
<path d="M126.091 97.7214C127.312 97.7214 128.303 98.7118 128.303 99.9336C128.303 101.155 127.312 102.146 126.091 102.146C124.869 102.146 123.878 101.155 123.878 99.9336C123.878 98.7118 124.869 97.7214 126.091 97.7214Z" fill="#A27070"/>
<path d="M130.515 97.7214C131.737 97.7214 132.727 98.7118 132.727 99.9336C132.727 101.155 131.737 102.146 130.515 102.146C129.293 102.146 128.303 101.155 128.303 99.9336C128.303 98.7118 129.293 97.7214 130.515 97.7214Z" fill="#A27070"/>
<path d="M139.363 97.7214C140.585 97.7214 141.576 98.7118 141.576 99.9336C141.576 101.155 140.585 102.146 139.363 102.146C138.142 102.146 137.151 101.155 137.151 99.9336C137.151 98.7118 138.142 97.7214 139.363 97.7214Z" fill="#A27070"/>
<path d="M2.21164 102.146C3.43341 102.146 4.42376 103.136 4.42376 104.358C4.42376 105.58 3.43341 106.57 2.21164 106.57C0.989925 106.57 -0.000488281 105.58 -0.000488281 104.358C-0.000488281 103.136 0.989925 102.146 2.21164 102.146Z" fill="#A27070"/>
<path d="M11.0603 102.146C12.282 102.146 13.2724 103.136 13.2724 104.358C13.2724 105.58 12.282 106.57 11.0603 106.57C9.83856 106.57 8.84814 105.58 8.84814 104.358C8.84814 103.136 9.83856 102.146 11.0603 102.146Z" fill="#A27070"/>
<path d="M24.3332 102.146C25.555 102.146 26.5453 103.136 26.5453 104.358C26.5453 105.58 25.555 106.57 24.3332 106.57C23.1115 106.57 22.1211 105.58 22.1211 104.358C22.1211 103.136 23.1115 102.146 24.3332 102.146Z" fill="#A27070"/>
<path d="M33.1814 102.146C34.4031 102.146 35.3935 103.136 35.3935 104.358C35.3935 105.58 34.4031 106.57 33.1814 106.57C31.9597 106.57 30.9692 105.58 30.9692 104.358C30.9692 103.136 31.9597 102.146 33.1814 102.146Z" fill="#A27070"/>
<path d="M37.6057 102.146C38.8275 102.146 39.8178 103.136 39.8178 104.358C39.8178 105.58 38.8275 106.57 37.6057 106.57C36.384 106.57 35.3936 105.58 35.3936 104.358C35.3936 103.136 36.384 102.146 37.6057 102.146Z" fill="#A27070"/>
<path d="M42.03 102.146C43.2518 102.146 44.2421 103.136 44.2421 104.358C44.2421 105.58 43.2518 106.57 42.03 106.57C40.8083 106.57 39.8179 105.58 39.8179 104.358C39.8179 103.136 40.8083 102.146 42.03 102.146Z" fill="#A27070"/>
<path d="M46.4543 102.146C47.6761 102.146 48.6664 103.136 48.6664 104.358C48.6664 105.58 47.6761 106.57 46.4543 106.57C45.2326 106.57 44.2422 105.58 44.2422 104.358C44.2422 103.136 45.2326 102.146 46.4543 102.146Z" fill="#A27070"/>
<path d="M64.1511 102.146C65.3729 102.146 66.3632 103.136 66.3632 104.358C66.3632 105.58 65.3729 106.57 64.1511 106.57C62.9294 106.57 61.939 105.58 61.939 104.358C61.939 103.136 62.9294 102.146 64.1511 102.146Z" fill="#A27070"/>
<path d="M77.424 102.146C78.6458 102.146 79.6362 103.136 79.6362 104.358C79.6362 105.58 78.6458 106.57 77.424 106.57C76.2023 106.57 75.2119 105.58 75.2119 104.358C75.2119 103.136 76.2023 102.146 77.424 102.146Z" fill="#A27070"/>
<path d="M81.8484 102.146C83.0701 102.146 84.0605 103.136 84.0605 104.358C84.0605 105.58 83.0701 106.57 81.8484 106.57C80.6266 106.57 79.6362 105.58 79.6362 104.358C79.6362 103.136 80.6266 102.146 81.8484 102.146Z" fill="#A27070"/>
<path d="M86.2722 102.146C87.494 102.146 88.4843 103.136 88.4843 104.358C88.4843 105.58 87.494 106.57 86.2722 106.57C85.0505 106.57 84.0601 105.58 84.0601 104.358C84.0601 103.136 85.0505 102.146 86.2722 102.146Z" fill="#A27070"/>
<path d="M90.6965 102.146C91.9183 102.146 92.9086 103.136 92.9086 104.358C92.9086 105.58 91.9183 106.57 90.6965 106.57C89.4748 106.57 88.4844 105.58 88.4844 104.358C88.4844 103.136 89.4748 102.146 90.6965 102.146Z" fill="#A27070"/>
<path d="M95.1208 102.146C96.3426 102.146 97.3329 103.136 97.3329 104.358C97.3329 105.58 96.3426 106.57 95.1208 106.57C93.8991 106.57 92.9087 105.58 92.9087 104.358C92.9087 103.136 93.8991 102.146 95.1208 102.146Z" fill="#A27070"/>
<path d="M99.5451 102.146C100.767 102.146 101.757 103.136 101.757 104.358C101.757 105.58 100.767 106.57 99.5451 106.57C98.3234 106.57 97.333 105.58 97.333 104.358C97.333 103.136 98.3234 102.146 99.5451 102.146Z" fill="#A27070"/>
<path d="M108.394 102.146C109.616 102.146 110.606 103.136 110.606 104.358C110.606 105.58 109.616 106.57 108.394 106.57C107.172 106.57 106.182 105.58 106.182 104.358C106.182 103.136 107.172 102.146 108.394 102.146Z" fill="#A27070"/>
<path d="M130.515 102.146C131.737 102.146 132.727 103.136 132.727 104.358C132.727 105.58 131.737 106.57 130.515 106.57C129.293 106.57 128.303 105.58 128.303 104.358C128.303 103.136 129.293 102.146 130.515 102.146Z" fill="#A27070"/>
<path d="M134.939 102.146C136.161 102.146 137.151 103.136 137.151 104.358C137.151 105.58 136.161 106.57 134.939 106.57C133.717 106.57 132.727 105.58 132.727 104.358C132.727 103.136 133.717 102.146 134.939 102.146Z" fill="#A27070"/>
<path d="M139.363 102.146C140.585 102.146 141.576 103.136 141.576 104.358C141.576 105.58 140.585 106.57 139.363 106.57C138.142 106.57 137.151 105.58 137.151 104.358C137.151 103.136 138.142 102.146 139.363 102.146Z" fill="#A27070"/>
<path d="M2.21164 106.57C3.43341 106.57 4.42376 107.56 4.42376 108.782C4.42376 110.004 3.43341 110.994 2.21164 110.994C0.989925 110.994 -0.000488281 110.004 -0.000488281 108.782C-0.000488281 107.56 0.989925 106.57 2.21164 106.57Z" fill="#A27070"/>
<path d="M15.4846 106.57C16.7064 106.57 17.6967 107.56 17.6967 108.782C17.6967 110.004 16.7064 110.994 15.4846 110.994C14.2629 110.994 13.2725 110.004 13.2725 108.782C13.2725 107.56 14.2629 106.57 15.4846 106.57Z" fill="#A27070"/>
<path d="M19.9084 106.57C21.1302 106.57 22.1205 107.56 22.1205 108.782C22.1205 110.004 21.1302 110.994 19.9084 110.994C18.6867 110.994 17.6963 110.004 17.6963 108.782C17.6963 107.56 18.6867 106.57 19.9084 106.57Z" fill="#A27070"/>
<path d="M24.3332 106.57C25.555 106.57 26.5453 107.56 26.5453 108.782C26.5453 110.004 25.555 110.994 24.3332 110.994C23.1115 110.994 22.1211 110.004 22.1211 108.782C22.1211 107.56 23.1115 106.57 24.3332 106.57Z" fill="#A27070"/>
<path d="M28.757 106.57C29.9788 106.57 30.9692 107.56 30.9692 108.782C30.9692 110.004 29.9788 110.994 28.757 110.994C27.5353 110.994 26.5449 110.004 26.5449 108.782C26.5449 107.56 27.5353 106.57 28.757 106.57Z" fill="#A27070"/>
<path d="M33.1814 106.57C34.4031 106.57 35.3935 107.56 35.3935 108.782C35.3935 110.004 34.4031 110.994 33.1814 110.994C31.9597 110.994 30.9692 110.004 30.9692 108.782C30.9692 107.56 31.9597 106.57 33.1814 106.57Z" fill="#A27070"/>
<path d="M37.6057 106.57C38.8275 106.57 39.8178 107.56 39.8178 108.782C39.8178 110.004 38.8275 110.994 37.6057 110.994C36.384 110.994 35.3936 110.004 35.3936 108.782C35.3936 107.56 36.384 106.57 37.6057 106.57Z" fill="#A27070"/>
<path d="M55.3025 106.57C56.5242 106.57 57.5146 107.56 57.5146 108.782C57.5146 110.004 56.5242 110.994 55.3025 110.994C54.0807 110.994 53.0903 110.004 53.0903 108.782C53.0903 107.56 54.0807 106.57 55.3025 106.57Z" fill="#A27070"/>
<path d="M59.7268 106.57C60.9486 106.57 61.9389 107.56 61.9389 108.782C61.9389 110.004 60.9486 110.994 59.7268 110.994C58.5051 110.994 57.5146 110.004 57.5146 108.782C57.5146 107.56 58.5051 106.57 59.7268 106.57Z" fill="#A27070"/>
<path d="M68.5754 106.57C69.7972 106.57 70.7875 107.56 70.7875 108.782C70.7875 110.004 69.7972 110.994 68.5754 110.994C67.3537 110.994 66.3633 110.004 66.3633 108.782C66.3633 107.56 67.3537 106.57 68.5754 106.57Z" fill="#A27070"/>
<path d="M72.9997 106.57C74.2215 106.57 75.2119 107.56 75.2119 108.782C75.2119 110.004 74.2215 110.994 72.9997 110.994C71.778 110.994 70.7876 110.004 70.7876 108.782C70.7876 107.56 71.778 106.57 72.9997 106.57Z" fill="#A27070"/>
<path d="M95.1208 106.57C96.3426 106.57 97.3329 107.56 97.3329 108.782C97.3329 110.004 96.3426 110.994 95.1208 110.994C93.8991 110.994 92.9087 110.004 92.9087 108.782C92.9087 107.56 93.8991 106.57 95.1208 106.57Z" fill="#A27070"/>
<path d="M108.394 106.57C109.616 106.57 110.606 107.56 110.606 108.782C110.606 110.004 109.616 110.994 108.394 110.994C107.172 110.994 106.182 110.004 106.182 108.782C106.182 107.56 107.172 106.57 108.394 106.57Z" fill="#A27070"/>
<path d="M112.818 106.57C114.04 106.57 115.03 107.56 115.03 108.782C115.03 110.004 114.04 110.994 112.818 110.994C111.596 110.994 110.606 110.004 110.606 108.782C110.606 107.56 111.596 106.57 112.818 106.57Z" fill="#A27070"/>
<path d="M117.242 106.57C118.464 106.57 119.454 107.56 119.454 108.782C119.454 110.004 118.464 110.994 117.242 110.994C116.02 110.994 115.03 110.004 115.03 108.782C115.03 107.56 116.02 106.57 117.242 106.57Z" fill="#A27070"/>
<path d="M121.667 106.57C122.888 106.57 123.879 107.56 123.879 108.782C123.879 110.004 122.888 110.994 121.667 110.994C120.445 110.994 119.455 110.004 119.455 108.782C119.455 107.56 120.445 106.57 121.667 106.57Z" fill="#A27070"/>
<path d="M126.091 106.57C127.312 106.57 128.303 107.56 128.303 108.782C128.303 110.004 127.312 110.994 126.091 110.994C124.869 110.994 123.878 110.004 123.878 108.782C123.878 107.56 124.869 106.57 126.091 106.57Z" fill="#A27070"/>
<path d="M130.515 106.57C131.737 106.57 132.727 107.56 132.727 108.782C132.727 110.004 131.737 110.994 130.515 110.994C129.293 110.994 128.303 110.004 128.303 108.782C128.303 107.56 129.293 106.57 130.515 106.57Z" fill="#A27070"/>
<path d="M139.363 106.57C140.585 106.57 141.576 107.56 141.576 108.782C141.576 110.004 140.585 110.994 139.363 110.994C138.142 110.994 137.151 110.004 137.151 108.782C137.151 107.56 138.142 106.57 139.363 106.57Z" fill="#A27070"/>
<path d="M143.788 106.57C145.01 106.57 146 107.56 146 108.782C146 110.004 145.01 110.994 143.788 110.994C142.566 110.994 141.576 110.004 141.576 108.782C141.576 107.56 142.566 106.57 143.788 106.57Z" fill="#A27070"/>
<path d="M37.6057 110.994C38.8275 110.994 39.8178 111.985 39.8178 113.206C39.8178 114.428 38.8275 115.418 37.6057 115.418C36.384 115.418 35.3936 114.428 35.3936 113.206C35.3936 111.985 36.384 110.994 37.6057 110.994Z" fill="#A27070"/>
<path d="M42.03 110.994C43.2518 110.994 44.2421 111.985 44.2421 113.206C44.2421 114.428 43.2518 115.418 42.03 115.418C40.8083 115.418 39.8179 114.428 39.8179 113.206C39.8179 111.985 40.8083 110.994 42.03 110.994Z" fill="#A27070"/>
<path d="M64.1511 110.994C65.3729 110.994 66.3632 111.985 66.3632 113.206C66.3632 114.428 65.3729 115.418 64.1511 115.418C62.9294 115.418 61.939 114.428 61.939 113.206C61.939 111.985 62.9294 110.994 64.1511 110.994Z" fill="#A27070"/>
<path d="M86.2722 110.994C87.494 110.994 88.4843 111.985 88.4843 113.206C88.4843 114.428 87.494 115.418 86.2722 115.418C85.0505 115.418 84.0601 114.428 84.0601 113.206C84.0601 111.985 85.0505 110.994 86.2722 110.994Z" fill="#A27070"/>
<path d="M108.394 110.994C109.616 110.994 110.606 111.985 110.606 113.206C110.606 114.428 109.616 115.418 108.394 115.418C107.172 115.418 106.182 114.428 106.182 113.206C106.182 111.985 107.172 110.994 108.394 110.994Z" fill="#A27070"/>
<path d="M126.091 110.994C127.312 110.994 128.303 111.985 128.303 113.206C128.303 114.428 127.312 115.418 126.091 115.418C124.869 115.418 123.878 114.428 123.878 113.206C123.878 111.985 124.869 110.994 126.091 110.994Z" fill="#A27070"/>
<path d="M134.939 110.994C136.161 110.994 137.151 111.985 137.151 113.206C137.151 114.428 136.161 115.418 134.939 115.418C133.717 115.418 132.727 114.428 132.727 113.206C132.727 111.985 133.717 110.994 134.939 110.994Z" fill="#A27070"/>
<path d="M139.363 110.994C140.585 110.994 141.576 111.985 141.576 113.206C141.576 114.428 140.585 115.418 139.363 115.418C138.142 115.418 137.151 114.428 137.151 113.206C137.151 111.985 138.142 110.994 139.363 110.994Z" fill="#A27070"/>
<path d="M143.788 110.994C145.01 110.994 146 111.985 146 113.206C146 114.428 145.01 115.418 143.788 115.418C142.566 115.418 141.576 114.428 141.576 113.206C141.576 111.985 142.566 110.994 143.788 110.994Z" fill="#A27070"/>
<path d="M55.3025 115.418C56.5242 115.418 57.5146 116.409 57.5146 117.631C57.5146 118.852 56.5242 119.843 55.3025 119.843C54.0807 119.843 53.0903 118.852 53.0903 117.631C53.0903 116.409 54.0807 115.418 55.3025 115.418Z" fill="#A27070"/>
<path d="M59.7268 115.418C60.9486 115.418 61.9389 116.409 61.9389 117.631C61.9389 118.852 60.9486 119.843 59.7268 119.843C58.5051 119.843 57.5146 118.852 57.5146 117.631C57.5146 116.409 58.5051 115.418 59.7268 115.418Z" fill="#A27070"/>
<path d="M64.1511 115.418C65.3729 115.418 66.3632 116.409 66.3632 117.631C66.3632 118.852 65.3729 119.843 64.1511 119.843C62.9294 119.843 61.939 118.852 61.939 117.631C61.939 116.409 62.9294 115.418 64.1511 115.418Z" fill="#A27070"/>
<path d="M68.5754 115.418C69.7972 115.418 70.7875 116.409 70.7875 117.631C70.7875 118.852 69.7972 119.843 68.5754 119.843C67.3537 119.843 66.3633 118.852 66.3633 117.631C66.3633 116.409 67.3537 115.418 68.5754 115.418Z" fill="#A27070"/>
<path d="M72.9997 115.418C74.2215 115.418 75.2119 116.409 75.2119 117.631C75.2119 118.852 74.2215 119.843 72.9997 119.843C71.778 119.843 70.7876 118.852 70.7876 117.631C70.7876 116.409 71.778 115.418 72.9997 115.418Z" fill="#A27070"/>
<path d="M81.8484 115.418C83.0701 115.418 84.0605 116.409 84.0605 117.631C84.0605 118.852 83.0701 119.843 81.8484 119.843C80.6266 119.843 79.6362 118.852 79.6362 117.631C79.6362 116.409 80.6266 115.418 81.8484 115.418Z" fill="#A27070"/>
<path d="M90.6965 115.418C91.9183 115.418 92.9086 116.409 92.9086 117.631C92.9086 118.852 91.9183 119.843 90.6965 119.843C89.4748 119.843 88.4844 118.852 88.4844 117.631C88.4844 116.409 89.4748 115.418 90.6965 115.418Z" fill="#A27070"/>
<path d="M99.5451 115.418C100.767 115.418 101.757 116.409 101.757 117.631C101.757 118.852 100.767 119.843 99.5451 119.843C98.3234 119.843 97.333 118.852 97.333 117.631C97.333 116.409 98.3234 115.418 99.5451 115.418Z" fill="#A27070"/>
<path d="M103.969 115.418C105.191 115.418 106.182 116.409 106.182 117.631C106.182 118.852 105.191 119.843 103.969 119.843C102.748 119.843 101.757 118.852 101.757 117.631C101.757 116.409 102.748 115.418 103.969 115.418Z" fill="#A27070"/>
<path d="M108.394 115.418C109.616 115.418 110.606 116.409 110.606 117.631C110.606 118.852 109.616 119.843 108.394 119.843C107.172 119.843 106.182 118.852 106.182 117.631C106.182 116.409 107.172 115.418 108.394 115.418Z" fill="#A27070"/>
<path d="M117.242 115.418C118.464 115.418 119.454 116.409 119.454 117.631C119.454 118.852 118.464 119.843 117.242 119.843C116.02 119.843 115.03 118.852 115.03 117.631C115.03 116.409 116.02 115.418 117.242 115.418Z" fill="#A27070"/>
<path d="M126.091 115.418C127.312 115.418 128.303 116.409 128.303 117.631C128.303 118.852 127.312 119.843 126.091 119.843C124.869 119.843 123.878 118.852 123.878 117.631C123.878 116.409 124.869 115.418 126.091 115.418Z" fill="#A27070"/>
<path d="M130.515 115.418C131.737 115.418 132.727 116.409 132.727 117.631C132.727 118.852 131.737 119.843 130.515 119.843C129.293 119.843 128.303 118.852 128.303 117.631C128.303 116.409 129.293 115.418 130.515 115.418Z" fill="#A27070"/>
<path d="M134.939 115.418C136.161 115.418 137.151 116.409 137.151 117.631C137.151 118.852 136.161 119.843 134.939 119.843C133.717 119.843 132.727 118.852 132.727 117.631C132.727 116.409 133.717 115.418 134.939 115.418Z" fill="#A27070"/>
<path d="M139.363 115.418C140.585 115.418 141.576 116.409 141.576 117.631C141.576 118.852 140.585 119.843 139.363 119.843C138.142 119.843 137.151 118.852 137.151 117.631C137.151 116.409 138.142 115.418 139.363 115.418Z" fill="#A27070"/>
<path d="M42.03 119.843C43.2518 119.843 44.2421 120.833 44.2421 122.055C44.2421 123.277 43.2518 124.267 42.03 124.267C40.8083 124.267 39.8179 123.277 39.8179 122.055C39.8179 120.833 40.8083 119.843 42.03 119.843Z" fill="#A27070"/>
<path d="M46.4543 119.843C47.6761 119.843 48.6664 120.833 48.6664 122.055C48.6664 123.277 47.6761 124.267 46.4543 124.267C45.2326 124.267 44.2422 123.277 44.2422 122.055C44.2422 120.833 45.2326 119.843 46.4543 119.843Z" fill="#A27070"/>
<path d="M50.8786 119.843C52.1004 119.843 53.0908 120.833 53.0908 122.055C53.0908 123.277 52.1004 124.267 50.8786 124.267C49.6569 124.267 48.6665 123.277 48.6665 122.055C48.6665 120.833 49.6569 119.843 50.8786 119.843Z" fill="#A27070"/>
<path d="M59.7268 119.843C60.9486 119.843 61.9389 120.833 61.9389 122.055C61.9389 123.277 60.9486 124.267 59.7268 124.267C58.5051 124.267 57.5146 123.277 57.5146 122.055C57.5146 120.833 58.5051 119.843 59.7268 119.843Z" fill="#A27070"/>
<path d="M72.9997 119.843C74.2215 119.843 75.2119 120.833 75.2119 122.055C75.2119 123.277 74.2215 124.267 72.9997 124.267C71.778 124.267 70.7876 123.277 70.7876 122.055C70.7876 120.833 71.778 119.843 72.9997 119.843Z" fill="#A27070"/>
<path d="M103.969 119.843C105.191 119.843 106.182 120.833 106.182 122.055C106.182 123.277 105.191 124.267 103.969 124.267C102.748 124.267 101.757 123.277 101.757 122.055C101.757 120.833 102.748 119.843 103.969 119.843Z" fill="#A27070"/>
<path d="M108.394 119.843C109.616 119.843 110.606 120.833 110.606 122.055C110.606 123.277 109.616 124.267 108.394 124.267C107.172 124.267 106.182 123.277 106.182 122.055C106.182 120.833 107.172 119.843 108.394 119.843Z" fill="#A27070"/>
<path d="M126.091 119.843C127.312 119.843 128.303 120.833 128.303 122.055C128.303 123.277 127.312 124.267 126.091 124.267C124.869 124.267 123.878 123.277 123.878 122.055C123.878 120.833 124.869 119.843 126.091 119.843Z" fill="#A27070"/>
<path d="M130.515 119.843C131.737 119.843 132.727 120.833 132.727 122.055C132.727 123.277 131.737 124.267 130.515 124.267C129.293 124.267 128.303 123.277 128.303 122.055C128.303 120.833 129.293 119.843 130.515 119.843Z" fill="#A27070"/>
<path d="M134.939 119.843C136.161 119.843 137.151 120.833 137.151 122.055C137.151 123.277 136.161 124.267 134.939 124.267C133.717 124.267 132.727 123.277 132.727 122.055C132.727 120.833 133.717 119.843 134.939 119.843Z" fill="#A27070"/>
<path d="M139.363 119.843C140.585 119.843 141.576 120.833 141.576 122.055C141.576 123.277 140.585 124.267 139.363 124.267C138.142 124.267 137.151 123.277 137.151 122.055C137.151 120.833 138.142 119.843 139.363 119.843Z" fill="#A27070"/>
<path d="M143.788 119.843C145.01 119.843 146 120.833 146 122.055C146 123.277 145.01 124.267 143.788 124.267C142.566 124.267 141.576 123.277 141.576 122.055C141.576 120.833 142.566 119.843 143.788 119.843Z" fill="#A27070"/>
<path d="M37.6057 124.267C38.8275 124.267 39.8178 125.258 39.8178 126.479C39.8178 127.701 38.8275 128.691 37.6057 128.691C36.384 128.691 35.3936 127.701 35.3936 126.479C35.3936 125.258 36.384 124.267 37.6057 124.267Z" fill="#A27070"/>
<path d="M42.03 124.267C43.2518 124.267 44.2421 125.258 44.2421 126.479C44.2421 127.701 43.2518 128.691 42.03 128.691C40.8083 128.691 39.8179 127.701 39.8179 126.479C39.8179 125.258 40.8083 124.267 42.03 124.267Z" fill="#A27070"/>
<path d="M46.4543 124.267C47.6761 124.267 48.6664 125.258 48.6664 126.479C48.6664 127.701 47.6761 128.691 46.4543 128.691C45.2326 128.691 44.2422 127.701 44.2422 126.479C44.2422 125.258 45.2326 124.267 46.4543 124.267Z" fill="#A27070"/>
<path d="M55.3025 124.267C56.5242 124.267 57.5146 125.258 57.5146 126.479C57.5146 127.701 56.5242 128.691 55.3025 128.691C54.0807 128.691 53.0903 127.701 53.0903 126.479C53.0903 125.258 54.0807 124.267 55.3025 124.267Z" fill="#A27070"/>
<path d="M59.7268 124.267C60.9486 124.267 61.9389 125.258 61.9389 126.479C61.9389 127.701 60.9486 128.691 59.7268 128.691C58.5051 128.691 57.5146 127.701 57.5146 126.479C57.5146 125.258 58.5051 124.267 59.7268 124.267Z" fill="#A27070"/>
<path d="M64.1511 124.267C65.3729 124.267 66.3632 125.258 66.3632 126.479C66.3632 127.701 65.3729 128.691 64.1511 128.691C62.9294 128.691 61.939 127.701 61.939 126.479C61.939 125.258 62.9294 124.267 64.1511 124.267Z" fill="#A27070"/>
<path d="M68.5754 124.267C69.7972 124.267 70.7875 125.258 70.7875 126.479C70.7875 127.701 69.7972 128.691 68.5754 128.691C67.3537 128.691 66.3633 127.701 66.3633 126.479C66.3633 125.258 67.3537 124.267 68.5754 124.267Z" fill="#A27070"/>
<path d="M95.1208 124.267C96.3426 124.267 97.3329 125.258 97.3329 126.479C97.3329 127.701 96.3426 128.691 95.1208 128.691C93.8991 128.691 92.9087 127.701 92.9087 126.479C92.9087 125.258 93.8991 124.267 95.1208 124.267Z" fill="#A27070"/>
<path d="M99.5451 124.267C100.767 124.267 101.757 125.258 101.757 126.479C101.757 127.701 100.767 128.691 99.5451 128.691C98.3234 128.691 97.333 127.701 97.333 126.479C97.333 125.258 98.3234 124.267 99.5451 124.267Z" fill="#A27070"/>
<path d="M108.394 124.267C109.616 124.267 110.606 125.258 110.606 126.479C110.606 127.701 109.616 128.691 108.394 128.691C107.172 128.691 106.182 127.701 106.182 126.479C106.182 125.258 107.172 124.267 108.394 124.267Z" fill="#A27070"/>
<path d="M112.818 124.267C114.04 124.267 115.03 125.258 115.03 126.479C115.03 127.701 114.04 128.691 112.818 128.691C111.596 128.691 110.606 127.701 110.606 126.479C110.606 125.258 111.596 124.267 112.818 124.267Z" fill="#A27070"/>
<path d="M117.242 124.267C118.464 124.267 119.454 125.258 119.454 126.479C119.454 127.701 118.464 128.691 117.242 128.691C116.02 128.691 115.03 127.701 115.03 126.479C115.03 125.258 116.02 124.267 117.242 124.267Z" fill="#A27070"/>
<path d="M121.667 124.267C122.888 124.267 123.879 125.258 123.879 126.479C123.879 127.701 122.888 128.691 121.667 128.691C120.445 128.691 119.455 127.701 119.455 126.479C119.455 125.258 120.445 124.267 121.667 124.267Z" fill="#A27070"/>
<path d="M126.091 124.267C127.312 124.267 128.303 125.258 128.303 126.479C128.303 127.701 127.312 128.691 126.091 128.691C124.869 128.691 123.878 127.701 123.878 126.479C123.878 125.258 124.869 124.267 126.091 124.267Z" fill="#A27070"/>
<path d="M139.363 124.267C140.585 124.267 141.576 125.258 141.576 126.479C141.576 127.701 140.585 128.691 139.363 128.691C138.142 128.691 137.151 127.701 137.151 126.479C137.151 125.258 138.142 124.267 139.363 124.267Z" fill="#A27070"/>
<path d="M143.788 124.267C145.01 124.267 146 125.258 146 126.479C146 127.701 145.01 128.691 143.788 128.691C142.566 128.691 141.576 127.701 141.576 126.479C141.576 125.258 142.566 124.267 143.788 124.267Z" fill="#A27070"/>
<path d="M37.6057 128.691C38.8275 128.691 39.8178 129.682 39.8178 130.904C39.8178 132.125 38.8275 133.116 37.6057 133.116C36.384 133.116 35.3936 132.125 35.3936 130.904C35.3936 129.682 36.384 128.691 37.6057 128.691Z" fill="#A27070"/>
<path d="M77.424 128.691C78.6458 128.691 79.6362 129.682 79.6362 130.904C79.6362 132.125 78.6458 133.116 77.424 133.116C76.2023 133.116 75.2119 132.125 75.2119 130.904C75.2119 129.682 76.2023 128.691 77.424 128.691Z" fill="#A27070"/>
<path d="M86.2722 128.691C87.494 128.691 88.4843 129.682 88.4843 130.904C88.4843 132.125 87.494 133.116 86.2722 133.116C85.0505 133.116 84.0601 132.125 84.0601 130.904C84.0601 129.682 85.0505 128.691 86.2722 128.691Z" fill="#A27070"/>
<path d="M112.818 128.691C114.04 128.691 115.03 129.682 115.03 130.904C115.03 132.125 114.04 133.116 112.818 133.116C111.596 133.116 110.606 132.125 110.606 130.904C110.606 129.682 111.596 128.691 112.818 128.691Z" fill="#A27070"/>
<path d="M126.091 128.691C127.312 128.691 128.303 129.682 128.303 130.904C128.303 132.125 127.312 133.116 126.091 133.116C124.869 133.116 123.878 132.125 123.878 130.904C123.878 129.682 124.869 128.691 126.091 128.691Z" fill="#A27070"/>
<path d="M130.515 128.691C131.737 128.691 132.727 129.682 132.727 130.904C132.727 132.125 131.737 133.116 130.515 133.116C129.293 133.116 128.303 132.125 128.303 130.904C128.303 129.682 129.293 128.691 130.515 128.691Z" fill="#A27070"/>
<path d="M139.363 128.691C140.585 128.691 141.576 129.682 141.576 130.904C141.576 132.125 140.585 133.116 139.363 133.116C138.142 133.116 137.151 132.125 137.151 130.904C137.151 129.682 138.142 128.691 139.363 128.691Z" fill="#A27070"/>
<path d="M37.6057 133.115C38.8275 133.115 39.8178 134.106 39.8178 135.328C39.8178 136.549 38.8275 137.54 37.6057 137.54C36.384 137.54 35.3936 136.549 35.3936 135.328C35.3936 134.106 36.384 133.115 37.6057 133.115Z" fill="#A27070"/>
<path d="M42.03 133.115C43.2518 133.115 44.2421 134.106 44.2421 135.328C44.2421 136.549 43.2518 137.54 42.03 137.54C40.8083 137.54 39.8179 136.549 39.8179 135.328C39.8179 134.106 40.8083 133.115 42.03 133.115Z" fill="#A27070"/>
<path d="M50.8786 133.115C52.1004 133.115 53.0908 134.106 53.0908 135.328C53.0908 136.549 52.1004 137.54 50.8786 137.54C49.6569 137.54 48.6665 136.549 48.6665 135.328C48.6665 134.106 49.6569 133.115 50.8786 133.115Z" fill="#A27070"/>
<path d="M64.1511 133.115C65.3729 133.115 66.3632 134.106 66.3632 135.328C66.3632 136.549 65.3729 137.54 64.1511 137.54C62.9294 137.54 61.939 136.549 61.939 135.328C61.939 134.106 62.9294 133.115 64.1511 133.115Z" fill="#A27070"/>
<path d="M68.5754 133.115C69.7972 133.115 70.7875 134.106 70.7875 135.328C70.7875 136.549 69.7972 137.54 68.5754 137.54C67.3537 137.54 66.3633 136.549 66.3633 135.328C66.3633 134.106 67.3537 133.115 68.5754 133.115Z" fill="#A27070"/>
<path d="M72.9997 133.115C74.2215 133.115 75.2119 134.106 75.2119 135.328C75.2119 136.549 74.2215 137.54 72.9997 137.54C71.778 137.54 70.7876 136.549 70.7876 135.328C70.7876 134.106 71.778 133.115 72.9997 133.115Z" fill="#A27070"/>
<path d="M77.424 133.115C78.6458 133.115 79.6362 134.106 79.6362 135.328C79.6362 136.549 78.6458 137.54 77.424 137.54C76.2023 137.54 75.2119 136.549 75.2119 135.328C75.2119 134.106 76.2023 133.115 77.424 133.115Z" fill="#A27070"/>
<path d="M95.1208 133.115C96.3426 133.115 97.3329 134.106 97.3329 135.328C97.3329 136.549 96.3426 137.54 95.1208 137.54C93.8991 137.54 92.9087 136.549 92.9087 135.328C92.9087 134.106 93.8991 133.115 95.1208 133.115Z" fill="#A27070"/>
<path d="M99.5451 133.115C100.767 133.115 101.757 134.106 101.757 135.328C101.757 136.549 100.767 137.54 99.5451 137.54C98.3234 137.54 97.333 136.549 97.333 135.328C97.333 134.106 98.3234 133.115 99.5451 133.115Z" fill="#A27070"/>
<path d="M103.969 133.115C105.191 133.115 106.182 134.106 106.182 135.328C106.182 136.549 105.191 137.54 103.969 137.54C102.748 137.54 101.757 136.549 101.757 135.328C101.757 134.106 102.748 133.115 103.969 133.115Z" fill="#A27070"/>
<path d="M112.818 133.115C114.04 133.115 115.03 134.106 115.03 135.328C115.03 136.549 114.04 137.54 112.818 137.54C111.596 137.54 110.606 136.549 110.606 135.328C110.606 134.106 111.596 133.115 112.818 133.115Z" fill="#A27070"/>
<path d="M117.242 133.115C118.464 133.115 119.454 134.106 119.454 135.328C119.454 136.549 118.464 137.54 117.242 137.54C116.02 137.54 115.03 136.549 115.03 135.328C115.03 134.106 116.02 133.115 117.242 133.115Z" fill="#A27070"/>
<path d="M50.8786 137.54C52.1004 137.54 53.0908 138.53 53.0908 139.752C53.0908 140.974 52.1004 141.964 50.8786 141.964C49.6569 141.964 48.6665 140.974 48.6665 139.752C48.6665 138.53 49.6569 137.54 50.8786 137.54Z" fill="#A27070"/>
<path d="M55.3025 137.54C56.5242 137.54 57.5146 138.53 57.5146 139.752C57.5146 140.974 56.5242 141.964 55.3025 141.964C54.0807 141.964 53.0903 140.974 53.0903 139.752C53.0903 138.53 54.0807 137.54 55.3025 137.54Z" fill="#A27070"/>
<path d="M59.7268 137.54C60.9486 137.54 61.9389 138.53 61.9389 139.752C61.9389 140.974 60.9486 141.964 59.7268 141.964C58.5051 141.964 57.5146 140.974 57.5146 139.752C57.5146 138.53 58.5051 137.54 59.7268 137.54Z" fill="#A27070"/>
<path d="M64.1511 137.54C65.3729 137.54 66.3632 138.53 66.3632 139.752C66.3632 140.974 65.3729 141.964 64.1511 141.964C62.9294 141.964 61.939 140.974 61.939 139.752C61.939 138.53 62.9294 137.54 64.1511 137.54Z" fill="#A27070"/>
<path d="M68.5754 137.54C69.7972 137.54 70.7875 138.53 70.7875 139.752C70.7875 140.974 69.7972 141.964 68.5754 141.964C67.3537 141.964 66.3633 140.974 66.3633 139.752C66.3633 138.53 67.3537 137.54 68.5754 137.54Z" fill="#A27070"/>
<path d="M72.9997 137.54C74.2215 137.54 75.2119 138.53 75.2119 139.752C75.2119 140.974 74.2215 141.964 72.9997 141.964C71.778 141.964 70.7876 140.974 70.7876 139.752C70.7876 138.53 71.778 137.54 72.9997 137.54Z" fill="#A27070"/>
<path d="M90.6965 137.54C91.9183 137.54 92.9086 138.53 92.9086 139.752C92.9086 140.974 91.9183 141.964 90.6965 141.964C89.4748 141.964 88.4844 140.974 88.4844 139.752C88.4844 138.53 89.4748 137.54 90.6965 137.54Z" fill="#A27070"/>
<path d="M95.1208 137.54C96.3426 137.54 97.3329 138.53 97.3329 139.752C97.3329 140.974 96.3426 141.964 95.1208 141.964C93.8991 141.964 92.9087 140.974 92.9087 139.752C92.9087 138.53 93.8991 137.54 95.1208 137.54Z" fill="#A27070"/>
<path d="M112.818 137.54C114.04 137.54 115.03 138.53 115.03 139.752C115.03 140.974 114.04 141.964 112.818 141.964C111.596 141.964 110.606 140.974 110.606 139.752C110.606 138.53 111.596 137.54 112.818 137.54Z" fill="#A27070"/>
<path d="M121.667 137.54C122.888 137.54 123.879 138.53 123.879 139.752C123.879 140.974 122.888 141.964 121.667 141.964C120.445 141.964 119.455 140.974 119.455 139.752C119.455 138.53 120.445 137.54 121.667 137.54Z" fill="#A27070"/>
<path d="M130.515 137.54C131.737 137.54 132.727 138.53 132.727 139.752C132.727 140.974 131.737 141.964 130.515 141.964C129.293 141.964 128.303 140.974 128.303 139.752C128.303 138.53 129.293 137.54 130.515 137.54Z" fill="#A27070"/>
<path d="M46.4543 141.964C47.6761 141.964 48.6664 142.955 48.6664 144.176C48.6664 145.398 47.6761 146.388 46.4543 146.388C45.2326 146.388 44.2422 145.398 44.2422 144.176C44.2422 142.955 45.2326 141.964 46.4543 141.964Z" fill="#A27070"/>
<path d="M55.3025 141.964C56.5242 141.964 57.5146 142.955 57.5146 144.176C57.5146 145.398 56.5242 146.388 55.3025 146.388C54.0807 146.388 53.0903 145.398 53.0903 144.176C53.0903 142.955 54.0807 141.964 55.3025 141.964Z" fill="#A27070"/>
<path d="M77.424 141.964C78.6458 141.964 79.6362 142.955 79.6362 144.176C79.6362 145.398 78.6458 146.388 77.424 146.388C76.2023 146.388 75.2119 145.398 75.2119 144.176C75.2119 142.955 76.2023 141.964 77.424 141.964Z" fill="#A27070"/>
<path d="M81.8484 141.964C83.0701 141.964 84.0605 142.955 84.0605 144.176C84.0605 145.398 83.0701 146.388 81.8484 146.388C80.6266 146.388 79.6362 145.398 79.6362 144.176C79.6362 142.955 80.6266 141.964 81.8484 141.964Z" fill="#A27070"/>
<path d="M90.6965 141.964C91.9183 141.964 92.9086 142.955 92.9086 144.176C92.9086 145.398 91.9183 146.388 90.6965 146.388C89.4748 146.388 88.4844 145.398 88.4844 144.176C88.4844 142.955 89.4748 141.964 90.6965 141.964Z" fill="#A27070"/>
<path d="M95.1208 141.964C96.3426 141.964 97.3329 142.955 97.3329 144.176C97.3329 145.398 96.3426 146.388 95.1208 146.388C93.8991 146.388 92.9087 145.398 92.9087 144.176C92.9087 142.955 93.8991 141.964 95.1208 141.964Z" fill="#A27070"/>
<path d="M103.969 141.964C105.191 141.964 106.182 142.955 106.182 144.176C106.182 145.398 105.191 146.388 103.969 146.388C102.748 146.388 101.757 145.398 101.757 144.176C101.757 142.955 102.748 141.964 103.969 141.964Z" fill="#A27070"/>
<path d="M108.394 141.964C109.616 141.964 110.606 142.955 110.606 144.176C110.606 145.398 109.616 146.388 108.394 146.388C107.172 146.388 106.182 145.398 106.182 144.176C106.182 142.955 107.172 141.964 108.394 141.964Z" fill="#A27070"/>
<path d="M134.939 141.964C136.161 141.964 137.151 142.955 137.151 144.176C137.151 145.398 136.161 146.388 134.939 146.388C133.717 146.388 132.727 145.398 132.727 144.176C132.727 142.955 133.717 141.964 134.939 141.964Z" fill="#A27070"/>
<path d="M139.363 141.964C140.585 141.964 141.576 142.955 141.576 144.176C141.576 145.398 140.585 146.388 139.363 146.388C138.142 146.388 137.151 145.398 137.151 144.176C137.151 142.955 138.142 141.964 139.363 141.964Z" fill="#A27070"/>
<path d="M15.484 0.691406C7.09999 0.691406 0.302734 7.48866 0.302734 15.8727C0.302734 24.2567 7.09999 31.0539 15.484 31.0539C23.868 31.0539 30.6653 24.2567 30.6653 15.8727C30.6653 7.48866 23.868 0.691406 15.484 0.691406ZM15.484 26.4996C9.62433 26.4996 4.85711 21.7323 4.85711 15.8727C4.85711 10.013 9.62433 5.24578 15.484 5.24578C21.3437 5.24578 26.1109 10.013 26.1109 15.8727C26.1109 21.7323 21.3437 26.4996 15.484 26.4996Z" fill="#A27070"/>
<path d="M130.515 0.691406C122.131 0.691406 115.333 7.48866 115.333 15.8727C115.333 24.2567 122.131 31.0539 130.515 31.0539C138.899 31.0539 145.696 24.2567 145.696 15.8727C145.696 7.48866 138.899 0.691406 130.515 0.691406ZM130.515 26.4996C124.655 26.4996 119.888 21.7323 119.888 15.8727C119.888 10.013 124.655 5.24578 130.515 5.24578C136.374 5.24578 141.142 10.013 141.142 15.8727C141.142 21.7323 136.374 26.4996 130.515 26.4996Z" fill="#A27070"/>
<path d="M15.484 115.722C7.09999 115.722 0.302734 122.519 0.302734 130.903C0.302734 139.287 7.09999 146.085 15.484 146.085C23.868 146.085 30.6653 139.287 30.6653 130.903C30.6653 122.519 23.868 115.722 15.484 115.722ZM15.484 141.53C9.62433 141.53 4.85711 136.763 4.85711 130.903C4.85711 125.044 9.62433 120.277 15.484 120.277C21.3437 120.277 26.1109 125.044 26.1109 130.903C26.1109 136.763 21.3437 141.53 15.484 141.53Z" fill="#A27070"/>
<path d="M15.3544 22.2488C18.9477 22.2488 21.8607 19.3359 21.8607 15.7426C21.8607 12.1493 18.9477 9.23633 15.3544 9.23633C11.7611 9.23633 8.84814 12.1493 8.84814 15.7426C8.84814 19.3359 11.7611 22.2488 15.3544 22.2488Z" fill="#A27070"/>
<path d="M130.385 22.2488C133.978 22.2488 136.891 19.3359 136.891 15.7426C136.891 12.1493 133.978 9.23633 130.385 9.23633C126.791 9.23633 123.878 12.1493 123.878 15.7426C123.878 19.3359 126.791 22.2488 130.385 22.2488Z" fill="#A27070"/>
<path d="M15.3544 137.28C18.9477 137.28 21.8607 134.367 21.8607 130.773C21.8607 127.18 18.9477 124.267 15.3544 124.267C11.7611 124.267 8.84814 127.18 8.84814 130.773C8.84814 134.367 11.7611 137.28 15.3544 137.28Z" fill="#A27070"/>
<path d="M86.8655 79.2979C86.8572 82.9579 85.6394 86.1405 83.0574 88.7524C80.878 90.9584 78.2511 92.3077 75.1684 92.7968C71.2272 93.4223 67.6935 92.4607 64.481 90.1799C62.438 88.7275 60.9374 86.801 59.8178 84.5783C58.6981 82.3573 58.1824 79.9816 58.2872 77.5011C58.4436 73.7546 59.708 70.4272 62.1868 67.5791C63.6242 65.9287 65.2679 64.5412 67.1961 63.5031C68.8148 62.6313 70.5401 62.0457 72.3651 61.8062C73.32 61.6797 74.2899 61.6614 75.2499 61.5749C76.7472 61.4402 77.9517 60.7414 78.8234 59.5403C80.2658 57.5538 80.4871 55.3828 79.4706 53.1651C78.5689 51.1987 77.0117 50.0507 74.7824 50.0391C73.9073 50.0341 73.1021 50.3269 72.3501 50.8393C70.5267 52.0837 69.8197 53.8605 69.7299 55.97C69.6849 57.0215 69.8563 58.0363 70.224 59.0245C70.5168 59.8131 70.362 60.4453 69.8696 60.7098C69.289 61.0209 68.354 60.8412 67.9447 60.2357C67.612 59.7432 67.3392 59.1826 67.1695 58.6119C66.3476 55.8602 66.6371 53.2217 68.2059 50.7961C69.5934 48.6499 71.5682 47.3124 74.1386 47.0778C77.1398 46.8033 79.5371 48.0061 81.3272 50.4018C82.5567 52.0471 83.124 53.9354 83.0691 55.9717C82.9942 58.76 81.9228 61.1091 79.7268 62.8842C78.5023 63.8741 77.0982 64.4431 75.5194 64.5429C74.0138 64.6377 72.5082 64.7026 71.0475 65.1551C68.755 65.8655 66.8051 67.0983 65.1265 68.8068C63.2416 70.7234 62.0072 72.971 61.5147 75.6162C60.7927 79.4909 61.741 82.9213 64.288 85.9126C66.2761 88.2467 68.8248 89.6342 71.8477 89.9253C74.7807 90.2065 77.5091 89.4678 79.8615 87.5895C81.9278 85.9409 83.2487 83.838 83.7229 81.2277C83.9009 80.2495 83.9608 79.2613 83.8227 78.2697C83.6896 77.3231 82.7613 76.3964 81.7914 76.2334C80.6418 76.0404 79.6103 76.5262 79.0264 77.5361C78.4973 78.4511 78.6138 79.6173 79.3375 80.4774C79.8233 81.0564 80.4771 81.3375 81.2124 81.3791C81.8596 81.4157 82.2506 82.1743 82.1091 82.7C81.8646 83.6084 81.0194 84.006 80.146 83.9578C79.2776 83.9095 78.4491 83.7299 77.7603 83.1376C77.6938 83.081 77.5174 83.0694 77.4426 83.116C75.4528 84.3521 73.3966 84.199 71.317 83.4138C70.0992 82.9546 68.8548 82.6036 67.5538 82.567C66.91 82.5487 66.2545 82.6568 65.619 82.7816C64.7272 82.9562 63.9669 82.5653 63.739 81.7401C63.5128 80.9216 63.9636 80.1463 64.8354 79.9051C66.6904 79.391 68.5437 79.5025 70.3837 79.9783C71.0841 80.1596 71.7662 80.4092 72.4533 80.6388C73.2368 80.9 74.0204 81.1395 74.8606 80.9599C74.9903 80.9316 75.1218 80.9066 75.2466 80.865C75.9187 80.6388 75.9603 80.5622 75.8039 79.8768C75.1201 76.8756 77.3511 73.678 80.3856 73.2538C82.1258 73.0109 83.6813 73.4385 84.979 74.5564C86.1186 75.538 86.7757 76.8456 86.8606 78.3862C86.8772 78.6873 86.8622 78.9918 86.8622 79.2929L86.8655 79.2979Z" fill="#A27070"/>
<path d="M73.2863 99.9172C69.7245 99.8939 66.5885 99.1585 63.6222 97.6546C60.2799 95.961 57.4849 93.6385 55.3205 90.5791C53.7201 88.3181 52.5372 85.8576 51.9033 83.1492C51.7553 82.5136 51.885 81.9413 52.439 81.5304C52.9398 81.1594 53.4871 81.1162 54.0411 81.3907C54.5486 81.6419 54.7565 82.111 54.8763 82.6384C55.2673 84.3769 55.9793 85.9874 56.8977 87.503C59.5545 91.8817 63.351 94.7931 68.2704 96.2272C69.583 96.6098 70.9273 96.8095 72.2965 96.8777C77.2176 97.1222 81.4416 95.4719 84.9869 92.1146C87.7618 89.4877 89.5403 86.2718 90.1043 82.4621C90.7398 78.1665 89.7898 74.2336 87.2361 70.7017C85.8387 68.7685 84.0303 67.3311 81.9174 66.253C81.2187 65.897 80.9209 65.1267 81.1821 64.4114C81.4882 63.5712 82.4148 63.1686 83.2201 63.5563C86.0283 64.9055 88.3275 66.8553 90.066 69.4439C91.5966 71.7215 92.5964 74.222 93.0489 76.9271C93.3684 78.8303 93.3817 80.7452 93.1155 82.665C92.8377 84.6681 92.2753 86.5796 91.3986 88.3963C90.4819 90.2946 89.2741 91.9932 87.8267 93.5237C84.6691 96.8644 80.7878 98.8458 76.2876 99.656C75.7552 99.7525 75.2112 99.7891 74.6705 99.834C74.1298 99.8789 73.5858 99.8972 73.2863 99.9138V99.9172Z" fill="#A27070"/>
</svg>
