<svg width="146" height="146" viewBox="0 0 146 146" fill="none" xmlns="http://www.w3.org/2000/svg">
<path d="M37.6062 0C38.8279 0 39.8183 0.990411 39.8183 2.21212C39.8183 3.43389 38.8279 4.42424 37.6062 4.42424C36.3845 4.42424 35.394 3.43389 35.394 2.21212C35.394 0.990411 36.3845 0 37.6062 0Z" fill="#A27070"/>
<path d="M59.7273 0C60.949 0 61.9394 0.990411 61.9394 2.21212C61.9394 3.43389 60.949 4.42424 59.7273 4.42424C58.5055 4.42424 57.5151 3.43389 57.5151 2.21212C57.5151 0.990411 58.5055 0 59.7273 0Z" fill="#A27070"/>
<path d="M64.1516 0C65.3733 0 66.3637 0.990411 66.3637 2.21212C66.3637 3.43389 65.3733 4.42424 64.1516 4.42424C62.9299 4.42424 61.9395 3.43389 61.9395 2.21212C61.9395 0.990411 62.9299 0 64.1516 0Z" fill="#A27070"/>
<path d="M77.4243 0C78.6461 0 79.6364 0.990411 79.6364 2.21212C79.6364 3.43389 78.6461 4.42424 77.4243 4.42424C76.2026 4.42424 75.2122 3.43389 75.2122 2.21212C75.2122 0.990411 76.2026 0 77.4243 0Z" fill="#A27070"/>
<path d="M90.697 0C91.9188 0 92.9091 0.990411 92.9091 2.21212C92.9091 3.43389 91.9188 4.42424 90.697 4.42424C89.4753 4.42424 88.4849 3.43389 88.4849 2.21212C88.4849 0.990411 89.4753 0 90.697 0Z" fill="#A27070"/>
<path d="M99.5454 0C100.767 0 101.757 0.990411 101.757 2.21212C101.757 3.43389 100.767 4.42424 99.5454 4.42424C98.3237 4.42424 97.3333 3.43389 97.3333 2.21212C97.3333 0.990411 98.3237 0 99.5454 0Z" fill="#A27070"/>
<path d="M103.97 0C105.191 0 106.182 0.990411 106.182 2.21212C106.182 3.43389 105.191 4.42424 103.97 4.42424C102.748 4.42424 101.758 3.43389 101.758 2.21212C101.758 0.990411 102.748 0 103.97 0Z" fill="#A27070"/>
<path d="M108.394 0C109.616 0 110.606 0.990411 110.606 2.21212C110.606 3.43389 109.616 4.42424 108.394 4.42424C107.172 4.42424 106.182 3.43389 106.182 2.21212C106.182 0.990411 107.172 0 108.394 0Z" fill="#A27070"/>
<path d="M42.0302 4.4248C43.252 4.4248 44.2424 5.41522 44.2424 6.63693C44.2424 7.8587 43.252 8.84905 42.0302 8.84905C40.8085 8.84905 39.8181 7.8587 39.8181 6.63693C39.8181 5.41522 40.8085 4.4248 42.0302 4.4248Z" fill="#A27070"/>
<path d="M46.4548 4.4248C47.6766 4.4248 48.6669 5.41522 48.6669 6.63693C48.6669 7.8587 47.6766 8.84905 46.4548 8.84905C45.2331 8.84905 44.2427 7.8587 44.2427 6.63693C44.2427 5.41522 45.2331 4.4248 46.4548 4.4248Z" fill="#A27070"/>
<path d="M50.8786 4.4248C52.1004 4.4248 53.0907 5.41522 53.0907 6.63693C53.0907 7.8587 52.1004 8.84905 50.8786 8.84905C49.6569 8.84905 48.6665 7.8587 48.6665 6.63693C48.6665 5.41522 49.6569 4.4248 50.8786 4.4248Z" fill="#A27070"/>
<path d="M64.1513 4.4248C65.3731 4.4248 66.3635 5.41522 66.3635 6.63693C66.3635 7.8587 65.3731 8.84905 64.1513 8.84905C62.9296 8.84905 61.9392 7.8587 61.9392 6.63693C61.9392 5.41522 62.9296 4.4248 64.1513 4.4248Z" fill="#A27070"/>
<path d="M73.0002 4.4248C74.222 4.4248 75.2123 5.41522 75.2123 6.63693C75.2123 7.8587 74.222 8.84905 73.0002 8.84905C71.7785 8.84905 70.7881 7.8587 70.7881 6.63693C70.7881 5.41522 71.7785 4.4248 73.0002 4.4248Z" fill="#A27070"/>
<path d="M77.424 4.4248C78.6458 4.4248 79.6362 5.41522 79.6362 6.63693C79.6362 7.8587 78.6458 8.84905 77.424 8.84905C76.2023 8.84905 75.2119 7.8587 75.2119 6.63693C75.2119 5.41522 76.2023 4.4248 77.424 4.4248Z" fill="#A27070"/>
<path d="M81.8486 4.4248C83.0704 4.4248 84.0607 5.41522 84.0607 6.63693C84.0607 7.8587 83.0704 8.84905 81.8486 8.84905C80.6269 8.84905 79.6365 7.8587 79.6365 6.63693C79.6365 5.41522 80.6269 4.4248 81.8486 4.4248Z" fill="#A27070"/>
<path d="M86.2729 4.4248C87.4947 4.4248 88.485 5.41522 88.485 6.63693C88.485 7.8587 87.4947 8.84905 86.2729 8.84905C85.0512 8.84905 84.0608 7.8587 84.0608 6.63693C84.0608 5.41522 85.0512 4.4248 86.2729 4.4248Z" fill="#A27070"/>
<path d="M95.1213 4.4248C96.3431 4.4248 97.3334 5.41522 97.3334 6.63693C97.3334 7.8587 96.3431 8.84905 95.1213 8.84905C93.8996 8.84905 92.9092 7.8587 92.9092 6.63693C92.9092 5.41522 93.8996 4.4248 95.1213 4.4248Z" fill="#A27070"/>
<path d="M103.969 4.4248C105.191 4.4248 106.182 5.41522 106.182 6.63693C106.182 7.8587 105.191 8.84905 103.969 8.84905C102.748 8.84905 101.757 7.8587 101.757 6.63693C101.757 5.41522 102.748 4.4248 103.969 4.4248Z" fill="#A27070"/>
<path d="M42.0302 8.84766C43.252 8.84766 44.2424 9.83807 44.2424 11.0598C44.2424 12.2815 43.252 13.2719 42.0302 13.2719C40.8085 13.2719 39.8181 12.2815 39.8181 11.0598C39.8181 9.83807 40.8085 8.84766 42.0302 8.84766Z" fill="#A27070"/>
<path d="M46.4548 8.84766C47.6766 8.84766 48.6669 9.83807 48.6669 11.0598C48.6669 12.2815 47.6766 13.2719 46.4548 13.2719C45.2331 13.2719 44.2427 12.2815 44.2427 11.0598C44.2427 9.83807 45.2331 8.84766 46.4548 8.84766Z" fill="#A27070"/>
<path d="M55.3029 8.84766C56.5247 8.84766 57.5151 9.83807 57.5151 11.0598C57.5151 12.2815 56.5247 13.2719 55.3029 13.2719C54.0812 13.2719 53.0908 12.2815 53.0908 11.0598C53.0908 9.83807 54.0812 8.84766 55.3029 8.84766Z" fill="#A27070"/>
<path d="M64.1513 8.84766C65.3731 8.84766 66.3635 9.83807 66.3635 11.0598C66.3635 12.2815 65.3731 13.2719 64.1513 13.2719C62.9296 13.2719 61.9392 12.2815 61.9392 11.0598C61.9392 9.83807 62.9296 8.84766 64.1513 8.84766Z" fill="#A27070"/>
<path d="M77.424 8.84766C78.6458 8.84766 79.6362 9.83807 79.6362 11.0598C79.6362 12.2815 78.6458 13.2719 77.424 13.2719C76.2023 13.2719 75.2119 12.2815 75.2119 11.0598C75.2119 9.83807 76.2023 8.84766 77.424 8.84766Z" fill="#A27070"/>
<path d="M90.6967 8.84766C91.9185 8.84766 92.9089 9.83807 92.9089 11.0598C92.9089 12.2815 91.9185 13.2719 90.6967 13.2719C89.475 13.2719 88.4846 12.2815 88.4846 11.0598C88.4846 9.83807 89.475 8.84766 90.6967 8.84766Z" fill="#A27070"/>
<path d="M103.969 8.84766C105.191 8.84766 106.182 9.83807 106.182 11.0598C106.182 12.2815 105.191 13.2719 103.969 13.2719C102.748 13.2719 101.757 12.2815 101.757 11.0598C101.757 9.83807 102.748 8.84766 103.969 8.84766Z" fill="#A27070"/>
<path d="M108.394 8.84766C109.616 8.84766 110.606 9.83807 110.606 11.0598C110.606 12.2815 109.616 13.2719 108.394 13.2719C107.172 13.2719 106.182 12.2815 106.182 11.0598C106.182 9.83807 107.172 8.84766 108.394 8.84766Z" fill="#A27070"/>
<path d="M37.6062 13.2734C38.8279 13.2734 39.8183 14.2638 39.8183 15.4856C39.8183 16.7073 38.8279 17.6977 37.6062 17.6977C36.3845 17.6977 35.394 16.7073 35.394 15.4856C35.394 14.2638 36.3845 13.2734 37.6062 13.2734Z" fill="#A27070"/>
<path d="M46.4543 13.2734C47.6761 13.2734 48.6664 14.2638 48.6664 15.4856C48.6664 16.7073 47.6761 17.6977 46.4543 17.6977C45.2326 17.6977 44.2422 16.7073 44.2422 15.4856C44.2422 14.2638 45.2326 13.2734 46.4543 13.2734Z" fill="#A27070"/>
<path d="M50.8789 13.2734C52.1006 13.2734 53.091 14.2638 53.091 15.4856C53.091 16.7073 52.1006 17.6977 50.8789 17.6977C49.6572 17.6977 48.6667 16.7073 48.6667 15.4856C48.6667 14.2638 49.6572 13.2734 50.8789 13.2734Z" fill="#A27070"/>
<path d="M59.727 13.2734C60.9488 13.2734 61.9391 14.2638 61.9391 15.4856C61.9391 16.7073 60.9488 17.6977 59.727 17.6977C58.5053 17.6977 57.5149 16.7073 57.5149 15.4856C57.5149 14.2638 58.5053 13.2734 59.727 13.2734Z" fill="#A27070"/>
<path d="M68.5759 13.2734C69.7977 13.2734 70.788 14.2638 70.788 15.4856C70.788 16.7073 69.7977 17.6977 68.5759 17.6977C67.3542 17.6977 66.3638 16.7073 66.3638 15.4856C66.3638 14.2638 67.3542 13.2734 68.5759 13.2734Z" fill="#A27070"/>
<path d="M81.8484 13.2734C83.0701 13.2734 84.0605 14.2638 84.0605 15.4856C84.0605 16.7073 83.0701 17.6977 81.8484 17.6977C80.6266 17.6977 79.6362 16.7073 79.6362 15.4856C79.6362 14.2638 80.6266 13.2734 81.8484 13.2734Z" fill="#A27070"/>
<path d="M99.5454 13.2734C100.767 13.2734 101.757 14.2638 101.757 15.4856C101.757 16.7073 100.767 17.6977 99.5454 17.6977C98.3237 17.6977 97.3333 16.7073 97.3333 15.4856C97.3333 14.2638 98.3237 13.2734 99.5454 13.2734Z" fill="#A27070"/>
<path d="M42.0305 17.6982C43.2523 17.6982 44.2426 18.6887 44.2426 19.9104C44.2426 21.1321 43.2523 22.1225 42.0305 22.1225C40.8088 22.1225 39.8184 21.1321 39.8184 19.9104C39.8184 18.6887 40.8088 17.6982 42.0305 17.6982Z" fill="#A27070"/>
<path d="M46.4546 17.6982C47.6763 17.6982 48.6667 18.6887 48.6667 19.9104C48.6667 21.1321 47.6763 22.1225 46.4546 22.1225C45.2328 22.1225 44.2424 21.1321 44.2424 19.9104C44.2424 18.6887 45.2328 17.6982 46.4546 17.6982Z" fill="#A27070"/>
<path d="M59.7273 17.6982C60.949 17.6982 61.9394 18.6887 61.9394 19.9104C61.9394 21.1321 60.949 22.1225 59.7273 22.1225C58.5055 22.1225 57.5151 21.1321 57.5151 19.9104C57.5151 18.6887 58.5055 17.6982 59.7273 17.6982Z" fill="#A27070"/>
<path d="M68.5759 17.6982C69.7977 17.6982 70.788 18.6887 70.788 19.9104C70.788 21.1321 69.7977 22.1225 68.5759 22.1225C67.3542 22.1225 66.3638 21.1321 66.3638 19.9104C66.3638 18.6887 67.3542 17.6982 68.5759 17.6982Z" fill="#A27070"/>
<path d="M90.697 17.6982C91.9188 17.6982 92.9091 18.6887 92.9091 19.9104C92.9091 21.1321 91.9188 22.1225 90.697 22.1225C89.4753 22.1225 88.4849 21.1321 88.4849 19.9104C88.4849 18.6887 89.4753 17.6982 90.697 17.6982Z" fill="#A27070"/>
<path d="M95.1211 17.6982C96.3428 17.6982 97.3332 18.6887 97.3332 19.9104C97.3332 21.1321 96.3428 22.1225 95.1211 22.1225C93.8993 22.1225 92.9089 21.1321 92.9089 19.9104C92.9089 18.6887 93.8993 17.6982 95.1211 17.6982Z" fill="#A27070"/>
<path d="M99.5456 17.6982C100.767 17.6982 101.758 18.6887 101.758 19.9104C101.758 21.1321 100.767 22.1225 99.5456 22.1225C98.3239 22.1225 97.3335 21.1321 97.3335 19.9104C97.3335 18.6887 98.3239 17.6982 99.5456 17.6982Z" fill="#A27070"/>
<path d="M42.0305 22.1211C43.2523 22.1211 44.2426 23.1115 44.2426 24.3332C44.2426 25.555 43.2523 26.5453 42.0305 26.5453C40.8088 26.5453 39.8184 25.555 39.8184 24.3332C39.8184 23.1115 40.8088 22.1211 42.0305 22.1211Z" fill="#A27070"/>
<path d="M55.3032 22.1211C56.525 22.1211 57.5153 23.1115 57.5153 24.3332C57.5153 25.555 56.525 26.5453 55.3032 26.5453C54.0815 26.5453 53.0911 25.555 53.0911 24.3332C53.0911 23.1115 54.0815 22.1211 55.3032 22.1211Z" fill="#A27070"/>
<path d="M59.7273 22.1211C60.949 22.1211 61.9394 23.1115 61.9394 24.3332C61.9394 25.555 60.949 26.5453 59.7273 26.5453C58.5055 26.5453 57.5151 25.555 57.5151 24.3332C57.5151 23.1115 58.5055 22.1211 59.7273 22.1211Z" fill="#A27070"/>
<path d="M68.5759 22.1211C69.7977 22.1211 70.788 23.1115 70.788 24.3332C70.788 25.555 69.7977 26.5453 68.5759 26.5453C67.3542 26.5453 66.3638 25.555 66.3638 24.3332C66.3638 23.1115 67.3542 22.1211 68.5759 22.1211Z" fill="#A27070"/>
<path d="M86.2729 22.1211C87.4947 22.1211 88.485 23.1115 88.485 24.3332C88.485 25.555 87.4947 26.5453 86.2729 26.5453C85.0512 26.5453 84.0608 25.555 84.0608 24.3332C84.0608 23.1115 85.0512 22.1211 86.2729 22.1211Z" fill="#A27070"/>
<path d="M99.5456 22.1211C100.767 22.1211 101.758 23.1115 101.758 24.3332C101.758 25.555 100.767 26.5453 99.5456 26.5453C98.3239 26.5453 97.3335 25.555 97.3335 24.3332C97.3335 23.1115 98.3239 22.1211 99.5456 22.1211Z" fill="#A27070"/>
<path d="M37.6062 26.5449C38.8279 26.5449 39.8183 27.5353 39.8183 28.757C39.8183 29.9788 38.8279 30.9692 37.6062 30.9692C36.3845 30.9692 35.394 29.9788 35.394 28.757C35.394 27.5353 36.3845 26.5449 37.6062 26.5449Z" fill="#A27070"/>
<path d="M46.4543 26.5449C47.6761 26.5449 48.6664 27.5353 48.6664 28.757C48.6664 29.9788 47.6761 30.9692 46.4543 30.9692C45.2326 30.9692 44.2422 29.9788 44.2422 28.757C44.2422 27.5353 45.2326 26.5449 46.4543 26.5449Z" fill="#A27070"/>
<path d="M55.3032 26.5449C56.525 26.5449 57.5153 27.5353 57.5153 28.757C57.5153 29.9788 56.525 30.9692 55.3032 30.9692C54.0815 30.9692 53.0911 29.9788 53.0911 28.757C53.0911 27.5353 54.0815 26.5449 55.3032 26.5449Z" fill="#A27070"/>
<path d="M64.1516 26.5449C65.3733 26.5449 66.3637 27.5353 66.3637 28.757C66.3637 29.9788 65.3733 30.9692 64.1516 30.9692C62.9299 30.9692 61.9395 29.9788 61.9395 28.757C61.9395 27.5353 62.9299 26.5449 64.1516 26.5449Z" fill="#A27070"/>
<path d="M72.9997 26.5449C74.2215 26.5449 75.2118 27.5353 75.2118 28.757C75.2118 29.9788 74.2215 30.9692 72.9997 30.9692C71.778 30.9692 70.7876 29.9788 70.7876 28.757C70.7876 27.5353 71.778 26.5449 72.9997 26.5449Z" fill="#A27070"/>
<path d="M81.8484 26.5449C83.0701 26.5449 84.0605 27.5353 84.0605 28.757C84.0605 29.9788 83.0701 30.9692 81.8484 30.9692C80.6266 30.9692 79.6362 29.9788 79.6362 28.757C79.6362 27.5353 80.6266 26.5449 81.8484 26.5449Z" fill="#A27070"/>
<path d="M90.6972 26.5449C91.919 26.5449 92.9093 27.5353 92.9093 28.757C92.9093 29.9788 91.919 30.9692 90.6972 30.9692C89.4755 30.9692 88.4851 29.9788 88.4851 28.757C88.4851 27.5353 89.4755 26.5449 90.6972 26.5449Z" fill="#A27070"/>
<path d="M99.5454 26.5449C100.767 26.5449 101.757 27.5353 101.757 28.757C101.757 29.9788 100.767 30.9692 99.5454 30.9692C98.3237 30.9692 97.3333 29.9788 97.3333 28.757C97.3333 27.5353 98.3237 26.5449 99.5454 26.5449Z" fill="#A27070"/>
<path d="M108.394 26.5449C109.616 26.5449 110.606 27.5353 110.606 28.757C110.606 29.9788 109.616 30.9692 108.394 30.9692C107.172 30.9692 106.182 29.9788 106.182 28.757C106.182 27.5353 107.172 26.5449 108.394 26.5449Z" fill="#A27070"/>
<path d="M50.8786 30.9697C52.1004 30.9697 53.0907 31.9601 53.0907 33.1818C53.0907 34.4036 52.1004 35.394 50.8786 35.394C49.6569 35.394 48.6665 34.4036 48.6665 33.1818C48.6665 31.9601 49.6569 30.9697 50.8786 30.9697Z" fill="#A27070"/>
<path d="M55.3032 30.9697C56.525 30.9697 57.5153 31.9601 57.5153 33.1818C57.5153 34.4036 56.525 35.394 55.3032 35.394C54.0815 35.394 53.0911 34.4036 53.0911 33.1818C53.0911 31.9601 54.0815 30.9697 55.3032 30.9697Z" fill="#A27070"/>
<path d="M59.7273 30.9697C60.949 30.9697 61.9394 31.9601 61.9394 33.1818C61.9394 34.4036 60.949 35.394 59.7273 35.394C58.5055 35.394 57.5151 34.4036 57.5151 33.1818C57.5151 31.9601 58.5055 30.9697 59.7273 30.9697Z" fill="#A27070"/>
<path d="M64.1513 30.9697C65.3731 30.9697 66.3635 31.9601 66.3635 33.1818C66.3635 34.4036 65.3731 35.394 64.1513 35.394C62.9296 35.394 61.9392 34.4036 61.9392 33.1818C61.9392 31.9601 62.9296 30.9697 64.1513 30.9697Z" fill="#A27070"/>
<path d="M68.5759 30.9697C69.7977 30.9697 70.788 31.9601 70.788 33.1818C70.788 34.4036 69.7977 35.394 68.5759 35.394C67.3542 35.394 66.3638 34.4036 66.3638 33.1818C66.3638 31.9601 67.3542 30.9697 68.5759 30.9697Z" fill="#A27070"/>
<path d="M77.424 30.9697C78.6458 30.9697 79.6362 31.9601 79.6362 33.1818C79.6362 34.4036 78.6458 35.394 77.424 35.394C76.2023 35.394 75.2119 34.4036 75.2119 33.1818C75.2119 31.9601 76.2023 30.9697 77.424 30.9697Z" fill="#A27070"/>
<path d="M90.697 30.9697C91.9188 30.9697 92.9091 31.9601 92.9091 33.1818C92.9091 34.4036 91.9188 35.394 90.697 35.394C89.4753 35.394 88.4849 34.4036 88.4849 33.1818C88.4849 31.9601 89.4753 30.9697 90.697 30.9697Z" fill="#A27070"/>
<path d="M95.1211 30.9697C96.3428 30.9697 97.3332 31.9601 97.3332 33.1818C97.3332 34.4036 96.3428 35.394 95.1211 35.394C93.8993 35.394 92.9089 34.4036 92.9089 33.1818C92.9089 31.9601 93.8993 30.9697 95.1211 30.9697Z" fill="#A27070"/>
<path d="M99.5456 30.9697C100.767 30.9697 101.758 31.9601 101.758 33.1818C101.758 34.4036 100.767 35.394 99.5456 35.394C98.3239 35.394 97.3335 34.4036 97.3335 33.1818C97.3335 31.9601 98.3239 30.9697 99.5456 30.9697Z" fill="#A27070"/>
<path d="M108.394 30.9697C109.616 30.9697 110.606 31.9601 110.606 33.1818C110.606 34.4036 109.616 35.394 108.394 35.394C107.172 35.394 106.182 34.4036 106.182 33.1818C106.182 31.9601 107.172 30.9697 108.394 30.9697Z" fill="#A27070"/>
<path d="M11.0608 35.3926C12.2825 35.3926 13.2729 36.383 13.2729 37.6047C13.2729 38.8265 12.2825 39.8168 11.0608 39.8168C9.83904 39.8168 8.84863 38.8265 8.84863 37.6047C8.84863 36.383 9.83904 35.3926 11.0608 35.3926Z" fill="#A27070"/>
<path d="M19.909 35.3926C21.1308 35.3926 22.1211 36.383 22.1211 37.6047C22.1211 38.8265 21.1308 39.8168 19.909 39.8168C18.6873 39.8168 17.6969 38.8265 17.6969 37.6047C17.6969 36.383 18.6873 35.3926 19.909 35.3926Z" fill="#A27070"/>
<path d="M24.333 35.3926C25.5547 35.3926 26.5451 36.383 26.5451 37.6047C26.5451 38.8265 25.5547 39.8168 24.333 39.8168C23.1113 39.8168 22.1208 38.8265 22.1208 37.6047C22.1208 36.383 23.1113 35.3926 24.333 35.3926Z" fill="#A27070"/>
<path d="M28.7578 35.3926C29.9795 35.3926 30.9699 36.383 30.9699 37.6047C30.9699 38.8265 29.9795 39.8168 28.7578 39.8168C27.5361 39.8168 26.5457 38.8265 26.5457 37.6047C26.5457 36.383 27.5361 35.3926 28.7578 35.3926Z" fill="#A27070"/>
<path d="M37.6059 35.3926C38.8277 35.3926 39.818 36.383 39.818 37.6047C39.818 38.8265 38.8277 39.8168 37.6059 39.8168C36.3842 39.8168 35.3938 38.8265 35.3938 37.6047C35.3938 36.383 36.3842 35.3926 37.6059 35.3926Z" fill="#A27070"/>
<path d="M46.4546 35.3926C47.6763 35.3926 48.6667 36.383 48.6667 37.6047C48.6667 38.8265 47.6763 39.8168 46.4546 39.8168C45.2328 39.8168 44.2424 38.8265 44.2424 37.6047C44.2424 36.383 45.2328 35.3926 46.4546 35.3926Z" fill="#A27070"/>
<path d="M50.8786 35.3926C52.1004 35.3926 53.0907 36.383 53.0907 37.6047C53.0907 38.8265 52.1004 39.8168 50.8786 39.8168C49.6569 39.8168 48.6665 38.8265 48.6665 37.6047C48.6665 36.383 49.6569 35.3926 50.8786 35.3926Z" fill="#A27070"/>
<path d="M55.3032 35.3926C56.525 35.3926 57.5153 36.383 57.5153 37.6047C57.5153 38.8265 56.525 39.8168 55.3032 39.8168C54.0815 39.8168 53.0911 38.8265 53.0911 37.6047C53.0911 36.383 54.0815 35.3926 55.3032 35.3926Z" fill="#A27070"/>
<path d="M68.5759 35.3926C69.7977 35.3926 70.788 36.383 70.788 37.6047C70.788 38.8265 69.7977 39.8168 68.5759 39.8168C67.3542 39.8168 66.3638 38.8265 66.3638 37.6047C66.3638 36.383 67.3542 35.3926 68.5759 35.3926Z" fill="#A27070"/>
<path d="M81.8484 35.3926C83.0701 35.3926 84.0605 36.383 84.0605 37.6047C84.0605 38.8265 83.0701 39.8168 81.8484 39.8168C80.6266 39.8168 79.6362 38.8265 79.6362 37.6047C79.6362 36.383 80.6266 35.3926 81.8484 35.3926Z" fill="#A27070"/>
<path d="M95.1211 35.3926C96.3428 35.3926 97.3332 36.383 97.3332 37.6047C97.3332 38.8265 96.3428 39.8168 95.1211 39.8168C93.8993 39.8168 92.9089 38.8265 92.9089 37.6047C92.9089 36.383 93.8993 35.3926 95.1211 35.3926Z" fill="#A27070"/>
<path d="M103.97 35.3926C105.191 35.3926 106.182 36.383 106.182 37.6047C106.182 38.8265 105.191 39.8168 103.97 39.8168C102.748 39.8168 101.758 38.8265 101.758 37.6047C101.758 36.383 102.748 35.3926 103.97 35.3926Z" fill="#A27070"/>
<path d="M108.394 35.3926C109.616 35.3926 110.606 36.383 110.606 37.6047C110.606 38.8265 109.616 39.8168 108.394 39.8168C107.172 39.8168 106.182 38.8265 106.182 37.6047C106.182 36.383 107.172 35.3926 108.394 35.3926Z" fill="#A27070"/>
<path d="M112.818 35.3926C114.04 35.3926 115.03 36.383 115.03 37.6047C115.03 38.8265 114.04 39.8168 112.818 39.8168C111.597 39.8168 110.606 38.8265 110.606 37.6047C110.606 36.383 111.597 35.3926 112.818 35.3926Z" fill="#A27070"/>
<path d="M130.515 35.3926C131.737 35.3926 132.727 36.383 132.727 37.6047C132.727 38.8265 131.737 39.8168 130.515 39.8168C129.293 39.8168 128.303 38.8265 128.303 37.6047C128.303 36.383 129.293 35.3926 130.515 35.3926Z" fill="#A27070"/>
<path d="M143.788 35.3926C145.009 35.3926 146 36.383 146 37.6047C146 38.8265 145.009 39.8168 143.788 39.8168C142.566 39.8168 141.575 38.8265 141.575 37.6047C141.575 36.383 142.566 35.3926 143.788 35.3926Z" fill="#A27070"/>
<path d="M2.21212 39.8184C3.43389 39.8184 4.42424 40.8088 4.42424 42.0305C4.42424 43.2523 3.43389 44.2426 2.21212 44.2426C0.990411 44.2426 0 43.2523 0 42.0305C0 40.8088 0.990411 39.8184 2.21212 39.8184Z" fill="#A27070"/>
<path d="M6.63644 39.8184C7.85821 39.8184 8.84856 40.8088 8.84856 42.0305C8.84856 43.2523 7.85821 44.2426 6.63644 44.2426C5.41473 44.2426 4.42432 43.2523 4.42432 42.0305C4.42432 40.8088 5.41473 39.8184 6.63644 39.8184Z" fill="#A27070"/>
<path d="M15.4848 39.8184C16.7066 39.8184 17.6969 40.8088 17.6969 42.0305C17.6969 43.2523 16.7066 44.2426 15.4848 44.2426C14.2631 44.2426 13.2727 43.2523 13.2727 42.0305C13.2727 40.8088 14.2631 39.8184 15.4848 39.8184Z" fill="#A27070"/>
<path d="M19.9091 39.8184C21.1309 39.8184 22.1213 40.8088 22.1213 42.0305C22.1213 43.2523 21.1309 44.2426 19.9091 44.2426C18.6874 44.2426 17.697 43.2523 17.697 42.0305C17.697 40.8088 18.6874 39.8184 19.9091 39.8184Z" fill="#A27070"/>
<path d="M33.1818 39.8184C34.4036 39.8184 35.394 40.8088 35.394 42.0305C35.394 43.2523 34.4036 44.2426 33.1818 44.2426C31.9601 44.2426 30.9697 43.2523 30.9697 42.0305C30.9697 40.8088 31.9601 39.8184 33.1818 39.8184Z" fill="#A27070"/>
<path d="M50.8789 39.8184C52.1006 39.8184 53.091 40.8088 53.091 42.0305C53.091 43.2523 52.1006 44.2426 50.8789 44.2426C49.6572 44.2426 48.6667 43.2523 48.6667 42.0305C48.6667 40.8088 49.6572 39.8184 50.8789 39.8184Z" fill="#A27070"/>
<path d="M59.7273 39.8184C60.949 39.8184 61.9394 40.8088 61.9394 42.0305C61.9394 43.2523 60.949 44.2426 59.7273 44.2426C58.5055 44.2426 57.5151 43.2523 57.5151 42.0305C57.5151 40.8088 58.5055 39.8184 59.7273 39.8184Z" fill="#A27070"/>
<path d="M64.1516 39.8184C65.3733 39.8184 66.3637 40.8088 66.3637 42.0305C66.3637 43.2523 65.3733 44.2426 64.1516 44.2426C62.9299 44.2426 61.9395 43.2523 61.9395 42.0305C61.9395 40.8088 62.9299 39.8184 64.1516 39.8184Z" fill="#A27070"/>
<path d="M73 39.8184C74.2217 39.8184 75.2121 40.8088 75.2121 42.0305C75.2121 43.2523 74.2217 44.2426 73 44.2426C71.7783 44.2426 70.7878 43.2523 70.7878 42.0305C70.7878 40.8088 71.7783 39.8184 73 39.8184Z" fill="#A27070"/>
<path d="M81.8486 39.8184C83.0704 39.8184 84.0607 40.8088 84.0607 42.0305C84.0607 43.2523 83.0704 44.2426 81.8486 44.2426C80.6269 44.2426 79.6365 43.2523 79.6365 42.0305C79.6365 40.8088 80.6269 39.8184 81.8486 39.8184Z" fill="#A27070"/>
<path d="M95.1213 39.8184C96.3431 39.8184 97.3334 40.8088 97.3334 42.0305C97.3334 43.2523 96.3431 44.2426 95.1213 44.2426C93.8996 44.2426 92.9092 43.2523 92.9092 42.0305C92.9092 40.8088 93.8996 39.8184 95.1213 39.8184Z" fill="#A27070"/>
<path d="M108.394 39.8184C109.616 39.8184 110.606 40.8088 110.606 42.0305C110.606 43.2523 109.616 44.2426 108.394 44.2426C107.172 44.2426 106.182 43.2523 106.182 42.0305C106.182 40.8088 107.172 39.8184 108.394 39.8184Z" fill="#A27070"/>
<path d="M117.242 39.8184C118.464 39.8184 119.455 40.8088 119.455 42.0305C119.455 43.2523 118.464 44.2426 117.242 44.2426C116.021 44.2426 115.03 43.2523 115.03 42.0305C115.03 40.8088 116.021 39.8184 117.242 39.8184Z" fill="#A27070"/>
<path d="M134.939 39.8184C136.161 39.8184 137.152 40.8088 137.152 42.0305C137.152 43.2523 136.161 44.2426 134.939 44.2426C133.718 44.2426 132.727 43.2523 132.727 42.0305C132.727 40.8088 133.718 39.8184 134.939 39.8184Z" fill="#A27070"/>
<path d="M143.788 39.8184C145.01 39.8184 146 40.8088 146 42.0305C146 43.2523 145.01 44.2426 143.788 44.2426C142.566 44.2426 141.576 43.2523 141.576 42.0305C141.576 40.8088 142.566 39.8184 143.788 39.8184Z" fill="#A27070"/>
<path d="M2.21212 44.2432C3.43389 44.2432 4.42424 45.2336 4.42424 46.4553C4.42424 47.6771 3.43389 48.6674 2.21212 48.6674C0.990411 48.6674 0 47.6771 0 46.4553C0 45.2336 0.990411 44.2432 2.21212 44.2432Z" fill="#A27070"/>
<path d="M19.909 44.2432C21.1308 44.2432 22.1211 45.2336 22.1211 46.4553C22.1211 47.6771 21.1308 48.6674 19.909 48.6674C18.6873 48.6674 17.6969 47.6771 17.6969 46.4553C17.6969 45.2336 18.6873 44.2432 19.909 44.2432Z" fill="#A27070"/>
<path d="M28.7575 44.2432C29.9793 44.2432 30.9697 45.2336 30.9697 46.4553C30.9697 47.6771 29.9793 48.6674 28.7575 48.6674C27.5358 48.6674 26.5454 47.6771 26.5454 46.4553C26.5454 45.2336 27.5358 44.2432 28.7575 44.2432Z" fill="#A27070"/>
<path d="M42.0302 44.2432C43.252 44.2432 44.2424 45.2336 44.2424 46.4553C44.2424 47.6771 43.252 48.6674 42.0302 48.6674C40.8085 48.6674 39.8181 47.6771 39.8181 46.4553C39.8181 45.2336 40.8085 44.2432 42.0302 44.2432Z" fill="#A27070"/>
<path d="M50.8786 44.2432C52.1004 44.2432 53.0907 45.2336 53.0907 46.4553C53.0907 47.6771 52.1004 48.6674 50.8786 48.6674C49.6569 48.6674 48.6665 47.6771 48.6665 46.4553C48.6665 45.2336 49.6569 44.2432 50.8786 44.2432Z" fill="#A27070"/>
<path d="M55.3029 44.2432C56.5247 44.2432 57.5151 45.2336 57.5151 46.4553C57.5151 47.6771 56.5247 48.6674 55.3029 48.6674C54.0812 48.6674 53.0908 47.6771 53.0908 46.4553C53.0908 45.2336 54.0812 44.2432 55.3029 44.2432Z" fill="#A27070"/>
<path d="M90.6967 44.2432C91.9185 44.2432 92.9089 45.2336 92.9089 46.4553C92.9089 47.6771 91.9185 48.6674 90.6967 48.6674C89.475 48.6674 88.4846 47.6771 88.4846 46.4553C88.4846 45.2336 89.475 44.2432 90.6967 44.2432Z" fill="#A27070"/>
<path d="M99.5456 44.2432C100.767 44.2432 101.758 45.2336 101.758 46.4553C101.758 47.6771 100.767 48.6674 99.5456 48.6674C98.3239 48.6674 97.3335 47.6771 97.3335 46.4553C97.3335 45.2336 98.3239 44.2432 99.5456 44.2432Z" fill="#A27070"/>
<path d="M112.818 44.2432C114.04 44.2432 115.03 45.2336 115.03 46.4553C115.03 47.6771 114.04 48.6674 112.818 48.6674C111.597 48.6674 110.606 47.6771 110.606 46.4553C110.606 45.2336 111.597 44.2432 112.818 44.2432Z" fill="#A27070"/>
<path d="M126.091 44.2432C127.313 44.2432 128.303 45.2336 128.303 46.4553C128.303 47.6771 127.313 48.6674 126.091 48.6674C124.869 48.6674 123.879 47.6771 123.879 46.4553C123.879 45.2336 124.869 44.2432 126.091 44.2432Z" fill="#A27070"/>
<path d="M130.515 44.2432C131.737 44.2432 132.727 45.2336 132.727 46.4553C132.727 47.6771 131.737 48.6674 130.515 48.6674C129.293 48.6674 128.303 47.6771 128.303 46.4553C128.303 45.2336 129.293 44.2432 130.515 44.2432Z" fill="#A27070"/>
<path d="M134.939 44.2432C136.161 44.2432 137.152 45.2336 137.152 46.4553C137.152 47.6771 136.161 48.6674 134.939 48.6674C133.718 48.6674 132.727 47.6771 132.727 46.4553C132.727 45.2336 133.718 44.2432 134.939 44.2432Z" fill="#A27070"/>
<path d="M139.364 44.2432C140.586 44.2432 141.576 45.2336 141.576 46.4553C141.576 47.6771 140.586 48.6674 139.364 48.6674C138.142 48.6674 137.152 47.6771 137.152 46.4553C137.152 45.2336 138.142 44.2432 139.364 44.2432Z" fill="#A27070"/>
<path d="M143.788 44.2432C145.01 44.2432 146 45.2336 146 46.4553C146 47.6771 145.01 48.6674 143.788 48.6674C142.566 48.6674 141.576 47.6771 141.576 46.4553C141.576 45.2336 142.566 44.2432 143.788 44.2432Z" fill="#A27070"/>
<path d="M2.21212 48.666C3.43389 48.666 4.42424 49.6564 4.42424 50.8781C4.42424 52.0999 3.43389 53.0903 2.21212 53.0903C0.990411 53.0903 0 52.0999 0 50.8781C0 49.6564 0.990411 48.666 2.21212 48.666Z" fill="#A27070"/>
<path d="M11.0606 48.666C12.2824 48.666 13.2728 49.6564 13.2728 50.8781C13.2728 52.0999 12.2824 53.0903 11.0606 53.0903C9.83892 53.0903 8.84851 52.0999 8.84851 50.8781C8.84851 49.6564 9.83892 48.666 11.0606 48.666Z" fill="#A27070"/>
<path d="M15.4848 48.666C16.7066 48.666 17.6969 49.6564 17.6969 50.8781C17.6969 52.0999 16.7066 53.0903 15.4848 53.0903C14.2631 53.0903 13.2727 52.0999 13.2727 50.8781C13.2727 49.6564 14.2631 48.666 15.4848 48.666Z" fill="#A27070"/>
<path d="M37.6059 48.666C38.8277 48.666 39.818 49.6564 39.818 50.8781C39.818 52.0999 38.8277 53.0903 37.6059 53.0903C36.3842 53.0903 35.3938 52.0999 35.3938 50.8781C35.3938 49.6564 36.3842 48.666 37.6059 48.666Z" fill="#A27070"/>
<path d="M99.5456 48.666C100.767 48.666 101.758 49.6564 101.758 50.8781C101.758 52.0999 100.767 53.0903 99.5456 53.0903C98.3239 53.0903 97.3335 52.0999 97.3335 50.8781C97.3335 49.6564 98.3239 48.666 99.5456 48.666Z" fill="#A27070"/>
<path d="M112.818 48.666C114.04 48.666 115.03 49.6564 115.03 50.8781C115.03 52.0999 114.04 53.0903 112.818 53.0903C111.597 53.0903 110.606 52.0999 110.606 50.8781C110.606 49.6564 111.597 48.666 112.818 48.666Z" fill="#A27070"/>
<path d="M117.242 48.666C118.464 48.666 119.454 49.6564 119.454 50.8781C119.454 52.0999 118.464 53.0903 117.242 53.0903C116.02 53.0903 115.03 52.0999 115.03 50.8781C115.03 49.6564 116.02 48.666 117.242 48.666Z" fill="#A27070"/>
<path d="M6.63644 53.0908C7.85821 53.0908 8.84856 54.0812 8.84856 55.3029C8.84856 56.5247 7.85821 57.5151 6.63644 57.5151C5.41473 57.5151 4.42432 56.5247 4.42432 55.3029C4.42432 54.0812 5.41473 53.0908 6.63644 53.0908Z" fill="#A27070"/>
<path d="M11.0605 53.0908C12.2823 53.0908 13.2726 54.0812 13.2726 55.3029C13.2726 56.5247 12.2823 57.5151 11.0605 57.5151C9.8388 57.5151 8.84839 56.5247 8.84839 55.3029C8.84839 54.0812 9.8388 53.0908 11.0605 53.0908Z" fill="#A27070"/>
<path d="M15.4848 53.0908C16.7066 53.0908 17.6969 54.0812 17.6969 55.3029C17.6969 56.5247 16.7066 57.5151 15.4848 57.5151C14.2631 57.5151 13.2727 56.5247 13.2727 55.3029C13.2727 54.0812 14.2631 53.0908 15.4848 53.0908Z" fill="#A27070"/>
<path d="M28.7575 53.0908C29.9793 53.0908 30.9697 54.0812 30.9697 55.3029C30.9697 56.5247 29.9793 57.5151 28.7575 57.5151C27.5358 57.5151 26.5454 56.5247 26.5454 55.3029C26.5454 54.0812 27.5358 53.0908 28.7575 53.0908Z" fill="#A27070"/>
<path d="M33.1818 53.0908C34.4036 53.0908 35.394 54.0812 35.394 55.3029C35.394 56.5247 34.4036 57.5151 33.1818 57.5151C31.9601 57.5151 30.9697 56.5247 30.9697 55.3029C30.9697 54.0812 31.9601 53.0908 33.1818 53.0908Z" fill="#A27070"/>
<path d="M37.6062 53.0908C38.8279 53.0908 39.8183 54.0812 39.8183 55.3029C39.8183 56.5247 38.8279 57.5151 37.6062 57.5151C36.3845 57.5151 35.394 56.5247 35.394 55.3029C35.394 54.0812 36.3845 53.0908 37.6062 53.0908Z" fill="#A27070"/>
<path d="M99.5454 53.0908C100.767 53.0908 101.757 54.0812 101.757 55.3029C101.757 56.5247 100.767 57.5151 99.5454 57.5151C98.3237 57.5151 97.3333 56.5247 97.3333 55.3029C97.3333 54.0812 98.3237 53.0908 99.5454 53.0908Z" fill="#A27070"/>
<path d="M108.394 53.0908C109.616 53.0908 110.606 54.0812 110.606 55.3029C110.606 56.5247 109.616 57.5151 108.394 57.5151C107.172 57.5151 106.182 56.5247 106.182 55.3029C106.182 54.0812 107.172 53.0908 108.394 53.0908Z" fill="#A27070"/>
<path d="M112.818 53.0908C114.04 53.0908 115.03 54.0812 115.03 55.3029C115.03 56.5247 114.04 57.5151 112.818 57.5151C111.596 57.5151 110.606 56.5247 110.606 55.3029C110.606 54.0812 111.596 53.0908 112.818 53.0908Z" fill="#A27070"/>
<path d="M117.242 53.0908C118.464 53.0908 119.455 54.0812 119.455 55.3029C119.455 56.5247 118.464 57.5151 117.242 57.5151C116.021 57.5151 115.03 56.5247 115.03 55.3029C115.03 54.0812 116.021 53.0908 117.242 53.0908Z" fill="#A27070"/>
<path d="M121.667 53.0908C122.888 53.0908 123.879 54.0812 123.879 55.3029C123.879 56.5247 122.888 57.5151 121.667 57.5151C120.445 57.5151 119.455 56.5247 119.455 55.3029C119.455 54.0812 120.445 53.0908 121.667 53.0908Z" fill="#A27070"/>
<path d="M126.091 53.0908C127.313 53.0908 128.303 54.0812 128.303 55.3029C128.303 56.5247 127.313 57.5151 126.091 57.5151C124.869 57.5151 123.879 56.5247 123.879 55.3029C123.879 54.0812 124.869 53.0908 126.091 53.0908Z" fill="#A27070"/>
<path d="M143.788 53.0908C145.01 53.0908 146 54.0812 146 55.3029C146 56.5247 145.01 57.5151 143.788 57.5151C142.566 57.5151 141.576 56.5247 141.576 55.3029C141.576 54.0812 142.566 53.0908 143.788 53.0908Z" fill="#A27070"/>
<path d="M6.63632 57.5156C7.85809 57.5156 8.84844 58.506 8.84844 59.7277C8.84844 60.9495 7.85809 61.9399 6.63632 61.9399C5.41461 61.9399 4.42419 60.9495 4.42419 59.7277C4.42419 58.506 5.41461 57.5156 6.63632 57.5156Z" fill="#A27070"/>
<path d="M11.0606 57.5156C12.2824 57.5156 13.2728 58.506 13.2728 59.7277C13.2728 60.9495 12.2824 61.9399 11.0606 61.9399C9.83892 61.9399 8.84851 60.9495 8.84851 59.7277C8.84851 58.506 9.83892 57.5156 11.0606 57.5156Z" fill="#A27070"/>
<path d="M24.3332 57.5156C25.555 57.5156 26.5453 58.506 26.5453 59.7277C26.5453 60.9495 25.555 61.9399 24.3332 61.9399C23.1115 61.9399 22.1211 60.9495 22.1211 59.7277C22.1211 58.506 23.1115 57.5156 24.3332 57.5156Z" fill="#A27070"/>
<path d="M46.4548 57.5156C47.6766 57.5156 48.6669 58.506 48.6669 59.7277C48.6669 60.9495 47.6766 61.9399 46.4548 61.9399C45.2331 61.9399 44.2427 60.9495 44.2427 59.7277C44.2427 58.506 45.2331 57.5156 46.4548 57.5156Z" fill="#A27070"/>
<path d="M99.5456 57.5156C100.767 57.5156 101.758 58.506 101.758 59.7277C101.758 60.9495 100.767 61.9399 99.5456 61.9399C98.3239 61.9399 97.3335 60.9495 97.3335 59.7277C97.3335 58.506 98.3239 57.5156 99.5456 57.5156Z" fill="#A27070"/>
<path d="M108.394 57.5156C109.616 57.5156 110.606 58.506 110.606 59.7277C110.606 60.9495 109.616 61.9399 108.394 61.9399C107.172 61.9399 106.182 60.9495 106.182 59.7277C106.182 58.506 107.172 57.5156 108.394 57.5156Z" fill="#A27070"/>
<path d="M117.242 57.5156C118.464 57.5156 119.454 58.506 119.454 59.7277C119.454 60.9495 118.464 61.9399 117.242 61.9399C116.02 61.9399 115.03 60.9495 115.03 59.7277C115.03 58.506 116.02 57.5156 117.242 57.5156Z" fill="#A27070"/>
<path d="M121.667 57.5156C122.888 57.5156 123.879 58.506 123.879 59.7277C123.879 60.9495 122.888 61.9399 121.667 61.9399C120.445 61.9399 119.455 60.9495 119.455 59.7277C119.455 58.506 120.445 57.5156 121.667 57.5156Z" fill="#A27070"/>
<path d="M130.515 57.5156C131.737 57.5156 132.727 58.506 132.727 59.7277C132.727 60.9495 131.737 61.9399 130.515 61.9399C129.293 61.9399 128.303 60.9495 128.303 59.7277C128.303 58.506 129.293 57.5156 130.515 57.5156Z" fill="#A27070"/>
<path d="M139.364 57.5156C140.586 57.5156 141.576 58.506 141.576 59.7277C141.576 60.9495 140.586 61.9399 139.364 61.9399C138.142 61.9399 137.152 60.9495 137.152 59.7277C137.152 58.506 138.142 57.5156 139.364 57.5156Z" fill="#A27070"/>
<path d="M143.788 57.5156C145.01 57.5156 146 58.506 146 59.7277C146 60.9495 145.01 61.9399 143.788 61.9399C142.566 61.9399 141.576 60.9495 141.576 59.7277C141.576 58.506 142.566 57.5156 143.788 57.5156Z" fill="#A27070"/>
<path d="M15.4849 61.9395C16.7067 61.9395 17.6971 62.9299 17.6971 64.1516C17.6971 65.3733 16.7067 66.3637 15.4849 66.3637C14.2632 66.3637 13.2728 65.3733 13.2728 64.1516C13.2728 62.9299 14.2632 61.9395 15.4849 61.9395Z" fill="#A27070"/>
<path d="M24.333 61.9395C25.5547 61.9395 26.5451 62.9299 26.5451 64.1516C26.5451 65.3733 25.5547 66.3637 24.333 66.3637C23.1113 66.3637 22.1208 65.3733 22.1208 64.1516C22.1208 62.9299 23.1113 61.9395 24.333 61.9395Z" fill="#A27070"/>
<path d="M28.7578 61.9395C29.9795 61.9395 30.9699 62.9299 30.9699 64.1516C30.9699 65.3733 29.9795 66.3637 28.7578 66.3637C27.5361 66.3637 26.5457 65.3733 26.5457 64.1516C26.5457 62.9299 27.5361 61.9395 28.7578 61.9395Z" fill="#A27070"/>
<path d="M42.0305 61.9395C43.2523 61.9395 44.2426 62.9299 44.2426 64.1516C44.2426 65.3733 43.2523 66.3637 42.0305 66.3637C40.8088 66.3637 39.8184 65.3733 39.8184 64.1516C39.8184 62.9299 40.8088 61.9395 42.0305 61.9395Z" fill="#A27070"/>
<path d="M117.242 61.9395C118.464 61.9395 119.455 62.9299 119.455 64.1516C119.455 65.3733 118.464 66.3637 117.242 66.3637C116.021 66.3637 115.03 65.3733 115.03 64.1516C115.03 62.9299 116.021 61.9395 117.242 61.9395Z" fill="#A27070"/>
<path d="M121.666 61.9395C122.888 61.9395 123.879 62.9299 123.879 64.1516C123.879 65.3733 122.888 66.3637 121.666 66.3637C120.445 66.3637 119.454 65.3733 119.454 64.1516C119.454 62.9299 120.445 61.9395 121.666 61.9395Z" fill="#A27070"/>
<path d="M126.091 61.9395C127.313 61.9395 128.303 62.9299 128.303 64.1516C128.303 65.3733 127.313 66.3637 126.091 66.3637C124.87 66.3637 123.879 65.3733 123.879 64.1516C123.879 62.9299 124.87 61.9395 126.091 61.9395Z" fill="#A27070"/>
<path d="M130.515 61.9395C131.737 61.9395 132.727 62.9299 132.727 64.1516C132.727 65.3733 131.737 66.3637 130.515 66.3637C129.293 66.3637 128.303 65.3733 128.303 64.1516C128.303 62.9299 129.293 61.9395 130.515 61.9395Z" fill="#A27070"/>
<path d="M134.939 61.9395C136.161 61.9395 137.152 62.9299 137.152 64.1516C137.152 65.3733 136.161 66.3637 134.939 66.3637C133.718 66.3637 132.727 65.3733 132.727 64.1516C132.727 62.9299 133.718 61.9395 134.939 61.9395Z" fill="#A27070"/>
<path d="M139.364 61.9395C140.586 61.9395 141.576 62.9299 141.576 64.1516C141.576 65.3733 140.586 66.3637 139.364 66.3637C138.142 66.3637 137.152 65.3733 137.152 64.1516C137.152 62.9299 138.142 61.9395 139.364 61.9395Z" fill="#A27070"/>
<path d="M143.788 61.9395C145.009 61.9395 146 62.9299 146 64.1516C146 65.3733 145.009 66.3637 143.788 66.3637C142.566 66.3637 141.575 65.3733 141.575 64.1516C141.575 62.9299 142.566 61.9395 143.788 61.9395Z" fill="#A27070"/>
<path d="M46.4543 66.3643C47.6761 66.3643 48.6664 67.3547 48.6664 68.5764C48.6664 69.7982 47.6761 70.7885 46.4543 70.7885C45.2326 70.7885 44.2422 69.7982 44.2422 68.5764C44.2422 67.3547 45.2326 66.3643 46.4543 66.3643Z" fill="#A27070"/>
<path d="M99.5454 66.3643C100.767 66.3643 101.757 67.3547 101.757 68.5764C101.757 69.7982 100.767 70.7885 99.5454 70.7885C98.3237 70.7885 97.3333 69.7982 97.3333 68.5764C97.3333 67.3547 98.3237 66.3643 99.5454 66.3643Z" fill="#A27070"/>
<path d="M103.97 66.3643C105.192 66.3643 106.182 67.3547 106.182 68.5764C106.182 69.7982 105.192 70.7885 103.97 70.7885C102.748 70.7885 101.758 69.7982 101.758 68.5764C101.758 67.3547 102.748 66.3643 103.97 66.3643Z" fill="#A27070"/>
<path d="M108.394 66.3643C109.616 66.3643 110.606 67.3547 110.606 68.5764C110.606 69.7982 109.616 70.7885 108.394 70.7885C107.172 70.7885 106.182 69.7982 106.182 68.5764C106.182 67.3547 107.172 66.3643 108.394 66.3643Z" fill="#A27070"/>
<path d="M121.666 66.3643C122.888 66.3643 123.879 67.3547 123.879 68.5764C123.879 69.7982 122.888 70.7885 121.666 70.7885C120.445 70.7885 119.454 69.7982 119.454 68.5764C119.454 67.3547 120.445 66.3643 121.666 66.3643Z" fill="#A27070"/>
<path d="M130.515 66.3643C131.737 66.3643 132.727 67.3547 132.727 68.5764C132.727 69.7982 131.737 70.7885 130.515 70.7885C129.293 70.7885 128.303 69.7982 128.303 68.5764C128.303 67.3547 129.293 66.3643 130.515 66.3643Z" fill="#A27070"/>
<path d="M6.63619 70.7891C7.85797 70.7891 8.84831 71.7795 8.84831 73.0012C8.84831 74.223 7.85797 75.2133 6.63619 75.2133C5.41448 75.2133 4.42407 74.223 4.42407 73.0012C4.42407 71.7795 5.41448 70.7891 6.63619 70.7891Z" fill="#A27070"/>
<path d="M15.4849 70.7891C16.7067 70.7891 17.6971 71.7795 17.6971 73.0012C17.6971 74.223 16.7067 75.2133 15.4849 75.2133C14.2632 75.2133 13.2728 74.223 13.2728 73.0012C13.2728 71.7795 14.2632 70.7891 15.4849 70.7891Z" fill="#A27070"/>
<path d="M19.909 70.7891C21.1308 70.7891 22.1211 71.7795 22.1211 73.0012C22.1211 74.223 21.1308 75.2133 19.909 75.2133C18.6873 75.2133 17.6969 74.223 17.6969 73.0012C17.6969 71.7795 18.6873 70.7891 19.909 70.7891Z" fill="#A27070"/>
<path d="M24.333 70.7891C25.5547 70.7891 26.5451 71.7795 26.5451 73.0012C26.5451 74.223 25.5547 75.2133 24.333 75.2133C23.1113 75.2133 22.1208 74.223 22.1208 73.0012C22.1208 71.7795 23.1113 70.7891 24.333 70.7891Z" fill="#A27070"/>
<path d="M28.7578 70.7891C29.9795 70.7891 30.9699 71.7795 30.9699 73.0012C30.9699 74.223 29.9795 75.2133 28.7578 75.2133C27.5361 75.2133 26.5457 74.223 26.5457 73.0012C26.5457 71.7795 27.5361 70.7891 28.7578 70.7891Z" fill="#A27070"/>
<path d="M33.1818 70.7891C34.4036 70.7891 35.394 71.7795 35.394 73.0012C35.394 74.223 34.4036 75.2133 33.1818 75.2133C31.9601 75.2133 30.9697 74.223 30.9697 73.0012C30.9697 71.7795 31.9601 70.7891 33.1818 70.7891Z" fill="#A27070"/>
<path d="M37.6059 70.7891C38.8277 70.7891 39.818 71.7795 39.818 73.0012C39.818 74.223 38.8277 75.2133 37.6059 75.2133C36.3842 75.2133 35.3938 74.223 35.3938 73.0012C35.3938 71.7795 36.3842 70.7891 37.6059 70.7891Z" fill="#A27070"/>
<path d="M42.0305 70.7891C43.2523 70.7891 44.2426 71.7795 44.2426 73.0012C44.2426 74.223 43.2523 75.2133 42.0305 75.2133C40.8088 75.2133 39.8184 74.223 39.8184 73.0012C39.8184 71.7795 40.8088 70.7891 42.0305 70.7891Z" fill="#A27070"/>
<path d="M46.4546 70.7891C47.6763 70.7891 48.6667 71.7795 48.6667 73.0012C48.6667 74.223 47.6763 75.2133 46.4546 75.2133C45.2328 75.2133 44.2424 74.223 44.2424 73.0012C44.2424 71.7795 45.2328 70.7891 46.4546 70.7891Z" fill="#A27070"/>
<path d="M99.5456 70.7891C100.767 70.7891 101.758 71.7795 101.758 73.0012C101.758 74.223 100.767 75.2133 99.5456 75.2133C98.3239 75.2133 97.3335 74.223 97.3335 73.0012C97.3335 71.7795 98.3239 70.7891 99.5456 70.7891Z" fill="#A27070"/>
<path d="M117.242 70.7891C118.464 70.7891 119.455 71.7795 119.455 73.0012C119.455 74.223 118.464 75.2133 117.242 75.2133C116.021 75.2133 115.03 74.223 115.03 73.0012C115.03 71.7795 116.021 70.7891 117.242 70.7891Z" fill="#A27070"/>
<path d="M130.515 70.7891C131.737 70.7891 132.727 71.7795 132.727 73.0012C132.727 74.223 131.737 75.2133 130.515 75.2133C129.293 75.2133 128.303 74.223 128.303 73.0012C128.303 71.7795 129.293 70.7891 130.515 70.7891Z" fill="#A27070"/>
<path d="M134.939 70.7891C136.161 70.7891 137.152 71.7795 137.152 73.0012C137.152 74.223 136.161 75.2133 134.939 75.2133C133.718 75.2133 132.727 74.223 132.727 73.0012C132.727 71.7795 133.718 70.7891 134.939 70.7891Z" fill="#A27070"/>
<path d="M11.0608 75.2109C12.2825 75.2109 13.2729 76.2013 13.2729 77.4231C13.2729 78.6448 12.2825 79.6352 11.0608 79.6352C9.83904 79.6352 8.84863 78.6448 8.84863 77.4231C8.84863 76.2013 9.83904 75.2109 11.0608 75.2109Z" fill="#A27070"/>
<path d="M19.909 75.2109C21.1308 75.2109 22.1211 76.2013 22.1211 77.4231C22.1211 78.6448 21.1308 79.6352 19.909 79.6352C18.6873 79.6352 17.6969 78.6448 17.6969 77.4231C17.6969 76.2013 18.6873 75.2109 19.909 75.2109Z" fill="#A27070"/>
<path d="M33.1818 75.2109C34.4036 75.2109 35.394 76.2013 35.394 77.4231C35.394 78.6448 34.4036 79.6352 33.1818 79.6352C31.9601 79.6352 30.9697 78.6448 30.9697 77.4231C30.9697 76.2013 31.9601 75.2109 33.1818 75.2109Z" fill="#A27070"/>
<path d="M46.4546 75.2109C47.6763 75.2109 48.6667 76.2013 48.6667 77.4231C48.6667 78.6448 47.6763 79.6352 46.4546 79.6352C45.2328 79.6352 44.2424 78.6448 44.2424 77.4231C44.2424 76.2013 45.2328 75.2109 46.4546 75.2109Z" fill="#A27070"/>
<path d="M112.818 75.2109C114.04 75.2109 115.03 76.2013 115.03 77.4231C115.03 78.6448 114.04 79.6352 112.818 79.6352C111.597 79.6352 110.606 78.6448 110.606 77.4231C110.606 76.2013 111.597 75.2109 112.818 75.2109Z" fill="#A27070"/>
<path d="M117.242 75.2109C118.464 75.2109 119.455 76.2013 119.455 77.4231C119.455 78.6448 118.464 79.6352 117.242 79.6352C116.021 79.6352 115.03 78.6448 115.03 77.4231C115.03 76.2013 116.021 75.2109 117.242 75.2109Z" fill="#A27070"/>
<path d="M130.515 75.2109C131.737 75.2109 132.727 76.2013 132.727 77.4231C132.727 78.6448 131.737 79.6352 130.515 79.6352C129.293 79.6352 128.303 78.6448 128.303 77.4231C128.303 76.2013 129.293 75.2109 130.515 75.2109Z" fill="#A27070"/>
<path d="M134.939 75.2109C136.161 75.2109 137.152 76.2013 137.152 77.4231C137.152 78.6448 136.161 79.6352 134.939 79.6352C133.718 79.6352 132.727 78.6448 132.727 77.4231C132.727 76.2013 133.718 75.2109 134.939 75.2109Z" fill="#A27070"/>
<path d="M139.364 75.2109C140.586 75.2109 141.576 76.2013 141.576 77.4231C141.576 78.6448 140.586 79.6352 139.364 79.6352C138.142 79.6352 137.152 78.6448 137.152 77.4231C137.152 76.2013 138.142 75.2109 139.364 75.2109Z" fill="#A27070"/>
<path d="M6.63632 79.6357C7.85809 79.6357 8.84844 80.6262 8.84844 81.8479C8.84844 83.0696 7.85809 84.06 6.63632 84.06C5.41461 84.06 4.42419 83.0696 4.42419 81.8479C4.42419 80.6262 5.41461 79.6357 6.63632 79.6357Z" fill="#A27070"/>
<path d="M15.4849 79.6357C16.7067 79.6357 17.6971 80.6262 17.6971 81.8479C17.6971 83.0696 16.7067 84.06 15.4849 84.06C14.2632 84.06 13.2728 83.0696 13.2728 81.8479C13.2728 80.6262 14.2632 79.6357 15.4849 79.6357Z" fill="#A27070"/>
<path d="M28.7578 79.6357C29.9795 79.6357 30.9699 80.6262 30.9699 81.8479C30.9699 83.0696 29.9795 84.06 28.7578 84.06C27.5361 84.06 26.5457 83.0696 26.5457 81.8479C26.5457 80.6262 27.5361 79.6357 28.7578 79.6357Z" fill="#A27070"/>
<path d="M33.1816 79.6357C34.4034 79.6357 35.3937 80.6262 35.3937 81.8479C35.3937 83.0696 34.4034 84.06 33.1816 84.06C31.9599 84.06 30.9695 83.0696 30.9695 81.8479C30.9695 80.6262 31.9599 79.6357 33.1816 79.6357Z" fill="#A27070"/>
<path d="M37.6062 79.6357C38.8279 79.6357 39.8183 80.6262 39.8183 81.8479C39.8183 83.0696 38.8279 84.06 37.6062 84.06C36.3845 84.06 35.394 83.0696 35.394 81.8479C35.394 80.6262 36.3845 79.6357 37.6062 79.6357Z" fill="#A27070"/>
<path d="M46.4543 79.6357C47.6761 79.6357 48.6664 80.6262 48.6664 81.8479C48.6664 83.0696 47.6761 84.06 46.4543 84.06C45.2326 84.06 44.2422 83.0696 44.2422 81.8479C44.2422 80.6262 45.2326 79.6357 46.4543 79.6357Z" fill="#A27070"/>
<path d="M112.818 79.6357C114.04 79.6357 115.03 80.6262 115.03 81.8479C115.03 83.0696 114.04 84.06 112.818 84.06C111.596 84.06 110.606 83.0696 110.606 81.8479C110.606 80.6262 111.596 79.6357 112.818 79.6357Z" fill="#A27070"/>
<path d="M121.666 79.6357C122.888 79.6357 123.879 80.6262 123.879 81.8479C123.879 83.0696 122.888 84.06 121.666 84.06C120.445 84.06 119.454 83.0696 119.454 81.8479C119.454 80.6262 120.445 79.6357 121.666 79.6357Z" fill="#A27070"/>
<path d="M126.091 79.6357C127.313 79.6357 128.303 80.6262 128.303 81.8479C128.303 83.0696 127.313 84.06 126.091 84.06C124.869 84.06 123.879 83.0696 123.879 81.8479C123.879 80.6262 124.869 79.6357 126.091 79.6357Z" fill="#A27070"/>
<path d="M134.939 79.6357C136.161 79.6357 137.152 80.6262 137.152 81.8479C137.152 83.0696 136.161 84.06 134.939 84.06C133.718 84.06 132.727 83.0696 132.727 81.8479C132.727 80.6262 133.718 79.6357 134.939 79.6357Z" fill="#A27070"/>
<path d="M139.364 79.6357C140.586 79.6357 141.576 80.6262 141.576 81.8479C141.576 83.0696 140.586 84.06 139.364 84.06C138.142 84.06 137.152 83.0696 137.152 81.8479C137.152 80.6262 138.142 79.6357 139.364 79.6357Z" fill="#A27070"/>
<path d="M2.21212 84.0605C3.43389 84.0605 4.42424 85.051 4.42424 86.2727C4.42424 87.4944 3.43389 88.4848 2.21212 88.4848C0.990411 88.4848 0 87.4944 0 86.2727C0 85.051 0.990411 84.0605 2.21212 84.0605Z" fill="#A27070"/>
<path d="M11.0608 84.0605C12.2825 84.0605 13.2729 85.051 13.2729 86.2727C13.2729 87.4944 12.2825 88.4848 11.0608 88.4848C9.83904 88.4848 8.84863 87.4944 8.84863 86.2727C8.84863 85.051 9.83904 84.0605 11.0608 84.0605Z" fill="#A27070"/>
<path d="M15.4849 84.0605C16.7067 84.0605 17.6971 85.051 17.6971 86.2727C17.6971 87.4944 16.7067 88.4848 15.4849 88.4848C14.2632 88.4848 13.2728 87.4944 13.2728 86.2727C13.2728 85.051 14.2632 84.0605 15.4849 84.0605Z" fill="#A27070"/>
<path d="M19.909 84.0605C21.1308 84.0605 22.1211 85.051 22.1211 86.2727C22.1211 87.4944 21.1308 88.4848 19.909 88.4848C18.6873 88.4848 17.6969 87.4944 17.6969 86.2727C17.6969 85.051 18.6873 84.0605 19.909 84.0605Z" fill="#A27070"/>
<path d="M24.333 84.0605C25.5547 84.0605 26.5451 85.051 26.5451 86.2727C26.5451 87.4944 25.5547 88.4848 24.333 88.4848C23.1113 88.4848 22.1208 87.4944 22.1208 86.2727C22.1208 85.051 23.1113 84.0605 24.333 84.0605Z" fill="#A27070"/>
<path d="M33.1818 84.0605C34.4036 84.0605 35.394 85.051 35.394 86.2727C35.394 87.4944 34.4036 88.4848 33.1818 88.4848C31.9601 88.4848 30.9697 87.4944 30.9697 86.2727C30.9697 85.051 31.9601 84.0605 33.1818 84.0605Z" fill="#A27070"/>
<path d="M37.6059 84.0605C38.8277 84.0605 39.818 85.051 39.818 86.2727C39.818 87.4944 38.8277 88.4848 37.6059 88.4848C36.3842 88.4848 35.3938 87.4944 35.3938 86.2727C35.3938 85.051 36.3842 84.0605 37.6059 84.0605Z" fill="#A27070"/>
<path d="M42.0305 84.0605C43.2523 84.0605 44.2426 85.051 44.2426 86.2727C44.2426 87.4944 43.2523 88.4848 42.0305 88.4848C40.8088 88.4848 39.8184 87.4944 39.8184 86.2727C39.8184 85.051 40.8088 84.0605 42.0305 84.0605Z" fill="#A27070"/>
<path d="M99.5456 84.0605C100.767 84.0605 101.758 85.051 101.758 86.2727C101.758 87.4944 100.767 88.4848 99.5456 88.4848C98.3239 88.4848 97.3335 87.4944 97.3335 86.2727C97.3335 85.051 98.3239 84.0605 99.5456 84.0605Z" fill="#A27070"/>
<path d="M112.818 84.0605C114.04 84.0605 115.03 85.051 115.03 86.2727C115.03 87.4944 114.04 88.4848 112.818 88.4848C111.597 88.4848 110.606 87.4944 110.606 86.2727C110.606 85.051 111.597 84.0605 112.818 84.0605Z" fill="#A27070"/>
<path d="M117.242 84.0605C118.464 84.0605 119.455 85.051 119.455 86.2727C119.455 87.4944 118.464 88.4848 117.242 88.4848C116.021 88.4848 115.03 87.4944 115.03 86.2727C115.03 85.051 116.021 84.0605 117.242 84.0605Z" fill="#A27070"/>
<path d="M126.091 84.0605C127.313 84.0605 128.303 85.051 128.303 86.2727C128.303 87.4944 127.313 88.4848 126.091 88.4848C124.87 88.4848 123.879 87.4944 123.879 86.2727C123.879 85.051 124.87 84.0605 126.091 84.0605Z" fill="#A27070"/>
<path d="M139.364 84.0605C140.586 84.0605 141.576 85.051 141.576 86.2727C141.576 87.4944 140.586 88.4848 139.364 88.4848C138.142 88.4848 137.152 87.4944 137.152 86.2727C137.152 85.051 138.142 84.0605 139.364 84.0605Z" fill="#A27070"/>
<path d="M143.788 84.0605C145.009 84.0605 146 85.051 146 86.2727C146 87.4944 145.009 88.4848 143.788 88.4848C142.566 88.4848 141.575 87.4944 141.575 86.2727C141.575 85.051 142.566 84.0605 143.788 84.0605Z" fill="#A27070"/>
<path d="M6.63632 88.4844C7.85809 88.4844 8.84844 89.4748 8.84844 90.6965C8.84844 91.9183 7.85809 92.9086 6.63632 92.9086C5.41461 92.9086 4.42419 91.9183 4.42419 90.6965C4.42419 89.4748 5.41461 88.4844 6.63632 88.4844Z" fill="#A27070"/>
<path d="M19.909 88.4844C21.1308 88.4844 22.1211 89.4748 22.1211 90.6965C22.1211 91.9183 21.1308 92.9086 19.909 92.9086C18.6873 92.9086 17.6969 91.9183 17.6969 90.6965C17.6969 89.4748 18.6873 88.4844 19.909 88.4844Z" fill="#A27070"/>
<path d="M28.7575 88.4844C29.9793 88.4844 30.9697 89.4748 30.9697 90.6965C30.9697 91.9183 29.9793 92.9086 28.7575 92.9086C27.5358 92.9086 26.5454 91.9183 26.5454 90.6965C26.5454 89.4748 27.5358 88.4844 28.7575 88.4844Z" fill="#A27070"/>
<path d="M33.1821 88.4844C34.4039 88.4844 35.3942 89.4748 35.3942 90.6965C35.3942 91.9183 34.4039 92.9086 33.1821 92.9086C31.9604 92.9086 30.97 91.9183 30.97 90.6965C30.97 89.4748 31.9604 88.4844 33.1821 88.4844Z" fill="#A27070"/>
<path d="M46.4548 88.4844C47.6766 88.4844 48.6669 89.4748 48.6669 90.6965C48.6669 91.9183 47.6766 92.9086 46.4548 92.9086C45.2331 92.9086 44.2427 91.9183 44.2427 90.6965C44.2427 89.4748 45.2331 88.4844 46.4548 88.4844Z" fill="#A27070"/>
<path d="M99.5456 88.4844C100.767 88.4844 101.758 89.4748 101.758 90.6965C101.758 91.9183 100.767 92.9086 99.5456 92.9086C98.3239 92.9086 97.3335 91.9183 97.3335 90.6965C97.3335 89.4748 98.3239 88.4844 99.5456 88.4844Z" fill="#A27070"/>
<path d="M112.818 88.4844C114.04 88.4844 115.03 89.4748 115.03 90.6965C115.03 91.9183 114.04 92.9086 112.818 92.9086C111.597 92.9086 110.606 91.9183 110.606 90.6965C110.606 89.4748 111.597 88.4844 112.818 88.4844Z" fill="#A27070"/>
<path d="M130.515 88.4844C131.737 88.4844 132.727 89.4748 132.727 90.6965C132.727 91.9183 131.737 92.9086 130.515 92.9086C129.293 92.9086 128.303 91.9183 128.303 90.6965C128.303 89.4748 129.293 88.4844 130.515 88.4844Z" fill="#A27070"/>
<path d="M139.364 88.4844C140.586 88.4844 141.576 89.4748 141.576 90.6965C141.576 91.9183 140.586 92.9086 139.364 92.9086C138.142 92.9086 137.152 91.9183 137.152 90.6965C137.152 89.4748 138.142 88.4844 139.364 88.4844Z" fill="#A27070"/>
<path d="M6.63644 92.9092C7.85821 92.9092 8.84856 93.8996 8.84856 95.1213C8.84856 96.3431 7.85821 97.3334 6.63644 97.3334C5.41473 97.3334 4.42432 96.3431 4.42432 95.1213C4.42432 93.8996 5.41473 92.9092 6.63644 92.9092Z" fill="#A27070"/>
<path d="M11.0605 92.9092C12.2823 92.9092 13.2726 93.8996 13.2726 95.1213C13.2726 96.3431 12.2823 97.3334 11.0605 97.3334C9.8388 97.3334 8.84839 96.3431 8.84839 95.1213C8.84839 93.8996 9.8388 92.9092 11.0605 92.9092Z" fill="#A27070"/>
<path d="M15.4848 92.9092C16.7066 92.9092 17.6969 93.8996 17.6969 95.1213C17.6969 96.3431 16.7066 97.3334 15.4848 97.3334C14.2631 97.3334 13.2727 96.3431 13.2727 95.1213C13.2727 93.8996 14.2631 92.9092 15.4848 92.9092Z" fill="#A27070"/>
<path d="M19.9091 92.9092C21.1309 92.9092 22.1213 93.8996 22.1213 95.1213C22.1213 96.3431 21.1309 97.3334 19.9091 97.3334C18.6874 97.3334 17.697 96.3431 17.697 95.1213C17.697 93.8996 18.6874 92.9092 19.9091 92.9092Z" fill="#A27070"/>
<path d="M37.6062 92.9092C38.8279 92.9092 39.8183 93.8996 39.8183 95.1213C39.8183 96.3431 38.8279 97.3334 37.6062 97.3334C36.3845 97.3334 35.394 96.3431 35.394 95.1213C35.394 93.8996 36.3845 92.9092 37.6062 92.9092Z" fill="#A27070"/>
<path d="M42.0302 92.9092C43.252 92.9092 44.2424 93.8996 44.2424 95.1213C44.2424 96.3431 43.252 97.3334 42.0302 97.3334C40.8085 97.3334 39.8181 96.3431 39.8181 95.1213C39.8181 93.8996 40.8085 92.9092 42.0302 92.9092Z" fill="#A27070"/>
<path d="M103.97 92.9092C105.191 92.9092 106.182 93.8996 106.182 95.1213C106.182 96.3431 105.191 97.3334 103.97 97.3334C102.748 97.3334 101.758 96.3431 101.758 95.1213C101.758 93.8996 102.748 92.9092 103.97 92.9092Z" fill="#A27070"/>
<path d="M112.818 92.9092C114.04 92.9092 115.03 93.8996 115.03 95.1213C115.03 96.3431 114.04 97.3334 112.818 97.3334C111.596 97.3334 110.606 96.3431 110.606 95.1213C110.606 93.8996 111.596 92.9092 112.818 92.9092Z" fill="#A27070"/>
<path d="M121.667 92.9092C122.888 92.9092 123.879 93.8996 123.879 95.1213C123.879 96.3431 122.888 97.3334 121.667 97.3334C120.445 97.3334 119.455 96.3431 119.455 95.1213C119.455 93.8996 120.445 92.9092 121.667 92.9092Z" fill="#A27070"/>
<path d="M130.515 92.9092C131.737 92.9092 132.727 93.8996 132.727 95.1213C132.727 96.3431 131.737 97.3334 130.515 97.3334C129.294 97.3334 128.303 96.3431 128.303 95.1213C128.303 93.8996 129.294 92.9092 130.515 92.9092Z" fill="#A27070"/>
<path d="M139.363 92.9092C140.585 92.9092 141.576 93.8996 141.576 95.1213C141.576 96.3431 140.585 97.3334 139.363 97.3334C138.142 97.3334 137.151 96.3431 137.151 95.1213C137.151 93.8996 138.142 92.9092 139.363 92.9092Z" fill="#A27070"/>
<path d="M143.788 92.9092C145.01 92.9092 146 93.8996 146 95.1213C146 96.3431 145.01 97.3334 143.788 97.3334C142.566 97.3334 141.576 96.3431 141.576 95.1213C141.576 93.8996 142.566 92.9092 143.788 92.9092Z" fill="#A27070"/>
<path d="M2.21212 97.334C3.43389 97.334 4.42424 98.3244 4.42424 99.5461C4.42424 100.768 3.43389 101.758 2.21212 101.758C0.990411 101.758 0 100.768 0 99.5461C0 98.3244 0.990411 97.334 2.21212 97.334Z" fill="#A27070"/>
<path d="M11.0606 97.334C12.2824 97.334 13.2728 98.3244 13.2728 99.5461C13.2728 100.768 12.2824 101.758 11.0606 101.758C9.83892 101.758 8.84851 100.768 8.84851 99.5461C8.84851 98.3244 9.83892 97.334 11.0606 97.334Z" fill="#A27070"/>
<path d="M24.3332 97.334C25.555 97.334 26.5453 98.3244 26.5453 99.5461C26.5453 100.768 25.555 101.758 24.3332 101.758C23.1115 101.758 22.1211 100.768 22.1211 99.5461C22.1211 98.3244 23.1115 97.334 24.3332 97.334Z" fill="#A27070"/>
<path d="M28.7575 97.334C29.9793 97.334 30.9697 98.3244 30.9697 99.5461C30.9697 100.768 29.9793 101.758 28.7575 101.758C27.5358 101.758 26.5454 100.768 26.5454 99.5461C26.5454 98.3244 27.5358 97.334 28.7575 97.334Z" fill="#A27070"/>
<path d="M37.6059 97.334C38.8277 97.334 39.818 98.3244 39.818 99.5461C39.818 100.768 38.8277 101.758 37.6059 101.758C36.3842 101.758 35.3938 100.768 35.3938 99.5461C35.3938 98.3244 36.3842 97.334 37.6059 97.334Z" fill="#A27070"/>
<path d="M42.0302 97.334C43.252 97.334 44.2424 98.3244 44.2424 99.5461C44.2424 100.768 43.252 101.758 42.0302 101.758C40.8085 101.758 39.8181 100.768 39.8181 99.5461C39.8181 98.3244 40.8085 97.334 42.0302 97.334Z" fill="#A27070"/>
<path d="M46.4548 97.334C47.6766 97.334 48.6669 98.3244 48.6669 99.5461C48.6669 100.768 47.6766 101.758 46.4548 101.758C45.2331 101.758 44.2427 100.768 44.2427 99.5461C44.2427 98.3244 45.2331 97.334 46.4548 97.334Z" fill="#A27070"/>
<path d="M55.3029 97.334C56.5247 97.334 57.5151 98.3244 57.5151 99.5461C57.5151 100.768 56.5247 101.758 55.3029 101.758C54.0812 101.758 53.0908 100.768 53.0908 99.5461C53.0908 98.3244 54.0812 97.334 55.3029 97.334Z" fill="#A27070"/>
<path d="M117.242 97.334C118.464 97.334 119.454 98.3244 119.454 99.5461C119.454 100.768 118.464 101.758 117.242 101.758C116.02 101.758 115.03 100.768 115.03 99.5461C115.03 98.3244 116.02 97.334 117.242 97.334Z" fill="#A27070"/>
<path d="M126.091 97.334C127.313 97.334 128.303 98.3244 128.303 99.5461C128.303 100.768 127.313 101.758 126.091 101.758C124.869 101.758 123.879 100.768 123.879 99.5461C123.879 98.3244 124.869 97.334 126.091 97.334Z" fill="#A27070"/>
<path d="M134.939 97.334C136.161 97.334 137.152 98.3244 137.152 99.5461C137.152 100.768 136.161 101.758 134.939 101.758C133.718 101.758 132.727 100.768 132.727 99.5461C132.727 98.3244 133.718 97.334 134.939 97.334Z" fill="#A27070"/>
<path d="M139.364 97.334C140.586 97.334 141.576 98.3244 141.576 99.5461C141.576 100.768 140.586 101.758 139.364 101.758C138.142 101.758 137.152 100.768 137.152 99.5461C137.152 98.3244 138.142 97.334 139.364 97.334Z" fill="#A27070"/>
<path d="M143.788 97.334C145.01 97.334 146 98.3244 146 99.5461C146 100.768 145.01 101.758 143.788 101.758C142.566 101.758 141.576 100.768 141.576 99.5461C141.576 98.3244 142.566 97.334 143.788 97.334Z" fill="#A27070"/>
<path d="M6.63632 101.757C7.85809 101.757 8.84844 102.747 8.84844 103.969C8.84844 105.191 7.85809 106.181 6.63632 106.181C5.41461 106.181 4.42419 105.191 4.42419 103.969C4.42419 102.747 5.41461 101.757 6.63632 101.757Z" fill="#A27070"/>
<path d="M11.0606 101.757C12.2824 101.757 13.2728 102.747 13.2728 103.969C13.2728 105.191 12.2824 106.181 11.0606 106.181C9.83892 106.181 8.84851 105.191 8.84851 103.969C8.84851 102.747 9.83892 101.757 11.0606 101.757Z" fill="#A27070"/>
<path d="M15.4848 101.757C16.7066 101.757 17.6969 102.747 17.6969 103.969C17.6969 105.191 16.7066 106.181 15.4848 106.181C14.2631 106.181 13.2727 105.191 13.2727 103.969C13.2727 102.747 14.2631 101.757 15.4848 101.757Z" fill="#A27070"/>
<path d="M33.1821 101.757C34.4039 101.757 35.3942 102.747 35.3942 103.969C35.3942 105.191 34.4039 106.181 33.1821 106.181C31.9604 106.181 30.97 105.191 30.97 103.969C30.97 102.747 31.9604 101.757 33.1821 101.757Z" fill="#A27070"/>
<path d="M42.0302 101.757C43.252 101.757 44.2424 102.747 44.2424 103.969C44.2424 105.191 43.252 106.181 42.0302 106.181C40.8085 106.181 39.8181 105.191 39.8181 103.969C39.8181 102.747 40.8085 101.757 42.0302 101.757Z" fill="#A27070"/>
<path d="M46.4548 101.757C47.6766 101.757 48.6669 102.747 48.6669 103.969C48.6669 105.191 47.6766 106.181 46.4548 106.181C45.2331 106.181 44.2427 105.191 44.2427 103.969C44.2427 102.747 45.2331 101.757 46.4548 101.757Z" fill="#A27070"/>
<path d="M50.8786 101.757C52.1004 101.757 53.0907 102.747 53.0907 103.969C53.0907 105.191 52.1004 106.181 50.8786 106.181C49.6569 106.181 48.6665 105.191 48.6665 103.969C48.6665 102.747 49.6569 101.757 50.8786 101.757Z" fill="#A27070"/>
<path d="M55.3029 101.757C56.5247 101.757 57.5151 102.747 57.5151 103.969C57.5151 105.191 56.5247 106.181 55.3029 106.181C54.0812 106.181 53.0908 105.191 53.0908 103.969C53.0908 102.747 54.0812 101.757 55.3029 101.757Z" fill="#A27070"/>
<path d="M59.7275 101.757C60.9493 101.757 61.9396 102.747 61.9396 103.969C61.9396 105.191 60.9493 106.181 59.7275 106.181C58.5058 106.181 57.5154 105.191 57.5154 103.969C57.5154 102.747 58.5058 101.757 59.7275 101.757Z" fill="#A27070"/>
<path d="M64.1513 101.757C65.3731 101.757 66.3635 102.747 66.3635 103.969C66.3635 105.191 65.3731 106.181 64.1513 106.181C62.9296 106.181 61.9392 105.191 61.9392 103.969C61.9392 102.747 62.9296 101.757 64.1513 101.757Z" fill="#A27070"/>
<path d="M90.6967 101.757C91.9185 101.757 92.9089 102.747 92.9089 103.969C92.9089 105.191 91.9185 106.181 90.6967 106.181C89.475 106.181 88.4846 105.191 88.4846 103.969C88.4846 102.747 89.475 101.757 90.6967 101.757Z" fill="#A27070"/>
<path d="M95.1213 101.757C96.3431 101.757 97.3334 102.747 97.3334 103.969C97.3334 105.191 96.3431 106.181 95.1213 106.181C93.8996 106.181 92.9092 105.191 92.9092 103.969C92.9092 102.747 93.8996 101.757 95.1213 101.757Z" fill="#A27070"/>
<path d="M99.5456 101.757C100.767 101.757 101.758 102.747 101.758 103.969C101.758 105.191 100.767 106.181 99.5456 106.181C98.3239 106.181 97.3335 105.191 97.3335 103.969C97.3335 102.747 98.3239 101.757 99.5456 101.757Z" fill="#A27070"/>
<path d="M103.969 101.757C105.191 101.757 106.182 102.747 106.182 103.969C106.182 105.191 105.191 106.181 103.969 106.181C102.748 106.181 101.757 105.191 101.757 103.969C101.757 102.747 102.748 101.757 103.969 101.757Z" fill="#A27070"/>
<path d="M112.818 101.757C114.04 101.757 115.03 102.747 115.03 103.969C115.03 105.191 114.04 106.181 112.818 106.181C111.597 106.181 110.606 105.191 110.606 103.969C110.606 102.747 111.597 101.757 112.818 101.757Z" fill="#A27070"/>
<path d="M121.667 101.757C122.888 101.757 123.879 102.747 123.879 103.969C123.879 105.191 122.888 106.181 121.667 106.181C120.445 106.181 119.455 105.191 119.455 103.969C119.455 102.747 120.445 101.757 121.667 101.757Z" fill="#A27070"/>
<path d="M2.21212 106.182C3.43389 106.182 4.42424 107.172 4.42424 108.394C4.42424 109.616 3.43389 110.606 2.21212 110.606C0.990411 110.606 0 109.616 0 108.394C0 107.172 0.990411 106.182 2.21212 106.182Z" fill="#A27070"/>
<path d="M24.3335 106.182C25.5552 106.182 26.5456 107.172 26.5456 108.394C26.5456 109.616 25.5552 110.606 24.3335 110.606C23.1117 110.606 22.1213 109.616 22.1213 108.394C22.1213 107.172 23.1117 106.182 24.3335 106.182Z" fill="#A27070"/>
<path d="M28.7575 106.182C29.9793 106.182 30.9697 107.172 30.9697 108.394C30.9697 109.616 29.9793 110.606 28.7575 110.606C27.5358 110.606 26.5454 109.616 26.5454 108.394C26.5454 107.172 27.5358 106.182 28.7575 106.182Z" fill="#A27070"/>
<path d="M42.0302 106.182C43.252 106.182 44.2424 107.172 44.2424 108.394C44.2424 109.616 43.252 110.606 42.0302 110.606C40.8085 110.606 39.8181 109.616 39.8181 108.394C39.8181 107.172 40.8085 106.182 42.0302 106.182Z" fill="#A27070"/>
<path d="M46.4546 106.182C47.6763 106.182 48.6667 107.172 48.6667 108.394C48.6667 109.616 47.6763 110.606 46.4546 110.606C45.2328 110.606 44.2424 109.616 44.2424 108.394C44.2424 107.172 45.2328 106.182 46.4546 106.182Z" fill="#A27070"/>
<path d="M55.3029 106.182C56.5247 106.182 57.5151 107.172 57.5151 108.394C57.5151 109.616 56.5247 110.606 55.3029 110.606C54.0812 110.606 53.0908 109.616 53.0908 108.394C53.0908 107.172 54.0812 106.182 55.3029 106.182Z" fill="#A27070"/>
<path d="M59.7273 106.182C60.949 106.182 61.9394 107.172 61.9394 108.394C61.9394 109.616 60.949 110.606 59.7273 110.606C58.5055 110.606 57.5151 109.616 57.5151 108.394C57.5151 107.172 58.5055 106.182 59.7273 106.182Z" fill="#A27070"/>
<path d="M64.1516 106.182C65.3733 106.182 66.3637 107.172 66.3637 108.394C66.3637 109.616 65.3733 110.606 64.1516 110.606C62.9299 110.606 61.9395 109.616 61.9395 108.394C61.9395 107.172 62.9299 106.182 64.1516 106.182Z" fill="#A27070"/>
<path d="M90.697 106.182C91.9188 106.182 92.9091 107.172 92.9091 108.394C92.9091 109.616 91.9188 110.606 90.697 110.606C89.4753 110.606 88.4849 109.616 88.4849 108.394C88.4849 107.172 89.4753 106.182 90.697 106.182Z" fill="#A27070"/>
<path d="M99.5454 106.182C100.767 106.182 101.757 107.172 101.757 108.394C101.757 109.616 100.767 110.606 99.5454 110.606C98.3237 110.606 97.3333 109.616 97.3333 108.394C97.3333 107.172 98.3237 106.182 99.5454 106.182Z" fill="#A27070"/>
<path d="M108.394 106.182C109.616 106.182 110.606 107.172 110.606 108.394C110.606 109.616 109.616 110.606 108.394 110.606C107.172 110.606 106.182 109.616 106.182 108.394C106.182 107.172 107.172 106.182 108.394 106.182Z" fill="#A27070"/>
<path d="M112.818 106.182C114.04 106.182 115.03 107.172 115.03 108.394C115.03 109.616 114.04 110.606 112.818 110.606C111.596 110.606 110.606 109.616 110.606 108.394C110.606 107.172 111.596 106.182 112.818 106.182Z" fill="#A27070"/>
<path d="M117.242 106.182C118.464 106.182 119.455 107.172 119.455 108.394C119.455 109.616 118.464 110.606 117.242 110.606C116.021 110.606 115.03 109.616 115.03 108.394C115.03 107.172 116.021 106.182 117.242 106.182Z" fill="#A27070"/>
<path d="M121.667 106.182C122.888 106.182 123.879 107.172 123.879 108.394C123.879 109.616 122.888 110.606 121.667 110.606C120.445 110.606 119.455 109.616 119.455 108.394C119.455 107.172 120.445 106.182 121.667 106.182Z" fill="#A27070"/>
<path d="M126.091 106.182C127.313 106.182 128.303 107.172 128.303 108.394C128.303 109.616 127.313 110.606 126.091 110.606C124.869 110.606 123.879 109.616 123.879 108.394C123.879 107.172 124.869 106.182 126.091 106.182Z" fill="#A27070"/>
<path d="M130.515 106.182C131.737 106.182 132.727 107.172 132.727 108.394C132.727 109.616 131.737 110.606 130.515 110.606C129.294 110.606 128.303 109.616 128.303 108.394C128.303 107.172 129.294 106.182 130.515 106.182Z" fill="#A27070"/>
<path d="M139.363 106.182C140.585 106.182 141.576 107.172 141.576 108.394C141.576 109.616 140.585 110.606 139.363 110.606C138.142 110.606 137.151 109.616 137.151 108.394C137.151 107.172 138.142 106.182 139.363 106.182Z" fill="#A27070"/>
<path d="M37.6059 110.607C38.8277 110.607 39.818 111.598 39.818 112.82C39.818 114.041 38.8277 115.032 37.6059 115.032C36.3842 115.032 35.3938 114.041 35.3938 112.82C35.3938 111.598 36.3842 110.607 37.6059 110.607Z" fill="#A27070"/>
<path d="M42.0305 110.607C43.2523 110.607 44.2426 111.598 44.2426 112.82C44.2426 114.041 43.2523 115.032 42.0305 115.032C40.8088 115.032 39.8184 114.041 39.8184 112.82C39.8184 111.598 40.8088 110.607 42.0305 110.607Z" fill="#A27070"/>
<path d="M50.8786 110.607C52.1004 110.607 53.0907 111.598 53.0907 112.82C53.0907 114.041 52.1004 115.032 50.8786 115.032C49.6569 115.032 48.6665 114.041 48.6665 112.82C48.6665 111.598 49.6569 110.607 50.8786 110.607Z" fill="#A27070"/>
<path d="M55.3032 110.607C56.525 110.607 57.5153 111.598 57.5153 112.82C57.5153 114.041 56.525 115.032 55.3032 115.032C54.0815 115.032 53.0911 114.041 53.0911 112.82C53.0911 111.598 54.0815 110.607 55.3032 110.607Z" fill="#A27070"/>
<path d="M59.7273 110.607C60.949 110.607 61.9394 111.598 61.9394 112.82C61.9394 114.041 60.949 115.032 59.7273 115.032C58.5055 115.032 57.5151 114.041 57.5151 112.82C57.5151 111.598 58.5055 110.607 59.7273 110.607Z" fill="#A27070"/>
<path d="M64.1513 110.607C65.3731 110.607 66.3635 111.598 66.3635 112.82C66.3635 114.041 65.3731 115.032 64.1513 115.032C62.9296 115.032 61.9392 114.041 61.9392 112.82C61.9392 111.598 62.9296 110.607 64.1513 110.607Z" fill="#A27070"/>
<path d="M77.424 110.607C78.6458 110.607 79.6362 111.598 79.6362 112.82C79.6362 114.041 78.6458 115.032 77.424 115.032C76.2023 115.032 75.2119 114.041 75.2119 112.82C75.2119 111.598 76.2023 110.607 77.424 110.607Z" fill="#A27070"/>
<path d="M81.8484 110.607C83.0701 110.607 84.0605 111.598 84.0605 112.82C84.0605 114.041 83.0701 115.032 81.8484 115.032C80.6266 115.032 79.6362 114.041 79.6362 112.82C79.6362 111.598 80.6266 110.607 81.8484 110.607Z" fill="#A27070"/>
<path d="M103.97 110.607C105.191 110.607 106.182 111.598 106.182 112.82C106.182 114.041 105.191 115.032 103.97 115.032C102.748 115.032 101.758 114.041 101.758 112.82C101.758 111.598 102.748 110.607 103.97 110.607Z" fill="#A27070"/>
<path d="M108.394 110.607C109.616 110.607 110.606 111.598 110.606 112.82C110.606 114.041 109.616 115.032 108.394 115.032C107.172 115.032 106.182 114.041 106.182 112.82C106.182 111.598 107.172 110.607 108.394 110.607Z" fill="#A27070"/>
<path d="M126.091 110.607C127.313 110.607 128.303 111.598 128.303 112.82C128.303 114.041 127.313 115.032 126.091 115.032C124.87 115.032 123.879 114.041 123.879 112.82C123.879 111.598 124.87 110.607 126.091 110.607Z" fill="#A27070"/>
<path d="M130.515 110.607C131.737 110.607 132.727 111.598 132.727 112.82C132.727 114.041 131.737 115.032 130.515 115.032C129.293 115.032 128.303 114.041 128.303 112.82C128.303 111.598 129.293 110.607 130.515 110.607Z" fill="#A27070"/>
<path d="M139.364 110.607C140.586 110.607 141.576 111.598 141.576 112.82C141.576 114.041 140.586 115.032 139.364 115.032C138.142 115.032 137.152 114.041 137.152 112.82C137.152 111.598 138.142 110.607 139.364 110.607Z" fill="#A27070"/>
<path d="M143.788 110.607C145.009 110.607 146 111.598 146 112.82C146 114.041 145.009 115.032 143.788 115.032C142.566 115.032 141.575 114.041 141.575 112.82C141.575 111.598 142.566 110.607 143.788 110.607Z" fill="#A27070"/>
<path d="M42.0305 115.03C43.2523 115.03 44.2426 116.021 44.2426 117.242C44.2426 118.464 43.2523 119.455 42.0305 119.455C40.8088 119.455 39.8184 118.464 39.8184 117.242C39.8184 116.021 40.8088 115.03 42.0305 115.03Z" fill="#A27070"/>
<path d="M46.4546 115.03C47.6763 115.03 48.6667 116.021 48.6667 117.242C48.6667 118.464 47.6763 119.455 46.4546 119.455C45.2328 119.455 44.2424 118.464 44.2424 117.242C44.2424 116.021 45.2328 115.03 46.4546 115.03Z" fill="#A27070"/>
<path d="M55.3032 115.03C56.525 115.03 57.5153 116.021 57.5153 117.242C57.5153 118.464 56.525 119.455 55.3032 119.455C54.0815 119.455 53.0911 118.464 53.0911 117.242C53.0911 116.021 54.0815 115.03 55.3032 115.03Z" fill="#A27070"/>
<path d="M59.7273 115.03C60.949 115.03 61.9394 116.021 61.9394 117.242C61.9394 118.464 60.949 119.455 59.7273 119.455C58.5055 119.455 57.5151 118.464 57.5151 117.242C57.5151 116.021 58.5055 115.03 59.7273 115.03Z" fill="#A27070"/>
<path d="M81.8484 115.03C83.0701 115.03 84.0605 116.021 84.0605 117.242C84.0605 118.464 83.0701 119.455 81.8484 119.455C80.6266 119.455 79.6362 118.464 79.6362 117.242C79.6362 116.021 80.6266 115.03 81.8484 115.03Z" fill="#A27070"/>
<path d="M95.1211 115.03C96.3428 115.03 97.3332 116.021 97.3332 117.242C97.3332 118.464 96.3428 119.455 95.1211 119.455C93.8993 119.455 92.9089 118.464 92.9089 117.242C92.9089 116.021 93.8993 115.03 95.1211 115.03Z" fill="#A27070"/>
<path d="M103.97 115.03C105.191 115.03 106.182 116.021 106.182 117.242C106.182 118.464 105.191 119.455 103.97 119.455C102.748 119.455 101.758 118.464 101.758 117.242C101.758 116.021 102.748 115.03 103.97 115.03Z" fill="#A27070"/>
<path d="M108.394 115.03C109.616 115.03 110.606 116.021 110.606 117.242C110.606 118.464 109.616 119.455 108.394 119.455C107.172 119.455 106.182 118.464 106.182 117.242C106.182 116.021 107.172 115.03 108.394 115.03Z" fill="#A27070"/>
<path d="M117.242 115.03C118.464 115.03 119.455 116.021 119.455 117.242C119.455 118.464 118.464 119.455 117.242 119.455C116.021 119.455 115.03 118.464 115.03 117.242C115.03 116.021 116.021 115.03 117.242 115.03Z" fill="#A27070"/>
<path d="M126.091 115.03C127.313 115.03 128.303 116.021 128.303 117.242C128.303 118.464 127.313 119.455 126.091 119.455C124.87 119.455 123.879 118.464 123.879 117.242C123.879 116.021 124.87 115.03 126.091 115.03Z" fill="#A27070"/>
<path d="M130.515 115.03C131.737 115.03 132.727 116.021 132.727 117.242C132.727 118.464 131.737 119.455 130.515 119.455C129.293 119.455 128.303 118.464 128.303 117.242C128.303 116.021 129.293 115.03 130.515 115.03Z" fill="#A27070"/>
<path d="M134.939 115.03C136.161 115.03 137.152 116.021 137.152 117.242C137.152 118.464 136.161 119.455 134.939 119.455C133.718 119.455 132.727 118.464 132.727 117.242C132.727 116.021 133.718 115.03 134.939 115.03Z" fill="#A27070"/>
<path d="M139.364 115.03C140.586 115.03 141.576 116.021 141.576 117.242C141.576 118.464 140.586 119.455 139.364 119.455C138.142 119.455 137.152 118.464 137.152 117.242C137.152 116.021 138.142 115.03 139.364 115.03Z" fill="#A27070"/>
<path d="M143.788 115.03C145.009 115.03 146 116.021 146 117.242C146 118.464 145.009 119.455 143.788 119.455C142.566 119.455 141.575 118.464 141.575 117.242C141.575 116.021 142.566 115.03 143.788 115.03Z" fill="#A27070"/>
<path d="M37.6062 119.455C38.8279 119.455 39.8183 120.445 39.8183 121.667C39.8183 122.889 38.8279 123.879 37.6062 123.879C36.3845 123.879 35.394 122.889 35.394 121.667C35.394 120.445 36.3845 119.455 37.6062 119.455Z" fill="#A27070"/>
<path d="M42.0305 119.455C43.2523 119.455 44.2426 120.445 44.2426 121.667C44.2426 122.889 43.2523 123.879 42.0305 123.879C40.8088 123.879 39.8184 122.889 39.8184 121.667C39.8184 120.445 40.8088 119.455 42.0305 119.455Z" fill="#A27070"/>
<path d="M46.4543 119.455C47.6761 119.455 48.6664 120.445 48.6664 121.667C48.6664 122.889 47.6761 123.879 46.4543 123.879C45.2326 123.879 44.2422 122.889 44.2422 121.667C44.2422 120.445 45.2326 119.455 46.4543 119.455Z" fill="#A27070"/>
<path d="M55.3032 119.455C56.525 119.455 57.5153 120.445 57.5153 121.667C57.5153 122.889 56.525 123.879 55.3032 123.879C54.0815 123.879 53.0911 122.889 53.0911 121.667C53.0911 120.445 54.0815 119.455 55.3032 119.455Z" fill="#A27070"/>
<path d="M72.9997 119.455C74.2215 119.455 75.2118 120.445 75.2118 121.667C75.2118 122.889 74.2215 123.879 72.9997 123.879C71.778 123.879 70.7876 122.889 70.7876 121.667C70.7876 120.445 71.778 119.455 72.9997 119.455Z" fill="#A27070"/>
<path d="M77.4245 119.455C78.6463 119.455 79.6366 120.445 79.6366 121.667C79.6366 122.889 78.6463 123.879 77.4245 123.879C76.2028 123.879 75.2124 122.889 75.2124 121.667C75.2124 120.445 76.2028 119.455 77.4245 119.455Z" fill="#A27070"/>
<path d="M81.8484 119.455C83.0701 119.455 84.0605 120.445 84.0605 121.667C84.0605 122.889 83.0701 123.879 81.8484 123.879C80.6266 123.879 79.6362 122.889 79.6362 121.667C79.6362 120.445 80.6266 119.455 81.8484 119.455Z" fill="#A27070"/>
<path d="M86.2727 119.455C87.4944 119.455 88.4848 120.445 88.4848 121.667C88.4848 122.889 87.4944 123.879 86.2727 123.879C85.051 123.879 84.0605 122.889 84.0605 121.667C84.0605 120.445 85.051 119.455 86.2727 119.455Z" fill="#A27070"/>
<path d="M108.394 119.455C109.616 119.455 110.606 120.445 110.606 121.667C110.606 122.889 109.616 123.879 108.394 123.879C107.172 123.879 106.182 122.889 106.182 121.667C106.182 120.445 107.172 119.455 108.394 119.455Z" fill="#A27070"/>
<path d="M126.091 119.455C127.313 119.455 128.303 120.445 128.303 121.667C128.303 122.889 127.313 123.879 126.091 123.879C124.869 123.879 123.879 122.889 123.879 121.667C123.879 120.445 124.869 119.455 126.091 119.455Z" fill="#A27070"/>
<path d="M143.788 119.455C145.01 119.455 146 120.445 146 121.667C146 122.889 145.01 123.879 143.788 123.879C142.566 123.879 141.576 122.889 141.576 121.667C141.576 120.445 142.566 119.455 143.788 119.455Z" fill="#A27070"/>
<path d="M37.6059 123.879C38.8277 123.879 39.818 124.869 39.818 126.091C39.818 127.313 38.8277 128.303 37.6059 128.303C36.3842 128.303 35.3938 127.313 35.3938 126.091C35.3938 124.869 36.3842 123.879 37.6059 123.879Z" fill="#A27070"/>
<path d="M55.3032 123.879C56.525 123.879 57.5153 124.869 57.5153 126.091C57.5153 127.313 56.525 128.303 55.3032 128.303C54.0815 128.303 53.0911 127.313 53.0911 126.091C53.0911 124.869 54.0815 123.879 55.3032 123.879Z" fill="#A27070"/>
<path d="M59.7273 123.879C60.949 123.879 61.9394 124.869 61.9394 126.091C61.9394 127.313 60.949 128.303 59.7273 128.303C58.5055 128.303 57.5151 127.313 57.5151 126.091C57.5151 124.869 58.5055 123.879 59.7273 123.879Z" fill="#A27070"/>
<path d="M73.0002 123.879C74.222 123.879 75.2123 124.869 75.2123 126.091C75.2123 127.313 74.222 128.303 73.0002 128.303C71.7785 128.303 70.7881 127.313 70.7881 126.091C70.7881 124.869 71.7785 123.879 73.0002 123.879Z" fill="#A27070"/>
<path d="M90.697 123.879C91.9188 123.879 92.9091 124.869 92.9091 126.091C92.9091 127.313 91.9188 128.303 90.697 128.303C89.4753 128.303 88.4849 127.313 88.4849 126.091C88.4849 124.869 89.4753 123.879 90.697 123.879Z" fill="#A27070"/>
<path d="M108.394 123.879C109.616 123.879 110.606 124.869 110.606 126.091C110.606 127.313 109.616 128.303 108.394 128.303C107.172 128.303 106.182 127.313 106.182 126.091C106.182 124.869 107.172 123.879 108.394 123.879Z" fill="#A27070"/>
<path d="M112.818 123.879C114.04 123.879 115.03 124.869 115.03 126.091C115.03 127.313 114.04 128.303 112.818 128.303C111.597 128.303 110.606 127.313 110.606 126.091C110.606 124.869 111.597 123.879 112.818 123.879Z" fill="#A27070"/>
<path d="M117.242 123.879C118.464 123.879 119.455 124.869 119.455 126.091C119.455 127.313 118.464 128.303 117.242 128.303C116.021 128.303 115.03 127.313 115.03 126.091C115.03 124.869 116.021 123.879 117.242 123.879Z" fill="#A27070"/>
<path d="M121.666 123.879C122.888 123.879 123.879 124.869 123.879 126.091C123.879 127.313 122.888 128.303 121.666 128.303C120.445 128.303 119.454 127.313 119.454 126.091C119.454 124.869 120.445 123.879 121.666 123.879Z" fill="#A27070"/>
<path d="M126.091 123.879C127.313 123.879 128.303 124.869 128.303 126.091C128.303 127.313 127.313 128.303 126.091 128.303C124.87 128.303 123.879 127.313 123.879 126.091C123.879 124.869 124.87 123.879 126.091 123.879Z" fill="#A27070"/>
<path d="M139.364 123.879C140.586 123.879 141.576 124.869 141.576 126.091C141.576 127.313 140.586 128.303 139.364 128.303C138.142 128.303 137.152 127.313 137.152 126.091C137.152 124.869 138.142 123.879 139.364 123.879Z" fill="#A27070"/>
<path d="M50.8786 128.302C52.1004 128.302 53.0907 129.292 53.0907 130.514C53.0907 131.736 52.1004 132.726 50.8786 132.726C49.6569 132.726 48.6665 131.736 48.6665 130.514C48.6665 129.292 49.6569 128.302 50.8786 128.302Z" fill="#A27070"/>
<path d="M55.3032 128.302C56.525 128.302 57.5153 129.292 57.5153 130.514C57.5153 131.736 56.525 132.726 55.3032 132.726C54.0815 132.726 53.0911 131.736 53.0911 130.514C53.0911 129.292 54.0815 128.302 55.3032 128.302Z" fill="#A27070"/>
<path d="M59.7273 128.302C60.949 128.302 61.9394 129.292 61.9394 130.514C61.9394 131.736 60.949 132.726 59.7273 132.726C58.5055 132.726 57.5151 131.736 57.5151 130.514C57.5151 129.292 58.5055 128.302 59.7273 128.302Z" fill="#A27070"/>
<path d="M73.0002 128.302C74.222 128.302 75.2123 129.292 75.2123 130.514C75.2123 131.736 74.222 132.726 73.0002 132.726C71.7785 132.726 70.7881 131.736 70.7881 130.514C70.7881 129.292 71.7785 128.302 73.0002 128.302Z" fill="#A27070"/>
<path d="M81.8484 128.302C83.0701 128.302 84.0605 129.292 84.0605 130.514C84.0605 131.736 83.0701 132.726 81.8484 132.726C80.6266 132.726 79.6362 131.736 79.6362 130.514C79.6362 129.292 80.6266 128.302 81.8484 128.302Z" fill="#A27070"/>
<path d="M86.2729 128.302C87.4947 128.302 88.485 129.292 88.485 130.514C88.485 131.736 87.4947 132.726 86.2729 132.726C85.0512 132.726 84.0608 131.736 84.0608 130.514C84.0608 129.292 85.0512 128.302 86.2729 128.302Z" fill="#A27070"/>
<path d="M90.697 128.302C91.9188 128.302 92.9091 129.292 92.9091 130.514C92.9091 131.736 91.9188 132.726 90.697 132.726C89.4753 132.726 88.4849 131.736 88.4849 130.514C88.4849 129.292 89.4753 128.302 90.697 128.302Z" fill="#A27070"/>
<path d="M103.97 128.302C105.191 128.302 106.182 129.292 106.182 130.514C106.182 131.736 105.191 132.726 103.97 132.726C102.748 132.726 101.758 131.736 101.758 130.514C101.758 129.292 102.748 128.302 103.97 128.302Z" fill="#A27070"/>
<path d="M108.394 128.302C109.616 128.302 110.606 129.292 110.606 130.514C110.606 131.736 109.616 132.726 108.394 132.726C107.172 132.726 106.182 131.736 106.182 130.514C106.182 129.292 107.172 128.302 108.394 128.302Z" fill="#A27070"/>
<path d="M126.091 128.302C127.313 128.302 128.303 129.292 128.303 130.514C128.303 131.736 127.313 132.726 126.091 132.726C124.87 132.726 123.879 131.736 123.879 130.514C123.879 129.292 124.87 128.302 126.091 128.302Z" fill="#A27070"/>
<path d="M134.939 128.302C136.161 128.302 137.152 129.292 137.152 130.514C137.152 131.736 136.161 132.726 134.939 132.726C133.718 132.726 132.727 131.736 132.727 130.514C132.727 129.292 133.718 128.302 134.939 128.302Z" fill="#A27070"/>
<path d="M37.6062 132.727C38.8279 132.727 39.8183 133.717 39.8183 134.939C39.8183 136.16 38.8279 137.151 37.6062 137.151C36.3845 137.151 35.394 136.16 35.394 134.939C35.394 133.717 36.3845 132.727 37.6062 132.727Z" fill="#A27070"/>
<path d="M46.4543 132.727C47.6761 132.727 48.6664 133.717 48.6664 134.939C48.6664 136.16 47.6761 137.151 46.4543 137.151C45.2326 137.151 44.2422 136.16 44.2422 134.939C44.2422 133.717 45.2326 132.727 46.4543 132.727Z" fill="#A27070"/>
<path d="M50.8789 132.727C52.1006 132.727 53.091 133.717 53.091 134.939C53.091 136.16 52.1006 137.151 50.8789 137.151C49.6572 137.151 48.6667 136.16 48.6667 134.939C48.6667 133.717 49.6572 132.727 50.8789 132.727Z" fill="#A27070"/>
<path d="M55.3032 132.727C56.525 132.727 57.5153 133.717 57.5153 134.939C57.5153 136.16 56.525 137.151 55.3032 137.151C54.0815 137.151 53.0911 136.16 53.0911 134.939C53.0911 133.717 54.0815 132.727 55.3032 132.727Z" fill="#A27070"/>
<path d="M68.5759 132.727C69.7977 132.727 70.788 133.717 70.788 134.939C70.788 136.16 69.7977 137.151 68.5759 137.151C67.3542 137.151 66.3638 136.16 66.3638 134.939C66.3638 133.717 67.3542 132.727 68.5759 132.727Z" fill="#A27070"/>
<path d="M77.4245 132.727C78.6463 132.727 79.6366 133.717 79.6366 134.939C79.6366 136.16 78.6463 137.151 77.4245 137.151C76.2028 137.151 75.2124 136.16 75.2124 134.939C75.2124 133.717 76.2028 132.727 77.4245 132.727Z" fill="#A27070"/>
<path d="M86.2727 132.727C87.4944 132.727 88.4848 133.717 88.4848 134.939C88.4848 136.16 87.4944 137.151 86.2727 137.151C85.051 137.151 84.0605 136.16 84.0605 134.939C84.0605 133.717 85.051 132.727 86.2727 132.727Z" fill="#A27070"/>
<path d="M103.97 132.727C105.192 132.727 106.182 133.717 106.182 134.939C106.182 136.16 105.192 137.151 103.97 137.151C102.748 137.151 101.758 136.16 101.758 134.939C101.758 133.717 102.748 132.727 103.97 132.727Z" fill="#A27070"/>
<path d="M112.818 132.727C114.04 132.727 115.03 133.717 115.03 134.939C115.03 136.16 114.04 137.151 112.818 137.151C111.596 137.151 110.606 136.16 110.606 134.939C110.606 133.717 111.596 132.727 112.818 132.727Z" fill="#A27070"/>
<path d="M121.666 132.727C122.888 132.727 123.879 133.717 123.879 134.939C123.879 136.16 122.888 137.151 121.666 137.151C120.445 137.151 119.454 136.16 119.454 134.939C119.454 133.717 120.445 132.727 121.666 132.727Z" fill="#A27070"/>
<path d="M126.091 132.727C127.313 132.727 128.303 133.717 128.303 134.939C128.303 136.16 127.313 137.151 126.091 137.151C124.869 137.151 123.879 136.16 123.879 134.939C123.879 133.717 124.869 132.727 126.091 132.727Z" fill="#A27070"/>
<path d="M143.788 132.727C145.01 132.727 146 133.717 146 134.939C146 136.16 145.01 137.151 143.788 137.151C142.566 137.151 141.576 136.16 141.576 134.939C141.576 133.717 142.566 132.727 143.788 132.727Z" fill="#A27070"/>
<path d="M64.1513 137.152C65.3731 137.152 66.3635 138.143 66.3635 139.364C66.3635 140.586 65.3731 141.577 64.1513 141.577C62.9296 141.577 61.9392 140.586 61.9392 139.364C61.9392 138.143 62.9296 137.152 64.1513 137.152Z" fill="#A27070"/>
<path d="M68.5756 137.152C69.7974 137.152 70.7878 138.143 70.7878 139.364C70.7878 140.586 69.7974 141.577 68.5756 141.577C67.3539 141.577 66.3635 140.586 66.3635 139.364C66.3635 138.143 67.3539 137.152 68.5756 137.152Z" fill="#A27070"/>
<path d="M77.424 137.152C78.6458 137.152 79.6362 138.143 79.6362 139.364C79.6362 140.586 78.6458 141.577 77.424 141.577C76.2023 141.577 75.2119 140.586 75.2119 139.364C75.2119 138.143 76.2023 137.152 77.424 137.152Z" fill="#A27070"/>
<path d="M81.8486 137.152C83.0704 137.152 84.0607 138.143 84.0607 139.364C84.0607 140.586 83.0704 141.577 81.8486 141.577C80.6269 141.577 79.6365 140.586 79.6365 139.364C79.6365 138.143 80.6269 137.152 81.8486 137.152Z" fill="#A27070"/>
<path d="M86.2729 137.152C87.4947 137.152 88.485 138.143 88.485 139.364C88.485 140.586 87.4947 141.577 86.2729 141.577C85.0512 141.577 84.0608 140.586 84.0608 139.364C84.0608 138.143 85.0512 137.152 86.2729 137.152Z" fill="#A27070"/>
<path d="M90.6967 137.152C91.9185 137.152 92.9089 138.143 92.9089 139.364C92.9089 140.586 91.9185 141.577 90.6967 141.577C89.475 141.577 88.4846 140.586 88.4846 139.364C88.4846 138.143 89.475 137.152 90.6967 137.152Z" fill="#A27070"/>
<path d="M95.1213 137.152C96.3431 137.152 97.3334 138.143 97.3334 139.364C97.3334 140.586 96.3431 141.577 95.1213 141.577C93.8996 141.577 92.9092 140.586 92.9092 139.364C92.9092 138.143 93.8996 137.152 95.1213 137.152Z" fill="#A27070"/>
<path d="M103.969 137.152C105.191 137.152 106.182 138.143 106.182 139.364C106.182 140.586 105.191 141.577 103.969 141.577C102.748 141.577 101.757 140.586 101.757 139.364C101.757 138.143 102.748 137.152 103.969 137.152Z" fill="#A27070"/>
<path d="M108.394 137.152C109.616 137.152 110.606 138.143 110.606 139.364C110.606 140.586 109.616 141.577 108.394 141.577C107.172 141.577 106.182 140.586 106.182 139.364C106.182 138.143 107.172 137.152 108.394 137.152Z" fill="#A27070"/>
<path d="M121.667 137.152C122.888 137.152 123.879 138.143 123.879 139.364C123.879 140.586 122.888 141.577 121.667 141.577C120.445 141.577 119.455 140.586 119.455 139.364C119.455 138.143 120.445 137.152 121.667 137.152Z" fill="#A27070"/>
<path d="M134.939 137.152C136.161 137.152 137.152 138.143 137.152 139.364C137.152 140.586 136.161 141.577 134.939 141.577C133.718 141.577 132.727 140.586 132.727 139.364C132.727 138.143 133.718 137.152 134.939 137.152Z" fill="#A27070"/>
<path d="M139.364 137.152C140.586 137.152 141.576 138.143 141.576 139.364C141.576 140.586 140.586 141.577 139.364 141.577C138.142 141.577 137.152 140.586 137.152 139.364C137.152 138.143 138.142 137.152 139.364 137.152Z" fill="#A27070"/>
<path d="M42.0302 141.575C43.252 141.575 44.2424 142.566 44.2424 143.787C44.2424 145.009 43.252 145.999 42.0302 145.999C40.8085 145.999 39.8181 145.009 39.8181 143.787C39.8181 142.566 40.8085 141.575 42.0302 141.575Z" fill="#A27070"/>
<path d="M55.3029 141.575C56.5247 141.575 57.5151 142.566 57.5151 143.787C57.5151 145.009 56.5247 145.999 55.3029 145.999C54.0812 145.999 53.0908 145.009 53.0908 143.787C53.0908 142.566 54.0812 141.575 55.3029 141.575Z" fill="#A27070"/>
<path d="M64.1513 141.575C65.3731 141.575 66.3635 142.566 66.3635 143.787C66.3635 145.009 65.3731 145.999 64.1513 145.999C62.9296 145.999 61.9392 145.009 61.9392 143.787C61.9392 142.566 62.9296 141.575 64.1513 141.575Z" fill="#A27070"/>
<path d="M73.0002 141.575C74.222 141.575 75.2123 142.566 75.2123 143.787C75.2123 145.009 74.222 145.999 73.0002 145.999C71.7785 145.999 70.7881 145.009 70.7881 143.787C70.7881 142.566 71.7785 141.575 73.0002 141.575Z" fill="#A27070"/>
<path d="M77.424 141.575C78.6458 141.575 79.6362 142.566 79.6362 143.787C79.6362 145.009 78.6458 145.999 77.424 145.999C76.2023 145.999 75.2119 145.009 75.2119 143.787C75.2119 142.566 76.2023 141.575 77.424 141.575Z" fill="#A27070"/>
<path d="M81.8486 141.575C83.0704 141.575 84.0607 142.566 84.0607 143.787C84.0607 145.009 83.0704 145.999 81.8486 145.999C80.6269 145.999 79.6365 145.009 79.6365 143.787C79.6365 142.566 80.6269 141.575 81.8486 141.575Z" fill="#A27070"/>
<path d="M86.2729 141.575C87.4947 141.575 88.485 142.566 88.485 143.787C88.485 145.009 87.4947 145.999 86.2729 145.999C85.0512 145.999 84.0608 145.009 84.0608 143.787C84.0608 142.566 85.0512 141.575 86.2729 141.575Z" fill="#A27070"/>
<path d="M99.5456 141.575C100.767 141.575 101.758 142.566 101.758 143.787C101.758 145.009 100.767 145.999 99.5456 145.999C98.3239 145.999 97.3335 145.009 97.3335 143.787C97.3335 142.566 98.3239 141.575 99.5456 141.575Z" fill="#A27070"/>
<path d="M103.969 141.575C105.191 141.575 106.182 142.566 106.182 143.787C106.182 145.009 105.191 145.999 103.969 145.999C102.748 145.999 101.757 145.009 101.757 143.787C101.757 142.566 102.748 141.575 103.969 141.575Z" fill="#A27070"/>
<path d="M108.394 141.575C109.616 141.575 110.606 142.566 110.606 143.787C110.606 145.009 109.616 145.999 108.394 145.999C107.172 145.999 106.182 145.009 106.182 143.787C106.182 142.566 107.172 141.575 108.394 141.575Z" fill="#A27070"/>
<path d="M117.242 141.575C118.464 141.575 119.454 142.566 119.454 143.787C119.454 145.009 118.464 145.999 117.242 145.999C116.02 145.999 115.03 145.009 115.03 143.787C115.03 142.566 116.02 141.575 117.242 141.575Z" fill="#A27070"/>
<path d="M121.667 141.575C122.888 141.575 123.879 142.566 123.879 143.787C123.879 145.009 122.888 145.999 121.667 145.999C120.445 145.999 119.455 145.009 119.455 143.787C119.455 142.566 120.445 141.575 121.667 141.575Z" fill="#A27070"/>
<path d="M126.091 141.575C127.313 141.575 128.303 142.566 128.303 143.787C128.303 145.009 127.313 145.999 126.091 145.999C124.869 145.999 123.879 145.009 123.879 143.787C123.879 142.566 124.869 141.575 126.091 141.575Z" fill="#A27070"/>
<path d="M134.939 141.575C136.161 141.575 137.152 142.566 137.152 143.787C137.152 145.009 136.161 145.999 134.939 145.999C133.718 145.999 132.727 145.009 132.727 143.787C132.727 142.566 133.718 141.575 134.939 141.575Z" fill="#A27070"/>
<path d="M139.364 141.575C140.586 141.575 141.576 142.566 141.576 143.787C141.576 145.009 140.586 145.999 139.364 145.999C138.142 145.999 137.152 145.009 137.152 143.787C137.152 142.566 138.142 141.575 139.364 141.575Z" fill="#A27070"/>
<path d="M143.788 141.575C145.01 141.575 146 142.566 146 143.787C146 145.009 145.01 145.999 143.788 145.999C142.566 145.999 141.576 145.009 141.576 143.787C141.576 142.566 142.566 141.575 143.788 141.575Z" fill="#A27070"/>
<path d="M15.4848 0.305664C7.10083 0.305664 0.303589 7.10291 0.303589 15.4869C0.303589 23.8709 7.10083 30.6681 15.4848 30.6681C23.8688 30.6681 30.666 23.8709 30.666 15.4869C30.666 7.10291 23.8688 0.305664 15.4848 0.305664ZM15.4848 26.1137C9.62517 26.1137 4.85796 21.3465 4.85796 15.4869C4.85796 9.62724 9.62517 4.86003 15.4848 4.86003C21.3445 4.86003 26.1117 9.62724 26.1117 15.4869C26.1117 21.3465 21.3445 26.1137 15.4848 26.1137Z" fill="#A27070"/>
<path d="M130.515 0.305664C122.131 0.305664 115.334 7.10291 115.334 15.4869C115.334 23.8709 122.131 30.6681 130.515 30.6681C138.899 30.6681 145.696 23.8709 145.696 15.4869C145.696 7.10291 138.899 0.305664 130.515 0.305664ZM130.515 26.1137C124.656 26.1137 119.888 21.3465 119.888 15.4869C119.888 9.62724 124.656 4.86003 130.515 4.86003C136.375 4.86003 141.142 9.62724 141.142 15.4869C141.142 21.3465 136.375 26.1137 130.515 26.1137Z" fill="#A27070"/>
<path d="M15.4848 115.336C7.10083 115.336 0.303589 122.133 0.303589 130.517C0.303589 138.901 7.10083 145.698 15.4848 145.698C23.8688 145.698 30.666 138.901 30.666 130.517C30.666 122.133 23.8688 115.336 15.4848 115.336ZM15.4848 141.144C9.62517 141.144 4.85796 136.377 4.85796 130.517C4.85796 124.658 9.62517 119.89 15.4848 119.89C21.3445 119.89 26.1117 124.658 26.1117 130.517C26.1117 136.377 21.3445 141.144 15.4848 141.144Z" fill="#A27070"/>
<path d="M15.3547 21.8601C18.948 21.8601 21.861 18.9472 21.861 15.3539C21.861 11.7606 18.948 8.84766 15.3547 8.84766C11.7615 8.84766 8.84851 11.7606 8.84851 15.3539C8.84851 18.9472 11.7615 21.8601 15.3547 21.8601Z" fill="#A27070"/>
<path d="M130.385 21.8601C133.978 21.8601 136.891 18.9472 136.891 15.3539C136.891 11.7606 133.978 8.84766 130.385 8.84766C126.792 8.84766 123.879 11.7606 123.879 15.3539C123.879 18.9472 126.792 21.8601 130.385 21.8601Z" fill="#A27070"/>
<path d="M15.3549 136.891C18.9482 136.891 21.8611 133.978 21.8611 130.385C21.8611 126.792 18.9482 123.879 15.3549 123.879C11.7616 123.879 8.84863 126.792 8.84863 130.385C8.84863 133.978 11.7616 136.891 15.3549 136.891Z" fill="#A27070"/>
<path d="M86.8658 78.9099C86.8575 82.57 85.6397 85.7526 83.0577 88.3645C80.8783 90.5705 78.2514 91.9197 75.1686 92.4088C71.2274 93.0344 67.6938 92.0728 64.4813 89.7919C62.4383 88.3395 60.9377 86.413 59.818 84.1904C58.6984 81.9694 58.1826 79.5937 58.2875 77.1132C58.4438 73.3666 59.7082 70.0393 62.1871 67.1911C63.6245 65.5408 65.2682 64.1533 67.1963 63.1152C68.8151 62.2434 70.5403 61.6578 72.3653 61.4182C73.3203 61.2918 74.2902 61.2735 75.2501 61.187C76.7474 61.0522 77.9519 60.3535 78.8237 59.1523C80.2661 57.1659 80.4873 54.9948 79.4708 52.7772C78.5691 50.8107 77.0119 49.6628 74.7826 49.6512C73.9075 49.6462 73.1023 49.939 72.3504 50.4514C70.527 51.6958 69.8199 53.4726 69.7301 55.5821C69.6852 56.6335 69.8565 57.6484 70.2242 58.6366C70.517 59.4252 70.3623 60.0573 69.8698 60.3219C69.2892 60.633 68.3543 60.4533 67.945 59.8477C67.6123 59.3553 67.3394 58.7946 67.1697 58.224C66.3479 55.4723 66.6374 52.8337 68.2062 50.4081C69.5937 48.262 71.5684 46.9244 74.1388 46.6899C77.14 46.4153 79.5374 47.6182 81.3275 50.0138C82.5569 51.6592 83.1242 53.5475 83.0693 55.5838C82.9945 58.3721 81.9231 60.7211 79.727 62.4963C78.5026 63.4861 77.0984 64.0551 75.5196 64.1549C74.014 64.2498 72.5084 64.3147 71.0477 64.7672C68.7552 65.4775 66.8054 66.7103 65.1268 68.4189C63.2418 70.3354 62.0074 72.583 61.515 75.2283C60.7929 79.1029 61.7412 82.5334 64.2883 85.5246C66.2763 87.8587 68.8251 89.2462 71.8479 89.5374C74.781 89.8185 77.5094 89.0799 79.8618 87.2016C81.928 85.5529 83.249 83.45 83.7231 80.8398C83.9011 79.8615 83.961 78.8733 83.823 77.8818C83.6899 76.9352 82.7615 76.0085 81.7916 75.8455C80.642 75.6525 79.6106 76.1383 79.0266 77.1481C78.4976 78.0631 78.614 79.2294 79.3377 80.0895C79.8235 80.6684 80.4773 80.9496 81.2127 80.9912C81.8598 81.0278 82.2508 81.7864 82.1094 82.3121C81.8648 83.2205 81.0197 83.6181 80.1463 83.5698C79.2778 83.5216 78.4493 83.3419 77.7606 82.7497C77.694 82.6931 77.5177 82.6814 77.4428 82.728C75.4531 83.9641 73.3968 83.8111 71.3172 83.0258C70.0994 82.5666 68.855 82.2156 67.554 82.179C66.9102 82.1607 66.2547 82.2689 65.6192 82.3936C64.7275 82.5683 63.9672 82.1774 63.7393 81.3522C63.513 80.5337 63.9639 79.7584 64.8356 79.5172C66.6906 79.0031 68.5439 79.1146 70.3839 79.5904C71.0843 79.7717 71.7664 80.0212 72.4535 80.2508C73.2371 80.512 74.0207 80.7516 74.8608 80.5719C74.9906 80.5436 75.122 80.5187 75.2468 80.4771C75.9189 80.2508 75.9605 80.1743 75.8041 79.4889C75.1204 76.4876 77.3513 73.2901 80.3858 72.8659C82.126 72.623 83.6815 73.0505 84.9792 74.1685C86.1188 75.1501 86.7759 76.4577 86.8608 77.9982C86.8774 78.2994 86.8625 78.6038 86.8625 78.9049L86.8658 78.9099Z" fill="#A27070"/>
<path d="M73.2868 99.5297C69.7249 99.5064 66.5889 98.7711 63.6226 97.2671C60.2804 95.5735 57.4854 93.2511 55.321 90.1916C53.7206 87.9307 52.5377 85.4701 51.9038 82.7617C51.7558 82.1262 51.8855 81.5539 52.4395 81.143C52.9403 80.772 53.4876 80.7287 54.0416 81.0032C54.5491 81.2544 54.757 81.7236 54.8768 82.251C55.2678 83.9895 55.9798 85.5999 56.8981 87.1155C59.555 91.4943 63.3515 94.4057 68.2709 95.8397C69.5835 96.2224 70.9278 96.422 72.297 96.4902C77.2181 96.7348 81.4421 95.0844 84.9873 91.7272C87.7623 89.1002 89.5408 85.8844 90.1048 82.0746C90.7403 77.7791 89.7903 73.8462 87.2366 70.3142C85.8391 68.381 84.0307 66.9436 81.9179 65.8656C81.2192 65.5096 80.9214 64.7393 81.1826 64.0239C81.4887 63.1838 82.4153 62.7812 83.2205 63.1688C86.0288 64.518 88.328 66.4678 90.0665 69.0565C91.5971 71.334 92.5969 73.8345 93.0494 76.5396C93.3689 78.4428 93.3822 80.3577 93.116 82.2776C92.8382 84.2806 92.2758 86.1922 91.3991 88.0089C90.4824 89.9071 89.2746 91.6057 87.8272 93.1363C84.6696 96.4769 80.7883 98.4583 76.2881 99.2685C75.7557 99.365 75.2117 99.4016 74.671 99.4465C74.1303 99.4915 73.5863 99.5098 73.2868 99.5264V99.5297Z" fill="#A27070"/>
</svg>
